<svg width="31" height="386" viewBox="0 0 31 386" fill="none" xmlns="http://www.w3.org/2000/svg">
<rect x="0.5" y="0.5" width="29.48" height="384.5" fill="#333333" stroke="#161616"/>
<path d="M1.21638 376V371.65H2.40438C2.63238 371.65 2.84038 371.68 3.02838 371.74C3.22038 371.8 3.38438 371.89 3.52038 372.01C3.66038 372.126 3.76838 372.27 3.84438 372.442C3.92038 372.61 3.95838 372.804 3.95838 373.024C3.95838 373.144 3.94638 373.264 3.92238 373.384C3.89838 373.5 3.85838 373.614 3.80238 373.726C3.75038 373.834 3.68238 373.936 3.59838 374.032C3.51438 374.124 3.41238 374.202 3.29238 374.266C3.45238 374.518 3.62638 374.798 3.81438 375.106C4.00238 375.41 4.19238 375.708 4.38438 376H3.59838C3.51838 375.876 3.43438 375.746 3.34638 375.61C3.26238 375.474 3.17638 375.34 3.08838 375.208C3.00438 375.072 2.92038 374.94 2.83638 374.812C2.75638 374.68 2.68038 374.558 2.60838 374.446H2.48838H1.87638V376H1.21638ZM1.87638 373.828H2.47038C2.63038 373.828 2.76438 373.802 2.87238 373.75C2.98038 373.694 3.06438 373.626 3.12438 373.546C3.18838 373.466 3.23238 373.38 3.25638 373.288C3.28438 373.196 3.29838 373.112 3.29838 373.036C3.29838 372.96 3.28438 372.878 3.25638 372.79C3.23238 372.698 3.18838 372.614 3.12438 372.538C3.06038 372.458 2.97438 372.392 2.86638 372.34C2.76238 372.288 2.63238 372.262 2.47638 372.262H1.87638V373.828ZM7.67796 376C7.65796 375.956 7.62996 375.892 7.59396 375.808C7.55796 375.724 7.51596 375.628 7.46796 375.52C7.42396 375.408 7.37396 375.288 7.31796 375.16C7.26596 375.028 7.21196 374.892 7.15596 374.752H5.61996L5.10396 376H4.45596L6.39396 371.446C6.41796 371.502 6.45996 371.604 6.51996 371.752C6.58396 371.9 6.65796 372.078 6.74196 372.286C6.82996 372.49 6.92596 372.718 7.02996 372.97C7.13796 373.218 7.24596 373.47 7.35396 373.726C7.46596 373.982 7.57396 374.234 7.67796 374.482C7.78596 374.73 7.88396 374.958 7.97196 375.166C8.05996 375.374 8.13396 375.552 8.19396 375.7C8.25796 375.844 8.30196 375.944 8.32596 376H7.67796ZM5.84796 374.2H6.93396C6.87796 374.068 6.82396 373.942 6.77196 373.822C6.72396 373.698 6.67796 373.586 6.63396 373.486C6.59396 373.382 6.55796 373.292 6.52596 373.216C6.49396 373.14 6.46996 373.08 6.45396 373.036C6.44996 373.028 6.43996 373 6.42396 372.952C6.41196 372.904 6.40196 372.86 6.39396 372.82C6.38596 372.86 6.37396 372.904 6.35796 372.952C6.34196 373 6.33196 373.028 6.32796 373.036L5.84796 374.2ZM11.9327 375.688C11.8847 375.724 11.8167 375.764 11.7287 375.808C11.6447 375.848 11.5447 375.886 11.4287 375.922C11.3127 375.958 11.1827 375.988 11.0387 376.012C10.8987 376.036 10.7487 376.048 10.5887 376.048C10.2487 376.048 9.94266 375.99 9.67066 375.874C9.40266 375.754 9.17466 375.594 8.98666 375.394C8.79866 375.194 8.65466 374.962 8.55466 374.698C8.45466 374.434 8.40466 374.154 8.40466 373.858C8.40466 373.53 8.46266 373.228 8.57866 372.952C8.69866 372.676 8.86066 372.438 9.06466 372.238C9.26866 372.038 9.50666 371.882 9.77866 371.77C10.0547 371.658 10.3467 371.602 10.6547 371.602C10.7707 371.602 10.8887 371.61 11.0087 371.626C11.1287 371.642 11.2407 371.664 11.3447 371.692C11.4527 371.72 11.5467 371.754 11.6267 371.794C11.7107 371.83 11.7747 371.868 11.8187 371.908C11.7867 371.956 11.7607 371.996 11.7407 372.028C11.7247 372.06 11.7067 372.094 11.6867 372.13C11.6667 372.162 11.6447 372.2 11.6207 372.244C11.5967 372.288 11.5647 372.346 11.5247 372.418C11.4727 372.382 11.4107 372.352 11.3387 372.328C11.2707 372.304 11.1987 372.284 11.1227 372.268C11.0467 372.252 10.9687 372.24 10.8887 372.232C10.8127 372.224 10.7427 372.22 10.6787 372.22C10.4467 372.22 10.2307 372.264 10.0307 372.352C9.83466 372.436 9.66466 372.552 9.52066 372.7C9.37666 372.844 9.26266 373.012 9.17866 373.204C9.09866 373.396 9.05866 373.596 9.05866 373.804C9.05866 374.008 9.09666 374.204 9.17266 374.392C9.25266 374.58 9.36066 374.748 9.49666 374.896C9.63666 375.044 9.80266 375.162 9.99466 375.25C10.1907 375.338 10.4047 375.382 10.6367 375.382C10.7607 375.382 10.8807 375.37 10.9967 375.346C11.1127 375.322 11.2167 375.294 11.3087 375.262C11.4047 375.23 11.4827 375.198 11.5427 375.166C11.6067 375.134 11.6447 375.11 11.6567 375.094L11.9327 375.688ZM15.1108 376C14.9708 375.82 14.8368 375.648 14.7088 375.484C14.5808 375.32 14.4548 375.156 14.3308 374.992C14.2068 374.828 14.0808 374.662 13.9528 374.494C13.8288 374.326 13.6968 374.152 13.5568 373.972C13.5048 374.028 13.4548 374.08 13.4068 374.128C13.3588 374.172 13.3068 374.218 13.2508 374.266C13.2508 374.574 13.2508 374.864 13.2508 375.136C13.2548 375.404 13.2568 375.692 13.2568 376H12.5308V371.65H13.2568V373.276C13.2568 373.312 13.2528 373.348 13.2448 373.384C13.2408 373.416 13.2388 373.45 13.2388 373.486C13.2588 373.458 13.2788 373.434 13.2988 373.414C13.3188 373.39 13.3388 373.362 13.3588 373.33C13.6428 373.062 13.9168 372.784 14.1808 372.496C14.4448 372.204 14.7188 371.922 15.0028 371.65H15.8368C15.5368 371.962 15.2388 372.276 14.9428 372.592C14.6508 372.908 14.3548 373.222 14.0548 373.534C14.2228 373.75 14.3828 373.96 14.5348 374.164C14.6908 374.364 14.8428 374.564 14.9908 374.764C15.1428 374.964 15.2948 375.166 15.4468 375.37C15.5988 375.574 15.7568 375.784 15.9208 376H15.1108ZM16.4156 376V371.65H17.0756V375.376H19.2356V376H16.4156ZM19.8433 376V371.65H22.6993V372.244H20.5033V373.516H22.4593V374.122H20.5033V375.394H22.7833V376H19.8433ZM26.0365 371.89L25.8025 372.424C25.6385 372.364 25.4745 372.316 25.3105 372.28C25.1505 372.244 24.9965 372.226 24.8485 372.226C24.5965 372.226 24.3945 372.278 24.2425 372.382C24.0945 372.486 24.0205 372.618 24.0205 372.778C24.0205 372.914 24.0745 373.024 24.1825 373.108C24.2905 373.188 24.4245 373.262 24.5845 373.33C24.7445 373.394 24.9185 373.46 25.1065 373.528C25.2945 373.592 25.4685 373.676 25.6285 373.78C25.7885 373.884 25.9225 374.016 26.0305 374.176C26.1385 374.332 26.1925 374.534 26.1925 374.782C26.1925 374.974 26.1565 375.148 26.0845 375.304C26.0165 375.456 25.9125 375.588 25.7725 375.7C25.6365 375.812 25.4645 375.898 25.2565 375.958C25.0525 376.018 24.8125 376.048 24.5365 376.048C24.3605 376.048 24.2005 376.036 24.0565 376.012C23.9165 375.988 23.7885 375.958 23.6725 375.922C23.5605 375.882 23.4605 375.84 23.3725 375.796C23.2885 375.752 23.2165 375.712 23.1565 375.676L23.4445 375.106C23.6045 375.198 23.7825 375.272 23.9785 375.328C24.1745 375.384 24.3525 375.412 24.5125 375.412C24.5925 375.412 24.6905 375.402 24.8065 375.382C24.9265 375.362 25.0405 375.328 25.1485 375.28C25.2565 375.228 25.3485 375.16 25.4245 375.076C25.5045 374.992 25.5445 374.886 25.5445 374.758C25.5445 374.642 25.5125 374.544 25.4485 374.464C25.3885 374.38 25.3065 374.308 25.2025 374.248C25.1025 374.184 24.9865 374.128 24.8545 374.08C24.7265 374.028 24.5945 373.976 24.4585 373.924C24.3225 373.868 24.1885 373.81 24.0565 373.75C23.9285 373.69 23.8125 373.618 23.7085 373.534C23.6085 373.446 23.5265 373.346 23.4625 373.234C23.4025 373.118 23.3725 372.98 23.3725 372.82C23.3725 372.672 23.4025 372.526 23.4625 372.382C23.5225 372.238 23.6125 372.11 23.7325 371.998C23.8525 371.886 24.0005 371.796 24.1765 371.728C24.3565 371.66 24.5645 371.626 24.8005 371.626C24.9445 371.626 25.0845 371.638 25.2205 371.662C25.3605 371.686 25.4865 371.714 25.5985 371.746C25.7105 371.774 25.8045 371.802 25.8805 371.83C25.9605 371.858 26.0125 371.878 26.0365 371.89ZM29.429 371.89L29.195 372.424C29.031 372.364 28.867 372.316 28.703 372.28C28.543 372.244 28.389 372.226 28.241 372.226C27.989 372.226 27.787 372.278 27.635 372.382C27.487 372.486 27.413 372.618 27.413 372.778C27.413 372.914 27.467 373.024 27.575 373.108C27.683 373.188 27.817 373.262 27.977 373.33C28.137 373.394 28.311 373.46 28.499 373.528C28.687 373.592 28.861 373.676 29.021 373.78C29.181 373.884 29.315 374.016 29.423 374.176C29.531 374.332 29.585 374.534 29.585 374.782C29.585 374.974 29.549 375.148 29.477 375.304C29.409 375.456 29.305 375.588 29.165 375.7C29.029 375.812 28.857 375.898 28.649 375.958C28.445 376.018 28.205 376.048 27.929 376.048C27.753 376.048 27.593 376.036 27.449 376.012C27.309 375.988 27.181 375.958 27.065 375.922C26.953 375.882 26.853 375.84 26.765 375.796C26.681 375.752 26.609 375.712 26.549 375.676L26.837 375.106C26.997 375.198 27.175 375.272 27.371 375.328C27.567 375.384 27.745 375.412 27.905 375.412C27.985 375.412 28.083 375.402 28.199 375.382C28.319 375.362 28.433 375.328 28.541 375.28C28.649 375.228 28.741 375.16 28.817 375.076C28.897 374.992 28.937 374.886 28.937 374.758C28.937 374.642 28.905 374.544 28.841 374.464C28.781 374.38 28.699 374.308 28.595 374.248C28.495 374.184 28.379 374.128 28.247 374.08C28.119 374.028 27.987 373.976 27.851 373.924C27.715 373.868 27.581 373.81 27.449 373.75C27.321 373.69 27.205 373.618 27.101 373.534C27.001 373.446 26.919 373.346 26.855 373.234C26.795 373.118 26.765 372.98 26.765 372.82C26.765 372.672 26.795 372.526 26.855 372.382C26.915 372.238 27.005 372.11 27.125 371.998C27.245 371.886 27.393 371.796 27.569 371.728C27.749 371.66 27.957 371.626 28.193 371.626C28.337 371.626 28.477 371.638 28.613 371.662C28.753 371.686 28.879 371.714 28.991 371.746C29.103 371.774 29.197 371.802 29.273 371.83C29.353 371.858 29.405 371.878 29.429 371.89Z" fill="#C4C4C4"/>
<path d="M3.45506 14.187C3.50906 14.271 3.62006 14.433 3.78806 14.673C3.96206 14.907 4.16006 15.18 4.38206 15.492C4.61006 15.804 4.85006 16.137 5.10206 16.491C5.35406 16.839 5.59106 17.169 5.81306 17.481C6.03506 17.787 6.22706 18.054 6.38906 18.282C6.55706 18.51 6.66806 18.66 6.72206 18.732C6.74006 18.702 6.79706 18.621 6.89306 18.489C6.98906 18.357 7.10606 18.192 7.24406 17.994C7.38806 17.796 7.55006 17.574 7.73006 17.328C7.91006 17.076 8.09306 16.821 8.27906 16.563C8.47106 16.299 8.65706 16.038 8.83706 15.78C9.02306 15.522 9.19406 15.288 9.35006 15.078C9.50606 14.862 9.63806 14.676 9.74606 14.52C9.86006 14.358 9.94106 14.247 9.98906 14.187V21H8.94506V17.346C8.94506 17.298 8.94806 17.247 8.95406 17.193C8.96606 17.139 8.97206 17.1 8.97206 17.076C8.91806 17.148 8.83106 17.271 8.71106 17.445C8.59706 17.613 8.46206 17.808 8.30606 18.03C8.15606 18.246 7.99706 18.477 7.82906 18.723C7.66106 18.963 7.50206 19.191 7.35206 19.407C7.20206 19.623 7.07006 19.815 6.95606 19.983C6.84206 20.145 6.76406 20.259 6.72206 20.325C6.68006 20.271 6.59606 20.16 6.47006 19.992C6.35006 19.818 6.20606 19.617 6.03806 19.389C5.87606 19.161 5.70206 18.918 5.51606 18.66C5.33606 18.402 5.16806 18.162 5.01206 17.94C4.85606 17.718 4.72106 17.529 4.60706 17.373C4.49306 17.211 4.42706 17.112 4.40906 17.076C4.40906 17.1 4.41206 17.139 4.41806 17.193C4.43006 17.247 4.43606 17.298 4.43606 17.346V21H3.45506V14.187ZM15.6347 21C15.6047 20.934 15.5627 20.838 15.5087 20.712C15.4547 20.586 15.3917 20.442 15.3197 20.28C15.2537 20.112 15.1787 19.932 15.0947 19.74C15.0167 19.542 14.9357 19.338 14.8517 19.128H12.5477L11.7737 21H10.8017L13.7087 14.169C13.7447 14.253 13.8077 14.406 13.8977 14.628C13.9937 14.85 14.1047 15.117 14.2307 15.429C14.3627 15.735 14.5067 16.077 14.6627 16.455C14.8247 16.827 14.9867 17.205 15.1487 17.589C15.3167 17.973 15.4787 18.351 15.6347 18.723C15.7967 19.095 15.9437 19.437 16.0757 19.749C16.2077 20.061 16.3187 20.328 16.4087 20.55C16.5047 20.766 16.5707 20.916 16.6067 21H15.6347ZM12.8897 18.3H14.5187C14.4347 18.102 14.3537 17.913 14.2757 17.733C14.2037 17.547 14.1347 17.379 14.0687 17.229C14.0087 17.073 13.9547 16.938 13.9067 16.824C13.8587 16.71 13.8227 16.62 13.7987 16.554C13.7927 16.542 13.7777 16.5 13.7537 16.428C13.7357 16.356 13.7207 16.29 13.7087 16.23C13.6967 16.29 13.6787 16.356 13.6547 16.428C13.6307 16.5 13.6157 16.542 13.6097 16.554L12.8897 18.3ZM20.63 14.475V15.411H18.983V21H18.002V15.411H16.391V14.475H20.63ZM21.789 21V14.475H22.77V17.247H26.037V14.475H27.027C27.027 14.553 27.027 14.7 27.027 14.916C27.027 15.126 27.027 15.378 27.027 15.672C27.027 15.966 27.027 16.293 27.027 16.653C27.027 17.007 27.024 17.37 27.018 17.742C27.018 18.108 27.018 18.471 27.018 18.831C27.018 19.185 27.018 19.509 27.018 19.803C27.018 20.097 27.018 20.352 27.018 20.568C27.018 20.778 27.018 20.922 27.018 21H26.037V18.183H22.77V21H21.789Z" fill="#C4C4C4"/>
<path d="M14.5 80.403L12.911 77.925H13.849C13.8723 77.9623 13.912 78.0253 13.968 78.114C14.024 78.2027 14.087 78.3053 14.157 78.422C14.227 78.534 14.3017 78.6553 14.381 78.786C14.4603 78.912 14.535 79.0333 14.605 79.15C14.675 79.262 14.7357 79.3623 14.787 79.451C14.843 79.5397 14.8827 79.6027 14.906 79.64C14.9107 79.6493 14.927 79.682 14.955 79.738C14.983 79.7893 15.004 79.836 15.018 79.878C15.032 79.836 15.053 79.7893 15.081 79.738C15.109 79.682 15.1253 79.6493 15.13 79.64C15.1533 79.6027 15.1907 79.5397 15.242 79.451C15.298 79.3623 15.3587 79.262 15.424 79.15C15.494 79.0333 15.5663 78.912 15.641 78.786C15.7157 78.6553 15.7857 78.534 15.851 78.422C15.921 78.3053 15.9817 78.2027 16.033 78.114C16.089 78.0253 16.1287 77.9623 16.152 77.925H17.09C17.062 77.967 17.0083 78.0533 16.929 78.184C16.8497 78.31 16.754 78.4593 16.642 78.632C16.5347 78.8047 16.4203 78.989 16.299 79.185C16.1777 79.381 16.061 79.5653 15.949 79.738C15.8417 79.9107 15.746 80.0623 15.662 80.193C15.5827 80.319 15.5313 80.403 15.508 80.445L17.16 83H16.208L15.172 81.334C15.1627 81.32 15.1487 81.299 15.13 81.271C15.1113 81.243 15.0927 81.2127 15.074 81.18C15.0553 81.1427 15.0367 81.1077 15.018 81.075C14.9993 81.0423 14.9853 81.0167 14.976 80.998C14.962 81.04 14.9433 81.0843 14.92 81.131C14.8967 81.1777 14.8827 81.2033 14.878 81.208C14.8407 81.2687 14.7683 81.3853 14.661 81.558C14.5583 81.726 14.4487 81.908 14.332 82.104C14.22 82.3 14.1103 82.4843 14.003 82.657C13.9003 82.825 13.8303 82.9393 13.793 83H12.841L14.5 80.403Z" fill="#C4C4C4"/>
<circle cx="15" cy="54" r="9.5" fill="#616161" stroke="#C4C4C4"/>
<path d="M15 46L21.9282 50V58L15 62L8.0718 58V50L15 46Z" fill="#A5A5A5"/>
<circle cx="15" cy="54" r="5.5" fill="black" stroke="#E5E5E5"/>
<path d="M15.3841 129.327V131H14.6141V129.327C14.5815 129.276 14.5161 129.164 14.4181 128.991C14.3248 128.818 14.2128 128.615 14.0821 128.382C13.9561 128.144 13.8185 127.892 13.6691 127.626C13.5245 127.36 13.3868 127.11 13.2561 126.877C13.1301 126.639 13.0181 126.434 12.9201 126.261C12.8268 126.088 12.7638 125.976 12.7311 125.925H13.5991C13.6411 125.995 13.7158 126.13 13.8231 126.331C13.9305 126.527 14.0495 126.751 14.1801 127.003C14.3108 127.25 14.4438 127.502 14.5791 127.759C14.7145 128.011 14.8288 128.228 14.9221 128.41L14.9991 128.641C15.0178 128.604 15.0341 128.566 15.0481 128.529C15.0621 128.487 15.0761 128.447 15.0901 128.41C15.1881 128.228 15.3025 128.011 15.4331 127.759C15.5638 127.502 15.6921 127.25 15.8181 127.003C15.9488 126.751 16.0655 126.527 16.1681 126.331C16.2755 126.13 16.3501 125.995 16.3921 125.925H17.2531L15.3841 129.327Z" fill="#C4C4C4"/>
<circle cx="15" cy="102" r="9.5" fill="#616161" stroke="#C4C4C4"/>
<path d="M15 94L21.9282 98V106L15 110L8.0718 106V98L15 94Z" fill="#A5A5A5"/>
<circle cx="15" cy="102" r="5.5" fill="black" stroke="#E5E5E5"/>
<rect y="140" width="30.48" height="45" fill="#161616"/>
<path d="M11.5233 182C11.5 181.949 11.4673 181.874 11.4253 181.776C11.3833 181.678 11.3343 181.566 11.2783 181.44C11.227 181.309 11.1687 181.169 11.1033 181.02C11.0427 180.866 10.9797 180.707 10.9143 180.544H9.12232L8.52032 182H7.76432L10.0253 176.687C10.0533 176.752 10.1023 176.871 10.1723 177.044C10.247 177.217 10.3333 177.424 10.4313 177.667C10.534 177.905 10.646 178.171 10.7673 178.465C10.8933 178.754 11.0193 179.048 11.1453 179.347C11.276 179.646 11.402 179.94 11.5233 180.229C11.6493 180.518 11.7637 180.784 11.8663 181.027C11.969 181.27 12.0553 181.477 12.1253 181.65C12.2 181.818 12.2513 181.935 12.2793 182H11.5233ZM9.38832 179.9H10.6553C10.59 179.746 10.527 179.599 10.4663 179.459C10.4103 179.314 10.3567 179.184 10.3053 179.067C10.2587 178.946 10.2167 178.841 10.1793 178.752C10.142 178.663 10.114 178.593 10.0953 178.542C10.0907 178.533 10.079 178.5 10.0603 178.444C10.0463 178.388 10.0347 178.337 10.0253 178.29C10.016 178.337 10.002 178.388 9.98332 178.444C9.96466 178.5 9.95299 178.533 9.94832 178.542L9.38832 179.9ZM12.9126 176.925H14.1866C14.6999 176.925 15.1339 177.002 15.4886 177.156C15.8432 177.31 16.1302 177.513 16.3496 177.765C16.5736 178.012 16.7346 178.292 16.8326 178.605C16.9352 178.913 16.9866 179.221 16.9866 179.529C16.9866 179.907 16.9189 180.25 16.7836 180.558C16.6482 180.861 16.4639 181.12 16.2306 181.335C15.9972 181.55 15.7266 181.715 15.4186 181.832C15.1106 181.944 14.7839 182 14.4386 182H12.9126V176.925ZM14.3266 181.272C14.5972 181.272 14.8469 181.232 15.0756 181.153C15.3089 181.074 15.5096 180.959 15.6776 180.81C15.8502 180.656 15.9832 180.469 16.0766 180.25C16.1746 180.026 16.2236 179.769 16.2236 179.48C16.2236 179.172 16.1699 178.904 16.0626 178.675C15.9552 178.446 15.8152 178.257 15.6426 178.108C15.4699 177.954 15.2739 177.842 15.0546 177.772C14.8399 177.697 14.6206 177.66 14.3966 177.66H13.6756V181.272H14.3266ZM17.8891 176.925H19.1631C19.6764 176.925 20.1104 177.002 20.4651 177.156C20.8198 177.31 21.1068 177.513 21.3261 177.765C21.5501 178.012 21.7111 178.292 21.8091 178.605C21.9118 178.913 21.9631 179.221 21.9631 179.529C21.9631 179.907 21.8954 180.25 21.7601 180.558C21.6248 180.861 21.4404 181.12 21.2071 181.335C20.9738 181.55 20.7031 181.715 20.3951 181.832C20.0871 181.944 19.7604 182 19.4151 182H17.8891V176.925ZM19.3031 181.272C19.5738 181.272 19.8234 181.232 20.0521 181.153C20.2854 181.074 20.4861 180.959 20.6541 180.81C20.8268 180.656 20.9598 180.469 21.0531 180.25C21.1511 180.026 21.2001 179.769 21.2001 179.48C21.2001 179.172 21.1464 178.904 21.0391 178.675C20.9318 178.446 20.7918 178.257 20.6191 178.108C20.4464 177.954 20.2504 177.842 20.0311 177.772C19.8164 177.697 19.5971 177.66 19.3731 177.66H18.6521V181.272H19.3031Z" fill="#C4C4C4"/>
<circle cx="15" cy="153" r="9.5" fill="#616161" stroke="#C4C4C4"/>
<path d="M15 145L21.9282 149V157L15 161L8.0718 157V149L15 145Z" fill="#A5A5A5"/>
<circle cx="15" cy="153" r="5.5" fill="black" stroke="#E5E5E5"/>
<path d="M14.5 251.403L12.911 248.925H13.849C13.8723 248.962 13.912 249.025 13.968 249.114C14.024 249.203 14.087 249.305 14.157 249.422C14.227 249.534 14.3017 249.655 14.381 249.786C14.4603 249.912 14.535 250.033 14.605 250.15C14.675 250.262 14.7357 250.362 14.787 250.451C14.843 250.54 14.8827 250.603 14.906 250.64C14.9107 250.649 14.927 250.682 14.955 250.738C14.983 250.789 15.004 250.836 15.018 250.878C15.032 250.836 15.053 250.789 15.081 250.738C15.109 250.682 15.1253 250.649 15.13 250.64C15.1533 250.603 15.1907 250.54 15.242 250.451C15.298 250.362 15.3587 250.262 15.424 250.15C15.494 250.033 15.5663 249.912 15.641 249.786C15.7157 249.655 15.7857 249.534 15.851 249.422C15.921 249.305 15.9817 249.203 16.033 249.114C16.089 249.025 16.1287 248.962 16.152 248.925H17.09C17.062 248.967 17.0083 249.053 16.929 249.184C16.8497 249.31 16.754 249.459 16.642 249.632C16.5347 249.805 16.4203 249.989 16.299 250.185C16.1777 250.381 16.061 250.565 15.949 250.738C15.8417 250.911 15.746 251.062 15.662 251.193C15.5827 251.319 15.5313 251.403 15.508 251.445L17.16 254H16.208L15.172 252.334C15.1627 252.32 15.1487 252.299 15.13 252.271C15.1113 252.243 15.0927 252.213 15.074 252.18C15.0553 252.143 15.0367 252.108 15.018 252.075C14.9993 252.042 14.9853 252.017 14.976 251.998C14.962 252.04 14.9433 252.084 14.92 252.131C14.8967 252.178 14.8827 252.203 14.878 252.208C14.8407 252.269 14.7683 252.385 14.661 252.558C14.5583 252.726 14.4487 252.908 14.332 253.104C14.22 253.3 14.1103 253.484 14.003 253.657C13.9003 253.825 13.8303 253.939 13.793 254H12.841L14.5 251.403Z" fill="#C4C4C4"/>
<circle cx="15" cy="225" r="9.5" fill="#616161" stroke="#C4C4C4"/>
<path d="M15 217L21.9282 221V229L15 233L8.0718 229V221L15 217Z" fill="#A5A5A5"/>
<circle cx="15" cy="225" r="5.5" fill="black" stroke="#E5E5E5"/>
<path d="M15.3841 300.327V302H14.6141V300.327C14.5815 300.276 14.5161 300.164 14.4181 299.991C14.3248 299.818 14.2128 299.615 14.0821 299.382C13.9561 299.144 13.8185 298.892 13.6691 298.626C13.5245 298.36 13.3868 298.11 13.2561 297.877C13.1301 297.639 13.0181 297.434 12.9201 297.261C12.8268 297.088 12.7638 296.976 12.7311 296.925H13.5991C13.6411 296.995 13.7158 297.13 13.8231 297.331C13.9305 297.527 14.0495 297.751 14.1801 298.003C14.3108 298.25 14.4438 298.502 14.5791 298.759C14.7145 299.011 14.8288 299.228 14.9221 299.41L14.9991 299.641C15.0178 299.604 15.0341 299.566 15.0481 299.529C15.0621 299.487 15.0761 299.447 15.0901 299.41C15.1881 299.228 15.3025 299.011 15.4331 298.759C15.5638 298.502 15.6921 298.25 15.8181 298.003C15.9488 297.751 16.0655 297.527 16.1681 297.331C16.2755 297.13 16.3501 296.995 16.3921 296.925H17.2531L15.3841 300.327Z" fill="#C4C4C4"/>
<circle cx="15" cy="273" r="9.5" fill="#616161" stroke="#C4C4C4"/>
<path d="M15 265L21.9282 269V277L15 281L8.0718 277V269L15 265Z" fill="#A5A5A5"/>
<circle cx="15" cy="273" r="5.5" fill="black" stroke="#E5E5E5"/>
<rect y="311" width="30.48" height="45" fill="#161616"/>
<path d="M7.9565 347.701C7.9985 347.766 8.08483 347.892 8.2155 348.079C8.35083 348.261 8.50483 348.473 8.6775 348.716C8.85483 348.959 9.0415 349.218 9.2375 349.493C9.4335 349.764 9.61783 350.02 9.7905 350.263C9.96316 350.501 10.1125 350.709 10.2385 350.886C10.3692 351.063 10.4555 351.18 10.4975 351.236C10.5115 351.213 10.5558 351.15 10.6305 351.047C10.7052 350.944 10.7962 350.816 10.9035 350.662C11.0155 350.508 11.1415 350.335 11.2815 350.144C11.4215 349.948 11.5638 349.75 11.7085 349.549C11.8578 349.344 12.0025 349.141 12.1425 348.94C12.2872 348.739 12.4202 348.557 12.5415 348.394C12.6628 348.226 12.7655 348.081 12.8495 347.96C12.9382 347.834 13.0012 347.748 13.0385 347.701V353H12.2265V350.158C12.2265 350.121 12.2288 350.081 12.2335 350.039C12.2428 349.997 12.2475 349.967 12.2475 349.948C12.2055 350.004 12.1378 350.1 12.0445 350.235C11.9558 350.366 11.8508 350.517 11.7295 350.69C11.6128 350.858 11.4892 351.038 11.3585 351.229C11.2278 351.416 11.1042 351.593 10.9875 351.761C10.8708 351.929 10.7682 352.078 10.6795 352.209C10.5908 352.335 10.5302 352.424 10.4975 352.475C10.4648 352.433 10.3995 352.347 10.3015 352.216C10.2082 352.081 10.0962 351.924 9.9655 351.747C9.8395 351.57 9.70416 351.381 9.5595 351.18C9.4195 350.979 9.28883 350.793 9.1675 350.62C9.04616 350.447 8.94116 350.3 8.8525 350.179C8.76383 350.053 8.7125 349.976 8.6985 349.948C8.6985 349.967 8.70083 349.997 8.7055 350.039C8.71483 350.081 8.7195 350.121 8.7195 350.158V353H7.9565V347.701ZM16.1626 353.056C15.8919 353.056 15.6399 353.012 15.4066 352.923C15.1732 352.834 14.9679 352.711 14.7906 352.552C14.6179 352.389 14.4802 352.195 14.3776 351.971C14.2796 351.742 14.2306 351.488 14.2306 351.208V347.925H15.0006V351.187C15.0006 351.35 15.0286 351.502 15.0846 351.642C15.1452 351.777 15.2269 351.899 15.3296 352.006C15.4369 352.109 15.5606 352.19 15.7006 352.251C15.8406 352.307 15.9946 352.335 16.1626 352.335C16.3259 352.335 16.4776 352.307 16.6176 352.251C16.7622 352.19 16.8859 352.109 16.9886 352.006C17.0959 351.899 17.1799 351.777 17.2406 351.642C17.3012 351.502 17.3316 351.35 17.3316 351.187V347.925H18.1016V351.208C18.1016 351.488 18.0502 351.742 17.9476 351.971C17.8496 352.195 17.7119 352.389 17.5346 352.552C17.3619 352.711 17.1566 352.834 16.9186 352.923C16.6852 353.012 16.4332 353.056 16.1626 353.056ZM19.2905 353V347.925H20.0605V352.272H22.5805V353H19.2905Z" fill="#C4C4C4"/>
<circle cx="15" cy="324" r="9.5" fill="#616161" stroke="#C4C4C4"/>
<path d="M15 316L21.9282 320V328L15 332L8.0718 328V320L15 316Z" fill="#A5A5A5"/>
<circle cx="15" cy="324" r="5.5" fill="black" stroke="#E5E5E5"/>
</svg>
