<svg width="31" height="386" viewBox="0 0 31 386" fill="none" xmlns="http://www.w3.org/2000/svg">
<rect x="0.5" y="0.5" width="29.48" height="384.5" fill="#333333" stroke="#161616"/>
<path d="M1.21638 376V371.65H2.40438C2.63238 371.65 2.84038 371.68 3.02838 371.74C3.22038 371.8 3.38438 371.89 3.52038 372.01C3.66038 372.126 3.76838 372.27 3.84438 372.442C3.92038 372.61 3.95838 372.804 3.95838 373.024C3.95838 373.144 3.94638 373.264 3.92238 373.384C3.89838 373.5 3.85838 373.614 3.80238 373.726C3.75038 373.834 3.68238 373.936 3.59838 374.032C3.51438 374.124 3.41238 374.202 3.29238 374.266C3.45238 374.518 3.62638 374.798 3.81438 375.106C4.00238 375.41 4.19238 375.708 4.38438 376H3.59838C3.51838 375.876 3.43438 375.746 3.34638 375.61C3.26238 375.474 3.17638 375.34 3.08838 375.208C3.00438 375.072 2.92038 374.94 2.83638 374.812C2.75638 374.68 2.68038 374.558 2.60838 374.446H2.48838H1.87638V376H1.21638ZM1.87638 373.828H2.47038C2.63038 373.828 2.76438 373.802 2.87238 373.75C2.98038 373.694 3.06438 373.626 3.12438 373.546C3.18838 373.466 3.23238 373.38 3.25638 373.288C3.28438 373.196 3.29838 373.112 3.29838 373.036C3.29838 372.96 3.28438 372.878 3.25638 372.79C3.23238 372.698 3.18838 372.614 3.12438 372.538C3.06038 372.458 2.97438 372.392 2.86638 372.34C2.76238 372.288 2.63238 372.262 2.47638 372.262H1.87638V373.828ZM7.67796 376C7.65796 375.956 7.62996 375.892 7.59396 375.808C7.55796 375.724 7.51596 375.628 7.46796 375.52C7.42396 375.408 7.37396 375.288 7.31796 375.16C7.26596 375.028 7.21196 374.892 7.15596 374.752H5.61996L5.10396 376H4.45596L6.39396 371.446C6.41796 371.502 6.45996 371.604 6.51996 371.752C6.58396 371.9 6.65796 372.078 6.74196 372.286C6.82996 372.49 6.92596 372.718 7.02996 372.97C7.13796 373.218 7.24596 373.47 7.35396 373.726C7.46596 373.982 7.57396 374.234 7.67796 374.482C7.78596 374.73 7.88396 374.958 7.97196 375.166C8.05996 375.374 8.13396 375.552 8.19396 375.7C8.25796 375.844 8.30196 375.944 8.32596 376H7.67796ZM5.84796 374.2H6.93396C6.87796 374.068 6.82396 373.942 6.77196 373.822C6.72396 373.698 6.67796 373.586 6.63396 373.486C6.59396 373.382 6.55796 373.292 6.52596 373.216C6.49396 373.14 6.46996 373.08 6.45396 373.036C6.44996 373.028 6.43996 373 6.42396 372.952C6.41196 372.904 6.40196 372.86 6.39396 372.82C6.38596 372.86 6.37396 372.904 6.35796 372.952C6.34196 373 6.33196 373.028 6.32796 373.036L5.84796 374.2ZM11.9327 375.688C11.8847 375.724 11.8167 375.764 11.7287 375.808C11.6447 375.848 11.5447 375.886 11.4287 375.922C11.3127 375.958 11.1827 375.988 11.0387 376.012C10.8987 376.036 10.7487 376.048 10.5887 376.048C10.2487 376.048 9.94266 375.99 9.67066 375.874C9.40266 375.754 9.17466 375.594 8.98666 375.394C8.79866 375.194 8.65466 374.962 8.55466 374.698C8.45466 374.434 8.40466 374.154 8.40466 373.858C8.40466 373.53 8.46266 373.228 8.57866 372.952C8.69866 372.676 8.86066 372.438 9.06466 372.238C9.26866 372.038 9.50666 371.882 9.77866 371.77C10.0547 371.658 10.3467 371.602 10.6547 371.602C10.7707 371.602 10.8887 371.61 11.0087 371.626C11.1287 371.642 11.2407 371.664 11.3447 371.692C11.4527 371.72 11.5467 371.754 11.6267 371.794C11.7107 371.83 11.7747 371.868 11.8187 371.908C11.7867 371.956 11.7607 371.996 11.7407 372.028C11.7247 372.06 11.7067 372.094 11.6867 372.13C11.6667 372.162 11.6447 372.2 11.6207 372.244C11.5967 372.288 11.5647 372.346 11.5247 372.418C11.4727 372.382 11.4107 372.352 11.3387 372.328C11.2707 372.304 11.1987 372.284 11.1227 372.268C11.0467 372.252 10.9687 372.24 10.8887 372.232C10.8127 372.224 10.7427 372.22 10.6787 372.22C10.4467 372.22 10.2307 372.264 10.0307 372.352C9.83466 372.436 9.66466 372.552 9.52066 372.7C9.37666 372.844 9.26266 373.012 9.17866 373.204C9.09866 373.396 9.05866 373.596 9.05866 373.804C9.05866 374.008 9.09666 374.204 9.17266 374.392C9.25266 374.58 9.36066 374.748 9.49666 374.896C9.63666 375.044 9.80266 375.162 9.99466 375.25C10.1907 375.338 10.4047 375.382 10.6367 375.382C10.7607 375.382 10.8807 375.37 10.9967 375.346C11.1127 375.322 11.2167 375.294 11.3087 375.262C11.4047 375.23 11.4827 375.198 11.5427 375.166C11.6067 375.134 11.6447 375.11 11.6567 375.094L11.9327 375.688ZM15.1108 376C14.9708 375.82 14.8368 375.648 14.7088 375.484C14.5808 375.32 14.4548 375.156 14.3308 374.992C14.2068 374.828 14.0808 374.662 13.9528 374.494C13.8288 374.326 13.6968 374.152 13.5568 373.972C13.5048 374.028 13.4548 374.08 13.4068 374.128C13.3588 374.172 13.3068 374.218 13.2508 374.266C13.2508 374.574 13.2508 374.864 13.2508 375.136C13.2548 375.404 13.2568 375.692 13.2568 376H12.5308V371.65H13.2568V373.276C13.2568 373.312 13.2528 373.348 13.2448 373.384C13.2408 373.416 13.2388 373.45 13.2388 373.486C13.2588 373.458 13.2788 373.434 13.2988 373.414C13.3188 373.39 13.3388 373.362 13.3588 373.33C13.6428 373.062 13.9168 372.784 14.1808 372.496C14.4448 372.204 14.7188 371.922 15.0028 371.65H15.8368C15.5368 371.962 15.2388 372.276 14.9428 372.592C14.6508 372.908 14.3548 373.222 14.0548 373.534C14.2228 373.75 14.3828 373.96 14.5348 374.164C14.6908 374.364 14.8428 374.564 14.9908 374.764C15.1428 374.964 15.2948 375.166 15.4468 375.37C15.5988 375.574 15.7568 375.784 15.9208 376H15.1108ZM16.4156 376V371.65H17.0756V375.376H19.2356V376H16.4156ZM19.8433 376V371.65H22.6993V372.244H20.5033V373.516H22.4593V374.122H20.5033V375.394H22.7833V376H19.8433ZM26.0365 371.89L25.8025 372.424C25.6385 372.364 25.4745 372.316 25.3105 372.28C25.1505 372.244 24.9965 372.226 24.8485 372.226C24.5965 372.226 24.3945 372.278 24.2425 372.382C24.0945 372.486 24.0205 372.618 24.0205 372.778C24.0205 372.914 24.0745 373.024 24.1825 373.108C24.2905 373.188 24.4245 373.262 24.5845 373.33C24.7445 373.394 24.9185 373.46 25.1065 373.528C25.2945 373.592 25.4685 373.676 25.6285 373.78C25.7885 373.884 25.9225 374.016 26.0305 374.176C26.1385 374.332 26.1925 374.534 26.1925 374.782C26.1925 374.974 26.1565 375.148 26.0845 375.304C26.0165 375.456 25.9125 375.588 25.7725 375.7C25.6365 375.812 25.4645 375.898 25.2565 375.958C25.0525 376.018 24.8125 376.048 24.5365 376.048C24.3605 376.048 24.2005 376.036 24.0565 376.012C23.9165 375.988 23.7885 375.958 23.6725 375.922C23.5605 375.882 23.4605 375.84 23.3725 375.796C23.2885 375.752 23.2165 375.712 23.1565 375.676L23.4445 375.106C23.6045 375.198 23.7825 375.272 23.9785 375.328C24.1745 375.384 24.3525 375.412 24.5125 375.412C24.5925 375.412 24.6905 375.402 24.8065 375.382C24.9265 375.362 25.0405 375.328 25.1485 375.28C25.2565 375.228 25.3485 375.16 25.4245 375.076C25.5045 374.992 25.5445 374.886 25.5445 374.758C25.5445 374.642 25.5125 374.544 25.4485 374.464C25.3885 374.38 25.3065 374.308 25.2025 374.248C25.1025 374.184 24.9865 374.128 24.8545 374.08C24.7265 374.028 24.5945 373.976 24.4585 373.924C24.3225 373.868 24.1885 373.81 24.0565 373.75C23.9285 373.69 23.8125 373.618 23.7085 373.534C23.6085 373.446 23.5265 373.346 23.4625 373.234C23.4025 373.118 23.3725 372.98 23.3725 372.82C23.3725 372.672 23.4025 372.526 23.4625 372.382C23.5225 372.238 23.6125 372.11 23.7325 371.998C23.8525 371.886 24.0005 371.796 24.1765 371.728C24.3565 371.66 24.5645 371.626 24.8005 371.626C24.9445 371.626 25.0845 371.638 25.2205 371.662C25.3605 371.686 25.4865 371.714 25.5985 371.746C25.7105 371.774 25.8045 371.802 25.8805 371.83C25.9605 371.858 26.0125 371.878 26.0365 371.89ZM29.429 371.89L29.195 372.424C29.031 372.364 28.867 372.316 28.703 372.28C28.543 372.244 28.389 372.226 28.241 372.226C27.989 372.226 27.787 372.278 27.635 372.382C27.487 372.486 27.413 372.618 27.413 372.778C27.413 372.914 27.467 373.024 27.575 373.108C27.683 373.188 27.817 373.262 27.977 373.33C28.137 373.394 28.311 373.46 28.499 373.528C28.687 373.592 28.861 373.676 29.021 373.78C29.181 373.884 29.315 374.016 29.423 374.176C29.531 374.332 29.585 374.534 29.585 374.782C29.585 374.974 29.549 375.148 29.477 375.304C29.409 375.456 29.305 375.588 29.165 375.7C29.029 375.812 28.857 375.898 28.649 375.958C28.445 376.018 28.205 376.048 27.929 376.048C27.753 376.048 27.593 376.036 27.449 376.012C27.309 375.988 27.181 375.958 27.065 375.922C26.953 375.882 26.853 375.84 26.765 375.796C26.681 375.752 26.609 375.712 26.549 375.676L26.837 375.106C26.997 375.198 27.175 375.272 27.371 375.328C27.567 375.384 27.745 375.412 27.905 375.412C27.985 375.412 28.083 375.402 28.199 375.382C28.319 375.362 28.433 375.328 28.541 375.28C28.649 375.228 28.741 375.16 28.817 375.076C28.897 374.992 28.937 374.886 28.937 374.758C28.937 374.642 28.905 374.544 28.841 374.464C28.781 374.38 28.699 374.308 28.595 374.248C28.495 374.184 28.379 374.128 28.247 374.08C28.119 374.028 27.987 373.976 27.851 373.924C27.715 373.868 27.581 373.81 27.449 373.75C27.321 373.69 27.205 373.618 27.101 373.534C27.001 373.446 26.919 373.346 26.855 373.234C26.795 373.118 26.765 372.98 26.765 372.82C26.765 372.672 26.795 372.526 26.855 372.382C26.915 372.238 27.005 372.11 27.125 371.998C27.245 371.886 27.393 371.796 27.569 371.728C27.749 371.66 27.957 371.626 28.193 371.626C28.337 371.626 28.477 371.638 28.613 371.662C28.753 371.686 28.879 371.714 28.991 371.746C29.103 371.774 29.197 371.802 29.273 371.83C29.353 371.858 29.405 371.878 29.429 371.89Z" fill="#C4C4C4"/>
<circle cx="15" cy="50" r="9.5" fill="#616161" stroke="#C4C4C4"/>
<path d="M15 42L21.9282 46V54L15 58L8.0718 54V46L15 42Z" fill="#A5A5A5"/>
<circle cx="15" cy="50" r="5.5" fill="black" stroke="#E5E5E5"/>
<rect y="90" width="30.48" height="100" fill="#161616"/>
<circle cx="15" cy="103" r="9.5" fill="#616161" stroke="#C4C4C4"/>
<path d="M15 95L21.9282 99V107L15 111L8.0718 107V99L15 95Z" fill="#A5A5A5"/>
<circle cx="15" cy="103" r="5.5" fill="black" stroke="#E5E5E5"/>
<circle cx="15" cy="139" r="9.5" fill="#616161" stroke="#C4C4C4"/>
<path d="M15 131L21.9282 135V143L15 147L8.0718 143V135L15 131Z" fill="#A5A5A5"/>
<circle cx="15" cy="139" r="5.5" fill="black" stroke="#E5E5E5"/>
<circle cx="15" cy="175" r="9.5" fill="#616161" stroke="#C4C4C4"/>
<path d="M15 167L21.9282 171V179L15 183L8.0718 179V171L15 167Z" fill="#A5A5A5"/>
<circle cx="15" cy="175" r="5.5" fill="black" stroke="#E5E5E5"/>
<path d="M4.10545 14.187C4.15945 14.271 4.27045 14.433 4.43845 14.673C4.61245 14.907 4.81045 15.18 5.03245 15.492C5.26045 15.804 5.50045 16.137 5.75245 16.491C6.00445 16.839 6.24145 17.169 6.46345 17.481C6.68545 17.787 6.87745 18.054 7.03945 18.282C7.20745 18.51 7.31845 18.66 7.37245 18.732C7.39045 18.702 7.44745 18.621 7.54345 18.489C7.63945 18.357 7.75645 18.192 7.89445 17.994C8.03845 17.796 8.20045 17.574 8.38045 17.328C8.56045 17.076 8.74345 16.821 8.92945 16.563C9.12145 16.299 9.30745 16.038 9.48745 15.78C9.67345 15.522 9.84445 15.288 10.0005 15.078C10.1565 14.862 10.2885 14.676 10.3965 14.52C10.5105 14.358 10.5915 14.247 10.6395 14.187V21H9.59545V17.346C9.59545 17.298 9.59845 17.247 9.60445 17.193C9.61645 17.139 9.62245 17.1 9.62245 17.076C9.56845 17.148 9.48145 17.271 9.36145 17.445C9.24745 17.613 9.11245 17.808 8.95645 18.03C8.80645 18.246 8.64745 18.477 8.47945 18.723C8.31145 18.963 8.15245 19.191 8.00245 19.407C7.85245 19.623 7.72045 19.815 7.60645 19.983C7.49245 20.145 7.41445 20.259 7.37245 20.325C7.33045 20.271 7.24645 20.16 7.12045 19.992C7.00045 19.818 6.85645 19.617 6.68845 19.389C6.52645 19.161 6.35245 18.918 6.16645 18.66C5.98645 18.402 5.81845 18.162 5.66245 17.94C5.50645 17.718 5.37145 17.529 5.25745 17.373C5.14345 17.211 5.07745 17.112 5.05945 17.076C5.05945 17.1 5.06245 17.139 5.06845 17.193C5.08045 17.247 5.08645 17.298 5.08645 17.346V21H4.10545V14.187ZM14.6561 21.072C14.3081 21.072 13.9841 21.015 13.6841 20.901C13.3841 20.787 13.1201 20.628 12.8921 20.424C12.6701 20.214 12.4931 19.965 12.3611 19.677C12.2351 19.383 12.1721 19.056 12.1721 18.696V14.475H13.1621V18.669C13.1621 18.879 13.1981 19.074 13.2701 19.254C13.3481 19.428 13.4531 19.584 13.5851 19.722C13.7231 19.854 13.8821 19.959 14.0621 20.037C14.2421 20.109 14.4401 20.145 14.6561 20.145C14.8661 20.145 15.0611 20.109 15.2411 20.037C15.4271 19.959 15.5861 19.854 15.7181 19.722C15.8561 19.584 15.9641 19.428 16.0421 19.254C16.1201 19.074 16.1591 18.879 16.1591 18.669V14.475H17.1491V18.696C17.1491 19.056 17.0831 19.383 16.9511 19.677C16.8251 19.965 16.6481 20.214 16.4201 20.424C16.1981 20.628 15.9341 20.787 15.6281 20.901C15.3281 21.015 15.0041 21.072 14.6561 21.072ZM18.6777 21V14.475H19.6677V20.064H22.9077V21H18.6777ZM26.8175 14.475V15.411H25.1705V21H24.1895V15.411H22.5785V14.475H26.8175Z" fill="#C4C4C4"/>
<path d="M14.6464 80.3536C14.8417 80.5488 15.1583 80.5488 15.3536 80.3536L18.5355 77.1716C18.7308 76.9763 18.7308 76.6597 18.5355 76.4645C18.3403 76.2692 18.0237 76.2692 17.8284 76.4645L15 79.2929L12.1716 76.4645C11.9763 76.2692 11.6597 76.2692 11.4645 76.4645C11.2692 76.6597 11.2692 76.9763 11.4645 77.1716L14.6464 80.3536ZM14.5 70V80H15.5V70H14.5Z" fill="#C4C4C4"/>
<circle cx="15" cy="218" r="9.5" fill="#616161" stroke="#C4C4C4"/>
<path d="M15 210L21.9282 214V222L15 226L8.0718 222V214L15 210Z" fill="#A5A5A5"/>
<circle cx="15" cy="218" r="5.5" fill="black" stroke="#E5E5E5"/>
<rect y="258" width="30.48" height="100" fill="#161616"/>
<circle cx="15" cy="271" r="9.5" fill="#616161" stroke="#C4C4C4"/>
<path d="M15 263L21.9282 267V275L15 279L8.0718 275V267L15 263Z" fill="#A5A5A5"/>
<circle cx="15" cy="271" r="5.5" fill="black" stroke="#E5E5E5"/>
<circle cx="15" cy="307" r="9.5" fill="#616161" stroke="#C4C4C4"/>
<path d="M15 299L21.9282 303V311L15 315L8.0718 311V303L15 299Z" fill="#A5A5A5"/>
<circle cx="15" cy="307" r="5.5" fill="black" stroke="#E5E5E5"/>
<circle cx="15" cy="343" r="9.5" fill="#616161" stroke="#C4C4C4"/>
<path d="M15 335L21.9282 339V347L15 351L8.0718 347V339L15 335Z" fill="#A5A5A5"/>
<circle cx="15" cy="343" r="5.5" fill="black" stroke="#E5E5E5"/>
<path d="M14.6464 248.354C14.8417 248.549 15.1583 248.549 15.3536 248.354L18.5355 245.172C18.7308 244.976 18.7308 244.66 18.5355 244.464C18.3403 244.269 18.0237 244.269 17.8284 244.464L15 247.293L12.1716 244.464C11.9763 244.269 11.6597 244.269 11.4645 244.464C11.2692 244.66 11.2692 244.976 11.4645 245.172L14.6464 248.354ZM14.5 238V248H15.5V238H14.5Z" fill="#C4C4C4"/>
</svg>
