<svg width="153" height="386" viewBox="0 0 153 386" fill="none" xmlns="http://www.w3.org/2000/svg">
<rect x="0.5" y="0.5" width="151.4" height="384.5" fill="#333333" stroke="#222222"/>
<circle cx="25" cy="200" r="15" transform="rotate(-180 25 200)" fill="black"/>
<rect x="25.9375" y="200" width="2.8125" height="15" transform="rotate(-180 25.9375 200)" fill="#E5E5E5"/>
<circle cx="25" cy="248" r="15" transform="rotate(-180 25 248)" fill="black"/>
<rect x="25.9375" y="248" width="2.8125" height="15" transform="rotate(-180 25.9375 248)" fill="#E5E5E5"/>
<path d="M62.1764 376V371.65H63.3644C63.5924 371.65 63.8004 371.68 63.9884 371.74C64.1804 371.8 64.3444 371.89 64.4804 372.01C64.6204 372.126 64.7284 372.27 64.8044 372.442C64.8804 372.61 64.9184 372.804 64.9184 373.024C64.9184 373.144 64.9064 373.264 64.8824 373.384C64.8584 373.5 64.8184 373.614 64.7624 373.726C64.7104 373.834 64.6424 373.936 64.5584 374.032C64.4744 374.124 64.3724 374.202 64.2524 374.266C64.4124 374.518 64.5864 374.798 64.7744 375.106C64.9624 375.41 65.1524 375.708 65.3444 376H64.5584C64.4784 375.876 64.3944 375.746 64.3064 375.61C64.2224 375.474 64.1364 375.34 64.0484 375.208C63.9644 375.072 63.8804 374.94 63.7964 374.812C63.7164 374.68 63.6404 374.558 63.5684 374.446H63.4484H62.8364V376H62.1764ZM62.8364 373.828H63.4304C63.5904 373.828 63.7244 373.802 63.8324 373.75C63.9404 373.694 64.0244 373.626 64.0844 373.546C64.1484 373.466 64.1924 373.38 64.2164 373.288C64.2444 373.196 64.2584 373.112 64.2584 373.036C64.2584 372.96 64.2444 372.878 64.2164 372.79C64.1924 372.698 64.1484 372.614 64.0844 372.538C64.0204 372.458 63.9344 372.392 63.8264 372.34C63.7224 372.288 63.5924 372.262 63.4364 372.262H62.8364V373.828ZM68.638 376C68.618 375.956 68.59 375.892 68.554 375.808C68.518 375.724 68.476 375.628 68.428 375.52C68.384 375.408 68.334 375.288 68.278 375.16C68.226 375.028 68.172 374.892 68.116 374.752H66.58L66.064 376H65.416L67.354 371.446C67.378 371.502 67.42 371.604 67.48 371.752C67.544 371.9 67.618 372.078 67.702 372.286C67.79 372.49 67.886 372.718 67.99 372.97C68.098 373.218 68.206 373.47 68.314 373.726C68.426 373.982 68.534 374.234 68.638 374.482C68.746 374.73 68.844 374.958 68.932 375.166C69.02 375.374 69.094 375.552 69.154 375.7C69.218 375.844 69.262 375.944 69.286 376H68.638ZM66.808 374.2H67.894C67.838 374.068 67.784 373.942 67.732 373.822C67.684 373.698 67.638 373.586 67.594 373.486C67.554 373.382 67.518 373.292 67.486 373.216C67.454 373.14 67.43 373.08 67.414 373.036C67.41 373.028 67.4 373 67.384 372.952C67.372 372.904 67.362 372.86 67.354 372.82C67.346 372.86 67.334 372.904 67.318 372.952C67.302 373 67.292 373.028 67.288 373.036L66.808 374.2ZM72.8927 375.688C72.8447 375.724 72.7767 375.764 72.6887 375.808C72.6047 375.848 72.5047 375.886 72.3887 375.922C72.2727 375.958 72.1427 375.988 71.9987 376.012C71.8587 376.036 71.7087 376.048 71.5487 376.048C71.2087 376.048 70.9027 375.99 70.6307 375.874C70.3627 375.754 70.1347 375.594 69.9467 375.394C69.7587 375.194 69.6147 374.962 69.5147 374.698C69.4147 374.434 69.3647 374.154 69.3647 373.858C69.3647 373.53 69.4227 373.228 69.5387 372.952C69.6587 372.676 69.8207 372.438 70.0247 372.238C70.2287 372.038 70.4667 371.882 70.7387 371.77C71.0147 371.658 71.3067 371.602 71.6147 371.602C71.7307 371.602 71.8487 371.61 71.9687 371.626C72.0887 371.642 72.2007 371.664 72.3047 371.692C72.4127 371.72 72.5067 371.754 72.5867 371.794C72.6707 371.83 72.7347 371.868 72.7787 371.908C72.7467 371.956 72.7207 371.996 72.7007 372.028C72.6847 372.06 72.6667 372.094 72.6467 372.13C72.6267 372.162 72.6047 372.2 72.5807 372.244C72.5567 372.288 72.5247 372.346 72.4847 372.418C72.4327 372.382 72.3707 372.352 72.2987 372.328C72.2307 372.304 72.1587 372.284 72.0827 372.268C72.0067 372.252 71.9287 372.24 71.8487 372.232C71.7727 372.224 71.7027 372.22 71.6387 372.22C71.4067 372.22 71.1907 372.264 70.9907 372.352C70.7947 372.436 70.6247 372.552 70.4807 372.7C70.3367 372.844 70.2227 373.012 70.1387 373.204C70.0587 373.396 70.0187 373.596 70.0187 373.804C70.0187 374.008 70.0567 374.204 70.1327 374.392C70.2127 374.58 70.3207 374.748 70.4567 374.896C70.5967 375.044 70.7627 375.162 70.9547 375.25C71.1507 375.338 71.3647 375.382 71.5967 375.382C71.7207 375.382 71.8407 375.37 71.9567 375.346C72.0727 375.322 72.1767 375.294 72.2687 375.262C72.3647 375.23 72.4427 375.198 72.5027 375.166C72.5667 375.134 72.6047 375.11 72.6167 375.094L72.8927 375.688ZM76.0708 376C75.9308 375.82 75.7968 375.648 75.6688 375.484C75.5408 375.32 75.4148 375.156 75.2908 374.992C75.1668 374.828 75.0408 374.662 74.9128 374.494C74.7888 374.326 74.6568 374.152 74.5168 373.972C74.4648 374.028 74.4148 374.08 74.3668 374.128C74.3188 374.172 74.2668 374.218 74.2108 374.266C74.2108 374.574 74.2108 374.864 74.2108 375.136C74.2148 375.404 74.2168 375.692 74.2168 376H73.4908V371.65H74.2168V373.276C74.2168 373.312 74.2128 373.348 74.2048 373.384C74.2008 373.416 74.1988 373.45 74.1988 373.486C74.2188 373.458 74.2388 373.434 74.2588 373.414C74.2788 373.39 74.2988 373.362 74.3188 373.33C74.6028 373.062 74.8768 372.784 75.1408 372.496C75.4048 372.204 75.6788 371.922 75.9628 371.65H76.7968C76.4968 371.962 76.1988 372.276 75.9028 372.592C75.6108 372.908 75.3148 373.222 75.0148 373.534C75.1828 373.75 75.3428 373.96 75.4948 374.164C75.6508 374.364 75.8028 374.564 75.9508 374.764C76.1028 374.964 76.2548 375.166 76.4068 375.37C76.5588 375.574 76.7168 375.784 76.8808 376H76.0708ZM77.3756 376V371.65H78.0356V375.376H80.1956V376H77.3756ZM80.8033 376V371.65H83.6593V372.244H81.4633V373.516H83.4193V374.122H81.4633V375.394H83.7433V376H80.8033ZM86.9965 371.89L86.7625 372.424C86.5985 372.364 86.4345 372.316 86.2705 372.28C86.1105 372.244 85.9565 372.226 85.8085 372.226C85.5565 372.226 85.3545 372.278 85.2025 372.382C85.0545 372.486 84.9805 372.618 84.9805 372.778C84.9805 372.914 85.0345 373.024 85.1425 373.108C85.2505 373.188 85.3845 373.262 85.5445 373.33C85.7045 373.394 85.8785 373.46 86.0665 373.528C86.2545 373.592 86.4285 373.676 86.5885 373.78C86.7485 373.884 86.8825 374.016 86.9905 374.176C87.0985 374.332 87.1525 374.534 87.1525 374.782C87.1525 374.974 87.1165 375.148 87.0445 375.304C86.9765 375.456 86.8725 375.588 86.7325 375.7C86.5965 375.812 86.4245 375.898 86.2165 375.958C86.0125 376.018 85.7725 376.048 85.4965 376.048C85.3205 376.048 85.1605 376.036 85.0165 376.012C84.8765 375.988 84.7485 375.958 84.6325 375.922C84.5205 375.882 84.4205 375.84 84.3325 375.796C84.2485 375.752 84.1765 375.712 84.1165 375.676L84.4045 375.106C84.5645 375.198 84.7425 375.272 84.9385 375.328C85.1345 375.384 85.3125 375.412 85.4725 375.412C85.5525 375.412 85.6505 375.402 85.7665 375.382C85.8865 375.362 86.0005 375.328 86.1085 375.28C86.2165 375.228 86.3085 375.16 86.3845 375.076C86.4645 374.992 86.5045 374.886 86.5045 374.758C86.5045 374.642 86.4725 374.544 86.4085 374.464C86.3485 374.38 86.2665 374.308 86.1625 374.248C86.0625 374.184 85.9465 374.128 85.8145 374.08C85.6865 374.028 85.5545 373.976 85.4185 373.924C85.2825 373.868 85.1485 373.81 85.0165 373.75C84.8885 373.69 84.7725 373.618 84.6685 373.534C84.5685 373.446 84.4865 373.346 84.4225 373.234C84.3625 373.118 84.3325 372.98 84.3325 372.82C84.3325 372.672 84.3625 372.526 84.4225 372.382C84.4825 372.238 84.5725 372.11 84.6925 371.998C84.8125 371.886 84.9605 371.796 85.1365 371.728C85.3165 371.66 85.5245 371.626 85.7605 371.626C85.9045 371.626 86.0445 371.638 86.1805 371.662C86.3205 371.686 86.4465 371.714 86.5585 371.746C86.6705 371.774 86.7645 371.802 86.8405 371.83C86.9205 371.858 86.9725 371.878 86.9965 371.89ZM90.389 371.89L90.155 372.424C89.991 372.364 89.827 372.316 89.663 372.28C89.503 372.244 89.349 372.226 89.201 372.226C88.949 372.226 88.747 372.278 88.595 372.382C88.447 372.486 88.373 372.618 88.373 372.778C88.373 372.914 88.427 373.024 88.535 373.108C88.643 373.188 88.777 373.262 88.937 373.33C89.097 373.394 89.271 373.46 89.459 373.528C89.647 373.592 89.821 373.676 89.981 373.78C90.141 373.884 90.275 374.016 90.383 374.176C90.491 374.332 90.545 374.534 90.545 374.782C90.545 374.974 90.509 375.148 90.437 375.304C90.369 375.456 90.265 375.588 90.125 375.7C89.989 375.812 89.817 375.898 89.609 375.958C89.405 376.018 89.165 376.048 88.889 376.048C88.713 376.048 88.553 376.036 88.409 376.012C88.269 375.988 88.141 375.958 88.025 375.922C87.913 375.882 87.813 375.84 87.725 375.796C87.641 375.752 87.569 375.712 87.509 375.676L87.797 375.106C87.957 375.198 88.135 375.272 88.331 375.328C88.527 375.384 88.705 375.412 88.865 375.412C88.945 375.412 89.043 375.402 89.159 375.382C89.279 375.362 89.393 375.328 89.501 375.28C89.609 375.228 89.701 375.16 89.777 375.076C89.857 374.992 89.897 374.886 89.897 374.758C89.897 374.642 89.865 374.544 89.801 374.464C89.741 374.38 89.659 374.308 89.555 374.248C89.455 374.184 89.339 374.128 89.207 374.08C89.079 374.028 88.947 373.976 88.811 373.924C88.675 373.868 88.541 373.81 88.409 373.75C88.281 373.69 88.165 373.618 88.061 373.534C87.961 373.446 87.879 373.346 87.815 373.234C87.755 373.118 87.725 372.98 87.725 372.82C87.725 372.672 87.755 372.526 87.815 372.382C87.875 372.238 87.965 372.11 88.085 371.998C88.205 371.886 88.353 371.796 88.529 371.728C88.709 371.66 88.917 371.626 89.153 371.626C89.297 371.626 89.437 371.638 89.573 371.662C89.713 371.686 89.839 371.714 89.951 371.746C90.063 371.774 90.157 371.802 90.233 371.83C90.313 371.858 90.365 371.878 90.389 371.89Z" fill="#C4C4C4"/>
<path d="M43.1172 17.742C43.1172 17.292 43.2042 16.866 43.3782 16.464C43.5522 16.056 43.7892 15.699 44.0892 15.393C44.3952 15.087 44.7492 14.847 45.1512 14.673C45.5532 14.493 45.9852 14.403 46.4472 14.403C46.9032 14.403 47.3322 14.493 47.7342 14.673C48.1422 14.847 48.4962 15.087 48.7962 15.393C49.1022 15.699 49.3422 16.056 49.5162 16.464C49.6962 16.866 49.7862 17.292 49.7862 17.742C49.7862 18.204 49.6962 18.636 49.5162 19.038C49.3422 19.44 49.1022 19.794 48.7962 20.1C48.4962 20.4 48.1422 20.637 47.7342 20.811C47.3322 20.985 46.9032 21.072 46.4472 21.072C45.9852 21.072 45.5532 20.985 45.1512 20.811C44.7492 20.637 44.3952 20.4 44.0892 20.1C43.7892 19.794 43.5522 19.44 43.3782 19.038C43.2042 18.636 43.1172 18.204 43.1172 17.742ZM44.0982 17.751C44.0982 18.081 44.1582 18.393 44.2782 18.687C44.4042 18.975 44.5752 19.227 44.7912 19.443C45.0072 19.659 45.2592 19.83 45.5472 19.956C45.8352 20.082 46.1412 20.145 46.4652 20.145C46.7892 20.145 47.0922 20.082 47.3742 19.956C47.6622 19.83 47.9112 19.659 48.1212 19.443C48.3372 19.227 48.5052 18.975 48.6252 18.687C48.7512 18.393 48.8142 18.078 48.8142 17.742C48.8142 17.412 48.7512 17.103 48.6252 16.815C48.5052 16.521 48.3372 16.266 48.1212 16.05C47.9052 15.834 47.6532 15.663 47.3652 15.537C47.0832 15.411 46.7802 15.348 46.4562 15.348C46.1322 15.348 45.8262 15.411 45.5382 15.537C45.2502 15.663 44.9982 15.834 44.7822 16.05C44.5722 16.266 44.4042 16.521 44.2782 16.815C44.1582 17.109 44.0982 17.421 44.0982 17.751ZM54.6061 14.835L54.2551 15.636C54.0091 15.546 53.7631 15.474 53.5171 15.42C53.2771 15.366 53.0461 15.339 52.8241 15.339C52.4461 15.339 52.1431 15.417 51.9151 15.573C51.6931 15.729 51.5821 15.927 51.5821 16.167C51.5821 16.371 51.6631 16.536 51.8251 16.662C51.9871 16.782 52.1881 16.893 52.4281 16.995C52.6681 17.091 52.9291 17.19 53.2111 17.292C53.4931 17.388 53.7541 17.514 53.9941 17.67C54.2341 17.826 54.4351 18.024 54.5971 18.264C54.7591 18.498 54.8401 18.801 54.8401 19.173C54.8401 19.461 54.7861 19.722 54.6781 19.956C54.5761 20.184 54.4201 20.382 54.2101 20.55C54.0061 20.718 53.7481 20.847 53.4361 20.937C53.1301 21.027 52.7701 21.072 52.3561 21.072C52.0921 21.072 51.8521 21.054 51.6361 21.018C51.4261 20.982 51.2341 20.937 51.0601 20.883C50.8921 20.823 50.7421 20.76 50.6101 20.694C50.4841 20.628 50.3761 20.568 50.2861 20.514L50.7181 19.659C50.9581 19.797 51.2251 19.908 51.5191 19.992C51.8131 20.076 52.0801 20.118 52.3201 20.118C52.4401 20.118 52.5871 20.103 52.7611 20.073C52.9411 20.043 53.1121 19.992 53.2741 19.92C53.4361 19.842 53.5741 19.74 53.6881 19.614C53.8081 19.488 53.8681 19.329 53.8681 19.137C53.8681 18.963 53.8201 18.816 53.7241 18.696C53.6341 18.57 53.5111 18.462 53.3551 18.372C53.2051 18.276 53.0311 18.192 52.8331 18.12C52.6411 18.042 52.4431 17.964 52.2391 17.886C52.0351 17.802 51.8341 17.715 51.6361 17.625C51.4441 17.535 51.2701 17.427 51.1141 17.301C50.9641 17.169 50.8411 17.019 50.7451 16.851C50.6551 16.677 50.6101 16.47 50.6101 16.23C50.6101 16.008 50.6551 15.789 50.7451 15.573C50.8351 15.357 50.9701 15.165 51.1501 14.997C51.3301 14.829 51.5521 14.694 51.8161 14.592C52.0861 14.49 52.3981 14.439 52.7521 14.439C52.9681 14.439 53.1781 14.457 53.3821 14.493C53.5921 14.529 53.7811 14.571 53.9491 14.619C54.1171 14.661 54.2581 14.703 54.3721 14.745C54.4921 14.787 54.5701 14.817 54.6061 14.835ZM60.802 20.532C60.73 20.586 60.628 20.646 60.496 20.712C60.37 20.772 60.22 20.829 60.046 20.883C59.872 20.937 59.677 20.982 59.461 21.018C59.251 21.054 59.026 21.072 58.786 21.072C58.276 21.072 57.817 20.985 57.409 20.811C57.007 20.631 56.665 20.391 56.383 20.091C56.101 19.791 55.885 19.443 55.735 19.047C55.585 18.651 55.51 18.231 55.51 17.787C55.51 17.295 55.597 16.842 55.771 16.428C55.951 16.014 56.194 15.657 56.5 15.357C56.806 15.057 57.163 14.823 57.571 14.655C57.985 14.487 58.423 14.403 58.885 14.403C59.059 14.403 59.236 14.415 59.416 14.439C59.596 14.463 59.764 14.496 59.92 14.538C60.082 14.58 60.223 14.631 60.343 14.691C60.469 14.745 60.565 14.802 60.631 14.862C60.583 14.934 60.544 14.994 60.514 15.042C60.49 15.09 60.463 15.141 60.433 15.195C60.403 15.243 60.37 15.3 60.334 15.366C60.298 15.432 60.25 15.519 60.19 15.627C60.112 15.573 60.019 15.528 59.911 15.492C59.809 15.456 59.701 15.426 59.587 15.402C59.473 15.378 59.356 15.36 59.236 15.348C59.122 15.336 59.017 15.33 58.921 15.33C58.573 15.33 58.249 15.396 57.949 15.528C57.655 15.654 57.4 15.828 57.184 16.05C56.968 16.266 56.797 16.518 56.671 16.806C56.551 17.094 56.491 17.394 56.491 17.706C56.491 18.012 56.548 18.306 56.662 18.588C56.782 18.87 56.944 19.122 57.148 19.344C57.358 19.566 57.607 19.743 57.895 19.875C58.189 20.007 58.51 20.073 58.858 20.073C59.044 20.073 59.224 20.055 59.398 20.019C59.572 19.983 59.728 19.941 59.866 19.893C60.01 19.845 60.127 19.797 60.217 19.749C60.313 19.701 60.37 19.665 60.388 19.641L60.802 20.532ZM61.6992 14.475H62.6802V21H61.6992V14.475ZM64.2832 21V14.475H65.2732V20.064H68.5132V21H64.2832ZM69.4248 21V14.475H70.4148V20.064H73.6548V21H69.4248ZM73.9141 17.742C73.9141 17.292 74.0011 16.866 74.1751 16.464C74.3491 16.056 74.5861 15.699 74.8861 15.393C75.1921 15.087 75.5461 14.847 75.9481 14.673C76.3501 14.493 76.7821 14.403 77.2441 14.403C77.7001 14.403 78.1291 14.493 78.5311 14.673C78.9391 14.847 79.2931 15.087 79.5931 15.393C79.8991 15.699 80.1391 16.056 80.3131 16.464C80.4931 16.866 80.5831 17.292 80.5831 17.742C80.5831 18.204 80.4931 18.636 80.3131 19.038C80.1391 19.44 79.8991 19.794 79.5931 20.1C79.2931 20.4 78.9391 20.637 78.5311 20.811C78.1291 20.985 77.7001 21.072 77.2441 21.072C76.7821 21.072 76.3501 20.985 75.9481 20.811C75.5461 20.637 75.1921 20.4 74.8861 20.1C74.5861 19.794 74.3491 19.44 74.1751 19.038C74.0011 18.636 73.9141 18.204 73.9141 17.742ZM74.8951 17.751C74.8951 18.081 74.9551 18.393 75.0751 18.687C75.2011 18.975 75.3721 19.227 75.5881 19.443C75.8041 19.659 76.0561 19.83 76.3441 19.956C76.6321 20.082 76.9381 20.145 77.2621 20.145C77.5861 20.145 77.8891 20.082 78.1711 19.956C78.4591 19.83 78.7081 19.659 78.9181 19.443C79.1341 19.227 79.3021 18.975 79.4221 18.687C79.5481 18.393 79.6111 18.078 79.6111 17.742C79.6111 17.412 79.5481 17.103 79.4221 16.815C79.3021 16.521 79.1341 16.266 78.9181 16.05C78.7021 15.834 78.4501 15.663 78.1621 15.537C77.8801 15.411 77.5771 15.348 77.2531 15.348C76.9291 15.348 76.6231 15.411 76.3351 15.537C76.0471 15.663 75.7951 15.834 75.5791 16.05C75.3691 16.266 75.2011 16.521 75.0751 16.815C74.9551 17.109 74.8951 17.421 74.8951 17.751ZM85.403 14.835L85.052 15.636C84.806 15.546 84.56 15.474 84.314 15.42C84.074 15.366 83.843 15.339 83.621 15.339C83.243 15.339 82.94 15.417 82.712 15.573C82.49 15.729 82.379 15.927 82.379 16.167C82.379 16.371 82.46 16.536 82.622 16.662C82.784 16.782 82.985 16.893 83.225 16.995C83.465 17.091 83.726 17.19 84.008 17.292C84.29 17.388 84.551 17.514 84.791 17.67C85.031 17.826 85.232 18.024 85.394 18.264C85.556 18.498 85.637 18.801 85.637 19.173C85.637 19.461 85.583 19.722 85.475 19.956C85.373 20.184 85.217 20.382 85.007 20.55C84.803 20.718 84.545 20.847 84.233 20.937C83.927 21.027 83.567 21.072 83.153 21.072C82.889 21.072 82.649 21.054 82.433 21.018C82.223 20.982 82.031 20.937 81.857 20.883C81.689 20.823 81.539 20.76 81.407 20.694C81.281 20.628 81.173 20.568 81.083 20.514L81.515 19.659C81.755 19.797 82.022 19.908 82.316 19.992C82.61 20.076 82.877 20.118 83.117 20.118C83.237 20.118 83.384 20.103 83.558 20.073C83.738 20.043 83.909 19.992 84.071 19.92C84.233 19.842 84.371 19.74 84.485 19.614C84.605 19.488 84.665 19.329 84.665 19.137C84.665 18.963 84.617 18.816 84.521 18.696C84.431 18.57 84.308 18.462 84.152 18.372C84.002 18.276 83.828 18.192 83.63 18.12C83.438 18.042 83.24 17.964 83.036 17.886C82.832 17.802 82.631 17.715 82.433 17.625C82.241 17.535 82.067 17.427 81.911 17.301C81.761 17.169 81.638 17.019 81.542 16.851C81.452 16.677 81.407 16.47 81.407 16.23C81.407 16.008 81.452 15.789 81.542 15.573C81.632 15.357 81.767 15.165 81.947 14.997C82.127 14.829 82.349 14.694 82.613 14.592C82.883 14.49 83.195 14.439 83.549 14.439C83.765 14.439 83.975 14.457 84.179 14.493C84.389 14.529 84.578 14.571 84.746 14.619C84.914 14.661 85.055 14.703 85.169 14.745C85.289 14.787 85.367 14.817 85.403 14.835ZM91.5989 20.532C91.5269 20.586 91.4249 20.646 91.2929 20.712C91.1669 20.772 91.0169 20.829 90.8429 20.883C90.6689 20.937 90.4739 20.982 90.2579 21.018C90.0479 21.054 89.8229 21.072 89.5829 21.072C89.0729 21.072 88.6139 20.985 88.2059 20.811C87.8039 20.631 87.4619 20.391 87.1799 20.091C86.8979 19.791 86.6819 19.443 86.5319 19.047C86.3819 18.651 86.3069 18.231 86.3069 17.787C86.3069 17.295 86.3939 16.842 86.5679 16.428C86.7479 16.014 86.9909 15.657 87.2969 15.357C87.6029 15.057 87.9599 14.823 88.3679 14.655C88.7819 14.487 89.2199 14.403 89.6819 14.403C89.8559 14.403 90.0329 14.415 90.2129 14.439C90.3929 14.463 90.5609 14.496 90.7169 14.538C90.8789 14.58 91.0199 14.631 91.1399 14.691C91.2659 14.745 91.3619 14.802 91.4279 14.862C91.3799 14.934 91.3409 14.994 91.3109 15.042C91.2869 15.09 91.2599 15.141 91.2299 15.195C91.1999 15.243 91.1669 15.3 91.1309 15.366C91.0949 15.432 91.0469 15.519 90.9869 15.627C90.9089 15.573 90.8159 15.528 90.7079 15.492C90.6059 15.456 90.4979 15.426 90.3839 15.402C90.2699 15.378 90.1529 15.36 90.0329 15.348C89.9189 15.336 89.8139 15.33 89.7179 15.33C89.3699 15.33 89.0459 15.396 88.7459 15.528C88.4519 15.654 88.1969 15.828 87.9809 16.05C87.7649 16.266 87.5939 16.518 87.4679 16.806C87.3479 17.094 87.2879 17.394 87.2879 17.706C87.2879 18.012 87.3449 18.306 87.4589 18.588C87.5789 18.87 87.7409 19.122 87.9449 19.344C88.1549 19.566 88.4039 19.743 88.6919 19.875C88.9859 20.007 89.3069 20.073 89.6549 20.073C89.8409 20.073 90.0209 20.055 90.1949 20.019C90.3689 19.983 90.5249 19.941 90.6629 19.893C90.8069 19.845 90.9239 19.797 91.0139 19.749C91.1099 19.701 91.1669 19.665 91.1849 19.641L91.5989 20.532ZM91.8613 17.742C91.8613 17.292 91.9483 16.866 92.1223 16.464C92.2963 16.056 92.5333 15.699 92.8333 15.393C93.1393 15.087 93.4933 14.847 93.8953 14.673C94.2973 14.493 94.7293 14.403 95.1913 14.403C95.6473 14.403 96.0763 14.493 96.4783 14.673C96.8863 14.847 97.2403 15.087 97.5403 15.393C97.8463 15.699 98.0863 16.056 98.2603 16.464C98.4403 16.866 98.5303 17.292 98.5303 17.742C98.5303 18.204 98.4403 18.636 98.2603 19.038C98.0863 19.44 97.8463 19.794 97.5403 20.1C97.2403 20.4 96.8863 20.637 96.4783 20.811C96.0763 20.985 95.6473 21.072 95.1913 21.072C94.7293 21.072 94.2973 20.985 93.8953 20.811C93.4933 20.637 93.1393 20.4 92.8333 20.1C92.5333 19.794 92.2963 19.44 92.1223 19.038C91.9483 18.636 91.8613 18.204 91.8613 17.742ZM92.8423 17.751C92.8423 18.081 92.9023 18.393 93.0223 18.687C93.1483 18.975 93.3193 19.227 93.5353 19.443C93.7513 19.659 94.0033 19.83 94.2913 19.956C94.5793 20.082 94.8853 20.145 95.2093 20.145C95.5333 20.145 95.8363 20.082 96.1183 19.956C96.4063 19.83 96.6553 19.659 96.8653 19.443C97.0813 19.227 97.2493 18.975 97.3693 18.687C97.4953 18.393 97.5583 18.078 97.5583 17.742C97.5583 17.412 97.4953 17.103 97.3693 16.815C97.2493 16.521 97.0813 16.266 96.8653 16.05C96.6493 15.834 96.3973 15.663 96.1093 15.537C95.8273 15.411 95.5243 15.348 95.2003 15.348C94.8763 15.348 94.5703 15.411 94.2823 15.537C93.9943 15.663 93.7423 15.834 93.5263 16.05C93.3163 16.266 93.1483 16.521 93.0223 16.815C92.9023 17.109 92.8423 17.421 92.8423 17.751ZM100.667 17.742H101.558C101.798 17.742 101.999 17.7 102.161 17.616C102.323 17.532 102.449 17.43 102.539 17.31C102.635 17.19 102.701 17.061 102.737 16.923C102.779 16.785 102.8 16.662 102.8 16.554C102.8 16.44 102.779 16.317 102.737 16.185C102.701 16.047 102.635 15.921 102.539 15.807C102.443 15.687 102.314 15.588 102.152 15.51C101.996 15.432 101.801 15.393 101.567 15.393H100.667V17.742ZM99.6768 21V14.475H101.459C101.801 14.475 102.113 14.52 102.395 14.61C102.683 14.7 102.929 14.835 103.133 15.015C103.343 15.189 103.505 15.405 103.619 15.663C103.733 15.915 103.79 16.206 103.79 16.536C103.79 16.794 103.751 17.052 103.673 17.31C103.595 17.562 103.469 17.79 103.295 17.994C103.121 18.192 102.893 18.354 102.611 18.48C102.329 18.606 101.987 18.669 101.585 18.669H100.667V21H99.6768ZM104.871 21V14.475H109.155V15.366H105.861V17.274H108.795V18.183H105.861V20.091H109.281V21H104.871Z" fill="#C4C4C4"/>
<circle cx="25" cy="292" r="9.5" fill="#616161" stroke="#C4C4C4"/>
<path d="M25 284L31.9282 288V296L25 300L18.0718 296V288L25 284Z" fill="#A5A5A5"/>
<circle cx="25" cy="292" r="5.5" fill="black" stroke="#E5E5E5"/>
<path d="M24.6464 315.354C24.8417 315.549 25.1583 315.549 25.3536 315.354L28.5355 312.172C28.7308 311.976 28.7308 311.66 28.5355 311.464C28.3403 311.269 28.0237 311.269 27.8284 311.464L25 314.293L22.1716 311.464C21.9763 311.269 21.6597 311.269 21.4645 311.464C21.2692 311.66 21.2692 311.976 21.4645 312.172L24.6464 315.354ZM24.5 305V315H25.5V305H24.5Z" fill="#C4C4C4"/>
<circle cx="76" cy="292" r="9.5" fill="#616161" stroke="#C4C4C4"/>
<path d="M76 284L82.9282 288V296L76 300L69.0718 296V288L76 284Z" fill="#A5A5A5"/>
<circle cx="76" cy="292" r="5.5" fill="black" stroke="#E5E5E5"/>
<path d="M75.6464 315.354C75.8417 315.549 76.1583 315.549 76.3536 315.354L79.5355 312.172C79.7308 311.976 79.7308 311.66 79.5355 311.464C79.3403 311.269 79.0237 311.269 78.8284 311.464L76 314.293L73.1716 311.464C72.9763 311.269 72.6597 311.269 72.4645 311.464C72.2692 311.66 72.2692 311.976 72.4645 312.172L75.6464 315.354ZM75.5 305V315H76.5V305H75.5Z" fill="#C4C4C4"/>
<circle cx="127" cy="292" r="9.5" fill="#616161" stroke="#C4C4C4"/>
<path d="M127 284L133.928 288V296L127 300L120.072 296V288L127 284Z" fill="#A5A5A5"/>
<circle cx="127" cy="292" r="5.5" fill="black" stroke="#E5E5E5"/>
<path d="M126.646 315.354C126.842 315.549 127.158 315.549 127.354 315.354L130.536 312.172C130.731 311.976 130.731 311.66 130.536 311.464C130.34 311.269 130.024 311.269 129.828 311.464L127 314.293L124.172 311.464C123.976 311.269 123.66 311.269 123.464 311.464C123.269 311.66 123.269 311.976 123.464 312.172L126.646 315.354ZM126.5 305V315H127.5V305H126.5Z" fill="#C4C4C4"/>
<rect x="3.5" y="33.5" width="145" height="145" fill="#111111" stroke="#C4C4C4"/>
<rect x="111" y="319" width="32" height="45" fill="#161616"/>
<path d="M116.937 358.466C116.937 358.116 117.005 357.785 117.14 357.472C117.275 357.155 117.46 356.877 117.693 356.639C117.931 356.401 118.206 356.214 118.519 356.079C118.832 355.939 119.168 355.869 119.527 355.869C119.882 355.869 120.215 355.939 120.528 356.079C120.845 356.214 121.121 356.401 121.354 356.639C121.592 356.877 121.779 357.155 121.914 357.472C122.054 357.785 122.124 358.116 122.124 358.466C122.124 358.825 122.054 359.161 121.914 359.474C121.779 359.787 121.592 360.062 121.354 360.3C121.121 360.533 120.845 360.718 120.528 360.853C120.215 360.988 119.882 361.056 119.527 361.056C119.168 361.056 118.832 360.988 118.519 360.853C118.206 360.718 117.931 360.533 117.693 360.3C117.46 360.062 117.275 359.787 117.14 359.474C117.005 359.161 116.937 358.825 116.937 358.466ZM117.7 358.473C117.7 358.73 117.747 358.972 117.84 359.201C117.938 359.425 118.071 359.621 118.239 359.789C118.407 359.957 118.603 360.09 118.827 360.188C119.051 360.286 119.289 360.335 119.541 360.335C119.793 360.335 120.029 360.286 120.248 360.188C120.472 360.09 120.666 359.957 120.829 359.789C120.997 359.621 121.128 359.425 121.221 359.201C121.319 358.972 121.368 358.727 121.368 358.466C121.368 358.209 121.319 357.969 121.221 357.745C121.128 357.516 120.997 357.318 120.829 357.15C120.661 356.982 120.465 356.849 120.241 356.751C120.022 356.653 119.786 356.604 119.534 356.604C119.282 356.604 119.044 356.653 118.82 356.751C118.596 356.849 118.4 356.982 118.232 357.15C118.069 357.318 117.938 357.516 117.84 357.745C117.747 357.974 117.7 358.216 117.7 358.473ZM124.892 361.056C124.621 361.056 124.369 361.012 124.136 360.923C123.902 360.834 123.697 360.711 123.52 360.552C123.347 360.389 123.209 360.195 123.107 359.971C123.009 359.742 122.96 359.488 122.96 359.208V355.925H123.73V359.187C123.73 359.35 123.758 359.502 123.814 359.642C123.874 359.777 123.956 359.899 124.059 360.006C124.166 360.109 124.29 360.19 124.43 360.251C124.57 360.307 124.724 360.335 124.892 360.335C125.055 360.335 125.207 360.307 125.347 360.251C125.491 360.19 125.615 360.109 125.718 360.006C125.825 359.899 125.909 359.777 125.97 359.642C126.03 359.502 126.061 359.35 126.061 359.187V355.925H126.831V359.208C126.831 359.488 126.779 359.742 126.677 359.971C126.579 360.195 126.441 360.389 126.264 360.552C126.091 360.711 125.886 360.834 125.648 360.923C125.414 361.012 125.162 361.056 124.892 361.056ZM130.973 355.925V356.653H129.692V361H128.929V356.653H127.676V355.925H130.973ZM137.254 360.636C137.198 360.678 137.119 360.725 137.016 360.776C136.918 360.823 136.802 360.867 136.666 360.909C136.531 360.951 136.379 360.986 136.211 361.014C136.048 361.042 135.873 361.056 135.686 361.056C135.29 361.056 134.933 360.988 134.615 360.853C134.303 360.713 134.037 360.526 133.817 360.293C133.598 360.06 133.43 359.789 133.313 359.481C133.197 359.173 133.138 358.846 133.138 358.501C133.138 358.118 133.206 357.766 133.341 357.444C133.481 357.122 133.67 356.844 133.908 356.611C134.146 356.378 134.424 356.196 134.741 356.065C135.063 355.934 135.404 355.869 135.763 355.869C135.899 355.869 136.036 355.878 136.176 355.897C136.316 355.916 136.447 355.941 136.568 355.974C136.694 356.007 136.804 356.046 136.897 356.093C136.995 356.135 137.07 356.179 137.121 356.226C137.084 356.282 137.054 356.329 137.03 356.366C137.012 356.403 136.991 356.443 136.967 356.485C136.944 356.522 136.918 356.567 136.89 356.618C136.862 356.669 136.825 356.737 136.778 356.821C136.718 356.779 136.645 356.744 136.561 356.716C136.482 356.688 136.398 356.665 136.309 356.646C136.221 356.627 136.13 356.613 136.036 356.604C135.948 356.595 135.866 356.59 135.791 356.59C135.521 356.59 135.269 356.641 135.035 356.744C134.807 356.842 134.608 356.977 134.44 357.15C134.272 357.318 134.139 357.514 134.041 357.738C133.948 357.962 133.901 358.195 133.901 358.438C133.901 358.676 133.946 358.905 134.034 359.124C134.128 359.343 134.254 359.539 134.412 359.712C134.576 359.885 134.769 360.022 134.993 360.125C135.222 360.228 135.472 360.279 135.742 360.279C135.887 360.279 136.027 360.265 136.162 360.237C136.298 360.209 136.419 360.176 136.526 360.139C136.638 360.102 136.729 360.064 136.799 360.027C136.874 359.99 136.918 359.962 136.932 359.943L137.254 360.636Z" fill="#C4C4C4"/>
<circle cx="128" cy="332" r="9.5" fill="#616161" stroke="#C4C4C4"/>
<path d="M128 324L134.928 328V336L128 340L121.072 336V328L128 324Z" fill="#A5A5A5"/>
<circle cx="128" cy="332" r="5.5" fill="black" stroke="#E5E5E5"/>
<rect x="60" y="319" width="32" height="45" fill="#161616"/>
<path d="M66.0907 358.466C66.0907 358.116 66.1584 357.785 66.2937 357.472C66.429 357.155 66.6134 356.877 66.8467 356.639C67.0847 356.401 67.36 356.214 67.6727 356.079C67.9854 355.939 68.3214 355.869 68.6807 355.869C69.0354 355.869 69.369 355.939 69.6817 356.079C69.999 356.214 70.2744 356.401 70.5077 356.639C70.7457 356.877 70.9324 357.155 71.0677 357.472C71.2077 357.785 71.2777 358.116 71.2777 358.466C71.2777 358.825 71.2077 359.161 71.0677 359.474C70.9324 359.787 70.7457 360.062 70.5077 360.3C70.2744 360.533 69.999 360.718 69.6817 360.853C69.369 360.988 69.0354 361.056 68.6807 361.056C68.3214 361.056 67.9854 360.988 67.6727 360.853C67.36 360.718 67.0847 360.533 66.8467 360.3C66.6134 360.062 66.429 359.787 66.2937 359.474C66.1584 359.161 66.0907 358.825 66.0907 358.466ZM66.8537 358.473C66.8537 358.73 66.9004 358.972 66.9937 359.201C67.0917 359.425 67.2247 359.621 67.3927 359.789C67.5607 359.957 67.7567 360.09 67.9807 360.188C68.2047 360.286 68.4427 360.335 68.6947 360.335C68.9467 360.335 69.1824 360.286 69.4017 360.188C69.6257 360.09 69.8194 359.957 69.9827 359.789C70.1507 359.621 70.2814 359.425 70.3747 359.201C70.4727 358.972 70.5217 358.727 70.5217 358.466C70.5217 358.209 70.4727 357.969 70.3747 357.745C70.2814 357.516 70.1507 357.318 69.9827 357.15C69.8147 356.982 69.6187 356.849 69.3947 356.751C69.1754 356.653 68.9397 356.604 68.6877 356.604C68.4357 356.604 68.1977 356.653 67.9737 356.751C67.7497 356.849 67.5537 356.982 67.3857 357.15C67.2224 357.318 67.0917 357.516 66.9937 357.745C66.9004 357.974 66.8537 358.216 66.8537 358.473ZM74.0454 361.056C73.7747 361.056 73.5227 361.012 73.2894 360.923C73.0561 360.834 72.8507 360.711 72.6734 360.552C72.5007 360.389 72.3631 360.195 72.2604 359.971C72.1624 359.742 72.1134 359.488 72.1134 359.208V355.925H72.8834V359.187C72.8834 359.35 72.9114 359.502 72.9674 359.642C73.0281 359.777 73.1097 359.899 73.2124 360.006C73.3197 360.109 73.4434 360.19 73.5834 360.251C73.7234 360.307 73.8774 360.335 74.0454 360.335C74.2087 360.335 74.3604 360.307 74.5004 360.251C74.6451 360.19 74.7687 360.109 74.8714 360.006C74.9787 359.899 75.0627 359.777 75.1234 359.642C75.1841 359.502 75.2144 359.35 75.2144 359.187V355.925H75.9844V359.208C75.9844 359.488 75.9331 359.742 75.8304 359.971C75.7324 360.195 75.5947 360.389 75.4174 360.552C75.2447 360.711 75.0394 360.834 74.8014 360.923C74.5681 361.012 74.3161 361.056 74.0454 361.056ZM80.1273 355.925V356.653H78.8463V361H78.0833V356.653H76.8303V355.925H80.1273ZM83.412 356.618V358.116H84.098C84.35 358.116 84.539 358.041 84.665 357.892C84.791 357.743 84.854 357.561 84.854 357.346C84.854 357.094 84.777 356.91 84.623 356.793C84.4737 356.676 84.273 356.618 84.021 356.618H83.412ZM83.412 358.767V360.307H84.126C84.2614 360.307 84.3874 360.291 84.504 360.258C84.6254 360.225 84.7304 360.179 84.819 360.118C84.9077 360.053 84.9777 359.971 85.029 359.873C85.0804 359.775 85.106 359.661 85.106 359.53C85.106 359.385 85.0757 359.266 85.015 359.173C84.9544 359.075 84.8727 358.996 84.77 358.935C84.672 358.874 84.5577 358.832 84.427 358.809C84.301 358.781 84.1704 358.767 84.035 358.767H83.412ZM82.642 361V355.925H83.986C84.2334 355.925 84.4574 355.951 84.658 356.002C84.8587 356.049 85.029 356.126 85.169 356.233C85.309 356.336 85.4164 356.471 85.491 356.639C85.5704 356.802 85.61 357.003 85.61 357.241C85.61 357.372 85.596 357.5 85.568 357.626C85.5447 357.752 85.5027 357.869 85.442 357.976C85.386 358.079 85.309 358.17 85.211 358.249C85.1177 358.328 85.001 358.389 84.861 358.431C84.9824 358.454 85.1014 358.494 85.218 358.55C85.3394 358.606 85.4467 358.683 85.54 358.781C85.6334 358.874 85.708 358.991 85.764 359.131C85.8247 359.271 85.855 359.437 85.855 359.628C85.855 359.871 85.8084 360.078 85.715 360.251C85.6217 360.424 85.498 360.566 85.344 360.678C85.19 360.79 85.0127 360.872 84.812 360.923C84.6114 360.974 84.4037 361 84.189 361H82.642Z" fill="#C4C4C4"/>
<circle cx="77" cy="332" r="9.5" fill="#616161" stroke="#C4C4C4"/>
<path d="M77 324L83.9282 328V336L77 340L70.0718 336V328L77 324Z" fill="#A5A5A5"/>
<circle cx="77" cy="332" r="5.5" fill="black" stroke="#E5E5E5"/>
<rect x="9" y="319" width="32" height="45" fill="#161616"/>
<path d="M14.9027 358.466C14.9027 358.116 14.9704 357.785 15.1057 357.472C15.2411 357.155 15.4254 356.877 15.6587 356.639C15.8967 356.401 16.1721 356.214 16.4847 356.079C16.7974 355.939 17.1334 355.869 17.4927 355.869C17.8474 355.869 18.1811 355.939 18.4937 356.079C18.8111 356.214 19.0864 356.401 19.3197 356.639C19.5577 356.877 19.7444 357.155 19.8797 357.472C20.0197 357.785 20.0897 358.116 20.0897 358.466C20.0897 358.825 20.0197 359.161 19.8797 359.474C19.7444 359.787 19.5577 360.062 19.3197 360.3C19.0864 360.533 18.8111 360.718 18.4937 360.853C18.1811 360.988 17.8474 361.056 17.4927 361.056C17.1334 361.056 16.7974 360.988 16.4847 360.853C16.1721 360.718 15.8967 360.533 15.6587 360.3C15.4254 360.062 15.2411 359.787 15.1057 359.474C14.9704 359.161 14.9027 358.825 14.9027 358.466ZM15.6657 358.473C15.6657 358.73 15.7124 358.972 15.8057 359.201C15.9037 359.425 16.0367 359.621 16.2047 359.789C16.3727 359.957 16.5687 360.09 16.7927 360.188C17.0167 360.286 17.2547 360.335 17.5067 360.335C17.7587 360.335 17.9944 360.286 18.2137 360.188C18.4377 360.09 18.6314 359.957 18.7947 359.789C18.9627 359.621 19.0934 359.425 19.1867 359.201C19.2847 358.972 19.3337 358.727 19.3337 358.466C19.3337 358.209 19.2847 357.969 19.1867 357.745C19.0934 357.516 18.9627 357.318 18.7947 357.15C18.6267 356.982 18.4307 356.849 18.2067 356.751C17.9874 356.653 17.7517 356.604 17.4997 356.604C17.2477 356.604 17.0097 356.653 16.7857 356.751C16.5617 356.849 16.3657 356.982 16.1977 357.15C16.0344 357.318 15.9037 357.516 15.8057 357.745C15.7124 357.974 15.6657 358.216 15.6657 358.473ZM22.8574 361.056C22.5867 361.056 22.3347 361.012 22.1014 360.923C21.8681 360.834 21.6627 360.711 21.4854 360.552C21.3127 360.389 21.1751 360.195 21.0724 359.971C20.9744 359.742 20.9254 359.488 20.9254 359.208V355.925H21.6954V359.187C21.6954 359.35 21.7234 359.502 21.7794 359.642C21.8401 359.777 21.9217 359.899 22.0244 360.006C22.1317 360.109 22.2554 360.19 22.3954 360.251C22.5354 360.307 22.6894 360.335 22.8574 360.335C23.0207 360.335 23.1724 360.307 23.3124 360.251C23.4571 360.19 23.5807 360.109 23.6834 360.006C23.7907 359.899 23.8747 359.777 23.9354 359.642C23.9961 359.502 24.0264 359.35 24.0264 359.187V355.925H24.7964V359.208C24.7964 359.488 24.7451 359.742 24.6424 359.971C24.5444 360.195 24.4067 360.389 24.2294 360.552C24.0567 360.711 23.8514 360.834 23.6134 360.923C23.3801 361.012 23.1281 361.056 22.8574 361.056ZM28.9393 355.925V356.653H27.6583V361H26.8953V356.653H25.6423V355.925H28.9393ZM34.5971 361C34.5737 360.949 34.5411 360.874 34.4991 360.776C34.4571 360.678 34.4081 360.566 34.3521 360.44C34.3007 360.309 34.2424 360.169 34.1771 360.02C34.1164 359.866 34.0534 359.707 33.9881 359.544H32.1961L31.5941 361H30.8381L33.0991 355.687C33.1271 355.752 33.1761 355.871 33.2461 356.044C33.3207 356.217 33.4071 356.424 33.5051 356.667C33.6077 356.905 33.7197 357.171 33.8411 357.465C33.9671 357.754 34.0931 358.048 34.2191 358.347C34.3497 358.646 34.4757 358.94 34.5971 359.229C34.7231 359.518 34.8374 359.784 34.9401 360.027C35.0427 360.27 35.1291 360.477 35.1991 360.65C35.2737 360.818 35.3251 360.935 35.3531 361H34.5971ZM32.4621 358.9H33.7291C33.6637 358.746 33.6007 358.599 33.5401 358.459C33.4841 358.314 33.4304 358.184 33.3791 358.067C33.3324 357.946 33.2904 357.841 33.2531 357.752C33.2157 357.663 33.1877 357.593 33.1691 357.542C33.1644 357.533 33.1527 357.5 33.1341 357.444C33.1201 357.388 33.1084 357.337 33.0991 357.29C33.0897 357.337 33.0757 357.388 33.0571 357.444C33.0384 357.5 33.0267 357.533 33.0221 357.542L32.4621 358.9Z" fill="#C4C4C4"/>
<circle cx="26" cy="332" r="9.5" fill="#616161" stroke="#C4C4C4"/>
<path d="M26 324L32.9282 328V336L26 340L19.0718 336V328L26 324Z" fill="#A5A5A5"/>
<circle cx="26" cy="332" r="5.5" fill="black" stroke="#E5E5E5"/>
<path d="M14.8185 220.205L14.5455 220.828C14.3542 220.758 14.1629 220.702 13.9715 220.66C13.7849 220.618 13.6052 220.597 13.4325 220.597C13.1385 220.597 12.9029 220.658 12.7255 220.779C12.5529 220.9 12.4665 221.054 12.4665 221.241C12.4665 221.4 12.5295 221.528 12.6555 221.626C12.7815 221.719 12.9379 221.806 13.1245 221.885C13.3112 221.96 13.5142 222.037 13.7335 222.116C13.9529 222.191 14.1559 222.289 14.3425 222.41C14.5292 222.531 14.6855 222.685 14.8115 222.872C14.9375 223.054 15.0005 223.29 15.0005 223.579C15.0005 223.803 14.9585 224.006 14.8745 224.188C14.7952 224.365 14.6739 224.519 14.5105 224.65C14.3519 224.781 14.1512 224.881 13.9085 224.951C13.6705 225.021 13.3905 225.056 13.0685 225.056C12.8632 225.056 12.6765 225.042 12.5085 225.014C12.3452 224.986 12.1959 224.951 12.0605 224.909C11.9299 224.862 11.8132 224.813 11.7105 224.762C11.6125 224.711 11.5285 224.664 11.4585 224.622L11.7945 223.957C11.9812 224.064 12.1889 224.151 12.4175 224.216C12.6462 224.281 12.8539 224.314 13.0405 224.314C13.1339 224.314 13.2482 224.302 13.3835 224.279C13.5235 224.256 13.6565 224.216 13.7825 224.16C13.9085 224.099 14.0159 224.02 14.1045 223.922C14.1979 223.824 14.2445 223.7 14.2445 223.551C14.2445 223.416 14.2072 223.301 14.1325 223.208C14.0625 223.11 13.9669 223.026 13.8455 222.956C13.7289 222.881 13.5935 222.816 13.4395 222.76C13.2902 222.699 13.1362 222.639 12.9775 222.578C12.8189 222.513 12.6625 222.445 12.5085 222.375C12.3592 222.305 12.2239 222.221 12.1025 222.123C11.9859 222.02 11.8902 221.904 11.8155 221.773C11.7455 221.638 11.7105 221.477 11.7105 221.29C11.7105 221.117 11.7455 220.947 11.8155 220.779C11.8855 220.611 11.9905 220.462 12.1305 220.331C12.2705 220.2 12.4432 220.095 12.6485 220.016C12.8585 219.937 13.1012 219.897 13.3765 219.897C13.5445 219.897 13.7079 219.911 13.8665 219.939C14.0299 219.967 14.1769 220 14.3075 220.037C14.4382 220.07 14.5479 220.102 14.6365 220.135C14.7299 220.168 14.7905 220.191 14.8185 220.205ZM19.6375 224.636C19.5815 224.678 19.5022 224.725 19.3995 224.776C19.3015 224.823 19.1849 224.867 19.0495 224.909C18.9142 224.951 18.7625 224.986 18.5945 225.014C18.4312 225.042 18.2562 225.056 18.0695 225.056C17.6729 225.056 17.3159 224.988 16.9985 224.853C16.6859 224.713 16.4199 224.526 16.2005 224.293C15.9812 224.06 15.8132 223.789 15.6965 223.481C15.5799 223.173 15.5215 222.846 15.5215 222.501C15.5215 222.118 15.5892 221.766 15.7245 221.444C15.8645 221.122 16.0535 220.844 16.2915 220.611C16.5295 220.378 16.8072 220.196 17.1245 220.065C17.4465 219.934 17.7872 219.869 18.1465 219.869C18.2819 219.869 18.4195 219.878 18.5595 219.897C18.6995 219.916 18.8302 219.941 18.9515 219.974C19.0775 220.007 19.1872 220.046 19.2805 220.093C19.3785 220.135 19.4532 220.179 19.5045 220.226C19.4672 220.282 19.4369 220.329 19.4135 220.366C19.3949 220.403 19.3739 220.443 19.3505 220.485C19.3272 220.522 19.3015 220.567 19.2735 220.618C19.2455 220.669 19.2082 220.737 19.1615 220.821C19.1009 220.779 19.0285 220.744 18.9445 220.716C18.8652 220.688 18.7812 220.665 18.6925 220.646C18.6039 220.627 18.5129 220.613 18.4195 220.604C18.3309 220.595 18.2492 220.59 18.1745 220.59C17.9039 220.59 17.6519 220.641 17.4185 220.744C17.1899 220.842 16.9915 220.977 16.8235 221.15C16.6555 221.318 16.5225 221.514 16.4245 221.738C16.3312 221.962 16.2845 222.195 16.2845 222.438C16.2845 222.676 16.3289 222.905 16.4175 223.124C16.5109 223.343 16.6369 223.539 16.7955 223.712C16.9589 223.885 17.1525 224.022 17.3765 224.125C17.6052 224.228 17.8549 224.279 18.1255 224.279C18.2702 224.279 18.4102 224.265 18.5455 224.237C18.6809 224.209 18.8022 224.176 18.9095 224.139C19.0215 224.102 19.1125 224.064 19.1825 224.027C19.2572 223.99 19.3015 223.962 19.3155 223.943L19.6375 224.636ZM23.4784 225C23.4551 224.949 23.4224 224.874 23.3804 224.776C23.3384 224.678 23.2894 224.566 23.2334 224.44C23.1821 224.309 23.1237 224.169 23.0584 224.02C22.9977 223.866 22.9347 223.707 22.8694 223.544H21.0774L20.4754 225H19.7194L21.9804 219.687C22.0084 219.752 22.0574 219.871 22.1274 220.044C22.2021 220.217 22.2884 220.424 22.3864 220.667C22.4891 220.905 22.6011 221.171 22.7224 221.465C22.8484 221.754 22.9744 222.048 23.1004 222.347C23.2311 222.646 23.3571 222.94 23.4784 223.229C23.6044 223.518 23.7187 223.784 23.8214 224.027C23.9241 224.27 24.0104 224.477 24.0804 224.65C24.1551 224.818 24.2064 224.935 24.2344 225H23.4784ZM21.3434 222.9H22.6104C22.5451 222.746 22.4821 222.599 22.4214 222.459C22.3654 222.314 22.3117 222.184 22.2604 222.067C22.2137 221.946 22.1717 221.841 22.1344 221.752C22.0971 221.663 22.0691 221.593 22.0504 221.542C22.0457 221.533 22.0341 221.5 22.0154 221.444C22.0014 221.388 21.9897 221.337 21.9804 221.29C21.9711 221.337 21.9571 221.388 21.9384 221.444C21.9197 221.5 21.9081 221.533 21.9034 221.542L21.3434 222.9ZM24.8676 225V219.925H25.6376V224.272H28.1576V225H24.8676ZM28.8667 225V219.925H32.1987V220.618H29.6367V222.102H31.9187V222.809H29.6367V224.293H32.2967V225H28.8667ZM37.9432 225C37.9199 224.949 37.8872 224.874 37.8452 224.776C37.8032 224.678 37.7542 224.566 37.6982 224.44C37.6469 224.309 37.5886 224.169 37.5232 224.02C37.4626 223.866 37.3996 223.707 37.3342 223.544H35.5422L34.9402 225H34.1842L36.4452 219.687C36.4732 219.752 36.5222 219.871 36.5922 220.044C36.6669 220.217 36.7532 220.424 36.8512 220.667C36.9539 220.905 37.0659 221.171 37.1872 221.465C37.3132 221.754 37.4392 222.048 37.5652 222.347C37.6959 222.646 37.8219 222.94 37.9432 223.229C38.0692 223.518 38.1836 223.784 38.2862 224.027C38.3889 224.27 38.4752 224.477 38.5452 224.65C38.6199 224.818 38.6712 224.935 38.6992 225H37.9432ZM35.8082 222.9H37.0752C37.0099 222.746 36.9469 222.599 36.8862 222.459C36.8302 222.314 36.7766 222.184 36.7252 222.067C36.6786 221.946 36.6366 221.841 36.5992 221.752C36.5619 221.663 36.5339 221.593 36.5152 221.542C36.5106 221.533 36.4989 221.5 36.4802 221.444C36.4662 221.388 36.4546 221.337 36.4452 221.29C36.4359 221.337 36.4219 221.388 36.4032 221.444C36.3846 221.5 36.3729 221.533 36.3682 221.542L35.8082 222.9Z" fill="#C4C4C4"/>
<circle cx="127" cy="200" r="15" transform="rotate(-180 127 200)" fill="black"/>
<rect x="127.938" y="200" width="2.8125" height="15" transform="rotate(-180 127.938 200)" fill="#E5E5E5"/>
<circle cx="127" cy="248" r="15" transform="rotate(-180 127 248)" fill="black"/>
<rect x="127.938" y="248" width="2.8125" height="15" transform="rotate(-180 127.938 248)" fill="#E5E5E5"/>
<path d="M116.853 220.205L116.58 220.828C116.388 220.758 116.197 220.702 116.006 220.66C115.819 220.618 115.639 220.597 115.467 220.597C115.173 220.597 114.937 220.658 114.76 220.779C114.587 220.9 114.501 221.054 114.501 221.241C114.501 221.4 114.564 221.528 114.69 221.626C114.816 221.719 114.972 221.806 115.159 221.885C115.345 221.96 115.548 222.037 115.768 222.116C115.987 222.191 116.19 222.289 116.377 222.41C116.563 222.531 116.72 222.685 116.846 222.872C116.972 223.054 117.035 223.29 117.035 223.579C117.035 223.803 116.993 224.006 116.909 224.188C116.829 224.365 116.708 224.519 116.545 224.65C116.386 224.781 116.185 224.881 115.943 224.951C115.705 225.021 115.425 225.056 115.103 225.056C114.897 225.056 114.711 225.042 114.543 225.014C114.379 224.986 114.23 224.951 114.095 224.909C113.964 224.862 113.847 224.813 113.745 224.762C113.647 224.711 113.563 224.664 113.493 224.622L113.829 223.957C114.015 224.064 114.223 224.151 114.452 224.216C114.68 224.281 114.888 224.314 115.075 224.314C115.168 224.314 115.282 224.302 115.418 224.279C115.558 224.256 115.691 224.216 115.817 224.16C115.943 224.099 116.05 224.02 116.139 223.922C116.232 223.824 116.279 223.7 116.279 223.551C116.279 223.416 116.241 223.301 116.167 223.208C116.097 223.11 116.001 223.026 115.88 222.956C115.763 222.881 115.628 222.816 115.474 222.76C115.324 222.699 115.17 222.639 115.012 222.578C114.853 222.513 114.697 222.445 114.543 222.375C114.393 222.305 114.258 222.221 114.137 222.123C114.02 222.02 113.924 221.904 113.85 221.773C113.78 221.638 113.745 221.477 113.745 221.29C113.745 221.117 113.78 220.947 113.85 220.779C113.92 220.611 114.025 220.462 114.165 220.331C114.305 220.2 114.477 220.095 114.683 220.016C114.893 219.937 115.135 219.897 115.411 219.897C115.579 219.897 115.742 219.911 115.901 219.939C116.064 219.967 116.211 220 116.342 220.037C116.472 220.07 116.582 220.102 116.671 220.135C116.764 220.168 116.825 220.191 116.853 220.205ZM121.672 224.636C121.616 224.678 121.536 224.725 121.434 224.776C121.336 224.823 121.219 224.867 121.084 224.909C120.948 224.951 120.797 224.986 120.629 225.014C120.465 225.042 120.29 225.056 120.104 225.056C119.707 225.056 119.35 224.988 119.033 224.853C118.72 224.713 118.454 224.526 118.235 224.293C118.015 224.06 117.847 223.789 117.731 223.481C117.614 223.173 117.556 222.846 117.556 222.501C117.556 222.118 117.623 221.766 117.759 221.444C117.899 221.122 118.088 220.844 118.326 220.611C118.564 220.378 118.841 220.196 119.159 220.065C119.481 219.934 119.821 219.869 120.181 219.869C120.316 219.869 120.454 219.878 120.594 219.897C120.734 219.916 120.864 219.941 120.986 219.974C121.112 220.007 121.221 220.046 121.315 220.093C121.413 220.135 121.487 220.179 121.539 220.226C121.501 220.282 121.471 220.329 121.448 220.366C121.429 220.403 121.408 220.443 121.385 220.485C121.361 220.522 121.336 220.567 121.308 220.618C121.28 220.669 121.242 220.737 121.196 220.821C121.135 220.779 121.063 220.744 120.979 220.716C120.899 220.688 120.815 220.665 120.727 220.646C120.638 220.627 120.547 220.613 120.454 220.604C120.365 220.595 120.283 220.59 120.209 220.59C119.938 220.59 119.686 220.641 119.453 220.744C119.224 220.842 119.026 220.977 118.858 221.15C118.69 221.318 118.557 221.514 118.459 221.738C118.365 221.962 118.319 222.195 118.319 222.438C118.319 222.676 118.363 222.905 118.452 223.124C118.545 223.343 118.671 223.539 118.83 223.712C118.993 223.885 119.187 224.022 119.411 224.125C119.639 224.228 119.889 224.279 120.16 224.279C120.304 224.279 120.444 224.265 120.58 224.237C120.715 224.209 120.836 224.176 120.944 224.139C121.056 224.102 121.147 224.064 121.217 224.027C121.291 223.99 121.336 223.962 121.35 223.943L121.672 224.636ZM125.513 225C125.489 224.949 125.457 224.874 125.415 224.776C125.373 224.678 125.324 224.566 125.268 224.44C125.216 224.309 125.158 224.169 125.093 224.02C125.032 223.866 124.969 223.707 124.904 223.544H123.112L122.51 225H121.754L124.015 219.687C124.043 219.752 124.092 219.871 124.162 220.044C124.236 220.217 124.323 220.424 124.421 220.667C124.523 220.905 124.635 221.171 124.757 221.465C124.883 221.754 125.009 222.048 125.135 222.347C125.265 222.646 125.391 222.94 125.513 223.229C125.639 223.518 125.753 223.784 125.856 224.027C125.958 224.27 126.045 224.477 126.115 224.65C126.189 224.818 126.241 224.935 126.269 225H125.513ZM123.378 222.9H124.645C124.579 222.746 124.516 222.599 124.456 222.459C124.4 222.314 124.346 222.184 124.295 222.067C124.248 221.946 124.206 221.841 124.169 221.752C124.131 221.663 124.103 221.593 124.085 221.542C124.08 221.533 124.068 221.5 124.05 221.444C124.036 221.388 124.024 221.337 124.015 221.29C124.005 221.337 123.991 221.388 123.973 221.444C123.954 221.5 123.942 221.533 123.938 221.542L123.378 222.9ZM126.902 225V219.925H127.672V224.272H130.192V225H126.902ZM130.901 225V219.925H134.233V220.618H131.671V222.102H133.953V222.809H131.671V224.293H134.331V225H130.901ZM140.6 224.636C140.544 224.678 140.465 224.725 140.362 224.776C140.264 224.823 140.148 224.867 140.012 224.909C139.877 224.951 139.725 224.986 139.557 225.014C139.394 225.042 139.219 225.056 139.032 225.056C138.636 225.056 138.279 224.988 137.961 224.853C137.649 224.713 137.383 224.526 137.163 224.293C136.944 224.06 136.776 223.789 136.659 223.481C136.543 223.173 136.484 222.846 136.484 222.501C136.484 222.118 136.552 221.766 136.687 221.444C136.827 221.122 137.016 220.844 137.254 220.611C137.492 220.378 137.77 220.196 138.087 220.065C138.409 219.934 138.75 219.869 139.109 219.869C139.245 219.869 139.382 219.878 139.522 219.897C139.662 219.916 139.793 219.941 139.914 219.974C140.04 220.007 140.15 220.046 140.243 220.093C140.341 220.135 140.416 220.179 140.467 220.226C140.43 220.282 140.4 220.329 140.376 220.366C140.358 220.403 140.337 220.443 140.313 220.485C140.29 220.522 140.264 220.567 140.236 220.618C140.208 220.669 140.171 220.737 140.124 220.821C140.064 220.779 139.991 220.744 139.907 220.716C139.828 220.688 139.744 220.665 139.655 220.646C139.567 220.627 139.476 220.613 139.382 220.604C139.294 220.595 139.212 220.59 139.137 220.59C138.867 220.59 138.615 220.641 138.381 220.744C138.153 220.842 137.954 220.977 137.786 221.15C137.618 221.318 137.485 221.514 137.387 221.738C137.294 221.962 137.247 222.195 137.247 222.438C137.247 222.676 137.292 222.905 137.38 223.124C137.474 223.343 137.6 223.539 137.758 223.712C137.922 223.885 138.115 224.022 138.339 224.125C138.568 224.228 138.818 224.279 139.088 224.279C139.233 224.279 139.373 224.265 139.508 224.237C139.644 224.209 139.765 224.176 139.872 224.139C139.984 224.102 140.075 224.064 140.145 224.027C140.22 223.99 140.264 223.962 140.278 223.943L140.6 224.636Z" fill="#C4C4C4"/>
<circle cx="76" cy="200" r="15" transform="rotate(-180 76 200)" fill="black"/>
<rect x="76.9375" y="200" width="2.8125" height="15" transform="rotate(-180 76.9375 200)" fill="#E5E5E5"/>
<circle cx="76" cy="248" r="15" transform="rotate(-180 76 248)" fill="black"/>
<rect x="76.9375" y="248" width="2.8125" height="15" transform="rotate(-180 76.9375 248)" fill="#E5E5E5"/>
<path d="M66.0065 220.205L65.7335 220.828C65.5422 220.758 65.3508 220.702 65.1595 220.66C64.9728 220.618 64.7932 220.597 64.6205 220.597C64.3265 220.597 64.0908 220.658 63.9135 220.779C63.7408 220.9 63.6545 221.054 63.6545 221.241C63.6545 221.4 63.7175 221.528 63.8435 221.626C63.9695 221.719 64.1258 221.806 64.3125 221.885C64.4992 221.96 64.7022 222.037 64.9215 222.116C65.1408 222.191 65.3438 222.289 65.5305 222.41C65.7172 222.531 65.8735 222.685 65.9995 222.872C66.1255 223.054 66.1885 223.29 66.1885 223.579C66.1885 223.803 66.1465 224.006 66.0625 224.188C65.9832 224.365 65.8618 224.519 65.6985 224.65C65.5398 224.781 65.3392 224.881 65.0965 224.951C64.8585 225.021 64.5785 225.056 64.2565 225.056C64.0512 225.056 63.8645 225.042 63.6965 225.014C63.5332 224.986 63.3838 224.951 63.2485 224.909C63.1178 224.862 63.0012 224.813 62.8985 224.762C62.8005 224.711 62.7165 224.664 62.6465 224.622L62.9825 223.957C63.1692 224.064 63.3768 224.151 63.6055 224.216C63.8342 224.281 64.0418 224.314 64.2285 224.314C64.3218 224.314 64.4362 224.302 64.5715 224.279C64.7115 224.256 64.8445 224.216 64.9705 224.16C65.0965 224.099 65.2038 224.02 65.2925 223.922C65.3858 223.824 65.4325 223.7 65.4325 223.551C65.4325 223.416 65.3952 223.301 65.3205 223.208C65.2505 223.11 65.1548 223.026 65.0335 222.956C64.9168 222.881 64.7815 222.816 64.6275 222.76C64.4782 222.699 64.3242 222.639 64.1655 222.578C64.0068 222.513 63.8505 222.445 63.6965 222.375C63.5472 222.305 63.4118 222.221 63.2905 222.123C63.1738 222.02 63.0782 221.904 63.0035 221.773C62.9335 221.638 62.8985 221.477 62.8985 221.29C62.8985 221.117 62.9335 220.947 63.0035 220.779C63.0735 220.611 63.1785 220.462 63.3185 220.331C63.4585 220.2 63.6312 220.095 63.8365 220.016C64.0465 219.937 64.2892 219.897 64.5645 219.897C64.7325 219.897 64.8958 219.911 65.0545 219.939C65.2178 219.967 65.3648 220 65.4955 220.037C65.6262 220.07 65.7358 220.102 65.8245 220.135C65.9178 220.168 65.9785 220.191 66.0065 220.205ZM70.8255 224.636C70.7695 224.678 70.6902 224.725 70.5875 224.776C70.4895 224.823 70.3729 224.867 70.2375 224.909C70.1022 224.951 69.9505 224.986 69.7825 225.014C69.6192 225.042 69.4442 225.056 69.2575 225.056C68.8609 225.056 68.5039 224.988 68.1865 224.853C67.8739 224.713 67.6079 224.526 67.3885 224.293C67.1692 224.06 67.0012 223.789 66.8845 223.481C66.7679 223.173 66.7095 222.846 66.7095 222.501C66.7095 222.118 66.7772 221.766 66.9125 221.444C67.0525 221.122 67.2415 220.844 67.4795 220.611C67.7175 220.378 67.9952 220.196 68.3125 220.065C68.6345 219.934 68.9752 219.869 69.3345 219.869C69.4699 219.869 69.6075 219.878 69.7475 219.897C69.8875 219.916 70.0182 219.941 70.1395 219.974C70.2655 220.007 70.3752 220.046 70.4685 220.093C70.5665 220.135 70.6412 220.179 70.6925 220.226C70.6552 220.282 70.6249 220.329 70.6015 220.366C70.5829 220.403 70.5619 220.443 70.5385 220.485C70.5152 220.522 70.4895 220.567 70.4615 220.618C70.4335 220.669 70.3962 220.737 70.3495 220.821C70.2889 220.779 70.2165 220.744 70.1325 220.716C70.0532 220.688 69.9692 220.665 69.8805 220.646C69.7919 220.627 69.7009 220.613 69.6075 220.604C69.5189 220.595 69.4372 220.59 69.3625 220.59C69.0919 220.59 68.8399 220.641 68.6065 220.744C68.3779 220.842 68.1795 220.977 68.0115 221.15C67.8435 221.318 67.7105 221.514 67.6125 221.738C67.5192 221.962 67.4725 222.195 67.4725 222.438C67.4725 222.676 67.5169 222.905 67.6055 223.124C67.6989 223.343 67.8249 223.539 67.9835 223.712C68.1469 223.885 68.3405 224.022 68.5645 224.125C68.7932 224.228 69.0429 224.279 69.3135 224.279C69.4582 224.279 69.5982 224.265 69.7335 224.237C69.8689 224.209 69.9902 224.176 70.0975 224.139C70.2095 224.102 70.3005 224.064 70.3705 224.027C70.4452 223.99 70.4895 223.962 70.5035 223.943L70.8255 224.636ZM74.6664 225C74.6431 224.949 74.6104 224.874 74.5684 224.776C74.5264 224.678 74.4774 224.566 74.4214 224.44C74.3701 224.309 74.3117 224.169 74.2464 224.02C74.1857 223.866 74.1227 223.707 74.0574 223.544H72.2654L71.6634 225H70.9074L73.1684 219.687C73.1964 219.752 73.2454 219.871 73.3154 220.044C73.3901 220.217 73.4764 220.424 73.5744 220.667C73.6771 220.905 73.7891 221.171 73.9104 221.465C74.0364 221.754 74.1624 222.048 74.2884 222.347C74.4191 222.646 74.5451 222.94 74.6664 223.229C74.7924 223.518 74.9067 223.784 75.0094 224.027C75.1121 224.27 75.1984 224.477 75.2684 224.65C75.3431 224.818 75.3944 224.935 75.4224 225H74.6664ZM72.5314 222.9H73.7984C73.7331 222.746 73.6701 222.599 73.6094 222.459C73.5534 222.314 73.4997 222.184 73.4484 222.067C73.4017 221.946 73.3597 221.841 73.3224 221.752C73.2851 221.663 73.2571 221.593 73.2384 221.542C73.2337 221.533 73.2221 221.5 73.2034 221.444C73.1894 221.388 73.1777 221.337 73.1684 221.29C73.1591 221.337 73.1451 221.388 73.1264 221.444C73.1077 221.5 73.0961 221.533 73.0914 221.542L72.5314 222.9ZM76.0556 225V219.925H76.8256V224.272H79.3456V225H76.0556ZM80.0546 225V219.925H83.3866V220.618H80.8246V222.102H83.1066V222.809H80.8246V224.293H83.4846V225H80.0546ZM86.7582 220.618V222.116H87.4442C87.6962 222.116 87.8852 222.041 88.0112 221.892C88.1372 221.743 88.2002 221.561 88.2002 221.346C88.2002 221.094 88.1232 220.91 87.9692 220.793C87.8199 220.676 87.6192 220.618 87.3672 220.618H86.7582ZM86.7582 222.767V224.307H87.4722C87.6076 224.307 87.7336 224.291 87.8502 224.258C87.9716 224.225 88.0766 224.179 88.1652 224.118C88.2539 224.053 88.3239 223.971 88.3752 223.873C88.4266 223.775 88.4522 223.661 88.4522 223.53C88.4522 223.385 88.4219 223.266 88.3612 223.173C88.3006 223.075 88.2189 222.996 88.1162 222.935C88.0182 222.874 87.9039 222.832 87.7732 222.809C87.6472 222.781 87.5166 222.767 87.3812 222.767H86.7582ZM85.9882 225V219.925H87.3322C87.5796 219.925 87.8036 219.951 88.0042 220.002C88.2049 220.049 88.3752 220.126 88.5152 220.233C88.6552 220.336 88.7626 220.471 88.8372 220.639C88.9166 220.802 88.9562 221.003 88.9562 221.241C88.9562 221.372 88.9422 221.5 88.9142 221.626C88.8909 221.752 88.8489 221.869 88.7882 221.976C88.7322 222.079 88.6552 222.17 88.5572 222.249C88.4639 222.328 88.3472 222.389 88.2072 222.431C88.3286 222.454 88.4476 222.494 88.5642 222.55C88.6856 222.606 88.7929 222.683 88.8862 222.781C88.9796 222.874 89.0542 222.991 89.1102 223.131C89.1709 223.271 89.2012 223.437 89.2012 223.628C89.2012 223.871 89.1546 224.078 89.0612 224.251C88.9679 224.424 88.8442 224.566 88.6902 224.678C88.5362 224.79 88.3589 224.872 88.1582 224.923C87.9576 224.974 87.7499 225 87.5352 225H85.9882Z" fill="#C4C4C4"/>
<path d="M16.4843 270.466H17.1773C17.364 270.466 17.5203 270.433 17.6463 270.368C17.7723 270.303 17.8703 270.223 17.9403 270.13C18.015 270.037 18.0663 269.936 18.0943 269.829C18.127 269.722 18.1433 269.626 18.1433 269.542C18.1433 269.453 18.127 269.358 18.0943 269.255C18.0663 269.148 18.015 269.05 17.9403 268.961C17.8656 268.868 17.7653 268.791 17.6393 268.73C17.518 268.669 17.3663 268.639 17.1843 268.639H16.4843V270.466ZM15.7143 273V267.925H17.1003C17.3663 267.925 17.609 267.96 17.8283 268.03C18.0523 268.1 18.2436 268.205 18.4023 268.345C18.5656 268.48 18.6916 268.648 18.7803 268.849C18.869 269.045 18.9133 269.271 18.9133 269.528C18.9133 269.729 18.883 269.929 18.8223 270.13C18.7616 270.326 18.6636 270.503 18.5283 270.662C18.393 270.816 18.2156 270.942 17.9963 271.04C17.777 271.138 17.511 271.187 17.1983 271.187H16.4843V273H15.7143ZM19.3973 270.466C19.3973 270.116 19.465 269.785 19.6003 269.472C19.7357 269.155 19.92 268.877 20.1533 268.639C20.3913 268.401 20.6667 268.214 20.9793 268.079C21.292 267.939 21.628 267.869 21.9873 267.869C22.342 267.869 22.6757 267.939 22.9883 268.079C23.3057 268.214 23.581 268.401 23.8143 268.639C24.0523 268.877 24.239 269.155 24.3743 269.472C24.5143 269.785 24.5843 270.116 24.5843 270.466C24.5843 270.825 24.5143 271.161 24.3743 271.474C24.239 271.787 24.0523 272.062 23.8143 272.3C23.581 272.533 23.3057 272.718 22.9883 272.853C22.6757 272.988 22.342 273.056 21.9873 273.056C21.628 273.056 21.292 272.988 20.9793 272.853C20.6667 272.718 20.3913 272.533 20.1533 272.3C19.92 272.062 19.7357 271.787 19.6003 271.474C19.465 271.161 19.3973 270.825 19.3973 270.466ZM20.1603 270.473C20.1603 270.73 20.207 270.972 20.3003 271.201C20.3983 271.425 20.5313 271.621 20.6993 271.789C20.8673 271.957 21.0633 272.09 21.2873 272.188C21.5113 272.286 21.7493 272.335 22.0013 272.335C22.2533 272.335 22.489 272.286 22.7083 272.188C22.9323 272.09 23.126 271.957 23.2893 271.789C23.4573 271.621 23.588 271.425 23.6813 271.201C23.7793 270.972 23.8283 270.727 23.8283 270.466C23.8283 270.209 23.7793 269.969 23.6813 269.745C23.588 269.516 23.4573 269.318 23.2893 269.15C23.1213 268.982 22.9253 268.849 22.7013 268.751C22.482 268.653 22.2463 268.604 21.9943 268.604C21.7423 268.604 21.5043 268.653 21.2803 268.751C21.0563 268.849 20.8603 268.982 20.6923 269.15C20.529 269.318 20.3983 269.516 20.3003 269.745C20.207 269.974 20.1603 270.216 20.1603 270.473ZM28.3332 268.205L28.0602 268.828C27.8688 268.758 27.6775 268.702 27.4862 268.66C27.2995 268.618 27.1198 268.597 26.9472 268.597C26.6532 268.597 26.4175 268.658 26.2402 268.779C26.0675 268.9 25.9812 269.054 25.9812 269.241C25.9812 269.4 26.0442 269.528 26.1702 269.626C26.2962 269.719 26.4525 269.806 26.6392 269.885C26.8258 269.96 27.0288 270.037 27.2482 270.116C27.4675 270.191 27.6705 270.289 27.8572 270.41C28.0438 270.531 28.2002 270.685 28.3262 270.872C28.4522 271.054 28.5152 271.29 28.5152 271.579C28.5152 271.803 28.4732 272.006 28.3892 272.188C28.3098 272.365 28.1885 272.519 28.0252 272.65C27.8665 272.781 27.6658 272.881 27.4232 272.951C27.1852 273.021 26.9052 273.056 26.5832 273.056C26.3778 273.056 26.1912 273.042 26.0232 273.014C25.8598 272.986 25.7105 272.951 25.5752 272.909C25.4445 272.862 25.3278 272.813 25.2252 272.762C25.1272 272.711 25.0432 272.664 24.9732 272.622L25.3092 271.957C25.4958 272.064 25.7035 272.151 25.9322 272.216C26.1608 272.281 26.3685 272.314 26.5552 272.314C26.6485 272.314 26.7628 272.302 26.8982 272.279C27.0382 272.256 27.1712 272.216 27.2972 272.16C27.4232 272.099 27.5305 272.02 27.6192 271.922C27.7125 271.824 27.7592 271.7 27.7592 271.551C27.7592 271.416 27.7218 271.301 27.6472 271.208C27.5772 271.11 27.4815 271.026 27.3602 270.956C27.2435 270.881 27.1082 270.816 26.9542 270.76C26.8048 270.699 26.6508 270.639 26.4922 270.578C26.3335 270.513 26.1772 270.445 26.0232 270.375C25.8738 270.305 25.7385 270.221 25.6172 270.123C25.5005 270.02 25.4048 269.904 25.3302 269.773C25.2602 269.638 25.2252 269.477 25.2252 269.29C25.2252 269.117 25.2602 268.947 25.3302 268.779C25.4002 268.611 25.5052 268.462 25.6452 268.331C25.7852 268.2 25.9578 268.095 26.1632 268.016C26.3732 267.937 26.6158 267.897 26.8912 267.897C27.0592 267.897 27.2225 267.911 27.3812 267.939C27.5445 267.967 27.6915 268 27.8222 268.037C27.9528 268.07 28.0625 268.102 28.1512 268.135C28.2445 268.168 28.3052 268.191 28.3332 268.205ZM34.1425 273C34.1191 272.949 34.0865 272.874 34.0445 272.776C34.0025 272.678 33.9535 272.566 33.8975 272.44C33.8461 272.309 33.7878 272.169 33.7225 272.02C33.6618 271.866 33.5988 271.707 33.5335 271.544H31.7415L31.1395 273H30.3835L32.6445 267.687C32.6725 267.752 32.7215 267.871 32.7915 268.044C32.8661 268.217 32.9525 268.424 33.0505 268.667C33.1531 268.905 33.2651 269.171 33.3865 269.465C33.5125 269.754 33.6385 270.048 33.7645 270.347C33.8951 270.646 34.0211 270.94 34.1425 271.229C34.2685 271.518 34.3828 271.784 34.4855 272.027C34.5881 272.27 34.6745 272.477 34.7445 272.65C34.8191 272.818 34.8705 272.935 34.8985 273H34.1425ZM32.0075 270.9H33.2745C33.2091 270.746 33.1461 270.599 33.0855 270.459C33.0295 270.314 32.9758 270.184 32.9245 270.067C32.8778 269.946 32.8358 269.841 32.7985 269.752C32.7611 269.663 32.7331 269.593 32.7145 269.542C32.7098 269.533 32.6981 269.5 32.6795 269.444C32.6655 269.388 32.6538 269.337 32.6445 269.29C32.6351 269.337 32.6211 269.388 32.6025 269.444C32.5838 269.5 32.5721 269.533 32.5675 269.542L32.0075 270.9Z" fill="#C4C4C4"/>
<path d="M118.518 270.466H119.211C119.398 270.466 119.554 270.433 119.68 270.368C119.806 270.303 119.904 270.223 119.974 270.13C120.049 270.037 120.1 269.936 120.128 269.829C120.161 269.722 120.177 269.626 120.177 269.542C120.177 269.453 120.161 269.358 120.128 269.255C120.1 269.148 120.049 269.05 119.974 268.961C119.9 268.868 119.799 268.791 119.673 268.73C119.552 268.669 119.4 268.639 119.218 268.639H118.518V270.466ZM117.748 273V267.925H119.134C119.4 267.925 119.643 267.96 119.862 268.03C120.086 268.1 120.278 268.205 120.436 268.345C120.6 268.48 120.726 268.648 120.814 268.849C120.903 269.045 120.947 269.271 120.947 269.528C120.947 269.729 120.917 269.929 120.856 270.13C120.796 270.326 120.698 270.503 120.562 270.662C120.427 270.816 120.25 270.942 120.03 271.04C119.811 271.138 119.545 271.187 119.232 271.187H118.518V273H117.748ZM121.432 270.466C121.432 270.116 121.499 269.785 121.635 269.472C121.77 269.155 121.954 268.877 122.188 268.639C122.426 268.401 122.701 268.214 123.014 268.079C123.326 267.939 123.662 267.869 124.022 267.869C124.376 267.869 124.71 267.939 125.023 268.079C125.34 268.214 125.615 268.401 125.849 268.639C126.087 268.877 126.273 269.155 126.409 269.472C126.549 269.785 126.619 270.116 126.619 270.466C126.619 270.825 126.549 271.161 126.409 271.474C126.273 271.787 126.087 272.062 125.849 272.3C125.615 272.533 125.34 272.718 125.023 272.853C124.71 272.988 124.376 273.056 124.022 273.056C123.662 273.056 123.326 272.988 123.014 272.853C122.701 272.718 122.426 272.533 122.188 272.3C121.954 272.062 121.77 271.787 121.635 271.474C121.499 271.161 121.432 270.825 121.432 270.466ZM122.195 270.473C122.195 270.73 122.241 270.972 122.335 271.201C122.433 271.425 122.566 271.621 122.734 271.789C122.902 271.957 123.098 272.09 123.322 272.188C123.546 272.286 123.784 272.335 124.036 272.335C124.288 272.335 124.523 272.286 124.743 272.188C124.967 272.09 125.16 271.957 125.324 271.789C125.492 271.621 125.622 271.425 125.716 271.201C125.814 270.972 125.863 270.727 125.863 270.466C125.863 270.209 125.814 269.969 125.716 269.745C125.622 269.516 125.492 269.318 125.324 269.15C125.156 268.982 124.96 268.849 124.736 268.751C124.516 268.653 124.281 268.604 124.029 268.604C123.777 268.604 123.539 268.653 123.315 268.751C123.091 268.849 122.895 268.982 122.727 269.15C122.563 269.318 122.433 269.516 122.335 269.745C122.241 269.974 122.195 270.216 122.195 270.473ZM130.367 268.205L130.094 268.828C129.903 268.758 129.712 268.702 129.52 268.66C129.334 268.618 129.154 268.597 128.981 268.597C128.687 268.597 128.452 268.658 128.274 268.779C128.102 268.9 128.015 269.054 128.015 269.241C128.015 269.4 128.078 269.528 128.204 269.626C128.33 269.719 128.487 269.806 128.673 269.885C128.86 269.96 129.063 270.037 129.282 270.116C129.502 270.191 129.705 270.289 129.891 270.41C130.078 270.531 130.234 270.685 130.36 270.872C130.486 271.054 130.549 271.29 130.549 271.579C130.549 271.803 130.507 272.006 130.423 272.188C130.344 272.365 130.223 272.519 130.059 272.65C129.901 272.781 129.7 272.881 129.457 272.951C129.219 273.021 128.939 273.056 128.617 273.056C128.412 273.056 128.225 273.042 128.057 273.014C127.894 272.986 127.745 272.951 127.609 272.909C127.479 272.862 127.362 272.813 127.259 272.762C127.161 272.711 127.077 272.664 127.007 272.622L127.343 271.957C127.53 272.064 127.738 272.151 127.966 272.216C128.195 272.281 128.403 272.314 128.589 272.314C128.683 272.314 128.797 272.302 128.932 272.279C129.072 272.256 129.205 272.216 129.331 272.16C129.457 272.099 129.565 272.02 129.653 271.922C129.747 271.824 129.793 271.7 129.793 271.551C129.793 271.416 129.756 271.301 129.681 271.208C129.611 271.11 129.516 271.026 129.394 270.956C129.278 270.881 129.142 270.816 128.988 270.76C128.839 270.699 128.685 270.639 128.526 270.578C128.368 270.513 128.211 270.445 128.057 270.375C127.908 270.305 127.773 270.221 127.651 270.123C127.535 270.02 127.439 269.904 127.364 269.773C127.294 269.638 127.259 269.477 127.259 269.29C127.259 269.117 127.294 268.947 127.364 268.779C127.434 268.611 127.539 268.462 127.679 268.331C127.819 268.2 127.992 268.095 128.197 268.016C128.407 267.937 128.65 267.897 128.925 267.897C129.093 267.897 129.257 267.911 129.415 267.939C129.579 267.967 129.726 268 129.856 268.037C129.987 268.07 130.097 268.102 130.185 268.135C130.279 268.168 130.339 268.191 130.367 268.205ZM136.8 272.636C136.744 272.678 136.664 272.725 136.562 272.776C136.464 272.823 136.347 272.867 136.212 272.909C136.076 272.951 135.925 272.986 135.757 273.014C135.593 273.042 135.418 273.056 135.232 273.056C134.835 273.056 134.478 272.988 134.161 272.853C133.848 272.713 133.582 272.526 133.363 272.293C133.143 272.06 132.975 271.789 132.859 271.481C132.742 271.173 132.684 270.846 132.684 270.501C132.684 270.118 132.751 269.766 132.887 269.444C133.027 269.122 133.216 268.844 133.454 268.611C133.692 268.378 133.969 268.196 134.287 268.065C134.609 267.934 134.949 267.869 135.309 267.869C135.444 267.869 135.582 267.878 135.722 267.897C135.862 267.916 135.992 267.941 136.114 267.974C136.24 268.007 136.349 268.046 136.443 268.093C136.541 268.135 136.615 268.179 136.667 268.226C136.629 268.282 136.599 268.329 136.576 268.366C136.557 268.403 136.536 268.443 136.513 268.485C136.489 268.522 136.464 268.567 136.436 268.618C136.408 268.669 136.37 268.737 136.324 268.821C136.263 268.779 136.191 268.744 136.107 268.716C136.027 268.688 135.943 268.665 135.855 268.646C135.766 268.627 135.675 268.613 135.582 268.604C135.493 268.595 135.411 268.59 135.337 268.59C135.066 268.59 134.814 268.641 134.581 268.744C134.352 268.842 134.154 268.977 133.986 269.15C133.818 269.318 133.685 269.514 133.587 269.738C133.493 269.962 133.447 270.195 133.447 270.438C133.447 270.676 133.491 270.905 133.58 271.124C133.673 271.343 133.799 271.539 133.958 271.712C134.121 271.885 134.315 272.022 134.539 272.125C134.767 272.228 135.017 272.279 135.288 272.279C135.432 272.279 135.572 272.265 135.708 272.237C135.843 272.209 135.964 272.176 136.072 272.139C136.184 272.102 136.275 272.064 136.345 272.027C136.419 271.99 136.464 271.962 136.478 271.943L136.8 272.636Z" fill="#C4C4C4"/>
<path d="M67.6723 270.466H68.3653C68.552 270.466 68.7083 270.433 68.8343 270.368C68.9603 270.303 69.0583 270.223 69.1283 270.13C69.203 270.037 69.2543 269.936 69.2823 269.829C69.315 269.722 69.3313 269.626 69.3313 269.542C69.3313 269.453 69.315 269.358 69.2823 269.255C69.2543 269.148 69.203 269.05 69.1283 268.961C69.0536 268.868 68.9533 268.791 68.8273 268.73C68.706 268.669 68.5543 268.639 68.3723 268.639H67.6723V270.466ZM66.9023 273V267.925H68.2883C68.5543 267.925 68.797 267.96 69.0163 268.03C69.2403 268.1 69.4316 268.205 69.5903 268.345C69.7536 268.48 69.8796 268.648 69.9683 268.849C70.057 269.045 70.1013 269.271 70.1013 269.528C70.1013 269.729 70.071 269.929 70.0103 270.13C69.9496 270.326 69.8516 270.503 69.7163 270.662C69.581 270.816 69.4036 270.942 69.1843 271.04C68.965 271.138 68.699 271.187 68.3863 271.187H67.6723V273H66.9023ZM70.5853 270.466C70.5853 270.116 70.653 269.785 70.7883 269.472C70.9237 269.155 71.108 268.877 71.3413 268.639C71.5793 268.401 71.8547 268.214 72.1673 268.079C72.48 267.939 72.816 267.869 73.1753 267.869C73.53 267.869 73.8637 267.939 74.1763 268.079C74.4937 268.214 74.769 268.401 75.0023 268.639C75.2403 268.877 75.427 269.155 75.5623 269.472C75.7023 269.785 75.7723 270.116 75.7723 270.466C75.7723 270.825 75.7023 271.161 75.5623 271.474C75.427 271.787 75.2403 272.062 75.0023 272.3C74.769 272.533 74.4937 272.718 74.1763 272.853C73.8637 272.988 73.53 273.056 73.1753 273.056C72.816 273.056 72.48 272.988 72.1673 272.853C71.8547 272.718 71.5793 272.533 71.3413 272.3C71.108 272.062 70.9237 271.787 70.7883 271.474C70.653 271.161 70.5853 270.825 70.5853 270.466ZM71.3483 270.473C71.3483 270.73 71.395 270.972 71.4883 271.201C71.5863 271.425 71.7193 271.621 71.8873 271.789C72.0553 271.957 72.2513 272.09 72.4753 272.188C72.6993 272.286 72.9373 272.335 73.1893 272.335C73.4413 272.335 73.677 272.286 73.8963 272.188C74.1203 272.09 74.314 271.957 74.4773 271.789C74.6453 271.621 74.776 271.425 74.8693 271.201C74.9673 270.972 75.0163 270.727 75.0163 270.466C75.0163 270.209 74.9673 269.969 74.8693 269.745C74.776 269.516 74.6453 269.318 74.4773 269.15C74.3093 268.982 74.1133 268.849 73.8893 268.751C73.67 268.653 73.4343 268.604 73.1823 268.604C72.9303 268.604 72.6923 268.653 72.4683 268.751C72.2443 268.849 72.0483 268.982 71.8803 269.15C71.717 269.318 71.5863 269.516 71.4883 269.745C71.395 269.974 71.3483 270.216 71.3483 270.473ZM79.5212 268.205L79.2482 268.828C79.0568 268.758 78.8655 268.702 78.6742 268.66C78.4875 268.618 78.3078 268.597 78.1352 268.597C77.8412 268.597 77.6055 268.658 77.4282 268.779C77.2555 268.9 77.1692 269.054 77.1692 269.241C77.1692 269.4 77.2322 269.528 77.3582 269.626C77.4842 269.719 77.6405 269.806 77.8272 269.885C78.0138 269.96 78.2168 270.037 78.4362 270.116C78.6555 270.191 78.8585 270.289 79.0452 270.41C79.2318 270.531 79.3882 270.685 79.5142 270.872C79.6402 271.054 79.7032 271.29 79.7032 271.579C79.7032 271.803 79.6612 272.006 79.5772 272.188C79.4978 272.365 79.3765 272.519 79.2132 272.65C79.0545 272.781 78.8538 272.881 78.6112 272.951C78.3732 273.021 78.0932 273.056 77.7712 273.056C77.5658 273.056 77.3792 273.042 77.2112 273.014C77.0478 272.986 76.8985 272.951 76.7632 272.909C76.6325 272.862 76.5158 272.813 76.4132 272.762C76.3152 272.711 76.2312 272.664 76.1612 272.622L76.4972 271.957C76.6838 272.064 76.8915 272.151 77.1202 272.216C77.3488 272.281 77.5565 272.314 77.7432 272.314C77.8365 272.314 77.9508 272.302 78.0862 272.279C78.2262 272.256 78.3592 272.216 78.4852 272.16C78.6112 272.099 78.7185 272.02 78.8072 271.922C78.9005 271.824 78.9472 271.7 78.9472 271.551C78.9472 271.416 78.9098 271.301 78.8352 271.208C78.7652 271.11 78.6695 271.026 78.5482 270.956C78.4315 270.881 78.2962 270.816 78.1422 270.76C77.9928 270.699 77.8388 270.639 77.6802 270.578C77.5215 270.513 77.3652 270.445 77.2112 270.375C77.0618 270.305 76.9265 270.221 76.8052 270.123C76.6885 270.02 76.5928 269.904 76.5182 269.773C76.4482 269.638 76.4132 269.477 76.4132 269.29C76.4132 269.117 76.4482 268.947 76.5182 268.779C76.5882 268.611 76.6932 268.462 76.8332 268.331C76.9732 268.2 77.1458 268.095 77.3512 268.016C77.5612 267.937 77.8038 267.897 78.0792 267.897C78.2472 267.897 78.4105 267.911 78.5692 267.939C78.7325 267.967 78.8795 268 79.0102 268.037C79.1408 268.07 79.2505 268.102 79.3392 268.135C79.4325 268.168 79.4932 268.191 79.5212 268.205ZM82.9575 268.618V270.116H83.6435C83.8955 270.116 84.0845 270.041 84.2105 269.892C84.3365 269.743 84.3995 269.561 84.3995 269.346C84.3995 269.094 84.3225 268.91 84.1685 268.793C84.0191 268.676 83.8185 268.618 83.5665 268.618H82.9575ZM82.9575 270.767V272.307H83.6715C83.8068 272.307 83.9328 272.291 84.0495 272.258C84.1708 272.225 84.2758 272.179 84.3645 272.118C84.4531 272.053 84.5231 271.971 84.5745 271.873C84.6258 271.775 84.6515 271.661 84.6515 271.53C84.6515 271.385 84.6211 271.266 84.5605 271.173C84.4998 271.075 84.4181 270.996 84.3155 270.935C84.2175 270.874 84.1031 270.832 83.9725 270.809C83.8465 270.781 83.7158 270.767 83.5805 270.767H82.9575ZM82.1875 273V267.925H83.5315C83.7788 267.925 84.0028 267.951 84.2035 268.002C84.4041 268.049 84.5745 268.126 84.7145 268.233C84.8545 268.336 84.9618 268.471 85.0365 268.639C85.1158 268.802 85.1555 269.003 85.1555 269.241C85.1555 269.372 85.1415 269.5 85.1135 269.626C85.0901 269.752 85.0481 269.869 84.9875 269.976C84.9315 270.079 84.8545 270.17 84.7565 270.249C84.6631 270.328 84.5465 270.389 84.4065 270.431C84.5278 270.454 84.6468 270.494 84.7635 270.55C84.8848 270.606 84.9921 270.683 85.0855 270.781C85.1788 270.874 85.2535 270.991 85.3095 271.131C85.3701 271.271 85.4005 271.437 85.4005 271.628C85.4005 271.871 85.3538 272.078 85.2605 272.251C85.1671 272.424 85.0435 272.566 84.8895 272.678C84.7355 272.79 84.5581 272.872 84.3575 272.923C84.1568 272.974 83.9491 273 83.7345 273H82.1875Z" fill="#C4C4C4"/>
</svg>
