<svg width="153" height="386" viewBox="0 0 153 386" fill="none" xmlns="http://www.w3.org/2000/svg">
<rect x="0.5" y="0.5" width="151.4" height="384.5" fill="#333333" stroke="#222222"/>
<mask id="mask0" mask-type="alpha" maskUnits="userSpaceOnUse" x="4" y="187" width="42" height="42">
<circle cx="25" cy="208" r="21" fill="#C4C4C4"/>
</mask>
<g mask="url(#mask0)">
<line x1="1.64645" y1="231.646" x2="48.4926" y2="184.8" stroke="#C6C6C6"/>
<line x1="2.35662" y1="184.65" x2="48.3951" y2="231.496" stroke="#C6C6C6"/>
<line x1="1" y1="208.5" x2="49.4615" y2="208.5" stroke="#C6C6C6"/>
<line x1="24.5" y1="206" x2="24.5" y2="182.577" stroke="#C6C6C6"/>
</g>
<circle cx="25" cy="208" r="18" transform="rotate(-180 25 208)" fill="#222222"/>
<circle cx="25" cy="208" r="16" transform="rotate(-180 25 208)" fill="black"/>
<rect x="26" y="208" width="3" height="16" transform="rotate(-180 26 208)" fill="#E5E5E5"/>
<mask id="mask1" mask-type="alpha" maskUnits="userSpaceOnUse" x="4" y="235" width="42" height="42">
<circle cx="25" cy="256" r="21" fill="#C4C4C4"/>
</mask>
<g mask="url(#mask1)">
<line x1="1.64645" y1="279.646" x2="48.4926" y2="232.8" stroke="#C6C6C6"/>
<line x1="2.35662" y1="232.65" x2="48.3951" y2="279.496" stroke="#C6C6C6"/>
<line x1="1" y1="256.5" x2="49.4615" y2="256.5" stroke="#C6C6C6"/>
<line x1="24.5" y1="254" x2="24.5" y2="230.577" stroke="#C6C6C6"/>
</g>
<circle cx="25" cy="256" r="18" transform="rotate(-180 25 256)" fill="#222222"/>
<circle cx="25" cy="256" r="16" transform="rotate(-180 25 256)" fill="black"/>
<rect x="26" y="256" width="3" height="16" transform="rotate(-180 26 256)" fill="#E5E5E5"/>
<mask id="mask2" mask-type="alpha" maskUnits="userSpaceOnUse" x="55" y="235" width="42" height="42">
<circle cx="76" cy="256" r="21" fill="#C4C4C4"/>
</mask>
<g mask="url(#mask2)">
<line x1="52.6464" y1="279.646" x2="99.4926" y2="232.8" stroke="#C6C6C6"/>
<line x1="53.3566" y1="232.65" x2="99.3951" y2="279.496" stroke="#C6C6C6"/>
<line x1="52" y1="256.5" x2="100.462" y2="256.5" stroke="#C6C6C6"/>
<line x1="75.5" y1="254" x2="75.5" y2="230.577" stroke="#C6C6C6"/>
</g>
<circle cx="76" cy="256" r="18" transform="rotate(-180 76 256)" fill="#222222"/>
<circle cx="76" cy="256" r="16" transform="rotate(-180 76 256)" fill="black"/>
<rect x="77" y="256" width="3" height="16" transform="rotate(-180 77 256)" fill="#E5E5E5"/>
<mask id="mask3" mask-type="alpha" maskUnits="userSpaceOnUse" x="106" y="235" width="42" height="42">
<circle cx="127" cy="256" r="21" fill="#C4C4C4"/>
</mask>
<g mask="url(#mask3)">
<line x1="103.646" y1="279.646" x2="150.493" y2="232.8" stroke="#C6C6C6"/>
<line x1="104.357" y1="232.65" x2="150.395" y2="279.496" stroke="#C6C6C6"/>
<line x1="103" y1="256.5" x2="151.462" y2="256.5" stroke="#C6C6C6"/>
<line x1="126.5" y1="254" x2="126.5" y2="230.577" stroke="#C6C6C6"/>
</g>
<circle cx="127" cy="256" r="18" transform="rotate(-180 127 256)" fill="#222222"/>
<circle cx="127" cy="256" r="16" transform="rotate(-180 127 256)" fill="black"/>
<rect x="128" y="256" width="3" height="16" transform="rotate(-180 128 256)" fill="#E5E5E5"/>
<mask id="mask4" mask-type="alpha" maskUnits="userSpaceOnUse" x="55" y="187" width="42" height="42">
<circle cx="76" cy="208" r="21" fill="#C4C4C4"/>
</mask>
<g mask="url(#mask4)">
<line x1="52.6464" y1="231.646" x2="99.4926" y2="184.8" stroke="#C6C6C6"/>
<line x1="53.3566" y1="184.65" x2="99.3951" y2="231.496" stroke="#C6C6C6"/>
<line x1="52" y1="208.5" x2="100.462" y2="208.5" stroke="#C6C6C6"/>
<line x1="75.5" y1="206" x2="75.5" y2="182.577" stroke="#C6C6C6"/>
</g>
<circle cx="76" cy="208" r="18" transform="rotate(-180 76 208)" fill="#222222"/>
<circle cx="76" cy="208" r="16" transform="rotate(-180 76 208)" fill="black"/>
<rect x="77" y="208" width="3" height="16" transform="rotate(-180 77 208)" fill="#E5E5E5"/>
<mask id="mask5" mask-type="alpha" maskUnits="userSpaceOnUse" x="106" y="187" width="42" height="42">
<circle cx="127" cy="208" r="21" fill="#C4C4C4"/>
</mask>
<g mask="url(#mask5)">
<line x1="103.646" y1="231.646" x2="150.493" y2="184.8" stroke="#C6C6C6"/>
<line x1="104.357" y1="184.65" x2="150.395" y2="231.496" stroke="#C6C6C6"/>
<line x1="103" y1="208.5" x2="151.462" y2="208.5" stroke="#C6C6C6"/>
<line x1="126.5" y1="206" x2="126.5" y2="182.577" stroke="#C6C6C6"/>
</g>
<circle cx="127" cy="208" r="18" transform="rotate(-180 127 208)" fill="#222222"/>
<circle cx="127" cy="208" r="16" transform="rotate(-180 127 208)" fill="black"/>
<rect x="128" y="208" width="3" height="16" transform="rotate(-180 128 208)" fill="#E5E5E5"/>
<path d="M62.1764 376V371.65H63.3644C63.5924 371.65 63.8004 371.68 63.9884 371.74C64.1804 371.8 64.3444 371.89 64.4804 372.01C64.6204 372.126 64.7284 372.27 64.8044 372.442C64.8804 372.61 64.9184 372.804 64.9184 373.024C64.9184 373.144 64.9064 373.264 64.8824 373.384C64.8584 373.5 64.8184 373.614 64.7624 373.726C64.7104 373.834 64.6424 373.936 64.5584 374.032C64.4744 374.124 64.3724 374.202 64.2524 374.266C64.4124 374.518 64.5864 374.798 64.7744 375.106C64.9624 375.41 65.1524 375.708 65.3444 376H64.5584C64.4784 375.876 64.3944 375.746 64.3064 375.61C64.2224 375.474 64.1364 375.34 64.0484 375.208C63.9644 375.072 63.8804 374.94 63.7964 374.812C63.7164 374.68 63.6404 374.558 63.5684 374.446H63.4484H62.8364V376H62.1764ZM62.8364 373.828H63.4304C63.5904 373.828 63.7244 373.802 63.8324 373.75C63.9404 373.694 64.0244 373.626 64.0844 373.546C64.1484 373.466 64.1924 373.38 64.2164 373.288C64.2444 373.196 64.2584 373.112 64.2584 373.036C64.2584 372.96 64.2444 372.878 64.2164 372.79C64.1924 372.698 64.1484 372.614 64.0844 372.538C64.0204 372.458 63.9344 372.392 63.8264 372.34C63.7224 372.288 63.5924 372.262 63.4364 372.262H62.8364V373.828ZM68.638 376C68.618 375.956 68.59 375.892 68.554 375.808C68.518 375.724 68.476 375.628 68.428 375.52C68.384 375.408 68.334 375.288 68.278 375.16C68.226 375.028 68.172 374.892 68.116 374.752H66.58L66.064 376H65.416L67.354 371.446C67.378 371.502 67.42 371.604 67.48 371.752C67.544 371.9 67.618 372.078 67.702 372.286C67.79 372.49 67.886 372.718 67.99 372.97C68.098 373.218 68.206 373.47 68.314 373.726C68.426 373.982 68.534 374.234 68.638 374.482C68.746 374.73 68.844 374.958 68.932 375.166C69.02 375.374 69.094 375.552 69.154 375.7C69.218 375.844 69.262 375.944 69.286 376H68.638ZM66.808 374.2H67.894C67.838 374.068 67.784 373.942 67.732 373.822C67.684 373.698 67.638 373.586 67.594 373.486C67.554 373.382 67.518 373.292 67.486 373.216C67.454 373.14 67.43 373.08 67.414 373.036C67.41 373.028 67.4 373 67.384 372.952C67.372 372.904 67.362 372.86 67.354 372.82C67.346 372.86 67.334 372.904 67.318 372.952C67.302 373 67.292 373.028 67.288 373.036L66.808 374.2ZM72.8927 375.688C72.8447 375.724 72.7767 375.764 72.6887 375.808C72.6047 375.848 72.5047 375.886 72.3887 375.922C72.2727 375.958 72.1427 375.988 71.9987 376.012C71.8587 376.036 71.7087 376.048 71.5487 376.048C71.2087 376.048 70.9027 375.99 70.6307 375.874C70.3627 375.754 70.1347 375.594 69.9467 375.394C69.7587 375.194 69.6147 374.962 69.5147 374.698C69.4147 374.434 69.3647 374.154 69.3647 373.858C69.3647 373.53 69.4227 373.228 69.5387 372.952C69.6587 372.676 69.8207 372.438 70.0247 372.238C70.2287 372.038 70.4667 371.882 70.7387 371.77C71.0147 371.658 71.3067 371.602 71.6147 371.602C71.7307 371.602 71.8487 371.61 71.9687 371.626C72.0887 371.642 72.2007 371.664 72.3047 371.692C72.4127 371.72 72.5067 371.754 72.5867 371.794C72.6707 371.83 72.7347 371.868 72.7787 371.908C72.7467 371.956 72.7207 371.996 72.7007 372.028C72.6847 372.06 72.6667 372.094 72.6467 372.13C72.6267 372.162 72.6047 372.2 72.5807 372.244C72.5567 372.288 72.5247 372.346 72.4847 372.418C72.4327 372.382 72.3707 372.352 72.2987 372.328C72.2307 372.304 72.1587 372.284 72.0827 372.268C72.0067 372.252 71.9287 372.24 71.8487 372.232C71.7727 372.224 71.7027 372.22 71.6387 372.22C71.4067 372.22 71.1907 372.264 70.9907 372.352C70.7947 372.436 70.6247 372.552 70.4807 372.7C70.3367 372.844 70.2227 373.012 70.1387 373.204C70.0587 373.396 70.0187 373.596 70.0187 373.804C70.0187 374.008 70.0567 374.204 70.1327 374.392C70.2127 374.58 70.3207 374.748 70.4567 374.896C70.5967 375.044 70.7627 375.162 70.9547 375.25C71.1507 375.338 71.3647 375.382 71.5967 375.382C71.7207 375.382 71.8407 375.37 71.9567 375.346C72.0727 375.322 72.1767 375.294 72.2687 375.262C72.3647 375.23 72.4427 375.198 72.5027 375.166C72.5667 375.134 72.6047 375.11 72.6167 375.094L72.8927 375.688ZM76.0708 376C75.9308 375.82 75.7968 375.648 75.6688 375.484C75.5408 375.32 75.4148 375.156 75.2908 374.992C75.1668 374.828 75.0408 374.662 74.9128 374.494C74.7888 374.326 74.6568 374.152 74.5168 373.972C74.4648 374.028 74.4148 374.08 74.3668 374.128C74.3188 374.172 74.2668 374.218 74.2108 374.266C74.2108 374.574 74.2108 374.864 74.2108 375.136C74.2148 375.404 74.2168 375.692 74.2168 376H73.4908V371.65H74.2168V373.276C74.2168 373.312 74.2128 373.348 74.2048 373.384C74.2008 373.416 74.1988 373.45 74.1988 373.486C74.2188 373.458 74.2388 373.434 74.2588 373.414C74.2788 373.39 74.2988 373.362 74.3188 373.33C74.6028 373.062 74.8768 372.784 75.1408 372.496C75.4048 372.204 75.6788 371.922 75.9628 371.65H76.7968C76.4968 371.962 76.1988 372.276 75.9028 372.592C75.6108 372.908 75.3148 373.222 75.0148 373.534C75.1828 373.75 75.3428 373.96 75.4948 374.164C75.6508 374.364 75.8028 374.564 75.9508 374.764C76.1028 374.964 76.2548 375.166 76.4068 375.37C76.5588 375.574 76.7168 375.784 76.8808 376H76.0708ZM77.3756 376V371.65H78.0356V375.376H80.1956V376H77.3756ZM80.8033 376V371.65H83.6593V372.244H81.4633V373.516H83.4193V374.122H81.4633V375.394H83.7433V376H80.8033ZM86.9965 371.89L86.7625 372.424C86.5985 372.364 86.4345 372.316 86.2705 372.28C86.1105 372.244 85.9565 372.226 85.8085 372.226C85.5565 372.226 85.3545 372.278 85.2025 372.382C85.0545 372.486 84.9805 372.618 84.9805 372.778C84.9805 372.914 85.0345 373.024 85.1425 373.108C85.2505 373.188 85.3845 373.262 85.5445 373.33C85.7045 373.394 85.8785 373.46 86.0665 373.528C86.2545 373.592 86.4285 373.676 86.5885 373.78C86.7485 373.884 86.8825 374.016 86.9905 374.176C87.0985 374.332 87.1525 374.534 87.1525 374.782C87.1525 374.974 87.1165 375.148 87.0445 375.304C86.9765 375.456 86.8725 375.588 86.7325 375.7C86.5965 375.812 86.4245 375.898 86.2165 375.958C86.0125 376.018 85.7725 376.048 85.4965 376.048C85.3205 376.048 85.1605 376.036 85.0165 376.012C84.8765 375.988 84.7485 375.958 84.6325 375.922C84.5205 375.882 84.4205 375.84 84.3325 375.796C84.2485 375.752 84.1765 375.712 84.1165 375.676L84.4045 375.106C84.5645 375.198 84.7425 375.272 84.9385 375.328C85.1345 375.384 85.3125 375.412 85.4725 375.412C85.5525 375.412 85.6505 375.402 85.7665 375.382C85.8865 375.362 86.0005 375.328 86.1085 375.28C86.2165 375.228 86.3085 375.16 86.3845 375.076C86.4645 374.992 86.5045 374.886 86.5045 374.758C86.5045 374.642 86.4725 374.544 86.4085 374.464C86.3485 374.38 86.2665 374.308 86.1625 374.248C86.0625 374.184 85.9465 374.128 85.8145 374.08C85.6865 374.028 85.5545 373.976 85.4185 373.924C85.2825 373.868 85.1485 373.81 85.0165 373.75C84.8885 373.69 84.7725 373.618 84.6685 373.534C84.5685 373.446 84.4865 373.346 84.4225 373.234C84.3625 373.118 84.3325 372.98 84.3325 372.82C84.3325 372.672 84.3625 372.526 84.4225 372.382C84.4825 372.238 84.5725 372.11 84.6925 371.998C84.8125 371.886 84.9605 371.796 85.1365 371.728C85.3165 371.66 85.5245 371.626 85.7605 371.626C85.9045 371.626 86.0445 371.638 86.1805 371.662C86.3205 371.686 86.4465 371.714 86.5585 371.746C86.6705 371.774 86.7645 371.802 86.8405 371.83C86.9205 371.858 86.9725 371.878 86.9965 371.89ZM90.389 371.89L90.155 372.424C89.991 372.364 89.827 372.316 89.663 372.28C89.503 372.244 89.349 372.226 89.201 372.226C88.949 372.226 88.747 372.278 88.595 372.382C88.447 372.486 88.373 372.618 88.373 372.778C88.373 372.914 88.427 373.024 88.535 373.108C88.643 373.188 88.777 373.262 88.937 373.33C89.097 373.394 89.271 373.46 89.459 373.528C89.647 373.592 89.821 373.676 89.981 373.78C90.141 373.884 90.275 374.016 90.383 374.176C90.491 374.332 90.545 374.534 90.545 374.782C90.545 374.974 90.509 375.148 90.437 375.304C90.369 375.456 90.265 375.588 90.125 375.7C89.989 375.812 89.817 375.898 89.609 375.958C89.405 376.018 89.165 376.048 88.889 376.048C88.713 376.048 88.553 376.036 88.409 376.012C88.269 375.988 88.141 375.958 88.025 375.922C87.913 375.882 87.813 375.84 87.725 375.796C87.641 375.752 87.569 375.712 87.509 375.676L87.797 375.106C87.957 375.198 88.135 375.272 88.331 375.328C88.527 375.384 88.705 375.412 88.865 375.412C88.945 375.412 89.043 375.402 89.159 375.382C89.279 375.362 89.393 375.328 89.501 375.28C89.609 375.228 89.701 375.16 89.777 375.076C89.857 374.992 89.897 374.886 89.897 374.758C89.897 374.642 89.865 374.544 89.801 374.464C89.741 374.38 89.659 374.308 89.555 374.248C89.455 374.184 89.339 374.128 89.207 374.08C89.079 374.028 88.947 373.976 88.811 373.924C88.675 373.868 88.541 373.81 88.409 373.75C88.281 373.69 88.165 373.618 88.061 373.534C87.961 373.446 87.879 373.346 87.815 373.234C87.755 373.118 87.725 372.98 87.725 372.82C87.725 372.672 87.755 372.526 87.815 372.382C87.875 372.238 87.965 372.11 88.085 371.998C88.205 371.886 88.353 371.796 88.529 371.728C88.709 371.66 88.917 371.626 89.153 371.626C89.297 371.626 89.437 371.638 89.573 371.662C89.713 371.686 89.839 371.714 89.951 371.746C90.063 371.774 90.157 371.802 90.233 371.83C90.313 371.858 90.365 371.878 90.389 371.89Z" fill="#C4C4C4"/>
<path d="M43.1172 17.742C43.1172 17.292 43.2042 16.866 43.3782 16.464C43.5522 16.056 43.7892 15.699 44.0892 15.393C44.3952 15.087 44.7492 14.847 45.1512 14.673C45.5532 14.493 45.9852 14.403 46.4472 14.403C46.9032 14.403 47.3322 14.493 47.7342 14.673C48.1422 14.847 48.4962 15.087 48.7962 15.393C49.1022 15.699 49.3422 16.056 49.5162 16.464C49.6962 16.866 49.7862 17.292 49.7862 17.742C49.7862 18.204 49.6962 18.636 49.5162 19.038C49.3422 19.44 49.1022 19.794 48.7962 20.1C48.4962 20.4 48.1422 20.637 47.7342 20.811C47.3322 20.985 46.9032 21.072 46.4472 21.072C45.9852 21.072 45.5532 20.985 45.1512 20.811C44.7492 20.637 44.3952 20.4 44.0892 20.1C43.7892 19.794 43.5522 19.44 43.3782 19.038C43.2042 18.636 43.1172 18.204 43.1172 17.742ZM44.0982 17.751C44.0982 18.081 44.1582 18.393 44.2782 18.687C44.4042 18.975 44.5752 19.227 44.7912 19.443C45.0072 19.659 45.2592 19.83 45.5472 19.956C45.8352 20.082 46.1412 20.145 46.4652 20.145C46.7892 20.145 47.0922 20.082 47.3742 19.956C47.6622 19.83 47.9112 19.659 48.1212 19.443C48.3372 19.227 48.5052 18.975 48.6252 18.687C48.7512 18.393 48.8142 18.078 48.8142 17.742C48.8142 17.412 48.7512 17.103 48.6252 16.815C48.5052 16.521 48.3372 16.266 48.1212 16.05C47.9052 15.834 47.6532 15.663 47.3652 15.537C47.0832 15.411 46.7802 15.348 46.4562 15.348C46.1322 15.348 45.8262 15.411 45.5382 15.537C45.2502 15.663 44.9982 15.834 44.7822 16.05C44.5722 16.266 44.4042 16.521 44.2782 16.815C44.1582 17.109 44.0982 17.421 44.0982 17.751ZM54.6061 14.835L54.2551 15.636C54.0091 15.546 53.7631 15.474 53.5171 15.42C53.2771 15.366 53.0461 15.339 52.8241 15.339C52.4461 15.339 52.1431 15.417 51.9151 15.573C51.6931 15.729 51.5821 15.927 51.5821 16.167C51.5821 16.371 51.6631 16.536 51.8251 16.662C51.9871 16.782 52.1881 16.893 52.4281 16.995C52.6681 17.091 52.9291 17.19 53.2111 17.292C53.4931 17.388 53.7541 17.514 53.9941 17.67C54.2341 17.826 54.4351 18.024 54.5971 18.264C54.7591 18.498 54.8401 18.801 54.8401 19.173C54.8401 19.461 54.7861 19.722 54.6781 19.956C54.5761 20.184 54.4201 20.382 54.2101 20.55C54.0061 20.718 53.7481 20.847 53.4361 20.937C53.1301 21.027 52.7701 21.072 52.3561 21.072C52.0921 21.072 51.8521 21.054 51.6361 21.018C51.4261 20.982 51.2341 20.937 51.0601 20.883C50.8921 20.823 50.7421 20.76 50.6101 20.694C50.4841 20.628 50.3761 20.568 50.2861 20.514L50.7181 19.659C50.9581 19.797 51.2251 19.908 51.5191 19.992C51.8131 20.076 52.0801 20.118 52.3201 20.118C52.4401 20.118 52.5871 20.103 52.7611 20.073C52.9411 20.043 53.1121 19.992 53.2741 19.92C53.4361 19.842 53.5741 19.74 53.6881 19.614C53.8081 19.488 53.8681 19.329 53.8681 19.137C53.8681 18.963 53.8201 18.816 53.7241 18.696C53.6341 18.57 53.5111 18.462 53.3551 18.372C53.2051 18.276 53.0311 18.192 52.8331 18.12C52.6411 18.042 52.4431 17.964 52.2391 17.886C52.0351 17.802 51.8341 17.715 51.6361 17.625C51.4441 17.535 51.2701 17.427 51.1141 17.301C50.9641 17.169 50.8411 17.019 50.7451 16.851C50.6551 16.677 50.6101 16.47 50.6101 16.23C50.6101 16.008 50.6551 15.789 50.7451 15.573C50.8351 15.357 50.9701 15.165 51.1501 14.997C51.3301 14.829 51.5521 14.694 51.8161 14.592C52.0861 14.49 52.3981 14.439 52.7521 14.439C52.9681 14.439 53.1781 14.457 53.3821 14.493C53.5921 14.529 53.7811 14.571 53.9491 14.619C54.1171 14.661 54.2581 14.703 54.3721 14.745C54.4921 14.787 54.5701 14.817 54.6061 14.835ZM60.802 20.532C60.73 20.586 60.628 20.646 60.496 20.712C60.37 20.772 60.22 20.829 60.046 20.883C59.872 20.937 59.677 20.982 59.461 21.018C59.251 21.054 59.026 21.072 58.786 21.072C58.276 21.072 57.817 20.985 57.409 20.811C57.007 20.631 56.665 20.391 56.383 20.091C56.101 19.791 55.885 19.443 55.735 19.047C55.585 18.651 55.51 18.231 55.51 17.787C55.51 17.295 55.597 16.842 55.771 16.428C55.951 16.014 56.194 15.657 56.5 15.357C56.806 15.057 57.163 14.823 57.571 14.655C57.985 14.487 58.423 14.403 58.885 14.403C59.059 14.403 59.236 14.415 59.416 14.439C59.596 14.463 59.764 14.496 59.92 14.538C60.082 14.58 60.223 14.631 60.343 14.691C60.469 14.745 60.565 14.802 60.631 14.862C60.583 14.934 60.544 14.994 60.514 15.042C60.49 15.09 60.463 15.141 60.433 15.195C60.403 15.243 60.37 15.3 60.334 15.366C60.298 15.432 60.25 15.519 60.19 15.627C60.112 15.573 60.019 15.528 59.911 15.492C59.809 15.456 59.701 15.426 59.587 15.402C59.473 15.378 59.356 15.36 59.236 15.348C59.122 15.336 59.017 15.33 58.921 15.33C58.573 15.33 58.249 15.396 57.949 15.528C57.655 15.654 57.4 15.828 57.184 16.05C56.968 16.266 56.797 16.518 56.671 16.806C56.551 17.094 56.491 17.394 56.491 17.706C56.491 18.012 56.548 18.306 56.662 18.588C56.782 18.87 56.944 19.122 57.148 19.344C57.358 19.566 57.607 19.743 57.895 19.875C58.189 20.007 58.51 20.073 58.858 20.073C59.044 20.073 59.224 20.055 59.398 20.019C59.572 19.983 59.728 19.941 59.866 19.893C60.01 19.845 60.127 19.797 60.217 19.749C60.313 19.701 60.37 19.665 60.388 19.641L60.802 20.532ZM61.6992 14.475H62.6802V21H61.6992V14.475ZM64.2832 21V14.475H65.2732V20.064H68.5132V21H64.2832ZM69.4248 21V14.475H70.4148V20.064H73.6548V21H69.4248ZM73.9141 17.742C73.9141 17.292 74.0011 16.866 74.1751 16.464C74.3491 16.056 74.5861 15.699 74.8861 15.393C75.1921 15.087 75.5461 14.847 75.9481 14.673C76.3501 14.493 76.7821 14.403 77.2441 14.403C77.7001 14.403 78.1291 14.493 78.5311 14.673C78.9391 14.847 79.2931 15.087 79.5931 15.393C79.8991 15.699 80.1391 16.056 80.3131 16.464C80.4931 16.866 80.5831 17.292 80.5831 17.742C80.5831 18.204 80.4931 18.636 80.3131 19.038C80.1391 19.44 79.8991 19.794 79.5931 20.1C79.2931 20.4 78.9391 20.637 78.5311 20.811C78.1291 20.985 77.7001 21.072 77.2441 21.072C76.7821 21.072 76.3501 20.985 75.9481 20.811C75.5461 20.637 75.1921 20.4 74.8861 20.1C74.5861 19.794 74.3491 19.44 74.1751 19.038C74.0011 18.636 73.9141 18.204 73.9141 17.742ZM74.8951 17.751C74.8951 18.081 74.9551 18.393 75.0751 18.687C75.2011 18.975 75.3721 19.227 75.5881 19.443C75.8041 19.659 76.0561 19.83 76.3441 19.956C76.6321 20.082 76.9381 20.145 77.2621 20.145C77.5861 20.145 77.8891 20.082 78.1711 19.956C78.4591 19.83 78.7081 19.659 78.9181 19.443C79.1341 19.227 79.3021 18.975 79.4221 18.687C79.5481 18.393 79.6111 18.078 79.6111 17.742C79.6111 17.412 79.5481 17.103 79.4221 16.815C79.3021 16.521 79.1341 16.266 78.9181 16.05C78.7021 15.834 78.4501 15.663 78.1621 15.537C77.8801 15.411 77.5771 15.348 77.2531 15.348C76.9291 15.348 76.6231 15.411 76.3351 15.537C76.0471 15.663 75.7951 15.834 75.5791 16.05C75.3691 16.266 75.2011 16.521 75.0751 16.815C74.9551 17.109 74.8951 17.421 74.8951 17.751ZM85.403 14.835L85.052 15.636C84.806 15.546 84.56 15.474 84.314 15.42C84.074 15.366 83.843 15.339 83.621 15.339C83.243 15.339 82.94 15.417 82.712 15.573C82.49 15.729 82.379 15.927 82.379 16.167C82.379 16.371 82.46 16.536 82.622 16.662C82.784 16.782 82.985 16.893 83.225 16.995C83.465 17.091 83.726 17.19 84.008 17.292C84.29 17.388 84.551 17.514 84.791 17.67C85.031 17.826 85.232 18.024 85.394 18.264C85.556 18.498 85.637 18.801 85.637 19.173C85.637 19.461 85.583 19.722 85.475 19.956C85.373 20.184 85.217 20.382 85.007 20.55C84.803 20.718 84.545 20.847 84.233 20.937C83.927 21.027 83.567 21.072 83.153 21.072C82.889 21.072 82.649 21.054 82.433 21.018C82.223 20.982 82.031 20.937 81.857 20.883C81.689 20.823 81.539 20.76 81.407 20.694C81.281 20.628 81.173 20.568 81.083 20.514L81.515 19.659C81.755 19.797 82.022 19.908 82.316 19.992C82.61 20.076 82.877 20.118 83.117 20.118C83.237 20.118 83.384 20.103 83.558 20.073C83.738 20.043 83.909 19.992 84.071 19.92C84.233 19.842 84.371 19.74 84.485 19.614C84.605 19.488 84.665 19.329 84.665 19.137C84.665 18.963 84.617 18.816 84.521 18.696C84.431 18.57 84.308 18.462 84.152 18.372C84.002 18.276 83.828 18.192 83.63 18.12C83.438 18.042 83.24 17.964 83.036 17.886C82.832 17.802 82.631 17.715 82.433 17.625C82.241 17.535 82.067 17.427 81.911 17.301C81.761 17.169 81.638 17.019 81.542 16.851C81.452 16.677 81.407 16.47 81.407 16.23C81.407 16.008 81.452 15.789 81.542 15.573C81.632 15.357 81.767 15.165 81.947 14.997C82.127 14.829 82.349 14.694 82.613 14.592C82.883 14.49 83.195 14.439 83.549 14.439C83.765 14.439 83.975 14.457 84.179 14.493C84.389 14.529 84.578 14.571 84.746 14.619C84.914 14.661 85.055 14.703 85.169 14.745C85.289 14.787 85.367 14.817 85.403 14.835ZM91.5989 20.532C91.5269 20.586 91.4249 20.646 91.2929 20.712C91.1669 20.772 91.0169 20.829 90.8429 20.883C90.6689 20.937 90.4739 20.982 90.2579 21.018C90.0479 21.054 89.8229 21.072 89.5829 21.072C89.0729 21.072 88.6139 20.985 88.2059 20.811C87.8039 20.631 87.4619 20.391 87.1799 20.091C86.8979 19.791 86.6819 19.443 86.5319 19.047C86.3819 18.651 86.3069 18.231 86.3069 17.787C86.3069 17.295 86.3939 16.842 86.5679 16.428C86.7479 16.014 86.9909 15.657 87.2969 15.357C87.6029 15.057 87.9599 14.823 88.3679 14.655C88.7819 14.487 89.2199 14.403 89.6819 14.403C89.8559 14.403 90.0329 14.415 90.2129 14.439C90.3929 14.463 90.5609 14.496 90.7169 14.538C90.8789 14.58 91.0199 14.631 91.1399 14.691C91.2659 14.745 91.3619 14.802 91.4279 14.862C91.3799 14.934 91.3409 14.994 91.3109 15.042C91.2869 15.09 91.2599 15.141 91.2299 15.195C91.1999 15.243 91.1669 15.3 91.1309 15.366C91.0949 15.432 91.0469 15.519 90.9869 15.627C90.9089 15.573 90.8159 15.528 90.7079 15.492C90.6059 15.456 90.4979 15.426 90.3839 15.402C90.2699 15.378 90.1529 15.36 90.0329 15.348C89.9189 15.336 89.8139 15.33 89.7179 15.33C89.3699 15.33 89.0459 15.396 88.7459 15.528C88.4519 15.654 88.1969 15.828 87.9809 16.05C87.7649 16.266 87.5939 16.518 87.4679 16.806C87.3479 17.094 87.2879 17.394 87.2879 17.706C87.2879 18.012 87.3449 18.306 87.4589 18.588C87.5789 18.87 87.7409 19.122 87.9449 19.344C88.1549 19.566 88.4039 19.743 88.6919 19.875C88.9859 20.007 89.3069 20.073 89.6549 20.073C89.8409 20.073 90.0209 20.055 90.1949 20.019C90.3689 19.983 90.5249 19.941 90.6629 19.893C90.8069 19.845 90.9239 19.797 91.0139 19.749C91.1099 19.701 91.1669 19.665 91.1849 19.641L91.5989 20.532ZM91.8613 17.742C91.8613 17.292 91.9483 16.866 92.1223 16.464C92.2963 16.056 92.5333 15.699 92.8333 15.393C93.1393 15.087 93.4933 14.847 93.8953 14.673C94.2973 14.493 94.7293 14.403 95.1913 14.403C95.6473 14.403 96.0763 14.493 96.4783 14.673C96.8863 14.847 97.2403 15.087 97.5403 15.393C97.8463 15.699 98.0863 16.056 98.2603 16.464C98.4403 16.866 98.5303 17.292 98.5303 17.742C98.5303 18.204 98.4403 18.636 98.2603 19.038C98.0863 19.44 97.8463 19.794 97.5403 20.1C97.2403 20.4 96.8863 20.637 96.4783 20.811C96.0763 20.985 95.6473 21.072 95.1913 21.072C94.7293 21.072 94.2973 20.985 93.8953 20.811C93.4933 20.637 93.1393 20.4 92.8333 20.1C92.5333 19.794 92.2963 19.44 92.1223 19.038C91.9483 18.636 91.8613 18.204 91.8613 17.742ZM92.8423 17.751C92.8423 18.081 92.9023 18.393 93.0223 18.687C93.1483 18.975 93.3193 19.227 93.5353 19.443C93.7513 19.659 94.0033 19.83 94.2913 19.956C94.5793 20.082 94.8853 20.145 95.2093 20.145C95.5333 20.145 95.8363 20.082 96.1183 19.956C96.4063 19.83 96.6553 19.659 96.8653 19.443C97.0813 19.227 97.2493 18.975 97.3693 18.687C97.4953 18.393 97.5583 18.078 97.5583 17.742C97.5583 17.412 97.4953 17.103 97.3693 16.815C97.2493 16.521 97.0813 16.266 96.8653 16.05C96.6493 15.834 96.3973 15.663 96.1093 15.537C95.8273 15.411 95.5243 15.348 95.2003 15.348C94.8763 15.348 94.5703 15.411 94.2823 15.537C93.9943 15.663 93.7423 15.834 93.5263 16.05C93.3163 16.266 93.1483 16.521 93.0223 16.815C92.9023 17.109 92.8423 17.421 92.8423 17.751ZM100.667 17.742H101.558C101.798 17.742 101.999 17.7 102.161 17.616C102.323 17.532 102.449 17.43 102.539 17.31C102.635 17.19 102.701 17.061 102.737 16.923C102.779 16.785 102.8 16.662 102.8 16.554C102.8 16.44 102.779 16.317 102.737 16.185C102.701 16.047 102.635 15.921 102.539 15.807C102.443 15.687 102.314 15.588 102.152 15.51C101.996 15.432 101.801 15.393 101.567 15.393H100.667V17.742ZM99.6768 21V14.475H101.459C101.801 14.475 102.113 14.52 102.395 14.61C102.683 14.7 102.929 14.835 103.133 15.015C103.343 15.189 103.505 15.405 103.619 15.663C103.733 15.915 103.79 16.206 103.79 16.536C103.79 16.794 103.751 17.052 103.673 17.31C103.595 17.562 103.469 17.79 103.295 17.994C103.121 18.192 102.893 18.354 102.611 18.48C102.329 18.606 101.987 18.669 101.585 18.669H100.667V21H99.6768ZM104.871 21V14.475H109.155V15.366H105.861V17.274H108.795V18.183H105.861V20.091H109.281V21H104.871Z" fill="#C4C4C4"/>
<circle cx="25" cy="292" r="9.5" fill="#616161" stroke="#C4C4C4"/>
<path d="M25 284L31.9282 288V296L25 300L18.0718 296V288L25 284Z" fill="#A5A5A5"/>
<circle cx="25" cy="292" r="5.5" fill="black" stroke="#E5E5E5"/>
<path d="M24.6464 315.354C24.8417 315.549 25.1583 315.549 25.3536 315.354L28.5355 312.172C28.7308 311.976 28.7308 311.66 28.5355 311.464C28.3403 311.269 28.0237 311.269 27.8284 311.464L25 314.293L22.1716 311.464C21.9763 311.269 21.6597 311.269 21.4645 311.464C21.2692 311.66 21.2692 311.976 21.4645 312.172L24.6464 315.354ZM24.5 305V315H25.5V305H24.5Z" fill="#C4C4C4"/>
<circle cx="76" cy="292" r="9.5" fill="#616161" stroke="#C4C4C4"/>
<path d="M76 284L82.9282 288V296L76 300L69.0718 296V288L76 284Z" fill="#A5A5A5"/>
<circle cx="76" cy="292" r="5.5" fill="black" stroke="#E5E5E5"/>
<path d="M75.6464 315.354C75.8417 315.549 76.1583 315.549 76.3536 315.354L79.5355 312.172C79.7308 311.976 79.7308 311.66 79.5355 311.464C79.3403 311.269 79.0237 311.269 78.8284 311.464L76 314.293L73.1716 311.464C72.9763 311.269 72.6597 311.269 72.4645 311.464C72.2692 311.66 72.2692 311.976 72.4645 312.172L75.6464 315.354ZM75.5 305V315H76.5V305H75.5Z" fill="#C4C4C4"/>
<circle cx="127" cy="292" r="9.5" fill="#616161" stroke="#C4C4C4"/>
<path d="M127 284L133.928 288V296L127 300L120.072 296V288L127 284Z" fill="#A5A5A5"/>
<circle cx="127" cy="292" r="5.5" fill="black" stroke="#E5E5E5"/>
<path d="M126.646 315.354C126.842 315.549 127.158 315.549 127.354 315.354L130.536 312.172C130.731 311.976 130.731 311.66 130.536 311.464C130.34 311.269 130.024 311.269 129.828 311.464L127 314.293L124.172 311.464C123.976 311.269 123.66 311.269 123.464 311.464C123.269 311.66 123.269 311.976 123.464 312.172L126.646 315.354ZM126.5 305V315H127.5V305H126.5Z" fill="#C4C4C4"/>
<rect x="3.5" y="33.5" width="145" height="145" fill="#111111" stroke="#C4C4C4"/>
<rect x="111" y="319" width="32" height="45" fill="#161616"/>
<path d="M116.937 358.466C116.937 358.116 117.005 357.785 117.14 357.472C117.275 357.155 117.46 356.877 117.693 356.639C117.931 356.401 118.206 356.214 118.519 356.079C118.832 355.939 119.168 355.869 119.527 355.869C119.882 355.869 120.215 355.939 120.528 356.079C120.845 356.214 121.121 356.401 121.354 356.639C121.592 356.877 121.779 357.155 121.914 357.472C122.054 357.785 122.124 358.116 122.124 358.466C122.124 358.825 122.054 359.161 121.914 359.474C121.779 359.787 121.592 360.062 121.354 360.3C121.121 360.533 120.845 360.718 120.528 360.853C120.215 360.988 119.882 361.056 119.527 361.056C119.168 361.056 118.832 360.988 118.519 360.853C118.206 360.718 117.931 360.533 117.693 360.3C117.46 360.062 117.275 359.787 117.14 359.474C117.005 359.161 116.937 358.825 116.937 358.466ZM117.7 358.473C117.7 358.73 117.747 358.972 117.84 359.201C117.938 359.425 118.071 359.621 118.239 359.789C118.407 359.957 118.603 360.09 118.827 360.188C119.051 360.286 119.289 360.335 119.541 360.335C119.793 360.335 120.029 360.286 120.248 360.188C120.472 360.09 120.666 359.957 120.829 359.789C120.997 359.621 121.128 359.425 121.221 359.201C121.319 358.972 121.368 358.727 121.368 358.466C121.368 358.209 121.319 357.969 121.221 357.745C121.128 357.516 120.997 357.318 120.829 357.15C120.661 356.982 120.465 356.849 120.241 356.751C120.022 356.653 119.786 356.604 119.534 356.604C119.282 356.604 119.044 356.653 118.82 356.751C118.596 356.849 118.4 356.982 118.232 357.15C118.069 357.318 117.938 357.516 117.84 357.745C117.747 357.974 117.7 358.216 117.7 358.473ZM124.892 361.056C124.621 361.056 124.369 361.012 124.136 360.923C123.902 360.834 123.697 360.711 123.52 360.552C123.347 360.389 123.209 360.195 123.107 359.971C123.009 359.742 122.96 359.488 122.96 359.208V355.925H123.73V359.187C123.73 359.35 123.758 359.502 123.814 359.642C123.874 359.777 123.956 359.899 124.059 360.006C124.166 360.109 124.29 360.19 124.43 360.251C124.57 360.307 124.724 360.335 124.892 360.335C125.055 360.335 125.207 360.307 125.347 360.251C125.491 360.19 125.615 360.109 125.718 360.006C125.825 359.899 125.909 359.777 125.97 359.642C126.03 359.502 126.061 359.35 126.061 359.187V355.925H126.831V359.208C126.831 359.488 126.779 359.742 126.677 359.971C126.579 360.195 126.441 360.389 126.264 360.552C126.091 360.711 125.886 360.834 125.648 360.923C125.414 361.012 125.162 361.056 124.892 361.056ZM130.973 355.925V356.653H129.692V361H128.929V356.653H127.676V355.925H130.973ZM137.254 360.636C137.198 360.678 137.119 360.725 137.016 360.776C136.918 360.823 136.802 360.867 136.666 360.909C136.531 360.951 136.379 360.986 136.211 361.014C136.048 361.042 135.873 361.056 135.686 361.056C135.29 361.056 134.933 360.988 134.615 360.853C134.303 360.713 134.037 360.526 133.817 360.293C133.598 360.06 133.43 359.789 133.313 359.481C133.197 359.173 133.138 358.846 133.138 358.501C133.138 358.118 133.206 357.766 133.341 357.444C133.481 357.122 133.67 356.844 133.908 356.611C134.146 356.378 134.424 356.196 134.741 356.065C135.063 355.934 135.404 355.869 135.763 355.869C135.899 355.869 136.036 355.878 136.176 355.897C136.316 355.916 136.447 355.941 136.568 355.974C136.694 356.007 136.804 356.046 136.897 356.093C136.995 356.135 137.07 356.179 137.121 356.226C137.084 356.282 137.054 356.329 137.03 356.366C137.012 356.403 136.991 356.443 136.967 356.485C136.944 356.522 136.918 356.567 136.89 356.618C136.862 356.669 136.825 356.737 136.778 356.821C136.718 356.779 136.645 356.744 136.561 356.716C136.482 356.688 136.398 356.665 136.309 356.646C136.221 356.627 136.13 356.613 136.036 356.604C135.948 356.595 135.866 356.59 135.791 356.59C135.521 356.59 135.269 356.641 135.035 356.744C134.807 356.842 134.608 356.977 134.44 357.15C134.272 357.318 134.139 357.514 134.041 357.738C133.948 357.962 133.901 358.195 133.901 358.438C133.901 358.676 133.946 358.905 134.034 359.124C134.128 359.343 134.254 359.539 134.412 359.712C134.576 359.885 134.769 360.022 134.993 360.125C135.222 360.228 135.472 360.279 135.742 360.279C135.887 360.279 136.027 360.265 136.162 360.237C136.298 360.209 136.419 360.176 136.526 360.139C136.638 360.102 136.729 360.064 136.799 360.027C136.874 359.99 136.918 359.962 136.932 359.943L137.254 360.636Z" fill="#C4C4C4"/>
<circle cx="128" cy="332" r="9.5" fill="#616161" stroke="#C4C4C4"/>
<path d="M128 324L134.928 328V336L128 340L121.072 336V328L128 324Z" fill="#A5A5A5"/>
<circle cx="128" cy="332" r="5.5" fill="black" stroke="#E5E5E5"/>
<rect x="60" y="319" width="32" height="45" fill="#161616"/>
<path d="M66.0907 358.466C66.0907 358.116 66.1584 357.785 66.2937 357.472C66.429 357.155 66.6134 356.877 66.8467 356.639C67.0847 356.401 67.36 356.214 67.6727 356.079C67.9854 355.939 68.3214 355.869 68.6807 355.869C69.0354 355.869 69.369 355.939 69.6817 356.079C69.999 356.214 70.2744 356.401 70.5077 356.639C70.7457 356.877 70.9324 357.155 71.0677 357.472C71.2077 357.785 71.2777 358.116 71.2777 358.466C71.2777 358.825 71.2077 359.161 71.0677 359.474C70.9324 359.787 70.7457 360.062 70.5077 360.3C70.2744 360.533 69.999 360.718 69.6817 360.853C69.369 360.988 69.0354 361.056 68.6807 361.056C68.3214 361.056 67.9854 360.988 67.6727 360.853C67.36 360.718 67.0847 360.533 66.8467 360.3C66.6134 360.062 66.429 359.787 66.2937 359.474C66.1584 359.161 66.0907 358.825 66.0907 358.466ZM66.8537 358.473C66.8537 358.73 66.9004 358.972 66.9937 359.201C67.0917 359.425 67.2247 359.621 67.3927 359.789C67.5607 359.957 67.7567 360.09 67.9807 360.188C68.2047 360.286 68.4427 360.335 68.6947 360.335C68.9467 360.335 69.1824 360.286 69.4017 360.188C69.6257 360.09 69.8194 359.957 69.9827 359.789C70.1507 359.621 70.2814 359.425 70.3747 359.201C70.4727 358.972 70.5217 358.727 70.5217 358.466C70.5217 358.209 70.4727 357.969 70.3747 357.745C70.2814 357.516 70.1507 357.318 69.9827 357.15C69.8147 356.982 69.6187 356.849 69.3947 356.751C69.1754 356.653 68.9397 356.604 68.6877 356.604C68.4357 356.604 68.1977 356.653 67.9737 356.751C67.7497 356.849 67.5537 356.982 67.3857 357.15C67.2224 357.318 67.0917 357.516 66.9937 357.745C66.9004 357.974 66.8537 358.216 66.8537 358.473ZM74.0454 361.056C73.7747 361.056 73.5227 361.012 73.2894 360.923C73.0561 360.834 72.8507 360.711 72.6734 360.552C72.5007 360.389 72.3631 360.195 72.2604 359.971C72.1624 359.742 72.1134 359.488 72.1134 359.208V355.925H72.8834V359.187C72.8834 359.35 72.9114 359.502 72.9674 359.642C73.0281 359.777 73.1097 359.899 73.2124 360.006C73.3197 360.109 73.4434 360.19 73.5834 360.251C73.7234 360.307 73.8774 360.335 74.0454 360.335C74.2087 360.335 74.3604 360.307 74.5004 360.251C74.6451 360.19 74.7687 360.109 74.8714 360.006C74.9787 359.899 75.0627 359.777 75.1234 359.642C75.1841 359.502 75.2144 359.35 75.2144 359.187V355.925H75.9844V359.208C75.9844 359.488 75.9331 359.742 75.8304 359.971C75.7324 360.195 75.5947 360.389 75.4174 360.552C75.2447 360.711 75.0394 360.834 74.8014 360.923C74.5681 361.012 74.3161 361.056 74.0454 361.056ZM80.1273 355.925V356.653H78.8463V361H78.0833V356.653H76.8303V355.925H80.1273ZM83.412 356.618V358.116H84.098C84.35 358.116 84.539 358.041 84.665 357.892C84.791 357.743 84.854 357.561 84.854 357.346C84.854 357.094 84.777 356.91 84.623 356.793C84.4737 356.676 84.273 356.618 84.021 356.618H83.412ZM83.412 358.767V360.307H84.126C84.2614 360.307 84.3874 360.291 84.504 360.258C84.6254 360.225 84.7304 360.179 84.819 360.118C84.9077 360.053 84.9777 359.971 85.029 359.873C85.0804 359.775 85.106 359.661 85.106 359.53C85.106 359.385 85.0757 359.266 85.015 359.173C84.9544 359.075 84.8727 358.996 84.77 358.935C84.672 358.874 84.5577 358.832 84.427 358.809C84.301 358.781 84.1704 358.767 84.035 358.767H83.412ZM82.642 361V355.925H83.986C84.2334 355.925 84.4574 355.951 84.658 356.002C84.8587 356.049 85.029 356.126 85.169 356.233C85.309 356.336 85.4164 356.471 85.491 356.639C85.5704 356.802 85.61 357.003 85.61 357.241C85.61 357.372 85.596 357.5 85.568 357.626C85.5447 357.752 85.5027 357.869 85.442 357.976C85.386 358.079 85.309 358.17 85.211 358.249C85.1177 358.328 85.001 358.389 84.861 358.431C84.9824 358.454 85.1014 358.494 85.218 358.55C85.3394 358.606 85.4467 358.683 85.54 358.781C85.6334 358.874 85.708 358.991 85.764 359.131C85.8247 359.271 85.855 359.437 85.855 359.628C85.855 359.871 85.8084 360.078 85.715 360.251C85.6217 360.424 85.498 360.566 85.344 360.678C85.19 360.79 85.0127 360.872 84.812 360.923C84.6114 360.974 84.4037 361 84.189 361H82.642Z" fill="#C4C4C4"/>
<circle cx="77" cy="332" r="9.5" fill="#616161" stroke="#C4C4C4"/>
<path d="M77 324L83.9282 328V336L77 340L70.0718 336V328L77 324Z" fill="#A5A5A5"/>
<circle cx="77" cy="332" r="5.5" fill="black" stroke="#E5E5E5"/>
<rect x="9" y="319" width="32" height="45" fill="#161616"/>
<path d="M14.9027 358.466C14.9027 358.116 14.9704 357.785 15.1057 357.472C15.2411 357.155 15.4254 356.877 15.6587 356.639C15.8967 356.401 16.1721 356.214 16.4847 356.079C16.7974 355.939 17.1334 355.869 17.4927 355.869C17.8474 355.869 18.1811 355.939 18.4937 356.079C18.8111 356.214 19.0864 356.401 19.3197 356.639C19.5577 356.877 19.7444 357.155 19.8797 357.472C20.0197 357.785 20.0897 358.116 20.0897 358.466C20.0897 358.825 20.0197 359.161 19.8797 359.474C19.7444 359.787 19.5577 360.062 19.3197 360.3C19.0864 360.533 18.8111 360.718 18.4937 360.853C18.1811 360.988 17.8474 361.056 17.4927 361.056C17.1334 361.056 16.7974 360.988 16.4847 360.853C16.1721 360.718 15.8967 360.533 15.6587 360.3C15.4254 360.062 15.2411 359.787 15.1057 359.474C14.9704 359.161 14.9027 358.825 14.9027 358.466ZM15.6657 358.473C15.6657 358.73 15.7124 358.972 15.8057 359.201C15.9037 359.425 16.0367 359.621 16.2047 359.789C16.3727 359.957 16.5687 360.09 16.7927 360.188C17.0167 360.286 17.2547 360.335 17.5067 360.335C17.7587 360.335 17.9944 360.286 18.2137 360.188C18.4377 360.09 18.6314 359.957 18.7947 359.789C18.9627 359.621 19.0934 359.425 19.1867 359.201C19.2847 358.972 19.3337 358.727 19.3337 358.466C19.3337 358.209 19.2847 357.969 19.1867 357.745C19.0934 357.516 18.9627 357.318 18.7947 357.15C18.6267 356.982 18.4307 356.849 18.2067 356.751C17.9874 356.653 17.7517 356.604 17.4997 356.604C17.2477 356.604 17.0097 356.653 16.7857 356.751C16.5617 356.849 16.3657 356.982 16.1977 357.15C16.0344 357.318 15.9037 357.516 15.8057 357.745C15.7124 357.974 15.6657 358.216 15.6657 358.473ZM22.8574 361.056C22.5867 361.056 22.3347 361.012 22.1014 360.923C21.8681 360.834 21.6627 360.711 21.4854 360.552C21.3127 360.389 21.1751 360.195 21.0724 359.971C20.9744 359.742 20.9254 359.488 20.9254 359.208V355.925H21.6954V359.187C21.6954 359.35 21.7234 359.502 21.7794 359.642C21.8401 359.777 21.9217 359.899 22.0244 360.006C22.1317 360.109 22.2554 360.19 22.3954 360.251C22.5354 360.307 22.6894 360.335 22.8574 360.335C23.0207 360.335 23.1724 360.307 23.3124 360.251C23.4571 360.19 23.5807 360.109 23.6834 360.006C23.7907 359.899 23.8747 359.777 23.9354 359.642C23.9961 359.502 24.0264 359.35 24.0264 359.187V355.925H24.7964V359.208C24.7964 359.488 24.7451 359.742 24.6424 359.971C24.5444 360.195 24.4067 360.389 24.2294 360.552C24.0567 360.711 23.8514 360.834 23.6134 360.923C23.3801 361.012 23.1281 361.056 22.8574 361.056ZM28.9393 355.925V356.653H27.6583V361H26.8953V356.653H25.6423V355.925H28.9393ZM34.5971 361C34.5737 360.949 34.5411 360.874 34.4991 360.776C34.4571 360.678 34.4081 360.566 34.3521 360.44C34.3007 360.309 34.2424 360.169 34.1771 360.02C34.1164 359.866 34.0534 359.707 33.9881 359.544H32.1961L31.5941 361H30.8381L33.0991 355.687C33.1271 355.752 33.1761 355.871 33.2461 356.044C33.3207 356.217 33.4071 356.424 33.5051 356.667C33.6077 356.905 33.7197 357.171 33.8411 357.465C33.9671 357.754 34.0931 358.048 34.2191 358.347C34.3497 358.646 34.4757 358.94 34.5971 359.229C34.7231 359.518 34.8374 359.784 34.9401 360.027C35.0427 360.27 35.1291 360.477 35.1991 360.65C35.2737 360.818 35.3251 360.935 35.3531 361H34.5971ZM32.4621 358.9H33.7291C33.6637 358.746 33.6007 358.599 33.5401 358.459C33.4841 358.314 33.4304 358.184 33.3791 358.067C33.3324 357.946 33.2904 357.841 33.2531 357.752C33.2157 357.663 33.1877 357.593 33.1691 357.542C33.1644 357.533 33.1527 357.5 33.1341 357.444C33.1201 357.388 33.1084 357.337 33.0991 357.29C33.0897 357.337 33.0757 357.388 33.0571 357.444C33.0384 357.5 33.0267 357.533 33.0221 357.542L32.4621 358.9Z" fill="#C4C4C4"/>
<circle cx="26" cy="332" r="9.5" fill="#616161" stroke="#C4C4C4"/>
<path d="M26 324L32.9282 328V336L26 340L19.0718 336V328L26 324Z" fill="#A5A5A5"/>
<circle cx="26" cy="332" r="5.5" fill="black" stroke="#E5E5E5"/>
</svg>
