<svg width="62" height="386" viewBox="0 0 62 386" fill="none" xmlns="http://www.w3.org/2000/svg">
<rect x="0.5" y="0.5" width="59.94" height="384.5" fill="#333333" stroke="#161616"/>
<path d="M16.4464 376V371.65H17.6344C17.8624 371.65 18.0704 371.68 18.2584 371.74C18.4504 371.8 18.6144 371.89 18.7504 372.01C18.8904 372.126 18.9984 372.27 19.0744 372.442C19.1504 372.61 19.1884 372.804 19.1884 373.024C19.1884 373.144 19.1764 373.264 19.1524 373.384C19.1284 373.5 19.0884 373.614 19.0324 373.726C18.9804 373.834 18.9124 373.936 18.8284 374.032C18.7444 374.124 18.6424 374.202 18.5224 374.266C18.6824 374.518 18.8564 374.798 19.0444 375.106C19.2324 375.41 19.4224 375.708 19.6144 376H18.8284C18.7484 375.876 18.6644 375.746 18.5764 375.61C18.4924 375.474 18.4064 375.34 18.3184 375.208C18.2344 375.072 18.1504 374.94 18.0664 374.812C17.9864 374.68 17.9104 374.558 17.8384 374.446H17.7184H17.1064V376H16.4464ZM17.1064 373.828H17.7004C17.8604 373.828 17.9944 373.802 18.1024 373.75C18.2104 373.694 18.2944 373.626 18.3544 373.546C18.4184 373.466 18.4624 373.38 18.4864 373.288C18.5144 373.196 18.5284 373.112 18.5284 373.036C18.5284 372.96 18.5144 372.878 18.4864 372.79C18.4624 372.698 18.4184 372.614 18.3544 372.538C18.2904 372.458 18.2044 372.392 18.0964 372.34C17.9924 372.288 17.8624 372.262 17.7064 372.262H17.1064V373.828ZM22.908 376C22.888 375.956 22.86 375.892 22.824 375.808C22.788 375.724 22.746 375.628 22.698 375.52C22.654 375.408 22.604 375.288 22.548 375.16C22.496 375.028 22.442 374.892 22.386 374.752H20.85L20.334 376H19.686L21.624 371.446C21.648 371.502 21.69 371.604 21.75 371.752C21.814 371.9 21.888 372.078 21.972 372.286C22.06 372.49 22.156 372.718 22.26 372.97C22.368 373.218 22.476 373.47 22.584 373.726C22.696 373.982 22.804 374.234 22.908 374.482C23.016 374.73 23.114 374.958 23.202 375.166C23.29 375.374 23.364 375.552 23.424 375.7C23.488 375.844 23.532 375.944 23.556 376H22.908ZM21.078 374.2H22.164C22.108 374.068 22.054 373.942 22.002 373.822C21.954 373.698 21.908 373.586 21.864 373.486C21.824 373.382 21.788 373.292 21.756 373.216C21.724 373.14 21.7 373.08 21.684 373.036C21.68 373.028 21.67 373 21.654 372.952C21.642 372.904 21.632 372.86 21.624 372.82C21.616 372.86 21.604 372.904 21.588 372.952C21.572 373 21.562 373.028 21.558 373.036L21.078 374.2ZM27.1627 375.688C27.1147 375.724 27.0467 375.764 26.9587 375.808C26.8747 375.848 26.7747 375.886 26.6587 375.922C26.5427 375.958 26.4127 375.988 26.2687 376.012C26.1287 376.036 25.9787 376.048 25.8187 376.048C25.4787 376.048 25.1727 375.99 24.9007 375.874C24.6327 375.754 24.4047 375.594 24.2167 375.394C24.0287 375.194 23.8847 374.962 23.7847 374.698C23.6847 374.434 23.6347 374.154 23.6347 373.858C23.6347 373.53 23.6927 373.228 23.8087 372.952C23.9287 372.676 24.0907 372.438 24.2947 372.238C24.4987 372.038 24.7367 371.882 25.0087 371.77C25.2847 371.658 25.5767 371.602 25.8847 371.602C26.0007 371.602 26.1187 371.61 26.2387 371.626C26.3587 371.642 26.4707 371.664 26.5747 371.692C26.6827 371.72 26.7767 371.754 26.8567 371.794C26.9407 371.83 27.0047 371.868 27.0487 371.908C27.0167 371.956 26.9907 371.996 26.9707 372.028C26.9547 372.06 26.9367 372.094 26.9167 372.13C26.8967 372.162 26.8747 372.2 26.8507 372.244C26.8267 372.288 26.7947 372.346 26.7547 372.418C26.7027 372.382 26.6407 372.352 26.5687 372.328C26.5007 372.304 26.4287 372.284 26.3527 372.268C26.2767 372.252 26.1987 372.24 26.1187 372.232C26.0427 372.224 25.9727 372.22 25.9087 372.22C25.6767 372.22 25.4607 372.264 25.2607 372.352C25.0647 372.436 24.8947 372.552 24.7507 372.7C24.6067 372.844 24.4927 373.012 24.4087 373.204C24.3287 373.396 24.2887 373.596 24.2887 373.804C24.2887 374.008 24.3267 374.204 24.4027 374.392C24.4827 374.58 24.5907 374.748 24.7267 374.896C24.8667 375.044 25.0327 375.162 25.2247 375.25C25.4207 375.338 25.6347 375.382 25.8667 375.382C25.9907 375.382 26.1107 375.37 26.2267 375.346C26.3427 375.322 26.4467 375.294 26.5387 375.262C26.6347 375.23 26.7127 375.198 26.7727 375.166C26.8367 375.134 26.8747 375.11 26.8867 375.094L27.1627 375.688ZM30.3408 376C30.2008 375.82 30.0668 375.648 29.9388 375.484C29.8108 375.32 29.6848 375.156 29.5608 374.992C29.4368 374.828 29.3108 374.662 29.1828 374.494C29.0588 374.326 28.9268 374.152 28.7868 373.972C28.7348 374.028 28.6848 374.08 28.6368 374.128C28.5888 374.172 28.5368 374.218 28.4808 374.266C28.4808 374.574 28.4808 374.864 28.4808 375.136C28.4848 375.404 28.4868 375.692 28.4868 376H27.7608V371.65H28.4868V373.276C28.4868 373.312 28.4828 373.348 28.4748 373.384C28.4708 373.416 28.4688 373.45 28.4688 373.486C28.4888 373.458 28.5088 373.434 28.5288 373.414C28.5488 373.39 28.5688 373.362 28.5888 373.33C28.8728 373.062 29.1468 372.784 29.4108 372.496C29.6748 372.204 29.9488 371.922 30.2328 371.65H31.0668C30.7668 371.962 30.4688 372.276 30.1728 372.592C29.8808 372.908 29.5848 373.222 29.2848 373.534C29.4528 373.75 29.6128 373.96 29.7648 374.164C29.9208 374.364 30.0728 374.564 30.2208 374.764C30.3728 374.964 30.5248 375.166 30.6768 375.37C30.8288 375.574 30.9868 375.784 31.1508 376H30.3408ZM31.6456 376V371.65H32.3056V375.376H34.4656V376H31.6456ZM35.0733 376V371.65H37.9293V372.244H35.7333V373.516H37.6893V374.122H35.7333V375.394H38.0133V376H35.0733ZM41.2665 371.89L41.0325 372.424C40.8685 372.364 40.7045 372.316 40.5405 372.28C40.3805 372.244 40.2265 372.226 40.0785 372.226C39.8265 372.226 39.6245 372.278 39.4725 372.382C39.3245 372.486 39.2505 372.618 39.2505 372.778C39.2505 372.914 39.3045 373.024 39.4125 373.108C39.5205 373.188 39.6545 373.262 39.8145 373.33C39.9745 373.394 40.1485 373.46 40.3365 373.528C40.5245 373.592 40.6985 373.676 40.8585 373.78C41.0185 373.884 41.1525 374.016 41.2605 374.176C41.3685 374.332 41.4225 374.534 41.4225 374.782C41.4225 374.974 41.3865 375.148 41.3145 375.304C41.2465 375.456 41.1425 375.588 41.0025 375.7C40.8665 375.812 40.6945 375.898 40.4865 375.958C40.2825 376.018 40.0425 376.048 39.7665 376.048C39.5905 376.048 39.4305 376.036 39.2865 376.012C39.1465 375.988 39.0185 375.958 38.9025 375.922C38.7905 375.882 38.6905 375.84 38.6025 375.796C38.5185 375.752 38.4465 375.712 38.3865 375.676L38.6745 375.106C38.8345 375.198 39.0125 375.272 39.2085 375.328C39.4045 375.384 39.5825 375.412 39.7425 375.412C39.8225 375.412 39.9205 375.402 40.0365 375.382C40.1565 375.362 40.2705 375.328 40.3785 375.28C40.4865 375.228 40.5785 375.16 40.6545 375.076C40.7345 374.992 40.7745 374.886 40.7745 374.758C40.7745 374.642 40.7425 374.544 40.6785 374.464C40.6185 374.38 40.5365 374.308 40.4325 374.248C40.3325 374.184 40.2165 374.128 40.0845 374.08C39.9565 374.028 39.8245 373.976 39.6885 373.924C39.5525 373.868 39.4185 373.81 39.2865 373.75C39.1585 373.69 39.0425 373.618 38.9385 373.534C38.8385 373.446 38.7565 373.346 38.6925 373.234C38.6325 373.118 38.6025 372.98 38.6025 372.82C38.6025 372.672 38.6325 372.526 38.6925 372.382C38.7525 372.238 38.8425 372.11 38.9625 371.998C39.0825 371.886 39.2305 371.796 39.4065 371.728C39.5865 371.66 39.7945 371.626 40.0305 371.626C40.1745 371.626 40.3145 371.638 40.4505 371.662C40.5905 371.686 40.7165 371.714 40.8285 371.746C40.9405 371.774 41.0345 371.802 41.1105 371.83C41.1905 371.858 41.2425 371.878 41.2665 371.89ZM44.659 371.89L44.425 372.424C44.261 372.364 44.097 372.316 43.933 372.28C43.773 372.244 43.619 372.226 43.471 372.226C43.219 372.226 43.017 372.278 42.865 372.382C42.717 372.486 42.643 372.618 42.643 372.778C42.643 372.914 42.697 373.024 42.805 373.108C42.913 373.188 43.047 373.262 43.207 373.33C43.367 373.394 43.541 373.46 43.729 373.528C43.917 373.592 44.091 373.676 44.251 373.78C44.411 373.884 44.545 374.016 44.653 374.176C44.761 374.332 44.815 374.534 44.815 374.782C44.815 374.974 44.779 375.148 44.707 375.304C44.639 375.456 44.535 375.588 44.395 375.7C44.259 375.812 44.087 375.898 43.879 375.958C43.675 376.018 43.435 376.048 43.159 376.048C42.983 376.048 42.823 376.036 42.679 376.012C42.539 375.988 42.411 375.958 42.295 375.922C42.183 375.882 42.083 375.84 41.995 375.796C41.911 375.752 41.839 375.712 41.779 375.676L42.067 375.106C42.227 375.198 42.405 375.272 42.601 375.328C42.797 375.384 42.975 375.412 43.135 375.412C43.215 375.412 43.313 375.402 43.429 375.382C43.549 375.362 43.663 375.328 43.771 375.28C43.879 375.228 43.971 375.16 44.047 375.076C44.127 374.992 44.167 374.886 44.167 374.758C44.167 374.642 44.135 374.544 44.071 374.464C44.011 374.38 43.929 374.308 43.825 374.248C43.725 374.184 43.609 374.128 43.477 374.08C43.349 374.028 43.217 373.976 43.081 373.924C42.945 373.868 42.811 373.81 42.679 373.75C42.551 373.69 42.435 373.618 42.331 373.534C42.231 373.446 42.149 373.346 42.085 373.234C42.025 373.118 41.995 372.98 41.995 372.82C41.995 372.672 42.025 372.526 42.085 372.382C42.145 372.238 42.235 372.11 42.355 371.998C42.475 371.886 42.623 371.796 42.799 371.728C42.979 371.66 43.187 371.626 43.423 371.626C43.567 371.626 43.707 371.638 43.843 371.662C43.983 371.686 44.109 371.714 44.221 371.746C44.333 371.774 44.427 371.802 44.503 371.83C44.583 371.858 44.635 371.878 44.659 371.89Z" fill="#C4C4C4"/>
<rect x="31" y="310" width="29.4833" height="45" fill="#161616"/>
<path d="M39.2255 349.466C39.2255 349.116 39.2931 348.785 39.4285 348.472C39.5638 348.155 39.7481 347.877 39.9815 347.639C40.2195 347.401 40.4948 347.214 40.8075 347.079C41.1201 346.939 41.4561 346.869 41.8155 346.869C42.1701 346.869 42.5038 346.939 42.8165 347.079C43.1338 347.214 43.4091 347.401 43.6425 347.639C43.8805 347.877 44.0671 348.155 44.2025 348.472C44.3425 348.785 44.4125 349.116 44.4125 349.466C44.4125 349.825 44.3425 350.161 44.2025 350.474C44.0671 350.787 43.8805 351.062 43.6425 351.3C43.4091 351.533 43.1338 351.718 42.8165 351.853C42.5038 351.988 42.1701 352.056 41.8155 352.056C41.4561 352.056 41.1201 351.988 40.8075 351.853C40.4948 351.718 40.2195 351.533 39.9815 351.3C39.7481 351.062 39.5638 350.787 39.4285 350.474C39.2931 350.161 39.2255 349.825 39.2255 349.466ZM39.9885 349.473C39.9885 349.73 40.0351 349.972 40.1285 350.201C40.2265 350.425 40.3595 350.621 40.5275 350.789C40.6955 350.957 40.8915 351.09 41.1155 351.188C41.3395 351.286 41.5775 351.335 41.8295 351.335C42.0815 351.335 42.3171 351.286 42.5365 351.188C42.7605 351.09 42.9541 350.957 43.1175 350.789C43.2855 350.621 43.4161 350.425 43.5095 350.201C43.6075 349.972 43.6565 349.727 43.6565 349.466C43.6565 349.209 43.6075 348.969 43.5095 348.745C43.4161 348.516 43.2855 348.318 43.1175 348.15C42.9495 347.982 42.7535 347.849 42.5295 347.751C42.3101 347.653 42.0745 347.604 41.8225 347.604C41.5705 347.604 41.3325 347.653 41.1085 347.751C40.8845 347.849 40.6885 347.982 40.5205 348.15C40.3571 348.318 40.2265 348.516 40.1285 348.745C40.0351 348.974 39.9885 349.216 39.9885 349.473ZM47.1802 352.056C46.9095 352.056 46.6575 352.012 46.4242 351.923C46.1908 351.834 45.9855 351.711 45.8082 351.552C45.6355 351.389 45.4978 351.195 45.3952 350.971C45.2972 350.742 45.2482 350.488 45.2482 350.208V346.925H46.0182V350.187C46.0182 350.35 46.0462 350.502 46.1022 350.642C46.1628 350.777 46.2445 350.899 46.3472 351.006C46.4545 351.109 46.5782 351.19 46.7182 351.251C46.8582 351.307 47.0122 351.335 47.1802 351.335C47.3435 351.335 47.4952 351.307 47.6352 351.251C47.7798 351.19 47.9035 351.109 48.0062 351.006C48.1135 350.899 48.1975 350.777 48.2582 350.642C48.3188 350.502 48.3492 350.35 48.3492 350.187V346.925H49.1192V350.208C49.1192 350.488 49.0678 350.742 48.9652 350.971C48.8672 351.195 48.7295 351.389 48.5522 351.552C48.3795 351.711 48.1742 351.834 47.9362 351.923C47.7028 352.012 47.4508 352.056 47.1802 352.056ZM53.2621 346.925V347.653H51.9811V352H51.2181V347.653H49.9651V346.925H53.2621Z" fill="#C4C4C4"/>
<path d="M55.8333 323C55.8333 328.239 51.5132 332.5 46.1667 332.5C40.8201 332.5 36.5 328.239 36.5 323C36.5 317.761 40.8201 313.5 46.1667 313.5C51.5132 313.5 55.8333 317.761 55.8333 323Z" fill="#616161" stroke="#C4C4C4"/>
<path d="M46.1667 315L53.2103 319V327L46.1667 331L39.123 327V319L46.1667 315Z" fill="#A5A5A5"/>
<path d="M46.1667 328.5C49.2424 328.5 51.75 326.045 51.75 323C51.75 319.955 49.2424 317.5 46.1667 317.5C43.0909 317.5 40.5833 319.955 40.5833 323C40.5833 326.045 43.0909 328.5 46.1667 328.5Z" fill="black" stroke="#E5E5E5"/>
<path d="M12.0175 345.925H12.7805V351H12.0175V345.925ZM18.4793 345.925V351.231C18.414 351.147 18.288 351.012 18.1013 350.825C17.9146 350.638 17.7 350.424 17.4573 350.181C17.2146 349.938 16.9556 349.684 16.6803 349.418C16.4096 349.152 16.153 348.9 15.9103 348.662C15.6676 348.419 15.4553 348.205 15.2733 348.018C15.0913 347.827 14.97 347.691 14.9093 347.612L14.7763 347.43L14.7973 347.654V351H14.0273V345.687C14.0786 345.752 14.1626 345.846 14.2793 345.967C14.4006 346.088 14.5406 346.231 14.6993 346.394C14.8626 346.553 15.04 346.725 15.2313 346.912C15.4273 347.099 15.6233 347.288 15.8193 347.479C16.02 347.67 16.216 347.859 16.4073 348.046C16.6033 348.228 16.7806 348.398 16.9393 348.557C17.1026 348.716 17.2426 348.856 17.3593 348.977C17.476 349.098 17.5576 349.189 17.6043 349.25L17.7373 349.446L17.7163 349.208V345.925H18.4793Z" fill="#C4C4C4"/>
<path d="M24.8333 322C24.8333 327.239 20.5132 331.5 15.1667 331.5C9.82009 331.5 5.5 327.239 5.5 322C5.5 316.761 9.82009 312.5 15.1667 312.5C20.5132 312.5 24.8333 316.761 24.8333 322Z" fill="#616161" stroke="#C4C4C4"/>
<path d="M15.1667 314L22.2103 318V326L15.1667 330L8.12299 326V318L15.1667 314Z" fill="#A5A5A5"/>
<path d="M15.1667 327.5C18.2424 327.5 20.75 325.045 20.75 322C20.75 318.955 18.2424 316.5 15.1667 316.5C12.0909 316.5 9.58333 318.955 9.58333 322C9.58333 325.045 12.0909 327.5 15.1667 327.5Z" fill="black" stroke="#E5E5E5"/>
<path d="M10.1066 16.835L9.75559 17.636C9.50959 17.546 9.26359 17.474 9.01759 17.42C8.77759 17.366 8.54659 17.339 8.32459 17.339C7.94659 17.339 7.64359 17.417 7.41559 17.573C7.19359 17.729 7.08259 17.927 7.08259 18.167C7.08259 18.371 7.16359 18.536 7.32559 18.662C7.48759 18.782 7.68859 18.893 7.92859 18.995C8.16859 19.091 8.42959 19.19 8.71159 19.292C8.99359 19.388 9.25459 19.514 9.49459 19.67C9.73459 19.826 9.93559 20.024 10.0976 20.264C10.2596 20.498 10.3406 20.801 10.3406 21.173C10.3406 21.461 10.2866 21.722 10.1786 21.956C10.0766 22.184 9.92059 22.382 9.71059 22.55C9.50659 22.718 9.24859 22.847 8.93659 22.937C8.63059 23.027 8.27059 23.072 7.85659 23.072C7.59259 23.072 7.35259 23.054 7.13659 23.018C6.92659 22.982 6.73459 22.937 6.56059 22.883C6.39259 22.823 6.24259 22.76 6.11059 22.694C5.98459 22.628 5.87659 22.568 5.78659 22.514L6.21859 21.659C6.45859 21.797 6.72559 21.908 7.01959 21.992C7.31359 22.076 7.58059 22.118 7.82059 22.118C7.94059 22.118 8.08759 22.103 8.26159 22.073C8.44159 22.043 8.61259 21.992 8.77459 21.92C8.93659 21.842 9.07459 21.74 9.18859 21.614C9.30859 21.488 9.36859 21.329 9.36859 21.137C9.36859 20.963 9.32059 20.816 9.22459 20.696C9.13459 20.57 9.01159 20.462 8.85559 20.372C8.70559 20.276 8.53159 20.192 8.33359 20.12C8.14159 20.042 7.94359 19.964 7.73959 19.886C7.53559 19.802 7.33459 19.715 7.13659 19.625C6.94459 19.535 6.77059 19.427 6.61459 19.301C6.46459 19.169 6.34159 19.019 6.24559 18.851C6.15559 18.677 6.11059 18.47 6.11059 18.23C6.11059 18.008 6.15559 17.789 6.24559 17.573C6.33559 17.357 6.47059 17.165 6.65059 16.997C6.83059 16.829 7.05259 16.694 7.31659 16.592C7.58659 16.49 7.89859 16.439 8.25259 16.439C8.46859 16.439 8.67859 16.457 8.88259 16.493C9.09259 16.529 9.28159 16.571 9.44959 16.619C9.61759 16.661 9.75859 16.703 9.87259 16.745C9.99259 16.787 10.0706 16.817 10.1066 16.835ZM11.4605 23V16.475H12.4505V22.064H15.6905V23H11.4605ZM16.6021 23V16.475H20.8861V17.366H17.5921V19.274H20.5261V20.183H17.5921V22.091H21.0121V23H16.6021ZM29.8157 16.502C29.5997 17.072 29.3687 17.672 29.1227 18.302C28.8827 18.926 28.6427 19.541 28.4027 20.147C28.1687 20.753 27.9467 21.329 27.7367 21.875C27.5267 22.421 27.3497 22.892 27.2057 23.288L25.7477 19.643C25.7297 19.595 25.7147 19.559 25.7027 19.535C25.6907 19.511 25.6787 19.475 25.6667 19.427C25.6667 19.451 25.6637 19.475 25.6577 19.499C25.6517 19.517 25.6457 19.538 25.6397 19.562C25.6337 19.586 25.6277 19.61 25.6217 19.634C25.4177 20.102 25.2167 20.561 25.0187 21.011C24.9347 21.203 24.8477 21.401 24.7577 21.605C24.6677 21.809 24.5807 22.013 24.4967 22.217C24.4127 22.415 24.3287 22.607 24.2447 22.793C24.1667 22.979 24.0947 23.147 24.0287 23.297C23.5967 22.163 23.1617 21.032 22.7237 19.904C22.2857 18.776 21.8507 17.642 21.4187 16.502H22.5257C22.6697 16.898 22.8167 17.297 22.9667 17.699C23.1227 18.101 23.2667 18.488 23.3987 18.86C23.5367 19.232 23.6597 19.577 23.7677 19.895C23.8757 20.213 23.9597 20.483 24.0197 20.705L24.0917 21.02C24.0977 20.99 24.1127 20.942 24.1367 20.876C24.1607 20.804 24.1787 20.753 24.1907 20.723C24.1967 20.699 24.2177 20.645 24.2537 20.561C24.2897 20.477 24.3317 20.378 24.3797 20.264C24.4277 20.144 24.4817 20.015 24.5417 19.877C24.6017 19.739 24.6617 19.598 24.7217 19.454C24.8657 19.124 25.0247 18.758 25.1987 18.356C25.0967 18.074 25.0067 17.81 24.9287 17.564C24.8567 17.354 24.7877 17.147 24.7217 16.943C24.6617 16.739 24.6167 16.592 24.5867 16.502H25.5317C25.7897 17.18 26.0297 17.807 26.2517 18.383C26.3417 18.629 26.4317 18.875 26.5217 19.121C26.6177 19.367 26.7047 19.595 26.7827 19.805C26.8667 20.015 26.9387 20.201 26.9987 20.363C27.0587 20.519 27.1007 20.633 27.1247 20.705C27.1427 20.759 27.1547 20.813 27.1607 20.867C27.1727 20.915 27.1847 20.966 27.1967 21.02C27.2087 20.966 27.2177 20.912 27.2237 20.858C27.2357 20.804 27.2477 20.753 27.2597 20.705C27.3137 20.471 27.3977 20.192 27.5117 19.868C27.6257 19.544 27.7517 19.196 27.8897 18.824C28.0337 18.452 28.1837 18.068 28.3397 17.672C28.4957 17.27 28.6457 16.88 28.7897 16.502H29.8157ZM32.7651 23V16.475H33.7551V22.064H36.9951V23H32.7651ZM37.9067 16.475H38.8877V23H37.9067V16.475ZM40.4907 16.187C40.5447 16.271 40.6557 16.433 40.8237 16.673C40.9977 16.907 41.1957 17.18 41.4177 17.492C41.6457 17.804 41.8857 18.137 42.1377 18.491C42.3897 18.839 42.6267 19.169 42.8487 19.481C43.0707 19.787 43.2627 20.054 43.4247 20.282C43.5927 20.51 43.7037 20.66 43.7577 20.732C43.7757 20.702 43.8327 20.621 43.9287 20.489C44.0247 20.357 44.1417 20.192 44.2797 19.994C44.4237 19.796 44.5857 19.574 44.7657 19.328C44.9457 19.076 45.1287 18.821 45.3147 18.563C45.5067 18.299 45.6927 18.038 45.8727 17.78C46.0587 17.522 46.2297 17.288 46.3857 17.078C46.5417 16.862 46.6737 16.676 46.7817 16.52C46.8957 16.358 46.9767 16.247 47.0247 16.187V23H45.9807V19.346C45.9807 19.298 45.9837 19.247 45.9897 19.193C46.0017 19.139 46.0077 19.1 46.0077 19.076C45.9537 19.148 45.8667 19.271 45.7467 19.445C45.6327 19.613 45.4977 19.808 45.3417 20.03C45.1917 20.246 45.0327 20.477 44.8647 20.723C44.6967 20.963 44.5377 21.191 44.3877 21.407C44.2377 21.623 44.1057 21.815 43.9917 21.983C43.8777 22.145 43.7997 22.259 43.7577 22.325C43.7157 22.271 43.6317 22.16 43.5057 21.992C43.3857 21.818 43.2417 21.617 43.0737 21.389C42.9117 21.161 42.7377 20.918 42.5517 20.66C42.3717 20.402 42.2037 20.162 42.0477 19.94C41.8917 19.718 41.7567 19.529 41.6427 19.373C41.5287 19.211 41.4627 19.112 41.4447 19.076C41.4447 19.1 41.4477 19.139 41.4537 19.193C41.4657 19.247 41.4717 19.298 41.4717 19.346V23H40.4907V16.187ZM48.6294 16.475H49.6104V23H48.6294V16.475ZM55.0114 16.475V17.411H53.3644V23H52.3834V17.411H50.7724V16.475H55.0114Z" fill="#C4C4C4"/>
<path d="M21.434 116C21.4106 115.949 21.378 115.874 21.336 115.776C21.294 115.678 21.245 115.566 21.189 115.44C21.1376 115.309 21.0793 115.169 21.014 115.02C20.9533 114.866 20.8903 114.707 20.825 114.544H19.033L18.431 116H17.675L19.936 110.687C19.964 110.752 20.013 110.871 20.083 111.044C20.1576 111.217 20.244 111.424 20.342 111.667C20.4446 111.905 20.5566 112.171 20.678 112.465C20.804 112.754 20.93 113.048 21.056 113.347C21.1866 113.646 21.3126 113.94 21.434 114.229C21.56 114.518 21.6743 114.784 21.777 115.027C21.8796 115.27 21.966 115.477 22.036 115.65C22.1106 115.818 22.162 115.935 22.19 116H21.434ZM19.299 113.9H20.566C20.5006 113.746 20.4376 113.599 20.377 113.459C20.321 113.314 20.2673 113.184 20.216 113.067C20.1693 112.946 20.1273 112.841 20.09 112.752C20.0526 112.663 20.0246 112.593 20.006 112.542C20.0013 112.533 19.9896 112.5 19.971 112.444C19.957 112.388 19.9453 112.337 19.936 112.29C19.9266 112.337 19.9126 112.388 19.894 112.444C19.8753 112.5 19.8636 112.533 19.859 112.542L19.299 113.9ZM25.3192 110.925V111.653H24.0382V116H23.2752V111.653H22.0222V110.925H25.3192ZM29.1747 110.925V111.653H27.8937V116H27.1307V111.653H25.8777V110.925H29.1747ZM32.7611 116C32.7378 115.949 32.7051 115.874 32.6631 115.776C32.6211 115.678 32.5721 115.566 32.5161 115.44C32.4648 115.309 32.4065 115.169 32.3411 115.02C32.2805 114.866 32.2175 114.707 32.1521 114.544H30.3601L29.7581 116H29.0021L31.2631 110.687C31.2911 110.752 31.3401 110.871 31.4101 111.044C31.4848 111.217 31.5711 111.424 31.6691 111.667C31.7718 111.905 31.8838 112.171 32.0051 112.465C32.1311 112.754 32.2571 113.048 32.3831 113.347C32.5138 113.646 32.6398 113.94 32.7611 114.229C32.8871 114.518 33.0015 114.784 33.1041 115.027C33.2068 115.27 33.2931 115.477 33.3631 115.65C33.4378 115.818 33.4891 115.935 33.5171 116H32.7611ZM30.6261 113.9H31.8931C31.8278 113.746 31.7648 113.599 31.7041 113.459C31.6481 113.314 31.5945 113.184 31.5431 113.067C31.4965 112.946 31.4545 112.841 31.4171 112.752C31.3798 112.663 31.3518 112.593 31.3331 112.542C31.3285 112.533 31.3168 112.5 31.2981 112.444C31.2841 112.388 31.2725 112.337 31.2631 112.29C31.2538 112.337 31.2398 112.388 31.2211 112.444C31.2025 112.5 31.1908 112.533 31.1861 112.542L30.6261 113.9ZM37.7249 115.636C37.6689 115.678 37.5896 115.725 37.4869 115.776C37.3889 115.823 37.2723 115.867 37.1369 115.909C37.0016 115.951 36.8499 115.986 36.6819 116.014C36.5186 116.042 36.3436 116.056 36.1569 116.056C35.7603 116.056 35.4033 115.988 35.0859 115.853C34.7733 115.713 34.5073 115.526 34.2879 115.293C34.0686 115.06 33.9006 114.789 33.7839 114.481C33.6673 114.173 33.6089 113.846 33.6089 113.501C33.6089 113.118 33.6766 112.766 33.8119 112.444C33.9519 112.122 34.1409 111.844 34.3789 111.611C34.6169 111.378 34.8946 111.196 35.2119 111.065C35.5339 110.934 35.8746 110.869 36.2339 110.869C36.3693 110.869 36.5069 110.878 36.6469 110.897C36.7869 110.916 36.9176 110.941 37.0389 110.974C37.1649 111.007 37.2746 111.046 37.3679 111.093C37.4659 111.135 37.5406 111.179 37.5919 111.226C37.5546 111.282 37.5243 111.329 37.5009 111.366C37.4823 111.403 37.4613 111.443 37.4379 111.485C37.4146 111.522 37.3889 111.567 37.3609 111.618C37.3329 111.669 37.2956 111.737 37.2489 111.821C37.1883 111.779 37.1159 111.744 37.0319 111.716C36.9526 111.688 36.8686 111.665 36.7799 111.646C36.6913 111.627 36.6003 111.613 36.5069 111.604C36.4183 111.595 36.3366 111.59 36.2619 111.59C35.9913 111.59 35.7393 111.641 35.5059 111.744C35.2773 111.842 35.0789 111.977 34.9109 112.15C34.7429 112.318 34.6099 112.514 34.5119 112.738C34.4186 112.962 34.3719 113.195 34.3719 113.438C34.3719 113.676 34.4163 113.905 34.5049 114.124C34.5983 114.343 34.7243 114.539 34.8829 114.712C35.0463 114.885 35.2399 115.022 35.4639 115.125C35.6926 115.228 35.9423 115.279 36.2129 115.279C36.3576 115.279 36.4976 115.265 36.6329 115.237C36.7683 115.209 36.8896 115.176 36.9969 115.139C37.1089 115.102 37.1999 115.064 37.2699 115.027C37.3446 114.99 37.3889 114.962 37.4029 114.943L37.7249 115.636ZM41.4328 116C41.2695 115.79 41.1131 115.589 40.9638 115.398C40.8145 115.207 40.6675 115.015 40.5228 114.824C40.3781 114.633 40.2311 114.439 40.0818 114.243C39.9371 114.047 39.7831 113.844 39.6198 113.634C39.5591 113.699 39.5008 113.76 39.4448 113.816C39.3888 113.867 39.3281 113.921 39.2628 113.977C39.2628 114.336 39.2628 114.675 39.2628 114.992C39.2675 115.305 39.2698 115.641 39.2698 116H38.4228V110.925H39.2698V112.822C39.2698 112.864 39.2651 112.906 39.2558 112.948C39.2511 112.985 39.2488 113.025 39.2488 113.067C39.2721 113.034 39.2955 113.006 39.3188 112.983C39.3421 112.955 39.3655 112.922 39.3888 112.885C39.7201 112.572 40.0398 112.248 40.3478 111.912C40.6558 111.571 40.9755 111.242 41.3068 110.925H42.2798C41.9298 111.289 41.5821 111.655 41.2368 112.024C40.8961 112.393 40.5508 112.759 40.2008 113.123C40.3968 113.375 40.5835 113.62 40.7608 113.858C40.9428 114.091 41.1201 114.325 41.2928 114.558C41.4701 114.791 41.6475 115.027 41.8248 115.265C42.0021 115.503 42.1865 115.748 42.3778 116H41.4328Z" fill="#C4C4C4"/>
<mask id="mask0" mask-type="alpha" maskUnits="userSpaceOnUse" x="9" y="39" width="42" height="42">
<circle cx="30" cy="60" r="21" fill="#C4C4C4"/>
</mask>
<g mask="url(#mask0)">
<line x1="6.64645" y1="83.6464" x2="53.4926" y2="36.8003" stroke="#C6C6C6"/>
<line x1="7.35662" y1="36.6495" x2="53.3951" y2="83.4957" stroke="#C6C6C6"/>
<line x1="6" y1="60.5" x2="54.4615" y2="60.5" stroke="#C6C6C6"/>
<line x1="29.5" y1="58" x2="29.5" y2="34.5769" stroke="#C6C6C6"/>
</g>
<circle cx="30" cy="60" r="18" transform="rotate(-180 30 60)" fill="#222222"/>
<circle cx="30" cy="60" r="16" transform="rotate(-180 30 60)" fill="black"/>
<rect x="31" y="60" width="3" height="16" transform="rotate(-180 31 60)" fill="#E5E5E5"/>
<path d="M39.8333 93C39.8333 98.2389 35.5132 102.5 30.1667 102.5C24.8201 102.5 20.5 98.2389 20.5 93C20.5 87.7611 24.8201 83.5 30.1667 83.5C35.5132 83.5 39.8333 87.7611 39.8333 93Z" fill="#616161" stroke="#C4C4C4"/>
<path d="M30.1667 85L37.2103 89V97L30.1667 101L23.123 97V89L30.1667 85Z" fill="#A5A5A5"/>
<path d="M30.1667 98.5C33.2424 98.5 35.75 96.0453 35.75 93C35.75 89.9547 33.2424 87.5 30.1667 87.5C27.0909 87.5 24.5833 89.9547 24.5833 93C24.5833 96.0453 27.0909 98.5 30.1667 98.5Z" fill="black" stroke="#E5E5E5"/>
<path d="M19.4736 203.925H20.7476C21.2609 203.925 21.6949 204.002 22.0496 204.156C22.4043 204.31 22.6913 204.513 22.9106 204.765C23.1346 205.012 23.2956 205.292 23.3936 205.605C23.4963 205.913 23.5476 206.221 23.5476 206.529C23.5476 206.907 23.4799 207.25 23.3446 207.558C23.2093 207.861 23.0249 208.12 22.7916 208.335C22.5583 208.55 22.2876 208.715 21.9796 208.832C21.6716 208.944 21.3449 209 20.9996 209H19.4736V203.925ZM20.8876 208.272C21.1583 208.272 21.4079 208.232 21.6366 208.153C21.8699 208.074 22.0706 207.959 22.2386 207.81C22.4113 207.656 22.5443 207.469 22.6376 207.25C22.7356 207.026 22.7846 206.769 22.7846 206.48C22.7846 206.172 22.7309 205.904 22.6236 205.675C22.5163 205.446 22.3763 205.257 22.2036 205.108C22.0309 204.954 21.8349 204.842 21.6156 204.772C21.4009 204.697 21.1816 204.66 20.9576 204.66H20.2366V208.272H20.8876ZM24.4501 209V203.925H27.7821V204.618H25.2201V206.102H27.5021V206.809H25.2201V208.293H27.8801V209H24.4501ZM32.4476 208.636C32.3916 208.678 32.3123 208.725 32.2096 208.776C32.1116 208.823 31.9949 208.867 31.8596 208.909C31.7243 208.951 31.5726 208.986 31.4046 209.014C31.2413 209.042 31.0663 209.056 30.8796 209.056C30.4829 209.056 30.1259 208.988 29.8086 208.853C29.4959 208.713 29.2299 208.526 29.0106 208.293C28.7913 208.06 28.6233 207.789 28.5066 207.481C28.3899 207.173 28.3316 206.846 28.3316 206.501C28.3316 206.118 28.3993 205.766 28.5346 205.444C28.6746 205.122 28.8636 204.844 29.1016 204.611C29.3396 204.378 29.6173 204.196 29.9346 204.065C30.2566 203.934 30.5973 203.869 30.9566 203.869C31.0919 203.869 31.2296 203.878 31.3696 203.897C31.5096 203.916 31.6403 203.941 31.7616 203.974C31.8876 204.007 31.9973 204.046 32.0906 204.093C32.1886 204.135 32.2633 204.179 32.3146 204.226C32.2773 204.282 32.2469 204.329 32.2236 204.366C32.2049 204.403 32.1839 204.443 32.1606 204.485C32.1373 204.522 32.1116 204.567 32.0836 204.618C32.0556 204.669 32.0183 204.737 31.9716 204.821C31.9109 204.779 31.8386 204.744 31.7546 204.716C31.6753 204.688 31.5913 204.665 31.5026 204.646C31.4139 204.627 31.3229 204.613 31.2296 204.604C31.1409 204.595 31.0593 204.59 30.9846 204.59C30.7139 204.59 30.4619 204.641 30.2286 204.744C29.9999 204.842 29.8016 204.977 29.6336 205.15C29.4656 205.318 29.3326 205.514 29.2346 205.738C29.1413 205.962 29.0946 206.195 29.0946 206.438C29.0946 206.676 29.1389 206.905 29.2276 207.124C29.3209 207.343 29.4469 207.539 29.6056 207.712C29.7689 207.885 29.9626 208.022 30.1866 208.125C30.4153 208.228 30.6649 208.279 30.9356 208.279C31.0803 208.279 31.2203 208.265 31.3556 208.237C31.4909 208.209 31.6123 208.176 31.7196 208.139C31.8316 208.102 31.9226 208.064 31.9926 208.027C32.0673 207.99 32.1116 207.962 32.1256 207.943L32.4476 208.636ZM36.2885 209C36.2651 208.949 36.2325 208.874 36.1905 208.776C36.1485 208.678 36.0995 208.566 36.0435 208.44C35.9921 208.309 35.9338 208.169 35.8685 208.02C35.8078 207.866 35.7448 207.707 35.6795 207.544H33.8875L33.2855 209H32.5295L34.7905 203.687C34.8185 203.752 34.8675 203.871 34.9375 204.044C35.0121 204.217 35.0985 204.424 35.1965 204.667C35.2991 204.905 35.4111 205.171 35.5325 205.465C35.6585 205.754 35.7845 206.048 35.9105 206.347C36.0411 206.646 36.1671 206.94 36.2885 207.229C36.4145 207.518 36.5288 207.784 36.6315 208.027C36.7341 208.27 36.8205 208.477 36.8905 208.65C36.9651 208.818 37.0165 208.935 37.0445 209H36.2885ZM34.1535 206.9H35.4205C35.3551 206.746 35.2921 206.599 35.2315 206.459C35.1755 206.314 35.1218 206.184 35.0705 206.067C35.0238 205.946 34.9818 205.841 34.9445 205.752C34.9071 205.663 34.8791 205.593 34.8605 205.542C34.8558 205.533 34.8441 205.5 34.8255 205.444C34.8115 205.388 34.7998 205.337 34.7905 205.29C34.7811 205.337 34.7671 205.388 34.7485 205.444C34.7298 205.5 34.7181 205.533 34.7135 205.542L34.1535 206.9ZM39.2367 207.327V209H38.4667V207.327C38.434 207.276 38.3687 207.164 38.2707 206.991C38.1773 206.818 38.0653 206.615 37.9347 206.382C37.8087 206.144 37.671 205.892 37.5217 205.626C37.377 205.36 37.2393 205.11 37.1087 204.877C36.9827 204.639 36.8707 204.434 36.7727 204.261C36.6793 204.088 36.6163 203.976 36.5837 203.925H37.4517C37.4937 203.995 37.5683 204.13 37.6757 204.331C37.783 204.527 37.902 204.751 38.0327 205.003C38.1633 205.25 38.2963 205.502 38.4317 205.759C38.567 206.011 38.6813 206.228 38.7747 206.41L38.8517 206.641C38.8703 206.604 38.8867 206.566 38.9007 206.529C38.9147 206.487 38.9287 206.447 38.9427 206.41C39.0407 206.228 39.155 206.011 39.2857 205.759C39.4163 205.502 39.5447 205.25 39.6707 205.003C39.8013 204.751 39.918 204.527 40.0207 204.331C40.128 204.13 40.2027 203.995 40.2447 203.925H41.1057L39.2367 207.327Z" fill="#C4C4C4"/>
<mask id="mask1" mask-type="alpha" maskUnits="userSpaceOnUse" x="9" y="132" width="42" height="42">
<circle cx="30" cy="153" r="21" fill="#C4C4C4"/>
</mask>
<g mask="url(#mask1)">
<line x1="6.64645" y1="176.646" x2="53.4926" y2="129.8" stroke="#C6C6C6"/>
<line x1="7.35662" y1="129.65" x2="53.3951" y2="176.496" stroke="#C6C6C6"/>
<line x1="6" y1="153.5" x2="54.4615" y2="153.5" stroke="#C6C6C6"/>
<line x1="29.5" y1="151" x2="29.5" y2="127.577" stroke="#C6C6C6"/>
</g>
<circle cx="30" cy="153" r="18" transform="rotate(-180 30 153)" fill="#222222"/>
<circle cx="30" cy="153" r="16" transform="rotate(-180 30 153)" fill="black"/>
<rect x="31" y="153" width="3" height="16" transform="rotate(-180 31 153)" fill="#E5E5E5"/>
<path d="M39.8333 186C39.8333 191.239 35.5132 195.5 30.1667 195.5C24.8201 195.5 20.5 191.239 20.5 186C20.5 180.761 24.8201 176.5 30.1667 176.5C35.5132 176.5 39.8333 180.761 39.8333 186Z" fill="#616161" stroke="#C4C4C4"/>
<path d="M30.1667 178L37.2103 182V190L30.1667 194L23.123 190V182L30.1667 178Z" fill="#A5A5A5"/>
<path d="M30.1667 191.5C33.2424 191.5 35.75 189.045 35.75 186C35.75 182.955 33.2424 180.5 30.1667 180.5C27.0909 180.5 24.5833 182.955 24.5833 186C24.5833 189.045 27.0909 191.5 30.1667 191.5Z" fill="black" stroke="#E5E5E5"/>
<path d="M21.9741 283V277.925H23.3601C23.6261 277.925 23.8687 277.96 24.0881 278.03C24.3121 278.1 24.5034 278.205 24.6621 278.345C24.8254 278.48 24.9514 278.648 25.0401 278.849C25.1287 279.045 25.1731 279.271 25.1731 279.528C25.1731 279.668 25.1591 279.808 25.1311 279.948C25.1031 280.083 25.0564 280.216 24.9911 280.347C24.9304 280.473 24.8511 280.592 24.7531 280.704C24.6551 280.811 24.5361 280.902 24.3961 280.977C24.5827 281.271 24.7857 281.598 25.0051 281.957C25.2244 282.312 25.4461 282.659 25.6701 283H24.7531C24.6597 282.855 24.5617 282.704 24.4591 282.545C24.3611 282.386 24.2607 282.23 24.1581 282.076C24.0601 281.917 23.9621 281.763 23.8641 281.614C23.7707 281.46 23.6821 281.318 23.5981 281.187H23.4581H22.7441V283H21.9741ZM22.7441 280.466H23.4371C23.6237 280.466 23.7801 280.436 23.9061 280.375C24.0321 280.31 24.1301 280.23 24.2001 280.137C24.2747 280.044 24.3261 279.943 24.3541 279.836C24.3867 279.729 24.4031 279.631 24.4031 279.542C24.4031 279.453 24.3867 279.358 24.3541 279.255C24.3261 279.148 24.2747 279.05 24.2001 278.961C24.1254 278.868 24.0251 278.791 23.8991 278.73C23.7777 278.669 23.6261 278.639 23.4441 278.639H22.7441V280.466ZM29.5126 283C29.4892 282.949 29.4566 282.874 29.4146 282.776C29.3726 282.678 29.3236 282.566 29.2676 282.44C29.2162 282.309 29.1579 282.169 29.0926 282.02C29.0319 281.866 28.9689 281.707 28.9036 281.544H27.1116L26.5096 283H25.7536L28.0146 277.687C28.0426 277.752 28.0916 277.871 28.1616 278.044C28.2362 278.217 28.3226 278.424 28.4206 278.667C28.5232 278.905 28.6352 279.171 28.7566 279.465C28.8826 279.754 29.0086 280.048 29.1346 280.347C29.2652 280.646 29.3912 280.94 29.5126 281.229C29.6386 281.518 29.7529 281.784 29.8556 282.027C29.9582 282.27 30.0446 282.477 30.1146 282.65C30.1892 282.818 30.2406 282.935 30.2686 283H29.5126ZM27.3776 280.9H28.6446C28.5792 280.746 28.5162 280.599 28.4556 280.459C28.3996 280.314 28.3459 280.184 28.2946 280.067C28.2479 279.946 28.2059 279.841 28.1686 279.752C28.1312 279.663 28.1032 279.593 28.0846 279.542C28.0799 279.533 28.0682 279.5 28.0496 279.444C28.0356 279.388 28.0239 279.337 28.0146 279.29C28.0052 279.337 27.9912 279.388 27.9726 279.444C27.9539 279.5 27.9422 279.533 27.9376 279.542L27.3776 280.9ZM30.9018 277.701C30.9438 277.766 31.0301 277.892 31.1608 278.079C31.2961 278.261 31.4501 278.473 31.6228 278.716C31.8001 278.959 31.9868 279.218 32.1828 279.493C32.3788 279.764 32.5631 280.02 32.7358 280.263C32.9085 280.501 33.0578 280.709 33.1838 280.886C33.3145 281.063 33.4008 281.18 33.4428 281.236C33.4568 281.213 33.5011 281.15 33.5758 281.047C33.6505 280.944 33.7415 280.816 33.8488 280.662C33.9608 280.508 34.0868 280.335 34.2268 280.144C34.3668 279.948 34.5091 279.75 34.6538 279.549C34.8031 279.344 34.9478 279.141 35.0878 278.94C35.2325 278.739 35.3655 278.557 35.4868 278.394C35.6081 278.226 35.7108 278.081 35.7948 277.96C35.8835 277.834 35.9465 277.748 35.9838 277.701V283H35.1718V280.158C35.1718 280.121 35.1741 280.081 35.1788 280.039C35.1881 279.997 35.1928 279.967 35.1928 279.948C35.1508 280.004 35.0831 280.1 34.9898 280.235C34.9011 280.366 34.7961 280.517 34.6748 280.69C34.5581 280.858 34.4345 281.038 34.3038 281.229C34.1731 281.416 34.0495 281.593 33.9328 281.761C33.8161 281.929 33.7135 282.078 33.6248 282.209C33.5361 282.335 33.4755 282.424 33.4428 282.475C33.4101 282.433 33.3448 282.347 33.2468 282.216C33.1535 282.081 33.0415 281.924 32.9108 281.747C32.7848 281.57 32.6495 281.381 32.5048 281.18C32.3648 280.979 32.2341 280.793 32.1128 280.62C31.9915 280.447 31.8865 280.3 31.7978 280.179C31.7091 280.053 31.6578 279.976 31.6438 279.948C31.6438 279.967 31.6461 279.997 31.6508 280.039C31.6601 280.081 31.6648 280.121 31.6648 280.158V283H30.9018V277.701ZM38.0019 280.466H38.6949C38.8816 280.466 39.0379 280.433 39.1639 280.368C39.2899 280.303 39.3879 280.223 39.4579 280.13C39.5326 280.037 39.5839 279.936 39.6119 279.829C39.6446 279.722 39.6609 279.626 39.6609 279.542C39.6609 279.453 39.6446 279.358 39.6119 279.255C39.5839 279.148 39.5326 279.05 39.4579 278.961C39.3832 278.868 39.2829 278.791 39.1569 278.73C39.0356 278.669 38.8839 278.639 38.7019 278.639H38.0019V280.466ZM37.2319 283V277.925H38.6179C38.8839 277.925 39.1266 277.96 39.3459 278.03C39.5699 278.1 39.7612 278.205 39.9199 278.345C40.0832 278.48 40.2092 278.648 40.2979 278.849C40.3866 279.045 40.4309 279.271 40.4309 279.528C40.4309 279.729 40.4006 279.929 40.3399 280.13C40.2792 280.326 40.1812 280.503 40.0459 280.662C39.9106 280.816 39.7332 280.942 39.5139 281.04C39.2946 281.138 39.0286 281.187 38.7159 281.187H38.0019V283H37.2319Z" fill="#C4C4C4"/>
<path d="M10.623 239V233.925H13.955V234.618H11.393V236.102H13.675V236.809H11.393V238.293H14.053V239H10.623ZM16.0283 236.403L14.4393 233.925H15.3773C15.4006 233.962 15.4403 234.025 15.4963 234.114C15.5523 234.203 15.6153 234.305 15.6853 234.422C15.7553 234.534 15.83 234.655 15.9093 234.786C15.9886 234.912 16.0633 235.033 16.1333 235.15C16.2033 235.262 16.264 235.362 16.3153 235.451C16.3713 235.54 16.411 235.603 16.4343 235.64C16.439 235.649 16.4553 235.682 16.4833 235.738C16.5113 235.789 16.5323 235.836 16.5463 235.878C16.5603 235.836 16.5813 235.789 16.6093 235.738C16.6373 235.682 16.6536 235.649 16.6583 235.64C16.6816 235.603 16.719 235.54 16.7703 235.451C16.8263 235.362 16.887 235.262 16.9523 235.15C17.0223 235.033 17.0946 234.912 17.1693 234.786C17.244 234.655 17.314 234.534 17.3793 234.422C17.4493 234.305 17.51 234.203 17.5613 234.114C17.6173 234.025 17.657 233.962 17.6803 233.925H18.6183C18.5903 233.967 18.5366 234.053 18.4573 234.184C18.378 234.31 18.2823 234.459 18.1703 234.632C18.063 234.805 17.9486 234.989 17.8273 235.185C17.706 235.381 17.5893 235.565 17.4773 235.738C17.37 235.911 17.2743 236.062 17.1903 236.193C17.111 236.319 17.0596 236.403 17.0363 236.445L18.6883 239H17.7363L16.7003 237.334C16.691 237.32 16.677 237.299 16.6583 237.271C16.6396 237.243 16.621 237.213 16.6023 237.18C16.5836 237.143 16.565 237.108 16.5463 237.075C16.5276 237.042 16.5136 237.017 16.5043 236.998C16.4903 237.04 16.4716 237.084 16.4483 237.131C16.425 237.178 16.411 237.203 16.4063 237.208C16.369 237.269 16.2966 237.385 16.1893 237.558C16.0866 237.726 15.977 237.908 15.8603 238.104C15.7483 238.3 15.6386 238.484 15.5313 238.657C15.4286 238.825 15.3586 238.939 15.3213 239H14.3693L16.0283 236.403ZM20.1293 236.466H20.8223C21.009 236.466 21.1653 236.433 21.2913 236.368C21.4173 236.303 21.5153 236.223 21.5853 236.13C21.66 236.037 21.7113 235.936 21.7393 235.829C21.772 235.722 21.7883 235.626 21.7883 235.542C21.7883 235.453 21.772 235.358 21.7393 235.255C21.7113 235.148 21.66 235.05 21.5853 234.961C21.5107 234.868 21.4103 234.791 21.2843 234.73C21.163 234.669 21.0113 234.639 20.8293 234.639H20.1293V236.466ZM19.3593 239V233.925H20.7453C21.0113 233.925 21.254 233.96 21.4733 234.03C21.6973 234.1 21.8887 234.205 22.0473 234.345C22.2107 234.48 22.3367 234.648 22.4253 234.849C22.514 235.045 22.5583 235.271 22.5583 235.528C22.5583 235.729 22.528 235.929 22.4673 236.13C22.4067 236.326 22.3087 236.503 22.1733 236.662C22.038 236.816 21.8607 236.942 21.6413 237.04C21.422 237.138 21.156 237.187 20.8433 237.187H20.1293V239H19.3593Z" fill="#C4C4C4"/>
<path d="M40.913 239V233.925H41.683V238.272H44.203V239H40.913ZM44.9121 233.925H45.6751V239H44.9121V233.925ZM51.3738 233.925V239.231C51.3085 239.147 51.1825 239.012 50.9958 238.825C50.8092 238.638 50.5945 238.424 50.3518 238.181C50.1092 237.938 49.8502 237.684 49.5748 237.418C49.3042 237.152 49.0475 236.9 48.8048 236.662C48.5622 236.419 48.3498 236.205 48.1678 236.018C47.9858 235.827 47.8645 235.691 47.8038 235.612L47.6708 235.43L47.6918 235.654V239H46.9218V233.687C46.9732 233.752 47.0572 233.846 47.1738 233.967C47.2952 234.088 47.4352 234.231 47.5938 234.394C47.7572 234.553 47.9345 234.725 48.1258 234.912C48.3218 235.099 48.5178 235.288 48.7138 235.479C48.9145 235.67 49.1105 235.859 49.3018 236.046C49.4978 236.228 49.6752 236.398 49.8338 236.557C49.9972 236.716 50.1372 236.856 50.2538 236.977C50.3705 237.098 50.4522 237.189 50.4988 237.25L50.6318 237.446L50.6108 237.208V233.925H51.3738Z" fill="#C4C4C4"/>
<rect x="15" y="245" width="32" height="18" rx="9" fill="#A5A5A5"/>
<path d="M31 254.071C31 257.937 27.866 261.071 24 261.071C20.134 261.071 17 257.937 17 254.071C17 250.205 20.134 247.071 24 247.071C27.866 247.071 31 250.205 31 254.071Z" fill="#333333"/>
</svg>
