<svg width="92" height="386" viewBox="0 0 92 386" fill="none" xmlns="http://www.w3.org/2000/svg">
<rect x="0.5" y="0.5" width="90.44" height="384.5" fill="#333333" stroke="#161616"/>
<path d="M32.6964 376V371.65H33.8844C34.1124 371.65 34.3204 371.68 34.5084 371.74C34.7004 371.8 34.8644 371.89 35.0004 372.01C35.1404 372.126 35.2484 372.27 35.3244 372.442C35.4004 372.61 35.4384 372.804 35.4384 373.024C35.4384 373.144 35.4264 373.264 35.4024 373.384C35.3784 373.5 35.3384 373.614 35.2824 373.726C35.2304 373.834 35.1624 373.936 35.0784 374.032C34.9944 374.124 34.8924 374.202 34.7724 374.266C34.9324 374.518 35.1064 374.798 35.2944 375.106C35.4824 375.41 35.6724 375.708 35.8644 376H35.0784C34.9984 375.876 34.9144 375.746 34.8264 375.61C34.7424 375.474 34.6564 375.34 34.5684 375.208C34.4844 375.072 34.4004 374.94 34.3164 374.812C34.2364 374.68 34.1604 374.558 34.0884 374.446H33.9684H33.3564V376H32.6964ZM33.3564 373.828H33.9504C34.1104 373.828 34.2444 373.802 34.3524 373.75C34.4604 373.694 34.5444 373.626 34.6044 373.546C34.6684 373.466 34.7124 373.38 34.7364 373.288C34.7644 373.196 34.7784 373.112 34.7784 373.036C34.7784 372.96 34.7644 372.878 34.7364 372.79C34.7124 372.698 34.6684 372.614 34.6044 372.538C34.5404 372.458 34.4544 372.392 34.3464 372.34C34.2424 372.288 34.1124 372.262 33.9564 372.262H33.3564V373.828ZM39.158 376C39.138 375.956 39.11 375.892 39.074 375.808C39.038 375.724 38.996 375.628 38.948 375.52C38.904 375.408 38.854 375.288 38.798 375.16C38.746 375.028 38.692 374.892 38.636 374.752H37.1L36.584 376H35.936L37.874 371.446C37.898 371.502 37.94 371.604 38 371.752C38.064 371.9 38.138 372.078 38.222 372.286C38.31 372.49 38.406 372.718 38.51 372.97C38.618 373.218 38.726 373.47 38.834 373.726C38.946 373.982 39.054 374.234 39.158 374.482C39.266 374.73 39.364 374.958 39.452 375.166C39.54 375.374 39.614 375.552 39.674 375.7C39.738 375.844 39.782 375.944 39.806 376H39.158ZM37.328 374.2H38.414C38.358 374.068 38.304 373.942 38.252 373.822C38.204 373.698 38.158 373.586 38.114 373.486C38.074 373.382 38.038 373.292 38.006 373.216C37.974 373.14 37.95 373.08 37.934 373.036C37.93 373.028 37.92 373 37.904 372.952C37.892 372.904 37.882 372.86 37.874 372.82C37.866 372.86 37.854 372.904 37.838 372.952C37.822 373 37.812 373.028 37.808 373.036L37.328 374.2ZM43.4127 375.688C43.3647 375.724 43.2967 375.764 43.2087 375.808C43.1247 375.848 43.0247 375.886 42.9087 375.922C42.7927 375.958 42.6627 375.988 42.5187 376.012C42.3787 376.036 42.2287 376.048 42.0687 376.048C41.7287 376.048 41.4227 375.99 41.1507 375.874C40.8827 375.754 40.6547 375.594 40.4667 375.394C40.2787 375.194 40.1347 374.962 40.0347 374.698C39.9347 374.434 39.8847 374.154 39.8847 373.858C39.8847 373.53 39.9427 373.228 40.0587 372.952C40.1787 372.676 40.3407 372.438 40.5447 372.238C40.7487 372.038 40.9867 371.882 41.2587 371.77C41.5347 371.658 41.8267 371.602 42.1347 371.602C42.2507 371.602 42.3687 371.61 42.4887 371.626C42.6087 371.642 42.7207 371.664 42.8247 371.692C42.9327 371.72 43.0267 371.754 43.1067 371.794C43.1907 371.83 43.2547 371.868 43.2987 371.908C43.2667 371.956 43.2407 371.996 43.2207 372.028C43.2047 372.06 43.1867 372.094 43.1667 372.13C43.1467 372.162 43.1247 372.2 43.1007 372.244C43.0767 372.288 43.0447 372.346 43.0047 372.418C42.9527 372.382 42.8907 372.352 42.8187 372.328C42.7507 372.304 42.6787 372.284 42.6027 372.268C42.5267 372.252 42.4487 372.24 42.3687 372.232C42.2927 372.224 42.2227 372.22 42.1587 372.22C41.9267 372.22 41.7107 372.264 41.5107 372.352C41.3147 372.436 41.1447 372.552 41.0007 372.7C40.8567 372.844 40.7427 373.012 40.6587 373.204C40.5787 373.396 40.5387 373.596 40.5387 373.804C40.5387 374.008 40.5767 374.204 40.6527 374.392C40.7327 374.58 40.8407 374.748 40.9767 374.896C41.1167 375.044 41.2827 375.162 41.4747 375.25C41.6707 375.338 41.8847 375.382 42.1167 375.382C42.2407 375.382 42.3607 375.37 42.4767 375.346C42.5927 375.322 42.6967 375.294 42.7887 375.262C42.8847 375.23 42.9627 375.198 43.0227 375.166C43.0867 375.134 43.1247 375.11 43.1367 375.094L43.4127 375.688ZM46.5908 376C46.4508 375.82 46.3168 375.648 46.1888 375.484C46.0608 375.32 45.9348 375.156 45.8108 374.992C45.6868 374.828 45.5608 374.662 45.4328 374.494C45.3088 374.326 45.1768 374.152 45.0368 373.972C44.9848 374.028 44.9348 374.08 44.8868 374.128C44.8388 374.172 44.7868 374.218 44.7308 374.266C44.7308 374.574 44.7308 374.864 44.7308 375.136C44.7348 375.404 44.7368 375.692 44.7368 376H44.0108V371.65H44.7368V373.276C44.7368 373.312 44.7328 373.348 44.7248 373.384C44.7208 373.416 44.7188 373.45 44.7188 373.486C44.7388 373.458 44.7588 373.434 44.7788 373.414C44.7988 373.39 44.8188 373.362 44.8388 373.33C45.1228 373.062 45.3968 372.784 45.6608 372.496C45.9248 372.204 46.1988 371.922 46.4828 371.65H47.3168C47.0168 371.962 46.7188 372.276 46.4228 372.592C46.1308 372.908 45.8348 373.222 45.5348 373.534C45.7028 373.75 45.8628 373.96 46.0148 374.164C46.1708 374.364 46.3228 374.564 46.4708 374.764C46.6228 374.964 46.7748 375.166 46.9268 375.37C47.0788 375.574 47.2368 375.784 47.4008 376H46.5908ZM47.8956 376V371.65H48.5556V375.376H50.7156V376H47.8956ZM51.3233 376V371.65H54.1793V372.244H51.9833V373.516H53.9393V374.122H51.9833V375.394H54.2633V376H51.3233ZM57.5165 371.89L57.2825 372.424C57.1185 372.364 56.9545 372.316 56.7905 372.28C56.6305 372.244 56.4765 372.226 56.3285 372.226C56.0765 372.226 55.8745 372.278 55.7225 372.382C55.5745 372.486 55.5005 372.618 55.5005 372.778C55.5005 372.914 55.5545 373.024 55.6625 373.108C55.7705 373.188 55.9045 373.262 56.0645 373.33C56.2245 373.394 56.3985 373.46 56.5865 373.528C56.7745 373.592 56.9485 373.676 57.1085 373.78C57.2685 373.884 57.4025 374.016 57.5105 374.176C57.6185 374.332 57.6725 374.534 57.6725 374.782C57.6725 374.974 57.6365 375.148 57.5645 375.304C57.4965 375.456 57.3925 375.588 57.2525 375.7C57.1165 375.812 56.9445 375.898 56.7365 375.958C56.5325 376.018 56.2925 376.048 56.0165 376.048C55.8405 376.048 55.6805 376.036 55.5365 376.012C55.3965 375.988 55.2685 375.958 55.1525 375.922C55.0405 375.882 54.9405 375.84 54.8525 375.796C54.7685 375.752 54.6965 375.712 54.6365 375.676L54.9245 375.106C55.0845 375.198 55.2625 375.272 55.4585 375.328C55.6545 375.384 55.8325 375.412 55.9925 375.412C56.0725 375.412 56.1705 375.402 56.2865 375.382C56.4065 375.362 56.5205 375.328 56.6285 375.28C56.7365 375.228 56.8285 375.16 56.9045 375.076C56.9845 374.992 57.0245 374.886 57.0245 374.758C57.0245 374.642 56.9925 374.544 56.9285 374.464C56.8685 374.38 56.7865 374.308 56.6825 374.248C56.5825 374.184 56.4665 374.128 56.3345 374.08C56.2065 374.028 56.0745 373.976 55.9385 373.924C55.8025 373.868 55.6685 373.81 55.5365 373.75C55.4085 373.69 55.2925 373.618 55.1885 373.534C55.0885 373.446 55.0065 373.346 54.9425 373.234C54.8825 373.118 54.8525 372.98 54.8525 372.82C54.8525 372.672 54.8825 372.526 54.9425 372.382C55.0025 372.238 55.0925 372.11 55.2125 371.998C55.3325 371.886 55.4805 371.796 55.6565 371.728C55.8365 371.66 56.0445 371.626 56.2805 371.626C56.4245 371.626 56.5645 371.638 56.7005 371.662C56.8405 371.686 56.9665 371.714 57.0785 371.746C57.1905 371.774 57.2845 371.802 57.3605 371.83C57.4405 371.858 57.4925 371.878 57.5165 371.89ZM60.909 371.89L60.675 372.424C60.511 372.364 60.347 372.316 60.183 372.28C60.023 372.244 59.869 372.226 59.721 372.226C59.469 372.226 59.267 372.278 59.115 372.382C58.967 372.486 58.893 372.618 58.893 372.778C58.893 372.914 58.947 373.024 59.055 373.108C59.163 373.188 59.297 373.262 59.457 373.33C59.617 373.394 59.791 373.46 59.979 373.528C60.167 373.592 60.341 373.676 60.501 373.78C60.661 373.884 60.795 374.016 60.903 374.176C61.011 374.332 61.065 374.534 61.065 374.782C61.065 374.974 61.029 375.148 60.957 375.304C60.889 375.456 60.785 375.588 60.645 375.7C60.509 375.812 60.337 375.898 60.129 375.958C59.925 376.018 59.685 376.048 59.409 376.048C59.233 376.048 59.073 376.036 58.929 376.012C58.789 375.988 58.661 375.958 58.545 375.922C58.433 375.882 58.333 375.84 58.245 375.796C58.161 375.752 58.089 375.712 58.029 375.676L58.317 375.106C58.477 375.198 58.655 375.272 58.851 375.328C59.047 375.384 59.225 375.412 59.385 375.412C59.465 375.412 59.563 375.402 59.679 375.382C59.799 375.362 59.913 375.328 60.021 375.28C60.129 375.228 60.221 375.16 60.297 375.076C60.377 374.992 60.417 374.886 60.417 374.758C60.417 374.642 60.385 374.544 60.321 374.464C60.261 374.38 60.179 374.308 60.075 374.248C59.975 374.184 59.859 374.128 59.727 374.08C59.599 374.028 59.467 373.976 59.331 373.924C59.195 373.868 59.061 373.81 58.929 373.75C58.801 373.69 58.685 373.618 58.581 373.534C58.481 373.446 58.399 373.346 58.335 373.234C58.275 373.118 58.245 372.98 58.245 372.82C58.245 372.672 58.275 372.526 58.335 372.382C58.395 372.238 58.485 372.11 58.605 371.998C58.725 371.886 58.873 371.796 59.049 371.728C59.229 371.66 59.437 371.626 59.673 371.626C59.817 371.626 59.957 371.638 60.093 371.662C60.233 371.686 60.359 371.714 60.471 371.746C60.583 371.774 60.677 371.802 60.753 371.83C60.833 371.858 60.885 371.878 60.909 371.89Z" fill="#C4C4C4"/>
<path d="M30.728 21C30.698 20.934 30.656 20.838 30.602 20.712C30.548 20.586 30.485 20.442 30.413 20.28C30.347 20.112 30.272 19.932 30.188 19.74C30.11 19.542 30.029 19.338 29.945 19.128H27.641L26.867 21H25.895L28.802 14.169C28.838 14.253 28.901 14.406 28.991 14.628C29.087 14.85 29.198 15.117 29.324 15.429C29.456 15.735 29.6 16.077 29.756 16.455C29.918 16.827 30.08 17.205 30.242 17.589C30.41 17.973 30.572 18.351 30.728 18.723C30.89 19.095 31.037 19.437 31.169 19.749C31.301 20.061 31.412 20.328 31.502 20.55C31.598 20.766 31.664 20.916 31.7 21H30.728ZM27.983 18.3H29.612C29.528 18.102 29.447 17.913 29.369 17.733C29.297 17.547 29.228 17.379 29.162 17.229C29.102 17.073 29.048 16.938 29 16.824C28.952 16.71 28.916 16.62 28.892 16.554C28.886 16.542 28.871 16.5 28.847 16.428C28.829 16.356 28.814 16.29 28.802 16.23C28.79 16.29 28.772 16.356 28.748 16.428C28.724 16.5 28.709 16.542 28.703 16.554L27.983 18.3ZM32.5142 14.187C32.5682 14.271 32.6792 14.433 32.8472 14.673C33.0212 14.907 33.2192 15.18 33.4412 15.492C33.6692 15.804 33.9092 16.137 34.1612 16.491C34.4132 16.839 34.6502 17.169 34.8722 17.481C35.0942 17.787 35.2862 18.054 35.4482 18.282C35.6162 18.51 35.7272 18.66 35.7812 18.732C35.7992 18.702 35.8562 18.621 35.9522 18.489C36.0482 18.357 36.1652 18.192 36.3032 17.994C36.4472 17.796 36.6092 17.574 36.7892 17.328C36.9692 17.076 37.1522 16.821 37.3382 16.563C37.5302 16.299 37.7162 16.038 37.8962 15.78C38.0822 15.522 38.2532 15.288 38.4092 15.078C38.5652 14.862 38.6972 14.676 38.8052 14.52C38.9192 14.358 39.0002 14.247 39.0482 14.187V21H38.0042V17.346C38.0042 17.298 38.0072 17.247 38.0132 17.193C38.0252 17.139 38.0312 17.1 38.0312 17.076C37.9772 17.148 37.8902 17.271 37.7702 17.445C37.6562 17.613 37.5212 17.808 37.3652 18.03C37.2152 18.246 37.0562 18.477 36.8882 18.723C36.7202 18.963 36.5612 19.191 36.4112 19.407C36.2612 19.623 36.1292 19.815 36.0152 19.983C35.9012 20.145 35.8232 20.259 35.7812 20.325C35.7392 20.271 35.6552 20.16 35.5292 19.992C35.4092 19.818 35.2652 19.617 35.0972 19.389C34.9352 19.161 34.7612 18.918 34.5752 18.66C34.3952 18.402 34.2272 18.162 34.0712 17.94C33.9152 17.718 33.7802 17.529 33.6662 17.373C33.5522 17.211 33.4862 17.112 33.4682 17.076C33.4682 17.1 33.4712 17.139 33.4772 17.193C33.4892 17.247 33.4952 17.298 33.4952 17.346V21H32.5142V14.187ZM41.6428 17.742H42.5338C42.7738 17.742 42.9748 17.7 43.1368 17.616C43.2988 17.532 43.4248 17.43 43.5148 17.31C43.6108 17.19 43.6768 17.061 43.7128 16.923C43.7548 16.785 43.7758 16.662 43.7758 16.554C43.7758 16.44 43.7548 16.317 43.7128 16.185C43.6768 16.047 43.6108 15.921 43.5148 15.807C43.4188 15.687 43.2898 15.588 43.1278 15.51C42.9718 15.432 42.7768 15.393 42.5428 15.393H41.6428V17.742ZM40.6528 21V14.475H42.4348C42.7768 14.475 43.0888 14.52 43.3708 14.61C43.6588 14.7 43.9048 14.835 44.1088 15.015C44.3188 15.189 44.4808 15.405 44.5948 15.663C44.7088 15.915 44.7658 16.206 44.7658 16.536C44.7658 16.794 44.7268 17.052 44.6488 17.31C44.5708 17.562 44.4448 17.79 44.2708 17.994C44.0968 18.192 43.8688 18.354 43.5868 18.48C43.3048 18.606 42.9628 18.669 42.5608 18.669H41.6428V21H40.6528ZM45.8472 21V14.475H46.8372V20.064H50.0772V21H45.8472ZM50.9888 14.475H51.9698V21H50.9888V14.475ZM53.5728 21V14.475H57.4788V15.384H54.5538V17.355H57.1098V18.273H54.5538V21H53.5728ZM58.5649 14.475H59.5459V21H58.5649V14.475ZM61.1489 21V14.475H65.4329V15.366H62.1389V17.274H65.0729V18.183H62.1389V20.091H65.5589V21H61.1489ZM66.7036 21V14.475H68.4856C68.8276 14.475 69.1396 14.52 69.4216 14.61C69.7096 14.7 69.9556 14.835 70.1596 15.015C70.3696 15.189 70.5316 15.405 70.6456 15.663C70.7596 15.915 70.8166 16.206 70.8166 16.536C70.8166 16.716 70.7986 16.896 70.7626 17.076C70.7266 17.25 70.6666 17.421 70.5826 17.589C70.5046 17.751 70.4026 17.904 70.2766 18.048C70.1506 18.186 69.9976 18.303 69.8176 18.399C70.0576 18.777 70.3186 19.197 70.6006 19.659C70.8826 20.115 71.1676 20.562 71.4556 21H70.2766C70.1566 20.814 70.0306 20.619 69.8986 20.415C69.7726 20.211 69.6436 20.01 69.5116 19.812C69.3856 19.608 69.2596 19.41 69.1336 19.218C69.0136 19.02 68.8996 18.837 68.7916 18.669H68.6116H67.6936V21H66.7036ZM67.6936 17.742H68.5846C68.8246 17.742 69.0256 17.703 69.1876 17.625C69.3496 17.541 69.4756 17.439 69.5656 17.319C69.6616 17.199 69.7276 17.07 69.7636 16.932C69.8056 16.794 69.8266 16.668 69.8266 16.554C69.8266 16.44 69.8056 16.317 69.7636 16.185C69.7276 16.047 69.6616 15.921 69.5656 15.807C69.4696 15.687 69.3406 15.588 69.1786 15.51C69.0226 15.432 68.8276 15.393 68.5936 15.393H67.6936V17.742Z" fill="#C4C4C4"/>
<path d="M55.0307 227V221.925H55.8007V226.272H58.3207V227H55.0307ZM59.0297 227V221.925H62.3617V222.618H59.7997V224.102H62.0817V224.809H59.7997V226.293H62.4597V227H59.0297ZM63.4971 221.925C63.5297 222.004 63.5834 222.135 63.6581 222.317C63.7327 222.494 63.8167 222.697 63.9101 222.926C64.0081 223.155 64.1084 223.397 64.2111 223.654C64.3184 223.911 64.4187 224.153 64.5121 224.382C64.6054 224.611 64.6894 224.816 64.7641 224.998C64.8387 225.175 64.8924 225.304 64.9251 225.383C64.9297 225.392 64.9414 225.425 64.9601 225.481C64.9787 225.537 64.9927 225.586 65.0021 225.628L65.0721 225.383C65.1047 225.304 65.1584 225.175 65.2331 224.998C65.3077 224.816 65.3917 224.611 65.4851 224.382C65.5784 224.153 65.6764 223.911 65.7791 223.654C65.8864 223.397 65.9867 223.155 66.0801 222.926C66.1781 222.697 66.2644 222.494 66.3391 222.317C66.4137 222.135 66.4674 222.004 66.5001 221.925H67.2561C67.2281 221.99 67.1767 222.109 67.1021 222.282C67.0321 222.45 66.9457 222.655 66.8431 222.898C66.7404 223.141 66.6261 223.407 66.5001 223.696C66.3787 223.985 66.2527 224.279 66.1221 224.578C65.9961 224.877 65.8701 225.171 65.7441 225.46C65.6227 225.749 65.5107 226.015 65.4081 226.258C65.3101 226.501 65.2237 226.708 65.1491 226.881C65.0791 227.049 65.0301 227.166 65.0021 227.231L62.7411 221.925H63.4971ZM67.8959 227V221.925H71.2279V222.618H68.6659V224.102H70.9479V224.809H68.6659V226.293H71.3259V227H67.8959ZM72.2163 227V221.925H72.9863V226.272H75.5063V227H72.2163Z" fill="#C4C4C4"/>
<mask id="mask0" mask-type="alpha" maskUnits="userSpaceOnUse" x="44" y="177" width="42" height="42">
<circle cx="65" cy="198" r="21" fill="#C4C4C4"/>
</mask>
<g mask="url(#mask0)">
<line x1="41.6464" y1="221.646" x2="88.4926" y2="174.8" stroke="#C6C6C6"/>
<line x1="42.3566" y1="174.65" x2="88.3951" y2="221.496" stroke="#C6C6C6"/>
<line x1="41" y1="198.5" x2="89.4615" y2="198.5" stroke="#C6C6C6"/>
<line x1="64.5" y1="196" x2="64.5" y2="172.577" stroke="#C6C6C6"/>
</g>
<circle cx="65" cy="198" r="18" transform="rotate(-180 65 198)" fill="#222222"/>
<circle cx="65" cy="198" r="16" transform="rotate(-180 65 198)" fill="black"/>
<rect x="66" y="198" width="3" height="16" transform="rotate(-180 66 198)" fill="#E5E5E5"/>
<path d="M19.8841 227.636C19.8281 227.678 19.7488 227.725 19.6461 227.776C19.5481 227.823 19.4315 227.867 19.2961 227.909C19.1608 227.951 19.0091 227.986 18.8411 228.014C18.6778 228.042 18.5028 228.056 18.3161 228.056C17.9195 228.056 17.5625 227.988 17.2451 227.853C16.9325 227.713 16.6665 227.526 16.4471 227.293C16.2278 227.06 16.0598 226.789 15.9431 226.481C15.8265 226.173 15.7681 225.846 15.7681 225.501C15.7681 225.118 15.8358 224.766 15.9711 224.444C16.1111 224.122 16.3001 223.844 16.5381 223.611C16.7761 223.378 17.0538 223.196 17.3711 223.065C17.6931 222.934 18.0338 222.869 18.3931 222.869C18.5285 222.869 18.6661 222.878 18.8061 222.897C18.9461 222.916 19.0768 222.941 19.1981 222.974C19.3241 223.007 19.4338 223.046 19.5271 223.093C19.6251 223.135 19.6998 223.179 19.7511 223.226C19.7138 223.282 19.6835 223.329 19.6601 223.366C19.6415 223.403 19.6205 223.443 19.5971 223.485C19.5738 223.522 19.5481 223.567 19.5201 223.618C19.4921 223.669 19.4548 223.737 19.4081 223.821C19.3475 223.779 19.2751 223.744 19.1911 223.716C19.1118 223.688 19.0278 223.665 18.9391 223.646C18.8505 223.627 18.7595 223.613 18.6661 223.604C18.5775 223.595 18.4958 223.59 18.4211 223.59C18.1505 223.59 17.8985 223.641 17.6651 223.744C17.4365 223.842 17.2381 223.977 17.0701 224.15C16.9021 224.318 16.7691 224.514 16.6711 224.738C16.5778 224.962 16.5311 225.195 16.5311 225.438C16.5311 225.676 16.5755 225.905 16.6641 226.124C16.7575 226.343 16.8835 226.539 17.0421 226.712C17.2055 226.885 17.3991 227.022 17.6231 227.125C17.8518 227.228 18.1015 227.279 18.3721 227.279C18.5168 227.279 18.6568 227.265 18.7921 227.237C18.9275 227.209 19.0488 227.176 19.1561 227.139C19.2681 227.102 19.3591 227.064 19.4291 227.027C19.5038 226.99 19.5481 226.962 19.5621 226.943L19.8841 227.636ZM20.729 222.925C20.7617 223.004 20.8153 223.135 20.89 223.317C20.9647 223.494 21.0487 223.697 21.142 223.926C21.24 224.155 21.3403 224.397 21.443 224.654C21.5503 224.911 21.6507 225.153 21.744 225.382C21.8373 225.611 21.9213 225.816 21.996 225.998C22.0707 226.175 22.1243 226.304 22.157 226.383C22.1617 226.392 22.1733 226.425 22.192 226.481C22.2107 226.537 22.2247 226.586 22.234 226.628L22.304 226.383C22.3367 226.304 22.3903 226.175 22.465 225.998C22.5397 225.816 22.6237 225.611 22.717 225.382C22.8103 225.153 22.9083 224.911 23.011 224.654C23.1183 224.397 23.2187 224.155 23.312 223.926C23.41 223.697 23.4963 223.494 23.571 223.317C23.6457 223.135 23.6993 223.004 23.732 222.925H24.488C24.46 222.99 24.4087 223.109 24.334 223.282C24.264 223.45 24.1777 223.655 24.075 223.898C23.9723 224.141 23.858 224.407 23.732 224.696C23.6107 224.985 23.4847 225.279 23.354 225.578C23.228 225.877 23.102 226.171 22.976 226.46C22.8547 226.749 22.7427 227.015 22.64 227.258C22.542 227.501 22.4557 227.708 22.381 227.881C22.311 228.049 22.262 228.166 22.234 228.231L19.973 222.925H20.729Z" fill="#C4C4C4"/>
<circle cx="20" cy="199" r="9.5" fill="#616161" stroke="#C4C4C4"/>
<path d="M20 191L26.9282 195V203L20 207L13.0718 203V195L20 191Z" fill="#A5A5A5"/>
<circle cx="20" cy="199" r="5.5" fill="black" stroke="#E5E5E5"/>
<path d="M16.7675 278.925H17.5305V284H16.7675V278.925ZM23.2293 278.925V284.231C23.164 284.147 23.038 284.012 22.8513 283.825C22.6646 283.638 22.45 283.424 22.2073 283.181C21.9646 282.938 21.7056 282.684 21.4303 282.418C21.1596 282.152 20.903 281.9 20.6603 281.662C20.4176 281.419 20.2053 281.205 20.0233 281.018C19.8413 280.827 19.72 280.691 19.6593 280.612L19.5263 280.43L19.5473 280.654V284H18.7773V278.687C18.8286 278.752 18.9126 278.846 19.0293 278.967C19.1506 279.088 19.2906 279.231 19.4493 279.394C19.6126 279.553 19.79 279.725 19.9813 279.912C20.1773 280.099 20.3733 280.288 20.5693 280.479C20.77 280.67 20.966 280.859 21.1573 281.046C21.3533 281.228 21.5306 281.398 21.6893 281.557C21.8526 281.716 21.9926 281.856 22.1093 281.977C22.226 282.098 22.3076 282.189 22.3543 282.25L22.4873 282.446L22.4663 282.208V278.925H23.2293Z" fill="#C4C4C4"/>
<circle cx="20" cy="255" r="9.5" fill="#616161" stroke="#C4C4C4"/>
<path d="M20 247L26.9282 251V259L20 263L13.0718 259V251L20 247Z" fill="#A5A5A5"/>
<circle cx="20" cy="255" r="5.5" fill="black" stroke="#E5E5E5"/>
<line x1="41" y1="198.5" x2="33" y2="198.5" stroke="#E5E5E5"/>
<line x1="15" y1="161.5" x2="75" y2="161.5" stroke="#E5E5E5"/>
<rect x="49" y="242" width="32" height="45" fill="#161616"/>
<path d="M57.9755 281.466C57.9755 281.116 58.0431 280.785 58.1785 280.472C58.3138 280.155 58.4981 279.877 58.7315 279.639C58.9695 279.401 59.2448 279.214 59.5575 279.079C59.8701 278.939 60.2061 278.869 60.5655 278.869C60.9201 278.869 61.2538 278.939 61.5665 279.079C61.8838 279.214 62.1591 279.401 62.3925 279.639C62.6305 279.877 62.8171 280.155 62.9525 280.472C63.0925 280.785 63.1625 281.116 63.1625 281.466C63.1625 281.825 63.0925 282.161 62.9525 282.474C62.8171 282.787 62.6305 283.062 62.3925 283.3C62.1591 283.533 61.8838 283.718 61.5665 283.853C61.2538 283.988 60.9201 284.056 60.5655 284.056C60.2061 284.056 59.8701 283.988 59.5575 283.853C59.2448 283.718 58.9695 283.533 58.7315 283.3C58.4981 283.062 58.3138 282.787 58.1785 282.474C58.0431 282.161 57.9755 281.825 57.9755 281.466ZM58.7385 281.473C58.7385 281.73 58.7851 281.972 58.8785 282.201C58.9765 282.425 59.1095 282.621 59.2775 282.789C59.4455 282.957 59.6415 283.09 59.8655 283.188C60.0895 283.286 60.3275 283.335 60.5795 283.335C60.8315 283.335 61.0671 283.286 61.2865 283.188C61.5105 283.09 61.7041 282.957 61.8675 282.789C62.0355 282.621 62.1661 282.425 62.2595 282.201C62.3575 281.972 62.4065 281.727 62.4065 281.466C62.4065 281.209 62.3575 280.969 62.2595 280.745C62.1661 280.516 62.0355 280.318 61.8675 280.15C61.6995 279.982 61.5035 279.849 61.2795 279.751C61.0601 279.653 60.8245 279.604 60.5725 279.604C60.3205 279.604 60.0825 279.653 59.8585 279.751C59.6345 279.849 59.4385 279.982 59.2705 280.15C59.1071 280.318 58.9765 280.516 58.8785 280.745C58.7851 280.974 58.7385 281.216 58.7385 281.473ZM65.9302 284.056C65.6595 284.056 65.4075 284.012 65.1742 283.923C64.9408 283.834 64.7355 283.711 64.5582 283.552C64.3855 283.389 64.2478 283.195 64.1452 282.971C64.0472 282.742 63.9982 282.488 63.9982 282.208V278.925H64.7682V282.187C64.7682 282.35 64.7962 282.502 64.8522 282.642C64.9128 282.777 64.9945 282.899 65.0972 283.006C65.2045 283.109 65.3282 283.19 65.4682 283.251C65.6082 283.307 65.7622 283.335 65.9302 283.335C66.0935 283.335 66.2452 283.307 66.3852 283.251C66.5298 283.19 66.6535 283.109 66.7562 283.006C66.8635 282.899 66.9475 282.777 67.0082 282.642C67.0688 282.502 67.0992 282.35 67.0992 282.187V278.925H67.8692V282.208C67.8692 282.488 67.8178 282.742 67.7152 282.971C67.6172 283.195 67.4795 283.389 67.3022 283.552C67.1295 283.711 66.9242 283.834 66.6862 283.923C66.4528 284.012 66.2008 284.056 65.9302 284.056ZM72.0121 278.925V279.653H70.7311V284H69.9681V279.653H68.7151V278.925H72.0121Z" fill="#C4C4C4"/>
<circle cx="66" cy="255" r="9.5" fill="#616161" stroke="#C4C4C4"/>
<path d="M66 247L72.9282 251V259L66 263L59.0718 259V251L66 247Z" fill="#A5A5A5"/>
<circle cx="66" cy="255" r="5.5" fill="black" stroke="#E5E5E5"/>
<path d="M55.0307 84V78.925H55.8007V83.272H58.3207V84H55.0307ZM59.0297 84V78.925H62.3617V79.618H59.7997V81.102H62.0817V81.809H59.7997V83.293H62.4597V84H59.0297ZM63.4971 78.925C63.5297 79.0043 63.5834 79.135 63.6581 79.317C63.7327 79.4943 63.8167 79.6973 63.9101 79.926C64.0081 80.1547 64.1084 80.3973 64.2111 80.654C64.3184 80.9107 64.4187 81.1533 64.5121 81.382C64.6054 81.6107 64.6894 81.816 64.7641 81.998C64.8387 82.1753 64.8924 82.3037 64.9251 82.383C64.9297 82.3923 64.9414 82.425 64.9601 82.481C64.9787 82.537 64.9927 82.586 65.0021 82.628L65.0721 82.383C65.1047 82.3037 65.1584 82.1753 65.2331 81.998C65.3077 81.816 65.3917 81.6107 65.4851 81.382C65.5784 81.1533 65.6764 80.9107 65.7791 80.654C65.8864 80.3973 65.9867 80.1547 66.0801 79.926C66.1781 79.6973 66.2644 79.4943 66.3391 79.317C66.4137 79.135 66.4674 79.0043 66.5001 78.925H67.2561C67.2281 78.9903 67.1767 79.1093 67.1021 79.282C67.0321 79.45 66.9457 79.6553 66.8431 79.898C66.7404 80.1407 66.6261 80.4067 66.5001 80.696C66.3787 80.9853 66.2527 81.2793 66.1221 81.578C65.9961 81.8767 65.8701 82.1707 65.7441 82.46C65.6227 82.7493 65.5107 83.0153 65.4081 83.258C65.3101 83.5007 65.2237 83.7083 65.1491 83.881C65.0791 84.049 65.0301 84.1657 65.0021 84.231L62.7411 78.925H63.4971ZM67.8959 84V78.925H71.2279V79.618H68.6659V81.102H70.9479V81.809H68.6659V83.293H71.3259V84H67.8959ZM72.2163 84V78.925H72.9863V83.272H75.5063V84H72.2163Z" fill="#C4C4C4"/>
<mask id="mask1" mask-type="alpha" maskUnits="userSpaceOnUse" x="44" y="34" width="42" height="42">
<circle cx="65" cy="55" r="21" fill="#C4C4C4"/>
</mask>
<g mask="url(#mask1)">
<line x1="41.6464" y1="78.6464" x2="88.4926" y2="31.8003" stroke="#C6C6C6"/>
<line x1="42.3566" y1="31.6495" x2="88.3951" y2="78.4957" stroke="#C6C6C6"/>
<line x1="41" y1="55.5" x2="89.4615" y2="55.5" stroke="#C6C6C6"/>
<line x1="64.5" y1="53" x2="64.5" y2="29.5769" stroke="#C6C6C6"/>
</g>
<circle cx="65" cy="55" r="18" transform="rotate(-180 65 55)" fill="#222222"/>
<circle cx="65" cy="55" r="16" transform="rotate(-180 65 55)" fill="black"/>
<rect x="66" y="55" width="3" height="16" transform="rotate(-180 66 55)" fill="#E5E5E5"/>
<path d="M19.8841 84.636C19.8281 84.678 19.7488 84.7247 19.6461 84.776C19.5481 84.8227 19.4315 84.867 19.2961 84.909C19.1608 84.951 19.0091 84.986 18.8411 85.014C18.6778 85.042 18.5028 85.056 18.3161 85.056C17.9195 85.056 17.5625 84.9883 17.2451 84.853C16.9325 84.713 16.6665 84.5263 16.4471 84.293C16.2278 84.0597 16.0598 83.789 15.9431 83.481C15.8265 83.173 15.7681 82.8463 15.7681 82.501C15.7681 82.1183 15.8358 81.766 15.9711 81.444C16.1111 81.122 16.3001 80.8443 16.5381 80.611C16.7761 80.3777 17.0538 80.1957 17.3711 80.065C17.6931 79.9343 18.0338 79.869 18.3931 79.869C18.5285 79.869 18.6661 79.8783 18.8061 79.897C18.9461 79.9157 19.0768 79.9413 19.1981 79.974C19.3241 80.0067 19.4338 80.0463 19.5271 80.093C19.6251 80.135 19.6998 80.1793 19.7511 80.226C19.7138 80.282 19.6835 80.3287 19.6601 80.366C19.6415 80.4033 19.6205 80.443 19.5971 80.485C19.5738 80.5223 19.5481 80.5667 19.5201 80.618C19.4921 80.6693 19.4548 80.737 19.4081 80.821C19.3475 80.779 19.2751 80.744 19.1911 80.716C19.1118 80.688 19.0278 80.6647 18.9391 80.646C18.8505 80.6273 18.7595 80.6133 18.6661 80.604C18.5775 80.5947 18.4958 80.59 18.4211 80.59C18.1505 80.59 17.8985 80.6413 17.6651 80.744C17.4365 80.842 17.2381 80.9773 17.0701 81.15C16.9021 81.318 16.7691 81.514 16.6711 81.738C16.5778 81.962 16.5311 82.1953 16.5311 82.438C16.5311 82.676 16.5755 82.9047 16.6641 83.124C16.7575 83.3433 16.8835 83.5393 17.0421 83.712C17.2055 83.8847 17.3991 84.0223 17.6231 84.125C17.8518 84.2277 18.1015 84.279 18.3721 84.279C18.5168 84.279 18.6568 84.265 18.7921 84.237C18.9275 84.209 19.0488 84.1763 19.1561 84.139C19.2681 84.1017 19.3591 84.0643 19.4291 84.027C19.5038 83.9897 19.5481 83.9617 19.5621 83.943L19.8841 84.636ZM20.729 79.925C20.7617 80.0043 20.8153 80.135 20.89 80.317C20.9647 80.4943 21.0487 80.6973 21.142 80.926C21.24 81.1547 21.3403 81.3973 21.443 81.654C21.5503 81.9107 21.6507 82.1533 21.744 82.382C21.8373 82.6107 21.9213 82.816 21.996 82.998C22.0707 83.1753 22.1243 83.3037 22.157 83.383C22.1617 83.3923 22.1733 83.425 22.192 83.481C22.2107 83.537 22.2247 83.586 22.234 83.628L22.304 83.383C22.3367 83.3037 22.3903 83.1753 22.465 82.998C22.5397 82.816 22.6237 82.6107 22.717 82.382C22.8103 82.1533 22.9083 81.9107 23.011 81.654C23.1183 81.3973 23.2187 81.1547 23.312 80.926C23.41 80.6973 23.4963 80.4943 23.571 80.317C23.6457 80.135 23.6993 80.0043 23.732 79.925H24.488C24.46 79.9903 24.4087 80.1093 24.334 80.282C24.264 80.45 24.1777 80.6553 24.075 80.898C23.9723 81.1407 23.858 81.4067 23.732 81.696C23.6107 81.9853 23.4847 82.2793 23.354 82.578C23.228 82.8767 23.102 83.1707 22.976 83.46C22.8547 83.7493 22.7427 84.0153 22.64 84.258C22.542 84.5007 22.4557 84.7083 22.381 84.881C22.311 85.049 22.262 85.1657 22.234 85.231L19.973 79.925H20.729Z" fill="#C4C4C4"/>
<circle cx="20" cy="56" r="9.5" fill="#616161" stroke="#C4C4C4"/>
<path d="M20 48L26.9282 52V60L20 64L13.0718 60V52L20 48Z" fill="#A5A5A5"/>
<circle cx="20" cy="56" r="5.5" fill="black" stroke="#E5E5E5"/>
<path d="M16.7675 135.925H17.5305V141H16.7675V135.925ZM23.2293 135.925V141.231C23.164 141.147 23.038 141.012 22.8513 140.825C22.6646 140.638 22.45 140.424 22.2073 140.181C21.9646 139.938 21.7056 139.684 21.4303 139.418C21.1596 139.152 20.903 138.9 20.6603 138.662C20.4176 138.419 20.2053 138.205 20.0233 138.018C19.8413 137.827 19.72 137.691 19.6593 137.612L19.5263 137.43L19.5473 137.654V141H18.7773V135.687C18.8286 135.752 18.9126 135.846 19.0293 135.967C19.1506 136.088 19.2906 136.231 19.4493 136.394C19.6126 136.553 19.79 136.725 19.9813 136.912C20.1773 137.099 20.3733 137.288 20.5693 137.479C20.77 137.67 20.966 137.859 21.1573 138.046C21.3533 138.228 21.5306 138.398 21.6893 138.557C21.8526 138.716 21.9926 138.856 22.1093 138.977C22.226 139.098 22.3076 139.189 22.3543 139.25L22.4873 139.446L22.4663 139.208V135.925H23.2293Z" fill="#C4C4C4"/>
<circle cx="20" cy="112" r="9.5" fill="#616161" stroke="#C4C4C4"/>
<path d="M20 104L26.9282 108V116L20 120L13.0718 116V108L20 104Z" fill="#A5A5A5"/>
<circle cx="20" cy="112" r="5.5" fill="black" stroke="#E5E5E5"/>
<line x1="41" y1="55.5" x2="33" y2="55.5" stroke="#E5E5E5"/>
<rect x="49" y="99" width="32" height="45" fill="#161616"/>
<path d="M57.9755 138.466C57.9755 138.116 58.0431 137.785 58.1785 137.472C58.3138 137.155 58.4981 136.877 58.7315 136.639C58.9695 136.401 59.2448 136.214 59.5575 136.079C59.8701 135.939 60.2061 135.869 60.5655 135.869C60.9201 135.869 61.2538 135.939 61.5665 136.079C61.8838 136.214 62.1591 136.401 62.3925 136.639C62.6305 136.877 62.8171 137.155 62.9525 137.472C63.0925 137.785 63.1625 138.116 63.1625 138.466C63.1625 138.825 63.0925 139.161 62.9525 139.474C62.8171 139.787 62.6305 140.062 62.3925 140.3C62.1591 140.533 61.8838 140.718 61.5665 140.853C61.2538 140.988 60.9201 141.056 60.5655 141.056C60.2061 141.056 59.8701 140.988 59.5575 140.853C59.2448 140.718 58.9695 140.533 58.7315 140.3C58.4981 140.062 58.3138 139.787 58.1785 139.474C58.0431 139.161 57.9755 138.825 57.9755 138.466ZM58.7385 138.473C58.7385 138.73 58.7851 138.972 58.8785 139.201C58.9765 139.425 59.1095 139.621 59.2775 139.789C59.4455 139.957 59.6415 140.09 59.8655 140.188C60.0895 140.286 60.3275 140.335 60.5795 140.335C60.8315 140.335 61.0671 140.286 61.2865 140.188C61.5105 140.09 61.7041 139.957 61.8675 139.789C62.0355 139.621 62.1661 139.425 62.2595 139.201C62.3575 138.972 62.4065 138.727 62.4065 138.466C62.4065 138.209 62.3575 137.969 62.2595 137.745C62.1661 137.516 62.0355 137.318 61.8675 137.15C61.6995 136.982 61.5035 136.849 61.2795 136.751C61.0601 136.653 60.8245 136.604 60.5725 136.604C60.3205 136.604 60.0825 136.653 59.8585 136.751C59.6345 136.849 59.4385 136.982 59.2705 137.15C59.1071 137.318 58.9765 137.516 58.8785 137.745C58.7851 137.974 58.7385 138.216 58.7385 138.473ZM65.9302 141.056C65.6595 141.056 65.4075 141.012 65.1742 140.923C64.9408 140.834 64.7355 140.711 64.5582 140.552C64.3855 140.389 64.2478 140.195 64.1452 139.971C64.0472 139.742 63.9982 139.488 63.9982 139.208V135.925H64.7682V139.187C64.7682 139.35 64.7962 139.502 64.8522 139.642C64.9128 139.777 64.9945 139.899 65.0972 140.006C65.2045 140.109 65.3282 140.19 65.4682 140.251C65.6082 140.307 65.7622 140.335 65.9302 140.335C66.0935 140.335 66.2452 140.307 66.3852 140.251C66.5298 140.19 66.6535 140.109 66.7562 140.006C66.8635 139.899 66.9475 139.777 67.0082 139.642C67.0688 139.502 67.0992 139.35 67.0992 139.187V135.925H67.8692V139.208C67.8692 139.488 67.8178 139.742 67.7152 139.971C67.6172 140.195 67.4795 140.389 67.3022 140.552C67.1295 140.711 66.9242 140.834 66.6862 140.923C66.4528 141.012 66.2008 141.056 65.9302 141.056ZM72.0121 135.925V136.653H70.7311V141H69.9681V136.653H68.7151V135.925H72.0121Z" fill="#C4C4C4"/>
<circle cx="66" cy="112" r="9.5" fill="#616161" stroke="#C4C4C4"/>
<path d="M66 104L72.9282 108V116L66 120L59.0718 116V108L66 104Z" fill="#A5A5A5"/>
<circle cx="66" cy="112" r="5.5" fill="black" stroke="#E5E5E5"/>
<rect x="49" y="312" width="32" height="45" fill="#161616"/>
<path d="M59.2451 348.701C59.2871 348.766 59.3734 348.892 59.5041 349.079C59.6394 349.261 59.7934 349.473 59.9661 349.716C60.1434 349.959 60.3301 350.218 60.5261 350.493C60.7221 350.764 60.9064 351.02 61.0791 351.263C61.2517 351.501 61.4011 351.709 61.5271 351.886C61.6577 352.063 61.7441 352.18 61.7861 352.236C61.8001 352.213 61.8444 352.15 61.9191 352.047C61.9937 351.944 62.0847 351.816 62.1921 351.662C62.3041 351.508 62.4301 351.335 62.5701 351.144C62.7101 350.948 62.8524 350.75 62.9971 350.549C63.1464 350.344 63.2911 350.141 63.4311 349.94C63.5757 349.739 63.7087 349.557 63.8301 349.394C63.9514 349.226 64.0541 349.081 64.1381 348.96C64.2267 348.834 64.2897 348.748 64.3271 348.701V354H63.5151V351.158C63.5151 351.121 63.5174 351.081 63.5221 351.039C63.5314 350.997 63.5361 350.967 63.5361 350.948C63.4941 351.004 63.4264 351.1 63.3331 351.235C63.2444 351.366 63.1394 351.517 63.0181 351.69C62.9014 351.858 62.7777 352.038 62.6471 352.229C62.5164 352.416 62.3927 352.593 62.2761 352.761C62.1594 352.929 62.0567 353.078 61.9681 353.209C61.8794 353.335 61.8187 353.424 61.7861 353.475C61.7534 353.433 61.6881 353.347 61.5901 353.216C61.4967 353.081 61.3847 352.924 61.2541 352.747C61.1281 352.57 60.9927 352.381 60.8481 352.18C60.7081 351.979 60.5774 351.793 60.4561 351.62C60.3347 351.447 60.2297 351.3 60.1411 351.179C60.0524 351.053 60.0011 350.976 59.9871 350.948C59.9871 350.967 59.9894 350.997 59.9941 351.039C60.0034 351.081 60.0081 351.121 60.0081 351.158V354H59.2451V348.701ZM65.5751 348.925H66.3381V354H65.5751V348.925ZM68.6699 351.403L67.0809 348.925H68.0189C68.0422 348.962 68.0819 349.025 68.1379 349.114C68.1939 349.203 68.2569 349.305 68.3269 349.422C68.3969 349.534 68.4716 349.655 68.5509 349.786C68.6302 349.912 68.7049 350.033 68.7749 350.15C68.8449 350.262 68.9056 350.362 68.9569 350.451C69.0129 350.54 69.0526 350.603 69.0759 350.64C69.0806 350.649 69.0969 350.682 69.1249 350.738C69.1529 350.789 69.1739 350.836 69.1879 350.878C69.2019 350.836 69.2229 350.789 69.2509 350.738C69.2789 350.682 69.2952 350.649 69.2999 350.64C69.3232 350.603 69.3606 350.54 69.4119 350.451C69.4679 350.362 69.5286 350.262 69.5939 350.15C69.6639 350.033 69.7362 349.912 69.8109 349.786C69.8856 349.655 69.9556 349.534 70.0209 349.422C70.0909 349.305 70.1516 349.203 70.2029 349.114C70.2589 349.025 70.2986 348.962 70.3219 348.925H71.2599C71.2319 348.967 71.1782 349.053 71.0989 349.184C71.0196 349.31 70.9239 349.459 70.8119 349.632C70.7046 349.805 70.5902 349.989 70.4689 350.185C70.3476 350.381 70.2309 350.565 70.1189 350.738C70.0116 350.911 69.9159 351.062 69.8319 351.193C69.7526 351.319 69.7012 351.403 69.6779 351.445L71.3299 354H70.3779L69.3419 352.334C69.3326 352.32 69.3186 352.299 69.2999 352.271C69.2812 352.243 69.2626 352.213 69.2439 352.18C69.2252 352.143 69.2066 352.108 69.1879 352.075C69.1692 352.042 69.1552 352.017 69.1459 351.998C69.1319 352.04 69.1132 352.084 69.0899 352.131C69.0666 352.178 69.0526 352.203 69.0479 352.208C69.0106 352.269 68.9382 352.385 68.8309 352.558C68.7282 352.726 68.6186 352.908 68.5019 353.104C68.3899 353.3 68.2802 353.484 68.1729 353.657C68.0702 353.825 68.0002 353.939 67.9629 354H67.0109L68.6699 351.403Z" fill="#C4C4C4"/>
<circle cx="66" cy="325" r="9.5" fill="#616161" stroke="#C4C4C4"/>
<path d="M66 317L72.9282 321V329L66 333L59.0718 329V321L66 317Z" fill="#A5A5A5"/>
<circle cx="66" cy="325" r="5.5" fill="black" stroke="#E5E5E5"/>
</svg>
