<svg width="92" height="386" viewBox="0 0 92 386" fill="none" xmlns="http://www.w3.org/2000/svg">
<rect x="0.5" y="0.5" width="90.44" height="384.5" fill="#333333" stroke="#161616"/>
<path d="M32.6964 376V371.65H33.8844C34.1124 371.65 34.3204 371.68 34.5084 371.74C34.7004 371.8 34.8644 371.89 35.0004 372.01C35.1404 372.126 35.2484 372.27 35.3244 372.442C35.4004 372.61 35.4384 372.804 35.4384 373.024C35.4384 373.144 35.4264 373.264 35.4024 373.384C35.3784 373.5 35.3384 373.614 35.2824 373.726C35.2304 373.834 35.1624 373.936 35.0784 374.032C34.9944 374.124 34.8924 374.202 34.7724 374.266C34.9324 374.518 35.1064 374.798 35.2944 375.106C35.4824 375.41 35.6724 375.708 35.8644 376H35.0784C34.9984 375.876 34.9144 375.746 34.8264 375.61C34.7424 375.474 34.6564 375.34 34.5684 375.208C34.4844 375.072 34.4004 374.94 34.3164 374.812C34.2364 374.68 34.1604 374.558 34.0884 374.446H33.9684H33.3564V376H32.6964ZM33.3564 373.828H33.9504C34.1104 373.828 34.2444 373.802 34.3524 373.75C34.4604 373.694 34.5444 373.626 34.6044 373.546C34.6684 373.466 34.7124 373.38 34.7364 373.288C34.7644 373.196 34.7784 373.112 34.7784 373.036C34.7784 372.96 34.7644 372.878 34.7364 372.79C34.7124 372.698 34.6684 372.614 34.6044 372.538C34.5404 372.458 34.4544 372.392 34.3464 372.34C34.2424 372.288 34.1124 372.262 33.9564 372.262H33.3564V373.828ZM39.158 376C39.138 375.956 39.11 375.892 39.074 375.808C39.038 375.724 38.996 375.628 38.948 375.52C38.904 375.408 38.854 375.288 38.798 375.16C38.746 375.028 38.692 374.892 38.636 374.752H37.1L36.584 376H35.936L37.874 371.446C37.898 371.502 37.94 371.604 38 371.752C38.064 371.9 38.138 372.078 38.222 372.286C38.31 372.49 38.406 372.718 38.51 372.97C38.618 373.218 38.726 373.47 38.834 373.726C38.946 373.982 39.054 374.234 39.158 374.482C39.266 374.73 39.364 374.958 39.452 375.166C39.54 375.374 39.614 375.552 39.674 375.7C39.738 375.844 39.782 375.944 39.806 376H39.158ZM37.328 374.2H38.414C38.358 374.068 38.304 373.942 38.252 373.822C38.204 373.698 38.158 373.586 38.114 373.486C38.074 373.382 38.038 373.292 38.006 373.216C37.974 373.14 37.95 373.08 37.934 373.036C37.93 373.028 37.92 373 37.904 372.952C37.892 372.904 37.882 372.86 37.874 372.82C37.866 372.86 37.854 372.904 37.838 372.952C37.822 373 37.812 373.028 37.808 373.036L37.328 374.2ZM43.4127 375.688C43.3647 375.724 43.2967 375.764 43.2087 375.808C43.1247 375.848 43.0247 375.886 42.9087 375.922C42.7927 375.958 42.6627 375.988 42.5187 376.012C42.3787 376.036 42.2287 376.048 42.0687 376.048C41.7287 376.048 41.4227 375.99 41.1507 375.874C40.8827 375.754 40.6547 375.594 40.4667 375.394C40.2787 375.194 40.1347 374.962 40.0347 374.698C39.9347 374.434 39.8847 374.154 39.8847 373.858C39.8847 373.53 39.9427 373.228 40.0587 372.952C40.1787 372.676 40.3407 372.438 40.5447 372.238C40.7487 372.038 40.9867 371.882 41.2587 371.77C41.5347 371.658 41.8267 371.602 42.1347 371.602C42.2507 371.602 42.3687 371.61 42.4887 371.626C42.6087 371.642 42.7207 371.664 42.8247 371.692C42.9327 371.72 43.0267 371.754 43.1067 371.794C43.1907 371.83 43.2547 371.868 43.2987 371.908C43.2667 371.956 43.2407 371.996 43.2207 372.028C43.2047 372.06 43.1867 372.094 43.1667 372.13C43.1467 372.162 43.1247 372.2 43.1007 372.244C43.0767 372.288 43.0447 372.346 43.0047 372.418C42.9527 372.382 42.8907 372.352 42.8187 372.328C42.7507 372.304 42.6787 372.284 42.6027 372.268C42.5267 372.252 42.4487 372.24 42.3687 372.232C42.2927 372.224 42.2227 372.22 42.1587 372.22C41.9267 372.22 41.7107 372.264 41.5107 372.352C41.3147 372.436 41.1447 372.552 41.0007 372.7C40.8567 372.844 40.7427 373.012 40.6587 373.204C40.5787 373.396 40.5387 373.596 40.5387 373.804C40.5387 374.008 40.5767 374.204 40.6527 374.392C40.7327 374.58 40.8407 374.748 40.9767 374.896C41.1167 375.044 41.2827 375.162 41.4747 375.25C41.6707 375.338 41.8847 375.382 42.1167 375.382C42.2407 375.382 42.3607 375.37 42.4767 375.346C42.5927 375.322 42.6967 375.294 42.7887 375.262C42.8847 375.23 42.9627 375.198 43.0227 375.166C43.0867 375.134 43.1247 375.11 43.1367 375.094L43.4127 375.688ZM46.5908 376C46.4508 375.82 46.3168 375.648 46.1888 375.484C46.0608 375.32 45.9348 375.156 45.8108 374.992C45.6868 374.828 45.5608 374.662 45.4328 374.494C45.3088 374.326 45.1768 374.152 45.0368 373.972C44.9848 374.028 44.9348 374.08 44.8868 374.128C44.8388 374.172 44.7868 374.218 44.7308 374.266C44.7308 374.574 44.7308 374.864 44.7308 375.136C44.7348 375.404 44.7368 375.692 44.7368 376H44.0108V371.65H44.7368V373.276C44.7368 373.312 44.7328 373.348 44.7248 373.384C44.7208 373.416 44.7188 373.45 44.7188 373.486C44.7388 373.458 44.7588 373.434 44.7788 373.414C44.7988 373.39 44.8188 373.362 44.8388 373.33C45.1228 373.062 45.3968 372.784 45.6608 372.496C45.9248 372.204 46.1988 371.922 46.4828 371.65H47.3168C47.0168 371.962 46.7188 372.276 46.4228 372.592C46.1308 372.908 45.8348 373.222 45.5348 373.534C45.7028 373.75 45.8628 373.96 46.0148 374.164C46.1708 374.364 46.3228 374.564 46.4708 374.764C46.6228 374.964 46.7748 375.166 46.9268 375.37C47.0788 375.574 47.2368 375.784 47.4008 376H46.5908ZM47.8956 376V371.65H48.5556V375.376H50.7156V376H47.8956ZM51.3233 376V371.65H54.1793V372.244H51.9833V373.516H53.9393V374.122H51.9833V375.394H54.2633V376H51.3233ZM57.5165 371.89L57.2825 372.424C57.1185 372.364 56.9545 372.316 56.7905 372.28C56.6305 372.244 56.4765 372.226 56.3285 372.226C56.0765 372.226 55.8745 372.278 55.7225 372.382C55.5745 372.486 55.5005 372.618 55.5005 372.778C55.5005 372.914 55.5545 373.024 55.6625 373.108C55.7705 373.188 55.9045 373.262 56.0645 373.33C56.2245 373.394 56.3985 373.46 56.5865 373.528C56.7745 373.592 56.9485 373.676 57.1085 373.78C57.2685 373.884 57.4025 374.016 57.5105 374.176C57.6185 374.332 57.6725 374.534 57.6725 374.782C57.6725 374.974 57.6365 375.148 57.5645 375.304C57.4965 375.456 57.3925 375.588 57.2525 375.7C57.1165 375.812 56.9445 375.898 56.7365 375.958C56.5325 376.018 56.2925 376.048 56.0165 376.048C55.8405 376.048 55.6805 376.036 55.5365 376.012C55.3965 375.988 55.2685 375.958 55.1525 375.922C55.0405 375.882 54.9405 375.84 54.8525 375.796C54.7685 375.752 54.6965 375.712 54.6365 375.676L54.9245 375.106C55.0845 375.198 55.2625 375.272 55.4585 375.328C55.6545 375.384 55.8325 375.412 55.9925 375.412C56.0725 375.412 56.1705 375.402 56.2865 375.382C56.4065 375.362 56.5205 375.328 56.6285 375.28C56.7365 375.228 56.8285 375.16 56.9045 375.076C56.9845 374.992 57.0245 374.886 57.0245 374.758C57.0245 374.642 56.9925 374.544 56.9285 374.464C56.8685 374.38 56.7865 374.308 56.6825 374.248C56.5825 374.184 56.4665 374.128 56.3345 374.08C56.2065 374.028 56.0745 373.976 55.9385 373.924C55.8025 373.868 55.6685 373.81 55.5365 373.75C55.4085 373.69 55.2925 373.618 55.1885 373.534C55.0885 373.446 55.0065 373.346 54.9425 373.234C54.8825 373.118 54.8525 372.98 54.8525 372.82C54.8525 372.672 54.8825 372.526 54.9425 372.382C55.0025 372.238 55.0925 372.11 55.2125 371.998C55.3325 371.886 55.4805 371.796 55.6565 371.728C55.8365 371.66 56.0445 371.626 56.2805 371.626C56.4245 371.626 56.5645 371.638 56.7005 371.662C56.8405 371.686 56.9665 371.714 57.0785 371.746C57.1905 371.774 57.2845 371.802 57.3605 371.83C57.4405 371.858 57.4925 371.878 57.5165 371.89ZM60.909 371.89L60.675 372.424C60.511 372.364 60.347 372.316 60.183 372.28C60.023 372.244 59.869 372.226 59.721 372.226C59.469 372.226 59.267 372.278 59.115 372.382C58.967 372.486 58.893 372.618 58.893 372.778C58.893 372.914 58.947 373.024 59.055 373.108C59.163 373.188 59.297 373.262 59.457 373.33C59.617 373.394 59.791 373.46 59.979 373.528C60.167 373.592 60.341 373.676 60.501 373.78C60.661 373.884 60.795 374.016 60.903 374.176C61.011 374.332 61.065 374.534 61.065 374.782C61.065 374.974 61.029 375.148 60.957 375.304C60.889 375.456 60.785 375.588 60.645 375.7C60.509 375.812 60.337 375.898 60.129 375.958C59.925 376.018 59.685 376.048 59.409 376.048C59.233 376.048 59.073 376.036 58.929 376.012C58.789 375.988 58.661 375.958 58.545 375.922C58.433 375.882 58.333 375.84 58.245 375.796C58.161 375.752 58.089 375.712 58.029 375.676L58.317 375.106C58.477 375.198 58.655 375.272 58.851 375.328C59.047 375.384 59.225 375.412 59.385 375.412C59.465 375.412 59.563 375.402 59.679 375.382C59.799 375.362 59.913 375.328 60.021 375.28C60.129 375.228 60.221 375.16 60.297 375.076C60.377 374.992 60.417 374.886 60.417 374.758C60.417 374.642 60.385 374.544 60.321 374.464C60.261 374.38 60.179 374.308 60.075 374.248C59.975 374.184 59.859 374.128 59.727 374.08C59.599 374.028 59.467 373.976 59.331 373.924C59.195 373.868 59.061 373.81 58.929 373.75C58.801 373.69 58.685 373.618 58.581 373.534C58.481 373.446 58.399 373.346 58.335 373.234C58.275 373.118 58.245 372.98 58.245 372.82C58.245 372.672 58.275 372.526 58.335 372.382C58.395 372.238 58.485 372.11 58.605 371.998C58.725 371.886 58.873 371.796 59.049 371.728C59.229 371.66 59.437 371.626 59.673 371.626C59.817 371.626 59.957 371.638 60.093 371.662C60.233 371.686 60.359 371.714 60.471 371.746C60.583 371.774 60.677 371.802 60.753 371.83C60.833 371.858 60.885 371.878 60.909 371.89Z" fill="#C4C4C4"/>
<path d="M30.728 21C30.698 20.934 30.656 20.838 30.602 20.712C30.548 20.586 30.485 20.442 30.413 20.28C30.347 20.112 30.272 19.932 30.188 19.74C30.11 19.542 30.029 19.338 29.945 19.128H27.641L26.867 21H25.895L28.802 14.169C28.838 14.253 28.901 14.406 28.991 14.628C29.087 14.85 29.198 15.117 29.324 15.429C29.456 15.735 29.6 16.077 29.756 16.455C29.918 16.827 30.08 17.205 30.242 17.589C30.41 17.973 30.572 18.351 30.728 18.723C30.89 19.095 31.037 19.437 31.169 19.749C31.301 20.061 31.412 20.328 31.502 20.55C31.598 20.766 31.664 20.916 31.7 21H30.728ZM27.983 18.3H29.612C29.528 18.102 29.447 17.913 29.369 17.733C29.297 17.547 29.228 17.379 29.162 17.229C29.102 17.073 29.048 16.938 29 16.824C28.952 16.71 28.916 16.62 28.892 16.554C28.886 16.542 28.871 16.5 28.847 16.428C28.829 16.356 28.814 16.29 28.802 16.23C28.79 16.29 28.772 16.356 28.748 16.428C28.724 16.5 28.709 16.542 28.703 16.554L27.983 18.3ZM32.5142 14.187C32.5682 14.271 32.6792 14.433 32.8472 14.673C33.0212 14.907 33.2192 15.18 33.4412 15.492C33.6692 15.804 33.9092 16.137 34.1612 16.491C34.4132 16.839 34.6502 17.169 34.8722 17.481C35.0942 17.787 35.2862 18.054 35.4482 18.282C35.6162 18.51 35.7272 18.66 35.7812 18.732C35.7992 18.702 35.8562 18.621 35.9522 18.489C36.0482 18.357 36.1652 18.192 36.3032 17.994C36.4472 17.796 36.6092 17.574 36.7892 17.328C36.9692 17.076 37.1522 16.821 37.3382 16.563C37.5302 16.299 37.7162 16.038 37.8962 15.78C38.0822 15.522 38.2532 15.288 38.4092 15.078C38.5652 14.862 38.6972 14.676 38.8052 14.52C38.9192 14.358 39.0002 14.247 39.0482 14.187V21H38.0042V17.346C38.0042 17.298 38.0072 17.247 38.0132 17.193C38.0252 17.139 38.0312 17.1 38.0312 17.076C37.9772 17.148 37.8902 17.271 37.7702 17.445C37.6562 17.613 37.5212 17.808 37.3652 18.03C37.2152 18.246 37.0562 18.477 36.8882 18.723C36.7202 18.963 36.5612 19.191 36.4112 19.407C36.2612 19.623 36.1292 19.815 36.0152 19.983C35.9012 20.145 35.8232 20.259 35.7812 20.325C35.7392 20.271 35.6552 20.16 35.5292 19.992C35.4092 19.818 35.2652 19.617 35.0972 19.389C34.9352 19.161 34.7612 18.918 34.5752 18.66C34.3952 18.402 34.2272 18.162 34.0712 17.94C33.9152 17.718 33.7802 17.529 33.6662 17.373C33.5522 17.211 33.4862 17.112 33.4682 17.076C33.4682 17.1 33.4712 17.139 33.4772 17.193C33.4892 17.247 33.4952 17.298 33.4952 17.346V21H32.5142V14.187ZM41.6428 17.742H42.5338C42.7738 17.742 42.9748 17.7 43.1368 17.616C43.2988 17.532 43.4248 17.43 43.5148 17.31C43.6108 17.19 43.6768 17.061 43.7128 16.923C43.7548 16.785 43.7758 16.662 43.7758 16.554C43.7758 16.44 43.7548 16.317 43.7128 16.185C43.6768 16.047 43.6108 15.921 43.5148 15.807C43.4188 15.687 43.2898 15.588 43.1278 15.51C42.9718 15.432 42.7768 15.393 42.5428 15.393H41.6428V17.742ZM40.6528 21V14.475H42.4348C42.7768 14.475 43.0888 14.52 43.3708 14.61C43.6588 14.7 43.9048 14.835 44.1088 15.015C44.3188 15.189 44.4808 15.405 44.5948 15.663C44.7088 15.915 44.7658 16.206 44.7658 16.536C44.7658 16.794 44.7268 17.052 44.6488 17.31C44.5708 17.562 44.4448 17.79 44.2708 17.994C44.0968 18.192 43.8688 18.354 43.5868 18.48C43.3048 18.606 42.9628 18.669 42.5608 18.669H41.6428V21H40.6528ZM45.8472 21V14.475H46.8372V20.064H50.0772V21H45.8472ZM50.9888 14.475H51.9698V21H50.9888V14.475ZM53.5728 21V14.475H57.4788V15.384H54.5538V17.355H57.1098V18.273H54.5538V21H53.5728ZM58.5649 14.475H59.5459V21H58.5649V14.475ZM61.1489 21V14.475H65.4329V15.366H62.1389V17.274H65.0729V18.183H62.1389V20.091H65.5589V21H61.1489ZM66.7036 21V14.475H68.4856C68.8276 14.475 69.1396 14.52 69.4216 14.61C69.7096 14.7 69.9556 14.835 70.1596 15.015C70.3696 15.189 70.5316 15.405 70.6456 15.663C70.7596 15.915 70.8166 16.206 70.8166 16.536C70.8166 16.716 70.7986 16.896 70.7626 17.076C70.7266 17.25 70.6666 17.421 70.5826 17.589C70.5046 17.751 70.4026 17.904 70.2766 18.048C70.1506 18.186 69.9976 18.303 69.8176 18.399C70.0576 18.777 70.3186 19.197 70.6006 19.659C70.8826 20.115 71.1676 20.562 71.4556 21H70.2766C70.1566 20.814 70.0306 20.619 69.8986 20.415C69.7726 20.211 69.6436 20.01 69.5116 19.812C69.3856 19.608 69.2596 19.41 69.1336 19.218C69.0136 19.02 68.8996 18.837 68.7916 18.669H68.6116H67.6936V21H66.7036ZM67.6936 17.742H68.5846C68.8246 17.742 69.0256 17.703 69.1876 17.625C69.3496 17.541 69.4756 17.439 69.5656 17.319C69.6616 17.199 69.7276 17.07 69.7636 16.932C69.8056 16.794 69.8266 16.668 69.8266 16.554C69.8266 16.44 69.8056 16.317 69.7636 16.185C69.7276 16.047 69.6616 15.921 69.5656 15.807C69.4696 15.687 69.3406 15.588 69.1786 15.51C69.0226 15.432 68.8276 15.393 68.5936 15.393H67.6936V17.742Z" fill="#C4C4C4"/>
<line x1="15" y1="162.5" x2="75" y2="162.5" stroke="#E5E5E5"/>
<path d="M62.0649 79.618V81.116H62.7509C63.0029 81.116 63.1919 81.0413 63.3179 80.892C63.4439 80.7427 63.5069 80.5607 63.5069 80.346C63.5069 80.094 63.4299 79.9097 63.2759 79.793C63.1265 79.6763 62.9259 79.618 62.6739 79.618H62.0649ZM62.0649 81.767V83.307H62.7789C62.9142 83.307 63.0402 83.2907 63.1569 83.258C63.2782 83.2253 63.3832 83.1787 63.4719 83.118C63.5605 83.0527 63.6305 82.971 63.6819 82.873C63.7332 82.775 63.7589 82.6607 63.7589 82.53C63.7589 82.3853 63.7285 82.2663 63.6679 82.173C63.6072 82.075 63.5255 81.9957 63.4229 81.935C63.3249 81.8743 63.2105 81.8323 63.0799 81.809C62.9539 81.781 62.8232 81.767 62.6879 81.767H62.0649ZM61.2949 84V78.925H62.6389C62.8862 78.925 63.1102 78.9507 63.3109 79.002C63.5115 79.0487 63.6819 79.1257 63.8219 79.233C63.9619 79.3357 64.0692 79.471 64.1439 79.639C64.2232 79.8023 64.2629 80.003 64.2629 80.241C64.2629 80.3717 64.2489 80.5 64.2209 80.626C64.1975 80.752 64.1555 80.8687 64.0949 80.976C64.0389 81.0787 63.9619 81.1697 63.8639 81.249C63.7705 81.3283 63.6539 81.389 63.5139 81.431C63.6352 81.4543 63.7542 81.494 63.8709 81.55C63.9922 81.606 64.0995 81.683 64.1929 81.781C64.2862 81.8743 64.3609 81.991 64.4169 82.131C64.4775 82.271 64.5079 82.4367 64.5079 82.628C64.5079 82.8707 64.4612 83.0783 64.3679 83.251C64.2745 83.4237 64.1509 83.566 63.9969 83.678C63.8429 83.79 63.6655 83.8717 63.4649 83.923C63.2642 83.9743 63.0565 84 62.8419 84H61.2949ZM65.4511 78.925H66.2141V84H65.4511V78.925ZM70.6039 84C70.5806 83.9487 70.5479 83.874 70.5059 83.776C70.4639 83.678 70.4149 83.566 70.3589 83.44C70.3076 83.3093 70.2492 83.1693 70.1839 83.02C70.1232 82.866 70.0602 82.7073 69.9949 82.544H68.2029L67.6009 84H66.8449L69.1059 78.687C69.1339 78.7523 69.1829 78.8713 69.2529 79.044C69.3276 79.2167 69.4139 79.4243 69.5119 79.667C69.6146 79.905 69.7266 80.171 69.8479 80.465C69.9739 80.7543 70.0999 81.0483 70.2259 81.347C70.3566 81.6457 70.4826 81.9397 70.6039 82.229C70.7299 82.5183 70.8442 82.7843 70.9469 83.027C71.0496 83.2697 71.1359 83.4773 71.2059 83.65C71.2806 83.818 71.3319 83.9347 71.3599 84H70.6039ZM68.4689 81.9H69.7359C69.6706 81.746 69.6076 81.599 69.5469 81.459C69.4909 81.3143 69.4372 81.1837 69.3859 81.067C69.3392 80.9457 69.2972 80.8407 69.2599 80.752C69.2226 80.6633 69.1946 80.5933 69.1759 80.542C69.1712 80.5327 69.1596 80.5 69.1409 80.444C69.1269 80.388 69.1152 80.3367 69.1059 80.29C69.0966 80.3367 69.0826 80.388 69.0639 80.444C69.0452 80.5 69.0336 80.5327 69.0289 80.542L68.4689 81.9ZM74.8981 79.205L74.6251 79.828C74.4338 79.758 74.2425 79.702 74.0511 79.66C73.8645 79.618 73.6848 79.597 73.5121 79.597C73.2181 79.597 72.9825 79.6577 72.8051 79.779C72.6325 79.9003 72.5461 80.0543 72.5461 80.241C72.5461 80.3997 72.6091 80.528 72.7351 80.626C72.8611 80.7193 73.0175 80.8057 73.2041 80.885C73.3908 80.9597 73.5938 81.0367 73.8131 81.116C74.0325 81.1907 74.2355 81.2887 74.4221 81.41C74.6088 81.5313 74.7651 81.6853 74.8911 81.872C75.0171 82.054 75.0801 82.2897 75.0801 82.579C75.0801 82.803 75.0381 83.006 74.9541 83.188C74.8748 83.3653 74.7535 83.5193 74.5901 83.65C74.4315 83.7807 74.2308 83.881 73.9881 83.951C73.7501 84.021 73.4701 84.056 73.1481 84.056C72.9428 84.056 72.7561 84.042 72.5881 84.014C72.4248 83.986 72.2755 83.951 72.1401 83.909C72.0095 83.8623 71.8928 83.8133 71.7901 83.762C71.6921 83.7107 71.6081 83.664 71.5381 83.622L71.8741 82.957C72.0608 83.0643 72.2685 83.1507 72.4971 83.216C72.7258 83.2813 72.9335 83.314 73.1201 83.314C73.2135 83.314 73.3278 83.3023 73.4631 83.279C73.6031 83.2557 73.7361 83.216 73.8621 83.16C73.9881 83.0993 74.0955 83.02 74.1841 82.922C74.2775 82.824 74.3241 82.7003 74.3241 82.551C74.3241 82.4157 74.2868 82.3013 74.2121 82.208C74.1421 82.11 74.0465 82.026 73.9251 81.956C73.8085 81.8813 73.6731 81.816 73.5191 81.76C73.3698 81.6993 73.2158 81.6387 73.0571 81.578C72.8985 81.5127 72.7421 81.445 72.5881 81.375C72.4388 81.305 72.3035 81.221 72.1821 81.123C72.0655 81.0203 71.9698 80.9037 71.8951 80.773C71.8251 80.6377 71.7901 80.4767 71.7901 80.29C71.7901 80.1173 71.8251 79.947 71.8951 79.779C71.9651 79.611 72.0701 79.4617 72.2101 79.331C72.3501 79.2003 72.5228 79.0953 72.7281 79.016C72.9381 78.9367 73.1808 78.897 73.4561 78.897C73.6241 78.897 73.7875 78.911 73.9461 78.939C74.1095 78.967 74.2565 78.9997 74.3871 79.037C74.5178 79.0697 74.6275 79.1023 74.7161 79.135C74.8095 79.1677 74.8701 79.191 74.8981 79.205Z" fill="#C4C4C4"/>
<mask id="mask0" mask-type="alpha" maskUnits="userSpaceOnUse" x="47" y="34" width="42" height="42">
<circle cx="68" cy="55" r="21" fill="#C4C4C4"/>
</mask>
<g mask="url(#mask0)">
<line x1="44.6464" y1="78.6464" x2="91.4926" y2="31.8003" stroke="#C6C6C6"/>
<line x1="45.3566" y1="31.6495" x2="91.3951" y2="78.4957" stroke="#C6C6C6"/>
<line x1="44" y1="55.5" x2="92.4615" y2="55.5" stroke="#C6C6C6"/>
<line x1="67.5" y1="53" x2="67.5" y2="29.5769" stroke="#C6C6C6"/>
</g>
<circle cx="68" cy="55" r="18" transform="rotate(-180 68 55)" fill="#222222"/>
<circle cx="68" cy="55" r="16" transform="rotate(-180 68 55)" fill="black"/>
<rect x="69" y="55" width="3" height="16" transform="rotate(-180 69 55)" fill="#E5E5E5"/>
<path d="M13.0307 84V78.925H13.8007V83.272H16.3207V84H13.0307ZM17.0297 84V78.925H20.3617V79.618H17.7997V81.102H20.0817V81.809H17.7997V83.293H20.4597V84H17.0297ZM21.4971 78.925C21.5297 79.0043 21.5834 79.135 21.6581 79.317C21.7327 79.4943 21.8167 79.6973 21.9101 79.926C22.0081 80.1547 22.1084 80.3973 22.2111 80.654C22.3184 80.9107 22.4187 81.1533 22.5121 81.382C22.6054 81.6107 22.6894 81.816 22.7641 81.998C22.8387 82.1753 22.8924 82.3037 22.9251 82.383C22.9297 82.3923 22.9414 82.425 22.9601 82.481C22.9787 82.537 22.9927 82.586 23.0021 82.628L23.0721 82.383C23.1047 82.3037 23.1584 82.1753 23.2331 81.998C23.3077 81.816 23.3917 81.6107 23.4851 81.382C23.5784 81.1533 23.6764 80.9107 23.7791 80.654C23.8864 80.3973 23.9867 80.1547 24.0801 79.926C24.1781 79.6973 24.2644 79.4943 24.3391 79.317C24.4137 79.135 24.4674 79.0043 24.5001 78.925H25.2561C25.2281 78.9903 25.1767 79.1093 25.1021 79.282C25.0321 79.45 24.9457 79.6553 24.8431 79.898C24.7404 80.1407 24.6261 80.4067 24.5001 80.696C24.3787 80.9853 24.2527 81.2793 24.1221 81.578C23.9961 81.8767 23.8701 82.1707 23.7441 82.46C23.6227 82.7493 23.5107 83.0153 23.4081 83.258C23.3101 83.5007 23.2237 83.7083 23.1491 83.881C23.0791 84.049 23.0301 84.1657 23.0021 84.231L20.7411 78.925H21.4971ZM25.8959 84V78.925H29.2279V79.618H26.6659V81.102H28.9479V81.809H26.6659V83.293H29.3259V84H25.8959ZM30.2163 84V78.925H30.9863V83.272H33.5063V84H30.2163Z" fill="#C4C4C4"/>
<mask id="mask1" mask-type="alpha" maskUnits="userSpaceOnUse" x="2" y="34" width="42" height="42">
<circle cx="23" cy="55" r="21" fill="#C4C4C4"/>
</mask>
<g mask="url(#mask1)">
<line x1="-0.353555" y1="78.6464" x2="46.4926" y2="31.8003" stroke="#C6C6C6"/>
<line x1="0.356615" y1="31.6495" x2="46.3951" y2="78.4957" stroke="#C6C6C6"/>
<line x1="-0.999999" y1="55.5" x2="47.4615" y2="55.5" stroke="#C6C6C6"/>
<line x1="22.5" y1="53" x2="22.5" y2="29.5769" stroke="#C6C6C6"/>
</g>
<circle cx="23" cy="55" r="18" transform="rotate(-180 23 55)" fill="#222222"/>
<circle cx="23" cy="55" r="16" transform="rotate(-180 23 55)" fill="black"/>
<rect x="24" y="55" width="3" height="16" transform="rotate(-180 24 55)" fill="#E5E5E5"/>
<path d="M44.8841 139.636C44.8281 139.678 44.7488 139.725 44.6461 139.776C44.5481 139.823 44.4315 139.867 44.2961 139.909C44.1608 139.951 44.0091 139.986 43.8411 140.014C43.6778 140.042 43.5028 140.056 43.3161 140.056C42.9195 140.056 42.5625 139.988 42.2451 139.853C41.9325 139.713 41.6665 139.526 41.4471 139.293C41.2278 139.06 41.0598 138.789 40.9431 138.481C40.8265 138.173 40.7681 137.846 40.7681 137.501C40.7681 137.118 40.8358 136.766 40.9711 136.444C41.1111 136.122 41.3001 135.844 41.5381 135.611C41.7761 135.378 42.0538 135.196 42.3711 135.065C42.6931 134.934 43.0338 134.869 43.3931 134.869C43.5285 134.869 43.6661 134.878 43.8061 134.897C43.9461 134.916 44.0768 134.941 44.1981 134.974C44.3241 135.007 44.4338 135.046 44.5271 135.093C44.6251 135.135 44.6998 135.179 44.7511 135.226C44.7138 135.282 44.6835 135.329 44.6601 135.366C44.6415 135.403 44.6205 135.443 44.5971 135.485C44.5738 135.522 44.5481 135.567 44.5201 135.618C44.4921 135.669 44.4548 135.737 44.4081 135.821C44.3475 135.779 44.2751 135.744 44.1911 135.716C44.1118 135.688 44.0278 135.665 43.9391 135.646C43.8505 135.627 43.7595 135.613 43.6661 135.604C43.5775 135.595 43.4958 135.59 43.4211 135.59C43.1505 135.59 42.8985 135.641 42.6651 135.744C42.4365 135.842 42.2381 135.977 42.0701 136.15C41.9021 136.318 41.7691 136.514 41.6711 136.738C41.5778 136.962 41.5311 137.195 41.5311 137.438C41.5311 137.676 41.5755 137.905 41.6641 138.124C41.7575 138.343 41.8835 138.539 42.0421 138.712C42.2055 138.885 42.3991 139.022 42.6231 139.125C42.8518 139.228 43.1015 139.279 43.3721 139.279C43.5168 139.279 43.6568 139.265 43.7921 139.237C43.9275 139.209 44.0488 139.176 44.1561 139.139C44.2681 139.102 44.3591 139.064 44.4291 139.027C44.5038 138.99 44.5481 138.962 44.5621 138.943L44.8841 139.636ZM45.729 134.925C45.7617 135.004 45.8153 135.135 45.89 135.317C45.9647 135.494 46.0487 135.697 46.142 135.926C46.24 136.155 46.3403 136.397 46.443 136.654C46.5503 136.911 46.6507 137.153 46.744 137.382C46.8373 137.611 46.9213 137.816 46.996 137.998C47.0707 138.175 47.1243 138.304 47.157 138.383C47.1617 138.392 47.1733 138.425 47.192 138.481C47.2107 138.537 47.2247 138.586 47.234 138.628L47.304 138.383C47.3367 138.304 47.3903 138.175 47.465 137.998C47.5397 137.816 47.6237 137.611 47.717 137.382C47.8103 137.153 47.9083 136.911 48.011 136.654C48.1183 136.397 48.2187 136.155 48.312 135.926C48.41 135.697 48.4963 135.494 48.571 135.317C48.6457 135.135 48.6993 135.004 48.732 134.925H49.488C49.46 134.99 49.4087 135.109 49.334 135.282C49.264 135.45 49.1777 135.655 49.075 135.898C48.9723 136.141 48.858 136.407 48.732 136.696C48.6107 136.985 48.4847 137.279 48.354 137.578C48.228 137.877 48.102 138.171 47.976 138.46C47.8547 138.749 47.7427 139.015 47.64 139.258C47.542 139.501 47.4557 139.708 47.381 139.881C47.311 140.049 47.262 140.166 47.234 140.231L44.973 134.925H45.729Z" fill="#C4C4C4"/>
<circle cx="45" cy="111" r="9.5" fill="#616161" stroke="#C4C4C4"/>
<path d="M45 103L51.9282 107V115L45 119L38.0718 115V107L45 103Z" fill="#A5A5A5"/>
<circle cx="45" cy="111" r="5.5" fill="black" stroke="#E5E5E5"/>
<path d="M11.7675 134.925H12.5305V140H11.7675V134.925ZM18.2293 134.925V140.231C18.164 140.147 18.038 140.012 17.8513 139.825C17.6646 139.638 17.45 139.424 17.2073 139.181C16.9646 138.938 16.7056 138.684 16.4303 138.418C16.1596 138.152 15.903 137.9 15.6603 137.662C15.4176 137.419 15.2053 137.205 15.0233 137.018C14.8413 136.827 14.72 136.691 14.6593 136.612L14.5263 136.43L14.5473 136.654V140H13.7773V134.687C13.8286 134.752 13.9126 134.846 14.0293 134.967C14.1506 135.088 14.2906 135.231 14.4493 135.394C14.6126 135.553 14.79 135.725 14.9813 135.912C15.1773 136.099 15.3733 136.288 15.5693 136.479C15.77 136.67 15.966 136.859 16.1573 137.046C16.3533 137.228 16.5306 137.398 16.6893 137.557C16.8526 137.716 16.9926 137.856 17.1093 137.977C17.226 138.098 17.3076 138.189 17.3543 138.25L17.4873 138.446L17.4663 138.208V134.925H18.2293Z" fill="#C4C4C4"/>
<circle cx="15" cy="111" r="9.5" fill="#616161" stroke="#C4C4C4"/>
<path d="M15 103L21.9282 107V115L15 119L8.0718 115V107L15 103Z" fill="#A5A5A5"/>
<circle cx="15" cy="111" r="5.5" fill="black" stroke="#E5E5E5"/>
<rect x="59" y="98" width="32" height="45" fill="#161616"/>
<path d="M67.9755 137.466C67.9755 137.116 68.0431 136.785 68.1785 136.472C68.3138 136.155 68.4981 135.877 68.7315 135.639C68.9695 135.401 69.2448 135.214 69.5575 135.079C69.8701 134.939 70.2061 134.869 70.5655 134.869C70.9201 134.869 71.2538 134.939 71.5665 135.079C71.8838 135.214 72.1591 135.401 72.3925 135.639C72.6305 135.877 72.8171 136.155 72.9525 136.472C73.0925 136.785 73.1625 137.116 73.1625 137.466C73.1625 137.825 73.0925 138.161 72.9525 138.474C72.8171 138.787 72.6305 139.062 72.3925 139.3C72.1591 139.533 71.8838 139.718 71.5665 139.853C71.2538 139.988 70.9201 140.056 70.5655 140.056C70.2061 140.056 69.8701 139.988 69.5575 139.853C69.2448 139.718 68.9695 139.533 68.7315 139.3C68.4981 139.062 68.3138 138.787 68.1785 138.474C68.0431 138.161 67.9755 137.825 67.9755 137.466ZM68.7385 137.473C68.7385 137.73 68.7851 137.972 68.8785 138.201C68.9765 138.425 69.1095 138.621 69.2775 138.789C69.4455 138.957 69.6415 139.09 69.8655 139.188C70.0895 139.286 70.3275 139.335 70.5795 139.335C70.8315 139.335 71.0671 139.286 71.2865 139.188C71.5105 139.09 71.7041 138.957 71.8675 138.789C72.0355 138.621 72.1661 138.425 72.2595 138.201C72.3575 137.972 72.4065 137.727 72.4065 137.466C72.4065 137.209 72.3575 136.969 72.2595 136.745C72.1661 136.516 72.0355 136.318 71.8675 136.15C71.6995 135.982 71.5035 135.849 71.2795 135.751C71.0601 135.653 70.8245 135.604 70.5725 135.604C70.3205 135.604 70.0825 135.653 69.8585 135.751C69.6345 135.849 69.4385 135.982 69.2705 136.15C69.1071 136.318 68.9765 136.516 68.8785 136.745C68.7851 136.974 68.7385 137.216 68.7385 137.473ZM75.9302 140.056C75.6595 140.056 75.4075 140.012 75.1742 139.923C74.9408 139.834 74.7355 139.711 74.5582 139.552C74.3855 139.389 74.2478 139.195 74.1452 138.971C74.0472 138.742 73.9982 138.488 73.9982 138.208V134.925H74.7682V138.187C74.7682 138.35 74.7962 138.502 74.8522 138.642C74.9128 138.777 74.9945 138.899 75.0972 139.006C75.2045 139.109 75.3282 139.19 75.4682 139.251C75.6082 139.307 75.7622 139.335 75.9302 139.335C76.0935 139.335 76.2452 139.307 76.3852 139.251C76.5298 139.19 76.6535 139.109 76.7562 139.006C76.8635 138.899 76.9475 138.777 77.0082 138.642C77.0688 138.502 77.0992 138.35 77.0992 138.187V134.925H77.8692V138.208C77.8692 138.488 77.8178 138.742 77.7152 138.971C77.6172 139.195 77.4795 139.389 77.3022 139.552C77.1295 139.711 76.9242 139.834 76.6862 139.923C76.4528 140.012 76.2008 140.056 75.9302 140.056ZM82.0121 134.925V135.653H80.7311V140H79.9681V135.653H78.7151V134.925H82.0121Z" fill="#C4C4C4"/>
<circle cx="76" cy="111" r="9.5" fill="#616161" stroke="#C4C4C4"/>
<path d="M76 103L82.9282 107V115L76 119L69.0718 115V107L76 103Z" fill="#A5A5A5"/>
<circle cx="76" cy="111" r="5.5" fill="black" stroke="#E5E5E5"/>
<path d="M62.0649 229.618V231.116H62.7509C63.0029 231.116 63.1919 231.041 63.3179 230.892C63.4439 230.743 63.5069 230.561 63.5069 230.346C63.5069 230.094 63.4299 229.91 63.2759 229.793C63.1265 229.676 62.9259 229.618 62.6739 229.618H62.0649ZM62.0649 231.767V233.307H62.7789C62.9142 233.307 63.0402 233.291 63.1569 233.258C63.2782 233.225 63.3832 233.179 63.4719 233.118C63.5605 233.053 63.6305 232.971 63.6819 232.873C63.7332 232.775 63.7589 232.661 63.7589 232.53C63.7589 232.385 63.7285 232.266 63.6679 232.173C63.6072 232.075 63.5255 231.996 63.4229 231.935C63.3249 231.874 63.2105 231.832 63.0799 231.809C62.9539 231.781 62.8232 231.767 62.6879 231.767H62.0649ZM61.2949 234V228.925H62.6389C62.8862 228.925 63.1102 228.951 63.3109 229.002C63.5115 229.049 63.6819 229.126 63.8219 229.233C63.9619 229.336 64.0692 229.471 64.1439 229.639C64.2232 229.802 64.2629 230.003 64.2629 230.241C64.2629 230.372 64.2489 230.5 64.2209 230.626C64.1975 230.752 64.1555 230.869 64.0949 230.976C64.0389 231.079 63.9619 231.17 63.8639 231.249C63.7705 231.328 63.6539 231.389 63.5139 231.431C63.6352 231.454 63.7542 231.494 63.8709 231.55C63.9922 231.606 64.0995 231.683 64.1929 231.781C64.2862 231.874 64.3609 231.991 64.4169 232.131C64.4775 232.271 64.5079 232.437 64.5079 232.628C64.5079 232.871 64.4612 233.078 64.3679 233.251C64.2745 233.424 64.1509 233.566 63.9969 233.678C63.8429 233.79 63.6655 233.872 63.4649 233.923C63.2642 233.974 63.0565 234 62.8419 234H61.2949ZM65.4511 228.925H66.2141V234H65.4511V228.925ZM70.6039 234C70.5806 233.949 70.5479 233.874 70.5059 233.776C70.4639 233.678 70.4149 233.566 70.3589 233.44C70.3076 233.309 70.2492 233.169 70.1839 233.02C70.1232 232.866 70.0602 232.707 69.9949 232.544H68.2029L67.6009 234H66.8449L69.1059 228.687C69.1339 228.752 69.1829 228.871 69.2529 229.044C69.3276 229.217 69.4139 229.424 69.5119 229.667C69.6146 229.905 69.7266 230.171 69.8479 230.465C69.9739 230.754 70.0999 231.048 70.2259 231.347C70.3566 231.646 70.4826 231.94 70.6039 232.229C70.7299 232.518 70.8442 232.784 70.9469 233.027C71.0496 233.27 71.1359 233.477 71.2059 233.65C71.2806 233.818 71.3319 233.935 71.3599 234H70.6039ZM68.4689 231.9H69.7359C69.6706 231.746 69.6076 231.599 69.5469 231.459C69.4909 231.314 69.4372 231.184 69.3859 231.067C69.3392 230.946 69.2972 230.841 69.2599 230.752C69.2226 230.663 69.1946 230.593 69.1759 230.542C69.1712 230.533 69.1596 230.5 69.1409 230.444C69.1269 230.388 69.1152 230.337 69.1059 230.29C69.0966 230.337 69.0826 230.388 69.0639 230.444C69.0452 230.5 69.0336 230.533 69.0289 230.542L68.4689 231.9ZM74.8981 229.205L74.6251 229.828C74.4338 229.758 74.2425 229.702 74.0511 229.66C73.8645 229.618 73.6848 229.597 73.5121 229.597C73.2181 229.597 72.9825 229.658 72.8051 229.779C72.6325 229.9 72.5461 230.054 72.5461 230.241C72.5461 230.4 72.6091 230.528 72.7351 230.626C72.8611 230.719 73.0175 230.806 73.2041 230.885C73.3908 230.96 73.5938 231.037 73.8131 231.116C74.0325 231.191 74.2355 231.289 74.4221 231.41C74.6088 231.531 74.7651 231.685 74.8911 231.872C75.0171 232.054 75.0801 232.29 75.0801 232.579C75.0801 232.803 75.0381 233.006 74.9541 233.188C74.8748 233.365 74.7535 233.519 74.5901 233.65C74.4315 233.781 74.2308 233.881 73.9881 233.951C73.7501 234.021 73.4701 234.056 73.1481 234.056C72.9428 234.056 72.7561 234.042 72.5881 234.014C72.4248 233.986 72.2755 233.951 72.1401 233.909C72.0095 233.862 71.8928 233.813 71.7901 233.762C71.6921 233.711 71.6081 233.664 71.5381 233.622L71.8741 232.957C72.0608 233.064 72.2685 233.151 72.4971 233.216C72.7258 233.281 72.9335 233.314 73.1201 233.314C73.2135 233.314 73.3278 233.302 73.4631 233.279C73.6031 233.256 73.7361 233.216 73.8621 233.16C73.9881 233.099 74.0955 233.02 74.1841 232.922C74.2775 232.824 74.3241 232.7 74.3241 232.551C74.3241 232.416 74.2868 232.301 74.2121 232.208C74.1421 232.11 74.0465 232.026 73.9251 231.956C73.8085 231.881 73.6731 231.816 73.5191 231.76C73.3698 231.699 73.2158 231.639 73.0571 231.578C72.8985 231.513 72.7421 231.445 72.5881 231.375C72.4388 231.305 72.3035 231.221 72.1821 231.123C72.0655 231.02 71.9698 230.904 71.8951 230.773C71.8251 230.638 71.7901 230.477 71.7901 230.29C71.7901 230.117 71.8251 229.947 71.8951 229.779C71.9651 229.611 72.0701 229.462 72.2101 229.331C72.3501 229.2 72.5228 229.095 72.7281 229.016C72.9381 228.937 73.1808 228.897 73.4561 228.897C73.6241 228.897 73.7875 228.911 73.9461 228.939C74.1095 228.967 74.2565 229 74.3871 229.037C74.5178 229.07 74.6275 229.102 74.7161 229.135C74.8095 229.168 74.8701 229.191 74.8981 229.205Z" fill="#C4C4C4"/>
<mask id="mask2" mask-type="alpha" maskUnits="userSpaceOnUse" x="47" y="184" width="42" height="42">
<circle cx="68" cy="205" r="21" fill="#C4C4C4"/>
</mask>
<g mask="url(#mask2)">
<line x1="44.6464" y1="228.646" x2="91.4926" y2="181.8" stroke="#C6C6C6"/>
<line x1="45.3566" y1="181.65" x2="91.3951" y2="228.496" stroke="#C6C6C6"/>
<line x1="44" y1="205.5" x2="92.4615" y2="205.5" stroke="#C6C6C6"/>
<line x1="67.5" y1="203" x2="67.5" y2="179.577" stroke="#C6C6C6"/>
</g>
<circle cx="68" cy="205" r="18" transform="rotate(-180 68 205)" fill="#222222"/>
<circle cx="68" cy="205" r="16" transform="rotate(-180 68 205)" fill="black"/>
<rect x="69" y="205" width="3" height="16" transform="rotate(-180 69 205)" fill="#E5E5E5"/>
<path d="M13.0307 234V228.925H13.8007V233.272H16.3207V234H13.0307ZM17.0297 234V228.925H20.3617V229.618H17.7997V231.102H20.0817V231.809H17.7997V233.293H20.4597V234H17.0297ZM21.4971 228.925C21.5297 229.004 21.5834 229.135 21.6581 229.317C21.7327 229.494 21.8167 229.697 21.9101 229.926C22.0081 230.155 22.1084 230.397 22.2111 230.654C22.3184 230.911 22.4187 231.153 22.5121 231.382C22.6054 231.611 22.6894 231.816 22.7641 231.998C22.8387 232.175 22.8924 232.304 22.9251 232.383C22.9297 232.392 22.9414 232.425 22.9601 232.481C22.9787 232.537 22.9927 232.586 23.0021 232.628L23.0721 232.383C23.1047 232.304 23.1584 232.175 23.2331 231.998C23.3077 231.816 23.3917 231.611 23.4851 231.382C23.5784 231.153 23.6764 230.911 23.7791 230.654C23.8864 230.397 23.9867 230.155 24.0801 229.926C24.1781 229.697 24.2644 229.494 24.3391 229.317C24.4137 229.135 24.4674 229.004 24.5001 228.925H25.2561C25.2281 228.99 25.1767 229.109 25.1021 229.282C25.0321 229.45 24.9457 229.655 24.8431 229.898C24.7404 230.141 24.6261 230.407 24.5001 230.696C24.3787 230.985 24.2527 231.279 24.1221 231.578C23.9961 231.877 23.8701 232.171 23.7441 232.46C23.6227 232.749 23.5107 233.015 23.4081 233.258C23.3101 233.501 23.2237 233.708 23.1491 233.881C23.0791 234.049 23.0301 234.166 23.0021 234.231L20.7411 228.925H21.4971ZM25.8959 234V228.925H29.2279V229.618H26.6659V231.102H28.9479V231.809H26.6659V233.293H29.3259V234H25.8959ZM30.2163 234V228.925H30.9863V233.272H33.5063V234H30.2163Z" fill="#C4C4C4"/>
<mask id="mask3" mask-type="alpha" maskUnits="userSpaceOnUse" x="2" y="184" width="42" height="42">
<circle cx="23" cy="205" r="21" fill="#C4C4C4"/>
</mask>
<g mask="url(#mask3)">
<line x1="-0.353555" y1="228.646" x2="46.4926" y2="181.8" stroke="#C6C6C6"/>
<line x1="0.356615" y1="181.65" x2="46.3951" y2="228.496" stroke="#C6C6C6"/>
<line x1="-0.999999" y1="205.5" x2="47.4615" y2="205.5" stroke="#C6C6C6"/>
<line x1="22.5" y1="203" x2="22.5" y2="179.577" stroke="#C6C6C6"/>
</g>
<circle cx="23" cy="205" r="18" transform="rotate(-180 23 205)" fill="#222222"/>
<circle cx="23" cy="205" r="16" transform="rotate(-180 23 205)" fill="black"/>
<rect x="24" y="205" width="3" height="16" transform="rotate(-180 24 205)" fill="#E5E5E5"/>
<path d="M44.8841 289.636C44.8281 289.678 44.7488 289.725 44.6461 289.776C44.5481 289.823 44.4315 289.867 44.2961 289.909C44.1608 289.951 44.0091 289.986 43.8411 290.014C43.6778 290.042 43.5028 290.056 43.3161 290.056C42.9195 290.056 42.5625 289.988 42.2451 289.853C41.9325 289.713 41.6665 289.526 41.4471 289.293C41.2278 289.06 41.0598 288.789 40.9431 288.481C40.8265 288.173 40.7681 287.846 40.7681 287.501C40.7681 287.118 40.8358 286.766 40.9711 286.444C41.1111 286.122 41.3001 285.844 41.5381 285.611C41.7761 285.378 42.0538 285.196 42.3711 285.065C42.6931 284.934 43.0338 284.869 43.3931 284.869C43.5285 284.869 43.6661 284.878 43.8061 284.897C43.9461 284.916 44.0768 284.941 44.1981 284.974C44.3241 285.007 44.4338 285.046 44.5271 285.093C44.6251 285.135 44.6998 285.179 44.7511 285.226C44.7138 285.282 44.6835 285.329 44.6601 285.366C44.6415 285.403 44.6205 285.443 44.5971 285.485C44.5738 285.522 44.5481 285.567 44.5201 285.618C44.4921 285.669 44.4548 285.737 44.4081 285.821C44.3475 285.779 44.2751 285.744 44.1911 285.716C44.1118 285.688 44.0278 285.665 43.9391 285.646C43.8505 285.627 43.7595 285.613 43.6661 285.604C43.5775 285.595 43.4958 285.59 43.4211 285.59C43.1505 285.59 42.8985 285.641 42.6651 285.744C42.4365 285.842 42.2381 285.977 42.0701 286.15C41.9021 286.318 41.7691 286.514 41.6711 286.738C41.5778 286.962 41.5311 287.195 41.5311 287.438C41.5311 287.676 41.5755 287.905 41.6641 288.124C41.7575 288.343 41.8835 288.539 42.0421 288.712C42.2055 288.885 42.3991 289.022 42.6231 289.125C42.8518 289.228 43.1015 289.279 43.3721 289.279C43.5168 289.279 43.6568 289.265 43.7921 289.237C43.9275 289.209 44.0488 289.176 44.1561 289.139C44.2681 289.102 44.3591 289.064 44.4291 289.027C44.5038 288.99 44.5481 288.962 44.5621 288.943L44.8841 289.636ZM45.729 284.925C45.7617 285.004 45.8153 285.135 45.89 285.317C45.9647 285.494 46.0487 285.697 46.142 285.926C46.24 286.155 46.3403 286.397 46.443 286.654C46.5503 286.911 46.6507 287.153 46.744 287.382C46.8373 287.611 46.9213 287.816 46.996 287.998C47.0707 288.175 47.1243 288.304 47.157 288.383C47.1617 288.392 47.1733 288.425 47.192 288.481C47.2107 288.537 47.2247 288.586 47.234 288.628L47.304 288.383C47.3367 288.304 47.3903 288.175 47.465 287.998C47.5397 287.816 47.6237 287.611 47.717 287.382C47.8103 287.153 47.9083 286.911 48.011 286.654C48.1183 286.397 48.2187 286.155 48.312 285.926C48.41 285.697 48.4963 285.494 48.571 285.317C48.6457 285.135 48.6993 285.004 48.732 284.925H49.488C49.46 284.99 49.4087 285.109 49.334 285.282C49.264 285.45 49.1777 285.655 49.075 285.898C48.9723 286.141 48.858 286.407 48.732 286.696C48.6107 286.985 48.4847 287.279 48.354 287.578C48.228 287.877 48.102 288.171 47.976 288.46C47.8547 288.749 47.7427 289.015 47.64 289.258C47.542 289.501 47.4557 289.708 47.381 289.881C47.311 290.049 47.262 290.166 47.234 290.231L44.973 284.925H45.729Z" fill="#C4C4C4"/>
<circle cx="45" cy="261" r="9.5" fill="#616161" stroke="#C4C4C4"/>
<path d="M45 253L51.9282 257V265L45 269L38.0718 265V257L45 253Z" fill="#A5A5A5"/>
<circle cx="45" cy="261" r="5.5" fill="black" stroke="#E5E5E5"/>
<path d="M11.7675 284.925H12.5305V290H11.7675V284.925ZM18.2293 284.925V290.231C18.164 290.147 18.038 290.012 17.8513 289.825C17.6646 289.638 17.45 289.424 17.2073 289.181C16.9646 288.938 16.7056 288.684 16.4303 288.418C16.1596 288.152 15.903 287.9 15.6603 287.662C15.4176 287.419 15.2053 287.205 15.0233 287.018C14.8413 286.827 14.72 286.691 14.6593 286.612L14.5263 286.43L14.5473 286.654V290H13.7773V284.687C13.8286 284.752 13.9126 284.846 14.0293 284.967C14.1506 285.088 14.2906 285.231 14.4493 285.394C14.6126 285.553 14.79 285.725 14.9813 285.912C15.1773 286.099 15.3733 286.288 15.5693 286.479C15.77 286.67 15.966 286.859 16.1573 287.046C16.3533 287.228 16.5306 287.398 16.6893 287.557C16.8526 287.716 16.9926 287.856 17.1093 287.977C17.226 288.098 17.3076 288.189 17.3543 288.25L17.4873 288.446L17.4663 288.208V284.925H18.2293Z" fill="#C4C4C4"/>
<circle cx="15" cy="261" r="9.5" fill="#616161" stroke="#C4C4C4"/>
<path d="M15 253L21.9282 257V265L15 269L8.0718 265V257L15 253Z" fill="#A5A5A5"/>
<circle cx="15" cy="261" r="5.5" fill="black" stroke="#E5E5E5"/>
<rect x="59" y="248" width="32" height="45" fill="#161616"/>
<path d="M67.9755 287.466C67.9755 287.116 68.0431 286.785 68.1785 286.472C68.3138 286.155 68.4981 285.877 68.7315 285.639C68.9695 285.401 69.2448 285.214 69.5575 285.079C69.8701 284.939 70.2061 284.869 70.5655 284.869C70.9201 284.869 71.2538 284.939 71.5665 285.079C71.8838 285.214 72.1591 285.401 72.3925 285.639C72.6305 285.877 72.8171 286.155 72.9525 286.472C73.0925 286.785 73.1625 287.116 73.1625 287.466C73.1625 287.825 73.0925 288.161 72.9525 288.474C72.8171 288.787 72.6305 289.062 72.3925 289.3C72.1591 289.533 71.8838 289.718 71.5665 289.853C71.2538 289.988 70.9201 290.056 70.5655 290.056C70.2061 290.056 69.8701 289.988 69.5575 289.853C69.2448 289.718 68.9695 289.533 68.7315 289.3C68.4981 289.062 68.3138 288.787 68.1785 288.474C68.0431 288.161 67.9755 287.825 67.9755 287.466ZM68.7385 287.473C68.7385 287.73 68.7851 287.972 68.8785 288.201C68.9765 288.425 69.1095 288.621 69.2775 288.789C69.4455 288.957 69.6415 289.09 69.8655 289.188C70.0895 289.286 70.3275 289.335 70.5795 289.335C70.8315 289.335 71.0671 289.286 71.2865 289.188C71.5105 289.09 71.7041 288.957 71.8675 288.789C72.0355 288.621 72.1661 288.425 72.2595 288.201C72.3575 287.972 72.4065 287.727 72.4065 287.466C72.4065 287.209 72.3575 286.969 72.2595 286.745C72.1661 286.516 72.0355 286.318 71.8675 286.15C71.6995 285.982 71.5035 285.849 71.2795 285.751C71.0601 285.653 70.8245 285.604 70.5725 285.604C70.3205 285.604 70.0825 285.653 69.8585 285.751C69.6345 285.849 69.4385 285.982 69.2705 286.15C69.1071 286.318 68.9765 286.516 68.8785 286.745C68.7851 286.974 68.7385 287.216 68.7385 287.473ZM75.9302 290.056C75.6595 290.056 75.4075 290.012 75.1742 289.923C74.9408 289.834 74.7355 289.711 74.5582 289.552C74.3855 289.389 74.2478 289.195 74.1452 288.971C74.0472 288.742 73.9982 288.488 73.9982 288.208V284.925H74.7682V288.187C74.7682 288.35 74.7962 288.502 74.8522 288.642C74.9128 288.777 74.9945 288.899 75.0972 289.006C75.2045 289.109 75.3282 289.19 75.4682 289.251C75.6082 289.307 75.7622 289.335 75.9302 289.335C76.0935 289.335 76.2452 289.307 76.3852 289.251C76.5298 289.19 76.6535 289.109 76.7562 289.006C76.8635 288.899 76.9475 288.777 77.0082 288.642C77.0688 288.502 77.0992 288.35 77.0992 288.187V284.925H77.8692V288.208C77.8692 288.488 77.8178 288.742 77.7152 288.971C77.6172 289.195 77.4795 289.389 77.3022 289.552C77.1295 289.711 76.9242 289.834 76.6862 289.923C76.4528 290.012 76.2008 290.056 75.9302 290.056ZM82.0121 284.925V285.653H80.7311V290H79.9681V285.653H78.7151V284.925H82.0121Z" fill="#C4C4C4"/>
<circle cx="76" cy="261" r="9.5" fill="#616161" stroke="#C4C4C4"/>
<path d="M76 253L82.9282 257V265L76 269L69.0718 265V257L76 253Z" fill="#A5A5A5"/>
<circle cx="76" cy="261" r="5.5" fill="black" stroke="#E5E5E5"/>
<rect x="59" y="313" width="32" height="45" fill="#161616"/>
<path d="M69.2451 349.701C69.2871 349.766 69.3734 349.892 69.5041 350.079C69.6394 350.261 69.7934 350.473 69.9661 350.716C70.1434 350.959 70.3301 351.218 70.5261 351.493C70.7221 351.764 70.9064 352.02 71.0791 352.263C71.2517 352.501 71.4011 352.709 71.5271 352.886C71.6577 353.063 71.7441 353.18 71.7861 353.236C71.8001 353.213 71.8444 353.15 71.9191 353.047C71.9937 352.944 72.0847 352.816 72.1921 352.662C72.3041 352.508 72.4301 352.335 72.5701 352.144C72.7101 351.948 72.8524 351.75 72.9971 351.549C73.1464 351.344 73.2911 351.141 73.4311 350.94C73.5757 350.739 73.7087 350.557 73.8301 350.394C73.9514 350.226 74.0541 350.081 74.1381 349.96C74.2267 349.834 74.2897 349.748 74.3271 349.701V355H73.5151V352.158C73.5151 352.121 73.5174 352.081 73.5221 352.039C73.5314 351.997 73.5361 351.967 73.5361 351.948C73.4941 352.004 73.4264 352.1 73.3331 352.235C73.2444 352.366 73.1394 352.517 73.0181 352.69C72.9014 352.858 72.7777 353.038 72.6471 353.229C72.5164 353.416 72.3927 353.593 72.2761 353.761C72.1594 353.929 72.0567 354.078 71.9681 354.209C71.8794 354.335 71.8187 354.424 71.7861 354.475C71.7534 354.433 71.6881 354.347 71.5901 354.216C71.4967 354.081 71.3847 353.924 71.2541 353.747C71.1281 353.57 70.9927 353.381 70.8481 353.18C70.7081 352.979 70.5774 352.793 70.4561 352.62C70.3347 352.447 70.2297 352.3 70.1411 352.179C70.0524 352.053 70.0011 351.976 69.9871 351.948C69.9871 351.967 69.9894 351.997 69.9941 352.039C70.0034 352.081 70.0081 352.121 70.0081 352.158V355H69.2451V349.701ZM75.5751 349.925H76.3381V355H75.5751V349.925ZM78.6699 352.403L77.0809 349.925H78.0189C78.0422 349.962 78.0819 350.025 78.1379 350.114C78.1939 350.203 78.2569 350.305 78.3269 350.422C78.3969 350.534 78.4716 350.655 78.5509 350.786C78.6302 350.912 78.7049 351.033 78.7749 351.15C78.8449 351.262 78.9056 351.362 78.9569 351.451C79.0129 351.54 79.0526 351.603 79.0759 351.64C79.0806 351.649 79.0969 351.682 79.1249 351.738C79.1529 351.789 79.1739 351.836 79.1879 351.878C79.2019 351.836 79.2229 351.789 79.2509 351.738C79.2789 351.682 79.2952 351.649 79.2999 351.64C79.3232 351.603 79.3606 351.54 79.4119 351.451C79.4679 351.362 79.5286 351.262 79.5939 351.15C79.6639 351.033 79.7362 350.912 79.8109 350.786C79.8856 350.655 79.9556 350.534 80.0209 350.422C80.0909 350.305 80.1516 350.203 80.2029 350.114C80.2589 350.025 80.2986 349.962 80.3219 349.925H81.2599C81.2319 349.967 81.1782 350.053 81.0989 350.184C81.0196 350.31 80.9239 350.459 80.8119 350.632C80.7046 350.805 80.5902 350.989 80.4689 351.185C80.3476 351.381 80.2309 351.565 80.1189 351.738C80.0116 351.911 79.9159 352.062 79.8319 352.193C79.7526 352.319 79.7012 352.403 79.6779 352.445L81.3299 355H80.3779L79.3419 353.334C79.3326 353.32 79.3186 353.299 79.2999 353.271C79.2812 353.243 79.2626 353.213 79.2439 353.18C79.2252 353.143 79.2066 353.108 79.1879 353.075C79.1692 353.042 79.1552 353.017 79.1459 352.998C79.1319 353.04 79.1132 353.084 79.0899 353.131C79.0666 353.178 79.0526 353.203 79.0479 353.208C79.0106 353.269 78.9382 353.385 78.8309 353.558C78.7282 353.726 78.6186 353.908 78.5019 354.104C78.3899 354.3 78.2802 354.484 78.1729 354.657C78.0702 354.825 78.0002 354.939 77.9629 355H77.0109L78.6699 352.403Z" fill="#C4C4C4"/>
<circle cx="76" cy="326" r="9.5" fill="#616161" stroke="#C4C4C4"/>
<path d="M76 318L82.9282 322V330L76 334L69.0718 330V322L76 318Z" fill="#A5A5A5"/>
<circle cx="76" cy="326" r="5.5" fill="black" stroke="#E5E5E5"/>
</svg>
