<svg width="61" height="386" viewBox="0 0 61 386" fill="none" xmlns="http://www.w3.org/2000/svg">
<rect x="0.5" y="0.5" width="59.94" height="384.5" fill="#333333" stroke="#161616"/>
<path d="M16.4464 376V371.65H17.6344C17.8624 371.65 18.0704 371.68 18.2584 371.74C18.4504 371.8 18.6144 371.89 18.7504 372.01C18.8904 372.126 18.9984 372.27 19.0744 372.442C19.1504 372.61 19.1884 372.804 19.1884 373.024C19.1884 373.144 19.1764 373.264 19.1524 373.384C19.1284 373.5 19.0884 373.614 19.0324 373.726C18.9804 373.834 18.9124 373.936 18.8284 374.032C18.7444 374.124 18.6424 374.202 18.5224 374.266C18.6824 374.518 18.8564 374.798 19.0444 375.106C19.2324 375.41 19.4224 375.708 19.6144 376H18.8284C18.7484 375.876 18.6644 375.746 18.5764 375.61C18.4924 375.474 18.4064 375.34 18.3184 375.208C18.2344 375.072 18.1504 374.94 18.0664 374.812C17.9864 374.68 17.9104 374.558 17.8384 374.446H17.7184H17.1064V376H16.4464ZM17.1064 373.828H17.7004C17.8604 373.828 17.9944 373.802 18.1024 373.75C18.2104 373.694 18.2944 373.626 18.3544 373.546C18.4184 373.466 18.4624 373.38 18.4864 373.288C18.5144 373.196 18.5284 373.112 18.5284 373.036C18.5284 372.96 18.5144 372.878 18.4864 372.79C18.4624 372.698 18.4184 372.614 18.3544 372.538C18.2904 372.458 18.2044 372.392 18.0964 372.34C17.9924 372.288 17.8624 372.262 17.7064 372.262H17.1064V373.828ZM22.908 376C22.888 375.956 22.86 375.892 22.824 375.808C22.788 375.724 22.746 375.628 22.698 375.52C22.654 375.408 22.604 375.288 22.548 375.16C22.496 375.028 22.442 374.892 22.386 374.752H20.85L20.334 376H19.686L21.624 371.446C21.648 371.502 21.69 371.604 21.75 371.752C21.814 371.9 21.888 372.078 21.972 372.286C22.06 372.49 22.156 372.718 22.26 372.97C22.368 373.218 22.476 373.47 22.584 373.726C22.696 373.982 22.804 374.234 22.908 374.482C23.016 374.73 23.114 374.958 23.202 375.166C23.29 375.374 23.364 375.552 23.424 375.7C23.488 375.844 23.532 375.944 23.556 376H22.908ZM21.078 374.2H22.164C22.108 374.068 22.054 373.942 22.002 373.822C21.954 373.698 21.908 373.586 21.864 373.486C21.824 373.382 21.788 373.292 21.756 373.216C21.724 373.14 21.7 373.08 21.684 373.036C21.68 373.028 21.67 373 21.654 372.952C21.642 372.904 21.632 372.86 21.624 372.82C21.616 372.86 21.604 372.904 21.588 372.952C21.572 373 21.562 373.028 21.558 373.036L21.078 374.2ZM27.1627 375.688C27.1147 375.724 27.0467 375.764 26.9587 375.808C26.8747 375.848 26.7747 375.886 26.6587 375.922C26.5427 375.958 26.4127 375.988 26.2687 376.012C26.1287 376.036 25.9787 376.048 25.8187 376.048C25.4787 376.048 25.1727 375.99 24.9007 375.874C24.6327 375.754 24.4047 375.594 24.2167 375.394C24.0287 375.194 23.8847 374.962 23.7847 374.698C23.6847 374.434 23.6347 374.154 23.6347 373.858C23.6347 373.53 23.6927 373.228 23.8087 372.952C23.9287 372.676 24.0907 372.438 24.2947 372.238C24.4987 372.038 24.7367 371.882 25.0087 371.77C25.2847 371.658 25.5767 371.602 25.8847 371.602C26.0007 371.602 26.1187 371.61 26.2387 371.626C26.3587 371.642 26.4707 371.664 26.5747 371.692C26.6827 371.72 26.7767 371.754 26.8567 371.794C26.9407 371.83 27.0047 371.868 27.0487 371.908C27.0167 371.956 26.9907 371.996 26.9707 372.028C26.9547 372.06 26.9367 372.094 26.9167 372.13C26.8967 372.162 26.8747 372.2 26.8507 372.244C26.8267 372.288 26.7947 372.346 26.7547 372.418C26.7027 372.382 26.6407 372.352 26.5687 372.328C26.5007 372.304 26.4287 372.284 26.3527 372.268C26.2767 372.252 26.1987 372.24 26.1187 372.232C26.0427 372.224 25.9727 372.22 25.9087 372.22C25.6767 372.22 25.4607 372.264 25.2607 372.352C25.0647 372.436 24.8947 372.552 24.7507 372.7C24.6067 372.844 24.4927 373.012 24.4087 373.204C24.3287 373.396 24.2887 373.596 24.2887 373.804C24.2887 374.008 24.3267 374.204 24.4027 374.392C24.4827 374.58 24.5907 374.748 24.7267 374.896C24.8667 375.044 25.0327 375.162 25.2247 375.25C25.4207 375.338 25.6347 375.382 25.8667 375.382C25.9907 375.382 26.1107 375.37 26.2267 375.346C26.3427 375.322 26.4467 375.294 26.5387 375.262C26.6347 375.23 26.7127 375.198 26.7727 375.166C26.8367 375.134 26.8747 375.11 26.8867 375.094L27.1627 375.688ZM30.3408 376C30.2008 375.82 30.0668 375.648 29.9388 375.484C29.8108 375.32 29.6848 375.156 29.5608 374.992C29.4368 374.828 29.3108 374.662 29.1828 374.494C29.0588 374.326 28.9268 374.152 28.7868 373.972C28.7348 374.028 28.6848 374.08 28.6368 374.128C28.5888 374.172 28.5368 374.218 28.4808 374.266C28.4808 374.574 28.4808 374.864 28.4808 375.136C28.4848 375.404 28.4868 375.692 28.4868 376H27.7608V371.65H28.4868V373.276C28.4868 373.312 28.4828 373.348 28.4748 373.384C28.4708 373.416 28.4688 373.45 28.4688 373.486C28.4888 373.458 28.5088 373.434 28.5288 373.414C28.5488 373.39 28.5688 373.362 28.5888 373.33C28.8728 373.062 29.1468 372.784 29.4108 372.496C29.6748 372.204 29.9488 371.922 30.2328 371.65H31.0668C30.7668 371.962 30.4688 372.276 30.1728 372.592C29.8808 372.908 29.5848 373.222 29.2848 373.534C29.4528 373.75 29.6128 373.96 29.7648 374.164C29.9208 374.364 30.0728 374.564 30.2208 374.764C30.3728 374.964 30.5248 375.166 30.6768 375.37C30.8288 375.574 30.9868 375.784 31.1508 376H30.3408ZM31.6456 376V371.65H32.3056V375.376H34.4656V376H31.6456ZM35.0733 376V371.65H37.9293V372.244H35.7333V373.516H37.6893V374.122H35.7333V375.394H38.0133V376H35.0733ZM41.2665 371.89L41.0325 372.424C40.8685 372.364 40.7045 372.316 40.5405 372.28C40.3805 372.244 40.2265 372.226 40.0785 372.226C39.8265 372.226 39.6245 372.278 39.4725 372.382C39.3245 372.486 39.2505 372.618 39.2505 372.778C39.2505 372.914 39.3045 373.024 39.4125 373.108C39.5205 373.188 39.6545 373.262 39.8145 373.33C39.9745 373.394 40.1485 373.46 40.3365 373.528C40.5245 373.592 40.6985 373.676 40.8585 373.78C41.0185 373.884 41.1525 374.016 41.2605 374.176C41.3685 374.332 41.4225 374.534 41.4225 374.782C41.4225 374.974 41.3865 375.148 41.3145 375.304C41.2465 375.456 41.1425 375.588 41.0025 375.7C40.8665 375.812 40.6945 375.898 40.4865 375.958C40.2825 376.018 40.0425 376.048 39.7665 376.048C39.5905 376.048 39.4305 376.036 39.2865 376.012C39.1465 375.988 39.0185 375.958 38.9025 375.922C38.7905 375.882 38.6905 375.84 38.6025 375.796C38.5185 375.752 38.4465 375.712 38.3865 375.676L38.6745 375.106C38.8345 375.198 39.0125 375.272 39.2085 375.328C39.4045 375.384 39.5825 375.412 39.7425 375.412C39.8225 375.412 39.9205 375.402 40.0365 375.382C40.1565 375.362 40.2705 375.328 40.3785 375.28C40.4865 375.228 40.5785 375.16 40.6545 375.076C40.7345 374.992 40.7745 374.886 40.7745 374.758C40.7745 374.642 40.7425 374.544 40.6785 374.464C40.6185 374.38 40.5365 374.308 40.4325 374.248C40.3325 374.184 40.2165 374.128 40.0845 374.08C39.9565 374.028 39.8245 373.976 39.6885 373.924C39.5525 373.868 39.4185 373.81 39.2865 373.75C39.1585 373.69 39.0425 373.618 38.9385 373.534C38.8385 373.446 38.7565 373.346 38.6925 373.234C38.6325 373.118 38.6025 372.98 38.6025 372.82C38.6025 372.672 38.6325 372.526 38.6925 372.382C38.7525 372.238 38.8425 372.11 38.9625 371.998C39.0825 371.886 39.2305 371.796 39.4065 371.728C39.5865 371.66 39.7945 371.626 40.0305 371.626C40.1745 371.626 40.3145 371.638 40.4505 371.662C40.5905 371.686 40.7165 371.714 40.8285 371.746C40.9405 371.774 41.0345 371.802 41.1105 371.83C41.1905 371.858 41.2425 371.878 41.2665 371.89ZM44.659 371.89L44.425 372.424C44.261 372.364 44.097 372.316 43.933 372.28C43.773 372.244 43.619 372.226 43.471 372.226C43.219 372.226 43.017 372.278 42.865 372.382C42.717 372.486 42.643 372.618 42.643 372.778C42.643 372.914 42.697 373.024 42.805 373.108C42.913 373.188 43.047 373.262 43.207 373.33C43.367 373.394 43.541 373.46 43.729 373.528C43.917 373.592 44.091 373.676 44.251 373.78C44.411 373.884 44.545 374.016 44.653 374.176C44.761 374.332 44.815 374.534 44.815 374.782C44.815 374.974 44.779 375.148 44.707 375.304C44.639 375.456 44.535 375.588 44.395 375.7C44.259 375.812 44.087 375.898 43.879 375.958C43.675 376.018 43.435 376.048 43.159 376.048C42.983 376.048 42.823 376.036 42.679 376.012C42.539 375.988 42.411 375.958 42.295 375.922C42.183 375.882 42.083 375.84 41.995 375.796C41.911 375.752 41.839 375.712 41.779 375.676L42.067 375.106C42.227 375.198 42.405 375.272 42.601 375.328C42.797 375.384 42.975 375.412 43.135 375.412C43.215 375.412 43.313 375.402 43.429 375.382C43.549 375.362 43.663 375.328 43.771 375.28C43.879 375.228 43.971 375.16 44.047 375.076C44.127 374.992 44.167 374.886 44.167 374.758C44.167 374.642 44.135 374.544 44.071 374.464C44.011 374.38 43.929 374.308 43.825 374.248C43.725 374.184 43.609 374.128 43.477 374.08C43.349 374.028 43.217 373.976 43.081 373.924C42.945 373.868 42.811 373.81 42.679 373.75C42.551 373.69 42.435 373.618 42.331 373.534C42.231 373.446 42.149 373.346 42.085 373.234C42.025 373.118 41.995 372.98 41.995 372.82C41.995 372.672 42.025 372.526 42.085 372.382C42.145 372.238 42.235 372.11 42.355 371.998C42.475 371.886 42.623 371.796 42.799 371.728C42.979 371.66 43.187 371.626 43.423 371.626C43.567 371.626 43.707 371.638 43.843 371.662C43.983 371.686 44.109 371.714 44.221 371.746C44.333 371.774 44.427 371.802 44.503 371.83C44.583 371.858 44.635 371.878 44.659 371.89Z" fill="#C4C4C4"/>
<path d="M8.79737 23V16.475H12.7034V17.384H9.77837V19.355H12.3344V20.273H9.77837V23H8.79737ZM13.7896 23V16.475H18.0736V17.366H14.7796V19.274H17.7136V20.183H14.7796V22.091H18.1996V23H13.7896ZM19.3442 23V16.475H23.6282V17.366H20.3342V19.274H23.2682V20.183H20.3342V22.091H23.7542V23H19.3442ZM24.8989 16.475H26.5369C27.1969 16.475 27.7549 16.574 28.2109 16.772C28.6669 16.97 29.0359 17.231 29.3179 17.555C29.6059 17.873 29.8129 18.233 29.9389 18.635C30.0709 19.031 30.1369 19.427 30.1369 19.823C30.1369 20.309 30.0499 20.75 29.8759 21.146C29.7019 21.536 29.4649 21.869 29.1649 22.145C28.8649 22.421 28.5169 22.634 28.1209 22.784C27.7249 22.928 27.3049 23 26.8609 23H24.8989V16.475ZM26.7169 22.064C27.0649 22.064 27.3859 22.013 27.6799 21.911C27.9799 21.809 28.2379 21.662 28.4539 21.47C28.6759 21.272 28.8469 21.032 28.9669 20.75C29.0929 20.462 29.1559 20.132 29.1559 19.76C29.1559 19.364 29.0869 19.019 28.9489 18.725C28.8109 18.431 28.6309 18.188 28.4089 17.996C28.1869 17.798 27.9349 17.654 27.6529 17.564C27.3769 17.468 27.0949 17.42 26.8069 17.42H25.8799V22.064H26.7169ZM32.2874 17.366V19.292H33.1694C33.4934 19.292 33.7364 19.196 33.8984 19.004C34.0604 18.812 34.1414 18.578 34.1414 18.302C34.1414 17.978 34.0424 17.741 33.8444 17.591C33.6524 17.441 33.3944 17.366 33.0704 17.366H32.2874ZM32.2874 20.129V22.109H33.2054C33.3794 22.109 33.5414 22.088 33.6914 22.046C33.8474 22.004 33.9824 21.944 34.0964 21.866C34.2104 21.782 34.3004 21.677 34.3664 21.551C34.4324 21.425 34.4654 21.278 34.4654 21.11C34.4654 20.924 34.4264 20.771 34.3484 20.651C34.2704 20.525 34.1654 20.423 34.0334 20.345C33.9074 20.267 33.7604 20.213 33.5924 20.183C33.4304 20.147 33.2624 20.129 33.0884 20.129H32.2874ZM31.2974 23V16.475H33.0254C33.3434 16.475 33.6314 16.508 33.8894 16.574C34.1474 16.634 34.3664 16.733 34.5464 16.871C34.7264 17.003 34.8644 17.177 34.9604 17.393C35.0624 17.603 35.1134 17.861 35.1134 18.167C35.1134 18.335 35.0954 18.5 35.0594 18.662C35.0294 18.824 34.9754 18.974 34.8974 19.112C34.8254 19.244 34.7264 19.361 34.6004 19.463C34.4804 19.565 34.3304 19.643 34.1504 19.697C34.3064 19.727 34.4594 19.778 34.6094 19.85C34.7654 19.922 34.9034 20.021 35.0234 20.147C35.1434 20.267 35.2394 20.417 35.3114 20.597C35.3894 20.777 35.4284 20.99 35.4284 21.236C35.4284 21.548 35.3684 21.815 35.2484 22.037C35.1284 22.259 34.9694 22.442 34.7714 22.586C34.5734 22.73 34.3454 22.835 34.0874 22.901C33.8294 22.967 33.5624 23 33.2864 23H31.2974ZM40.6382 23C40.6082 22.934 40.5662 22.838 40.5122 22.712C40.4582 22.586 40.3952 22.442 40.3232 22.28C40.2572 22.112 40.1822 21.932 40.0982 21.74C40.0202 21.542 39.9392 21.338 39.8552 21.128H37.5512L36.7772 23H35.8052L38.7122 16.169C38.7482 16.253 38.8112 16.406 38.9012 16.628C38.9972 16.85 39.1082 17.117 39.2342 17.429C39.3662 17.735 39.5102 18.077 39.6662 18.455C39.8282 18.827 39.9902 19.205 40.1522 19.589C40.3202 19.973 40.4822 20.351 40.6382 20.723C40.8002 21.095 40.9472 21.437 41.0792 21.749C41.2112 22.061 41.3222 22.328 41.4122 22.55C41.5082 22.766 41.5742 22.916 41.6102 23H40.6382ZM37.8932 20.3H39.5222C39.4382 20.102 39.3572 19.913 39.2792 19.733C39.2072 19.547 39.1382 19.379 39.0722 19.229C39.0122 19.073 38.9582 18.938 38.9102 18.824C38.8622 18.71 38.8262 18.62 38.8022 18.554C38.7962 18.542 38.7812 18.5 38.7572 18.428C38.7392 18.356 38.7242 18.29 38.7122 18.23C38.7002 18.29 38.6822 18.356 38.6582 18.428C38.6342 18.5 38.6192 18.542 38.6132 18.554L37.8932 20.3ZM47.0202 22.532C46.9482 22.586 46.8462 22.646 46.7142 22.712C46.5882 22.772 46.4382 22.829 46.2642 22.883C46.0902 22.937 45.8952 22.982 45.6792 23.018C45.4692 23.054 45.2442 23.072 45.0042 23.072C44.4942 23.072 44.0352 22.985 43.6272 22.811C43.2252 22.631 42.8832 22.391 42.6012 22.091C42.3192 21.791 42.1032 21.443 41.9532 21.047C41.8032 20.651 41.7282 20.231 41.7282 19.787C41.7282 19.295 41.8152 18.842 41.9892 18.428C42.1692 18.014 42.4122 17.657 42.7182 17.357C43.0242 17.057 43.3812 16.823 43.7892 16.655C44.2032 16.487 44.6412 16.403 45.1032 16.403C45.2772 16.403 45.4542 16.415 45.6342 16.439C45.8142 16.463 45.9822 16.496 46.1382 16.538C46.3002 16.58 46.4412 16.631 46.5612 16.691C46.6872 16.745 46.7832 16.802 46.8492 16.862C46.8012 16.934 46.7622 16.994 46.7322 17.042C46.7082 17.09 46.6812 17.141 46.6512 17.195C46.6212 17.243 46.5882 17.3 46.5522 17.366C46.5162 17.432 46.4682 17.519 46.4082 17.627C46.3302 17.573 46.2372 17.528 46.1292 17.492C46.0272 17.456 45.9192 17.426 45.8052 17.402C45.6912 17.378 45.5742 17.36 45.4542 17.348C45.3402 17.336 45.2352 17.33 45.1392 17.33C44.7912 17.33 44.4672 17.396 44.1672 17.528C43.8732 17.654 43.6182 17.828 43.4022 18.05C43.1862 18.266 43.0152 18.518 42.8892 18.806C42.7692 19.094 42.7092 19.394 42.7092 19.706C42.7092 20.012 42.7662 20.306 42.8802 20.588C43.0002 20.87 43.1622 21.122 43.3662 21.344C43.5762 21.566 43.8252 21.743 44.1132 21.875C44.4072 22.007 44.7282 22.073 45.0762 22.073C45.2622 22.073 45.4422 22.055 45.6162 22.019C45.7902 21.983 45.9462 21.941 46.0842 21.893C46.2282 21.845 46.3452 21.797 46.4352 21.749C46.5312 21.701 46.5882 21.665 46.6062 21.641L47.0202 22.532ZM51.7875 23C51.5775 22.73 51.3765 22.472 51.1845 22.226C50.9925 21.98 50.8035 21.734 50.6175 21.488C50.4315 21.242 50.2425 20.993 50.0505 20.741C49.8645 20.489 49.6665 20.228 49.4565 19.958C49.3785 20.042 49.3035 20.12 49.2315 20.192C49.1595 20.258 49.0815 20.327 48.9975 20.399C48.9975 20.861 48.9975 21.296 48.9975 21.704C49.0035 22.106 49.0065 22.538 49.0065 23H47.9175V16.475H49.0065V18.914C49.0065 18.968 49.0005 19.022 48.9885 19.076C48.9825 19.124 48.9795 19.175 48.9795 19.229C49.0095 19.187 49.0395 19.151 49.0695 19.121C49.0995 19.085 49.1295 19.043 49.1595 18.995C49.5855 18.593 49.9965 18.176 50.3925 17.744C50.7885 17.306 51.1995 16.883 51.6255 16.475H52.8765C52.4265 16.943 51.9795 17.414 51.5355 17.888C51.0975 18.362 50.6535 18.833 50.2035 19.301C50.4555 19.625 50.6955 19.94 50.9235 20.246C51.1575 20.546 51.3855 20.846 51.6075 21.146C51.8355 21.446 52.0635 21.749 52.2915 22.055C52.5195 22.361 52.7565 22.676 53.0025 23H51.7875Z" fill="#C4C4C4"/>
<path d="M12.0175 356.925H12.7805V362H12.0175V356.925ZM18.4793 356.925V362.231C18.414 362.147 18.288 362.012 18.1013 361.825C17.9146 361.638 17.7 361.424 17.4573 361.181C17.2146 360.938 16.9556 360.684 16.6803 360.418C16.4096 360.152 16.153 359.9 15.9103 359.662C15.6676 359.419 15.4553 359.205 15.2733 359.018C15.0913 358.827 14.97 358.691 14.9093 358.612L14.7763 358.43L14.7973 358.654V362H14.0273V356.687C14.0786 356.752 14.1626 356.846 14.2793 356.967C14.4006 357.088 14.5406 357.231 14.6993 357.394C14.8626 357.553 15.04 357.725 15.2313 357.912C15.4273 358.099 15.6233 358.288 15.8193 358.479C16.02 358.67 16.216 358.859 16.4073 359.046C16.6033 359.228 16.7806 359.398 16.9393 359.557C17.1026 359.716 17.2426 359.856 17.3593 359.977C17.476 360.098 17.5576 360.189 17.6043 360.25L17.7373 360.446L17.7163 360.208V356.925H18.4793Z" fill="#C4C4C4"/>
<path d="M24.8333 333C24.8333 338.239 20.5132 342.5 15.1667 342.5C9.82009 342.5 5.5 338.239 5.5 333C5.5 327.761 9.82009 323.5 15.1667 323.5C20.5132 323.5 24.8333 327.761 24.8333 333Z" fill="#616161" stroke="#C4C4C4"/>
<path d="M15.1667 325L22.2103 329V337L15.1667 341L8.12299 337V329L15.1667 325Z" fill="#A5A5A5"/>
<path d="M15.1667 338.5C18.2424 338.5 20.75 336.045 20.75 333C20.75 329.955 18.2424 327.5 15.1667 327.5C12.0909 327.5 9.58333 329.955 9.58333 333C9.58333 336.045 12.0909 338.5 15.1667 338.5Z" fill="black" stroke="#E5E5E5"/>
<rect x="31.9677" y="320" width="28.5323" height="45" fill="#161616"/>
<path d="M37.7335 359.466C37.7335 359.116 37.8012 358.785 37.9365 358.472C38.0719 358.155 38.2562 357.877 38.4895 357.639C38.7275 357.401 39.0029 357.214 39.3155 357.079C39.6282 356.939 39.9642 356.869 40.3235 356.869C40.6782 356.869 41.0119 356.939 41.3245 357.079C41.6419 357.214 41.9172 357.401 42.1505 357.639C42.3885 357.877 42.5752 358.155 42.7105 358.472C42.8505 358.785 42.9205 359.116 42.9205 359.466C42.9205 359.825 42.8505 360.161 42.7105 360.474C42.5752 360.787 42.3885 361.062 42.1505 361.3C41.9172 361.533 41.6419 361.718 41.3245 361.853C41.0119 361.988 40.6782 362.056 40.3235 362.056C39.9642 362.056 39.6282 361.988 39.3155 361.853C39.0029 361.718 38.7275 361.533 38.4895 361.3C38.2562 361.062 38.0719 360.787 37.9365 360.474C37.8012 360.161 37.7335 359.825 37.7335 359.466ZM38.4965 359.473C38.4965 359.73 38.5432 359.972 38.6365 360.201C38.7345 360.425 38.8675 360.621 39.0355 360.789C39.2035 360.957 39.3995 361.09 39.6235 361.188C39.8475 361.286 40.0855 361.335 40.3375 361.335C40.5895 361.335 40.8252 361.286 41.0445 361.188C41.2685 361.09 41.4622 360.957 41.6255 360.789C41.7935 360.621 41.9242 360.425 42.0175 360.201C42.1155 359.972 42.1645 359.727 42.1645 359.466C42.1645 359.209 42.1155 358.969 42.0175 358.745C41.9242 358.516 41.7935 358.318 41.6255 358.15C41.4575 357.982 41.2615 357.849 41.0375 357.751C40.8182 357.653 40.5825 357.604 40.3305 357.604C40.0785 357.604 39.8405 357.653 39.6165 357.751C39.3925 357.849 39.1965 357.982 39.0285 358.15C38.8652 358.318 38.7345 358.516 38.6365 358.745C38.5432 358.974 38.4965 359.216 38.4965 359.473ZM45.6882 362.056C45.4176 362.056 45.1656 362.012 44.9322 361.923C44.6989 361.834 44.4936 361.711 44.3162 361.552C44.1436 361.389 44.0059 361.195 43.9032 360.971C43.8052 360.742 43.7562 360.488 43.7562 360.208V356.925H44.5262V360.187C44.5262 360.35 44.5542 360.502 44.6102 360.642C44.6709 360.777 44.7525 360.899 44.8552 361.006C44.9625 361.109 45.0862 361.19 45.2262 361.251C45.3662 361.307 45.5202 361.335 45.6882 361.335C45.8516 361.335 46.0032 361.307 46.1432 361.251C46.2879 361.19 46.4116 361.109 46.5142 361.006C46.6216 360.899 46.7056 360.777 46.7662 360.642C46.8269 360.502 46.8572 360.35 46.8572 360.187V356.925H47.6272V360.208C47.6272 360.488 47.5759 360.742 47.4732 360.971C47.3752 361.195 47.2376 361.389 47.0602 361.552C46.8876 361.711 46.6822 361.834 46.4442 361.923C46.2109 362.012 45.9589 362.056 45.6882 362.056ZM51.7701 356.925V357.653H50.4891V362H49.7261V357.653H48.4731V356.925H51.7701Z" fill="#C4C4C4"/>
<path d="M55.1774 333C55.1774 338.254 50.9887 342.5 45.8387 342.5C40.6887 342.5 36.5 338.254 36.5 333C36.5 327.746 40.6887 323.5 45.8387 323.5C50.9887 323.5 55.1774 327.746 55.1774 333Z" fill="#616161" stroke="#C4C4C4"/>
<path d="M45.8387 325L52.6552 329V337L45.8387 341L39.0223 337V329L45.8387 325Z" fill="#A5A5A5"/>
<path d="M45.8387 338.5C48.8394 338.5 51.2581 336.03 51.2581 333C51.2581 329.97 48.8394 327.5 45.8387 327.5C42.838 327.5 40.4194 329.97 40.4194 333C40.4194 336.03 42.838 338.5 45.8387 338.5Z" fill="black" stroke="#E5E5E5"/>
<path d="M13.1435 116V110.925H16.1815V111.632H13.9065V113.165H15.8945V113.879H13.9065V116H13.1435ZM17.0263 116V110.925H20.3583V111.618H17.7963V113.102H20.0783V113.809H17.7963V115.293H20.4563V116H17.0263ZM21.3466 116V110.925H24.6786V111.618H22.1166V113.102H24.3986V113.809H22.1166V115.293H24.7766V116H21.3466ZM25.6669 110.925H26.9409C27.4543 110.925 27.8883 111.002 28.2429 111.156C28.5976 111.31 28.8846 111.513 29.1039 111.765C29.3279 112.012 29.4889 112.292 29.5869 112.605C29.6896 112.913 29.7409 113.221 29.7409 113.529C29.7409 113.907 29.6733 114.25 29.5379 114.558C29.4026 114.861 29.2183 115.12 28.9849 115.335C28.7516 115.55 28.4809 115.715 28.1729 115.832C27.8649 115.944 27.5383 116 27.1929 116H25.6669V110.925ZM27.0809 115.272C27.3516 115.272 27.6013 115.232 27.8299 115.153C28.0633 115.074 28.2639 114.959 28.4319 114.81C28.6046 114.656 28.7376 114.469 28.8309 114.25C28.9289 114.026 28.9779 113.769 28.9779 113.48C28.9779 113.172 28.9243 112.904 28.8169 112.675C28.7096 112.446 28.5696 112.257 28.3969 112.108C28.2243 111.954 28.0283 111.842 27.8089 111.772C27.5943 111.697 27.3749 111.66 27.1509 111.66H26.4299V115.272H27.0809ZM31.4135 111.618V113.116H32.0995C32.3515 113.116 32.5405 113.041 32.6665 112.892C32.7925 112.743 32.8555 112.561 32.8555 112.346C32.8555 112.094 32.7785 111.91 32.6245 111.793C32.4752 111.676 32.2745 111.618 32.0225 111.618H31.4135ZM31.4135 113.767V115.307H32.1275C32.2628 115.307 32.3888 115.291 32.5055 115.258C32.6268 115.225 32.7318 115.179 32.8205 115.118C32.9092 115.053 32.9792 114.971 33.0305 114.873C33.0818 114.775 33.1075 114.661 33.1075 114.53C33.1075 114.385 33.0772 114.266 33.0165 114.173C32.9558 114.075 32.8742 113.996 32.7715 113.935C32.6735 113.874 32.5592 113.832 32.4285 113.809C32.3025 113.781 32.1718 113.767 32.0365 113.767H31.4135ZM30.6435 116V110.925H31.9875C32.2348 110.925 32.4588 110.951 32.6595 111.002C32.8602 111.049 33.0305 111.126 33.1705 111.233C33.3105 111.336 33.4178 111.471 33.4925 111.639C33.5718 111.802 33.6115 112.003 33.6115 112.241C33.6115 112.372 33.5975 112.5 33.5695 112.626C33.5462 112.752 33.5042 112.869 33.4435 112.976C33.3875 113.079 33.3105 113.17 33.2125 113.249C33.1192 113.328 33.0025 113.389 32.8625 113.431C32.9838 113.454 33.1028 113.494 33.2195 113.55C33.3408 113.606 33.4482 113.683 33.5415 113.781C33.6348 113.874 33.7095 113.991 33.7655 114.131C33.8262 114.271 33.8565 114.437 33.8565 114.628C33.8565 114.871 33.8098 115.078 33.7165 115.251C33.6232 115.424 33.4995 115.566 33.3455 115.678C33.1915 115.79 33.0142 115.872 32.8135 115.923C32.6128 115.974 32.4052 116 32.1905 116H30.6435ZM37.9086 116C37.8852 115.949 37.8526 115.874 37.8106 115.776C37.7686 115.678 37.7196 115.566 37.6636 115.44C37.6122 115.309 37.5539 115.169 37.4886 115.02C37.4279 114.866 37.3649 114.707 37.2996 114.544H35.5076L34.9056 116H34.1496L36.4106 110.687C36.4386 110.752 36.4876 110.871 36.5576 111.044C36.6322 111.217 36.7186 111.424 36.8166 111.667C36.9192 111.905 37.0312 112.171 37.1526 112.465C37.2786 112.754 37.4046 113.048 37.5306 113.347C37.6612 113.646 37.7872 113.94 37.9086 114.229C38.0346 114.518 38.1489 114.784 38.2516 115.027C38.3542 115.27 38.4406 115.477 38.5106 115.65C38.5852 115.818 38.6366 115.935 38.6646 116H37.9086ZM35.7736 113.9H37.0406C36.9752 113.746 36.9122 113.599 36.8516 113.459C36.7956 113.314 36.7419 113.184 36.6906 113.067C36.6439 112.946 36.6019 112.841 36.5646 112.752C36.5272 112.663 36.4992 112.593 36.4806 112.542C36.4759 112.533 36.4642 112.5 36.4456 112.444C36.4316 112.388 36.4199 112.337 36.4106 112.29C36.4012 112.337 36.3872 112.388 36.3686 112.444C36.3499 112.5 36.3382 112.533 36.3336 112.542L35.7736 113.9ZM42.8724 115.636C42.8164 115.678 42.7371 115.725 42.6344 115.776C42.5364 115.823 42.4197 115.867 42.2844 115.909C42.1491 115.951 41.9974 115.986 41.8294 116.014C41.6661 116.042 41.4911 116.056 41.3044 116.056C40.9077 116.056 40.5507 115.988 40.2334 115.853C39.9207 115.713 39.6547 115.526 39.4354 115.293C39.2161 115.06 39.0481 114.789 38.9314 114.481C38.8147 114.173 38.7564 113.846 38.7564 113.501C38.7564 113.118 38.8241 112.766 38.9594 112.444C39.0994 112.122 39.2884 111.844 39.5264 111.611C39.7644 111.378 40.0421 111.196 40.3594 111.065C40.6814 110.934 41.0221 110.869 41.3814 110.869C41.5167 110.869 41.6544 110.878 41.7944 110.897C41.9344 110.916 42.0651 110.941 42.1864 110.974C42.3124 111.007 42.4221 111.046 42.5154 111.093C42.6134 111.135 42.6881 111.179 42.7394 111.226C42.7021 111.282 42.6717 111.329 42.6484 111.366C42.6297 111.403 42.6087 111.443 42.5854 111.485C42.5621 111.522 42.5364 111.567 42.5084 111.618C42.4804 111.669 42.4431 111.737 42.3964 111.821C42.3357 111.779 42.2634 111.744 42.1794 111.716C42.1001 111.688 42.0161 111.665 41.9274 111.646C41.8387 111.627 41.7477 111.613 41.6544 111.604C41.5657 111.595 41.4841 111.59 41.4094 111.59C41.1387 111.59 40.8867 111.641 40.6534 111.744C40.4247 111.842 40.2264 111.977 40.0584 112.15C39.8904 112.318 39.7574 112.514 39.6594 112.738C39.5661 112.962 39.5194 113.195 39.5194 113.438C39.5194 113.676 39.5637 113.905 39.6524 114.124C39.7457 114.343 39.8717 114.539 40.0304 114.712C40.1937 114.885 40.3874 115.022 40.6114 115.125C40.8401 115.228 41.0897 115.279 41.3604 115.279C41.5051 115.279 41.6451 115.265 41.7804 115.237C41.9157 115.209 42.0371 115.176 42.1444 115.139C42.2564 115.102 42.3474 115.064 42.4174 115.027C42.4921 114.99 42.5364 114.962 42.5504 114.943L42.8724 115.636ZM46.5803 116C46.4169 115.79 46.2606 115.589 46.1113 115.398C45.9619 115.207 45.8149 115.015 45.6703 114.824C45.5256 114.633 45.3786 114.439 45.2293 114.243C45.0846 114.047 44.9306 113.844 44.7673 113.634C44.7066 113.699 44.6483 113.76 44.5923 113.816C44.5363 113.867 44.4756 113.921 44.4103 113.977C44.4103 114.336 44.4103 114.675 44.4103 114.992C44.4149 115.305 44.4173 115.641 44.4173 116H43.5703V110.925H44.4173V112.822C44.4173 112.864 44.4126 112.906 44.4033 112.948C44.3986 112.985 44.3963 113.025 44.3963 113.067C44.4196 113.034 44.4429 113.006 44.4663 112.983C44.4896 112.955 44.5129 112.922 44.5363 112.885C44.8676 112.572 45.1873 112.248 45.4953 111.912C45.8033 111.571 46.1229 111.242 46.4543 110.925H47.4273C47.0773 111.289 46.7296 111.655 46.3843 112.024C46.0436 112.393 45.6983 112.759 45.3483 113.123C45.5443 113.375 45.7309 113.62 45.9083 113.858C46.0903 114.091 46.2676 114.325 46.4403 114.558C46.6176 114.791 46.7949 115.027 46.9723 115.265C47.1496 115.503 47.3339 115.748 47.5253 116H46.5803Z" fill="#C4C4C4"/>
<mask id="mask0" mask-type="alpha" maskUnits="userSpaceOnUse" x="9" y="39" width="42" height="42">
<circle cx="30" cy="60" r="21" fill="#C4C4C4"/>
</mask>
<g mask="url(#mask0)">
<line x1="6.64645" y1="83.6464" x2="53.4926" y2="36.8003" stroke="#C6C6C6"/>
<line x1="7.35662" y1="36.6495" x2="53.3951" y2="83.4957" stroke="#C6C6C6"/>
<line x1="6" y1="60.5" x2="54.4615" y2="60.5" stroke="#C6C6C6"/>
<line x1="29.5" y1="58" x2="29.5" y2="34.5769" stroke="#C6C6C6"/>
</g>
<circle cx="30" cy="60" r="18" transform="rotate(-180 30 60)" fill="#222222"/>
<circle cx="30" cy="60" r="16" transform="rotate(-180 30 60)" fill="black"/>
<rect x="31" y="60" width="3" height="16" transform="rotate(-180 31 60)" fill="#E5E5E5"/>
<path d="M39.8333 93C39.8333 98.2389 35.5132 102.5 30.1667 102.5C24.8201 102.5 20.5 98.2389 20.5 93C20.5 87.7611 24.8201 83.5 30.1667 83.5C35.5132 83.5 39.8333 87.7611 39.8333 93Z" fill="#616161" stroke="#C4C4C4"/>
<path d="M30.1667 85L37.2103 89V97L30.1667 101L23.123 97V89L30.1667 85Z" fill="#A5A5A5"/>
<path d="M30.1667 98.5C33.2424 98.5 35.75 96.0453 35.75 93C35.75 89.9547 33.2424 87.5 30.1667 87.5C27.0909 87.5 24.5833 89.9547 24.5833 93C24.5833 96.0453 27.0909 98.5 30.1667 98.5Z" fill="black" stroke="#E5E5E5"/>
<path d="M25.3192 203.925V204.653H24.0382V209H23.2752V204.653H22.0222V203.925H25.3192ZM26.2207 203.925H26.9837V209H26.2207V203.925ZM28.2304 203.701C28.2724 203.766 28.3588 203.892 28.4894 204.079C28.6248 204.261 28.7788 204.473 28.9514 204.716C29.1288 204.959 29.3154 205.218 29.5114 205.493C29.7074 205.764 29.8918 206.02 30.0644 206.263C30.2371 206.501 30.3864 206.709 30.5124 206.886C30.6431 207.063 30.7294 207.18 30.7714 207.236C30.7854 207.213 30.8298 207.15 30.9044 207.047C30.9791 206.944 31.0701 206.816 31.1774 206.662C31.2894 206.508 31.4154 206.335 31.5554 206.144C31.6954 205.948 31.8378 205.75 31.9824 205.549C32.1318 205.344 32.2764 205.141 32.4164 204.94C32.5611 204.739 32.6941 204.557 32.8154 204.394C32.9368 204.226 33.0394 204.081 33.1234 203.96C33.2121 203.834 33.2751 203.748 33.3124 203.701V209H32.5004V206.158C32.5004 206.121 32.5028 206.081 32.5074 206.039C32.5168 205.997 32.5214 205.967 32.5214 205.948C32.4794 206.004 32.4118 206.1 32.3184 206.235C32.2298 206.366 32.1248 206.517 32.0034 206.69C31.8868 206.858 31.7631 207.038 31.6324 207.229C31.5018 207.416 31.3781 207.593 31.2614 207.761C31.1448 207.929 31.0421 208.078 30.9534 208.209C30.8648 208.335 30.8041 208.424 30.7714 208.475C30.7388 208.433 30.6734 208.347 30.5754 208.216C30.4821 208.081 30.3701 207.924 30.2394 207.747C30.1134 207.57 29.9781 207.381 29.8334 207.18C29.6934 206.979 29.5628 206.793 29.4414 206.62C29.3201 206.447 29.2151 206.3 29.1264 206.179C29.0378 206.053 28.9864 205.976 28.9724 205.948C28.9724 205.967 28.9748 205.997 28.9794 206.039C28.9888 206.081 28.9934 206.121 28.9934 206.158V209H28.2304V203.701ZM34.5605 209V203.925H37.8925V204.618H35.3305V206.102H37.6125V206.809H35.3305V208.293H37.9905V209H34.5605Z" fill="#C4C4C4"/>
<mask id="mask1" mask-type="alpha" maskUnits="userSpaceOnUse" x="9" y="132" width="42" height="42">
<circle cx="30" cy="153" r="21" fill="#C4C4C4"/>
</mask>
<g mask="url(#mask1)">
<line x1="6.64645" y1="176.646" x2="53.4926" y2="129.8" stroke="#C6C6C6"/>
<line x1="7.35662" y1="129.65" x2="53.3951" y2="176.496" stroke="#C6C6C6"/>
<line x1="6" y1="153.5" x2="54.4615" y2="153.5" stroke="#C6C6C6"/>
<line x1="29.5" y1="151" x2="29.5" y2="127.577" stroke="#C6C6C6"/>
</g>
<circle cx="30" cy="153" r="18" transform="rotate(-180 30 153)" fill="#222222"/>
<circle cx="30" cy="153" r="16" transform="rotate(-180 30 153)" fill="black"/>
<rect x="31" y="153" width="3" height="16" transform="rotate(-180 31 153)" fill="#E5E5E5"/>
<path d="M39.8333 186C39.8333 191.239 35.5132 195.5 30.1667 195.5C24.8201 195.5 20.5 191.239 20.5 186C20.5 180.761 24.8201 176.5 30.1667 176.5C35.5132 176.5 39.8333 180.761 39.8333 186Z" fill="#616161" stroke="#C4C4C4"/>
<path d="M30.1667 178L37.2103 182V190L30.1667 194L23.123 190V182L30.1667 178Z" fill="#A5A5A5"/>
<path d="M30.1667 191.5C33.2424 191.5 35.75 189.045 35.75 186C35.75 182.955 33.2424 180.5 30.1667 180.5C27.0909 180.5 24.5833 182.955 24.5833 186C24.5833 189.045 27.0909 191.5 30.1667 191.5Z" fill="black" stroke="#E5E5E5"/>
<path d="M29.1733 296.946C29.0053 297.389 28.8256 297.856 28.6343 298.346C28.4476 298.831 28.2609 299.31 28.0743 299.781C27.8923 300.252 27.7196 300.7 27.5563 301.125C27.3929 301.55 27.2553 301.916 27.1433 302.224L26.0093 299.389C25.9953 299.352 25.9836 299.324 25.9743 299.305C25.9649 299.286 25.9556 299.258 25.9463 299.221C25.9463 299.24 25.9439 299.258 25.9393 299.277C25.9346 299.291 25.9299 299.307 25.9253 299.326C25.9206 299.345 25.9159 299.363 25.9113 299.382C25.7526 299.746 25.5963 300.103 25.4423 300.453C25.3769 300.602 25.3093 300.756 25.2393 300.915C25.1693 301.074 25.1016 301.232 25.0363 301.391C24.9709 301.545 24.9056 301.694 24.8403 301.839C24.7796 301.984 24.7236 302.114 24.6723 302.231C24.3363 301.349 23.9979 300.469 23.6573 299.592C23.3166 298.715 22.9783 297.833 22.6423 296.946H23.5033C23.6153 297.254 23.7296 297.564 23.8463 297.877C23.9676 298.19 24.0796 298.491 24.1823 298.78C24.2896 299.069 24.3853 299.338 24.4693 299.585C24.5533 299.832 24.6186 300.042 24.6653 300.215L24.7213 300.46C24.7259 300.437 24.7376 300.399 24.7563 300.348C24.7749 300.292 24.7889 300.252 24.7983 300.229C24.8029 300.21 24.8193 300.168 24.8473 300.103C24.8753 300.038 24.9079 299.961 24.9453 299.872C24.9826 299.779 25.0246 299.678 25.0713 299.571C25.1179 299.464 25.1646 299.354 25.2113 299.242C25.3233 298.985 25.4469 298.701 25.5823 298.388C25.5029 298.169 25.4329 297.963 25.3723 297.772C25.3163 297.609 25.2626 297.448 25.2113 297.289C25.1646 297.13 25.1296 297.016 25.1063 296.946H25.8413C26.0419 297.473 26.2286 297.961 26.4013 298.409C26.4713 298.6 26.5413 298.792 26.6113 298.983C26.6859 299.174 26.7536 299.352 26.8143 299.515C26.8796 299.678 26.9356 299.823 26.9823 299.949C27.0289 300.07 27.0616 300.159 27.0803 300.215C27.0943 300.257 27.1036 300.299 27.1083 300.341C27.1176 300.378 27.1269 300.418 27.1363 300.46C27.1456 300.418 27.1526 300.376 27.1573 300.334C27.1666 300.292 27.1759 300.252 27.1853 300.215C27.2273 300.033 27.2926 299.816 27.3813 299.564C27.4699 299.312 27.5679 299.041 27.6753 298.752C27.7873 298.463 27.9039 298.164 28.0253 297.856C28.1466 297.543 28.2633 297.24 28.3753 296.946H29.1733ZM29.854 302V296.925H33.186V297.618H30.624V299.102H32.906V299.809H30.624V301.293H33.284V302H29.854ZM37.1283 296.925V297.653H35.8473V302H35.0843V297.653H33.8313V296.925H37.1283Z" fill="#C4C4C4"/>
<mask id="mask2" mask-type="alpha" maskUnits="userSpaceOnUse" x="9" y="225" width="42" height="42">
<circle cx="30" cy="246" r="21" fill="#C4C4C4"/>
</mask>
<g mask="url(#mask2)">
<line x1="6.64645" y1="269.646" x2="53.4926" y2="222.8" stroke="#C6C6C6"/>
<line x1="7.35662" y1="222.65" x2="53.3951" y2="269.496" stroke="#C6C6C6"/>
<line x1="6" y1="246.5" x2="54.4615" y2="246.5" stroke="#C6C6C6"/>
<line x1="29.5" y1="244" x2="29.5" y2="220.577" stroke="#C6C6C6"/>
</g>
<circle cx="30" cy="246" r="18" transform="rotate(-180 30 246)" fill="#222222"/>
<circle cx="30" cy="246" r="16" transform="rotate(-180 30 246)" fill="black"/>
<rect x="31" y="246" width="3" height="16" transform="rotate(-180 31 246)" fill="#E5E5E5"/>
<path d="M39.8333 279C39.8333 284.239 35.5132 288.5 30.1667 288.5C24.8201 288.5 20.5 284.239 20.5 279C20.5 273.761 24.8201 269.5 30.1667 269.5C35.5132 269.5 39.8333 273.761 39.8333 279Z" fill="#616161" stroke="#C4C4C4"/>
<path d="M30.1667 271L37.2103 275V283L30.1667 287L23.123 283V275L30.1667 271Z" fill="#A5A5A5"/>
<path d="M30.1667 284.5C33.2424 284.5 35.75 282.045 35.75 279C35.75 275.955 33.2424 273.5 30.1667 273.5C27.0909 273.5 24.5833 275.955 24.5833 279C24.5833 282.045 27.0909 284.5 30.1667 284.5Z" fill="black" stroke="#E5E5E5"/>
</svg>
