<svg width="87" height="15" viewBox="0 0 87 15" fill="none" xmlns="http://www.w3.org/2000/svg">
<path d="M0.929148 14V0.95H4.49315C5.17715 0.95 5.80115 1.04 6.36515 1.22C6.94115 1.4 7.43315 1.67 7.84115 2.03C8.26115 2.378 8.58515 2.81 8.81315 3.326C9.04115 3.83 9.15515 4.412 9.15515 5.072C9.15515 5.432 9.11915 5.792 9.04715 6.152C8.97515 6.5 8.85515 6.842 8.68715 7.178C8.53115 7.502 8.32715 7.808 8.07515 8.096C7.82315 8.372 7.51715 8.606 7.15715 8.798C7.63715 9.554 8.15915 10.394 8.72315 11.318C9.28715 12.23 9.85715 13.124 10.4331 14H8.07515C7.83515 13.628 7.58315 13.238 7.31915 12.83C7.06715 12.422 6.80915 12.02 6.54515 11.624C6.29315 11.216 6.04115 10.82 5.78915 10.436C5.54915 10.04 5.32115 9.674 5.10515 9.338H4.74515H2.90915V14H0.929148ZM2.90915 7.484H4.69115C5.17115 7.484 5.57315 7.406 5.89715 7.25C6.22115 7.082 6.47315 6.878 6.65315 6.638C6.84515 6.398 6.97715 6.14 7.04915 5.864C7.13315 5.588 7.17515 5.336 7.17515 5.108C7.17515 4.88 7.13315 4.634 7.04915 4.37C6.97715 4.094 6.84515 3.842 6.65315 3.614C6.46115 3.374 6.20315 3.176 5.87915 3.02C5.56715 2.864 5.17715 2.786 4.70915 2.786H2.90915V7.484ZM20.3139 14C20.2539 13.868 20.1699 13.676 20.0619 13.424C19.9539 13.172 19.8279 12.884 19.6839 12.56C19.5519 12.224 19.4019 11.864 19.2339 11.48C19.0779 11.084 18.9159 10.676 18.7479 10.256H14.1399L12.5919 14H10.6479L16.4619 0.337999C16.5339 0.505999 16.6599 0.811999 16.8399 1.256C17.0319 1.7 17.2539 2.234 17.5059 2.858C17.7699 3.47 18.0579 4.154 18.3699 4.91C18.6939 5.654 19.0179 6.41 19.3419 7.178C19.6779 7.946 20.0019 8.702 20.3139 9.446C20.6379 10.19 20.9319 10.874 21.1959 11.498C21.4599 12.122 21.6819 12.656 21.8619 13.1C22.0539 13.532 22.1859 13.832 22.2579 14H20.3139ZM14.8239 8.6H18.0819C17.9139 8.204 17.7519 7.826 17.5959 7.466C17.4519 7.094 17.3139 6.758 17.1819 6.458C17.0619 6.146 16.9539 5.876 16.8579 5.648C16.7619 5.42 16.6899 5.24 16.6419 5.108C16.6299 5.084 16.5999 5 16.5519 4.856C16.5159 4.712 16.4859 4.58 16.4619 4.46C16.4379 4.58 16.4019 4.712 16.3539 4.856C16.3059 5 16.2759 5.084 16.2639 5.108L14.8239 8.6ZM33.078 13.064C32.934 13.172 32.73 13.292 32.466 13.424C32.214 13.544 31.914 13.658 31.566 13.766C31.218 13.874 30.828 13.964 30.396 14.036C29.976 14.108 29.526 14.144 29.046 14.144C28.026 14.144 27.108 13.97 26.292 13.622C25.488 13.262 24.804 12.782 24.24 12.182C23.676 11.582 23.244 10.886 22.944 10.094C22.644 9.302 22.494 8.462 22.494 7.574C22.494 6.59 22.668 5.684 23.016 4.856C23.376 4.028 23.862 3.314 24.474 2.714C25.086 2.114 25.8 1.646 26.616 1.31C27.444 0.973999 28.32 0.805999 29.244 0.805999C29.592 0.805999 29.946 0.829999 30.306 0.877999C30.666 0.926 31.002 0.991999 31.314 1.076C31.638 1.16 31.92 1.262 32.16 1.382C32.412 1.49 32.604 1.604 32.736 1.724C32.64 1.868 32.562 1.988 32.502 2.084C32.454 2.18 32.4 2.282 32.34 2.39C32.28 2.486 32.214 2.6 32.142 2.732C32.07 2.864 31.974 3.038 31.854 3.254C31.698 3.146 31.512 3.056 31.296 2.984C31.092 2.912 30.876 2.852 30.648 2.804C30.42 2.756 30.186 2.72 29.946 2.696C29.718 2.672 29.508 2.66 29.316 2.66C28.62 2.66 27.972 2.792 27.372 3.056C26.784 3.308 26.274 3.656 25.842 4.1C25.41 4.532 25.068 5.036 24.816 5.612C24.576 6.188 24.456 6.788 24.456 7.412C24.456 8.024 24.57 8.612 24.798 9.176C25.038 9.74 25.362 10.244 25.77 10.688C26.19 11.132 26.688 11.486 27.264 11.75C27.852 12.014 28.494 12.146 29.19 12.146C29.562 12.146 29.922 12.11 30.27 12.038C30.618 11.966 30.93 11.882 31.206 11.786C31.494 11.69 31.728 11.594 31.908 11.498C32.1 11.402 32.214 11.33 32.25 11.282L33.078 13.064ZM42.6125 14C42.1925 13.46 41.7905 12.944 41.4065 12.452C41.0225 11.96 40.6445 11.468 40.2725 10.976C39.9005 10.484 39.5225 9.986 39.1385 9.482C38.7665 8.978 38.3705 8.456 37.9505 7.916C37.7945 8.084 37.6445 8.24 37.5005 8.384C37.3565 8.516 37.2005 8.654 37.0325 8.798C37.0325 9.722 37.0325 10.592 37.0325 11.408C37.0445 12.212 37.0505 13.076 37.0505 14H34.8725V0.95H37.0505V5.828C37.0505 5.936 37.0385 6.044 37.0145 6.152C37.0025 6.248 36.9965 6.35 36.9965 6.458C37.0565 6.374 37.1165 6.302 37.1765 6.242C37.2365 6.17 37.2965 6.086 37.3565 5.99C38.2085 5.186 39.0305 4.352 39.8225 3.488C40.6145 2.612 41.4365 1.766 42.2885 0.95H44.7905C43.8905 1.886 42.9965 2.828 42.1085 3.776C41.2325 4.724 40.3445 5.666 39.4445 6.602C39.9485 7.25 40.4285 7.88 40.8845 8.492C41.3525 9.092 41.8085 9.692 42.2525 10.292C42.7085 10.892 43.1645 11.498 43.6205 12.11C44.0765 12.722 44.5505 13.352 45.0425 14H42.6125ZM46.5268 14V0.95H48.5068V12.128H54.9868V14H46.5268ZM56.81 14V0.95H65.378V2.732H58.79V6.548H64.658V8.366H58.79V12.182H65.63V14H56.81ZM75.3894 1.67L74.6874 3.272C74.1954 3.092 73.7034 2.948 73.2114 2.84C72.7314 2.732 72.2694 2.678 71.8254 2.678C71.0694 2.678 70.4634 2.834 70.0074 3.146C69.5634 3.458 69.3414 3.854 69.3414 4.334C69.3414 4.742 69.5034 5.072 69.8274 5.324C70.1514 5.564 70.5534 5.786 71.0334 5.99C71.5134 6.182 72.0354 6.38 72.5994 6.584C73.1634 6.776 73.6854 7.028 74.1654 7.34C74.6454 7.652 75.0474 8.048 75.3714 8.528C75.6954 8.996 75.8574 9.602 75.8574 10.346C75.8574 10.922 75.7494 11.444 75.5334 11.912C75.3294 12.368 75.0174 12.764 74.5974 13.1C74.1894 13.436 73.6734 13.694 73.0494 13.874C72.4374 14.054 71.7174 14.144 70.8894 14.144C70.3614 14.144 69.8814 14.108 69.4494 14.036C69.0294 13.964 68.6454 13.874 68.2974 13.766C67.9614 13.646 67.6614 13.52 67.3974 13.388C67.1454 13.256 66.9294 13.136 66.7494 13.028L67.6134 11.318C68.0934 11.594 68.6274 11.816 69.2154 11.984C69.8034 12.152 70.3374 12.236 70.8174 12.236C71.0574 12.236 71.3514 12.206 71.6994 12.146C72.0594 12.086 72.4014 11.984 72.7254 11.84C73.0494 11.684 73.3254 11.48 73.5534 11.228C73.7934 10.976 73.9134 10.658 73.9134 10.274C73.9134 9.926 73.8174 9.632 73.6254 9.392C73.4454 9.14 73.1994 8.924 72.8874 8.744C72.5874 8.552 72.2394 8.384 71.8434 8.24C71.4594 8.084 71.0634 7.928 70.6554 7.772C70.2474 7.604 69.8454 7.43 69.4494 7.25C69.0654 7.07 68.7174 6.854 68.4054 6.602C68.1054 6.338 67.8594 6.038 67.6674 5.702C67.4874 5.354 67.3974 4.94 67.3974 4.46C67.3974 4.016 67.4874 3.578 67.6674 3.146C67.8474 2.714 68.1174 2.33 68.4774 1.994C68.8374 1.658 69.2814 1.388 69.8094 1.184C70.3494 0.98 70.9734 0.877999 71.6814 0.877999C72.1134 0.877999 72.5334 0.913999 72.9414 0.985999C73.3614 1.058 73.7394 1.142 74.0754 1.238C74.4114 1.322 74.6934 1.406 74.9214 1.49C75.1614 1.574 75.3174 1.634 75.3894 1.67ZM85.5671 1.67L84.8651 3.272C84.3731 3.092 83.8811 2.948 83.3891 2.84C82.9091 2.732 82.4471 2.678 82.0031 2.678C81.2471 2.678 80.6411 2.834 80.1851 3.146C79.7411 3.458 79.5191 3.854 79.5191 4.334C79.5191 4.742 79.6811 5.072 80.0051 5.324C80.3291 5.564 80.7311 5.786 81.2111 5.99C81.6911 6.182 82.2131 6.38 82.7771 6.584C83.3411 6.776 83.8631 7.028 84.3431 7.34C84.8231 7.652 85.2251 8.048 85.5491 8.528C85.8731 8.996 86.0351 9.602 86.0351 10.346C86.0351 10.922 85.9271 11.444 85.7111 11.912C85.5071 12.368 85.1951 12.764 84.7751 13.1C84.3671 13.436 83.8511 13.694 83.2271 13.874C82.6151 14.054 81.8951 14.144 81.0671 14.144C80.5391 14.144 80.0591 14.108 79.6271 14.036C79.2071 13.964 78.8231 13.874 78.4751 13.766C78.1391 13.646 77.8391 13.52 77.5751 13.388C77.3231 13.256 77.1071 13.136 76.9271 13.028L77.7911 11.318C78.2711 11.594 78.8051 11.816 79.3931 11.984C79.9811 12.152 80.5151 12.236 80.9951 12.236C81.2351 12.236 81.5291 12.206 81.8771 12.146C82.2371 12.086 82.5791 11.984 82.9031 11.84C83.2271 11.684 83.5031 11.48 83.7311 11.228C83.9711 10.976 84.0911 10.658 84.0911 10.274C84.0911 9.926 83.9951 9.632 83.8031 9.392C83.6231 9.14 83.3771 8.924 83.0651 8.744C82.7651 8.552 82.4171 8.384 82.0211 8.24C81.6371 8.084 81.2411 7.928 80.8331 7.772C80.4251 7.604 80.0231 7.43 79.6271 7.25C79.2431 7.07 78.8951 6.854 78.5831 6.602C78.2831 6.338 78.0371 6.038 77.8451 5.702C77.6651 5.354 77.5751 4.94 77.5751 4.46C77.5751 4.016 77.6651 3.578 77.8451 3.146C78.0251 2.714 78.2951 2.33 78.6551 1.994C79.0151 1.658 79.4591 1.388 79.9871 1.184C80.5271 0.98 81.1511 0.877999 81.8591 0.877999C82.2911 0.877999 82.7111 0.913999 83.1191 0.985999C83.5391 1.058 83.9171 1.142 84.2531 1.238C84.5891 1.322 84.8711 1.406 85.0991 1.49C85.3391 1.574 85.4951 1.634 85.5671 1.67Z" fill="black"/>
</svg>
