<svg width="153" height="386" viewBox="0 0 153 386" fill="none" xmlns="http://www.w3.org/2000/svg">
<rect x="0.5" y="0.5" width="151.4" height="384.5" fill="#333333" stroke="#161616"/>
<path d="M62.1764 376V371.65H63.3644C63.5924 371.65 63.8004 371.68 63.9884 371.74C64.1804 371.8 64.3444 371.89 64.4804 372.01C64.6204 372.126 64.7284 372.27 64.8044 372.442C64.8804 372.61 64.9184 372.804 64.9184 373.024C64.9184 373.144 64.9064 373.264 64.8824 373.384C64.8584 373.5 64.8184 373.614 64.7624 373.726C64.7104 373.834 64.6424 373.936 64.5584 374.032C64.4744 374.124 64.3724 374.202 64.2524 374.266C64.4124 374.518 64.5864 374.798 64.7744 375.106C64.9624 375.41 65.1524 375.708 65.3444 376H64.5584C64.4784 375.876 64.3944 375.746 64.3064 375.61C64.2224 375.474 64.1364 375.34 64.0484 375.208C63.9644 375.072 63.8804 374.94 63.7964 374.812C63.7164 374.68 63.6404 374.558 63.5684 374.446H63.4484H62.8364V376H62.1764ZM62.8364 373.828H63.4304C63.5904 373.828 63.7244 373.802 63.8324 373.75C63.9404 373.694 64.0244 373.626 64.0844 373.546C64.1484 373.466 64.1924 373.38 64.2164 373.288C64.2444 373.196 64.2584 373.112 64.2584 373.036C64.2584 372.96 64.2444 372.878 64.2164 372.79C64.1924 372.698 64.1484 372.614 64.0844 372.538C64.0204 372.458 63.9344 372.392 63.8264 372.34C63.7224 372.288 63.5924 372.262 63.4364 372.262H62.8364V373.828ZM68.638 376C68.618 375.956 68.59 375.892 68.554 375.808C68.518 375.724 68.476 375.628 68.428 375.52C68.384 375.408 68.334 375.288 68.278 375.16C68.226 375.028 68.172 374.892 68.116 374.752H66.58L66.064 376H65.416L67.354 371.446C67.378 371.502 67.42 371.604 67.48 371.752C67.544 371.9 67.618 372.078 67.702 372.286C67.79 372.49 67.886 372.718 67.99 372.97C68.098 373.218 68.206 373.47 68.314 373.726C68.426 373.982 68.534 374.234 68.638 374.482C68.746 374.73 68.844 374.958 68.932 375.166C69.02 375.374 69.094 375.552 69.154 375.7C69.218 375.844 69.262 375.944 69.286 376H68.638ZM66.808 374.2H67.894C67.838 374.068 67.784 373.942 67.732 373.822C67.684 373.698 67.638 373.586 67.594 373.486C67.554 373.382 67.518 373.292 67.486 373.216C67.454 373.14 67.43 373.08 67.414 373.036C67.41 373.028 67.4 373 67.384 372.952C67.372 372.904 67.362 372.86 67.354 372.82C67.346 372.86 67.334 372.904 67.318 372.952C67.302 373 67.292 373.028 67.288 373.036L66.808 374.2ZM72.8927 375.688C72.8447 375.724 72.7767 375.764 72.6887 375.808C72.6047 375.848 72.5047 375.886 72.3887 375.922C72.2727 375.958 72.1427 375.988 71.9987 376.012C71.8587 376.036 71.7087 376.048 71.5487 376.048C71.2087 376.048 70.9027 375.99 70.6307 375.874C70.3627 375.754 70.1347 375.594 69.9467 375.394C69.7587 375.194 69.6147 374.962 69.5147 374.698C69.4147 374.434 69.3647 374.154 69.3647 373.858C69.3647 373.53 69.4227 373.228 69.5387 372.952C69.6587 372.676 69.8207 372.438 70.0247 372.238C70.2287 372.038 70.4667 371.882 70.7387 371.77C71.0147 371.658 71.3067 371.602 71.6147 371.602C71.7307 371.602 71.8487 371.61 71.9687 371.626C72.0887 371.642 72.2007 371.664 72.3047 371.692C72.4127 371.72 72.5067 371.754 72.5867 371.794C72.6707 371.83 72.7347 371.868 72.7787 371.908C72.7467 371.956 72.7207 371.996 72.7007 372.028C72.6847 372.06 72.6667 372.094 72.6467 372.13C72.6267 372.162 72.6047 372.2 72.5807 372.244C72.5567 372.288 72.5247 372.346 72.4847 372.418C72.4327 372.382 72.3707 372.352 72.2987 372.328C72.2307 372.304 72.1587 372.284 72.0827 372.268C72.0067 372.252 71.9287 372.24 71.8487 372.232C71.7727 372.224 71.7027 372.22 71.6387 372.22C71.4067 372.22 71.1907 372.264 70.9907 372.352C70.7947 372.436 70.6247 372.552 70.4807 372.7C70.3367 372.844 70.2227 373.012 70.1387 373.204C70.0587 373.396 70.0187 373.596 70.0187 373.804C70.0187 374.008 70.0567 374.204 70.1327 374.392C70.2127 374.58 70.3207 374.748 70.4567 374.896C70.5967 375.044 70.7627 375.162 70.9547 375.25C71.1507 375.338 71.3647 375.382 71.5967 375.382C71.7207 375.382 71.8407 375.37 71.9567 375.346C72.0727 375.322 72.1767 375.294 72.2687 375.262C72.3647 375.23 72.4427 375.198 72.5027 375.166C72.5667 375.134 72.6047 375.11 72.6167 375.094L72.8927 375.688ZM76.0708 376C75.9308 375.82 75.7968 375.648 75.6688 375.484C75.5408 375.32 75.4148 375.156 75.2908 374.992C75.1668 374.828 75.0408 374.662 74.9128 374.494C74.7888 374.326 74.6568 374.152 74.5168 373.972C74.4648 374.028 74.4148 374.08 74.3668 374.128C74.3188 374.172 74.2668 374.218 74.2108 374.266C74.2108 374.574 74.2108 374.864 74.2108 375.136C74.2148 375.404 74.2168 375.692 74.2168 376H73.4908V371.65H74.2168V373.276C74.2168 373.312 74.2128 373.348 74.2048 373.384C74.2008 373.416 74.1988 373.45 74.1988 373.486C74.2188 373.458 74.2388 373.434 74.2588 373.414C74.2788 373.39 74.2988 373.362 74.3188 373.33C74.6028 373.062 74.8768 372.784 75.1408 372.496C75.4048 372.204 75.6788 371.922 75.9628 371.65H76.7968C76.4968 371.962 76.1988 372.276 75.9028 372.592C75.6108 372.908 75.3148 373.222 75.0148 373.534C75.1828 373.75 75.3428 373.96 75.4948 374.164C75.6508 374.364 75.8028 374.564 75.9508 374.764C76.1028 374.964 76.2548 375.166 76.4068 375.37C76.5588 375.574 76.7168 375.784 76.8808 376H76.0708ZM77.3756 376V371.65H78.0356V375.376H80.1956V376H77.3756ZM80.8033 376V371.65H83.6593V372.244H81.4633V373.516H83.4193V374.122H81.4633V375.394H83.7433V376H80.8033ZM86.9965 371.89L86.7625 372.424C86.5985 372.364 86.4345 372.316 86.2705 372.28C86.1105 372.244 85.9565 372.226 85.8085 372.226C85.5565 372.226 85.3545 372.278 85.2025 372.382C85.0545 372.486 84.9805 372.618 84.9805 372.778C84.9805 372.914 85.0345 373.024 85.1425 373.108C85.2505 373.188 85.3845 373.262 85.5445 373.33C85.7045 373.394 85.8785 373.46 86.0665 373.528C86.2545 373.592 86.4285 373.676 86.5885 373.78C86.7485 373.884 86.8825 374.016 86.9905 374.176C87.0985 374.332 87.1525 374.534 87.1525 374.782C87.1525 374.974 87.1165 375.148 87.0445 375.304C86.9765 375.456 86.8725 375.588 86.7325 375.7C86.5965 375.812 86.4245 375.898 86.2165 375.958C86.0125 376.018 85.7725 376.048 85.4965 376.048C85.3205 376.048 85.1605 376.036 85.0165 376.012C84.8765 375.988 84.7485 375.958 84.6325 375.922C84.5205 375.882 84.4205 375.84 84.3325 375.796C84.2485 375.752 84.1765 375.712 84.1165 375.676L84.4045 375.106C84.5645 375.198 84.7425 375.272 84.9385 375.328C85.1345 375.384 85.3125 375.412 85.4725 375.412C85.5525 375.412 85.6505 375.402 85.7665 375.382C85.8865 375.362 86.0005 375.328 86.1085 375.28C86.2165 375.228 86.3085 375.16 86.3845 375.076C86.4645 374.992 86.5045 374.886 86.5045 374.758C86.5045 374.642 86.4725 374.544 86.4085 374.464C86.3485 374.38 86.2665 374.308 86.1625 374.248C86.0625 374.184 85.9465 374.128 85.8145 374.08C85.6865 374.028 85.5545 373.976 85.4185 373.924C85.2825 373.868 85.1485 373.81 85.0165 373.75C84.8885 373.69 84.7725 373.618 84.6685 373.534C84.5685 373.446 84.4865 373.346 84.4225 373.234C84.3625 373.118 84.3325 372.98 84.3325 372.82C84.3325 372.672 84.3625 372.526 84.4225 372.382C84.4825 372.238 84.5725 372.11 84.6925 371.998C84.8125 371.886 84.9605 371.796 85.1365 371.728C85.3165 371.66 85.5245 371.626 85.7605 371.626C85.9045 371.626 86.0445 371.638 86.1805 371.662C86.3205 371.686 86.4465 371.714 86.5585 371.746C86.6705 371.774 86.7645 371.802 86.8405 371.83C86.9205 371.858 86.9725 371.878 86.9965 371.89ZM90.389 371.89L90.155 372.424C89.991 372.364 89.827 372.316 89.663 372.28C89.503 372.244 89.349 372.226 89.201 372.226C88.949 372.226 88.747 372.278 88.595 372.382C88.447 372.486 88.373 372.618 88.373 372.778C88.373 372.914 88.427 373.024 88.535 373.108C88.643 373.188 88.777 373.262 88.937 373.33C89.097 373.394 89.271 373.46 89.459 373.528C89.647 373.592 89.821 373.676 89.981 373.78C90.141 373.884 90.275 374.016 90.383 374.176C90.491 374.332 90.545 374.534 90.545 374.782C90.545 374.974 90.509 375.148 90.437 375.304C90.369 375.456 90.265 375.588 90.125 375.7C89.989 375.812 89.817 375.898 89.609 375.958C89.405 376.018 89.165 376.048 88.889 376.048C88.713 376.048 88.553 376.036 88.409 376.012C88.269 375.988 88.141 375.958 88.025 375.922C87.913 375.882 87.813 375.84 87.725 375.796C87.641 375.752 87.569 375.712 87.509 375.676L87.797 375.106C87.957 375.198 88.135 375.272 88.331 375.328C88.527 375.384 88.705 375.412 88.865 375.412C88.945 375.412 89.043 375.402 89.159 375.382C89.279 375.362 89.393 375.328 89.501 375.28C89.609 375.228 89.701 375.16 89.777 375.076C89.857 374.992 89.897 374.886 89.897 374.758C89.897 374.642 89.865 374.544 89.801 374.464C89.741 374.38 89.659 374.308 89.555 374.248C89.455 374.184 89.339 374.128 89.207 374.08C89.079 374.028 88.947 373.976 88.811 373.924C88.675 373.868 88.541 373.81 88.409 373.75C88.281 373.69 88.165 373.618 88.061 373.534C87.961 373.446 87.879 373.346 87.815 373.234C87.755 373.118 87.725 372.98 87.725 372.82C87.725 372.672 87.755 372.526 87.815 372.382C87.875 372.238 87.965 372.11 88.085 371.998C88.205 371.886 88.353 371.796 88.529 371.728C88.709 371.66 88.917 371.626 89.153 371.626C89.297 371.626 89.437 371.638 89.573 371.662C89.713 371.686 89.839 371.714 89.951 371.746C90.063 371.774 90.157 371.802 90.233 371.83C90.313 371.858 90.365 371.878 90.389 371.89Z" fill="#C4C4C4"/>
<path d="M67.1485 19.187C67.2025 19.271 67.3135 19.433 67.4815 19.673C67.6555 19.907 67.8535 20.18 68.0755 20.492C68.3035 20.804 68.5435 21.137 68.7955 21.491C69.0475 21.839 69.2845 22.169 69.5065 22.481C69.7285 22.787 69.9205 23.054 70.0825 23.282C70.2505 23.51 70.3615 23.66 70.4155 23.732C70.4335 23.702 70.4905 23.621 70.5865 23.489C70.6825 23.357 70.7995 23.192 70.9375 22.994C71.0815 22.796 71.2435 22.574 71.4235 22.328C71.6035 22.076 71.7865 21.821 71.9725 21.563C72.1645 21.299 72.3505 21.038 72.5305 20.78C72.7165 20.522 72.8875 20.288 73.0435 20.078C73.1995 19.862 73.3315 19.676 73.4395 19.52C73.5535 19.358 73.6345 19.247 73.6825 19.187V26H72.6385V22.346C72.6385 22.298 72.6415 22.247 72.6475 22.193C72.6595 22.139 72.6655 22.1 72.6655 22.076C72.6115 22.148 72.5245 22.271 72.4045 22.445C72.2905 22.613 72.1555 22.808 71.9995 23.03C71.8495 23.246 71.6905 23.477 71.5225 23.723C71.3545 23.963 71.1955 24.191 71.0455 24.407C70.8955 24.623 70.7635 24.815 70.6495 24.983C70.5355 25.145 70.4575 25.259 70.4155 25.325C70.3735 25.271 70.2895 25.16 70.1635 24.992C70.0435 24.818 69.8995 24.617 69.7315 24.389C69.5695 24.161 69.3955 23.918 69.2095 23.66C69.0295 23.402 68.8615 23.162 68.7055 22.94C68.5495 22.718 68.4145 22.529 68.3005 22.373C68.1865 22.211 68.1205 22.112 68.1025 22.076C68.1025 22.1 68.1055 22.139 68.1115 22.193C68.1235 22.247 68.1295 22.298 68.1295 22.346V26H67.1485V19.187ZM75.2871 19.475H76.2681V26H75.2871V19.475ZM77.8711 19.475H79.5091C80.1691 19.475 80.7271 19.574 81.1831 19.772C81.6391 19.97 82.0081 20.231 82.2901 20.555C82.5781 20.873 82.7851 21.233 82.9111 21.635C83.0431 22.031 83.1091 22.427 83.1091 22.823C83.1091 23.309 83.0221 23.75 82.8481 24.146C82.6741 24.536 82.4371 24.869 82.1371 25.145C81.8371 25.421 81.4891 25.634 81.0931 25.784C80.6971 25.928 80.2771 26 79.8331 26H77.8711V19.475ZM79.6891 25.064C80.0371 25.064 80.3581 25.013 80.6521 24.911C80.9521 24.809 81.2101 24.662 81.4261 24.47C81.6481 24.272 81.8191 24.032 81.9391 23.75C82.0651 23.462 82.1281 23.132 82.1281 22.76C82.1281 22.364 82.0591 22.019 81.9211 21.725C81.7831 21.431 81.6031 21.188 81.3811 20.996C81.1591 20.798 80.9071 20.654 80.6251 20.564C80.3491 20.468 80.0671 20.42 79.7791 20.42H78.8521V25.064H79.6891ZM84.2696 19.475H85.2506V26H84.2696V19.475Z" fill="#C4C4C4"/>
<rect x="7" y="303" width="32" height="45" fill="#161616"/>
<path d="M13.1811 339.925C13.2138 340.004 13.2675 340.135 13.3421 340.317C13.4168 340.494 13.5008 340.697 13.5941 340.926C13.6921 341.155 13.7925 341.397 13.8951 341.654C14.0025 341.911 14.1028 342.153 14.1961 342.382C14.2895 342.611 14.3735 342.816 14.4481 342.998C14.5228 343.175 14.5765 343.304 14.6091 343.383C14.6138 343.392 14.6255 343.425 14.6441 343.481C14.6628 343.537 14.6768 343.586 14.6861 343.628L14.7561 343.383C14.7888 343.304 14.8425 343.175 14.9171 342.998C14.9918 342.816 15.0758 342.611 15.1691 342.382C15.2625 342.153 15.3605 341.911 15.4631 341.654C15.5705 341.397 15.6708 341.155 15.7641 340.926C15.8621 340.697 15.9485 340.494 16.0231 340.317C16.0978 340.135 16.1515 340.004 16.1841 339.925H16.9401C16.9121 339.99 16.8608 340.109 16.7861 340.282C16.7161 340.45 16.6298 340.655 16.5271 340.898C16.4245 341.141 16.3101 341.407 16.1841 341.696C16.0628 341.985 15.9368 342.279 15.8061 342.578C15.6801 342.877 15.5541 343.171 15.4281 343.46C15.3068 343.749 15.1948 344.015 15.0921 344.258C14.9941 344.501 14.9078 344.708 14.8331 344.881C14.7631 345.049 14.7141 345.166 14.6861 345.231L12.4251 339.925H13.1811ZM16.7775 345.133L18.7515 339.778H19.4025C19.0665 340.674 18.7352 341.568 18.4085 342.459C18.0865 343.346 17.7575 344.237 17.4215 345.133H16.7775ZM19.8139 342.466C19.8139 342.116 19.8815 341.785 20.0169 341.472C20.1522 341.155 20.3365 340.877 20.5699 340.639C20.8079 340.401 21.0832 340.214 21.3959 340.079C21.7085 339.939 22.0445 339.869 22.4039 339.869C22.7585 339.869 23.0922 339.939 23.4049 340.079C23.7222 340.214 23.9975 340.401 24.2309 340.639C24.4689 340.877 24.6555 341.155 24.7909 341.472C24.9309 341.785 25.0009 342.116 25.0009 342.466C25.0009 342.825 24.9309 343.161 24.7909 343.474C24.6555 343.787 24.4689 344.062 24.2309 344.3C23.9975 344.533 23.7222 344.718 23.4049 344.853C23.0922 344.988 22.7585 345.056 22.4039 345.056C22.0445 345.056 21.7085 344.988 21.3959 344.853C21.0832 344.718 20.8079 344.533 20.5699 344.3C20.3365 344.062 20.1522 343.787 20.0169 343.474C19.8815 343.161 19.8139 342.825 19.8139 342.466ZM20.5769 342.473C20.5769 342.73 20.6235 342.972 20.7169 343.201C20.8149 343.425 20.9479 343.621 21.1159 343.789C21.2839 343.957 21.4799 344.09 21.7039 344.188C21.9279 344.286 22.1659 344.335 22.4179 344.335C22.6699 344.335 22.9055 344.286 23.1249 344.188C23.3489 344.09 23.5425 343.957 23.7059 343.789C23.8739 343.621 24.0045 343.425 24.0979 343.201C24.1959 342.972 24.2449 342.727 24.2449 342.466C24.2449 342.209 24.1959 341.969 24.0979 341.745C24.0045 341.516 23.8739 341.318 23.7059 341.15C23.5379 340.982 23.3419 340.849 23.1179 340.751C22.8985 340.653 22.6629 340.604 22.4109 340.604C22.1589 340.604 21.9209 340.653 21.6969 340.751C21.4729 340.849 21.2769 340.982 21.1089 341.15C20.9455 341.318 20.8149 341.516 20.7169 341.745C20.6235 341.974 20.5769 342.216 20.5769 342.473ZM29.6585 344.636C29.6025 344.678 29.5232 344.725 29.4205 344.776C29.3225 344.823 29.2059 344.867 29.0705 344.909C28.9352 344.951 28.7835 344.986 28.6155 345.014C28.4522 345.042 28.2772 345.056 28.0905 345.056C27.6939 345.056 27.3369 344.988 27.0195 344.853C26.7069 344.713 26.4409 344.526 26.2215 344.293C26.0022 344.06 25.8342 343.789 25.7175 343.481C25.6009 343.173 25.5425 342.846 25.5425 342.501C25.5425 342.118 25.6102 341.766 25.7455 341.444C25.8855 341.122 26.0745 340.844 26.3125 340.611C26.5505 340.378 26.8282 340.196 27.1455 340.065C27.4675 339.934 27.8082 339.869 28.1675 339.869C28.3029 339.869 28.4405 339.878 28.5805 339.897C28.7205 339.916 28.8512 339.941 28.9725 339.974C29.0985 340.007 29.2082 340.046 29.3015 340.093C29.3995 340.135 29.4742 340.179 29.5255 340.226C29.4882 340.282 29.4579 340.329 29.4345 340.366C29.4159 340.403 29.3949 340.443 29.3715 340.485C29.3482 340.522 29.3225 340.567 29.2945 340.618C29.2665 340.669 29.2292 340.737 29.1825 340.821C29.1219 340.779 29.0495 340.744 28.9655 340.716C28.8862 340.688 28.8022 340.665 28.7135 340.646C28.6249 340.627 28.5339 340.613 28.4405 340.604C28.3519 340.595 28.2702 340.59 28.1955 340.59C27.9249 340.59 27.6729 340.641 27.4395 340.744C27.2109 340.842 27.0125 340.977 26.8445 341.15C26.6765 341.318 26.5435 341.514 26.4455 341.738C26.3522 341.962 26.3055 342.195 26.3055 342.438C26.3055 342.676 26.3499 342.905 26.4385 343.124C26.5319 343.343 26.6579 343.539 26.8165 343.712C26.9799 343.885 27.1735 344.022 27.3975 344.125C27.6262 344.228 27.8759 344.279 28.1465 344.279C28.2912 344.279 28.4312 344.265 28.5665 344.237C28.7019 344.209 28.8232 344.176 28.9305 344.139C29.0425 344.102 29.1335 344.064 29.2035 344.027C29.2782 343.99 29.3225 343.962 29.3365 343.943L29.6585 344.636ZM33.3104 339.925V340.653H32.0294V345H31.2664V340.653H30.0134V339.925H33.3104Z" fill="#C4C4C4"/>
<circle cx="24" cy="316" r="9.5" fill="#616161" stroke="#C4C4C4"/>
<path d="M24 308L30.9282 312V320L24 324L17.0718 320V312L24 308Z" fill="#A5A5A5"/>
<circle cx="24" cy="316" r="5.5" fill="black" stroke="#E5E5E5"/>
<rect x="42" y="303" width="32" height="45" fill="#161616"/>
<path d="M53.889 342.571V344.699C53.693 344.811 53.4597 344.9 53.189 344.965C52.9183 345.026 52.643 345.056 52.363 345.056C51.9617 345.056 51.6 344.993 51.278 344.867C50.9607 344.741 50.6877 344.568 50.459 344.349C50.2303 344.125 50.0553 343.861 49.934 343.558C49.8127 343.255 49.752 342.923 49.752 342.564C49.752 342.167 49.822 341.806 49.962 341.479C50.1067 341.148 50.3003 340.863 50.543 340.625C50.7903 340.387 51.0727 340.203 51.39 340.072C51.712 339.937 52.0527 339.869 52.412 339.869C52.6547 339.869 52.909 339.902 53.175 339.967C53.441 340.028 53.672 340.116 53.868 340.233L53.497 340.856C53.427 340.814 53.3453 340.777 53.252 340.744C53.1633 340.711 53.07 340.683 52.972 340.66C52.874 340.637 52.776 340.62 52.678 340.611C52.58 340.597 52.4867 340.59 52.398 340.59C52.1507 340.59 51.9127 340.639 51.684 340.737C51.4553 340.835 51.2547 340.97 51.082 341.143C50.9093 341.316 50.7717 341.519 50.669 341.752C50.5663 341.985 50.515 342.237 50.515 342.508C50.515 342.755 50.5593 342.989 50.648 343.208C50.7413 343.427 50.8697 343.621 51.033 343.789C51.1963 343.957 51.3923 344.09 51.621 344.188C51.8497 344.286 52.1017 344.335 52.377 344.335C52.4843 344.335 52.6103 344.326 52.755 344.307C52.9043 344.284 53.0467 344.246 53.182 344.195V343.229H52.195V342.571H53.889ZM58.037 345C58.0137 344.949 57.981 344.874 57.939 344.776C57.897 344.678 57.848 344.566 57.792 344.44C57.7407 344.309 57.6823 344.169 57.617 344.02C57.5563 343.866 57.4933 343.707 57.428 343.544H55.636L55.034 345H54.278L56.539 339.687C56.567 339.752 56.616 339.871 56.686 340.044C56.7607 340.217 56.847 340.424 56.945 340.667C57.0477 340.905 57.1597 341.171 57.281 341.465C57.407 341.754 57.533 342.048 57.659 342.347C57.7897 342.646 57.9157 342.94 58.037 343.229C58.163 343.518 58.2773 343.784 58.38 344.027C58.4827 344.27 58.569 344.477 58.639 344.65C58.7137 344.818 58.765 344.935 58.793 345H58.037ZM55.902 342.9H57.169C57.1037 342.746 57.0407 342.599 56.98 342.459C56.924 342.314 56.8703 342.184 56.819 342.067C56.7723 341.946 56.7303 341.841 56.693 341.752C56.6557 341.663 56.6277 341.593 56.609 341.542C56.6043 341.533 56.5927 341.5 56.574 341.444C56.56 341.388 56.5483 341.337 56.539 341.29C56.5297 341.337 56.5157 341.388 56.497 341.444C56.4783 341.5 56.4667 341.533 56.462 341.542L55.902 342.9ZM61.9222 339.925V340.653H60.6412V345H59.8782V340.653H58.6252V339.925H61.9222ZM62.8237 345V339.925H66.1557V340.618H63.5937V342.102H65.8757V342.809H63.5937V344.293H66.2537V345H62.8237Z" fill="#C4C4C4"/>
<circle cx="59" cy="316" r="9.5" fill="#616161" stroke="#C4C4C4"/>
<path d="M59 308L65.9282 312V320L59 324L52.0718 320V312L59 308Z" fill="#A5A5A5"/>
<circle cx="59" cy="316" r="5.5" fill="black" stroke="#E5E5E5"/>
<rect x="77" y="303" width="32" height="45" fill="#161616"/>
<path d="M84.5517 339.925C84.5844 340.004 84.6381 340.135 84.7127 340.317C84.7874 340.494 84.8714 340.697 84.9647 340.926C85.0627 341.155 85.1631 341.397 85.2657 341.654C85.3731 341.911 85.4734 342.153 85.5667 342.382C85.6601 342.611 85.7441 342.816 85.8187 342.998C85.8934 343.175 85.9471 343.304 85.9797 343.383C85.9844 343.392 85.9961 343.425 86.0147 343.481C86.0334 343.537 86.0474 343.586 86.0567 343.628L86.1267 343.383C86.1594 343.304 86.2131 343.175 86.2877 342.998C86.3624 342.816 86.4464 342.611 86.5397 342.382C86.6331 342.153 86.7311 341.911 86.8337 341.654C86.9411 341.397 87.0414 341.155 87.1347 340.926C87.2327 340.697 87.3191 340.494 87.3937 340.317C87.4684 340.135 87.5221 340.004 87.5547 339.925H88.3107C88.2827 339.99 88.2314 340.109 88.1567 340.282C88.0867 340.45 88.0004 340.655 87.8977 340.898C87.7951 341.141 87.6807 341.407 87.5547 341.696C87.4334 341.985 87.3074 342.279 87.1767 342.578C87.0507 342.877 86.9247 343.171 86.7987 343.46C86.6774 343.749 86.5654 344.015 86.4627 344.258C86.3647 344.501 86.2784 344.708 86.2037 344.881C86.1337 345.049 86.0847 345.166 86.0567 345.231L83.7957 339.925H84.5517ZM88.9506 345V339.925H92.2826V340.618H89.7206V342.102H92.0026V342.809H89.7206V344.293H92.3806V345H88.9506ZM93.2709 345V339.925H94.0409V344.272H96.5609V345H93.2709ZM96.7626 342.466C96.7626 342.116 96.8302 341.785 96.9656 341.472C97.1009 341.155 97.2852 340.877 97.5186 340.639C97.7566 340.401 98.0319 340.214 98.3446 340.079C98.6572 339.939 98.9932 339.869 99.3526 339.869C99.7072 339.869 100.041 339.939 100.354 340.079C100.671 340.214 100.946 340.401 101.18 340.639C101.418 340.877 101.604 341.155 101.74 341.472C101.88 341.785 101.95 342.116 101.95 342.466C101.95 342.825 101.88 343.161 101.74 343.474C101.604 343.787 101.418 344.062 101.18 344.3C100.946 344.533 100.671 344.718 100.354 344.853C100.041 344.988 99.7072 345.056 99.3526 345.056C98.9932 345.056 98.6572 344.988 98.3446 344.853C98.0319 344.718 97.7566 344.533 97.5186 344.3C97.2852 344.062 97.1009 343.787 96.9656 343.474C96.8302 343.161 96.7626 342.825 96.7626 342.466ZM97.5256 342.473C97.5256 342.73 97.5722 342.972 97.6656 343.201C97.7636 343.425 97.8966 343.621 98.0646 343.789C98.2326 343.957 98.4286 344.09 98.6526 344.188C98.8766 344.286 99.1146 344.335 99.3666 344.335C99.6186 344.335 99.8542 344.286 100.074 344.188C100.298 344.09 100.491 343.957 100.655 343.789C100.823 343.621 100.953 343.425 101.047 343.201C101.145 342.972 101.194 342.727 101.194 342.466C101.194 342.209 101.145 341.969 101.047 341.745C100.953 341.516 100.823 341.318 100.655 341.15C100.487 340.982 100.291 340.849 100.067 340.751C99.8472 340.653 99.6116 340.604 99.3596 340.604C99.1076 340.604 98.8696 340.653 98.6456 340.751C98.4216 340.849 98.2256 340.982 98.0576 341.15C97.8942 341.318 97.7636 341.516 97.6656 341.745C97.5722 341.974 97.5256 342.216 97.5256 342.473Z" fill="#C4C4C4"/>
<circle cx="94" cy="316" r="9.5" fill="#616161" stroke="#C4C4C4"/>
<path d="M94 308L100.928 312V320L94 324L87.0718 320V312L94 308Z" fill="#A5A5A5"/>
<circle cx="94" cy="316" r="5.5" fill="black" stroke="#E5E5E5"/>
<rect x="112" y="303" width="32" height="45" fill="#161616"/>
<path d="M119.607 342.466H120.3C120.487 342.466 120.643 342.433 120.769 342.368C120.895 342.303 120.993 342.223 121.063 342.13C121.138 342.037 121.189 341.936 121.217 341.829C121.25 341.722 121.266 341.626 121.266 341.542C121.266 341.453 121.25 341.358 121.217 341.255C121.189 341.148 121.138 341.05 121.063 340.961C120.989 340.868 120.888 340.791 120.762 340.73C120.641 340.669 120.489 340.639 120.307 340.639H119.607V342.466ZM118.837 345V339.925H120.223C120.489 339.925 120.732 339.96 120.951 340.03C121.175 340.1 121.367 340.205 121.525 340.345C121.689 340.48 121.815 340.648 121.903 340.849C121.992 341.045 122.036 341.271 122.036 341.528C122.036 341.729 122.006 341.929 121.945 342.13C121.885 342.326 121.787 342.503 121.651 342.662C121.516 342.816 121.339 342.942 121.119 343.04C120.9 343.138 120.634 343.187 120.321 343.187H119.607V345H118.837ZM122.877 339.925H123.64V345H122.877V339.925ZM127.841 339.925V340.653H126.56V345H125.797V340.653H124.544V339.925H127.841ZM132.392 344.636C132.336 344.678 132.257 344.725 132.154 344.776C132.056 344.823 131.94 344.867 131.804 344.909C131.669 344.951 131.517 344.986 131.349 345.014C131.186 345.042 131.011 345.056 130.824 345.056C130.428 345.056 130.071 344.988 129.753 344.853C129.441 344.713 129.175 344.526 128.955 344.293C128.736 344.06 128.568 343.789 128.451 343.481C128.335 343.173 128.276 342.846 128.276 342.501C128.276 342.118 128.344 341.766 128.479 341.444C128.619 341.122 128.808 340.844 129.046 340.611C129.284 340.378 129.562 340.196 129.879 340.065C130.201 339.934 130.542 339.869 130.901 339.869C131.037 339.869 131.174 339.878 131.314 339.897C131.454 339.916 131.585 339.941 131.706 339.974C131.832 340.007 131.942 340.046 132.035 340.093C132.133 340.135 132.208 340.179 132.259 340.226C132.222 340.282 132.192 340.329 132.168 340.366C132.15 340.403 132.129 340.443 132.105 340.485C132.082 340.522 132.056 340.567 132.028 340.618C132 340.669 131.963 340.737 131.916 340.821C131.856 340.779 131.783 340.744 131.699 340.716C131.62 340.688 131.536 340.665 131.447 340.646C131.359 340.627 131.268 340.613 131.174 340.604C131.086 340.595 131.004 340.59 130.929 340.59C130.659 340.59 130.407 340.641 130.173 340.744C129.945 340.842 129.746 340.977 129.578 341.15C129.41 341.318 129.277 341.514 129.179 341.738C129.086 341.962 129.039 342.195 129.039 342.438C129.039 342.676 129.084 342.905 129.172 343.124C129.266 343.343 129.392 343.539 129.55 343.712C129.714 343.885 129.907 344.022 130.131 344.125C130.36 344.228 130.61 344.279 130.88 344.279C131.025 344.279 131.165 344.265 131.3 344.237C131.436 344.209 131.557 344.176 131.664 344.139C131.776 344.102 131.867 344.064 131.937 344.027C132.012 343.99 132.056 343.962 132.07 343.943L132.392 344.636ZM133.09 345V339.925H133.853V342.081H136.394V339.925H137.164C137.164 339.986 137.164 340.1 137.164 340.268C137.164 340.431 137.164 340.627 137.164 340.856C137.164 341.085 137.164 341.339 137.164 341.619C137.164 341.894 137.162 342.177 137.157 342.466C137.157 342.751 137.157 343.033 137.157 343.313C137.157 343.588 137.157 343.84 137.157 344.069C137.157 344.298 137.157 344.496 137.157 344.664C137.157 344.827 137.157 344.939 137.157 345H136.394V342.809H133.853V345H133.09Z" fill="#C4C4C4"/>
<circle cx="129" cy="316" r="9.5" fill="#616161" stroke="#C4C4C4"/>
<path d="M129 308L135.928 312V320L129 324L122.072 320V312L129 308Z" fill="#A5A5A5"/>
<circle cx="129" cy="316" r="5.5" fill="black" stroke="#E5E5E5"/>
</svg>
