<svg width="61" height="386" viewBox="0 0 61 386" fill="none" xmlns="http://www.w3.org/2000/svg">
<rect x="0.5" y="0.5" width="59.94" height="384.5" fill="#333333" stroke="#161616"/>
<path d="M16.4464 376V371.65H17.6344C17.8624 371.65 18.0704 371.68 18.2584 371.74C18.4504 371.8 18.6144 371.89 18.7504 372.01C18.8904 372.126 18.9984 372.27 19.0744 372.442C19.1504 372.61 19.1884 372.804 19.1884 373.024C19.1884 373.144 19.1764 373.264 19.1524 373.384C19.1284 373.5 19.0884 373.614 19.0324 373.726C18.9804 373.834 18.9124 373.936 18.8284 374.032C18.7444 374.124 18.6424 374.202 18.5224 374.266C18.6824 374.518 18.8564 374.798 19.0444 375.106C19.2324 375.41 19.4224 375.708 19.6144 376H18.8284C18.7484 375.876 18.6644 375.746 18.5764 375.61C18.4924 375.474 18.4064 375.34 18.3184 375.208C18.2344 375.072 18.1504 374.94 18.0664 374.812C17.9864 374.68 17.9104 374.558 17.8384 374.446H17.7184H17.1064V376H16.4464ZM17.1064 373.828H17.7004C17.8604 373.828 17.9944 373.802 18.1024 373.75C18.2104 373.694 18.2944 373.626 18.3544 373.546C18.4184 373.466 18.4624 373.38 18.4864 373.288C18.5144 373.196 18.5284 373.112 18.5284 373.036C18.5284 372.96 18.5144 372.878 18.4864 372.79C18.4624 372.698 18.4184 372.614 18.3544 372.538C18.2904 372.458 18.2044 372.392 18.0964 372.34C17.9924 372.288 17.8624 372.262 17.7064 372.262H17.1064V373.828ZM22.908 376C22.888 375.956 22.86 375.892 22.824 375.808C22.788 375.724 22.746 375.628 22.698 375.52C22.654 375.408 22.604 375.288 22.548 375.16C22.496 375.028 22.442 374.892 22.386 374.752H20.85L20.334 376H19.686L21.624 371.446C21.648 371.502 21.69 371.604 21.75 371.752C21.814 371.9 21.888 372.078 21.972 372.286C22.06 372.49 22.156 372.718 22.26 372.97C22.368 373.218 22.476 373.47 22.584 373.726C22.696 373.982 22.804 374.234 22.908 374.482C23.016 374.73 23.114 374.958 23.202 375.166C23.29 375.374 23.364 375.552 23.424 375.7C23.488 375.844 23.532 375.944 23.556 376H22.908ZM21.078 374.2H22.164C22.108 374.068 22.054 373.942 22.002 373.822C21.954 373.698 21.908 373.586 21.864 373.486C21.824 373.382 21.788 373.292 21.756 373.216C21.724 373.14 21.7 373.08 21.684 373.036C21.68 373.028 21.67 373 21.654 372.952C21.642 372.904 21.632 372.86 21.624 372.82C21.616 372.86 21.604 372.904 21.588 372.952C21.572 373 21.562 373.028 21.558 373.036L21.078 374.2ZM27.1627 375.688C27.1147 375.724 27.0467 375.764 26.9587 375.808C26.8747 375.848 26.7747 375.886 26.6587 375.922C26.5427 375.958 26.4127 375.988 26.2687 376.012C26.1287 376.036 25.9787 376.048 25.8187 376.048C25.4787 376.048 25.1727 375.99 24.9007 375.874C24.6327 375.754 24.4047 375.594 24.2167 375.394C24.0287 375.194 23.8847 374.962 23.7847 374.698C23.6847 374.434 23.6347 374.154 23.6347 373.858C23.6347 373.53 23.6927 373.228 23.8087 372.952C23.9287 372.676 24.0907 372.438 24.2947 372.238C24.4987 372.038 24.7367 371.882 25.0087 371.77C25.2847 371.658 25.5767 371.602 25.8847 371.602C26.0007 371.602 26.1187 371.61 26.2387 371.626C26.3587 371.642 26.4707 371.664 26.5747 371.692C26.6827 371.72 26.7767 371.754 26.8567 371.794C26.9407 371.83 27.0047 371.868 27.0487 371.908C27.0167 371.956 26.9907 371.996 26.9707 372.028C26.9547 372.06 26.9367 372.094 26.9167 372.13C26.8967 372.162 26.8747 372.2 26.8507 372.244C26.8267 372.288 26.7947 372.346 26.7547 372.418C26.7027 372.382 26.6407 372.352 26.5687 372.328C26.5007 372.304 26.4287 372.284 26.3527 372.268C26.2767 372.252 26.1987 372.24 26.1187 372.232C26.0427 372.224 25.9727 372.22 25.9087 372.22C25.6767 372.22 25.4607 372.264 25.2607 372.352C25.0647 372.436 24.8947 372.552 24.7507 372.7C24.6067 372.844 24.4927 373.012 24.4087 373.204C24.3287 373.396 24.2887 373.596 24.2887 373.804C24.2887 374.008 24.3267 374.204 24.4027 374.392C24.4827 374.58 24.5907 374.748 24.7267 374.896C24.8667 375.044 25.0327 375.162 25.2247 375.25C25.4207 375.338 25.6347 375.382 25.8667 375.382C25.9907 375.382 26.1107 375.37 26.2267 375.346C26.3427 375.322 26.4467 375.294 26.5387 375.262C26.6347 375.23 26.7127 375.198 26.7727 375.166C26.8367 375.134 26.8747 375.11 26.8867 375.094L27.1627 375.688ZM30.3408 376C30.2008 375.82 30.0668 375.648 29.9388 375.484C29.8108 375.32 29.6848 375.156 29.5608 374.992C29.4368 374.828 29.3108 374.662 29.1828 374.494C29.0588 374.326 28.9268 374.152 28.7868 373.972C28.7348 374.028 28.6848 374.08 28.6368 374.128C28.5888 374.172 28.5368 374.218 28.4808 374.266C28.4808 374.574 28.4808 374.864 28.4808 375.136C28.4848 375.404 28.4868 375.692 28.4868 376H27.7608V371.65H28.4868V373.276C28.4868 373.312 28.4828 373.348 28.4748 373.384C28.4708 373.416 28.4688 373.45 28.4688 373.486C28.4888 373.458 28.5088 373.434 28.5288 373.414C28.5488 373.39 28.5688 373.362 28.5888 373.33C28.8728 373.062 29.1468 372.784 29.4108 372.496C29.6748 372.204 29.9488 371.922 30.2328 371.65H31.0668C30.7668 371.962 30.4688 372.276 30.1728 372.592C29.8808 372.908 29.5848 373.222 29.2848 373.534C29.4528 373.75 29.6128 373.96 29.7648 374.164C29.9208 374.364 30.0728 374.564 30.2208 374.764C30.3728 374.964 30.5248 375.166 30.6768 375.37C30.8288 375.574 30.9868 375.784 31.1508 376H30.3408ZM31.6456 376V371.65H32.3056V375.376H34.4656V376H31.6456ZM35.0733 376V371.65H37.9293V372.244H35.7333V373.516H37.6893V374.122H35.7333V375.394H38.0133V376H35.0733ZM41.2665 371.89L41.0325 372.424C40.8685 372.364 40.7045 372.316 40.5405 372.28C40.3805 372.244 40.2265 372.226 40.0785 372.226C39.8265 372.226 39.6245 372.278 39.4725 372.382C39.3245 372.486 39.2505 372.618 39.2505 372.778C39.2505 372.914 39.3045 373.024 39.4125 373.108C39.5205 373.188 39.6545 373.262 39.8145 373.33C39.9745 373.394 40.1485 373.46 40.3365 373.528C40.5245 373.592 40.6985 373.676 40.8585 373.78C41.0185 373.884 41.1525 374.016 41.2605 374.176C41.3685 374.332 41.4225 374.534 41.4225 374.782C41.4225 374.974 41.3865 375.148 41.3145 375.304C41.2465 375.456 41.1425 375.588 41.0025 375.7C40.8665 375.812 40.6945 375.898 40.4865 375.958C40.2825 376.018 40.0425 376.048 39.7665 376.048C39.5905 376.048 39.4305 376.036 39.2865 376.012C39.1465 375.988 39.0185 375.958 38.9025 375.922C38.7905 375.882 38.6905 375.84 38.6025 375.796C38.5185 375.752 38.4465 375.712 38.3865 375.676L38.6745 375.106C38.8345 375.198 39.0125 375.272 39.2085 375.328C39.4045 375.384 39.5825 375.412 39.7425 375.412C39.8225 375.412 39.9205 375.402 40.0365 375.382C40.1565 375.362 40.2705 375.328 40.3785 375.28C40.4865 375.228 40.5785 375.16 40.6545 375.076C40.7345 374.992 40.7745 374.886 40.7745 374.758C40.7745 374.642 40.7425 374.544 40.6785 374.464C40.6185 374.38 40.5365 374.308 40.4325 374.248C40.3325 374.184 40.2165 374.128 40.0845 374.08C39.9565 374.028 39.8245 373.976 39.6885 373.924C39.5525 373.868 39.4185 373.81 39.2865 373.75C39.1585 373.69 39.0425 373.618 38.9385 373.534C38.8385 373.446 38.7565 373.346 38.6925 373.234C38.6325 373.118 38.6025 372.98 38.6025 372.82C38.6025 372.672 38.6325 372.526 38.6925 372.382C38.7525 372.238 38.8425 372.11 38.9625 371.998C39.0825 371.886 39.2305 371.796 39.4065 371.728C39.5865 371.66 39.7945 371.626 40.0305 371.626C40.1745 371.626 40.3145 371.638 40.4505 371.662C40.5905 371.686 40.7165 371.714 40.8285 371.746C40.9405 371.774 41.0345 371.802 41.1105 371.83C41.1905 371.858 41.2425 371.878 41.2665 371.89ZM44.659 371.89L44.425 372.424C44.261 372.364 44.097 372.316 43.933 372.28C43.773 372.244 43.619 372.226 43.471 372.226C43.219 372.226 43.017 372.278 42.865 372.382C42.717 372.486 42.643 372.618 42.643 372.778C42.643 372.914 42.697 373.024 42.805 373.108C42.913 373.188 43.047 373.262 43.207 373.33C43.367 373.394 43.541 373.46 43.729 373.528C43.917 373.592 44.091 373.676 44.251 373.78C44.411 373.884 44.545 374.016 44.653 374.176C44.761 374.332 44.815 374.534 44.815 374.782C44.815 374.974 44.779 375.148 44.707 375.304C44.639 375.456 44.535 375.588 44.395 375.7C44.259 375.812 44.087 375.898 43.879 375.958C43.675 376.018 43.435 376.048 43.159 376.048C42.983 376.048 42.823 376.036 42.679 376.012C42.539 375.988 42.411 375.958 42.295 375.922C42.183 375.882 42.083 375.84 41.995 375.796C41.911 375.752 41.839 375.712 41.779 375.676L42.067 375.106C42.227 375.198 42.405 375.272 42.601 375.328C42.797 375.384 42.975 375.412 43.135 375.412C43.215 375.412 43.313 375.402 43.429 375.382C43.549 375.362 43.663 375.328 43.771 375.28C43.879 375.228 43.971 375.16 44.047 375.076C44.127 374.992 44.167 374.886 44.167 374.758C44.167 374.642 44.135 374.544 44.071 374.464C44.011 374.38 43.929 374.308 43.825 374.248C43.725 374.184 43.609 374.128 43.477 374.08C43.349 374.028 43.217 373.976 43.081 373.924C42.945 373.868 42.811 373.81 42.679 373.75C42.551 373.69 42.435 373.618 42.331 373.534C42.231 373.446 42.149 373.346 42.085 373.234C42.025 373.118 41.995 372.98 41.995 372.82C41.995 372.672 42.025 372.526 42.085 372.382C42.145 372.238 42.235 372.11 42.355 371.998C42.475 371.886 42.623 371.796 42.799 371.728C42.979 371.66 43.187 371.626 43.423 371.626C43.567 371.626 43.707 371.638 43.843 371.662C43.983 371.686 44.109 371.714 44.221 371.746C44.333 371.774 44.427 371.802 44.503 371.83C44.583 371.858 44.635 371.878 44.659 371.89Z" fill="#C4C4C4"/>
<path d="M21.4185 16.187C21.4725 16.271 21.5835 16.433 21.7515 16.673C21.9255 16.907 22.1235 17.18 22.3455 17.492C22.5735 17.804 22.8135 18.137 23.0655 18.491C23.3175 18.839 23.5545 19.169 23.7765 19.481C23.9985 19.787 24.1905 20.054 24.3525 20.282C24.5205 20.51 24.6315 20.66 24.6855 20.732C24.7035 20.702 24.7605 20.621 24.8565 20.489C24.9525 20.357 25.0695 20.192 25.2075 19.994C25.3515 19.796 25.5135 19.574 25.6935 19.328C25.8735 19.076 26.0565 18.821 26.2425 18.563C26.4345 18.299 26.6205 18.038 26.8005 17.78C26.9865 17.522 27.1575 17.288 27.3135 17.078C27.4695 16.862 27.6015 16.676 27.7095 16.52C27.8235 16.358 27.9045 16.247 27.9525 16.187V23H26.9085V19.346C26.9085 19.298 26.9115 19.247 26.9175 19.193C26.9295 19.139 26.9355 19.1 26.9355 19.076C26.8815 19.148 26.7945 19.271 26.6745 19.445C26.5605 19.613 26.4255 19.808 26.2695 20.03C26.1195 20.246 25.9605 20.477 25.7925 20.723C25.6245 20.963 25.4655 21.191 25.3155 21.407C25.1655 21.623 25.0335 21.815 24.9195 21.983C24.8055 22.145 24.7275 22.259 24.6855 22.325C24.6435 22.271 24.5595 22.16 24.4335 21.992C24.3135 21.818 24.1695 21.617 24.0015 21.389C23.8395 21.161 23.6655 20.918 23.4795 20.66C23.2995 20.402 23.1315 20.162 22.9755 19.94C22.8195 19.718 22.6845 19.529 22.5705 19.373C22.4565 19.211 22.3905 19.112 22.3725 19.076C22.3725 19.1 22.3755 19.139 22.3815 19.193C22.3935 19.247 22.3995 19.298 22.3995 19.346V23H21.4185V16.187ZM29.5571 16.475H30.5381V23H29.5571V16.475ZM32.1411 16.475H33.7791C34.4391 16.475 34.9971 16.574 35.4531 16.772C35.9091 16.97 36.2781 17.231 36.5601 17.555C36.8481 17.873 37.0551 18.233 37.1811 18.635C37.3131 19.031 37.3791 19.427 37.3791 19.823C37.3791 20.309 37.2921 20.75 37.1181 21.146C36.9441 21.536 36.7071 21.869 36.4071 22.145C36.1071 22.421 35.7591 22.634 35.3631 22.784C34.9671 22.928 34.5471 23 34.1031 23H32.1411V16.475ZM33.9591 22.064C34.3071 22.064 34.6281 22.013 34.9221 21.911C35.2221 21.809 35.4801 21.662 35.6961 21.47C35.9181 21.272 36.0891 21.032 36.2091 20.75C36.3351 20.462 36.3981 20.132 36.3981 19.76C36.3981 19.364 36.3291 19.019 36.1911 18.725C36.0531 18.431 35.8731 18.188 35.6511 17.996C35.4291 17.798 35.1771 17.654 34.8951 17.564C34.6191 17.468 34.3371 17.42 34.0491 17.42H33.1221V22.064H33.9591ZM38.5396 16.475H39.5206V23H38.5396V16.475Z" fill="#C4C4C4"/>
<rect y="310" width="29.4833" height="45" fill="#161616"/>
<path d="M5.43113 346.925C5.4638 347.004 5.51747 347.135 5.59213 347.317C5.6668 347.494 5.7508 347.697 5.84413 347.926C5.94213 348.155 6.04247 348.397 6.14513 348.654C6.25247 348.911 6.3528 349.153 6.44613 349.382C6.53947 349.611 6.62347 349.816 6.69813 349.998C6.7728 350.175 6.82647 350.304 6.85913 350.383C6.8638 350.392 6.87547 350.425 6.89413 350.481C6.9128 350.537 6.9268 350.586 6.93613 350.628L7.00613 350.383C7.0388 350.304 7.09247 350.175 7.16713 349.998C7.2418 349.816 7.3258 349.611 7.41913 349.382C7.51247 349.153 7.61047 348.911 7.71313 348.654C7.82047 348.397 7.9208 348.155 8.01413 347.926C8.11213 347.697 8.19847 347.494 8.27313 347.317C8.3478 347.135 8.40147 347.004 8.43413 346.925H9.19013C9.16213 346.99 9.1108 347.109 9.03613 347.282C8.96613 347.45 8.8798 347.655 8.77713 347.898C8.67447 348.141 8.56013 348.407 8.43413 348.696C8.3128 348.985 8.1868 349.279 8.05613 349.578C7.93013 349.877 7.80413 350.171 7.67813 350.46C7.5568 350.749 7.4448 351.015 7.34213 351.258C7.24413 351.501 7.1578 351.708 7.08313 351.881C7.01313 352.049 6.96413 352.166 6.93613 352.231L4.67513 346.925H5.43113ZM9.02755 352.133L11.0015 346.778H11.6525C11.3165 347.674 10.9852 348.568 10.6585 349.459C10.3365 350.346 10.0075 351.237 9.67155 352.133H9.02755ZM12.0639 349.466C12.0639 349.116 12.1315 348.785 12.2669 348.472C12.4022 348.155 12.5865 347.877 12.8199 347.639C13.0579 347.401 13.3332 347.214 13.6459 347.079C13.9585 346.939 14.2945 346.869 14.6539 346.869C15.0085 346.869 15.3422 346.939 15.6549 347.079C15.9722 347.214 16.2475 347.401 16.4809 347.639C16.7189 347.877 16.9055 348.155 17.0409 348.472C17.1809 348.785 17.2509 349.116 17.2509 349.466C17.2509 349.825 17.1809 350.161 17.0409 350.474C16.9055 350.787 16.7189 351.062 16.4809 351.3C16.2475 351.533 15.9722 351.718 15.6549 351.853C15.3422 351.988 15.0085 352.056 14.6539 352.056C14.2945 352.056 13.9585 351.988 13.6459 351.853C13.3332 351.718 13.0579 351.533 12.8199 351.3C12.5865 351.062 12.4022 350.787 12.2669 350.474C12.1315 350.161 12.0639 349.825 12.0639 349.466ZM12.8269 349.473C12.8269 349.73 12.8735 349.972 12.9669 350.201C13.0649 350.425 13.1979 350.621 13.3659 350.789C13.5339 350.957 13.7299 351.09 13.9539 351.188C14.1779 351.286 14.4159 351.335 14.6679 351.335C14.9199 351.335 15.1555 351.286 15.3749 351.188C15.5989 351.09 15.7925 350.957 15.9559 350.789C16.1239 350.621 16.2545 350.425 16.3479 350.201C16.4459 349.972 16.4949 349.727 16.4949 349.466C16.4949 349.209 16.4459 348.969 16.3479 348.745C16.2545 348.516 16.1239 348.318 15.9559 348.15C15.7879 347.982 15.5919 347.849 15.3679 347.751C15.1485 347.653 14.9129 347.604 14.6609 347.604C14.4089 347.604 14.1709 347.653 13.9469 347.751C13.7229 347.849 13.5269 347.982 13.3589 348.15C13.1955 348.318 13.0649 348.516 12.9669 348.745C12.8735 348.974 12.8269 349.216 12.8269 349.473ZM21.9085 351.636C21.8525 351.678 21.7732 351.725 21.6705 351.776C21.5725 351.823 21.4559 351.867 21.3205 351.909C21.1852 351.951 21.0335 351.986 20.8655 352.014C20.7022 352.042 20.5272 352.056 20.3405 352.056C19.9439 352.056 19.5869 351.988 19.2695 351.853C18.9569 351.713 18.6909 351.526 18.4715 351.293C18.2522 351.06 18.0842 350.789 17.9675 350.481C17.8509 350.173 17.7925 349.846 17.7925 349.501C17.7925 349.118 17.8602 348.766 17.9955 348.444C18.1355 348.122 18.3245 347.844 18.5625 347.611C18.8005 347.378 19.0782 347.196 19.3955 347.065C19.7175 346.934 20.0582 346.869 20.4175 346.869C20.5529 346.869 20.6905 346.878 20.8305 346.897C20.9705 346.916 21.1012 346.941 21.2225 346.974C21.3485 347.007 21.4582 347.046 21.5515 347.093C21.6495 347.135 21.7242 347.179 21.7755 347.226C21.7382 347.282 21.7079 347.329 21.6845 347.366C21.6659 347.403 21.6449 347.443 21.6215 347.485C21.5982 347.522 21.5725 347.567 21.5445 347.618C21.5165 347.669 21.4792 347.737 21.4325 347.821C21.3719 347.779 21.2995 347.744 21.2155 347.716C21.1362 347.688 21.0522 347.665 20.9635 347.646C20.8749 347.627 20.7839 347.613 20.6905 347.604C20.6019 347.595 20.5202 347.59 20.4455 347.59C20.1749 347.59 19.9229 347.641 19.6895 347.744C19.4609 347.842 19.2625 347.977 19.0945 348.15C18.9265 348.318 18.7935 348.514 18.6955 348.738C18.6022 348.962 18.5555 349.195 18.5555 349.438C18.5555 349.676 18.5999 349.905 18.6885 350.124C18.7819 350.343 18.9079 350.539 19.0665 350.712C19.2299 350.885 19.4235 351.022 19.6475 351.125C19.8762 351.228 20.1259 351.279 20.3965 351.279C20.5412 351.279 20.6812 351.265 20.8165 351.237C20.9519 351.209 21.0732 351.176 21.1805 351.139C21.2925 351.102 21.3835 351.064 21.4535 351.027C21.5282 350.99 21.5725 350.962 21.5865 350.943L21.9085 351.636ZM25.5604 346.925V347.653H24.2794V352H23.5164V347.653H22.2634V346.925H25.5604Z" fill="#C4C4C4"/>
<path d="M24.8333 323C24.8333 328.239 20.5132 332.5 15.1667 332.5C9.82009 332.5 5.5 328.239 5.5 323C5.5 317.761 9.82009 313.5 15.1667 313.5C20.5132 313.5 24.8333 317.761 24.8333 323Z" fill="#616161" stroke="#C4C4C4"/>
<path d="M15.1667 315L22.2103 319V327L15.1667 331L8.12299 327V319L15.1667 315Z" fill="#A5A5A5"/>
<path d="M15.1667 328.5C18.2424 328.5 20.75 326.045 20.75 323C20.75 319.955 18.2424 317.5 15.1667 317.5C12.0909 317.5 9.58333 319.955 9.58333 323C9.58333 326.045 12.0909 328.5 15.1667 328.5Z" fill="black" stroke="#E5E5E5"/>
<rect x="31.9677" y="310" width="28.5323" height="45" fill="#161616"/>
<path d="M40.6471 349.571V351.699C40.4511 351.811 40.2177 351.9 39.9471 351.965C39.6764 352.026 39.4011 352.056 39.1211 352.056C38.7197 352.056 38.3581 351.993 38.0361 351.867C37.7187 351.741 37.4457 351.568 37.2171 351.349C36.9884 351.125 36.8134 350.861 36.6921 350.558C36.5707 350.255 36.5101 349.923 36.5101 349.564C36.5101 349.167 36.5801 348.806 36.7201 348.479C36.8647 348.148 37.0584 347.863 37.3011 347.625C37.5484 347.387 37.8307 347.203 38.1481 347.072C38.4701 346.937 38.8107 346.869 39.1701 346.869C39.4127 346.869 39.6671 346.902 39.9331 346.967C40.1991 347.028 40.4301 347.116 40.6261 347.233L40.2551 347.856C40.1851 347.814 40.1034 347.777 40.0101 347.744C39.9214 347.711 39.8281 347.683 39.7301 347.66C39.6321 347.637 39.5341 347.62 39.4361 347.611C39.3381 347.597 39.2447 347.59 39.1561 347.59C38.9087 347.59 38.6707 347.639 38.4421 347.737C38.2134 347.835 38.0127 347.97 37.8401 348.143C37.6674 348.316 37.5297 348.519 37.4271 348.752C37.3244 348.985 37.2731 349.237 37.2731 349.508C37.2731 349.755 37.3174 349.989 37.4061 350.208C37.4994 350.427 37.6277 350.621 37.7911 350.789C37.9544 350.957 38.1504 351.09 38.3791 351.188C38.6077 351.286 38.8597 351.335 39.1351 351.335C39.2424 351.335 39.3684 351.326 39.5131 351.307C39.6624 351.284 39.8047 351.246 39.9401 351.195V350.229H38.9531V349.571H40.6471ZM44.7951 352C44.7717 351.949 44.7391 351.874 44.6971 351.776C44.6551 351.678 44.6061 351.566 44.5501 351.44C44.4987 351.309 44.4404 351.169 44.3751 351.02C44.3144 350.866 44.2514 350.707 44.1861 350.544H42.3941L41.7921 352H41.0361L43.2971 346.687C43.3251 346.752 43.3741 346.871 43.4441 347.044C43.5187 347.217 43.6051 347.424 43.7031 347.667C43.8057 347.905 43.9177 348.171 44.0391 348.465C44.1651 348.754 44.2911 349.048 44.4171 349.347C44.5477 349.646 44.6737 349.94 44.7951 350.229C44.9211 350.518 45.0354 350.784 45.1381 351.027C45.2407 351.27 45.3271 351.477 45.3971 351.65C45.4717 351.818 45.5231 351.935 45.5511 352H44.7951ZM42.6601 349.9H43.9271C43.8617 349.746 43.7987 349.599 43.7381 349.459C43.6821 349.314 43.6284 349.184 43.5771 349.067C43.5304 348.946 43.4884 348.841 43.4511 348.752C43.4137 348.663 43.3857 348.593 43.3671 348.542C43.3624 348.533 43.3507 348.5 43.3321 348.444C43.3181 348.388 43.3064 348.337 43.2971 348.29C43.2877 348.337 43.2737 348.388 43.2551 348.444C43.2364 348.5 43.2247 348.533 43.2201 348.542L42.6601 349.9ZM48.6803 346.925V347.653H47.3993V352H46.6363V347.653H45.3833V346.925H48.6803ZM49.5817 352V346.925H52.9137V347.618H50.3517V349.102H52.6337V349.809H50.3517V351.293H53.0117V352H49.5817Z" fill="#C4C4C4"/>
<path d="M55.1774 323C55.1774 328.254 50.9887 332.5 45.8387 332.5C40.6887 332.5 36.5 328.254 36.5 323C36.5 317.746 40.6887 313.5 45.8387 313.5C50.9887 313.5 55.1774 317.746 55.1774 323Z" fill="#616161" stroke="#C4C4C4"/>
<path d="M45.8387 315L52.6552 319V327L45.8387 331L39.0223 327V319L45.8387 315Z" fill="#A5A5A5"/>
<path d="M45.8387 328.5C48.8394 328.5 51.2581 326.03 51.2581 323C51.2581 319.97 48.8394 317.5 45.8387 317.5C42.838 317.5 40.4194 319.97 40.4194 323C40.4194 326.03 42.838 328.5 45.8387 328.5Z" fill="black" stroke="#E5E5E5"/>
<rect y="40" width="29.4833" height="45" fill="#161616"/>
<path d="M13.3739 81.636C13.3179 81.678 13.2385 81.7247 13.1359 81.776C13.0379 81.8227 12.9212 81.867 12.7859 81.909C12.6505 81.951 12.4989 81.986 12.3309 82.014C12.1675 82.042 11.9925 82.056 11.8059 82.056C11.4092 82.056 11.0522 81.9883 10.7349 81.853C10.4222 81.713 10.1562 81.5263 9.93686 81.293C9.71753 81.0597 9.54953 80.789 9.43286 80.481C9.3162 80.173 9.25786 79.8463 9.25786 79.501C9.25786 79.1183 9.32553 78.766 9.46086 78.444C9.60086 78.122 9.78986 77.8443 10.0279 77.611C10.2659 77.3777 10.5435 77.1957 10.8609 77.065C11.1829 76.9343 11.5235 76.869 11.8829 76.869C12.0182 76.869 12.1559 76.8783 12.2959 76.897C12.4359 76.9157 12.5665 76.9413 12.6879 76.974C12.8139 77.0067 12.9235 77.0463 13.0169 77.093C13.1149 77.135 13.1895 77.1793 13.2409 77.226C13.2035 77.282 13.1732 77.3287 13.1499 77.366C13.1312 77.4033 13.1102 77.443 13.0869 77.485C13.0635 77.5223 13.0379 77.5667 13.0099 77.618C12.9819 77.6693 12.9445 77.737 12.8979 77.821C12.8372 77.779 12.7649 77.744 12.6809 77.716C12.6015 77.688 12.5175 77.6647 12.4289 77.646C12.3402 77.6273 12.2492 77.6133 12.1559 77.604C12.0672 77.5947 11.9855 77.59 11.9109 77.59C11.6402 77.59 11.3882 77.6413 11.1549 77.744C10.9262 77.842 10.7279 77.9773 10.5599 78.15C10.3919 78.318 10.2589 78.514 10.1609 78.738C10.0675 78.962 10.0209 79.1953 10.0209 79.438C10.0209 79.676 10.0652 79.9047 10.1539 80.124C10.2472 80.3433 10.3732 80.5393 10.5319 80.712C10.6952 80.8847 10.8889 81.0223 11.1129 81.125C11.3415 81.2277 11.5912 81.279 11.8619 81.279C12.0065 81.279 12.1465 81.265 12.2819 81.237C12.4172 81.209 12.5385 81.1763 12.6459 81.139C12.7579 81.1017 12.8489 81.0643 12.9189 81.027C12.9935 80.9897 13.0379 80.9617 13.0519 80.943L13.3739 81.636ZM17.701 81.636C17.645 81.678 17.5657 81.7247 17.463 81.776C17.365 81.8227 17.2483 81.867 17.113 81.909C16.9777 81.951 16.826 81.986 16.658 82.014C16.4947 82.042 16.3197 82.056 16.133 82.056C15.7363 82.056 15.3793 81.9883 15.062 81.853C14.7493 81.713 14.4833 81.5263 14.264 81.293C14.0447 81.0597 13.8767 80.789 13.76 80.481C13.6433 80.173 13.585 79.8463 13.585 79.501C13.585 79.1183 13.6527 78.766 13.788 78.444C13.928 78.122 14.117 77.8443 14.355 77.611C14.593 77.3777 14.8707 77.1957 15.188 77.065C15.51 76.9343 15.8507 76.869 16.21 76.869C16.3453 76.869 16.483 76.8783 16.623 76.897C16.763 76.9157 16.8937 76.9413 17.015 76.974C17.141 77.0067 17.2507 77.0463 17.344 77.093C17.442 77.135 17.5167 77.1793 17.568 77.226C17.5307 77.282 17.5003 77.3287 17.477 77.366C17.4583 77.4033 17.4373 77.443 17.414 77.485C17.3907 77.5223 17.365 77.5667 17.337 77.618C17.309 77.6693 17.2717 77.737 17.225 77.821C17.1643 77.779 17.092 77.744 17.008 77.716C16.9287 77.688 16.8447 77.6647 16.756 77.646C16.6673 77.6273 16.5763 77.6133 16.483 77.604C16.3943 77.5947 16.3127 77.59 16.238 77.59C15.9673 77.59 15.7153 77.6413 15.482 77.744C15.2533 77.842 15.055 77.9773 14.887 78.15C14.719 78.318 14.586 78.514 14.488 78.738C14.3947 78.962 14.348 79.1953 14.348 79.438C14.348 79.676 14.3923 79.9047 14.481 80.124C14.5743 80.3433 14.7003 80.5393 14.859 80.712C15.0223 80.8847 15.216 81.0223 15.44 81.125C15.6687 81.2277 15.9183 81.279 16.189 81.279C16.3337 81.279 16.4737 81.265 16.609 81.237C16.7443 81.209 16.8657 81.1763 16.973 81.139C17.085 81.1017 17.176 81.0643 17.246 81.027C17.3207 80.9897 17.365 80.9617 17.379 80.943L17.701 81.636ZM19.7182 78.01V77.387H20.8172V82H20.1662V78.01H19.7182Z" fill="#C4C4C4"/>
<path d="M24.8333 53C24.8333 58.2389 20.5132 62.5 15.1667 62.5C9.82009 62.5 5.5 58.2389 5.5 53C5.5 47.7611 9.82009 43.5 15.1667 43.5C20.5132 43.5 24.8333 47.7611 24.8333 53Z" fill="#616161" stroke="#C4C4C4"/>
<path d="M15.1667 45L22.2103 49V57L15.1667 61L8.12299 57V49L15.1667 45Z" fill="#A5A5A5"/>
<path d="M15.1667 58.5C18.2424 58.5 20.75 56.0453 20.75 53C20.75 49.9547 18.2424 47.5 15.1667 47.5C12.0909 47.5 9.58333 49.9547 9.58333 53C9.58333 56.0453 12.0909 58.5 15.1667 58.5Z" fill="black" stroke="#E5E5E5"/>
<rect x="31.9677" y="40" width="28.5323" height="45" fill="#161616"/>
<path d="M42.0445 81.636C41.9885 81.678 41.9092 81.7247 41.8065 81.776C41.7085 81.8227 41.5919 81.867 41.4565 81.909C41.3212 81.951 41.1695 81.986 41.0015 82.014C40.8382 82.042 40.6632 82.056 40.4765 82.056C40.0799 82.056 39.7229 81.9883 39.4055 81.853C39.0929 81.713 38.8269 81.5263 38.6075 81.293C38.3882 81.0597 38.2202 80.789 38.1035 80.481C37.9869 80.173 37.9285 79.8463 37.9285 79.501C37.9285 79.1183 37.9962 78.766 38.1315 78.444C38.2715 78.122 38.4605 77.8443 38.6985 77.611C38.9365 77.3777 39.2142 77.1957 39.5315 77.065C39.8535 76.9343 40.1942 76.869 40.5535 76.869C40.6889 76.869 40.8265 76.8783 40.9665 76.897C41.1065 76.9157 41.2372 76.9413 41.3585 76.974C41.4845 77.0067 41.5942 77.0463 41.6875 77.093C41.7855 77.135 41.8602 77.1793 41.9115 77.226C41.8742 77.282 41.8439 77.3287 41.8205 77.366C41.8019 77.4033 41.7809 77.443 41.7575 77.485C41.7342 77.5223 41.7085 77.5667 41.6805 77.618C41.6525 77.6693 41.6152 77.737 41.5685 77.821C41.5079 77.779 41.4355 77.744 41.3515 77.716C41.2722 77.688 41.1882 77.6647 41.0995 77.646C41.0109 77.6273 40.9199 77.6133 40.8265 77.604C40.7379 77.5947 40.6562 77.59 40.5815 77.59C40.3109 77.59 40.0589 77.6413 39.8255 77.744C39.5969 77.842 39.3985 77.9773 39.2305 78.15C39.0625 78.318 38.9295 78.514 38.8315 78.738C38.7382 78.962 38.6915 79.1953 38.6915 79.438C38.6915 79.676 38.7359 79.9047 38.8245 80.124C38.9179 80.3433 39.0439 80.5393 39.2025 80.712C39.3659 80.8847 39.5595 81.0223 39.7835 81.125C40.0122 81.2277 40.2619 81.279 40.5325 81.279C40.6772 81.279 40.8172 81.265 40.9525 81.237C41.0879 81.209 41.2092 81.1763 41.3165 81.139C41.4285 81.1017 41.5195 81.0643 41.5895 81.027C41.6642 80.9897 41.7085 80.9617 41.7225 80.943L42.0445 81.636ZM46.3717 81.636C46.3157 81.678 46.2363 81.7247 46.1337 81.776C46.0357 81.8227 45.919 81.867 45.7837 81.909C45.6483 81.951 45.4967 81.986 45.3287 82.014C45.1653 82.042 44.9903 82.056 44.8037 82.056C44.407 82.056 44.05 81.9883 43.7327 81.853C43.42 81.713 43.154 81.5263 42.9347 81.293C42.7153 81.0597 42.5473 80.789 42.4307 80.481C42.314 80.173 42.2557 79.8463 42.2557 79.501C42.2557 79.1183 42.3233 78.766 42.4587 78.444C42.5987 78.122 42.7877 77.8443 43.0257 77.611C43.2637 77.3777 43.5413 77.1957 43.8587 77.065C44.1807 76.9343 44.5213 76.869 44.8807 76.869C45.016 76.869 45.1537 76.8783 45.2937 76.897C45.4337 76.9157 45.5643 76.9413 45.6857 76.974C45.8117 77.0067 45.9213 77.0463 46.0147 77.093C46.1127 77.135 46.1873 77.1793 46.2387 77.226C46.2013 77.282 46.171 77.3287 46.1477 77.366C46.129 77.4033 46.108 77.443 46.0847 77.485C46.0613 77.5223 46.0357 77.5667 46.0077 77.618C45.9797 77.6693 45.9423 77.737 45.8957 77.821C45.835 77.779 45.7627 77.744 45.6787 77.716C45.5993 77.688 45.5153 77.6647 45.4267 77.646C45.338 77.6273 45.247 77.6133 45.1537 77.604C45.065 77.5947 44.9833 77.59 44.9087 77.59C44.638 77.59 44.386 77.6413 44.1527 77.744C43.924 77.842 43.7257 77.9773 43.5577 78.15C43.3897 78.318 43.2567 78.514 43.1587 78.738C43.0653 78.962 43.0187 79.1953 43.0187 79.438C43.0187 79.676 43.063 79.9047 43.1517 80.124C43.245 80.3433 43.371 80.5393 43.5297 80.712C43.693 80.8847 43.8867 81.0223 44.1107 81.125C44.3393 81.2277 44.589 81.279 44.8597 81.279C45.0043 81.279 45.1443 81.265 45.2797 81.237C45.415 81.209 45.5363 81.1763 45.6437 81.139C45.7557 81.1017 45.8467 81.0643 45.9167 81.027C45.9913 80.9897 46.0357 80.9617 46.0497 80.943L46.3717 81.636ZM49.9638 81.377H51.6018V82H48.4238C48.7132 81.706 48.9932 81.4213 49.2638 81.146C49.5392 80.8707 49.7818 80.6047 49.9918 80.348C50.2018 80.0867 50.3698 79.837 50.4958 79.599C50.6265 79.3563 50.6918 79.123 50.6918 78.899C50.6918 78.7357 50.6638 78.5957 50.6078 78.479C50.5518 78.3577 50.4818 78.2597 50.3978 78.185C50.3185 78.1057 50.2298 78.0473 50.1318 78.01C50.0338 77.9727 49.9428 77.954 49.8588 77.954C49.6862 77.954 49.5438 77.9843 49.4318 78.045C49.3245 78.1057 49.2382 78.1803 49.1728 78.269C49.1075 78.353 49.0608 78.4417 49.0328 78.535C49.0095 78.6283 48.9978 78.71 48.9978 78.78C48.9978 78.9387 49.0212 79.0763 49.0678 79.193C49.1192 79.3097 49.1868 79.4147 49.2708 79.508L48.8928 79.907C48.8088 79.8557 48.7318 79.7857 48.6618 79.697C48.5965 79.6037 48.5405 79.5057 48.4938 79.403C48.4472 79.2957 48.4122 79.1883 48.3888 79.081C48.3655 78.969 48.3538 78.8687 48.3538 78.78C48.3538 78.5933 48.3865 78.4137 48.4518 78.241C48.5172 78.0637 48.6128 77.9073 48.7388 77.772C48.8695 77.6367 49.0282 77.5293 49.2148 77.45C49.4015 77.3707 49.6162 77.331 49.8588 77.331C50.0828 77.331 50.2858 77.3707 50.4678 77.45C50.6498 77.5293 50.8038 77.639 50.9298 77.779C51.0605 77.9143 51.1608 78.073 51.2308 78.255C51.3055 78.4323 51.3428 78.619 51.3428 78.815C51.3428 79.0437 51.3055 79.2677 51.2308 79.487C51.1562 79.7017 51.0535 79.9163 50.9228 80.131C50.7968 80.341 50.6498 80.5487 50.4818 80.754C50.3185 80.9593 50.1458 81.167 49.9638 81.377Z" fill="#C4C4C4"/>
<path d="M55.1774 53C55.1774 58.2544 50.9887 62.5 45.8387 62.5C40.6887 62.5 36.5 58.2544 36.5 53C36.5 47.7456 40.6887 43.5 45.8387 43.5C50.9887 43.5 55.1774 47.7456 55.1774 53Z" fill="#616161" stroke="#C4C4C4"/>
<path d="M45.8387 45L52.6552 49V57L45.8387 61L39.0223 57V49L45.8387 45Z" fill="#A5A5A5"/>
<path d="M45.8387 58.5C48.8394 58.5 51.2581 56.0299 51.2581 53C51.2581 49.9701 48.8394 47.5 45.8387 47.5C42.838 47.5 40.4194 49.9701 40.4194 53C40.4194 56.0299 42.838 58.5 45.8387 58.5Z" fill="black" stroke="#E5E5E5"/>
<rect y="90" width="29.4833" height="45" fill="#161616"/>
<path d="M12.8065 131.636C12.7505 131.678 12.6711 131.725 12.5685 131.776C12.4705 131.823 12.3538 131.867 12.2185 131.909C12.0831 131.951 11.9315 131.986 11.7635 132.014C11.6001 132.042 11.4251 132.056 11.2385 132.056C10.8418 132.056 10.4848 131.988 10.1675 131.853C9.85481 131.713 9.58881 131.526 9.36948 131.293C9.15015 131.06 8.98215 130.789 8.86548 130.481C8.74881 130.173 8.69048 129.846 8.69048 129.501C8.69048 129.118 8.75815 128.766 8.89348 128.444C9.03348 128.122 9.22248 127.844 9.46048 127.611C9.69848 127.378 9.97615 127.196 10.2935 127.065C10.6155 126.934 10.9561 126.869 11.3155 126.869C11.4508 126.869 11.5885 126.878 11.7285 126.897C11.8685 126.916 11.9991 126.941 12.1205 126.974C12.2465 127.007 12.3561 127.046 12.4495 127.093C12.5475 127.135 12.6221 127.179 12.6735 127.226C12.6361 127.282 12.6058 127.329 12.5825 127.366C12.5638 127.403 12.5428 127.443 12.5195 127.485C12.4961 127.522 12.4705 127.567 12.4425 127.618C12.4145 127.669 12.3771 127.737 12.3305 127.821C12.2698 127.779 12.1975 127.744 12.1135 127.716C12.0341 127.688 11.9501 127.665 11.8615 127.646C11.7728 127.627 11.6818 127.613 11.5885 127.604C11.4998 127.595 11.4181 127.59 11.3435 127.59C11.0728 127.59 10.8208 127.641 10.5875 127.744C10.3588 127.842 10.1605 127.977 9.99248 128.15C9.82448 128.318 9.69148 128.514 9.59348 128.738C9.50015 128.962 9.45348 129.195 9.45348 129.438C9.45348 129.676 9.49781 129.905 9.58648 130.124C9.67981 130.343 9.80581 130.539 9.96448 130.712C10.1278 130.885 10.3215 131.022 10.5455 131.125C10.7741 131.228 11.0238 131.279 11.2945 131.279C11.4391 131.279 11.5791 131.265 11.7145 131.237C11.8498 131.209 11.9711 131.176 12.0785 131.139C12.1905 131.102 12.2815 131.064 12.3515 131.027C12.4261 130.99 12.4705 130.962 12.4845 130.943L12.8065 131.636ZM17.1336 131.636C17.0776 131.678 16.9983 131.725 16.8956 131.776C16.7976 131.823 16.681 131.867 16.5456 131.909C16.4103 131.951 16.2586 131.986 16.0906 132.014C15.9273 132.042 15.7523 132.056 15.5656 132.056C15.169 132.056 14.812 131.988 14.4946 131.853C14.182 131.713 13.916 131.526 13.6966 131.293C13.4773 131.06 13.3093 130.789 13.1926 130.481C13.076 130.173 13.0176 129.846 13.0176 129.501C13.0176 129.118 13.0853 128.766 13.2206 128.444C13.3606 128.122 13.5496 127.844 13.7876 127.611C14.0256 127.378 14.3033 127.196 14.6206 127.065C14.9426 126.934 15.2833 126.869 15.6426 126.869C15.778 126.869 15.9156 126.878 16.0556 126.897C16.1956 126.916 16.3263 126.941 16.4476 126.974C16.5736 127.007 16.6833 127.046 16.7766 127.093C16.8746 127.135 16.9493 127.179 17.0006 127.226C16.9633 127.282 16.933 127.329 16.9096 127.366C16.891 127.403 16.87 127.443 16.8466 127.485C16.8233 127.522 16.7976 127.567 16.7696 127.618C16.7416 127.669 16.7043 127.737 16.6576 127.821C16.597 127.779 16.5246 127.744 16.4406 127.716C16.3613 127.688 16.2773 127.665 16.1886 127.646C16.1 127.627 16.009 127.613 15.9156 127.604C15.827 127.595 15.7453 127.59 15.6706 127.59C15.4 127.59 15.148 127.641 14.9146 127.744C14.686 127.842 14.4876 127.977 14.3196 128.15C14.1516 128.318 14.0186 128.514 13.9206 128.738C13.8273 128.962 13.7806 129.195 13.7806 129.438C13.7806 129.676 13.825 129.905 13.9136 130.124C14.007 130.343 14.133 130.539 14.2916 130.712C14.455 130.885 14.6486 131.022 14.8726 131.125C15.1013 131.228 15.351 131.279 15.6216 131.279C15.7663 131.279 15.9063 131.265 16.0416 131.237C16.177 131.209 16.2983 131.176 16.4056 131.139C16.5176 131.102 16.6086 131.064 16.6786 131.027C16.7533 130.99 16.7976 130.962 16.8116 130.943L17.1336 131.636ZM19.6968 129.711C19.8508 129.431 20.0234 129.151 20.2148 128.871C20.4061 128.586 20.5764 128.302 20.7258 128.017H19.3048V127.387H21.7478C21.5844 127.667 21.4141 127.947 21.2368 128.227C21.0594 128.507 20.8891 128.787 20.7258 129.067C21.0244 129.188 21.2648 129.375 21.4468 129.627C21.6334 129.879 21.7268 130.173 21.7268 130.509C21.7268 130.719 21.6848 130.92 21.6008 131.111C21.5168 131.298 21.4024 131.461 21.2578 131.601C21.1178 131.741 20.9521 131.853 20.7608 131.937C20.5741 132.016 20.3758 132.056 20.1658 132.056C19.9371 132.056 19.7248 132.009 19.5288 131.916C19.3328 131.823 19.1624 131.701 19.0178 131.552L19.4868 131.111C19.5708 131.214 19.6688 131.293 19.7808 131.349C19.8974 131.405 20.0234 131.433 20.1588 131.433C20.2848 131.433 20.4038 131.41 20.5158 131.363C20.6278 131.312 20.7258 131.244 20.8098 131.16C20.8938 131.076 20.9591 130.978 21.0058 130.866C21.0571 130.754 21.0828 130.635 21.0828 130.509C21.0828 130.383 21.0571 130.266 21.0058 130.159C20.9591 130.047 20.8938 129.949 20.8098 129.865C20.7258 129.781 20.6278 129.716 20.5158 129.669C20.4038 129.622 20.2848 129.599 20.1588 129.599C19.9861 129.599 19.8321 129.636 19.6968 129.711Z" fill="#C4C4C4"/>
<path d="M24.8333 103C24.8333 108.239 20.5132 112.5 15.1667 112.5C9.82009 112.5 5.5 108.239 5.5 103C5.5 97.7611 9.82009 93.5 15.1667 93.5C20.5132 93.5 24.8333 97.7611 24.8333 103Z" fill="#616161" stroke="#C4C4C4"/>
<path d="M15.1667 95L22.2103 99V107L15.1667 111L8.12299 107V99L15.1667 95Z" fill="#A5A5A5"/>
<path d="M15.1667 108.5C18.2424 108.5 20.75 106.045 20.75 103C20.75 99.9547 18.2424 97.5 15.1667 97.5C12.0909 97.5 9.58333 99.9547 9.58333 103C9.58333 106.045 12.0909 108.5 15.1667 108.5Z" fill="black" stroke="#E5E5E5"/>
<rect x="31.9677" y="90" width="28.5323" height="45" fill="#161616"/>
<path d="M42.0992 131.636C42.0432 131.678 41.9639 131.725 41.8612 131.776C41.7632 131.823 41.6465 131.867 41.5112 131.909C41.3759 131.951 41.2242 131.986 41.0562 132.014C40.8929 132.042 40.7179 132.056 40.5312 132.056C40.1345 132.056 39.7775 131.988 39.4602 131.853C39.1475 131.713 38.8815 131.526 38.6622 131.293C38.4429 131.06 38.2749 130.789 38.1582 130.481C38.0415 130.173 37.9832 129.846 37.9832 129.501C37.9832 129.118 38.0509 128.766 38.1862 128.444C38.3262 128.122 38.5152 127.844 38.7532 127.611C38.9912 127.378 39.2689 127.196 39.5862 127.065C39.9082 126.934 40.2489 126.869 40.6082 126.869C40.7435 126.869 40.8812 126.878 41.0212 126.897C41.1612 126.916 41.2919 126.941 41.4132 126.974C41.5392 127.007 41.6489 127.046 41.7422 127.093C41.8402 127.135 41.9149 127.179 41.9662 127.226C41.9289 127.282 41.8985 127.329 41.8752 127.366C41.8565 127.403 41.8355 127.443 41.8122 127.485C41.7889 127.522 41.7632 127.567 41.7352 127.618C41.7072 127.669 41.6699 127.737 41.6232 127.821C41.5625 127.779 41.4902 127.744 41.4062 127.716C41.3269 127.688 41.2429 127.665 41.1542 127.646C41.0655 127.627 40.9745 127.613 40.8812 127.604C40.7925 127.595 40.7109 127.59 40.6362 127.59C40.3655 127.59 40.1135 127.641 39.8802 127.744C39.6515 127.842 39.4532 127.977 39.2852 128.15C39.1172 128.318 38.9842 128.514 38.8862 128.738C38.7929 128.962 38.7462 129.195 38.7462 129.438C38.7462 129.676 38.7905 129.905 38.8792 130.124C38.9725 130.343 39.0985 130.539 39.2572 130.712C39.4205 130.885 39.6142 131.022 39.8382 131.125C40.0669 131.228 40.3165 131.279 40.5872 131.279C40.7319 131.279 40.8719 131.265 41.0072 131.237C41.1425 131.209 41.2639 131.176 41.3712 131.139C41.4832 131.102 41.5742 131.064 41.6442 131.027C41.7189 130.99 41.7632 130.962 41.7772 130.943L42.0992 131.636ZM46.4264 131.636C46.3704 131.678 46.291 131.725 46.1884 131.776C46.0904 131.823 45.9737 131.867 45.8384 131.909C45.703 131.951 45.5514 131.986 45.3834 132.014C45.22 132.042 45.045 132.056 44.8584 132.056C44.4617 132.056 44.1047 131.988 43.7874 131.853C43.4747 131.713 43.2087 131.526 42.9894 131.293C42.77 131.06 42.602 130.789 42.4854 130.481C42.3687 130.173 42.3104 129.846 42.3104 129.501C42.3104 129.118 42.378 128.766 42.5134 128.444C42.6534 128.122 42.8424 127.844 43.0804 127.611C43.3184 127.378 43.596 127.196 43.9134 127.065C44.2354 126.934 44.576 126.869 44.9354 126.869C45.0707 126.869 45.2084 126.878 45.3484 126.897C45.4884 126.916 45.619 126.941 45.7404 126.974C45.8664 127.007 45.976 127.046 46.0694 127.093C46.1674 127.135 46.242 127.179 46.2934 127.226C46.256 127.282 46.2257 127.329 46.2024 127.366C46.1837 127.403 46.1627 127.443 46.1394 127.485C46.116 127.522 46.0904 127.567 46.0624 127.618C46.0344 127.669 45.997 127.737 45.9504 127.821C45.8897 127.779 45.8174 127.744 45.7334 127.716C45.654 127.688 45.57 127.665 45.4814 127.646C45.3927 127.627 45.3017 127.613 45.2084 127.604C45.1197 127.595 45.038 127.59 44.9634 127.59C44.6927 127.59 44.4407 127.641 44.2074 127.744C43.9787 127.842 43.7804 127.977 43.6124 128.15C43.4444 128.318 43.3114 128.514 43.2134 128.738C43.12 128.962 43.0734 129.195 43.0734 129.438C43.0734 129.676 43.1177 129.905 43.2064 130.124C43.2997 130.343 43.4257 130.539 43.5844 130.712C43.7477 130.885 43.9414 131.022 44.1654 131.125C44.394 131.228 44.6437 131.279 44.9144 131.279C45.059 131.279 45.199 131.265 45.3344 131.237C45.4697 131.209 45.591 131.176 45.6984 131.139C45.8104 131.102 45.9014 131.064 45.9714 131.027C46.046 130.99 46.0904 130.962 46.1044 130.943L46.4264 131.636ZM48.1145 130.81C48.5485 130.245 49.0058 129.667 49.4865 129.074C49.9672 128.477 50.4268 127.896 50.8655 127.331V130.187H51.5515V130.81H50.8655V132H50.2145V130.81H48.1145ZM50.2145 129.074L49.3605 130.187H50.2145V129.074Z" fill="#C4C4C4"/>
<path d="M55.1774 103C55.1774 108.254 50.9887 112.5 45.8387 112.5C40.6887 112.5 36.5 108.254 36.5 103C36.5 97.7456 40.6887 93.5 45.8387 93.5C50.9887 93.5 55.1774 97.7456 55.1774 103Z" fill="#616161" stroke="#C4C4C4"/>
<path d="M45.8387 95L52.6552 99V107L45.8387 111L39.0223 107V99L45.8387 95Z" fill="#A5A5A5"/>
<path d="M45.8387 108.5C48.8394 108.5 51.2581 106.03 51.2581 103C51.2581 99.9701 48.8394 97.5 45.8387 97.5C42.838 97.5 40.4194 99.9701 40.4194 103C40.4194 106.03 42.838 108.5 45.8387 108.5Z" fill="black" stroke="#E5E5E5"/>
<rect y="140" width="29.4833" height="45" fill="#161616"/>
<path d="M12.8407 181.636C12.7847 181.678 12.7053 181.725 12.6027 181.776C12.5047 181.823 12.388 181.867 12.2527 181.909C12.1173 181.951 11.9657 181.986 11.7977 182.014C11.6343 182.042 11.4593 182.056 11.2727 182.056C10.876 182.056 10.519 181.988 10.2017 181.853C9.88899 181.713 9.62299 181.526 9.40366 181.293C9.18433 181.06 9.01633 180.789 8.89966 180.481C8.78299 180.173 8.72466 179.846 8.72466 179.501C8.72466 179.118 8.79233 178.766 8.92766 178.444C9.06766 178.122 9.25666 177.844 9.49466 177.611C9.73266 177.378 10.0103 177.196 10.3277 177.065C10.6497 176.934 10.9903 176.869 11.3497 176.869C11.485 176.869 11.6227 176.878 11.7627 176.897C11.9027 176.916 12.0333 176.941 12.1547 176.974C12.2807 177.007 12.3903 177.046 12.4837 177.093C12.5817 177.135 12.6563 177.179 12.7077 177.226C12.6703 177.282 12.64 177.329 12.6167 177.366C12.598 177.403 12.577 177.443 12.5537 177.485C12.5303 177.522 12.5047 177.567 12.4767 177.618C12.4487 177.669 12.4113 177.737 12.3647 177.821C12.304 177.779 12.2317 177.744 12.1477 177.716C12.0683 177.688 11.9843 177.665 11.8957 177.646C11.807 177.627 11.716 177.613 11.6227 177.604C11.534 177.595 11.4523 177.59 11.3777 177.59C11.107 177.59 10.855 177.641 10.6217 177.744C10.393 177.842 10.1947 177.977 10.0267 178.15C9.85866 178.318 9.72566 178.514 9.62766 178.738C9.53433 178.962 9.48766 179.195 9.48766 179.438C9.48766 179.676 9.53199 179.905 9.62066 180.124C9.71399 180.343 9.83999 180.539 9.99866 180.712C10.162 180.885 10.3557 181.022 10.5797 181.125C10.8083 181.228 11.058 181.279 11.3287 181.279C11.4733 181.279 11.6133 181.265 11.7487 181.237C11.884 181.209 12.0053 181.176 12.1127 181.139C12.2247 181.102 12.3157 181.064 12.3857 181.027C12.4603 180.99 12.5047 180.962 12.5187 180.943L12.8407 181.636ZM17.1678 181.636C17.1118 181.678 17.0325 181.725 16.9298 181.776C16.8318 181.823 16.7151 181.867 16.5798 181.909C16.4445 181.951 16.2928 181.986 16.1248 182.014C15.9615 182.042 15.7865 182.056 15.5998 182.056C15.2031 182.056 14.8461 181.988 14.5288 181.853C14.2161 181.713 13.9501 181.526 13.7308 181.293C13.5115 181.06 13.3435 180.789 13.2268 180.481C13.1101 180.173 13.0518 179.846 13.0518 179.501C13.0518 179.118 13.1195 178.766 13.2548 178.444C13.3948 178.122 13.5838 177.844 13.8218 177.611C14.0598 177.378 14.3375 177.196 14.6548 177.065C14.9768 176.934 15.3175 176.869 15.6768 176.869C15.8121 176.869 15.9498 176.878 16.0898 176.897C16.2298 176.916 16.3605 176.941 16.4818 176.974C16.6078 177.007 16.7175 177.046 16.8108 177.093C16.9088 177.135 16.9835 177.179 17.0348 177.226C16.9975 177.282 16.9671 177.329 16.9438 177.366C16.9251 177.403 16.9041 177.443 16.8808 177.485C16.8575 177.522 16.8318 177.567 16.8038 177.618C16.7758 177.669 16.7385 177.737 16.6918 177.821C16.6311 177.779 16.5588 177.744 16.4748 177.716C16.3955 177.688 16.3115 177.665 16.2228 177.646C16.1341 177.627 16.0431 177.613 15.9498 177.604C15.8611 177.595 15.7795 177.59 15.7048 177.59C15.4341 177.59 15.1821 177.641 14.9488 177.744C14.7201 177.842 14.5218 177.977 14.3538 178.15C14.1858 178.318 14.0528 178.514 13.9548 178.738C13.8615 178.962 13.8148 179.195 13.8148 179.438C13.8148 179.676 13.8591 179.905 13.9478 180.124C14.0411 180.343 14.1671 180.539 14.3258 180.712C14.4891 180.885 14.6828 181.022 14.9068 181.125C15.1355 181.228 15.3851 181.279 15.6558 181.279C15.8005 181.279 15.9405 181.265 16.0758 181.237C16.2111 181.209 16.3325 181.176 16.4398 181.139C16.5518 181.102 16.6428 181.064 16.7128 181.027C16.7875 180.99 16.8318 180.962 16.8458 180.943L17.1678 181.636ZM19.409 179.865V177.387H21.446V178.01H19.962V179.018C19.9993 179.004 20.032 178.992 20.06 178.983C20.0926 178.974 20.1346 178.969 20.186 178.969C20.424 178.969 20.6386 179.011 20.83 179.095C21.0213 179.174 21.1846 179.284 21.32 179.424C21.46 179.559 21.5673 179.718 21.642 179.9C21.7166 180.082 21.754 180.276 21.754 180.481C21.754 180.705 21.712 180.913 21.628 181.104C21.544 181.295 21.4296 181.461 21.285 181.601C21.145 181.741 20.9793 181.853 20.788 181.937C20.5966 182.016 20.396 182.056 20.186 182.056C19.976 182.056 19.78 182.019 19.598 181.944C19.416 181.865 19.255 181.757 19.115 181.622C19.1943 181.547 19.2736 181.475 19.353 181.405C19.4323 181.335 19.5093 181.263 19.584 181.188C19.6633 181.263 19.7543 181.323 19.857 181.37C19.9596 181.412 20.0716 181.433 20.193 181.433C20.319 181.433 20.438 181.41 20.55 181.363C20.662 181.312 20.76 181.244 20.844 181.16C20.928 181.076 20.9933 180.978 21.04 180.866C21.0913 180.754 21.117 180.635 21.117 180.509C21.117 180.383 21.0913 180.264 21.04 180.152C20.9933 180.04 20.9256 179.944 20.837 179.865C20.753 179.781 20.655 179.716 20.543 179.669C20.431 179.618 20.312 179.592 20.186 179.592C20.06 179.592 19.927 179.608 19.787 179.641C19.6516 179.674 19.5256 179.748 19.409 179.865Z" fill="#C4C4C4"/>
<path d="M24.8333 153C24.8333 158.239 20.5132 162.5 15.1667 162.5C9.82009 162.5 5.5 158.239 5.5 153C5.5 147.761 9.82009 143.5 15.1667 143.5C20.5132 143.5 24.8333 147.761 24.8333 153Z" fill="#616161" stroke="#C4C4C4"/>
<path d="M15.1667 145L22.2103 149V157L15.1667 161L8.12299 157V149L15.1667 145Z" fill="#A5A5A5"/>
<path d="M15.1667 158.5C18.2424 158.5 20.75 156.045 20.75 153C20.75 149.955 18.2424 147.5 15.1667 147.5C12.0909 147.5 9.58333 149.955 9.58333 153C9.58333 156.045 12.0909 158.5 15.1667 158.5Z" fill="black" stroke="#E5E5E5"/>
<rect x="31.9677" y="140" width="28.5323" height="45" fill="#161616"/>
<path d="M42.089 181.636C42.033 181.678 41.9536 181.725 41.851 181.776C41.753 181.823 41.6363 181.867 41.501 181.909C41.3656 181.951 41.214 181.986 41.046 182.014C40.8826 182.042 40.7076 182.056 40.521 182.056C40.1243 182.056 39.7673 181.988 39.45 181.853C39.1373 181.713 38.8713 181.526 38.652 181.293C38.4326 181.06 38.2646 180.789 38.148 180.481C38.0313 180.173 37.973 179.846 37.973 179.501C37.973 179.118 38.0406 178.766 38.176 178.444C38.316 178.122 38.505 177.844 38.743 177.611C38.981 177.378 39.2586 177.196 39.576 177.065C39.898 176.934 40.2386 176.869 40.598 176.869C40.7333 176.869 40.871 176.878 41.011 176.897C41.151 176.916 41.2816 176.941 41.403 176.974C41.529 177.007 41.6386 177.046 41.732 177.093C41.83 177.135 41.9046 177.179 41.956 177.226C41.9186 177.282 41.8883 177.329 41.865 177.366C41.8463 177.403 41.8253 177.443 41.802 177.485C41.7786 177.522 41.753 177.567 41.725 177.618C41.697 177.669 41.6596 177.737 41.613 177.821C41.5523 177.779 41.48 177.744 41.396 177.716C41.3166 177.688 41.2326 177.665 41.144 177.646C41.0553 177.627 40.9643 177.613 40.871 177.604C40.7823 177.595 40.7006 177.59 40.626 177.59C40.3553 177.59 40.1033 177.641 39.87 177.744C39.6413 177.842 39.443 177.977 39.275 178.15C39.107 178.318 38.974 178.514 38.876 178.738C38.7826 178.962 38.736 179.195 38.736 179.438C38.736 179.676 38.7803 179.905 38.869 180.124C38.9623 180.343 39.0883 180.539 39.247 180.712C39.4103 180.885 39.604 181.022 39.828 181.125C40.0566 181.228 40.3063 181.279 40.577 181.279C40.7216 181.279 40.8616 181.265 40.997 181.237C41.1323 181.209 41.2536 181.176 41.361 181.139C41.473 181.102 41.564 181.064 41.634 181.027C41.7086 180.99 41.753 180.962 41.767 180.943L42.089 181.636ZM46.4161 181.636C46.3601 181.678 46.2808 181.725 46.1781 181.776C46.0801 181.823 45.9634 181.867 45.8281 181.909C45.6928 181.951 45.5411 181.986 45.3731 182.014C45.2098 182.042 45.0348 182.056 44.8481 182.056C44.4514 182.056 44.0944 181.988 43.7771 181.853C43.4644 181.713 43.1984 181.526 42.9791 181.293C42.7598 181.06 42.5918 180.789 42.4751 180.481C42.3584 180.173 42.3001 179.846 42.3001 179.501C42.3001 179.118 42.3678 178.766 42.5031 178.444C42.6431 178.122 42.8321 177.844 43.0701 177.611C43.3081 177.378 43.5858 177.196 43.9031 177.065C44.2251 176.934 44.5658 176.869 44.9251 176.869C45.0604 176.869 45.1981 176.878 45.3381 176.897C45.4781 176.916 45.6088 176.941 45.7301 176.974C45.8561 177.007 45.9658 177.046 46.0591 177.093C46.1571 177.135 46.2318 177.179 46.2831 177.226C46.2458 177.282 46.2154 177.329 46.1921 177.366C46.1734 177.403 46.1524 177.443 46.1291 177.485C46.1058 177.522 46.0801 177.567 46.0521 177.618C46.0241 177.669 45.9868 177.737 45.9401 177.821C45.8794 177.779 45.8071 177.744 45.7231 177.716C45.6438 177.688 45.5598 177.665 45.4711 177.646C45.3824 177.627 45.2914 177.613 45.1981 177.604C45.1094 177.595 45.0278 177.59 44.9531 177.59C44.6824 177.59 44.4304 177.641 44.1971 177.744C43.9684 177.842 43.7701 177.977 43.6021 178.15C43.4341 178.318 43.3011 178.514 43.2031 178.738C43.1098 178.962 43.0631 179.195 43.0631 179.438C43.0631 179.676 43.1074 179.905 43.1961 180.124C43.2894 180.343 43.4154 180.539 43.5741 180.712C43.7374 180.885 43.9311 181.022 44.1551 181.125C44.3838 181.228 44.6334 181.279 44.9041 181.279C45.0488 181.279 45.1888 181.265 45.3241 181.237C45.4594 181.209 45.5808 181.176 45.6881 181.139C45.8001 181.102 45.8911 181.064 45.9611 181.027C46.0358 180.99 46.0801 180.962 46.0941 180.943L46.4161 181.636ZM49.0563 180.509C49.0563 180.635 49.0796 180.754 49.1263 180.866C49.1729 180.978 49.2359 181.076 49.3153 181.16C49.3946 181.244 49.4879 181.312 49.5953 181.363C49.7026 181.41 49.8193 181.433 49.9453 181.433C50.0713 181.433 50.1903 181.41 50.3023 181.363C50.4143 181.312 50.5123 181.244 50.5963 181.16C50.6803 181.076 50.7456 180.978 50.7923 180.866C50.8436 180.754 50.8693 180.635 50.8693 180.509C50.8693 180.383 50.8436 180.264 50.7923 180.152C50.7456 180.04 50.6803 179.942 50.5963 179.858C50.5123 179.774 50.4143 179.709 50.3023 179.662C50.1903 179.615 50.0713 179.592 49.9453 179.592C49.8239 179.592 49.7073 179.615 49.5953 179.662C49.4879 179.709 49.3946 179.774 49.3153 179.858C49.2359 179.942 49.1729 180.04 49.1263 180.152C49.0796 180.264 49.0563 180.383 49.0563 180.509ZM48.3983 180.509C48.3983 180.262 48.4356 180.028 48.5103 179.809C48.5896 179.585 48.6923 179.377 48.8183 179.186C48.9489 178.99 49.0936 178.81 49.2523 178.647C49.4156 178.479 49.5813 178.325 49.7493 178.185C49.9219 178.04 50.0899 177.91 50.2533 177.793C50.4166 177.676 50.5636 177.571 50.6943 177.478C50.7596 177.557 50.8249 177.639 50.8903 177.723C50.9603 177.807 51.0279 177.889 51.0933 177.968C50.9579 178.061 50.8133 178.162 50.6593 178.269C50.5053 178.376 50.3559 178.484 50.2113 178.591C50.0666 178.698 49.9383 178.801 49.8263 178.899C49.7143 178.997 49.6326 179.079 49.5813 179.144C49.6279 179.093 49.6816 179.051 49.7423 179.018C49.8029 178.985 49.8706 178.969 49.9453 178.969C50.1553 178.969 50.3559 179.009 50.5473 179.088C50.7386 179.167 50.9043 179.277 51.0443 179.417C51.1889 179.552 51.3033 179.713 51.3873 179.9C51.4713 180.087 51.5133 180.287 51.5133 180.502C51.5133 180.717 51.4713 180.92 51.3873 181.111C51.3033 181.298 51.1889 181.461 51.0443 181.601C50.9043 181.741 50.7386 181.853 50.5473 181.937C50.3606 182.016 50.1623 182.056 49.9523 182.056C49.7749 182.056 49.5953 182.026 49.4133 181.965C49.2313 181.904 49.0633 181.811 48.9093 181.685C48.7599 181.554 48.6363 181.393 48.5383 181.202C48.4449 181.006 48.3983 180.775 48.3983 180.509Z" fill="#C4C4C4"/>
<path d="M55.1774 153C55.1774 158.254 50.9887 162.5 45.8387 162.5C40.6887 162.5 36.5 158.254 36.5 153C36.5 147.746 40.6887 143.5 45.8387 143.5C50.9887 143.5 55.1774 147.746 55.1774 153Z" fill="#616161" stroke="#C4C4C4"/>
<path d="M45.8387 145L52.6552 149V157L45.8387 161L39.0223 157V149L45.8387 145Z" fill="#A5A5A5"/>
<path d="M45.8387 158.5C48.8394 158.5 51.2581 156.03 51.2581 153C51.2581 149.97 48.8394 147.5 45.8387 147.5C42.838 147.5 40.4194 149.97 40.4194 153C40.4194 156.03 42.838 158.5 45.8387 158.5Z" fill="black" stroke="#E5E5E5"/>
<rect y="190" width="29.4833" height="45" fill="#161616"/>
<path d="M12.8372 231.636C12.7812 231.678 12.7019 231.725 12.5992 231.776C12.5012 231.823 12.3846 231.867 12.2492 231.909C12.1139 231.951 11.9622 231.986 11.7942 232.014C11.6309 232.042 11.4559 232.056 11.2692 232.056C10.8726 232.056 10.5156 231.988 10.1982 231.853C9.88558 231.713 9.61958 231.526 9.40024 231.293C9.18091 231.06 9.01291 230.789 8.89624 230.481C8.77958 230.173 8.72124 229.846 8.72124 229.501C8.72124 229.118 8.78891 228.766 8.92424 228.444C9.06424 228.122 9.25324 227.844 9.49124 227.611C9.72924 227.378 10.0069 227.196 10.3242 227.065C10.6462 226.934 10.9869 226.869 11.3462 226.869C11.4816 226.869 11.6192 226.878 11.7592 226.897C11.8992 226.916 12.0299 226.941 12.1512 226.974C12.2772 227.007 12.3869 227.046 12.4802 227.093C12.5782 227.135 12.6529 227.179 12.7042 227.226C12.6669 227.282 12.6366 227.329 12.6132 227.366C12.5946 227.403 12.5736 227.443 12.5502 227.485C12.5269 227.522 12.5012 227.567 12.4732 227.618C12.4452 227.669 12.4079 227.737 12.3612 227.821C12.3006 227.779 12.2282 227.744 12.1442 227.716C12.0649 227.688 11.9809 227.665 11.8922 227.646C11.8036 227.627 11.7126 227.613 11.6192 227.604C11.5306 227.595 11.4489 227.59 11.3742 227.59C11.1036 227.59 10.8516 227.641 10.6182 227.744C10.3896 227.842 10.1912 227.977 10.0232 228.15C9.85524 228.318 9.72224 228.514 9.62424 228.738C9.53091 228.962 9.48424 229.195 9.48424 229.438C9.48424 229.676 9.52858 229.905 9.61724 230.124C9.71058 230.343 9.83658 230.539 9.99524 230.712C10.1586 230.885 10.3522 231.022 10.5762 231.125C10.8049 231.228 11.0546 231.279 11.3252 231.279C11.4699 231.279 11.6099 231.265 11.7452 231.237C11.8806 231.209 12.0019 231.176 12.1092 231.139C12.2212 231.102 12.3122 231.064 12.3822 231.027C12.4569 230.99 12.5012 230.962 12.5152 230.943L12.8372 231.636ZM17.1644 231.636C17.1084 231.678 17.0291 231.725 16.9264 231.776C16.8284 231.823 16.7117 231.867 16.5764 231.909C16.4411 231.951 16.2894 231.986 16.1214 232.014C15.9581 232.042 15.7831 232.056 15.5964 232.056C15.1997 232.056 14.8427 231.988 14.5254 231.853C14.2127 231.713 13.9467 231.526 13.7274 231.293C13.5081 231.06 13.3401 230.789 13.2234 230.481C13.1067 230.173 13.0484 229.846 13.0484 229.501C13.0484 229.118 13.1161 228.766 13.2514 228.444C13.3914 228.122 13.5804 227.844 13.8184 227.611C14.0564 227.378 14.3341 227.196 14.6514 227.065C14.9734 226.934 15.3141 226.869 15.6734 226.869C15.8087 226.869 15.9464 226.878 16.0864 226.897C16.2264 226.916 16.3571 226.941 16.4784 226.974C16.6044 227.007 16.7141 227.046 16.8074 227.093C16.9054 227.135 16.9801 227.179 17.0314 227.226C16.9941 227.282 16.9637 227.329 16.9404 227.366C16.9217 227.403 16.9007 227.443 16.8774 227.485C16.8541 227.522 16.8284 227.567 16.8004 227.618C16.7724 227.669 16.7351 227.737 16.6884 227.821C16.6277 227.779 16.5554 227.744 16.4714 227.716C16.3921 227.688 16.3081 227.665 16.2194 227.646C16.1307 227.627 16.0397 227.613 15.9464 227.604C15.8577 227.595 15.7761 227.59 15.7014 227.59C15.4307 227.59 15.1787 227.641 14.9454 227.744C14.7167 227.842 14.5184 227.977 14.3504 228.15C14.1824 228.318 14.0494 228.514 13.9514 228.738C13.8581 228.962 13.8114 229.195 13.8114 229.438C13.8114 229.676 13.8557 229.905 13.9444 230.124C14.0377 230.343 14.1637 230.539 14.3224 230.712C14.4857 230.885 14.6794 231.022 14.9034 231.125C15.1321 231.228 15.3817 231.279 15.6524 231.279C15.7971 231.279 15.9371 231.265 16.0724 231.237C16.2077 231.209 16.3291 231.176 16.4364 231.139C16.5484 231.102 16.6394 231.064 16.7094 231.027C16.7841 230.99 16.8284 230.962 16.8424 230.943L17.1644 231.636ZM19.0625 228.017V227.387H22.0025C21.8392 227.788 21.6805 228.183 21.5265 228.57C21.3725 228.957 21.2209 229.342 21.0715 229.725C20.9222 230.103 20.7729 230.481 20.6235 230.859C20.4742 231.237 20.3249 231.617 20.1755 232H19.4475C19.6855 231.389 19.9375 230.742 20.2035 230.061C20.4695 229.375 20.7355 228.694 21.0015 228.017H19.0625Z" fill="#C4C4C4"/>
<path d="M24.8333 203C24.8333 208.239 20.5132 212.5 15.1667 212.5C9.82009 212.5 5.5 208.239 5.5 203C5.5 197.761 9.82009 193.5 15.1667 193.5C20.5132 193.5 24.8333 197.761 24.8333 203Z" fill="#616161" stroke="#C4C4C4"/>
<path d="M15.1667 195L22.2103 199V207L15.1667 211L8.12299 207V199L15.1667 195Z" fill="#A5A5A5"/>
<path d="M15.1667 208.5C18.2424 208.5 20.75 206.045 20.75 203C20.75 199.955 18.2424 197.5 15.1667 197.5C12.0909 197.5 9.58333 199.955 9.58333 203C9.58333 206.045 12.0909 208.5 15.1667 208.5Z" fill="black" stroke="#E5E5E5"/>
<rect x="31.9677" y="190" width="28.5323" height="45" fill="#161616"/>
<path d="M42.0924 231.636C42.0364 231.678 41.957 231.725 41.8544 231.776C41.7564 231.823 41.6397 231.867 41.5044 231.909C41.369 231.951 41.2174 231.986 41.0494 232.014C40.886 232.042 40.711 232.056 40.5244 232.056C40.1277 232.056 39.7707 231.988 39.4534 231.853C39.1407 231.713 38.8747 231.526 38.6554 231.293C38.436 231.06 38.268 230.789 38.1514 230.481C38.0347 230.173 37.9764 229.846 37.9764 229.501C37.9764 229.118 38.044 228.766 38.1794 228.444C38.3194 228.122 38.5084 227.844 38.7464 227.611C38.9844 227.378 39.262 227.196 39.5794 227.065C39.9014 226.934 40.242 226.869 40.6014 226.869C40.7367 226.869 40.8744 226.878 41.0144 226.897C41.1544 226.916 41.285 226.941 41.4064 226.974C41.5324 227.007 41.642 227.046 41.7354 227.093C41.8334 227.135 41.908 227.179 41.9594 227.226C41.922 227.282 41.8917 227.329 41.8684 227.366C41.8497 227.403 41.8287 227.443 41.8054 227.485C41.782 227.522 41.7564 227.567 41.7284 227.618C41.7004 227.669 41.663 227.737 41.6164 227.821C41.5557 227.779 41.4834 227.744 41.3994 227.716C41.32 227.688 41.236 227.665 41.1474 227.646C41.0587 227.627 40.9677 227.613 40.8744 227.604C40.7857 227.595 40.704 227.59 40.6294 227.59C40.3587 227.59 40.1067 227.641 39.8734 227.744C39.6447 227.842 39.4464 227.977 39.2784 228.15C39.1104 228.318 38.9774 228.514 38.8794 228.738C38.786 228.962 38.7394 229.195 38.7394 229.438C38.7394 229.676 38.7837 229.905 38.8724 230.124C38.9657 230.343 39.0917 230.539 39.2504 230.712C39.4137 230.885 39.6074 231.022 39.8314 231.125C40.06 231.228 40.3097 231.279 40.5804 231.279C40.725 231.279 40.865 231.265 41.0004 231.237C41.1357 231.209 41.257 231.176 41.3644 231.139C41.4764 231.102 41.5674 231.064 41.6374 231.027C41.712 230.99 41.7564 230.962 41.7704 230.943L42.0924 231.636ZM46.4195 231.636C46.3635 231.678 46.2842 231.725 46.1815 231.776C46.0835 231.823 45.9669 231.867 45.8315 231.909C45.6962 231.951 45.5445 231.986 45.3765 232.014C45.2132 232.042 45.0382 232.056 44.8515 232.056C44.4549 232.056 44.0979 231.988 43.7805 231.853C43.4679 231.713 43.2019 231.526 42.9825 231.293C42.7632 231.06 42.5952 230.789 42.4785 230.481C42.3619 230.173 42.3035 229.846 42.3035 229.501C42.3035 229.118 42.3712 228.766 42.5065 228.444C42.6465 228.122 42.8355 227.844 43.0735 227.611C43.3115 227.378 43.5892 227.196 43.9065 227.065C44.2285 226.934 44.5692 226.869 44.9285 226.869C45.0639 226.869 45.2015 226.878 45.3415 226.897C45.4815 226.916 45.6122 226.941 45.7335 226.974C45.8595 227.007 45.9692 227.046 46.0625 227.093C46.1605 227.135 46.2352 227.179 46.2865 227.226C46.2492 227.282 46.2189 227.329 46.1955 227.366C46.1769 227.403 46.1559 227.443 46.1325 227.485C46.1092 227.522 46.0835 227.567 46.0555 227.618C46.0275 227.669 45.9902 227.737 45.9435 227.821C45.8829 227.779 45.8105 227.744 45.7265 227.716C45.6472 227.688 45.5632 227.665 45.4745 227.646C45.3859 227.627 45.2949 227.613 45.2015 227.604C45.1129 227.595 45.0312 227.59 44.9565 227.59C44.6859 227.59 44.4339 227.641 44.2005 227.744C43.9719 227.842 43.7735 227.977 43.6055 228.15C43.4375 228.318 43.3045 228.514 43.2065 228.738C43.1132 228.962 43.0665 229.195 43.0665 229.438C43.0665 229.676 43.1109 229.905 43.1995 230.124C43.2929 230.343 43.4189 230.539 43.5775 230.712C43.7409 230.885 43.9345 231.022 44.1585 231.125C44.3872 231.228 44.6369 231.279 44.9075 231.279C45.0522 231.279 45.1922 231.265 45.3275 231.237C45.4629 231.209 45.5842 231.176 45.6915 231.139C45.8035 231.102 45.8945 231.064 45.9645 231.027C46.0392 230.99 46.0835 230.962 46.0975 230.943L46.4195 231.636ZM49.4447 228.479C49.4447 228.549 49.4587 228.614 49.4867 228.675C49.5193 228.731 49.559 228.782 49.6057 228.829C49.657 228.871 49.713 228.906 49.7737 228.934C49.839 228.957 49.9067 228.969 49.9767 228.969C50.042 228.969 50.105 228.957 50.1657 228.934C50.231 228.906 50.287 228.871 50.3337 228.829C50.3803 228.782 50.4177 228.731 50.4457 228.675C50.4737 228.614 50.4877 228.549 50.4877 228.479C50.4877 228.409 50.4737 228.344 50.4457 228.283C50.4177 228.218 50.3803 228.162 50.3337 228.115C50.287 228.064 50.2333 228.024 50.1727 227.996C50.112 227.968 50.0467 227.954 49.9767 227.954C49.8367 227.954 49.713 228.008 49.6057 228.115C49.4983 228.218 49.4447 228.339 49.4447 228.479ZM49.0597 230.509C49.0597 230.635 49.083 230.754 49.1297 230.866C49.1763 230.978 49.2393 231.076 49.3187 231.16C49.398 231.244 49.4913 231.312 49.5987 231.363C49.7107 231.41 49.8273 231.433 49.9487 231.433C50.0747 231.433 50.1937 231.41 50.3057 231.363C50.4177 231.312 50.5157 231.244 50.5997 231.16C50.6883 231.076 50.756 230.978 50.8027 230.866C50.854 230.754 50.8797 230.635 50.8797 230.509C50.8797 230.383 50.8563 230.266 50.8097 230.159C50.763 230.047 50.6977 229.951 50.6137 229.872C50.5343 229.788 50.441 229.723 50.3337 229.676C50.2263 229.625 50.1097 229.597 49.9837 229.592C49.8577 229.592 49.7387 229.615 49.6267 229.662C49.5147 229.709 49.4167 229.774 49.3327 229.858C49.2487 229.937 49.181 230.033 49.1297 230.145C49.083 230.257 49.0597 230.378 49.0597 230.509ZM48.4017 230.537C48.4017 230.364 48.4227 230.208 48.4647 230.068C48.5067 229.928 48.5627 229.804 48.6327 229.697C48.7073 229.585 48.7913 229.489 48.8847 229.41C48.9827 229.331 49.083 229.268 49.1857 229.221C49.0503 229.128 48.9547 229.018 48.8987 228.892C48.8473 228.761 48.8217 228.635 48.8217 228.514C48.8217 228.341 48.8497 228.183 48.9057 228.038C48.9663 227.893 49.048 227.77 49.1507 227.667C49.2533 227.56 49.3723 227.478 49.5077 227.422C49.6477 227.361 49.797 227.331 49.9557 227.331C50.1143 227.331 50.2613 227.361 50.3967 227.422C50.5367 227.478 50.658 227.56 50.7607 227.667C50.8633 227.77 50.945 227.893 51.0057 228.038C51.0663 228.183 51.0967 228.339 51.0967 228.507C51.0967 228.628 51.0687 228.754 51.0127 228.885C50.9567 229.011 50.861 229.123 50.7257 229.221C50.8283 229.272 50.9263 229.338 51.0197 229.417C51.1177 229.496 51.204 229.592 51.2787 229.704C51.3533 229.811 51.4117 229.935 51.4537 230.075C51.4957 230.215 51.5167 230.369 51.5167 230.537C51.5167 230.738 51.4793 230.931 51.4047 231.118C51.33 231.3 51.2227 231.461 51.0827 231.601C50.9473 231.741 50.784 231.853 50.5927 231.937C50.4013 232.016 50.1867 232.056 49.9487 232.056C49.7107 232.056 49.496 232.016 49.3047 231.937C49.118 231.853 48.957 231.741 48.8217 231.601C48.6863 231.461 48.5813 231.3 48.5067 231.118C48.4367 230.931 48.4017 230.738 48.4017 230.537Z" fill="#C4C4C4"/>
<path d="M55.1774 203C55.1774 208.254 50.9887 212.5 45.8387 212.5C40.6887 212.5 36.5 208.254 36.5 203C36.5 197.746 40.6887 193.5 45.8387 193.5C50.9887 193.5 55.1774 197.746 55.1774 203Z" fill="#616161" stroke="#C4C4C4"/>
<path d="M45.8387 195L52.6552 199V207L45.8387 211L39.0223 207V199L45.8387 195Z" fill="#A5A5A5"/>
<path d="M45.8387 208.5C48.8394 208.5 51.2581 206.03 51.2581 203C51.2581 199.97 48.8394 197.5 45.8387 197.5C42.838 197.5 40.4194 199.97 40.4194 203C40.4194 206.03 42.838 208.5 45.8387 208.5Z" fill="black" stroke="#E5E5E5"/>
<rect y="250" width="29.4833" height="45" fill="#161616"/>
<path d="M6.80174 286.925C6.8344 287.004 6.88807 287.135 6.96274 287.317C7.0374 287.494 7.12141 287.697 7.21474 287.926C7.31274 288.155 7.41307 288.397 7.51574 288.654C7.62307 288.911 7.72341 289.153 7.81674 289.382C7.91007 289.611 7.99407 289.816 8.06874 289.998C8.14341 290.175 8.19707 290.304 8.22974 290.383C8.23441 290.392 8.24607 290.425 8.26474 290.481C8.28341 290.537 8.29741 290.586 8.30674 290.628L8.37674 290.383C8.40941 290.304 8.46307 290.175 8.53774 289.998C8.61241 289.816 8.69641 289.611 8.78974 289.382C8.88307 289.153 8.98107 288.911 9.08374 288.654C9.19107 288.397 9.29141 288.155 9.38474 287.926C9.48274 287.697 9.56907 287.494 9.64374 287.317C9.71841 287.135 9.77207 287.004 9.80474 286.925H10.5607C10.5327 286.99 10.4814 287.109 10.4067 287.282C10.3367 287.45 10.2504 287.655 10.1477 287.898C10.0451 288.141 9.93074 288.407 9.80474 288.696C9.68341 288.985 9.55741 289.279 9.42674 289.578C9.30074 289.877 9.17474 290.171 9.04874 290.46C8.92741 290.749 8.81541 291.015 8.71274 291.258C8.61474 291.501 8.52841 291.708 8.45374 291.881C8.38374 292.049 8.33474 292.166 8.30674 292.231L6.04574 286.925H6.80174ZM11.2006 292V286.925H14.5326V287.618H11.9706V289.102H14.2526V289.809H11.9706V291.293H14.6306V292H11.2006ZM15.5209 292V286.925H16.2909V291.272H18.8109V292H15.5209ZM19.0126 289.466C19.0126 289.116 19.0802 288.785 19.2156 288.472C19.3509 288.155 19.5352 287.877 19.7686 287.639C20.0066 287.401 20.2819 287.214 20.5946 287.079C20.9072 286.939 21.2432 286.869 21.6026 286.869C21.9572 286.869 22.2909 286.939 22.6036 287.079C22.9209 287.214 23.1962 287.401 23.4296 287.639C23.6676 287.877 23.8542 288.155 23.9896 288.472C24.1296 288.785 24.1996 289.116 24.1996 289.466C24.1996 289.825 24.1296 290.161 23.9896 290.474C23.8542 290.787 23.6676 291.062 23.4296 291.3C23.1962 291.533 22.9209 291.718 22.6036 291.853C22.2909 291.988 21.9572 292.056 21.6026 292.056C21.2432 292.056 20.9072 291.988 20.5946 291.853C20.2819 291.718 20.0066 291.533 19.7686 291.3C19.5352 291.062 19.3509 290.787 19.2156 290.474C19.0802 290.161 19.0126 289.825 19.0126 289.466ZM19.7756 289.473C19.7756 289.73 19.8222 289.972 19.9156 290.201C20.0136 290.425 20.1466 290.621 20.3146 290.789C20.4826 290.957 20.6786 291.09 20.9026 291.188C21.1266 291.286 21.3646 291.335 21.6166 291.335C21.8686 291.335 22.1042 291.286 22.3236 291.188C22.5476 291.09 22.7412 290.957 22.9046 290.789C23.0726 290.621 23.2032 290.425 23.2966 290.201C23.3946 289.972 23.4436 289.727 23.4436 289.466C23.4436 289.209 23.3946 288.969 23.2966 288.745C23.2032 288.516 23.0726 288.318 22.9046 288.15C22.7366 287.982 22.5406 287.849 22.3166 287.751C22.0972 287.653 21.8616 287.604 21.6096 287.604C21.3576 287.604 21.1196 287.653 20.8956 287.751C20.6716 287.849 20.4756 287.982 20.3076 288.15C20.1442 288.318 20.0136 288.516 19.9156 288.745C19.8222 288.974 19.7756 289.216 19.7756 289.473Z" fill="#C4C4C4"/>
<path d="M24.8333 263C24.8333 268.239 20.5132 272.5 15.1667 272.5C9.82009 272.5 5.5 268.239 5.5 263C5.5 257.761 9.82009 253.5 15.1667 253.5C20.5132 253.5 24.8333 257.761 24.8333 263Z" fill="#616161" stroke="#C4C4C4"/>
<path d="M15.1667 255L22.2103 259V267L15.1667 271L8.12299 267V259L15.1667 255Z" fill="#A5A5A5"/>
<path d="M15.1667 268.5C18.2424 268.5 20.75 266.045 20.75 263C20.75 259.955 18.2424 257.5 15.1667 257.5C12.0909 257.5 9.58333 259.955 9.58333 263C9.58333 266.045 12.0909 268.5 15.1667 268.5Z" fill="black" stroke="#E5E5E5"/>
<rect x="31.9677" y="250" width="28.5323" height="45" fill="#161616"/>
<path d="M40.8122 289.466H41.5052C41.6919 289.466 41.8482 289.433 41.9742 289.368C42.1002 289.303 42.1982 289.223 42.2682 289.13C42.3429 289.037 42.3942 288.936 42.4222 288.829C42.4549 288.722 42.4712 288.626 42.4712 288.542C42.4712 288.453 42.4549 288.358 42.4222 288.255C42.3942 288.148 42.3429 288.05 42.2682 287.961C42.1935 287.868 42.0932 287.791 41.9672 287.73C41.8459 287.669 41.6942 287.639 41.5122 287.639H40.8122V289.466ZM40.0422 292V286.925H41.4282C41.6942 286.925 41.9369 286.96 42.1562 287.03C42.3802 287.1 42.5715 287.205 42.7302 287.345C42.8935 287.48 43.0195 287.648 43.1082 287.849C43.1969 288.045 43.2412 288.271 43.2412 288.528C43.2412 288.729 43.2109 288.929 43.1502 289.13C43.0895 289.326 42.9915 289.503 42.8562 289.662C42.7209 289.816 42.5435 289.942 42.3242 290.04C42.1049 290.138 41.8389 290.187 41.5262 290.187H40.8122V292H40.0422ZM50.0392 286.946C49.8712 287.389 49.6916 287.856 49.5002 288.346C49.3136 288.831 49.1269 289.31 48.9402 289.781C48.7582 290.252 48.5856 290.7 48.4222 291.125C48.2589 291.55 48.1212 291.916 48.0092 292.224L46.8752 289.389C46.8612 289.352 46.8496 289.324 46.8402 289.305C46.8309 289.286 46.8216 289.258 46.8122 289.221C46.8122 289.24 46.8099 289.258 46.8052 289.277C46.8006 289.291 46.7959 289.307 46.7912 289.326C46.7866 289.345 46.7819 289.363 46.7772 289.382C46.6186 289.746 46.4622 290.103 46.3082 290.453C46.2429 290.602 46.1752 290.756 46.1052 290.915C46.0352 291.074 45.9676 291.232 45.9022 291.391C45.8369 291.545 45.7716 291.694 45.7062 291.839C45.6456 291.984 45.5896 292.114 45.5382 292.231C45.2022 291.349 44.8639 290.469 44.5232 289.592C44.1826 288.715 43.8442 287.833 43.5082 286.946H44.3692C44.4812 287.254 44.5956 287.564 44.7122 287.877C44.8336 288.19 44.9456 288.491 45.0482 288.78C45.1556 289.069 45.2512 289.338 45.3352 289.585C45.4192 289.832 45.4846 290.042 45.5312 290.215L45.5872 290.46C45.5919 290.437 45.6036 290.399 45.6222 290.348C45.6409 290.292 45.6549 290.252 45.6642 290.229C45.6689 290.21 45.6852 290.168 45.7132 290.103C45.7412 290.038 45.7739 289.961 45.8112 289.872C45.8486 289.779 45.8906 289.678 45.9372 289.571C45.9839 289.464 46.0306 289.354 46.0772 289.242C46.1892 288.985 46.3129 288.701 46.4482 288.388C46.3689 288.169 46.2989 287.963 46.2382 287.772C46.1822 287.609 46.1286 287.448 46.0772 287.289C46.0306 287.13 45.9956 287.016 45.9722 286.946H46.7072C46.9079 287.473 47.0946 287.961 47.2672 288.409C47.3372 288.6 47.4072 288.792 47.4772 288.983C47.5519 289.174 47.6196 289.352 47.6802 289.515C47.7456 289.678 47.8016 289.823 47.8482 289.949C47.8949 290.07 47.9276 290.159 47.9462 290.215C47.9602 290.257 47.9696 290.299 47.9742 290.341C47.9836 290.378 47.9929 290.418 48.0022 290.46C48.0116 290.418 48.0186 290.376 48.0232 290.334C48.0326 290.292 48.0419 290.252 48.0512 290.215C48.0932 290.033 48.1586 289.816 48.2472 289.564C48.3359 289.312 48.4339 289.041 48.5412 288.752C48.6532 288.463 48.7699 288.164 48.8912 287.856C49.0126 287.543 49.1292 287.24 49.2412 286.946H50.0392Z" fill="#C4C4C4"/>
<path d="M55.1774 263C55.1774 268.254 50.9887 272.5 45.8387 272.5C40.6887 272.5 36.5 268.254 36.5 263C36.5 257.746 40.6887 253.5 45.8387 253.5C50.9887 253.5 55.1774 257.746 55.1774 263Z" fill="#616161" stroke="#C4C4C4"/>
<path d="M45.8387 255L52.6552 259V267L45.8387 271L39.0223 267V259L45.8387 255Z" fill="#A5A5A5"/>
<path d="M45.8387 268.5C48.8394 268.5 51.2581 266.03 51.2581 263C51.2581 259.97 48.8394 257.5 45.8387 257.5C42.838 257.5 40.4194 259.97 40.4194 263C40.4194 266.03 42.838 268.5 45.8387 268.5Z" fill="black" stroke="#E5E5E5"/>
</svg>
