<svg width="153" height="386" viewBox="0 0 153 386" fill="none" xmlns="http://www.w3.org/2000/svg">
<rect x="0.5" y="0.5" width="151.4" height="384.5" fill="#333333" stroke="#161616"/>
<path d="M62.1764 376V371.65H63.3644C63.5924 371.65 63.8004 371.68 63.9884 371.74C64.1804 371.8 64.3444 371.89 64.4804 372.01C64.6204 372.126 64.7284 372.27 64.8044 372.442C64.8804 372.61 64.9184 372.804 64.9184 373.024C64.9184 373.144 64.9064 373.264 64.8824 373.384C64.8584 373.5 64.8184 373.614 64.7624 373.726C64.7104 373.834 64.6424 373.936 64.5584 374.032C64.4744 374.124 64.3724 374.202 64.2524 374.266C64.4124 374.518 64.5864 374.798 64.7744 375.106C64.9624 375.41 65.1524 375.708 65.3444 376H64.5584C64.4784 375.876 64.3944 375.746 64.3064 375.61C64.2224 375.474 64.1364 375.34 64.0484 375.208C63.9644 375.072 63.8804 374.94 63.7964 374.812C63.7164 374.68 63.6404 374.558 63.5684 374.446H63.4484H62.8364V376H62.1764ZM62.8364 373.828H63.4304C63.5904 373.828 63.7244 373.802 63.8324 373.75C63.9404 373.694 64.0244 373.626 64.0844 373.546C64.1484 373.466 64.1924 373.38 64.2164 373.288C64.2444 373.196 64.2584 373.112 64.2584 373.036C64.2584 372.96 64.2444 372.878 64.2164 372.79C64.1924 372.698 64.1484 372.614 64.0844 372.538C64.0204 372.458 63.9344 372.392 63.8264 372.34C63.7224 372.288 63.5924 372.262 63.4364 372.262H62.8364V373.828ZM68.638 376C68.618 375.956 68.59 375.892 68.554 375.808C68.518 375.724 68.476 375.628 68.428 375.52C68.384 375.408 68.334 375.288 68.278 375.16C68.226 375.028 68.172 374.892 68.116 374.752H66.58L66.064 376H65.416L67.354 371.446C67.378 371.502 67.42 371.604 67.48 371.752C67.544 371.9 67.618 372.078 67.702 372.286C67.79 372.49 67.886 372.718 67.99 372.97C68.098 373.218 68.206 373.47 68.314 373.726C68.426 373.982 68.534 374.234 68.638 374.482C68.746 374.73 68.844 374.958 68.932 375.166C69.02 375.374 69.094 375.552 69.154 375.7C69.218 375.844 69.262 375.944 69.286 376H68.638ZM66.808 374.2H67.894C67.838 374.068 67.784 373.942 67.732 373.822C67.684 373.698 67.638 373.586 67.594 373.486C67.554 373.382 67.518 373.292 67.486 373.216C67.454 373.14 67.43 373.08 67.414 373.036C67.41 373.028 67.4 373 67.384 372.952C67.372 372.904 67.362 372.86 67.354 372.82C67.346 372.86 67.334 372.904 67.318 372.952C67.302 373 67.292 373.028 67.288 373.036L66.808 374.2ZM72.8927 375.688C72.8447 375.724 72.7767 375.764 72.6887 375.808C72.6047 375.848 72.5047 375.886 72.3887 375.922C72.2727 375.958 72.1427 375.988 71.9987 376.012C71.8587 376.036 71.7087 376.048 71.5487 376.048C71.2087 376.048 70.9027 375.99 70.6307 375.874C70.3627 375.754 70.1347 375.594 69.9467 375.394C69.7587 375.194 69.6147 374.962 69.5147 374.698C69.4147 374.434 69.3647 374.154 69.3647 373.858C69.3647 373.53 69.4227 373.228 69.5387 372.952C69.6587 372.676 69.8207 372.438 70.0247 372.238C70.2287 372.038 70.4667 371.882 70.7387 371.77C71.0147 371.658 71.3067 371.602 71.6147 371.602C71.7307 371.602 71.8487 371.61 71.9687 371.626C72.0887 371.642 72.2007 371.664 72.3047 371.692C72.4127 371.72 72.5067 371.754 72.5867 371.794C72.6707 371.83 72.7347 371.868 72.7787 371.908C72.7467 371.956 72.7207 371.996 72.7007 372.028C72.6847 372.06 72.6667 372.094 72.6467 372.13C72.6267 372.162 72.6047 372.2 72.5807 372.244C72.5567 372.288 72.5247 372.346 72.4847 372.418C72.4327 372.382 72.3707 372.352 72.2987 372.328C72.2307 372.304 72.1587 372.284 72.0827 372.268C72.0067 372.252 71.9287 372.24 71.8487 372.232C71.7727 372.224 71.7027 372.22 71.6387 372.22C71.4067 372.22 71.1907 372.264 70.9907 372.352C70.7947 372.436 70.6247 372.552 70.4807 372.7C70.3367 372.844 70.2227 373.012 70.1387 373.204C70.0587 373.396 70.0187 373.596 70.0187 373.804C70.0187 374.008 70.0567 374.204 70.1327 374.392C70.2127 374.58 70.3207 374.748 70.4567 374.896C70.5967 375.044 70.7627 375.162 70.9547 375.25C71.1507 375.338 71.3647 375.382 71.5967 375.382C71.7207 375.382 71.8407 375.37 71.9567 375.346C72.0727 375.322 72.1767 375.294 72.2687 375.262C72.3647 375.23 72.4427 375.198 72.5027 375.166C72.5667 375.134 72.6047 375.11 72.6167 375.094L72.8927 375.688ZM76.0708 376C75.9308 375.82 75.7968 375.648 75.6688 375.484C75.5408 375.32 75.4148 375.156 75.2908 374.992C75.1668 374.828 75.0408 374.662 74.9128 374.494C74.7888 374.326 74.6568 374.152 74.5168 373.972C74.4648 374.028 74.4148 374.08 74.3668 374.128C74.3188 374.172 74.2668 374.218 74.2108 374.266C74.2108 374.574 74.2108 374.864 74.2108 375.136C74.2148 375.404 74.2168 375.692 74.2168 376H73.4908V371.65H74.2168V373.276C74.2168 373.312 74.2128 373.348 74.2048 373.384C74.2008 373.416 74.1988 373.45 74.1988 373.486C74.2188 373.458 74.2388 373.434 74.2588 373.414C74.2788 373.39 74.2988 373.362 74.3188 373.33C74.6028 373.062 74.8768 372.784 75.1408 372.496C75.4048 372.204 75.6788 371.922 75.9628 371.65H76.7968C76.4968 371.962 76.1988 372.276 75.9028 372.592C75.6108 372.908 75.3148 373.222 75.0148 373.534C75.1828 373.75 75.3428 373.96 75.4948 374.164C75.6508 374.364 75.8028 374.564 75.9508 374.764C76.1028 374.964 76.2548 375.166 76.4068 375.37C76.5588 375.574 76.7168 375.784 76.8808 376H76.0708ZM77.3756 376V371.65H78.0356V375.376H80.1956V376H77.3756ZM80.8033 376V371.65H83.6593V372.244H81.4633V373.516H83.4193V374.122H81.4633V375.394H83.7433V376H80.8033ZM86.9965 371.89L86.7625 372.424C86.5985 372.364 86.4345 372.316 86.2705 372.28C86.1105 372.244 85.9565 372.226 85.8085 372.226C85.5565 372.226 85.3545 372.278 85.2025 372.382C85.0545 372.486 84.9805 372.618 84.9805 372.778C84.9805 372.914 85.0345 373.024 85.1425 373.108C85.2505 373.188 85.3845 373.262 85.5445 373.33C85.7045 373.394 85.8785 373.46 86.0665 373.528C86.2545 373.592 86.4285 373.676 86.5885 373.78C86.7485 373.884 86.8825 374.016 86.9905 374.176C87.0985 374.332 87.1525 374.534 87.1525 374.782C87.1525 374.974 87.1165 375.148 87.0445 375.304C86.9765 375.456 86.8725 375.588 86.7325 375.7C86.5965 375.812 86.4245 375.898 86.2165 375.958C86.0125 376.018 85.7725 376.048 85.4965 376.048C85.3205 376.048 85.1605 376.036 85.0165 376.012C84.8765 375.988 84.7485 375.958 84.6325 375.922C84.5205 375.882 84.4205 375.84 84.3325 375.796C84.2485 375.752 84.1765 375.712 84.1165 375.676L84.4045 375.106C84.5645 375.198 84.7425 375.272 84.9385 375.328C85.1345 375.384 85.3125 375.412 85.4725 375.412C85.5525 375.412 85.6505 375.402 85.7665 375.382C85.8865 375.362 86.0005 375.328 86.1085 375.28C86.2165 375.228 86.3085 375.16 86.3845 375.076C86.4645 374.992 86.5045 374.886 86.5045 374.758C86.5045 374.642 86.4725 374.544 86.4085 374.464C86.3485 374.38 86.2665 374.308 86.1625 374.248C86.0625 374.184 85.9465 374.128 85.8145 374.08C85.6865 374.028 85.5545 373.976 85.4185 373.924C85.2825 373.868 85.1485 373.81 85.0165 373.75C84.8885 373.69 84.7725 373.618 84.6685 373.534C84.5685 373.446 84.4865 373.346 84.4225 373.234C84.3625 373.118 84.3325 372.98 84.3325 372.82C84.3325 372.672 84.3625 372.526 84.4225 372.382C84.4825 372.238 84.5725 372.11 84.6925 371.998C84.8125 371.886 84.9605 371.796 85.1365 371.728C85.3165 371.66 85.5245 371.626 85.7605 371.626C85.9045 371.626 86.0445 371.638 86.1805 371.662C86.3205 371.686 86.4465 371.714 86.5585 371.746C86.6705 371.774 86.7645 371.802 86.8405 371.83C86.9205 371.858 86.9725 371.878 86.9965 371.89ZM90.389 371.89L90.155 372.424C89.991 372.364 89.827 372.316 89.663 372.28C89.503 372.244 89.349 372.226 89.201 372.226C88.949 372.226 88.747 372.278 88.595 372.382C88.447 372.486 88.373 372.618 88.373 372.778C88.373 372.914 88.427 373.024 88.535 373.108C88.643 373.188 88.777 373.262 88.937 373.33C89.097 373.394 89.271 373.46 89.459 373.528C89.647 373.592 89.821 373.676 89.981 373.78C90.141 373.884 90.275 374.016 90.383 374.176C90.491 374.332 90.545 374.534 90.545 374.782C90.545 374.974 90.509 375.148 90.437 375.304C90.369 375.456 90.265 375.588 90.125 375.7C89.989 375.812 89.817 375.898 89.609 375.958C89.405 376.018 89.165 376.048 88.889 376.048C88.713 376.048 88.553 376.036 88.409 376.012C88.269 375.988 88.141 375.958 88.025 375.922C87.913 375.882 87.813 375.84 87.725 375.796C87.641 375.752 87.569 375.712 87.509 375.676L87.797 375.106C87.957 375.198 88.135 375.272 88.331 375.328C88.527 375.384 88.705 375.412 88.865 375.412C88.945 375.412 89.043 375.402 89.159 375.382C89.279 375.362 89.393 375.328 89.501 375.28C89.609 375.228 89.701 375.16 89.777 375.076C89.857 374.992 89.897 374.886 89.897 374.758C89.897 374.642 89.865 374.544 89.801 374.464C89.741 374.38 89.659 374.308 89.555 374.248C89.455 374.184 89.339 374.128 89.207 374.08C89.079 374.028 88.947 373.976 88.811 373.924C88.675 373.868 88.541 373.81 88.409 373.75C88.281 373.69 88.165 373.618 88.061 373.534C87.961 373.446 87.879 373.346 87.815 373.234C87.755 373.118 87.725 372.98 87.725 372.82C87.725 372.672 87.755 372.526 87.815 372.382C87.875 372.238 87.965 372.11 88.085 371.998C88.205 371.886 88.353 371.796 88.529 371.728C88.709 371.66 88.917 371.626 89.153 371.626C89.297 371.626 89.437 371.638 89.573 371.662C89.713 371.686 89.839 371.714 89.951 371.746C90.063 371.774 90.157 371.802 90.233 371.83C90.313 371.858 90.365 371.878 90.389 371.89Z" fill="#C4C4C4"/>
<path d="M67.1485 19.187C67.2025 19.271 67.3135 19.433 67.4815 19.673C67.6555 19.907 67.8535 20.18 68.0755 20.492C68.3035 20.804 68.5435 21.137 68.7955 21.491C69.0475 21.839 69.2845 22.169 69.5065 22.481C69.7285 22.787 69.9205 23.054 70.0825 23.282C70.2505 23.51 70.3615 23.66 70.4155 23.732C70.4335 23.702 70.4905 23.621 70.5865 23.489C70.6825 23.357 70.7995 23.192 70.9375 22.994C71.0815 22.796 71.2435 22.574 71.4235 22.328C71.6035 22.076 71.7865 21.821 71.9725 21.563C72.1645 21.299 72.3505 21.038 72.5305 20.78C72.7165 20.522 72.8875 20.288 73.0435 20.078C73.1995 19.862 73.3315 19.676 73.4395 19.52C73.5535 19.358 73.6345 19.247 73.6825 19.187V26H72.6385V22.346C72.6385 22.298 72.6415 22.247 72.6475 22.193C72.6595 22.139 72.6655 22.1 72.6655 22.076C72.6115 22.148 72.5245 22.271 72.4045 22.445C72.2905 22.613 72.1555 22.808 71.9995 23.03C71.8495 23.246 71.6905 23.477 71.5225 23.723C71.3545 23.963 71.1955 24.191 71.0455 24.407C70.8955 24.623 70.7635 24.815 70.6495 24.983C70.5355 25.145 70.4575 25.259 70.4155 25.325C70.3735 25.271 70.2895 25.16 70.1635 24.992C70.0435 24.818 69.8995 24.617 69.7315 24.389C69.5695 24.161 69.3955 23.918 69.2095 23.66C69.0295 23.402 68.8615 23.162 68.7055 22.94C68.5495 22.718 68.4145 22.529 68.3005 22.373C68.1865 22.211 68.1205 22.112 68.1025 22.076C68.1025 22.1 68.1055 22.139 68.1115 22.193C68.1235 22.247 68.1295 22.298 68.1295 22.346V26H67.1485V19.187ZM75.2871 19.475H76.2681V26H75.2871V19.475ZM77.8711 19.475H79.5091C80.1691 19.475 80.7271 19.574 81.1831 19.772C81.6391 19.97 82.0081 20.231 82.2901 20.555C82.5781 20.873 82.7851 21.233 82.9111 21.635C83.0431 22.031 83.1091 22.427 83.1091 22.823C83.1091 23.309 83.0221 23.75 82.8481 24.146C82.6741 24.536 82.4371 24.869 82.1371 25.145C81.8371 25.421 81.4891 25.634 81.0931 25.784C80.6971 25.928 80.2771 26 79.8331 26H77.8711V19.475ZM79.6891 25.064C80.0371 25.064 80.3581 25.013 80.6521 24.911C80.9521 24.809 81.2101 24.662 81.4261 24.47C81.6481 24.272 81.8191 24.032 81.9391 23.75C82.0651 23.462 82.1281 23.132 82.1281 22.76C82.1281 22.364 82.0591 22.019 81.9211 21.725C81.7831 21.431 81.6031 21.188 81.3811 20.996C81.1591 20.798 80.9071 20.654 80.6251 20.564C80.3491 20.468 80.0671 20.42 79.7791 20.42H78.8521V25.064H79.6891ZM84.2696 19.475H85.2506V26H84.2696V19.475Z" fill="#C4C4C4"/>
<rect x="7" y="303" width="32" height="45" fill="#161616"/>
<path d="M13.1811 339.925C13.2138 340.004 13.2675 340.135 13.3421 340.317C13.4168 340.494 13.5008 340.697 13.5941 340.926C13.6921 341.155 13.7925 341.397 13.8951 341.654C14.0025 341.911 14.1028 342.153 14.1961 342.382C14.2895 342.611 14.3735 342.816 14.4481 342.998C14.5228 343.175 14.5765 343.304 14.6091 343.383C14.6138 343.392 14.6255 343.425 14.6441 343.481C14.6628 343.537 14.6768 343.586 14.6861 343.628L14.7561 343.383C14.7888 343.304 14.8425 343.175 14.9171 342.998C14.9918 342.816 15.0758 342.611 15.1691 342.382C15.2625 342.153 15.3605 341.911 15.4631 341.654C15.5705 341.397 15.6708 341.155 15.7641 340.926C15.8621 340.697 15.9485 340.494 16.0231 340.317C16.0978 340.135 16.1515 340.004 16.1841 339.925H16.9401C16.9121 339.99 16.8608 340.109 16.7861 340.282C16.7161 340.45 16.6298 340.655 16.5271 340.898C16.4245 341.141 16.3101 341.407 16.1841 341.696C16.0628 341.985 15.9368 342.279 15.8061 342.578C15.6801 342.877 15.5541 343.171 15.4281 343.46C15.3068 343.749 15.1948 344.015 15.0921 344.258C14.9941 344.501 14.9078 344.708 14.8331 344.881C14.7631 345.049 14.7141 345.166 14.6861 345.231L12.4251 339.925H13.1811ZM16.7775 345.133L18.7515 339.778H19.4025C19.0665 340.674 18.7352 341.568 18.4085 342.459C18.0865 343.346 17.7575 344.237 17.4215 345.133H16.7775ZM19.8139 342.466C19.8139 342.116 19.8815 341.785 20.0169 341.472C20.1522 341.155 20.3365 340.877 20.5699 340.639C20.8079 340.401 21.0832 340.214 21.3959 340.079C21.7085 339.939 22.0445 339.869 22.4039 339.869C22.7585 339.869 23.0922 339.939 23.4049 340.079C23.7222 340.214 23.9975 340.401 24.2309 340.639C24.4689 340.877 24.6555 341.155 24.7909 341.472C24.9309 341.785 25.0009 342.116 25.0009 342.466C25.0009 342.825 24.9309 343.161 24.7909 343.474C24.6555 343.787 24.4689 344.062 24.2309 344.3C23.9975 344.533 23.7222 344.718 23.4049 344.853C23.0922 344.988 22.7585 345.056 22.4039 345.056C22.0445 345.056 21.7085 344.988 21.3959 344.853C21.0832 344.718 20.8079 344.533 20.5699 344.3C20.3365 344.062 20.1522 343.787 20.0169 343.474C19.8815 343.161 19.8139 342.825 19.8139 342.466ZM20.5769 342.473C20.5769 342.73 20.6235 342.972 20.7169 343.201C20.8149 343.425 20.9479 343.621 21.1159 343.789C21.2839 343.957 21.4799 344.09 21.7039 344.188C21.9279 344.286 22.1659 344.335 22.4179 344.335C22.6699 344.335 22.9055 344.286 23.1249 344.188C23.3489 344.09 23.5425 343.957 23.7059 343.789C23.8739 343.621 24.0045 343.425 24.0979 343.201C24.1959 342.972 24.2449 342.727 24.2449 342.466C24.2449 342.209 24.1959 341.969 24.0979 341.745C24.0045 341.516 23.8739 341.318 23.7059 341.15C23.5379 340.982 23.3419 340.849 23.1179 340.751C22.8985 340.653 22.6629 340.604 22.4109 340.604C22.1589 340.604 21.9209 340.653 21.6969 340.751C21.4729 340.849 21.2769 340.982 21.1089 341.15C20.9455 341.318 20.8149 341.516 20.7169 341.745C20.6235 341.974 20.5769 342.216 20.5769 342.473ZM29.6585 344.636C29.6025 344.678 29.5232 344.725 29.4205 344.776C29.3225 344.823 29.2059 344.867 29.0705 344.909C28.9352 344.951 28.7835 344.986 28.6155 345.014C28.4522 345.042 28.2772 345.056 28.0905 345.056C27.6939 345.056 27.3369 344.988 27.0195 344.853C26.7069 344.713 26.4409 344.526 26.2215 344.293C26.0022 344.06 25.8342 343.789 25.7175 343.481C25.6009 343.173 25.5425 342.846 25.5425 342.501C25.5425 342.118 25.6102 341.766 25.7455 341.444C25.8855 341.122 26.0745 340.844 26.3125 340.611C26.5505 340.378 26.8282 340.196 27.1455 340.065C27.4675 339.934 27.8082 339.869 28.1675 339.869C28.3029 339.869 28.4405 339.878 28.5805 339.897C28.7205 339.916 28.8512 339.941 28.9725 339.974C29.0985 340.007 29.2082 340.046 29.3015 340.093C29.3995 340.135 29.4742 340.179 29.5255 340.226C29.4882 340.282 29.4579 340.329 29.4345 340.366C29.4159 340.403 29.3949 340.443 29.3715 340.485C29.3482 340.522 29.3225 340.567 29.2945 340.618C29.2665 340.669 29.2292 340.737 29.1825 340.821C29.1219 340.779 29.0495 340.744 28.9655 340.716C28.8862 340.688 28.8022 340.665 28.7135 340.646C28.6249 340.627 28.5339 340.613 28.4405 340.604C28.3519 340.595 28.2702 340.59 28.1955 340.59C27.9249 340.59 27.6729 340.641 27.4395 340.744C27.2109 340.842 27.0125 340.977 26.8445 341.15C26.6765 341.318 26.5435 341.514 26.4455 341.738C26.3522 341.962 26.3055 342.195 26.3055 342.438C26.3055 342.676 26.3499 342.905 26.4385 343.124C26.5319 343.343 26.6579 343.539 26.8165 343.712C26.9799 343.885 27.1735 344.022 27.3975 344.125C27.6262 344.228 27.8759 344.279 28.1465 344.279C28.2912 344.279 28.4312 344.265 28.5665 344.237C28.7019 344.209 28.8232 344.176 28.9305 344.139C29.0425 344.102 29.1335 344.064 29.2035 344.027C29.2782 343.99 29.3225 343.962 29.3365 343.943L29.6585 344.636ZM33.3104 339.925V340.653H32.0294V345H31.2664V340.653H30.0134V339.925H33.3104Z" fill="#C4C4C4"/>
<circle cx="24" cy="316" r="9.5" fill="#616161" stroke="#C4C4C4"/>
<path d="M24 308L30.9282 312V320L24 324L17.0718 320V312L24 308Z" fill="#A5A5A5"/>
<circle cx="24" cy="316" r="5.5" fill="black" stroke="#E5E5E5"/>
<rect x="7" y="185" width="32" height="45" fill="#161616"/>
<path d="M21.1239 226.636C21.0679 226.678 20.9885 226.725 20.8859 226.776C20.7879 226.823 20.6712 226.867 20.5359 226.909C20.4005 226.951 20.2489 226.986 20.0809 227.014C19.9175 227.042 19.7425 227.056 19.5559 227.056C19.1592 227.056 18.8022 226.988 18.4849 226.853C18.1722 226.713 17.9062 226.526 17.6869 226.293C17.4675 226.06 17.2995 225.789 17.1829 225.481C17.0662 225.173 17.0079 224.846 17.0079 224.501C17.0079 224.118 17.0755 223.766 17.2109 223.444C17.3509 223.122 17.5399 222.844 17.7779 222.611C18.0159 222.378 18.2935 222.196 18.6109 222.065C18.9329 221.934 19.2735 221.869 19.6329 221.869C19.7682 221.869 19.9059 221.878 20.0459 221.897C20.1859 221.916 20.3165 221.941 20.4379 221.974C20.5639 222.007 20.6735 222.046 20.7669 222.093C20.8649 222.135 20.9395 222.179 20.9909 222.226C20.9535 222.282 20.9232 222.329 20.8999 222.366C20.8812 222.403 20.8602 222.443 20.8369 222.485C20.8135 222.522 20.7879 222.567 20.7599 222.618C20.7319 222.669 20.6945 222.737 20.6479 222.821C20.5872 222.779 20.5149 222.744 20.4309 222.716C20.3515 222.688 20.2675 222.665 20.1789 222.646C20.0902 222.627 19.9992 222.613 19.9059 222.604C19.8172 222.595 19.7355 222.59 19.6609 222.59C19.3902 222.59 19.1382 222.641 18.9049 222.744C18.6762 222.842 18.4779 222.977 18.3099 223.15C18.1419 223.318 18.0089 223.514 17.9109 223.738C17.8175 223.962 17.7709 224.195 17.7709 224.438C17.7709 224.676 17.8152 224.905 17.9039 225.124C17.9972 225.343 18.1232 225.539 18.2819 225.712C18.4452 225.885 18.6389 226.022 18.8629 226.125C19.0915 226.228 19.3412 226.279 19.6119 226.279C19.7565 226.279 19.8965 226.265 20.0319 226.237C20.1672 226.209 20.2885 226.176 20.3959 226.139C20.5079 226.102 20.5989 226.064 20.6689 226.027C20.7435 225.99 20.7879 225.962 20.8019 225.943L21.1239 226.636ZM25.451 226.636C25.395 226.678 25.3157 226.725 25.213 226.776C25.115 226.823 24.9983 226.867 24.863 226.909C24.7277 226.951 24.576 226.986 24.408 227.014C24.2447 227.042 24.0697 227.056 23.883 227.056C23.4863 227.056 23.1293 226.988 22.812 226.853C22.4993 226.713 22.2333 226.526 22.014 226.293C21.7947 226.06 21.6267 225.789 21.51 225.481C21.3933 225.173 21.335 224.846 21.335 224.501C21.335 224.118 21.4027 223.766 21.538 223.444C21.678 223.122 21.867 222.844 22.105 222.611C22.343 222.378 22.6207 222.196 22.938 222.065C23.26 221.934 23.6007 221.869 23.96 221.869C24.0953 221.869 24.233 221.878 24.373 221.897C24.513 221.916 24.6437 221.941 24.765 221.974C24.891 222.007 25.0007 222.046 25.094 222.093C25.192 222.135 25.2667 222.179 25.318 222.226C25.2807 222.282 25.2503 222.329 25.227 222.366C25.2083 222.403 25.1873 222.443 25.164 222.485C25.1407 222.522 25.115 222.567 25.087 222.618C25.059 222.669 25.0217 222.737 24.975 222.821C24.9143 222.779 24.842 222.744 24.758 222.716C24.6787 222.688 24.5947 222.665 24.506 222.646C24.4173 222.627 24.3263 222.613 24.233 222.604C24.1443 222.595 24.0627 222.59 23.988 222.59C23.7173 222.59 23.4653 222.641 23.232 222.744C23.0033 222.842 22.805 222.977 22.637 223.15C22.469 223.318 22.336 223.514 22.238 223.738C22.1447 223.962 22.098 224.195 22.098 224.438C22.098 224.676 22.1423 224.905 22.231 225.124C22.3243 225.343 22.4503 225.539 22.609 225.712C22.7723 225.885 22.966 226.022 23.19 226.125C23.4187 226.228 23.6683 226.279 23.939 226.279C24.0837 226.279 24.2237 226.265 24.359 226.237C24.4943 226.209 24.6157 226.176 24.723 226.139C24.835 226.102 24.926 226.064 24.996 226.027C25.0707 225.99 25.115 225.962 25.129 225.943L25.451 226.636ZM27.4682 223.01V222.387H28.5672V227H27.9162V223.01H27.4682Z" fill="#C4C4C4"/>
<circle cx="24" cy="198" r="9.5" fill="#616161" stroke="#C4C4C4"/>
<path d="M24 190L30.9282 194V202L24 206L17.0718 202V194L24 190Z" fill="#A5A5A5"/>
<circle cx="24" cy="198" r="5.5" fill="black" stroke="#E5E5E5"/>
<rect x="42" y="185" width="32" height="45" fill="#161616"/>
<path d="M55.2865 226.636C55.2305 226.678 55.1511 226.725 55.0485 226.776C54.9505 226.823 54.8338 226.867 54.6985 226.909C54.5631 226.951 54.4115 226.986 54.2435 227.014C54.0801 227.042 53.9051 227.056 53.7185 227.056C53.3218 227.056 52.9648 226.988 52.6475 226.853C52.3348 226.713 52.0688 226.526 51.8495 226.293C51.6301 226.06 51.4621 225.789 51.3455 225.481C51.2288 225.173 51.1705 224.846 51.1705 224.501C51.1705 224.118 51.2381 223.766 51.3735 223.444C51.5135 223.122 51.7025 222.844 51.9405 222.611C52.1785 222.378 52.4561 222.196 52.7735 222.065C53.0955 221.934 53.4361 221.869 53.7955 221.869C53.9308 221.869 54.0685 221.878 54.2085 221.897C54.3485 221.916 54.4791 221.941 54.6005 221.974C54.7265 222.007 54.8361 222.046 54.9295 222.093C55.0275 222.135 55.1021 222.179 55.1535 222.226C55.1161 222.282 55.0858 222.329 55.0625 222.366C55.0438 222.403 55.0228 222.443 54.9995 222.485C54.9761 222.522 54.9505 222.567 54.9225 222.618C54.8945 222.669 54.8571 222.737 54.8105 222.821C54.7498 222.779 54.6775 222.744 54.5935 222.716C54.5141 222.688 54.4301 222.665 54.3415 222.646C54.2528 222.627 54.1618 222.613 54.0685 222.604C53.9798 222.595 53.8981 222.59 53.8235 222.59C53.5528 222.59 53.3008 222.641 53.0675 222.744C52.8388 222.842 52.6405 222.977 52.4725 223.15C52.3045 223.318 52.1715 223.514 52.0735 223.738C51.9801 223.962 51.9335 224.195 51.9335 224.438C51.9335 224.676 51.9778 224.905 52.0665 225.124C52.1598 225.343 52.2858 225.539 52.4445 225.712C52.6078 225.885 52.8015 226.022 53.0255 226.125C53.2541 226.228 53.5038 226.279 53.7745 226.279C53.9191 226.279 54.0591 226.265 54.1945 226.237C54.3298 226.209 54.4511 226.176 54.5585 226.139C54.6705 226.102 54.7615 226.064 54.8315 226.027C54.9061 225.99 54.9505 225.962 54.9645 225.943L55.2865 226.636ZM59.6136 226.636C59.5576 226.678 59.4783 226.725 59.3756 226.776C59.2776 226.823 59.1609 226.867 59.0256 226.909C58.8903 226.951 58.7386 226.986 58.5706 227.014C58.4073 227.042 58.2323 227.056 58.0456 227.056C57.6489 227.056 57.2919 226.988 56.9746 226.853C56.6619 226.713 56.3959 226.526 56.1766 226.293C55.9573 226.06 55.7893 225.789 55.6726 225.481C55.5559 225.173 55.4976 224.846 55.4976 224.501C55.4976 224.118 55.5653 223.766 55.7006 223.444C55.8406 223.122 56.0296 222.844 56.2676 222.611C56.5056 222.378 56.7833 222.196 57.1006 222.065C57.4226 221.934 57.7633 221.869 58.1226 221.869C58.2579 221.869 58.3956 221.878 58.5356 221.897C58.6756 221.916 58.8063 221.941 58.9276 221.974C59.0536 222.007 59.1633 222.046 59.2566 222.093C59.3546 222.135 59.4293 222.179 59.4806 222.226C59.4433 222.282 59.4129 222.329 59.3896 222.366C59.3709 222.403 59.3499 222.443 59.3266 222.485C59.3033 222.522 59.2776 222.567 59.2496 222.618C59.2216 222.669 59.1843 222.737 59.1376 222.821C59.0769 222.779 59.0046 222.744 58.9206 222.716C58.8413 222.688 58.7573 222.665 58.6686 222.646C58.5799 222.627 58.4889 222.613 58.3956 222.604C58.3069 222.595 58.2253 222.59 58.1506 222.59C57.8799 222.59 57.6279 222.641 57.3946 222.744C57.1659 222.842 56.9676 222.977 56.7996 223.15C56.6316 223.318 56.4986 223.514 56.4006 223.738C56.3073 223.962 56.2606 224.195 56.2606 224.438C56.2606 224.676 56.3049 224.905 56.3936 225.124C56.4869 225.343 56.6129 225.539 56.7716 225.712C56.9349 225.885 57.1286 226.022 57.3526 226.125C57.5813 226.228 57.8309 226.279 58.1016 226.279C58.2463 226.279 58.3863 226.265 58.5216 226.237C58.6569 226.209 58.7783 226.176 58.8856 226.139C58.9976 226.102 59.0886 226.064 59.1586 226.027C59.2333 225.99 59.2776 225.962 59.2916 225.943L59.6136 226.636ZM63.2058 226.377H64.8438V227H61.6658C61.9551 226.706 62.2351 226.421 62.5058 226.146C62.7811 225.871 63.0238 225.605 63.2338 225.348C63.4438 225.087 63.6118 224.837 63.7378 224.599C63.8684 224.356 63.9338 224.123 63.9338 223.899C63.9338 223.736 63.9058 223.596 63.8498 223.479C63.7938 223.358 63.7238 223.26 63.6398 223.185C63.5604 223.106 63.4718 223.047 63.3738 223.01C63.2758 222.973 63.1848 222.954 63.1008 222.954C62.9281 222.954 62.7858 222.984 62.6738 223.045C62.5664 223.106 62.4801 223.18 62.4148 223.269C62.3494 223.353 62.3028 223.442 62.2748 223.535C62.2514 223.628 62.2398 223.71 62.2398 223.78C62.2398 223.939 62.2631 224.076 62.3098 224.193C62.3611 224.31 62.4288 224.415 62.5128 224.508L62.1348 224.907C62.0508 224.856 61.9738 224.786 61.9038 224.697C61.8384 224.604 61.7824 224.506 61.7358 224.403C61.6891 224.296 61.6541 224.188 61.6308 224.081C61.6074 223.969 61.5958 223.869 61.5958 223.78C61.5958 223.593 61.6284 223.414 61.6938 223.241C61.7591 223.064 61.8548 222.907 61.9808 222.772C62.1114 222.637 62.2701 222.529 62.4568 222.45C62.6434 222.371 62.8581 222.331 63.1008 222.331C63.3248 222.331 63.5278 222.371 63.7098 222.45C63.8918 222.529 64.0458 222.639 64.1718 222.779C64.3024 222.914 64.4028 223.073 64.4728 223.255C64.5474 223.432 64.5848 223.619 64.5848 223.815C64.5848 224.044 64.5474 224.268 64.4728 224.487C64.3981 224.702 64.2954 224.916 64.1648 225.131C64.0388 225.341 63.8918 225.549 63.7238 225.754C63.5604 225.959 63.3878 226.167 63.2058 226.377Z" fill="#C4C4C4"/>
<circle cx="59" cy="198" r="9.5" fill="#616161" stroke="#C4C4C4"/>
<path d="M59 190L65.9282 194V202L59 206L52.0718 202V194L59 190Z" fill="#A5A5A5"/>
<circle cx="59" cy="198" r="5.5" fill="black" stroke="#E5E5E5"/>
<rect x="77" y="185" width="32" height="45" fill="#161616"/>
<path d="M90.5565 226.636C90.5005 226.678 90.4211 226.725 90.3185 226.776C90.2205 226.823 90.1038 226.867 89.9685 226.909C89.8331 226.951 89.6815 226.986 89.5135 227.014C89.3501 227.042 89.1751 227.056 88.9885 227.056C88.5918 227.056 88.2348 226.988 87.9175 226.853C87.6048 226.713 87.3388 226.526 87.1195 226.293C86.9001 226.06 86.7321 225.789 86.6155 225.481C86.4988 225.173 86.4405 224.846 86.4405 224.501C86.4405 224.118 86.5081 223.766 86.6435 223.444C86.7835 223.122 86.9725 222.844 87.2105 222.611C87.4485 222.378 87.7261 222.196 88.0435 222.065C88.3655 221.934 88.7061 221.869 89.0655 221.869C89.2008 221.869 89.3385 221.878 89.4785 221.897C89.6185 221.916 89.7491 221.941 89.8705 221.974C89.9965 222.007 90.1061 222.046 90.1995 222.093C90.2975 222.135 90.3721 222.179 90.4235 222.226C90.3861 222.282 90.3558 222.329 90.3325 222.366C90.3138 222.403 90.2928 222.443 90.2695 222.485C90.2461 222.522 90.2205 222.567 90.1925 222.618C90.1645 222.669 90.1271 222.737 90.0805 222.821C90.0198 222.779 89.9475 222.744 89.8635 222.716C89.7841 222.688 89.7001 222.665 89.6115 222.646C89.5228 222.627 89.4318 222.613 89.3385 222.604C89.2498 222.595 89.1681 222.59 89.0935 222.59C88.8228 222.59 88.5708 222.641 88.3375 222.744C88.1088 222.842 87.9105 222.977 87.7425 223.15C87.5745 223.318 87.4415 223.514 87.3435 223.738C87.2501 223.962 87.2035 224.195 87.2035 224.438C87.2035 224.676 87.2478 224.905 87.3365 225.124C87.4298 225.343 87.5558 225.539 87.7145 225.712C87.8778 225.885 88.0715 226.022 88.2955 226.125C88.5241 226.228 88.7738 226.279 89.0445 226.279C89.1891 226.279 89.3291 226.265 89.4645 226.237C89.5998 226.209 89.7211 226.176 89.8285 226.139C89.9405 226.102 90.0315 226.064 90.1015 226.027C90.1761 225.99 90.2205 225.962 90.2345 225.943L90.5565 226.636ZM94.8836 226.636C94.8276 226.678 94.7483 226.725 94.6456 226.776C94.5476 226.823 94.431 226.867 94.2956 226.909C94.1603 226.951 94.0086 226.986 93.8406 227.014C93.6773 227.042 93.5023 227.056 93.3156 227.056C92.919 227.056 92.562 226.988 92.2446 226.853C91.932 226.713 91.666 226.526 91.4466 226.293C91.2273 226.06 91.0593 225.789 90.9426 225.481C90.826 225.173 90.7676 224.846 90.7676 224.501C90.7676 224.118 90.8353 223.766 90.9706 223.444C91.1106 223.122 91.2996 222.844 91.5376 222.611C91.7756 222.378 92.0533 222.196 92.3706 222.065C92.6926 221.934 93.0333 221.869 93.3926 221.869C93.528 221.869 93.6656 221.878 93.8056 221.897C93.9456 221.916 94.0763 221.941 94.1976 221.974C94.3236 222.007 94.4333 222.046 94.5266 222.093C94.6246 222.135 94.6993 222.179 94.7506 222.226C94.7133 222.282 94.683 222.329 94.6596 222.366C94.641 222.403 94.62 222.443 94.5966 222.485C94.5733 222.522 94.5476 222.567 94.5196 222.618C94.4916 222.669 94.4543 222.737 94.4076 222.821C94.347 222.779 94.2746 222.744 94.1906 222.716C94.1113 222.688 94.0273 222.665 93.9386 222.646C93.85 222.627 93.759 222.613 93.6656 222.604C93.577 222.595 93.4953 222.59 93.4206 222.59C93.15 222.59 92.898 222.641 92.6646 222.744C92.436 222.842 92.2376 222.977 92.0696 223.15C91.9016 223.318 91.7686 223.514 91.6706 223.738C91.5773 223.962 91.5306 224.195 91.5306 224.438C91.5306 224.676 91.575 224.905 91.6636 225.124C91.757 225.343 91.883 225.539 92.0416 225.712C92.205 225.885 92.3986 226.022 92.6226 226.125C92.8513 226.228 93.101 226.279 93.3716 226.279C93.5163 226.279 93.6563 226.265 93.7916 226.237C93.927 226.209 94.0483 226.176 94.1556 226.139C94.2676 226.102 94.3586 226.064 94.4286 226.027C94.5033 225.99 94.5476 225.962 94.5616 225.943L94.8836 226.636ZM97.4468 224.711C97.6008 224.431 97.7734 224.151 97.9648 223.871C98.1561 223.586 98.3264 223.302 98.4758 223.017H97.0548V222.387H99.4978C99.3344 222.667 99.1641 222.947 98.9868 223.227C98.8094 223.507 98.6391 223.787 98.4758 224.067C98.7744 224.188 99.0148 224.375 99.1968 224.627C99.3834 224.879 99.4768 225.173 99.4768 225.509C99.4768 225.719 99.4348 225.92 99.3508 226.111C99.2668 226.298 99.1524 226.461 99.0078 226.601C98.8678 226.741 98.7021 226.853 98.5108 226.937C98.3241 227.016 98.1258 227.056 97.9158 227.056C97.6871 227.056 97.4748 227.009 97.2788 226.916C97.0828 226.823 96.9124 226.701 96.7678 226.552L97.2368 226.111C97.3208 226.214 97.4188 226.293 97.5308 226.349C97.6474 226.405 97.7734 226.433 97.9088 226.433C98.0348 226.433 98.1538 226.41 98.2658 226.363C98.3778 226.312 98.4758 226.244 98.5598 226.16C98.6438 226.076 98.7091 225.978 98.7558 225.866C98.8071 225.754 98.8328 225.635 98.8328 225.509C98.8328 225.383 98.8071 225.266 98.7558 225.159C98.7091 225.047 98.6438 224.949 98.5598 224.865C98.4758 224.781 98.3778 224.716 98.2658 224.669C98.1538 224.622 98.0348 224.599 97.9088 224.599C97.7361 224.599 97.5821 224.636 97.4468 224.711Z" fill="#C4C4C4"/>
<circle cx="94" cy="198" r="9.5" fill="#616161" stroke="#C4C4C4"/>
<path d="M94 190L100.928 194V202L94 206L87.0718 202V194L94 190Z" fill="#A5A5A5"/>
<circle cx="94" cy="198" r="5.5" fill="black" stroke="#E5E5E5"/>
<rect x="112" y="185" width="32" height="45" fill="#161616"/>
<path d="M125.341 226.636C125.285 226.678 125.206 226.725 125.103 226.776C125.005 226.823 124.888 226.867 124.753 226.909C124.618 226.951 124.466 226.986 124.298 227.014C124.135 227.042 123.96 227.056 123.773 227.056C123.376 227.056 123.019 226.988 122.702 226.853C122.389 226.713 122.123 226.526 121.904 226.293C121.685 226.06 121.517 225.789 121.4 225.481C121.283 225.173 121.225 224.846 121.225 224.501C121.225 224.118 121.293 223.766 121.428 223.444C121.568 223.122 121.757 222.844 121.995 222.611C122.233 222.378 122.511 222.196 122.828 222.065C123.15 221.934 123.491 221.869 123.85 221.869C123.985 221.869 124.123 221.878 124.263 221.897C124.403 221.916 124.534 221.941 124.655 221.974C124.781 222.007 124.891 222.046 124.984 222.093C125.082 222.135 125.157 222.179 125.208 222.226C125.171 222.282 125.14 222.329 125.117 222.366C125.098 222.403 125.077 222.443 125.054 222.485C125.031 222.522 125.005 222.567 124.977 222.618C124.949 222.669 124.912 222.737 124.865 222.821C124.804 222.779 124.732 222.744 124.648 222.716C124.569 222.688 124.485 222.665 124.396 222.646C124.307 222.627 124.216 222.613 124.123 222.604C124.034 222.595 123.953 222.59 123.878 222.59C123.607 222.59 123.355 222.641 123.122 222.744C122.893 222.842 122.695 222.977 122.527 223.15C122.359 223.318 122.226 223.514 122.128 223.738C122.035 223.962 121.988 224.195 121.988 224.438C121.988 224.676 122.032 224.905 122.121 225.124C122.214 225.343 122.34 225.539 122.499 225.712C122.662 225.885 122.856 226.022 123.08 226.125C123.309 226.228 123.558 226.279 123.829 226.279C123.974 226.279 124.114 226.265 124.249 226.237C124.384 226.209 124.506 226.176 124.613 226.139C124.725 226.102 124.816 226.064 124.886 226.027C124.961 225.99 125.005 225.962 125.019 225.943L125.341 226.636ZM129.668 226.636C129.612 226.678 129.533 226.725 129.43 226.776C129.332 226.823 129.216 226.867 129.08 226.909C128.945 226.951 128.793 226.986 128.625 227.014C128.462 227.042 128.287 227.056 128.1 227.056C127.704 227.056 127.347 226.988 127.029 226.853C126.717 226.713 126.451 226.526 126.231 226.293C126.012 226.06 125.844 225.789 125.727 225.481C125.611 225.173 125.552 224.846 125.552 224.501C125.552 224.118 125.62 223.766 125.755 223.444C125.895 223.122 126.084 222.844 126.322 222.611C126.56 222.378 126.838 222.196 127.155 222.065C127.477 221.934 127.818 221.869 128.177 221.869C128.313 221.869 128.45 221.878 128.59 221.897C128.73 221.916 128.861 221.941 128.982 221.974C129.108 222.007 129.218 222.046 129.311 222.093C129.409 222.135 129.484 222.179 129.535 222.226C129.498 222.282 129.468 222.329 129.444 222.366C129.426 222.403 129.405 222.443 129.381 222.485C129.358 222.522 129.332 222.567 129.304 222.618C129.276 222.669 129.239 222.737 129.192 222.821C129.132 222.779 129.059 222.744 128.975 222.716C128.896 222.688 128.812 222.665 128.723 222.646C128.635 222.627 128.544 222.613 128.45 222.604C128.362 222.595 128.28 222.59 128.205 222.59C127.935 222.59 127.683 222.641 127.449 222.744C127.221 222.842 127.022 222.977 126.854 223.15C126.686 223.318 126.553 223.514 126.455 223.738C126.362 223.962 126.315 224.195 126.315 224.438C126.315 224.676 126.36 224.905 126.448 225.124C126.542 225.343 126.668 225.539 126.826 225.712C126.99 225.885 127.183 226.022 127.407 226.125C127.636 226.228 127.886 226.279 128.156 226.279C128.301 226.279 128.441 226.265 128.576 226.237C128.712 226.209 128.833 226.176 128.94 226.139C129.052 226.102 129.143 226.064 129.213 226.027C129.288 225.99 129.332 225.962 129.346 225.943L129.668 226.636ZM131.356 225.81C131.79 225.245 132.248 224.667 132.728 224.074C133.209 223.477 133.669 222.896 134.107 222.331V225.187H134.793V225.81H134.107V227H133.456V225.81H131.356ZM133.456 224.074L132.602 225.187H133.456V224.074Z" fill="#C4C4C4"/>
<circle cx="129" cy="198" r="9.5" fill="#616161" stroke="#C4C4C4"/>
<path d="M129 190L135.928 194V202L129 206L122.072 202V194L129 190Z" fill="#A5A5A5"/>
<circle cx="129" cy="198" r="5.5" fill="black" stroke="#E5E5E5"/>
<rect x="7" y="244" width="32" height="45" fill="#161616"/>
<path d="M20.5907 285.636C20.5347 285.678 20.4553 285.725 20.3527 285.776C20.2547 285.823 20.138 285.867 20.0027 285.909C19.8673 285.951 19.7157 285.986 19.5477 286.014C19.3843 286.042 19.2093 286.056 19.0227 286.056C18.626 286.056 18.269 285.988 17.9517 285.853C17.639 285.713 17.373 285.526 17.1537 285.293C16.9343 285.06 16.7663 284.789 16.6497 284.481C16.533 284.173 16.4747 283.846 16.4747 283.501C16.4747 283.118 16.5423 282.766 16.6777 282.444C16.8177 282.122 17.0067 281.844 17.2447 281.611C17.4827 281.378 17.7603 281.196 18.0777 281.065C18.3997 280.934 18.7403 280.869 19.0997 280.869C19.235 280.869 19.3727 280.878 19.5127 280.897C19.6527 280.916 19.7833 280.941 19.9047 280.974C20.0307 281.007 20.1403 281.046 20.2337 281.093C20.3317 281.135 20.4063 281.179 20.4577 281.226C20.4203 281.282 20.39 281.329 20.3667 281.366C20.348 281.403 20.327 281.443 20.3037 281.485C20.2803 281.522 20.2547 281.567 20.2267 281.618C20.1987 281.669 20.1613 281.737 20.1147 281.821C20.054 281.779 19.9817 281.744 19.8977 281.716C19.8183 281.688 19.7343 281.665 19.6457 281.646C19.557 281.627 19.466 281.613 19.3727 281.604C19.284 281.595 19.2023 281.59 19.1277 281.59C18.857 281.59 18.605 281.641 18.3717 281.744C18.143 281.842 17.9447 281.977 17.7767 282.15C17.6087 282.318 17.4757 282.514 17.3777 282.738C17.2843 282.962 17.2377 283.195 17.2377 283.438C17.2377 283.676 17.282 283.905 17.3707 284.124C17.464 284.343 17.59 284.539 17.7487 284.712C17.912 284.885 18.1057 285.022 18.3297 285.125C18.5583 285.228 18.808 285.279 19.0787 285.279C19.2233 285.279 19.3633 285.265 19.4987 285.237C19.634 285.209 19.7553 285.176 19.8627 285.139C19.9747 285.102 20.0657 285.064 20.1357 285.027C20.2103 284.99 20.2547 284.962 20.2687 284.943L20.5907 285.636ZM24.9178 285.636C24.8618 285.678 24.7825 285.725 24.6798 285.776C24.5818 285.823 24.4651 285.867 24.3298 285.909C24.1945 285.951 24.0428 285.986 23.8748 286.014C23.7115 286.042 23.5365 286.056 23.3498 286.056C22.9531 286.056 22.5961 285.988 22.2788 285.853C21.9661 285.713 21.7001 285.526 21.4808 285.293C21.2615 285.06 21.0935 284.789 20.9768 284.481C20.8601 284.173 20.8018 283.846 20.8018 283.501C20.8018 283.118 20.8695 282.766 21.0048 282.444C21.1448 282.122 21.3338 281.844 21.5718 281.611C21.8098 281.378 22.0875 281.196 22.4048 281.065C22.7268 280.934 23.0675 280.869 23.4268 280.869C23.5621 280.869 23.6998 280.878 23.8398 280.897C23.9798 280.916 24.1105 280.941 24.2318 280.974C24.3578 281.007 24.4675 281.046 24.5608 281.093C24.6588 281.135 24.7335 281.179 24.7848 281.226C24.7475 281.282 24.7171 281.329 24.6938 281.366C24.6751 281.403 24.6541 281.443 24.6308 281.485C24.6075 281.522 24.5818 281.567 24.5538 281.618C24.5258 281.669 24.4885 281.737 24.4418 281.821C24.3811 281.779 24.3088 281.744 24.2248 281.716C24.1455 281.688 24.0615 281.665 23.9728 281.646C23.8841 281.627 23.7931 281.613 23.6998 281.604C23.6111 281.595 23.5295 281.59 23.4548 281.59C23.1841 281.59 22.9321 281.641 22.6988 281.744C22.4701 281.842 22.2718 281.977 22.1038 282.15C21.9358 282.318 21.8028 282.514 21.7048 282.738C21.6115 282.962 21.5648 283.195 21.5648 283.438C21.5648 283.676 21.6091 283.905 21.6978 284.124C21.7911 284.343 21.9171 284.539 22.0758 284.712C22.2391 284.885 22.4328 285.022 22.6568 285.125C22.8855 285.228 23.1351 285.279 23.4058 285.279C23.5505 285.279 23.6905 285.265 23.8258 285.237C23.9611 285.209 24.0825 285.176 24.1898 285.139C24.3018 285.102 24.3928 285.064 24.4628 285.027C24.5375 284.99 24.5818 284.962 24.5958 284.943L24.9178 285.636ZM27.159 283.865V281.387H29.196V282.01H27.712V283.018C27.7493 283.004 27.782 282.992 27.81 282.983C27.8426 282.974 27.8846 282.969 27.936 282.969C28.174 282.969 28.3886 283.011 28.58 283.095C28.7713 283.174 28.9346 283.284 29.07 283.424C29.21 283.559 29.3173 283.718 29.392 283.9C29.4666 284.082 29.504 284.276 29.504 284.481C29.504 284.705 29.462 284.913 29.378 285.104C29.294 285.295 29.1796 285.461 29.035 285.601C28.895 285.741 28.7293 285.853 28.538 285.937C28.3466 286.016 28.146 286.056 27.936 286.056C27.726 286.056 27.53 286.019 27.348 285.944C27.166 285.865 27.005 285.757 26.865 285.622C26.9443 285.547 27.0236 285.475 27.103 285.405C27.1823 285.335 27.2593 285.263 27.334 285.188C27.4133 285.263 27.5043 285.323 27.607 285.37C27.7096 285.412 27.8216 285.433 27.943 285.433C28.069 285.433 28.188 285.41 28.3 285.363C28.412 285.312 28.51 285.244 28.594 285.16C28.678 285.076 28.7433 284.978 28.79 284.866C28.8413 284.754 28.867 284.635 28.867 284.509C28.867 284.383 28.8413 284.264 28.79 284.152C28.7433 284.04 28.6756 283.944 28.587 283.865C28.503 283.781 28.405 283.716 28.293 283.669C28.181 283.618 28.062 283.592 27.936 283.592C27.81 283.592 27.677 283.608 27.537 283.641C27.4016 283.674 27.2756 283.748 27.159 283.865Z" fill="#C4C4C4"/>
<circle cx="24" cy="257" r="9.5" fill="#616161" stroke="#C4C4C4"/>
<path d="M24 249L30.9282 253V261L24 265L17.0718 261V253L24 249Z" fill="#A5A5A5"/>
<circle cx="24" cy="257" r="5.5" fill="black" stroke="#E5E5E5"/>
<rect x="42" y="244" width="32" height="45" fill="#161616"/>
<path d="M55.3309 285.636C55.2749 285.678 55.1956 285.725 55.0929 285.776C54.9949 285.823 54.8782 285.867 54.7429 285.909C54.6076 285.951 54.4559 285.986 54.2879 286.014C54.1246 286.042 53.9496 286.056 53.7629 286.056C53.3662 286.056 53.0092 285.988 52.6919 285.853C52.3792 285.713 52.1132 285.526 51.8939 285.293C51.6746 285.06 51.5066 284.789 51.3899 284.481C51.2732 284.173 51.2149 283.846 51.2149 283.501C51.2149 283.118 51.2826 282.766 51.4179 282.444C51.5579 282.122 51.7469 281.844 51.9849 281.611C52.2229 281.378 52.5006 281.196 52.8179 281.065C53.1399 280.934 53.4806 280.869 53.8399 280.869C53.9752 280.869 54.1129 280.878 54.2529 280.897C54.3929 280.916 54.5236 280.941 54.6449 280.974C54.7709 281.007 54.8806 281.046 54.9739 281.093C55.0719 281.135 55.1466 281.179 55.1979 281.226C55.1606 281.282 55.1302 281.329 55.1069 281.366C55.0882 281.403 55.0672 281.443 55.0439 281.485C55.0206 281.522 54.9949 281.567 54.9669 281.618C54.9389 281.669 54.9016 281.737 54.8549 281.821C54.7942 281.779 54.7219 281.744 54.6379 281.716C54.5586 281.688 54.4746 281.665 54.3859 281.646C54.2972 281.627 54.2062 281.613 54.1129 281.604C54.0242 281.595 53.9426 281.59 53.8679 281.59C53.5972 281.59 53.3452 281.641 53.1119 281.744C52.8832 281.842 52.6849 281.977 52.5169 282.15C52.3489 282.318 52.2159 282.514 52.1179 282.738C52.0246 282.962 51.9779 283.195 51.9779 283.438C51.9779 283.676 52.0222 283.905 52.1109 284.124C52.2042 284.343 52.3302 284.539 52.4889 284.712C52.6522 284.885 52.8459 285.022 53.0699 285.125C53.2986 285.228 53.5482 285.279 53.8189 285.279C53.9636 285.279 54.1036 285.265 54.2389 285.237C54.3742 285.209 54.4956 285.176 54.6029 285.139C54.7149 285.102 54.8059 285.064 54.8759 285.027C54.9506 284.99 54.9949 284.962 55.0089 284.943L55.3309 285.636ZM59.658 285.636C59.602 285.678 59.5227 285.725 59.42 285.776C59.322 285.823 59.2054 285.867 59.07 285.909C58.9347 285.951 58.783 285.986 58.615 286.014C58.4517 286.042 58.2767 286.056 58.09 286.056C57.6934 286.056 57.3364 285.988 57.019 285.853C56.7064 285.713 56.4404 285.526 56.221 285.293C56.0017 285.06 55.8337 284.789 55.717 284.481C55.6004 284.173 55.542 283.846 55.542 283.501C55.542 283.118 55.6097 282.766 55.745 282.444C55.885 282.122 56.074 281.844 56.312 281.611C56.55 281.378 56.8277 281.196 57.145 281.065C57.467 280.934 57.8077 280.869 58.167 280.869C58.3024 280.869 58.44 280.878 58.58 280.897C58.72 280.916 58.8507 280.941 58.972 280.974C59.098 281.007 59.2077 281.046 59.301 281.093C59.399 281.135 59.4737 281.179 59.525 281.226C59.4877 281.282 59.4574 281.329 59.434 281.366C59.4154 281.403 59.3944 281.443 59.371 281.485C59.3477 281.522 59.322 281.567 59.294 281.618C59.266 281.669 59.2287 281.737 59.182 281.821C59.1214 281.779 59.049 281.744 58.965 281.716C58.8857 281.688 58.8017 281.665 58.713 281.646C58.6244 281.627 58.5334 281.613 58.44 281.604C58.3514 281.595 58.2697 281.59 58.195 281.59C57.9244 281.59 57.6724 281.641 57.439 281.744C57.2104 281.842 57.012 281.977 56.844 282.15C56.676 282.318 56.543 282.514 56.445 282.738C56.3517 282.962 56.305 283.195 56.305 283.438C56.305 283.676 56.3494 283.905 56.438 284.124C56.5314 284.343 56.6574 284.539 56.816 284.712C56.9794 284.885 57.173 285.022 57.397 285.125C57.6257 285.228 57.8754 285.279 58.146 285.279C58.2907 285.279 58.4307 285.265 58.566 285.237C58.7014 285.209 58.8227 285.176 58.93 285.139C59.042 285.102 59.133 285.064 59.203 285.027C59.2777 284.99 59.322 284.962 59.336 284.943L59.658 285.636ZM62.2982 284.509C62.2982 284.635 62.3215 284.754 62.3682 284.866C62.4149 284.978 62.4779 285.076 62.5572 285.16C62.6365 285.244 62.7299 285.312 62.8372 285.363C62.9445 285.41 63.0612 285.433 63.1872 285.433C63.3132 285.433 63.4322 285.41 63.5442 285.363C63.6562 285.312 63.7542 285.244 63.8382 285.16C63.9222 285.076 63.9875 284.978 64.0342 284.866C64.0855 284.754 64.1112 284.635 64.1112 284.509C64.1112 284.383 64.0855 284.264 64.0342 284.152C63.9875 284.04 63.9222 283.942 63.8382 283.858C63.7542 283.774 63.6562 283.709 63.5442 283.662C63.4322 283.615 63.3132 283.592 63.1872 283.592C63.0659 283.592 62.9492 283.615 62.8372 283.662C62.7299 283.709 62.6365 283.774 62.5572 283.858C62.4779 283.942 62.4149 284.04 62.3682 284.152C62.3215 284.264 62.2982 284.383 62.2982 284.509ZM61.6402 284.509C61.6402 284.262 61.6775 284.028 61.7522 283.809C61.8315 283.585 61.9342 283.377 62.0602 283.186C62.1909 282.99 62.3355 282.81 62.4942 282.647C62.6575 282.479 62.8232 282.325 62.9912 282.185C63.1639 282.04 63.3319 281.91 63.4952 281.793C63.6585 281.676 63.8055 281.571 63.9362 281.478C64.0015 281.557 64.0669 281.639 64.1322 281.723C64.2022 281.807 64.2699 281.889 64.3352 281.968C64.1999 282.061 64.0552 282.162 63.9012 282.269C63.7472 282.376 63.5979 282.484 63.4532 282.591C63.3085 282.698 63.1802 282.801 63.0682 282.899C62.9562 282.997 62.8745 283.079 62.8232 283.144C62.8699 283.093 62.9235 283.051 62.9842 283.018C63.0449 282.985 63.1125 282.969 63.1872 282.969C63.3972 282.969 63.5979 283.009 63.7892 283.088C63.9805 283.167 64.1462 283.277 64.2862 283.417C64.4309 283.552 64.5452 283.713 64.6292 283.9C64.7132 284.087 64.7552 284.287 64.7552 284.502C64.7552 284.717 64.7132 284.92 64.6292 285.111C64.5452 285.298 64.4309 285.461 64.2862 285.601C64.1462 285.741 63.9805 285.853 63.7892 285.937C63.6025 286.016 63.4042 286.056 63.1942 286.056C63.0169 286.056 62.8372 286.026 62.6552 285.965C62.4732 285.904 62.3052 285.811 62.1512 285.685C62.0019 285.554 61.8782 285.393 61.7802 285.202C61.6869 285.006 61.6402 284.775 61.6402 284.509Z" fill="#C4C4C4"/>
<circle cx="59" cy="257" r="9.5" fill="#616161" stroke="#C4C4C4"/>
<path d="M59 249L65.9282 253V261L59 265L52.0718 261V253L59 249Z" fill="#A5A5A5"/>
<circle cx="59" cy="257" r="5.5" fill="black" stroke="#E5E5E5"/>
<rect x="77" y="244" width="32" height="45" fill="#161616"/>
<path d="M90.5872 285.636C90.5312 285.678 90.4519 285.725 90.3492 285.776C90.2512 285.823 90.1346 285.867 89.9992 285.909C89.8639 285.951 89.7122 285.986 89.5442 286.014C89.3809 286.042 89.2059 286.056 89.0192 286.056C88.6226 286.056 88.2656 285.988 87.9482 285.853C87.6356 285.713 87.3696 285.526 87.1502 285.293C86.9309 285.06 86.7629 284.789 86.6462 284.481C86.5296 284.173 86.4712 283.846 86.4712 283.501C86.4712 283.118 86.5389 282.766 86.6742 282.444C86.8142 282.122 87.0032 281.844 87.2412 281.611C87.4792 281.378 87.7569 281.196 88.0742 281.065C88.3962 280.934 88.7369 280.869 89.0962 280.869C89.2316 280.869 89.3692 280.878 89.5092 280.897C89.6492 280.916 89.7799 280.941 89.9012 280.974C90.0272 281.007 90.1369 281.046 90.2302 281.093C90.3282 281.135 90.4029 281.179 90.4542 281.226C90.4169 281.282 90.3866 281.329 90.3632 281.366C90.3446 281.403 90.3236 281.443 90.3002 281.485C90.2769 281.522 90.2512 281.567 90.2232 281.618C90.1952 281.669 90.1579 281.737 90.1112 281.821C90.0506 281.779 89.9782 281.744 89.8942 281.716C89.8149 281.688 89.7309 281.665 89.6422 281.646C89.5536 281.627 89.4626 281.613 89.3692 281.604C89.2806 281.595 89.1989 281.59 89.1242 281.59C88.8536 281.59 88.6016 281.641 88.3682 281.744C88.1396 281.842 87.9412 281.977 87.7732 282.15C87.6052 282.318 87.4722 282.514 87.3742 282.738C87.2809 282.962 87.2342 283.195 87.2342 283.438C87.2342 283.676 87.2786 283.905 87.3672 284.124C87.4606 284.343 87.5866 284.539 87.7452 284.712C87.9086 284.885 88.1022 285.022 88.3262 285.125C88.5549 285.228 88.8046 285.279 89.0752 285.279C89.2199 285.279 89.3599 285.265 89.4952 285.237C89.6306 285.209 89.7519 285.176 89.8592 285.139C89.9712 285.102 90.0622 285.064 90.1322 285.027C90.2069 284.99 90.2512 284.962 90.2652 284.943L90.5872 285.636ZM94.9144 285.636C94.8584 285.678 94.7791 285.725 94.6764 285.776C94.5784 285.823 94.4617 285.867 94.3264 285.909C94.1911 285.951 94.0394 285.986 93.8714 286.014C93.7081 286.042 93.5331 286.056 93.3464 286.056C92.9497 286.056 92.5927 285.988 92.2754 285.853C91.9627 285.713 91.6967 285.526 91.4774 285.293C91.2581 285.06 91.0901 284.789 90.9734 284.481C90.8567 284.173 90.7984 283.846 90.7984 283.501C90.7984 283.118 90.8661 282.766 91.0014 282.444C91.1414 282.122 91.3304 281.844 91.5684 281.611C91.8064 281.378 92.0841 281.196 92.4014 281.065C92.7234 280.934 93.0641 280.869 93.4234 280.869C93.5587 280.869 93.6964 280.878 93.8364 280.897C93.9764 280.916 94.1071 280.941 94.2284 280.974C94.3544 281.007 94.4641 281.046 94.5574 281.093C94.6554 281.135 94.7301 281.179 94.7814 281.226C94.7441 281.282 94.7137 281.329 94.6904 281.366C94.6717 281.403 94.6507 281.443 94.6274 281.485C94.6041 281.522 94.5784 281.567 94.5504 281.618C94.5224 281.669 94.4851 281.737 94.4384 281.821C94.3777 281.779 94.3054 281.744 94.2214 281.716C94.1421 281.688 94.0581 281.665 93.9694 281.646C93.8807 281.627 93.7897 281.613 93.6964 281.604C93.6077 281.595 93.5261 281.59 93.4514 281.59C93.1807 281.59 92.9287 281.641 92.6954 281.744C92.4667 281.842 92.2684 281.977 92.1004 282.15C91.9324 282.318 91.7994 282.514 91.7014 282.738C91.6081 282.962 91.5614 283.195 91.5614 283.438C91.5614 283.676 91.6057 283.905 91.6944 284.124C91.7877 284.343 91.9137 284.539 92.0724 284.712C92.2357 284.885 92.4294 285.022 92.6534 285.125C92.8821 285.228 93.1317 285.279 93.4024 285.279C93.5471 285.279 93.6871 285.265 93.8224 285.237C93.9577 285.209 94.0791 285.176 94.1864 285.139C94.2984 285.102 94.3894 285.064 94.4594 285.027C94.5341 284.99 94.5784 284.962 94.5924 284.943L94.9144 285.636ZM96.8125 282.017V281.387H99.7525C99.5892 281.788 99.4305 282.183 99.2765 282.57C99.1225 282.957 98.9709 283.342 98.8215 283.725C98.6722 284.103 98.5229 284.481 98.3735 284.859C98.2242 285.237 98.0749 285.617 97.9255 286H97.1975C97.4355 285.389 97.6875 284.742 97.9535 284.061C98.2195 283.375 98.4855 282.694 98.7515 282.017H96.8125Z" fill="#C4C4C4"/>
<circle cx="94" cy="257" r="9.5" fill="#616161" stroke="#C4C4C4"/>
<path d="M94 249L100.928 253V261L94 265L87.0718 261V253L94 249Z" fill="#A5A5A5"/>
<circle cx="94" cy="257" r="5.5" fill="black" stroke="#E5E5E5"/>
<rect x="112" y="244" width="32" height="45" fill="#161616"/>
<path d="M125.334 285.636C125.278 285.678 125.199 285.725 125.096 285.776C124.998 285.823 124.882 285.867 124.746 285.909C124.611 285.951 124.459 285.986 124.291 286.014C124.128 286.042 123.953 286.056 123.766 286.056C123.37 286.056 123.013 285.988 122.695 285.853C122.383 285.713 122.117 285.526 121.897 285.293C121.678 285.06 121.51 284.789 121.393 284.481C121.277 284.173 121.218 283.846 121.218 283.501C121.218 283.118 121.286 282.766 121.421 282.444C121.561 282.122 121.75 281.844 121.988 281.611C122.226 281.378 122.504 281.196 122.821 281.065C123.143 280.934 123.484 280.869 123.843 280.869C123.979 280.869 124.116 280.878 124.256 280.897C124.396 280.916 124.527 280.941 124.648 280.974C124.774 281.007 124.884 281.046 124.977 281.093C125.075 281.135 125.15 281.179 125.201 281.226C125.164 281.282 125.134 281.329 125.11 281.366C125.092 281.403 125.071 281.443 125.047 281.485C125.024 281.522 124.998 281.567 124.97 281.618C124.942 281.669 124.905 281.737 124.858 281.821C124.798 281.779 124.725 281.744 124.641 281.716C124.562 281.688 124.478 281.665 124.389 281.646C124.301 281.627 124.21 281.613 124.116 281.604C124.028 281.595 123.946 281.59 123.871 281.59C123.601 281.59 123.349 281.641 123.115 281.744C122.887 281.842 122.688 281.977 122.52 282.15C122.352 282.318 122.219 282.514 122.121 282.738C122.028 282.962 121.981 283.195 121.981 283.438C121.981 283.676 122.026 283.905 122.114 284.124C122.208 284.343 122.334 284.539 122.492 284.712C122.656 284.885 122.849 285.022 123.073 285.125C123.302 285.228 123.552 285.279 123.822 285.279C123.967 285.279 124.107 285.265 124.242 285.237C124.378 285.209 124.499 285.176 124.606 285.139C124.718 285.102 124.809 285.064 124.879 285.027C124.954 284.99 124.998 284.962 125.012 284.943L125.334 285.636ZM129.661 285.636C129.605 285.678 129.526 285.725 129.423 285.776C129.325 285.823 129.209 285.867 129.073 285.909C128.938 285.951 128.786 285.986 128.618 286.014C128.455 286.042 128.28 286.056 128.093 286.056C127.697 286.056 127.34 285.988 127.022 285.853C126.71 285.713 126.444 285.526 126.224 285.293C126.005 285.06 125.837 284.789 125.72 284.481C125.604 284.173 125.545 283.846 125.545 283.501C125.545 283.118 125.613 282.766 125.748 282.444C125.888 282.122 126.077 281.844 126.315 281.611C126.553 281.378 126.831 281.196 127.148 281.065C127.47 280.934 127.811 280.869 128.17 280.869C128.306 280.869 128.443 280.878 128.583 280.897C128.723 280.916 128.854 280.941 128.975 280.974C129.101 281.007 129.211 281.046 129.304 281.093C129.402 281.135 129.477 281.179 129.528 281.226C129.491 281.282 129.461 281.329 129.437 281.366C129.419 281.403 129.398 281.443 129.374 281.485C129.351 281.522 129.325 281.567 129.297 281.618C129.269 281.669 129.232 281.737 129.185 281.821C129.125 281.779 129.052 281.744 128.968 281.716C128.889 281.688 128.805 281.665 128.716 281.646C128.628 281.627 128.537 281.613 128.443 281.604C128.355 281.595 128.273 281.59 128.198 281.59C127.928 281.59 127.676 281.641 127.442 281.744C127.214 281.842 127.015 281.977 126.847 282.15C126.679 282.318 126.546 282.514 126.448 282.738C126.355 282.962 126.308 283.195 126.308 283.438C126.308 283.676 126.353 283.905 126.441 284.124C126.535 284.343 126.661 284.539 126.819 284.712C126.983 284.885 127.176 285.022 127.4 285.125C127.629 285.228 127.879 285.279 128.149 285.279C128.294 285.279 128.434 285.265 128.569 285.237C128.705 285.209 128.826 285.176 128.933 285.139C129.045 285.102 129.136 285.064 129.206 285.027C129.281 284.99 129.325 284.962 129.339 284.943L129.661 285.636ZM132.687 282.479C132.687 282.549 132.701 282.614 132.729 282.675C132.761 282.731 132.801 282.782 132.848 282.829C132.899 282.871 132.955 282.906 133.016 282.934C133.081 282.957 133.149 282.969 133.219 282.969C133.284 282.969 133.347 282.957 133.408 282.934C133.473 282.906 133.529 282.871 133.576 282.829C133.622 282.782 133.66 282.731 133.688 282.675C133.716 282.614 133.73 282.549 133.73 282.479C133.73 282.409 133.716 282.344 133.688 282.283C133.66 282.218 133.622 282.162 133.576 282.115C133.529 282.064 133.475 282.024 133.415 281.996C133.354 281.968 133.289 281.954 133.219 281.954C133.079 281.954 132.955 282.008 132.848 282.115C132.74 282.218 132.687 282.339 132.687 282.479ZM132.302 284.509C132.302 284.635 132.325 284.754 132.372 284.866C132.418 284.978 132.481 285.076 132.561 285.16C132.64 285.244 132.733 285.312 132.841 285.363C132.953 285.41 133.069 285.433 133.191 285.433C133.317 285.433 133.436 285.41 133.548 285.363C133.66 285.312 133.758 285.244 133.842 285.16C133.93 285.076 133.998 284.978 134.045 284.866C134.096 284.754 134.122 284.635 134.122 284.509C134.122 284.383 134.098 284.266 134.052 284.159C134.005 284.047 133.94 283.951 133.856 283.872C133.776 283.788 133.683 283.723 133.576 283.676C133.468 283.625 133.352 283.597 133.226 283.592C133.1 283.592 132.981 283.615 132.869 283.662C132.757 283.709 132.659 283.774 132.575 283.858C132.491 283.937 132.423 284.033 132.372 284.145C132.325 284.257 132.302 284.378 132.302 284.509ZM131.644 284.537C131.644 284.364 131.665 284.208 131.707 284.068C131.749 283.928 131.805 283.804 131.875 283.697C131.949 283.585 132.033 283.489 132.127 283.41C132.225 283.331 132.325 283.268 132.428 283.221C132.292 283.128 132.197 283.018 132.141 282.892C132.089 282.761 132.064 282.635 132.064 282.514C132.064 282.341 132.092 282.183 132.148 282.038C132.208 281.893 132.29 281.77 132.393 281.667C132.495 281.56 132.614 281.478 132.75 281.422C132.89 281.361 133.039 281.331 133.198 281.331C133.356 281.331 133.503 281.361 133.639 281.422C133.779 281.478 133.9 281.56 134.003 281.667C134.105 281.77 134.187 281.893 134.248 282.038C134.308 282.183 134.339 282.339 134.339 282.507C134.339 282.628 134.311 282.754 134.255 282.885C134.199 283.011 134.103 283.123 133.968 283.221C134.07 283.272 134.168 283.338 134.262 283.417C134.36 283.496 134.446 283.592 134.521 283.704C134.595 283.811 134.654 283.935 134.696 284.075C134.738 284.215 134.759 284.369 134.759 284.537C134.759 284.738 134.721 284.931 134.647 285.118C134.572 285.3 134.465 285.461 134.325 285.601C134.189 285.741 134.026 285.853 133.835 285.937C133.643 286.016 133.429 286.056 133.191 286.056C132.953 286.056 132.738 286.016 132.547 285.937C132.36 285.853 132.199 285.741 132.064 285.601C131.928 285.461 131.823 285.3 131.749 285.118C131.679 284.931 131.644 284.738 131.644 284.537Z" fill="#C4C4C4"/>
<circle cx="129" cy="257" r="9.5" fill="#616161" stroke="#C4C4C4"/>
<path d="M129 249L135.928 253V261L129 265L122.072 261V253L129 249Z" fill="#A5A5A5"/>
<circle cx="129" cy="257" r="5.5" fill="black" stroke="#E5E5E5"/>
<rect x="42" y="303" width="32" height="45" fill="#161616"/>
<path d="M53.889 342.571V344.699C53.693 344.811 53.4597 344.9 53.189 344.965C52.9183 345.026 52.643 345.056 52.363 345.056C51.9617 345.056 51.6 344.993 51.278 344.867C50.9607 344.741 50.6877 344.568 50.459 344.349C50.2303 344.125 50.0553 343.861 49.934 343.558C49.8127 343.255 49.752 342.923 49.752 342.564C49.752 342.167 49.822 341.806 49.962 341.479C50.1067 341.148 50.3003 340.863 50.543 340.625C50.7903 340.387 51.0727 340.203 51.39 340.072C51.712 339.937 52.0527 339.869 52.412 339.869C52.6547 339.869 52.909 339.902 53.175 339.967C53.441 340.028 53.672 340.116 53.868 340.233L53.497 340.856C53.427 340.814 53.3453 340.777 53.252 340.744C53.1633 340.711 53.07 340.683 52.972 340.66C52.874 340.637 52.776 340.62 52.678 340.611C52.58 340.597 52.4867 340.59 52.398 340.59C52.1507 340.59 51.9127 340.639 51.684 340.737C51.4553 340.835 51.2547 340.97 51.082 341.143C50.9093 341.316 50.7717 341.519 50.669 341.752C50.5663 341.985 50.515 342.237 50.515 342.508C50.515 342.755 50.5593 342.989 50.648 343.208C50.7413 343.427 50.8697 343.621 51.033 343.789C51.1963 343.957 51.3923 344.09 51.621 344.188C51.8497 344.286 52.1017 344.335 52.377 344.335C52.4843 344.335 52.6103 344.326 52.755 344.307C52.9043 344.284 53.0467 344.246 53.182 344.195V343.229H52.195V342.571H53.889ZM58.037 345C58.0137 344.949 57.981 344.874 57.939 344.776C57.897 344.678 57.848 344.566 57.792 344.44C57.7407 344.309 57.6823 344.169 57.617 344.02C57.5563 343.866 57.4933 343.707 57.428 343.544H55.636L55.034 345H54.278L56.539 339.687C56.567 339.752 56.616 339.871 56.686 340.044C56.7607 340.217 56.847 340.424 56.945 340.667C57.0477 340.905 57.1597 341.171 57.281 341.465C57.407 341.754 57.533 342.048 57.659 342.347C57.7897 342.646 57.9157 342.94 58.037 343.229C58.163 343.518 58.2773 343.784 58.38 344.027C58.4827 344.27 58.569 344.477 58.639 344.65C58.7137 344.818 58.765 344.935 58.793 345H58.037ZM55.902 342.9H57.169C57.1037 342.746 57.0407 342.599 56.98 342.459C56.924 342.314 56.8703 342.184 56.819 342.067C56.7723 341.946 56.7303 341.841 56.693 341.752C56.6557 341.663 56.6277 341.593 56.609 341.542C56.6043 341.533 56.5927 341.5 56.574 341.444C56.56 341.388 56.5483 341.337 56.539 341.29C56.5297 341.337 56.5157 341.388 56.497 341.444C56.4783 341.5 56.4667 341.533 56.462 341.542L55.902 342.9ZM61.9222 339.925V340.653H60.6412V345H59.8782V340.653H58.6252V339.925H61.9222ZM62.8237 345V339.925H66.1557V340.618H63.5937V342.102H65.8757V342.809H63.5937V344.293H66.2537V345H62.8237Z" fill="#C4C4C4"/>
<circle cx="59" cy="316" r="9.5" fill="#616161" stroke="#C4C4C4"/>
<path d="M59 308L65.9282 312V320L59 324L52.0718 320V312L59 308Z" fill="#A5A5A5"/>
<circle cx="59" cy="316" r="5.5" fill="black" stroke="#E5E5E5"/>
<rect x="77" y="303" width="32" height="45" fill="#161616"/>
<path d="M84.5517 339.925C84.5844 340.004 84.6381 340.135 84.7127 340.317C84.7874 340.494 84.8714 340.697 84.9647 340.926C85.0627 341.155 85.1631 341.397 85.2657 341.654C85.3731 341.911 85.4734 342.153 85.5667 342.382C85.6601 342.611 85.7441 342.816 85.8187 342.998C85.8934 343.175 85.9471 343.304 85.9797 343.383C85.9844 343.392 85.9961 343.425 86.0147 343.481C86.0334 343.537 86.0474 343.586 86.0567 343.628L86.1267 343.383C86.1594 343.304 86.2131 343.175 86.2877 342.998C86.3624 342.816 86.4464 342.611 86.5397 342.382C86.6331 342.153 86.7311 341.911 86.8337 341.654C86.9411 341.397 87.0414 341.155 87.1347 340.926C87.2327 340.697 87.3191 340.494 87.3937 340.317C87.4684 340.135 87.5221 340.004 87.5547 339.925H88.3107C88.2827 339.99 88.2314 340.109 88.1567 340.282C88.0867 340.45 88.0004 340.655 87.8977 340.898C87.7951 341.141 87.6807 341.407 87.5547 341.696C87.4334 341.985 87.3074 342.279 87.1767 342.578C87.0507 342.877 86.9247 343.171 86.7987 343.46C86.6774 343.749 86.5654 344.015 86.4627 344.258C86.3647 344.501 86.2784 344.708 86.2037 344.881C86.1337 345.049 86.0847 345.166 86.0567 345.231L83.7957 339.925H84.5517ZM88.9506 345V339.925H92.2826V340.618H89.7206V342.102H92.0026V342.809H89.7206V344.293H92.3806V345H88.9506ZM93.2709 345V339.925H94.0409V344.272H96.5609V345H93.2709ZM96.7626 342.466C96.7626 342.116 96.8302 341.785 96.9656 341.472C97.1009 341.155 97.2852 340.877 97.5186 340.639C97.7566 340.401 98.0319 340.214 98.3446 340.079C98.6572 339.939 98.9932 339.869 99.3526 339.869C99.7072 339.869 100.041 339.939 100.354 340.079C100.671 340.214 100.946 340.401 101.18 340.639C101.418 340.877 101.604 341.155 101.74 341.472C101.88 341.785 101.95 342.116 101.95 342.466C101.95 342.825 101.88 343.161 101.74 343.474C101.604 343.787 101.418 344.062 101.18 344.3C100.946 344.533 100.671 344.718 100.354 344.853C100.041 344.988 99.7072 345.056 99.3526 345.056C98.9932 345.056 98.6572 344.988 98.3446 344.853C98.0319 344.718 97.7566 344.533 97.5186 344.3C97.2852 344.062 97.1009 343.787 96.9656 343.474C96.8302 343.161 96.7626 342.825 96.7626 342.466ZM97.5256 342.473C97.5256 342.73 97.5722 342.972 97.6656 343.201C97.7636 343.425 97.8966 343.621 98.0646 343.789C98.2326 343.957 98.4286 344.09 98.6526 344.188C98.8766 344.286 99.1146 344.335 99.3666 344.335C99.6186 344.335 99.8542 344.286 100.074 344.188C100.298 344.09 100.491 343.957 100.655 343.789C100.823 343.621 100.953 343.425 101.047 343.201C101.145 342.972 101.194 342.727 101.194 342.466C101.194 342.209 101.145 341.969 101.047 341.745C100.953 341.516 100.823 341.318 100.655 341.15C100.487 340.982 100.291 340.849 100.067 340.751C99.8472 340.653 99.6116 340.604 99.3596 340.604C99.1076 340.604 98.8696 340.653 98.6456 340.751C98.4216 340.849 98.2256 340.982 98.0576 341.15C97.8942 341.318 97.7636 341.516 97.6656 341.745C97.5722 341.974 97.5256 342.216 97.5256 342.473Z" fill="#C4C4C4"/>
<circle cx="94" cy="316" r="9.5" fill="#616161" stroke="#C4C4C4"/>
<path d="M94 308L100.928 312V320L94 324L87.0718 320V312L94 308Z" fill="#A5A5A5"/>
<circle cx="94" cy="316" r="5.5" fill="black" stroke="#E5E5E5"/>
<rect x="112" y="303" width="32" height="45" fill="#161616"/>
<path d="M119.607 342.466H120.3C120.487 342.466 120.643 342.433 120.769 342.368C120.895 342.303 120.993 342.223 121.063 342.13C121.138 342.037 121.189 341.936 121.217 341.829C121.25 341.722 121.266 341.626 121.266 341.542C121.266 341.453 121.25 341.358 121.217 341.255C121.189 341.148 121.138 341.05 121.063 340.961C120.989 340.868 120.888 340.791 120.762 340.73C120.641 340.669 120.489 340.639 120.307 340.639H119.607V342.466ZM118.837 345V339.925H120.223C120.489 339.925 120.732 339.96 120.951 340.03C121.175 340.1 121.367 340.205 121.525 340.345C121.689 340.48 121.815 340.648 121.903 340.849C121.992 341.045 122.036 341.271 122.036 341.528C122.036 341.729 122.006 341.929 121.945 342.13C121.885 342.326 121.787 342.503 121.651 342.662C121.516 342.816 121.339 342.942 121.119 343.04C120.9 343.138 120.634 343.187 120.321 343.187H119.607V345H118.837ZM122.877 339.925H123.64V345H122.877V339.925ZM127.841 339.925V340.653H126.56V345H125.797V340.653H124.544V339.925H127.841ZM132.392 344.636C132.336 344.678 132.257 344.725 132.154 344.776C132.056 344.823 131.94 344.867 131.804 344.909C131.669 344.951 131.517 344.986 131.349 345.014C131.186 345.042 131.011 345.056 130.824 345.056C130.428 345.056 130.071 344.988 129.753 344.853C129.441 344.713 129.175 344.526 128.955 344.293C128.736 344.06 128.568 343.789 128.451 343.481C128.335 343.173 128.276 342.846 128.276 342.501C128.276 342.118 128.344 341.766 128.479 341.444C128.619 341.122 128.808 340.844 129.046 340.611C129.284 340.378 129.562 340.196 129.879 340.065C130.201 339.934 130.542 339.869 130.901 339.869C131.037 339.869 131.174 339.878 131.314 339.897C131.454 339.916 131.585 339.941 131.706 339.974C131.832 340.007 131.942 340.046 132.035 340.093C132.133 340.135 132.208 340.179 132.259 340.226C132.222 340.282 132.192 340.329 132.168 340.366C132.15 340.403 132.129 340.443 132.105 340.485C132.082 340.522 132.056 340.567 132.028 340.618C132 340.669 131.963 340.737 131.916 340.821C131.856 340.779 131.783 340.744 131.699 340.716C131.62 340.688 131.536 340.665 131.447 340.646C131.359 340.627 131.268 340.613 131.174 340.604C131.086 340.595 131.004 340.59 130.929 340.59C130.659 340.59 130.407 340.641 130.173 340.744C129.945 340.842 129.746 340.977 129.578 341.15C129.41 341.318 129.277 341.514 129.179 341.738C129.086 341.962 129.039 342.195 129.039 342.438C129.039 342.676 129.084 342.905 129.172 343.124C129.266 343.343 129.392 343.539 129.55 343.712C129.714 343.885 129.907 344.022 130.131 344.125C130.36 344.228 130.61 344.279 130.88 344.279C131.025 344.279 131.165 344.265 131.3 344.237C131.436 344.209 131.557 344.176 131.664 344.139C131.776 344.102 131.867 344.064 131.937 344.027C132.012 343.99 132.056 343.962 132.07 343.943L132.392 344.636ZM133.09 345V339.925H133.853V342.081H136.394V339.925H137.164C137.164 339.986 137.164 340.1 137.164 340.268C137.164 340.431 137.164 340.627 137.164 340.856C137.164 341.085 137.164 341.339 137.164 341.619C137.164 341.894 137.162 342.177 137.157 342.466C137.157 342.751 137.157 343.033 137.157 343.313C137.157 343.588 137.157 343.84 137.157 344.069C137.157 344.298 137.157 344.496 137.157 344.664C137.157 344.827 137.157 344.939 137.157 345H136.394V342.809H133.853V345H133.09Z" fill="#C4C4C4"/>
<circle cx="129" cy="316" r="9.5" fill="#616161" stroke="#C4C4C4"/>
<path d="M129 308L135.928 312V320L129 324L122.072 320V312L129 308Z" fill="#A5A5A5"/>
<circle cx="129" cy="316" r="5.5" fill="black" stroke="#E5E5E5"/>
</svg>
