<svg width="153" height="386" viewBox="0 0 153 386" fill="none" xmlns="http://www.w3.org/2000/svg">
<rect x="0.5" y="0.5" width="151.4" height="384.5" fill="#333333" stroke="#222222"/>
<path d="M61.9394 82.925C61.9721 83.0043 62.0258 83.135 62.1004 83.317C62.1751 83.4943 62.2591 83.6973 62.3524 83.926C62.4504 84.1547 62.5508 84.3973 62.6534 84.654C62.7608 84.9107 62.8611 85.1533 62.9544 85.382C63.0478 85.6107 63.1318 85.816 63.2064 85.998C63.2811 86.1753 63.3348 86.3037 63.3674 86.383C63.3721 86.3923 63.3838 86.425 63.4024 86.481C63.4211 86.537 63.4351 86.586 63.4444 86.628L63.5144 86.383C63.5471 86.3037 63.6008 86.1753 63.6754 85.998C63.7501 85.816 63.8341 85.6107 63.9274 85.382C64.0208 85.1533 64.1188 84.9107 64.2214 84.654C64.3288 84.3973 64.4291 84.1547 64.5224 83.926C64.6204 83.6973 64.7068 83.4943 64.7814 83.317C64.8561 83.135 64.9098 83.0043 64.9424 82.925H65.6984C65.6704 82.9903 65.6191 83.1093 65.5444 83.282C65.4744 83.45 65.3881 83.6553 65.2854 83.898C65.1828 84.1407 65.0684 84.4067 64.9424 84.696C64.8211 84.9853 64.6951 85.2793 64.5644 85.578C64.4384 85.8767 64.3124 86.1707 64.1864 86.46C64.0651 86.7493 63.9531 87.0153 63.8504 87.258C63.7524 87.5007 63.6661 87.7083 63.5914 87.881C63.5214 88.049 63.4724 88.1657 63.4444 88.231L61.1834 82.925H61.9394ZM65.7831 85.466C65.7831 85.116 65.8508 84.7847 65.9861 84.472C66.1214 84.1547 66.3058 83.877 66.5391 83.639C66.7771 83.401 67.0524 83.2143 67.3651 83.079C67.6778 82.939 68.0138 82.869 68.3731 82.869C68.7278 82.869 69.0614 82.939 69.3741 83.079C69.6914 83.2143 69.9668 83.401 70.2001 83.639C70.4381 83.877 70.6248 84.1547 70.7601 84.472C70.9001 84.7847 70.9701 85.116 70.9701 85.466C70.9701 85.8253 70.9001 86.1613 70.7601 86.474C70.6248 86.7867 70.4381 87.062 70.2001 87.3C69.9668 87.5333 69.6914 87.7177 69.3741 87.853C69.0614 87.9883 68.7278 88.056 68.3731 88.056C68.0138 88.056 67.6778 87.9883 67.3651 87.853C67.0524 87.7177 66.7771 87.5333 66.5391 87.3C66.3058 87.062 66.1214 86.7867 65.9861 86.474C65.8508 86.1613 65.7831 85.8253 65.7831 85.466ZM66.5461 85.473C66.5461 85.7297 66.5928 85.9723 66.6861 86.201C66.7841 86.425 66.9171 86.621 67.0851 86.789C67.2531 86.957 67.4491 87.09 67.6731 87.188C67.8971 87.286 68.1351 87.335 68.3871 87.335C68.6391 87.335 68.8748 87.286 69.0941 87.188C69.3181 87.09 69.5118 86.957 69.6751 86.789C69.8431 86.621 69.9738 86.425 70.0671 86.201C70.1651 85.9723 70.2141 85.7273 70.2141 85.466C70.2141 85.2093 70.1651 84.969 70.0671 84.745C69.9738 84.5163 69.8431 84.318 69.6751 84.15C69.5071 83.982 69.3111 83.849 69.0871 83.751C68.8678 83.653 68.6321 83.604 68.3801 83.604C68.1281 83.604 67.8901 83.653 67.6661 83.751C67.4421 83.849 67.2461 83.982 67.0781 84.15C66.9148 84.318 66.7841 84.5163 66.6861 84.745C66.5928 84.9737 66.5461 85.2163 66.5461 85.473ZM71.8618 88V82.925H72.6318V87.272H75.1518V88H71.8618ZM77.6753 88.056C77.4046 88.056 77.1526 88.0117 76.9193 87.923C76.6859 87.8343 76.4806 87.7107 76.3033 87.552C76.1306 87.3887 75.9929 87.195 75.8903 86.971C75.7923 86.7423 75.7433 86.488 75.7433 86.208V82.925H76.5133V86.187C76.5133 86.3503 76.5413 86.502 76.5973 86.642C76.6579 86.7773 76.7396 86.8987 76.8423 87.006C76.9496 87.1087 77.0733 87.1903 77.2133 87.251C77.3533 87.307 77.5073 87.335 77.6753 87.335C77.8386 87.335 77.9903 87.307 78.1303 87.251C78.2749 87.1903 78.3986 87.1087 78.5013 87.006C78.6086 86.8987 78.6926 86.7773 78.7533 86.642C78.8139 86.502 78.8443 86.3503 78.8443 86.187V82.925H79.6143V86.208C79.6143 86.488 79.5629 86.7423 79.4603 86.971C79.3623 87.195 79.2246 87.3887 79.0473 87.552C78.8746 87.7107 78.6693 87.8343 78.4313 87.923C78.1979 88.0117 77.9459 88.056 77.6753 88.056ZM80.8032 82.701C80.8452 82.7663 80.9315 82.8923 81.0622 83.079C81.1975 83.261 81.3515 83.4733 81.5242 83.716C81.7015 83.9587 81.8882 84.2177 82.0842 84.493C82.2802 84.7637 82.4645 85.0203 82.6372 85.263C82.8098 85.501 82.9592 85.7087 83.0852 85.886C83.2158 86.0633 83.3022 86.18 83.3442 86.236C83.3582 86.2127 83.4025 86.1497 83.4772 86.047C83.5518 85.9443 83.6428 85.816 83.7502 85.662C83.8622 85.508 83.9882 85.3353 84.1282 85.144C84.2682 84.948 84.4105 84.7497 84.5552 84.549C84.7045 84.3437 84.8492 84.1407 84.9892 83.94C85.1338 83.7393 85.2668 83.5573 85.3882 83.394C85.5095 83.226 85.6122 83.0813 85.6962 82.96C85.7848 82.834 85.8478 82.7477 85.8852 82.701V88H85.0732V85.158C85.0732 85.1207 85.0755 85.081 85.0802 85.039C85.0895 84.997 85.0942 84.9667 85.0942 84.948C85.0522 85.004 84.9845 85.0997 84.8912 85.235C84.8025 85.3657 84.6975 85.5173 84.5762 85.69C84.4595 85.858 84.3358 86.0377 84.2052 86.229C84.0745 86.4157 83.9508 86.593 83.8342 86.761C83.7175 86.929 83.6148 87.0783 83.5262 87.209C83.4375 87.335 83.3768 87.4237 83.3442 87.475C83.3115 87.433 83.2462 87.3467 83.1482 87.216C83.0548 87.0807 82.9428 86.9243 82.8122 86.747C82.6862 86.5697 82.5508 86.3807 82.4062 86.18C82.2662 85.9793 82.1355 85.7927 82.0142 85.62C81.8928 85.4473 81.7878 85.3003 81.6992 85.179C81.6105 85.053 81.5592 84.976 81.5452 84.948C81.5452 84.9667 81.5475 84.997 81.5522 85.039C81.5615 85.081 81.5662 85.1207 81.5662 85.158V88H80.8032V82.701ZM87.1333 88V82.925H90.4653V83.618H87.9033V85.102H90.1853V85.809H87.9033V87.293H90.5633V88H87.1333Z" fill="#C4C4C4"/>
<mask id="mask0" mask-type="alpha" maskUnits="userSpaceOnUse" x="55" y="38" width="42" height="42">
<circle cx="76" cy="59" r="21" fill="#C4C4C4"/>
</mask>
<g mask="url(#mask0)">
<line x1="52.6464" y1="82.6464" x2="99.4926" y2="35.8003" stroke="#C6C6C6"/>
<line x1="53.3566" y1="35.6495" x2="99.3951" y2="82.4957" stroke="#C6C6C6"/>
<line x1="52" y1="59.5" x2="100.462" y2="59.5" stroke="#C6C6C6"/>
<line x1="75.5" y1="57" x2="75.5" y2="33.5769" stroke="#C6C6C6"/>
</g>
<circle cx="76" cy="59" r="18" transform="rotate(-180 76 59)" fill="#222222"/>
<circle cx="76" cy="59" r="16" transform="rotate(-180 76 59)" fill="black"/>
<rect x="77" y="59" width="3" height="16" transform="rotate(-180 77 59)" fill="#E5E5E5"/>
<path d="M9.8813 292.925H10.6443V298H9.8813V292.925ZM16.3431 292.925V298.231C16.2777 298.147 16.1517 298.012 15.9651 297.825C15.7784 297.638 15.5637 297.424 15.3211 297.181C15.0784 296.938 14.8194 296.684 14.5441 296.418C14.2734 296.152 14.0167 295.9 13.7741 295.662C13.5314 295.419 13.3191 295.205 13.1371 295.018C12.9551 294.827 12.8337 294.691 12.7731 294.612L12.6401 294.43L12.6611 294.654V298H11.8911V292.687C11.9424 292.752 12.0264 292.846 12.1431 292.967C12.2644 293.088 12.4044 293.231 12.5631 293.394C12.7264 293.553 12.9037 293.725 13.0951 293.912C13.2911 294.099 13.4871 294.288 13.6831 294.479C13.8837 294.67 14.0797 294.859 14.2711 295.046C14.4671 295.228 14.6444 295.398 14.8031 295.557C14.9664 295.716 15.1064 295.856 15.2231 295.977C15.3397 296.098 15.4214 296.189 15.4681 296.25L15.6011 296.446L15.5801 296.208V292.925H16.3431ZM18.3622 295.466H19.0552C19.2419 295.466 19.3982 295.433 19.5242 295.368C19.6502 295.303 19.7482 295.223 19.8182 295.13C19.8929 295.037 19.9442 294.936 19.9722 294.829C20.0049 294.722 20.0212 294.626 20.0212 294.542C20.0212 294.453 20.0049 294.358 19.9722 294.255C19.9442 294.148 19.8929 294.05 19.8182 293.961C19.7436 293.868 19.6432 293.791 19.5172 293.73C19.3959 293.669 19.2442 293.639 19.0622 293.639H18.3622V295.466ZM17.5922 298V292.925H18.9782C19.2442 292.925 19.4869 292.96 19.7062 293.03C19.9302 293.1 20.1216 293.205 20.2802 293.345C20.4436 293.48 20.5696 293.648 20.6582 293.849C20.7469 294.045 20.7912 294.271 20.7912 294.528C20.7912 294.729 20.7609 294.929 20.7002 295.13C20.6396 295.326 20.5416 295.503 20.4062 295.662C20.2709 295.816 20.0936 295.942 19.8742 296.04C19.6549 296.138 19.3889 296.187 19.0762 296.187H18.3622V298H17.5922ZM23.5083 298.056C23.2376 298.056 22.9856 298.012 22.7523 297.923C22.5189 297.834 22.3136 297.711 22.1363 297.552C21.9636 297.389 21.8259 297.195 21.7233 296.971C21.6253 296.742 21.5763 296.488 21.5763 296.208V292.925H22.3463V296.187C22.3463 296.35 22.3743 296.502 22.4303 296.642C22.4909 296.777 22.5726 296.899 22.6753 297.006C22.7826 297.109 22.9063 297.19 23.0463 297.251C23.1863 297.307 23.3403 297.335 23.5083 297.335C23.6716 297.335 23.8233 297.307 23.9633 297.251C24.1079 297.19 24.2316 297.109 24.3343 297.006C24.4416 296.899 24.5256 296.777 24.5863 296.642C24.6469 296.502 24.6773 296.35 24.6773 296.187V292.925H25.4473V296.208C25.4473 296.488 25.3959 296.742 25.2933 296.971C25.1953 297.195 25.0576 297.389 24.8803 297.552C24.7076 297.711 24.5023 297.834 24.2643 297.923C24.0309 298.012 23.7789 298.056 23.5083 298.056ZM29.5902 292.925V293.653H28.3092V298H27.5462V293.653H26.2932V292.925H29.5902ZM32.3569 295.711C32.5109 295.431 32.6836 295.151 32.8749 294.871C33.0663 294.586 33.2366 294.302 33.3859 294.017H31.9649V293.387H34.4079C34.2446 293.667 34.0743 293.947 33.8969 294.227C33.7196 294.507 33.5493 294.787 33.3859 295.067C33.6846 295.188 33.9249 295.375 34.1069 295.627C34.2936 295.879 34.3869 296.173 34.3869 296.509C34.3869 296.719 34.3449 296.92 34.2609 297.111C34.1769 297.298 34.0626 297.461 33.9179 297.601C33.7779 297.741 33.6123 297.853 33.4209 297.937C33.2343 298.016 33.0359 298.056 32.8259 298.056C32.5973 298.056 32.3849 298.009 32.1889 297.916C31.9929 297.823 31.8226 297.701 31.6779 297.552L32.1469 297.111C32.2309 297.214 32.3289 297.293 32.4409 297.349C32.5576 297.405 32.6836 297.433 32.8189 297.433C32.9449 297.433 33.0639 297.41 33.1759 297.363C33.2879 297.312 33.3859 297.244 33.4699 297.16C33.5539 297.076 33.6193 296.978 33.6659 296.866C33.7173 296.754 33.7429 296.635 33.7429 296.509C33.7429 296.383 33.7173 296.266 33.6659 296.159C33.6193 296.047 33.5539 295.949 33.4699 295.865C33.3859 295.781 33.2879 295.716 33.1759 295.669C33.0639 295.622 32.9449 295.599 32.8189 295.599C32.6463 295.599 32.4923 295.636 32.3569 295.711ZM35.3657 298V292.925H36.1357V297.272H38.6557V298H35.3657Z" fill="#C4C4C4"/>
<circle cx="23" cy="269" r="9.5" fill="#616161" stroke="#C4C4C4"/>
<path d="M23 261L29.9282 265V273L23 277L16.0718 273V265L23 261Z" fill="#A5A5A5"/>
<circle cx="23" cy="269" r="5.5" fill="black" stroke="#E5E5E5"/>
<path d="M9.68306 347.925H10.4461V353H9.68306V347.925ZM16.1448 347.925V353.231C16.0795 353.147 15.9535 353.012 15.7668 352.825C15.5802 352.638 15.3655 352.424 15.1228 352.181C14.8802 351.938 14.6212 351.684 14.3458 351.418C14.0752 351.152 13.8185 350.9 13.5758 350.662C13.3332 350.419 13.1208 350.205 12.9388 350.018C12.7568 349.827 12.6355 349.691 12.5748 349.612L12.4418 349.43L12.4628 349.654V353H11.6928V347.687C11.7442 347.752 11.8282 347.846 11.9448 347.967C12.0662 348.088 12.2062 348.231 12.3648 348.394C12.5282 348.553 12.7055 348.725 12.8968 348.912C13.0928 349.099 13.2888 349.288 13.4848 349.479C13.6855 349.67 13.8815 349.859 14.0728 350.046C14.2688 350.228 14.4462 350.398 14.6048 350.557C14.7682 350.716 14.9082 350.856 15.0248 350.977C15.1415 351.098 15.2232 351.189 15.2698 351.25L15.4028 351.446L15.3818 351.208V347.925H16.1448ZM18.164 350.466H18.857C19.0437 350.466 19.2 350.433 19.326 350.368C19.452 350.303 19.55 350.223 19.62 350.13C19.6947 350.037 19.746 349.936 19.774 349.829C19.8067 349.722 19.823 349.626 19.823 349.542C19.823 349.453 19.8067 349.358 19.774 349.255C19.746 349.148 19.6947 349.05 19.62 348.961C19.5453 348.868 19.445 348.791 19.319 348.73C19.1977 348.669 19.046 348.639 18.864 348.639H18.164V350.466ZM17.394 353V347.925H18.78C19.046 347.925 19.2887 347.96 19.508 348.03C19.732 348.1 19.9233 348.205 20.082 348.345C20.2453 348.48 20.3713 348.648 20.46 348.849C20.5487 349.045 20.593 349.271 20.593 349.528C20.593 349.729 20.5627 349.929 20.502 350.13C20.4413 350.326 20.3433 350.503 20.208 350.662C20.0727 350.816 19.8953 350.942 19.676 351.04C19.4567 351.138 19.1907 351.187 18.878 351.187H18.164V353H17.394ZM23.31 353.056C23.0394 353.056 22.7874 353.012 22.554 352.923C22.3207 352.834 22.1154 352.711 21.938 352.552C21.7654 352.389 21.6277 352.195 21.525 351.971C21.427 351.742 21.378 351.488 21.378 351.208V347.925H22.148V351.187C22.148 351.35 22.176 351.502 22.232 351.642C22.2927 351.777 22.3744 351.899 22.477 352.006C22.5844 352.109 22.708 352.19 22.848 352.251C22.988 352.307 23.142 352.335 23.31 352.335C23.4734 352.335 23.625 352.307 23.765 352.251C23.9097 352.19 24.0334 352.109 24.136 352.006C24.2434 351.899 24.3274 351.777 24.388 351.642C24.4487 351.502 24.479 351.35 24.479 351.187V347.925H25.249V351.208C25.249 351.488 25.1977 351.742 25.095 351.971C24.997 352.195 24.8594 352.389 24.682 352.552C24.5094 352.711 24.304 352.834 24.066 352.923C23.8327 353.012 23.5807 353.056 23.31 353.056ZM29.3919 347.925V348.653H28.1109V353H27.3479V348.653H26.0949V347.925H29.3919ZM32.1587 350.711C32.3127 350.431 32.4854 350.151 32.6767 349.871C32.868 349.586 33.0384 349.302 33.1877 349.017H31.7667V348.387H34.2097C34.0464 348.667 33.876 348.947 33.6987 349.227C33.5214 349.507 33.351 349.787 33.1877 350.067C33.4864 350.188 33.7267 350.375 33.9087 350.627C34.0954 350.879 34.1887 351.173 34.1887 351.509C34.1887 351.719 34.1467 351.92 34.0627 352.111C33.9787 352.298 33.8644 352.461 33.7197 352.601C33.5797 352.741 33.414 352.853 33.2227 352.937C33.036 353.016 32.8377 353.056 32.6277 353.056C32.399 353.056 32.1867 353.009 31.9907 352.916C31.7947 352.823 31.6244 352.701 31.4797 352.552L31.9487 352.111C32.0327 352.214 32.1307 352.293 32.2427 352.349C32.3594 352.405 32.4854 352.433 32.6207 352.433C32.7467 352.433 32.8657 352.41 32.9777 352.363C33.0897 352.312 33.1877 352.244 33.2717 352.16C33.3557 352.076 33.421 351.978 33.4677 351.866C33.519 351.754 33.5447 351.635 33.5447 351.509C33.5447 351.383 33.519 351.266 33.4677 351.159C33.421 351.047 33.3557 350.949 33.2717 350.865C33.1877 350.781 33.0897 350.716 32.9777 350.669C32.8657 350.622 32.7467 350.599 32.6207 350.599C32.448 350.599 32.294 350.636 32.1587 350.711ZM35.1674 353V347.925H36.5534C36.8194 347.925 37.0621 347.96 37.2814 348.03C37.5054 348.1 37.6968 348.205 37.8554 348.345C38.0188 348.48 38.1448 348.648 38.2334 348.849C38.3221 349.045 38.3664 349.271 38.3664 349.528C38.3664 349.668 38.3524 349.808 38.3244 349.948C38.2964 350.083 38.2498 350.216 38.1844 350.347C38.1238 350.473 38.0444 350.592 37.9464 350.704C37.8484 350.811 37.7294 350.902 37.5894 350.977C37.7761 351.271 37.9791 351.598 38.1984 351.957C38.4178 352.312 38.6394 352.659 38.8634 353H37.9464C37.8531 352.855 37.7551 352.704 37.6524 352.545C37.5544 352.386 37.4541 352.23 37.3514 352.076C37.2534 351.917 37.1554 351.763 37.0574 351.614C36.9641 351.46 36.8754 351.318 36.7914 351.187H36.6514H35.9374V353H35.1674ZM35.9374 350.466H36.6304C36.8171 350.466 36.9734 350.436 37.0994 350.375C37.2254 350.31 37.3234 350.23 37.3934 350.137C37.4681 350.044 37.5194 349.943 37.5474 349.836C37.5801 349.729 37.5964 349.631 37.5964 349.542C37.5964 349.453 37.5801 349.358 37.5474 349.255C37.5194 349.148 37.4681 349.05 37.3934 348.961C37.3188 348.868 37.2184 348.791 37.0924 348.73C36.9711 348.669 36.8194 348.639 36.6374 348.639H35.9374V350.466Z" fill="#C4C4C4"/>
<circle cx="23" cy="324" r="9.5" fill="#616161" stroke="#C4C4C4"/>
<path d="M23 316L29.9282 320V328L23 332L16.0718 328V320L23 316Z" fill="#A5A5A5"/>
<circle cx="23" cy="324" r="5.5" fill="black" stroke="#E5E5E5"/>
<path d="M114.146 279.466H114.839C115.026 279.466 115.182 279.433 115.308 279.368C115.434 279.303 115.532 279.223 115.602 279.13C115.677 279.037 115.728 278.936 115.756 278.829C115.789 278.722 115.805 278.626 115.805 278.542C115.805 278.453 115.789 278.358 115.756 278.255C115.728 278.148 115.677 278.05 115.602 277.961C115.528 277.868 115.427 277.791 115.301 277.73C115.18 277.669 115.028 277.639 114.846 277.639H114.146V279.466ZM113.376 282V276.925H114.762C115.028 276.925 115.271 276.96 115.49 277.03C115.714 277.1 115.906 277.205 116.064 277.345C116.228 277.48 116.354 277.648 116.442 277.849C116.531 278.045 116.575 278.271 116.575 278.528C116.575 278.729 116.545 278.929 116.484 279.13C116.424 279.326 116.326 279.503 116.19 279.662C116.055 279.816 115.878 279.942 115.658 280.04C115.439 280.138 115.173 280.187 114.86 280.187H114.146V282H113.376ZM120.156 282C120.133 281.949 120.1 281.874 120.058 281.776C120.016 281.678 119.967 281.566 119.911 281.44C119.86 281.309 119.801 281.169 119.736 281.02C119.675 280.866 119.612 280.707 119.547 280.544H117.755L117.153 282H116.397L118.658 276.687C118.686 276.752 118.735 276.871 118.805 277.044C118.88 277.217 118.966 277.424 119.064 277.667C119.167 277.905 119.279 278.171 119.4 278.465C119.526 278.754 119.652 279.048 119.778 279.347C119.909 279.646 120.035 279.94 120.156 280.229C120.282 280.518 120.396 280.784 120.499 281.027C120.602 281.27 120.688 281.477 120.758 281.65C120.833 281.818 120.884 281.935 120.912 282H120.156ZM118.021 279.9H119.288C119.223 279.746 119.16 279.599 119.099 279.459C119.043 279.314 118.989 279.184 118.938 279.067C118.891 278.946 118.849 278.841 118.812 278.752C118.775 278.663 118.747 278.593 118.728 278.542C118.723 278.533 118.712 278.5 118.693 278.444C118.679 278.388 118.667 278.337 118.658 278.29C118.649 278.337 118.635 278.388 118.616 278.444C118.597 278.5 118.586 278.533 118.581 278.542L118.021 279.9ZM125.997 276.925V282.231C125.932 282.147 125.806 282.012 125.619 281.825C125.433 281.638 125.218 281.424 124.975 281.181C124.733 280.938 124.474 280.684 124.198 280.418C123.928 280.152 123.671 279.9 123.428 279.662C123.186 279.419 122.973 279.205 122.791 279.018C122.609 278.827 122.488 278.691 122.427 278.612L122.294 278.43L122.315 278.654V282H121.545V276.687C121.597 276.752 121.681 276.846 121.797 276.967C121.919 277.088 122.059 277.231 122.217 277.394C122.381 277.553 122.558 277.725 122.749 277.912C122.945 278.099 123.141 278.288 123.337 278.479C123.538 278.67 123.734 278.859 123.925 279.046C124.121 279.228 124.299 279.398 124.457 279.557C124.621 279.716 124.761 279.856 124.877 279.977C124.994 280.098 125.076 280.189 125.122 280.25L125.255 280.446L125.234 280.208V276.925H125.997ZM132.626 281.636C132.57 281.678 132.49 281.725 132.388 281.776C132.29 281.823 132.173 281.867 132.038 281.909C131.902 281.951 131.751 281.986 131.583 282.014C131.419 282.042 131.244 282.056 131.058 282.056C130.661 282.056 130.304 281.988 129.987 281.853C129.674 281.713 129.408 281.526 129.189 281.293C128.969 281.06 128.801 280.789 128.685 280.481C128.568 280.173 128.51 279.846 128.51 279.501C128.51 279.118 128.577 278.766 128.713 278.444C128.853 278.122 129.042 277.844 129.28 277.611C129.518 277.378 129.795 277.196 130.113 277.065C130.435 276.934 130.775 276.869 131.135 276.869C131.27 276.869 131.408 276.878 131.548 276.897C131.688 276.916 131.818 276.941 131.94 276.974C132.066 277.007 132.175 277.046 132.269 277.093C132.367 277.135 132.441 277.179 132.493 277.226C132.455 277.282 132.425 277.329 132.402 277.366C132.383 277.403 132.362 277.443 132.339 277.485C132.315 277.522 132.29 277.567 132.262 277.618C132.234 277.669 132.196 277.737 132.15 277.821C132.089 277.779 132.017 277.744 131.933 277.716C131.853 277.688 131.769 277.665 131.681 277.646C131.592 277.627 131.501 277.613 131.408 277.604C131.319 277.595 131.237 277.59 131.163 277.59C130.892 277.59 130.64 277.641 130.407 277.744C130.178 277.842 129.98 277.977 129.812 278.15C129.644 278.318 129.511 278.514 129.413 278.738C129.319 278.962 129.273 279.195 129.273 279.438C129.273 279.676 129.317 279.905 129.406 280.124C129.499 280.343 129.625 280.539 129.784 280.712C129.947 280.885 130.141 281.022 130.365 281.125C130.593 281.228 130.843 281.279 131.114 281.279C131.258 281.279 131.398 281.265 131.534 281.237C131.669 281.209 131.79 281.176 131.898 281.139C132.01 281.102 132.101 281.064 132.171 281.027C132.245 280.99 132.29 280.962 132.304 280.943L132.626 281.636ZM133.471 276.925C133.503 277.004 133.557 277.135 133.632 277.317C133.706 277.494 133.79 277.697 133.884 277.926C133.982 278.155 134.082 278.397 134.185 278.654C134.292 278.911 134.392 279.153 134.486 279.382C134.579 279.611 134.663 279.816 134.738 279.998C134.812 280.175 134.866 280.304 134.899 280.383C134.903 280.392 134.915 280.425 134.934 280.481C134.952 280.537 134.966 280.586 134.976 280.628L135.046 280.383C135.078 280.304 135.132 280.175 135.207 279.998C135.281 279.816 135.365 279.611 135.459 279.382C135.552 279.153 135.65 278.911 135.753 278.654C135.86 278.397 135.96 278.155 136.054 277.926C136.152 277.697 136.238 277.494 136.313 277.317C136.387 277.135 136.441 277.004 136.474 276.925H137.23C137.202 276.99 137.15 277.109 137.076 277.282C137.006 277.45 136.919 277.655 136.817 277.898C136.714 278.141 136.6 278.407 136.474 278.696C136.352 278.985 136.226 279.279 136.096 279.578C135.97 279.877 135.844 280.171 135.718 280.46C135.596 280.749 135.484 281.015 135.382 281.258C135.284 281.501 135.197 281.708 135.123 281.881C135.053 282.049 135.004 282.166 134.976 282.231L132.715 276.925H133.471Z" fill="#C4C4C4"/>
<circle cx="124" cy="253" r="9.5" fill="#616161" stroke="#C4C4C4"/>
<path d="M124 245L130.928 249V257L124 261L117.072 257V249L124 245Z" fill="#A5A5A5"/>
<circle cx="124" cy="253" r="5.5" fill="black" stroke="#E5E5E5"/>
<path d="M61.9764 376V371.65H63.1644C63.3924 371.65 63.6004 371.68 63.7884 371.74C63.9804 371.8 64.1444 371.89 64.2804 372.01C64.4204 372.126 64.5284 372.27 64.6044 372.442C64.6804 372.61 64.7184 372.804 64.7184 373.024C64.7184 373.144 64.7064 373.264 64.6824 373.384C64.6584 373.5 64.6184 373.614 64.5624 373.726C64.5104 373.834 64.4424 373.936 64.3584 374.032C64.2744 374.124 64.1724 374.202 64.0524 374.266C64.2124 374.518 64.3864 374.798 64.5744 375.106C64.7624 375.41 64.9524 375.708 65.1444 376H64.3584C64.2784 375.876 64.1944 375.746 64.1064 375.61C64.0224 375.474 63.9364 375.34 63.8484 375.208C63.7644 375.072 63.6804 374.94 63.5964 374.812C63.5164 374.68 63.4404 374.558 63.3684 374.446H63.2484H62.6364V376H61.9764ZM62.6364 373.828H63.2304C63.3904 373.828 63.5244 373.802 63.6324 373.75C63.7404 373.694 63.8244 373.626 63.8844 373.546C63.9484 373.466 63.9924 373.38 64.0164 373.288C64.0444 373.196 64.0584 373.112 64.0584 373.036C64.0584 372.96 64.0444 372.878 64.0164 372.79C63.9924 372.698 63.9484 372.614 63.8844 372.538C63.8204 372.458 63.7344 372.392 63.6264 372.34C63.5224 372.288 63.3924 372.262 63.2364 372.262H62.6364V373.828ZM68.438 376C68.418 375.956 68.39 375.892 68.354 375.808C68.318 375.724 68.276 375.628 68.228 375.52C68.184 375.408 68.134 375.288 68.078 375.16C68.026 375.028 67.972 374.892 67.916 374.752H66.38L65.864 376H65.216L67.154 371.446C67.178 371.502 67.22 371.604 67.28 371.752C67.344 371.9 67.418 372.078 67.502 372.286C67.59 372.49 67.686 372.718 67.79 372.97C67.898 373.218 68.006 373.47 68.114 373.726C68.226 373.982 68.334 374.234 68.438 374.482C68.546 374.73 68.644 374.958 68.732 375.166C68.82 375.374 68.894 375.552 68.954 375.7C69.018 375.844 69.062 375.944 69.086 376H68.438ZM66.608 374.2H67.694C67.638 374.068 67.584 373.942 67.532 373.822C67.484 373.698 67.438 373.586 67.394 373.486C67.354 373.382 67.318 373.292 67.286 373.216C67.254 373.14 67.23 373.08 67.214 373.036C67.21 373.028 67.2 373 67.184 372.952C67.172 372.904 67.162 372.86 67.154 372.82C67.146 372.86 67.134 372.904 67.118 372.952C67.102 373 67.092 373.028 67.088 373.036L66.608 374.2ZM72.6927 375.688C72.6447 375.724 72.5767 375.764 72.4887 375.808C72.4047 375.848 72.3047 375.886 72.1887 375.922C72.0727 375.958 71.9427 375.988 71.7987 376.012C71.6587 376.036 71.5087 376.048 71.3487 376.048C71.0087 376.048 70.7027 375.99 70.4307 375.874C70.1627 375.754 69.9347 375.594 69.7467 375.394C69.5587 375.194 69.4147 374.962 69.3147 374.698C69.2147 374.434 69.1647 374.154 69.1647 373.858C69.1647 373.53 69.2227 373.228 69.3387 372.952C69.4587 372.676 69.6207 372.438 69.8247 372.238C70.0287 372.038 70.2667 371.882 70.5387 371.77C70.8147 371.658 71.1067 371.602 71.4147 371.602C71.5307 371.602 71.6487 371.61 71.7687 371.626C71.8887 371.642 72.0007 371.664 72.1047 371.692C72.2127 371.72 72.3067 371.754 72.3867 371.794C72.4707 371.83 72.5347 371.868 72.5787 371.908C72.5467 371.956 72.5207 371.996 72.5007 372.028C72.4847 372.06 72.4667 372.094 72.4467 372.13C72.4267 372.162 72.4047 372.2 72.3807 372.244C72.3567 372.288 72.3247 372.346 72.2847 372.418C72.2327 372.382 72.1707 372.352 72.0987 372.328C72.0307 372.304 71.9587 372.284 71.8827 372.268C71.8067 372.252 71.7287 372.24 71.6487 372.232C71.5727 372.224 71.5027 372.22 71.4387 372.22C71.2067 372.22 70.9907 372.264 70.7907 372.352C70.5947 372.436 70.4247 372.552 70.2807 372.7C70.1367 372.844 70.0227 373.012 69.9387 373.204C69.8587 373.396 69.8187 373.596 69.8187 373.804C69.8187 374.008 69.8567 374.204 69.9327 374.392C70.0127 374.58 70.1207 374.748 70.2567 374.896C70.3967 375.044 70.5627 375.162 70.7547 375.25C70.9507 375.338 71.1647 375.382 71.3967 375.382C71.5207 375.382 71.6407 375.37 71.7567 375.346C71.8727 375.322 71.9767 375.294 72.0687 375.262C72.1647 375.23 72.2427 375.198 72.3027 375.166C72.3667 375.134 72.4047 375.11 72.4167 375.094L72.6927 375.688ZM75.8708 376C75.7308 375.82 75.5968 375.648 75.4688 375.484C75.3408 375.32 75.2148 375.156 75.0908 374.992C74.9668 374.828 74.8408 374.662 74.7128 374.494C74.5888 374.326 74.4568 374.152 74.3168 373.972C74.2648 374.028 74.2148 374.08 74.1668 374.128C74.1188 374.172 74.0668 374.218 74.0108 374.266C74.0108 374.574 74.0108 374.864 74.0108 375.136C74.0148 375.404 74.0168 375.692 74.0168 376H73.2908V371.65H74.0168V373.276C74.0168 373.312 74.0128 373.348 74.0048 373.384C74.0008 373.416 73.9988 373.45 73.9988 373.486C74.0188 373.458 74.0388 373.434 74.0588 373.414C74.0788 373.39 74.0988 373.362 74.1188 373.33C74.4028 373.062 74.6768 372.784 74.9408 372.496C75.2048 372.204 75.4788 371.922 75.7628 371.65H76.5968C76.2968 371.962 75.9988 372.276 75.7028 372.592C75.4108 372.908 75.1148 373.222 74.8148 373.534C74.9828 373.75 75.1428 373.96 75.2948 374.164C75.4508 374.364 75.6028 374.564 75.7508 374.764C75.9028 374.964 76.0548 375.166 76.2068 375.37C76.3588 375.574 76.5168 375.784 76.6808 376H75.8708ZM77.1756 376V371.65H77.8356V375.376H79.9956V376H77.1756ZM80.6033 376V371.65H83.4593V372.244H81.2633V373.516H83.2193V374.122H81.2633V375.394H83.5433V376H80.6033ZM86.7965 371.89L86.5625 372.424C86.3985 372.364 86.2345 372.316 86.0705 372.28C85.9105 372.244 85.7565 372.226 85.6085 372.226C85.3565 372.226 85.1545 372.278 85.0025 372.382C84.8545 372.486 84.7805 372.618 84.7805 372.778C84.7805 372.914 84.8345 373.024 84.9425 373.108C85.0505 373.188 85.1845 373.262 85.3445 373.33C85.5045 373.394 85.6785 373.46 85.8665 373.528C86.0545 373.592 86.2285 373.676 86.3885 373.78C86.5485 373.884 86.6825 374.016 86.7905 374.176C86.8985 374.332 86.9525 374.534 86.9525 374.782C86.9525 374.974 86.9165 375.148 86.8445 375.304C86.7765 375.456 86.6725 375.588 86.5325 375.7C86.3965 375.812 86.2245 375.898 86.0165 375.958C85.8125 376.018 85.5725 376.048 85.2965 376.048C85.1205 376.048 84.9605 376.036 84.8165 376.012C84.6765 375.988 84.5485 375.958 84.4325 375.922C84.3205 375.882 84.2205 375.84 84.1325 375.796C84.0485 375.752 83.9765 375.712 83.9165 375.676L84.2045 375.106C84.3645 375.198 84.5425 375.272 84.7385 375.328C84.9345 375.384 85.1125 375.412 85.2725 375.412C85.3525 375.412 85.4505 375.402 85.5665 375.382C85.6865 375.362 85.8005 375.328 85.9085 375.28C86.0165 375.228 86.1085 375.16 86.1845 375.076C86.2645 374.992 86.3045 374.886 86.3045 374.758C86.3045 374.642 86.2725 374.544 86.2085 374.464C86.1485 374.38 86.0665 374.308 85.9625 374.248C85.8625 374.184 85.7465 374.128 85.6145 374.08C85.4865 374.028 85.3545 373.976 85.2185 373.924C85.0825 373.868 84.9485 373.81 84.8165 373.75C84.6885 373.69 84.5725 373.618 84.4685 373.534C84.3685 373.446 84.2865 373.346 84.2225 373.234C84.1625 373.118 84.1325 372.98 84.1325 372.82C84.1325 372.672 84.1625 372.526 84.2225 372.382C84.2825 372.238 84.3725 372.11 84.4925 371.998C84.6125 371.886 84.7605 371.796 84.9365 371.728C85.1165 371.66 85.3245 371.626 85.5605 371.626C85.7045 371.626 85.8445 371.638 85.9805 371.662C86.1205 371.686 86.2465 371.714 86.3585 371.746C86.4705 371.774 86.5645 371.802 86.6405 371.83C86.7205 371.858 86.7725 371.878 86.7965 371.89ZM90.189 371.89L89.955 372.424C89.791 372.364 89.627 372.316 89.463 372.28C89.303 372.244 89.149 372.226 89.001 372.226C88.749 372.226 88.547 372.278 88.395 372.382C88.247 372.486 88.173 372.618 88.173 372.778C88.173 372.914 88.227 373.024 88.335 373.108C88.443 373.188 88.577 373.262 88.737 373.33C88.897 373.394 89.071 373.46 89.259 373.528C89.447 373.592 89.621 373.676 89.781 373.78C89.941 373.884 90.075 374.016 90.183 374.176C90.291 374.332 90.345 374.534 90.345 374.782C90.345 374.974 90.309 375.148 90.237 375.304C90.169 375.456 90.065 375.588 89.925 375.7C89.789 375.812 89.617 375.898 89.409 375.958C89.205 376.018 88.965 376.048 88.689 376.048C88.513 376.048 88.353 376.036 88.209 376.012C88.069 375.988 87.941 375.958 87.825 375.922C87.713 375.882 87.613 375.84 87.525 375.796C87.441 375.752 87.369 375.712 87.309 375.676L87.597 375.106C87.757 375.198 87.935 375.272 88.131 375.328C88.327 375.384 88.505 375.412 88.665 375.412C88.745 375.412 88.843 375.402 88.959 375.382C89.079 375.362 89.193 375.328 89.301 375.28C89.409 375.228 89.501 375.16 89.577 375.076C89.657 374.992 89.697 374.886 89.697 374.758C89.697 374.642 89.665 374.544 89.601 374.464C89.541 374.38 89.459 374.308 89.355 374.248C89.255 374.184 89.139 374.128 89.007 374.08C88.879 374.028 88.747 373.976 88.611 373.924C88.475 373.868 88.341 373.81 88.209 373.75C88.081 373.69 87.965 373.618 87.861 373.534C87.761 373.446 87.679 373.346 87.615 373.234C87.555 373.118 87.525 372.98 87.525 372.82C87.525 372.672 87.555 372.526 87.615 372.382C87.675 372.238 87.765 372.11 87.885 371.998C88.005 371.886 88.153 371.796 88.329 371.728C88.509 371.66 88.717 371.626 88.953 371.626C89.097 371.626 89.237 371.638 89.373 371.662C89.513 371.686 89.639 371.714 89.751 371.746C89.863 371.774 89.957 371.802 90.033 371.83C90.113 371.858 90.165 371.878 90.189 371.89Z" fill="#C4C4C4"/>
<path d="M66.0307 153V147.925H66.8007V152.272H69.3207V153H66.0307ZM70.0297 153V147.925H73.3617V148.618H70.7997V150.102H73.0817V150.809H70.7997V152.293H73.4597V153H70.0297ZM74.4971 147.925C74.5297 148.004 74.5834 148.135 74.6581 148.317C74.7327 148.494 74.8167 148.697 74.9101 148.926C75.0081 149.155 75.1084 149.397 75.2111 149.654C75.3184 149.911 75.4187 150.153 75.5121 150.382C75.6054 150.611 75.6894 150.816 75.7641 150.998C75.8387 151.175 75.8924 151.304 75.9251 151.383C75.9297 151.392 75.9414 151.425 75.9601 151.481C75.9787 151.537 75.9927 151.586 76.0021 151.628L76.0721 151.383C76.1047 151.304 76.1584 151.175 76.2331 150.998C76.3077 150.816 76.3917 150.611 76.4851 150.382C76.5784 150.153 76.6764 149.911 76.7791 149.654C76.8864 149.397 76.9867 149.155 77.0801 148.926C77.1781 148.697 77.2644 148.494 77.3391 148.317C77.4137 148.135 77.4674 148.004 77.5001 147.925H78.2561C78.2281 147.99 78.1767 148.109 78.1021 148.282C78.0321 148.45 77.9457 148.655 77.8431 148.898C77.7404 149.141 77.6261 149.407 77.5001 149.696C77.3787 149.985 77.2527 150.279 77.1221 150.578C76.9961 150.877 76.8701 151.171 76.7441 151.46C76.6227 151.749 76.5107 152.015 76.4081 152.258C76.3101 152.501 76.2237 152.708 76.1491 152.881C76.0791 153.049 76.0301 153.166 76.0021 153.231L73.7411 147.925H74.4971ZM78.8959 153V147.925H82.2279V148.618H79.6659V150.102H81.9479V150.809H79.6659V152.293H82.3259V153H78.8959ZM83.2163 153V147.925H83.9863V152.272H86.5063V153H83.2163Z" fill="#C4C4C4"/>
<mask id="mask1" mask-type="alpha" maskUnits="userSpaceOnUse" x="55" y="103" width="42" height="42">
<circle cx="76" cy="124" r="21" fill="#C4C4C4"/>
</mask>
<g mask="url(#mask1)">
<line x1="52.6464" y1="147.646" x2="99.4926" y2="100.8" stroke="#C6C6C6"/>
<line x1="53.3566" y1="100.65" x2="99.3951" y2="147.496" stroke="#C6C6C6"/>
<line x1="52" y1="124.5" x2="100.462" y2="124.5" stroke="#C6C6C6"/>
<line x1="75.5" y1="122" x2="75.5" y2="98.5769" stroke="#C6C6C6"/>
</g>
<circle cx="76" cy="124" r="18" transform="rotate(-180 76 124)" fill="#222222"/>
<circle cx="76" cy="124" r="16" transform="rotate(-180 76 124)" fill="black"/>
<rect x="77" y="124" width="3" height="16" transform="rotate(-180 77 124)" fill="#E5E5E5"/>
<path d="M118.958 150.466H119.651C119.838 150.466 119.994 150.433 120.12 150.368C120.246 150.303 120.344 150.223 120.414 150.13C120.489 150.037 120.54 149.936 120.568 149.829C120.601 149.722 120.617 149.626 120.617 149.542C120.617 149.453 120.601 149.358 120.568 149.255C120.54 149.148 120.489 149.05 120.414 148.961C120.339 148.868 120.239 148.791 120.113 148.73C119.992 148.669 119.84 148.639 119.658 148.639H118.958V150.466ZM118.188 153V147.925H119.574C119.84 147.925 120.083 147.96 120.302 148.03C120.526 148.1 120.717 148.205 120.876 148.345C121.039 148.48 121.165 148.648 121.254 148.849C121.343 149.045 121.387 149.271 121.387 149.528C121.387 149.729 121.357 149.929 121.296 150.13C121.235 150.326 121.137 150.503 121.002 150.662C120.867 150.816 120.689 150.942 120.47 151.04C120.251 151.138 119.985 151.187 119.672 151.187H118.958V153H118.188ZM124.968 153C124.944 152.949 124.912 152.874 124.87 152.776C124.828 152.678 124.779 152.566 124.723 152.44C124.671 152.309 124.613 152.169 124.548 152.02C124.487 151.866 124.424 151.707 124.359 151.544H122.567L121.965 153H121.209L123.47 147.687C123.498 147.752 123.547 147.871 123.617 148.044C123.691 148.217 123.778 148.424 123.876 148.667C123.978 148.905 124.09 149.171 124.212 149.465C124.338 149.754 124.464 150.048 124.59 150.347C124.72 150.646 124.846 150.94 124.968 151.229C125.094 151.518 125.208 151.784 125.311 152.027C125.413 152.27 125.5 152.477 125.57 152.65C125.644 152.818 125.696 152.935 125.724 153H124.968ZM122.833 150.9H124.1C124.034 150.746 123.971 150.599 123.911 150.459C123.855 150.314 123.801 150.184 123.75 150.067C123.703 149.946 123.661 149.841 123.624 149.752C123.586 149.663 123.558 149.593 123.54 149.542C123.535 149.533 123.523 149.5 123.505 149.444C123.491 149.388 123.479 149.337 123.47 149.29C123.46 149.337 123.446 149.388 123.428 149.444C123.409 149.5 123.397 149.533 123.393 149.542L122.833 150.9ZM130.809 147.925V153.231C130.744 153.147 130.618 153.012 130.431 152.825C130.244 152.638 130.03 152.424 129.787 152.181C129.544 151.938 129.285 151.684 129.01 151.418C128.739 151.152 128.483 150.9 128.24 150.662C127.997 150.419 127.785 150.205 127.603 150.018C127.421 149.827 127.3 149.691 127.239 149.612L127.106 149.43L127.127 149.654V153H126.357V147.687C126.408 147.752 126.492 147.846 126.609 147.967C126.73 148.088 126.87 148.231 127.029 148.394C127.192 148.553 127.37 148.725 127.561 148.912C127.757 149.099 127.953 149.288 128.149 149.479C128.35 149.67 128.546 149.859 128.737 150.046C128.933 150.228 129.11 150.398 129.269 150.557C129.432 150.716 129.572 150.856 129.689 150.977C129.806 151.098 129.887 151.189 129.934 151.25L130.067 151.446L130.046 151.208V147.925H130.809Z" fill="#C4C4C4"/>
<mask id="mask2" mask-type="alpha" maskUnits="userSpaceOnUse" x="103" y="103" width="42" height="42">
<circle cx="124" cy="124" r="21" fill="#C4C4C4"/>
</mask>
<g mask="url(#mask2)">
<line x1="100.646" y1="147.646" x2="147.493" y2="100.8" stroke="#C6C6C6"/>
<line x1="101.357" y1="100.65" x2="147.395" y2="147.496" stroke="#C6C6C6"/>
<line x1="100" y1="124.5" x2="148.462" y2="124.5" stroke="#C6C6C6"/>
<line x1="123.5" y1="122" x2="123.5" y2="98.5769" stroke="#C6C6C6"/>
</g>
<circle cx="124" cy="124" r="18" transform="rotate(-180 124 124)" fill="#222222"/>
<circle cx="124" cy="124" r="16" transform="rotate(-180 124 124)" fill="black"/>
<rect x="125" y="124" width="3" height="16" transform="rotate(-180 125 124)" fill="#E5E5E5"/>
<path d="M58.876 17.742C58.876 17.292 58.963 16.866 59.137 16.464C59.311 16.056 59.548 15.699 59.848 15.393C60.154 15.087 60.508 14.847 60.91 14.673C61.312 14.493 61.744 14.403 62.206 14.403C62.662 14.403 63.091 14.493 63.493 14.673C63.901 14.847 64.255 15.087 64.555 15.393C64.861 15.699 65.101 16.056 65.275 16.464C65.455 16.866 65.545 17.292 65.545 17.742C65.545 18.204 65.455 18.636 65.275 19.038C65.101 19.44 64.861 19.794 64.555 20.1C64.255 20.4 63.901 20.637 63.493 20.811C63.091 20.985 62.662 21.072 62.206 21.072C61.744 21.072 61.312 20.985 60.91 20.811C60.508 20.637 60.154 20.4 59.848 20.1C59.548 19.794 59.311 19.44 59.137 19.038C58.963 18.636 58.876 18.204 58.876 17.742ZM59.857 17.751C59.857 18.081 59.917 18.393 60.037 18.687C60.163 18.975 60.334 19.227 60.55 19.443C60.766 19.659 61.018 19.83 61.306 19.956C61.594 20.082 61.9 20.145 62.224 20.145C62.548 20.145 62.851 20.082 63.133 19.956C63.421 19.83 63.67 19.659 63.88 19.443C64.096 19.227 64.264 18.975 64.384 18.687C64.51 18.393 64.573 18.078 64.573 17.742C64.573 17.412 64.51 17.103 64.384 16.815C64.264 16.521 64.096 16.266 63.88 16.05C63.664 15.834 63.412 15.663 63.124 15.537C62.842 15.411 62.539 15.348 62.215 15.348C61.891 15.348 61.585 15.411 61.297 15.537C61.009 15.663 60.757 15.834 60.541 16.05C60.331 16.266 60.163 16.521 60.037 16.815C59.917 17.109 59.857 17.421 59.857 17.751ZM69.1034 21.072C68.7554 21.072 68.4314 21.015 68.1314 20.901C67.8314 20.787 67.5674 20.628 67.3394 20.424C67.1174 20.214 66.9404 19.965 66.8084 19.677C66.6824 19.383 66.6194 19.056 66.6194 18.696V14.475H67.6094V18.669C67.6094 18.879 67.6454 19.074 67.7174 19.254C67.7954 19.428 67.9004 19.584 68.0324 19.722C68.1704 19.854 68.3294 19.959 68.5094 20.037C68.6894 20.109 68.8874 20.145 69.1034 20.145C69.3134 20.145 69.5084 20.109 69.6884 20.037C69.8744 19.959 70.0334 19.854 70.1654 19.722C70.3034 19.584 70.4114 19.428 70.4894 19.254C70.5674 19.074 70.6064 18.879 70.6064 18.669V14.475H71.5964V18.696C71.5964 19.056 71.5304 19.383 71.3984 19.677C71.2724 19.965 71.0954 20.214 70.8674 20.424C70.6454 20.628 70.3814 20.787 70.0754 20.901C69.7754 21.015 69.4514 21.072 69.1034 21.072ZM76.923 14.475V15.411H75.276V21H74.295V15.411H72.684V14.475H76.923ZM79.0721 17.742H79.9631C80.2031 17.742 80.4041 17.7 80.5661 17.616C80.7281 17.532 80.8541 17.43 80.9441 17.31C81.0401 17.19 81.1061 17.061 81.1421 16.923C81.1841 16.785 81.2051 16.662 81.2051 16.554C81.2051 16.44 81.1841 16.317 81.1421 16.185C81.1061 16.047 81.0401 15.921 80.9441 15.807C80.8481 15.687 80.7191 15.588 80.5571 15.51C80.4011 15.432 80.2061 15.393 79.9721 15.393H79.0721V17.742ZM78.0821 21V14.475H79.8641C80.2061 14.475 80.5181 14.52 80.8001 14.61C81.0881 14.7 81.3341 14.835 81.5381 15.015C81.7481 15.189 81.9101 15.405 82.0241 15.663C82.1381 15.915 82.1951 16.206 82.1951 16.536C82.1951 16.794 82.1561 17.052 82.0781 17.31C82.0001 17.562 81.8741 17.79 81.7001 17.994C81.5261 18.192 81.2981 18.354 81.0161 18.48C80.7341 18.606 80.3921 18.669 79.9901 18.669H79.0721V21H78.0821ZM85.6884 21.072C85.3404 21.072 85.0164 21.015 84.7164 20.901C84.4164 20.787 84.1524 20.628 83.9244 20.424C83.7024 20.214 83.5254 19.965 83.3934 19.677C83.2674 19.383 83.2044 19.056 83.2044 18.696V14.475H84.1944V18.669C84.1944 18.879 84.2304 19.074 84.3024 19.254C84.3804 19.428 84.4854 19.584 84.6174 19.722C84.7554 19.854 84.9144 19.959 85.0944 20.037C85.2744 20.109 85.4724 20.145 85.6884 20.145C85.8984 20.145 86.0934 20.109 86.2734 20.037C86.4594 19.959 86.6184 19.854 86.7504 19.722C86.8884 19.584 86.9964 19.428 87.0744 19.254C87.1524 19.074 87.1914 18.879 87.1914 18.669V14.475H88.1814V18.696C88.1814 19.056 88.1154 19.383 87.9834 19.677C87.8574 19.965 87.6804 20.214 87.4524 20.424C87.2304 20.628 86.9664 20.787 86.6604 20.901C86.3604 21.015 86.0364 21.072 85.6884 21.072ZM93.508 14.475V15.411H91.861V21H90.88V15.411H89.269V14.475H93.508Z" fill="#C4C4C4"/>
<path d="M12.4482 147.925H13.2112V153H12.4482V147.925ZM18.91 147.925V153.231C18.8446 153.147 18.7186 153.012 18.532 152.825C18.3453 152.638 18.1306 152.424 17.888 152.181C17.6453 151.938 17.3863 151.684 17.111 151.418C16.8403 151.152 16.5836 150.9 16.341 150.662C16.0983 150.419 15.886 150.205 15.704 150.018C15.522 149.827 15.4006 149.691 15.34 149.612L15.207 149.43L15.228 149.654V153H14.458V147.687C14.5093 147.752 14.5933 147.846 14.71 147.967C14.8313 148.088 14.9713 148.231 15.13 148.394C15.2933 148.553 15.4706 148.725 15.662 148.912C15.858 149.099 16.054 149.288 16.25 149.479C16.4506 149.67 16.6466 149.859 16.838 150.046C17.034 150.228 17.2113 150.398 17.37 150.557C17.5333 150.716 17.6733 150.856 17.79 150.977C17.9066 151.098 17.9883 151.189 18.035 151.25L18.168 151.446L18.147 151.208V147.925H18.91ZM20.9291 150.466H21.6221C21.8088 150.466 21.9651 150.433 22.0911 150.368C22.2171 150.303 22.3151 150.223 22.3851 150.13C22.4598 150.037 22.5111 149.936 22.5391 149.829C22.5718 149.722 22.5881 149.626 22.5881 149.542C22.5881 149.453 22.5718 149.358 22.5391 149.255C22.5111 149.148 22.4598 149.05 22.3851 148.961C22.3105 148.868 22.2101 148.791 22.0841 148.73C21.9628 148.669 21.8111 148.639 21.6291 148.639H20.9291V150.466ZM20.1591 153V147.925H21.5451C21.8111 147.925 22.0538 147.96 22.2731 148.03C22.4971 148.1 22.6885 148.205 22.8471 148.345C23.0105 148.48 23.1365 148.648 23.2251 148.849C23.3138 149.045 23.3581 149.271 23.3581 149.528C23.3581 149.729 23.3278 149.929 23.2671 150.13C23.2065 150.326 23.1085 150.503 22.9731 150.662C22.8378 150.816 22.6605 150.942 22.4411 151.04C22.2218 151.138 21.9558 151.187 21.6431 151.187H20.9291V153H20.1591ZM26.0752 153.056C25.8045 153.056 25.5525 153.012 25.3192 152.923C25.0858 152.834 24.8805 152.711 24.7032 152.552C24.5305 152.389 24.3928 152.195 24.2902 151.971C24.1922 151.742 24.1432 151.488 24.1432 151.208V147.925H24.9132V151.187C24.9132 151.35 24.9412 151.502 24.9972 151.642C25.0578 151.777 25.1395 151.899 25.2422 152.006C25.3495 152.109 25.4732 152.19 25.6132 152.251C25.7532 152.307 25.9072 152.335 26.0752 152.335C26.2385 152.335 26.3902 152.307 26.5302 152.251C26.6748 152.19 26.7985 152.109 26.9012 152.006C27.0085 151.899 27.0925 151.777 27.1532 151.642C27.2138 151.502 27.2442 151.35 27.2442 151.187V147.925H28.0142V151.208C28.0142 151.488 27.9628 151.742 27.8602 151.971C27.7622 152.195 27.6245 152.389 27.4472 152.552C27.2745 152.711 27.0692 152.834 26.8312 152.923C26.5978 153.012 26.3458 153.056 26.0752 153.056ZM32.1571 147.925V148.653H30.8761V153H30.1131V148.653H28.8601V147.925H32.1571ZM34.3778 149.01V148.387H35.4768V153H34.8258V149.01H34.3778Z" fill="#C4C4C4"/>
<circle cx="24" cy="124" r="9.5" fill="#616161" stroke="#C4C4C4"/>
<path d="M24 116L30.9282 120V128L24 132L17.0718 128V120L24 116Z" fill="#A5A5A5"/>
<circle cx="24" cy="124" r="5.5" fill="black" stroke="#E5E5E5"/>
<line x1="50" y1="124.5" x2="38" y2="124.5" stroke="#E5E5E5"/>
<path d="M61.9764 376V371.65H63.1644C63.3924 371.65 63.6004 371.68 63.7884 371.74C63.9804 371.8 64.1444 371.89 64.2804 372.01C64.4204 372.126 64.5284 372.27 64.6044 372.442C64.6804 372.61 64.7184 372.804 64.7184 373.024C64.7184 373.144 64.7064 373.264 64.6824 373.384C64.6584 373.5 64.6184 373.614 64.5624 373.726C64.5104 373.834 64.4424 373.936 64.3584 374.032C64.2744 374.124 64.1724 374.202 64.0524 374.266C64.2124 374.518 64.3864 374.798 64.5744 375.106C64.7624 375.41 64.9524 375.708 65.1444 376H64.3584C64.2784 375.876 64.1944 375.746 64.1064 375.61C64.0224 375.474 63.9364 375.34 63.8484 375.208C63.7644 375.072 63.6804 374.94 63.5964 374.812C63.5164 374.68 63.4404 374.558 63.3684 374.446H63.2484H62.6364V376H61.9764ZM62.6364 373.828H63.2304C63.3904 373.828 63.5244 373.802 63.6324 373.75C63.7404 373.694 63.8244 373.626 63.8844 373.546C63.9484 373.466 63.9924 373.38 64.0164 373.288C64.0444 373.196 64.0584 373.112 64.0584 373.036C64.0584 372.96 64.0444 372.878 64.0164 372.79C63.9924 372.698 63.9484 372.614 63.8844 372.538C63.8204 372.458 63.7344 372.392 63.6264 372.34C63.5224 372.288 63.3924 372.262 63.2364 372.262H62.6364V373.828ZM68.438 376C68.418 375.956 68.39 375.892 68.354 375.808C68.318 375.724 68.276 375.628 68.228 375.52C68.184 375.408 68.134 375.288 68.078 375.16C68.026 375.028 67.972 374.892 67.916 374.752H66.38L65.864 376H65.216L67.154 371.446C67.178 371.502 67.22 371.604 67.28 371.752C67.344 371.9 67.418 372.078 67.502 372.286C67.59 372.49 67.686 372.718 67.79 372.97C67.898 373.218 68.006 373.47 68.114 373.726C68.226 373.982 68.334 374.234 68.438 374.482C68.546 374.73 68.644 374.958 68.732 375.166C68.82 375.374 68.894 375.552 68.954 375.7C69.018 375.844 69.062 375.944 69.086 376H68.438ZM66.608 374.2H67.694C67.638 374.068 67.584 373.942 67.532 373.822C67.484 373.698 67.438 373.586 67.394 373.486C67.354 373.382 67.318 373.292 67.286 373.216C67.254 373.14 67.23 373.08 67.214 373.036C67.21 373.028 67.2 373 67.184 372.952C67.172 372.904 67.162 372.86 67.154 372.82C67.146 372.86 67.134 372.904 67.118 372.952C67.102 373 67.092 373.028 67.088 373.036L66.608 374.2ZM72.6927 375.688C72.6447 375.724 72.5767 375.764 72.4887 375.808C72.4047 375.848 72.3047 375.886 72.1887 375.922C72.0727 375.958 71.9427 375.988 71.7987 376.012C71.6587 376.036 71.5087 376.048 71.3487 376.048C71.0087 376.048 70.7027 375.99 70.4307 375.874C70.1627 375.754 69.9347 375.594 69.7467 375.394C69.5587 375.194 69.4147 374.962 69.3147 374.698C69.2147 374.434 69.1647 374.154 69.1647 373.858C69.1647 373.53 69.2227 373.228 69.3387 372.952C69.4587 372.676 69.6207 372.438 69.8247 372.238C70.0287 372.038 70.2667 371.882 70.5387 371.77C70.8147 371.658 71.1067 371.602 71.4147 371.602C71.5307 371.602 71.6487 371.61 71.7687 371.626C71.8887 371.642 72.0007 371.664 72.1047 371.692C72.2127 371.72 72.3067 371.754 72.3867 371.794C72.4707 371.83 72.5347 371.868 72.5787 371.908C72.5467 371.956 72.5207 371.996 72.5007 372.028C72.4847 372.06 72.4667 372.094 72.4467 372.13C72.4267 372.162 72.4047 372.2 72.3807 372.244C72.3567 372.288 72.3247 372.346 72.2847 372.418C72.2327 372.382 72.1707 372.352 72.0987 372.328C72.0307 372.304 71.9587 372.284 71.8827 372.268C71.8067 372.252 71.7287 372.24 71.6487 372.232C71.5727 372.224 71.5027 372.22 71.4387 372.22C71.2067 372.22 70.9907 372.264 70.7907 372.352C70.5947 372.436 70.4247 372.552 70.2807 372.7C70.1367 372.844 70.0227 373.012 69.9387 373.204C69.8587 373.396 69.8187 373.596 69.8187 373.804C69.8187 374.008 69.8567 374.204 69.9327 374.392C70.0127 374.58 70.1207 374.748 70.2567 374.896C70.3967 375.044 70.5627 375.162 70.7547 375.25C70.9507 375.338 71.1647 375.382 71.3967 375.382C71.5207 375.382 71.6407 375.37 71.7567 375.346C71.8727 375.322 71.9767 375.294 72.0687 375.262C72.1647 375.23 72.2427 375.198 72.3027 375.166C72.3667 375.134 72.4047 375.11 72.4167 375.094L72.6927 375.688ZM75.8708 376C75.7308 375.82 75.5968 375.648 75.4688 375.484C75.3408 375.32 75.2148 375.156 75.0908 374.992C74.9668 374.828 74.8408 374.662 74.7128 374.494C74.5888 374.326 74.4568 374.152 74.3168 373.972C74.2648 374.028 74.2148 374.08 74.1668 374.128C74.1188 374.172 74.0668 374.218 74.0108 374.266C74.0108 374.574 74.0108 374.864 74.0108 375.136C74.0148 375.404 74.0168 375.692 74.0168 376H73.2908V371.65H74.0168V373.276C74.0168 373.312 74.0128 373.348 74.0048 373.384C74.0008 373.416 73.9988 373.45 73.9988 373.486C74.0188 373.458 74.0388 373.434 74.0588 373.414C74.0788 373.39 74.0988 373.362 74.1188 373.33C74.4028 373.062 74.6768 372.784 74.9408 372.496C75.2048 372.204 75.4788 371.922 75.7628 371.65H76.5968C76.2968 371.962 75.9988 372.276 75.7028 372.592C75.4108 372.908 75.1148 373.222 74.8148 373.534C74.9828 373.75 75.1428 373.96 75.2948 374.164C75.4508 374.364 75.6028 374.564 75.7508 374.764C75.9028 374.964 76.0548 375.166 76.2068 375.37C76.3588 375.574 76.5168 375.784 76.6808 376H75.8708ZM77.1756 376V371.65H77.8356V375.376H79.9956V376H77.1756ZM80.6033 376V371.65H83.4593V372.244H81.2633V373.516H83.2193V374.122H81.2633V375.394H83.5433V376H80.6033ZM86.7965 371.89L86.5625 372.424C86.3985 372.364 86.2345 372.316 86.0705 372.28C85.9105 372.244 85.7565 372.226 85.6085 372.226C85.3565 372.226 85.1545 372.278 85.0025 372.382C84.8545 372.486 84.7805 372.618 84.7805 372.778C84.7805 372.914 84.8345 373.024 84.9425 373.108C85.0505 373.188 85.1845 373.262 85.3445 373.33C85.5045 373.394 85.6785 373.46 85.8665 373.528C86.0545 373.592 86.2285 373.676 86.3885 373.78C86.5485 373.884 86.6825 374.016 86.7905 374.176C86.8985 374.332 86.9525 374.534 86.9525 374.782C86.9525 374.974 86.9165 375.148 86.8445 375.304C86.7765 375.456 86.6725 375.588 86.5325 375.7C86.3965 375.812 86.2245 375.898 86.0165 375.958C85.8125 376.018 85.5725 376.048 85.2965 376.048C85.1205 376.048 84.9605 376.036 84.8165 376.012C84.6765 375.988 84.5485 375.958 84.4325 375.922C84.3205 375.882 84.2205 375.84 84.1325 375.796C84.0485 375.752 83.9765 375.712 83.9165 375.676L84.2045 375.106C84.3645 375.198 84.5425 375.272 84.7385 375.328C84.9345 375.384 85.1125 375.412 85.2725 375.412C85.3525 375.412 85.4505 375.402 85.5665 375.382C85.6865 375.362 85.8005 375.328 85.9085 375.28C86.0165 375.228 86.1085 375.16 86.1845 375.076C86.2645 374.992 86.3045 374.886 86.3045 374.758C86.3045 374.642 86.2725 374.544 86.2085 374.464C86.1485 374.38 86.0665 374.308 85.9625 374.248C85.8625 374.184 85.7465 374.128 85.6145 374.08C85.4865 374.028 85.3545 373.976 85.2185 373.924C85.0825 373.868 84.9485 373.81 84.8165 373.75C84.6885 373.69 84.5725 373.618 84.4685 373.534C84.3685 373.446 84.2865 373.346 84.2225 373.234C84.1625 373.118 84.1325 372.98 84.1325 372.82C84.1325 372.672 84.1625 372.526 84.2225 372.382C84.2825 372.238 84.3725 372.11 84.4925 371.998C84.6125 371.886 84.7605 371.796 84.9365 371.728C85.1165 371.66 85.3245 371.626 85.5605 371.626C85.7045 371.626 85.8445 371.638 85.9805 371.662C86.1205 371.686 86.2465 371.714 86.3585 371.746C86.4705 371.774 86.5645 371.802 86.6405 371.83C86.7205 371.858 86.7725 371.878 86.7965 371.89ZM90.189 371.89L89.955 372.424C89.791 372.364 89.627 372.316 89.463 372.28C89.303 372.244 89.149 372.226 89.001 372.226C88.749 372.226 88.547 372.278 88.395 372.382C88.247 372.486 88.173 372.618 88.173 372.778C88.173 372.914 88.227 373.024 88.335 373.108C88.443 373.188 88.577 373.262 88.737 373.33C88.897 373.394 89.071 373.46 89.259 373.528C89.447 373.592 89.621 373.676 89.781 373.78C89.941 373.884 90.075 374.016 90.183 374.176C90.291 374.332 90.345 374.534 90.345 374.782C90.345 374.974 90.309 375.148 90.237 375.304C90.169 375.456 90.065 375.588 89.925 375.7C89.789 375.812 89.617 375.898 89.409 375.958C89.205 376.018 88.965 376.048 88.689 376.048C88.513 376.048 88.353 376.036 88.209 376.012C88.069 375.988 87.941 375.958 87.825 375.922C87.713 375.882 87.613 375.84 87.525 375.796C87.441 375.752 87.369 375.712 87.309 375.676L87.597 375.106C87.757 375.198 87.935 375.272 88.131 375.328C88.327 375.384 88.505 375.412 88.665 375.412C88.745 375.412 88.843 375.402 88.959 375.382C89.079 375.362 89.193 375.328 89.301 375.28C89.409 375.228 89.501 375.16 89.577 375.076C89.657 374.992 89.697 374.886 89.697 374.758C89.697 374.642 89.665 374.544 89.601 374.464C89.541 374.38 89.459 374.308 89.355 374.248C89.255 374.184 89.139 374.128 89.007 374.08C88.879 374.028 88.747 373.976 88.611 373.924C88.475 373.868 88.341 373.81 88.209 373.75C88.081 373.69 87.965 373.618 87.861 373.534C87.761 373.446 87.679 373.346 87.615 373.234C87.555 373.118 87.525 372.98 87.525 372.82C87.525 372.672 87.555 372.526 87.615 372.382C87.675 372.238 87.765 372.11 87.885 371.998C88.005 371.886 88.153 371.796 88.329 371.728C88.509 371.66 88.717 371.626 88.953 371.626C89.097 371.626 89.237 371.638 89.373 371.662C89.513 371.686 89.639 371.714 89.751 371.746C89.863 371.774 89.957 371.802 90.033 371.83C90.113 371.858 90.165 371.878 90.189 371.89Z" fill="#C4C4C4"/>
<path d="M66.0307 224V218.925H66.8007V223.272H69.3207V224H66.0307ZM70.0297 224V218.925H73.3617V219.618H70.7997V221.102H73.0817V221.809H70.7997V223.293H73.4597V224H70.0297ZM74.4971 218.925C74.5297 219.004 74.5834 219.135 74.6581 219.317C74.7327 219.494 74.8167 219.697 74.9101 219.926C75.0081 220.155 75.1084 220.397 75.2111 220.654C75.3184 220.911 75.4187 221.153 75.5121 221.382C75.6054 221.611 75.6894 221.816 75.7641 221.998C75.8387 222.175 75.8924 222.304 75.9251 222.383C75.9297 222.392 75.9414 222.425 75.9601 222.481C75.9787 222.537 75.9927 222.586 76.0021 222.628L76.0721 222.383C76.1047 222.304 76.1584 222.175 76.2331 221.998C76.3077 221.816 76.3917 221.611 76.4851 221.382C76.5784 221.153 76.6764 220.911 76.7791 220.654C76.8864 220.397 76.9867 220.155 77.0801 219.926C77.1781 219.697 77.2644 219.494 77.3391 219.317C77.4137 219.135 77.4674 219.004 77.5001 218.925H78.2561C78.2281 218.99 78.1767 219.109 78.1021 219.282C78.0321 219.45 77.9457 219.655 77.8431 219.898C77.7404 220.141 77.6261 220.407 77.5001 220.696C77.3787 220.985 77.2527 221.279 77.1221 221.578C76.9961 221.877 76.8701 222.171 76.7441 222.46C76.6227 222.749 76.5107 223.015 76.4081 223.258C76.3101 223.501 76.2237 223.708 76.1491 223.881C76.0791 224.049 76.0301 224.166 76.0021 224.231L73.7411 218.925H74.4971ZM78.8959 224V218.925H82.2279V219.618H79.6659V221.102H81.9479V221.809H79.6659V223.293H82.3259V224H78.8959ZM83.2163 224V218.925H83.9863V223.272H86.5063V224H83.2163Z" fill="#C4C4C4"/>
<mask id="mask3" mask-type="alpha" maskUnits="userSpaceOnUse" x="55" y="174" width="42" height="42">
<circle cx="76" cy="195" r="21" fill="#C4C4C4"/>
</mask>
<g mask="url(#mask3)">
<line x1="52.6464" y1="218.646" x2="99.4926" y2="171.8" stroke="#C6C6C6"/>
<line x1="53.3566" y1="171.65" x2="99.3951" y2="218.496" stroke="#C6C6C6"/>
<line x1="52" y1="195.5" x2="100.462" y2="195.5" stroke="#C6C6C6"/>
<line x1="75.5" y1="193" x2="75.5" y2="169.577" stroke="#C6C6C6"/>
</g>
<circle cx="76" cy="195" r="18" transform="rotate(-180 76 195)" fill="#222222"/>
<circle cx="76" cy="195" r="16" transform="rotate(-180 76 195)" fill="black"/>
<rect x="77" y="195" width="3" height="16" transform="rotate(-180 77 195)" fill="#E5E5E5"/>
<path d="M118.958 220.466H119.651C119.838 220.466 119.994 220.433 120.12 220.368C120.246 220.303 120.344 220.223 120.414 220.13C120.489 220.037 120.54 219.936 120.568 219.829C120.601 219.722 120.617 219.626 120.617 219.542C120.617 219.453 120.601 219.358 120.568 219.255C120.54 219.148 120.489 219.05 120.414 218.961C120.339 218.868 120.239 218.791 120.113 218.73C119.992 218.669 119.84 218.639 119.658 218.639H118.958V220.466ZM118.188 223V217.925H119.574C119.84 217.925 120.083 217.96 120.302 218.03C120.526 218.1 120.717 218.205 120.876 218.345C121.039 218.48 121.165 218.648 121.254 218.849C121.343 219.045 121.387 219.271 121.387 219.528C121.387 219.729 121.357 219.929 121.296 220.13C121.235 220.326 121.137 220.503 121.002 220.662C120.867 220.816 120.689 220.942 120.47 221.04C120.251 221.138 119.985 221.187 119.672 221.187H118.958V223H118.188ZM124.968 223C124.944 222.949 124.912 222.874 124.87 222.776C124.828 222.678 124.779 222.566 124.723 222.44C124.671 222.309 124.613 222.169 124.548 222.02C124.487 221.866 124.424 221.707 124.359 221.544H122.567L121.965 223H121.209L123.47 217.687C123.498 217.752 123.547 217.871 123.617 218.044C123.691 218.217 123.778 218.424 123.876 218.667C123.978 218.905 124.09 219.171 124.212 219.465C124.338 219.754 124.464 220.048 124.59 220.347C124.72 220.646 124.846 220.94 124.968 221.229C125.094 221.518 125.208 221.784 125.311 222.027C125.413 222.27 125.5 222.477 125.57 222.65C125.644 222.818 125.696 222.935 125.724 223H124.968ZM122.833 220.9H124.1C124.034 220.746 123.971 220.599 123.911 220.459C123.855 220.314 123.801 220.184 123.75 220.067C123.703 219.946 123.661 219.841 123.624 219.752C123.586 219.663 123.558 219.593 123.54 219.542C123.535 219.533 123.523 219.5 123.505 219.444C123.491 219.388 123.479 219.337 123.47 219.29C123.46 219.337 123.446 219.388 123.428 219.444C123.409 219.5 123.397 219.533 123.393 219.542L122.833 220.9ZM130.809 217.925V223.231C130.744 223.147 130.618 223.012 130.431 222.825C130.244 222.638 130.03 222.424 129.787 222.181C129.544 221.938 129.285 221.684 129.01 221.418C128.739 221.152 128.483 220.9 128.24 220.662C127.997 220.419 127.785 220.205 127.603 220.018C127.421 219.827 127.3 219.691 127.239 219.612L127.106 219.43L127.127 219.654V223H126.357V217.687C126.408 217.752 126.492 217.846 126.609 217.967C126.73 218.088 126.87 218.231 127.029 218.394C127.192 218.553 127.37 218.725 127.561 218.912C127.757 219.099 127.953 219.288 128.149 219.479C128.35 219.67 128.546 219.859 128.737 220.046C128.933 220.228 129.11 220.398 129.269 220.557C129.432 220.716 129.572 220.856 129.689 220.977C129.806 221.098 129.887 221.189 129.934 221.25L130.067 221.446L130.046 221.208V217.925H130.809Z" fill="#C4C4C4"/>
<mask id="mask4" mask-type="alpha" maskUnits="userSpaceOnUse" x="103" y="173" width="42" height="42">
<circle cx="124" cy="194" r="21" fill="#C4C4C4"/>
</mask>
<g mask="url(#mask4)">
<line x1="100.646" y1="217.646" x2="147.493" y2="170.8" stroke="#C6C6C6"/>
<line x1="101.357" y1="170.65" x2="147.395" y2="217.496" stroke="#C6C6C6"/>
<line x1="100" y1="194.5" x2="148.462" y2="194.5" stroke="#C6C6C6"/>
<line x1="123.5" y1="192" x2="123.5" y2="168.577" stroke="#C6C6C6"/>
</g>
<circle cx="124" cy="194" r="18" transform="rotate(-180 124 194)" fill="#222222"/>
<circle cx="124" cy="194" r="16" transform="rotate(-180 124 194)" fill="black"/>
<rect x="125" y="194" width="3" height="16" transform="rotate(-180 125 194)" fill="#E5E5E5"/>
<path d="M66.0307 329V323.925H66.8007V328.272H69.3207V329H66.0307ZM70.0297 329V323.925H73.3617V324.618H70.7997V326.102H73.0817V326.809H70.7997V328.293H73.4597V329H70.0297ZM74.4971 323.925C74.5297 324.004 74.5834 324.135 74.6581 324.317C74.7327 324.494 74.8167 324.697 74.9101 324.926C75.0081 325.155 75.1084 325.397 75.2111 325.654C75.3184 325.911 75.4187 326.153 75.5121 326.382C75.6054 326.611 75.6894 326.816 75.7641 326.998C75.8387 327.175 75.8924 327.304 75.9251 327.383C75.9297 327.392 75.9414 327.425 75.9601 327.481C75.9787 327.537 75.9927 327.586 76.0021 327.628L76.0721 327.383C76.1047 327.304 76.1584 327.175 76.2331 326.998C76.3077 326.816 76.3917 326.611 76.4851 326.382C76.5784 326.153 76.6764 325.911 76.7791 325.654C76.8864 325.397 76.9867 325.155 77.0801 324.926C77.1781 324.697 77.2644 324.494 77.3391 324.317C77.4137 324.135 77.4674 324.004 77.5001 323.925H78.2561C78.2281 323.99 78.1767 324.109 78.1021 324.282C78.0321 324.45 77.9457 324.655 77.8431 324.898C77.7404 325.141 77.6261 325.407 77.5001 325.696C77.3787 325.985 77.2527 326.279 77.1221 326.578C76.9961 326.877 76.8701 327.171 76.7441 327.46C76.6227 327.749 76.5107 328.015 76.4081 328.258C76.3101 328.501 76.2237 328.708 76.1491 328.881C76.0791 329.049 76.0301 329.166 76.0021 329.231L73.7411 323.925H74.4971ZM78.8959 329V323.925H82.2279V324.618H79.6659V326.102H81.9479V326.809H79.6659V328.293H82.3259V329H78.8959ZM83.2163 329V323.925H83.9863V328.272H86.5063V329H83.2163Z" fill="#C4C4C4"/>
<mask id="mask5" mask-type="alpha" maskUnits="userSpaceOnUse" x="55" y="279" width="42" height="42">
<circle cx="76" cy="300" r="21" fill="#C4C4C4"/>
</mask>
<g mask="url(#mask5)">
<line x1="52.6464" y1="323.646" x2="99.4926" y2="276.8" stroke="#C6C6C6"/>
<line x1="53.3566" y1="276.65" x2="99.3951" y2="323.496" stroke="#C6C6C6"/>
<line x1="52" y1="300.5" x2="100.462" y2="300.5" stroke="#C6C6C6"/>
<line x1="75.5" y1="298" x2="75.5" y2="274.577" stroke="#C6C6C6"/>
</g>
<circle cx="76" cy="300" r="18" transform="rotate(-180 76 300)" fill="#222222"/>
<circle cx="76" cy="300" r="16" transform="rotate(-180 76 300)" fill="black"/>
<rect x="77" y="300" width="3" height="16" transform="rotate(-180 77 300)" fill="#E5E5E5"/>
<path d="M11.6108 217.925H12.3738V223H11.6108V217.925ZM18.0726 217.925V223.231C18.0072 223.147 17.8812 223.012 17.6946 222.825C17.5079 222.638 17.2932 222.424 17.0506 222.181C16.8079 221.938 16.5489 221.684 16.2736 221.418C16.0029 221.152 15.7462 220.9 15.5036 220.662C15.2609 220.419 15.0486 220.205 14.8666 220.018C14.6846 219.827 14.5632 219.691 14.5026 219.612L14.3696 219.43L14.3906 219.654V223H13.6206V217.687C13.6719 217.752 13.7559 217.846 13.8726 217.967C13.9939 218.088 14.1339 218.231 14.2926 218.394C14.4559 218.553 14.6332 218.725 14.8246 218.912C15.0206 219.099 15.2166 219.288 15.4126 219.479C15.6132 219.67 15.8092 219.859 16.0006 220.046C16.1966 220.228 16.3739 220.398 16.5326 220.557C16.6959 220.716 16.8359 220.856 16.9526 220.977C17.0692 221.098 17.1509 221.189 17.1976 221.25L17.3306 221.446L17.3096 221.208V217.925H18.0726ZM20.0917 220.466H20.7847C20.9714 220.466 21.1277 220.433 21.2537 220.368C21.3797 220.303 21.4777 220.223 21.5477 220.13C21.6224 220.037 21.6737 219.936 21.7017 219.829C21.7344 219.722 21.7507 219.626 21.7507 219.542C21.7507 219.453 21.7344 219.358 21.7017 219.255C21.6737 219.148 21.6224 219.05 21.5477 218.961C21.4731 218.868 21.3727 218.791 21.2467 218.73C21.1254 218.669 20.9737 218.639 20.7917 218.639H20.0917V220.466ZM19.3217 223V217.925H20.7077C20.9737 217.925 21.2164 217.96 21.4357 218.03C21.6597 218.1 21.8511 218.205 22.0097 218.345C22.1731 218.48 22.2991 218.648 22.3877 218.849C22.4764 219.045 22.5207 219.271 22.5207 219.528C22.5207 219.729 22.4904 219.929 22.4297 220.13C22.3691 220.326 22.2711 220.503 22.1357 220.662C22.0004 220.816 21.8231 220.942 21.6037 221.04C21.3844 221.138 21.1184 221.187 20.8057 221.187H20.0917V223H19.3217ZM25.2378 223.056C24.9671 223.056 24.7151 223.012 24.4818 222.923C24.2484 222.834 24.0431 222.711 23.8658 222.552C23.6931 222.389 23.5554 222.195 23.4528 221.971C23.3548 221.742 23.3058 221.488 23.3058 221.208V217.925H24.0758V221.187C24.0758 221.35 24.1038 221.502 24.1598 221.642C24.2204 221.777 24.3021 221.899 24.4048 222.006C24.5121 222.109 24.6358 222.19 24.7758 222.251C24.9158 222.307 25.0698 222.335 25.2378 222.335C25.4011 222.335 25.5528 222.307 25.6928 222.251C25.8374 222.19 25.9611 222.109 26.0638 222.006C26.1711 221.899 26.2551 221.777 26.3158 221.642C26.3764 221.502 26.4068 221.35 26.4068 221.187V217.925H27.1768V221.208C27.1768 221.488 27.1254 221.742 27.0228 221.971C26.9248 222.195 26.7871 222.389 26.6098 222.552C26.4371 222.711 26.2318 222.834 25.9938 222.923C25.7604 223.012 25.5084 223.056 25.2378 223.056ZM31.3197 217.925V218.653H30.0387V223H29.2757V218.653H28.0227V217.925H31.3197ZM35.1154 222.377H36.7534V223H33.5754C33.8648 222.706 34.1448 222.421 34.4154 222.146C34.6908 221.871 34.9334 221.605 35.1434 221.348C35.3534 221.087 35.5214 220.837 35.6474 220.599C35.7781 220.356 35.8434 220.123 35.8434 219.899C35.8434 219.736 35.8154 219.596 35.7594 219.479C35.7034 219.358 35.6334 219.26 35.5494 219.185C35.4701 219.106 35.3814 219.047 35.2834 219.01C35.1854 218.973 35.0944 218.954 35.0104 218.954C34.8378 218.954 34.6954 218.984 34.5834 219.045C34.4761 219.106 34.3898 219.18 34.3244 219.269C34.2591 219.353 34.2124 219.442 34.1844 219.535C34.1611 219.628 34.1494 219.71 34.1494 219.78C34.1494 219.939 34.1728 220.076 34.2194 220.193C34.2708 220.31 34.3384 220.415 34.4224 220.508L34.0444 220.907C33.9604 220.856 33.8834 220.786 33.8134 220.697C33.7481 220.604 33.6921 220.506 33.6454 220.403C33.5988 220.296 33.5638 220.188 33.5404 220.081C33.5171 219.969 33.5054 219.869 33.5054 219.78C33.5054 219.593 33.5381 219.414 33.6034 219.241C33.6688 219.064 33.7644 218.907 33.8904 218.772C34.0211 218.637 34.1798 218.529 34.3664 218.45C34.5531 218.371 34.7678 218.331 35.0104 218.331C35.2344 218.331 35.4374 218.371 35.6194 218.45C35.8014 218.529 35.9554 218.639 36.0814 218.779C36.2121 218.914 36.3124 219.073 36.3824 219.255C36.4571 219.432 36.4944 219.619 36.4944 219.815C36.4944 220.044 36.4571 220.268 36.3824 220.487C36.3078 220.702 36.2051 220.916 36.0744 221.131C35.9484 221.341 35.8014 221.549 35.6334 221.754C35.4701 221.959 35.2974 222.167 35.1154 222.377Z" fill="#C4C4C4"/>
<circle cx="24" cy="194" r="9.5" fill="#616161" stroke="#C4C4C4"/>
<path d="M24 186L30.9282 190V198L24 202L17.0718 198V190L24 186Z" fill="#A5A5A5"/>
<circle cx="24" cy="194" r="5.5" fill="black" stroke="#E5E5E5"/>
<line x1="50" y1="194.5" x2="38" y2="194.5" stroke="#E5E5E5"/>
<line x1="123.5" y1="239" x2="123.5" y2="227" stroke="#E5E5E5"/>
<line x1="37.2833" y1="273.588" x2="53.2833" y2="284.588" stroke="#E5E5E5"/>
<line x1="36.7169" y1="319.588" x2="52.7166" y2="308.588" stroke="#E5E5E5"/>
</svg>
