<svg width="153" height="386" viewBox="0 0 153 386" fill="none" xmlns="http://www.w3.org/2000/svg">
<rect x="0.5" y="0.5" width="151.4" height="384.5" fill="#333333" stroke="#161616"/>
<rect x="7" y="313" width="32" height="45" fill="#161616"/>
<rect x="41" y="313" width="32" height="54" fill="#161616"/>
<rect x="75" y="313" width="32" height="54" fill="#161616"/>
<rect x="109" y="313" width="32" height="54" fill="#161616"/>
<path d="M61.9764 376V371.65H63.1644C63.3924 371.65 63.6004 371.68 63.7884 371.74C63.9804 371.8 64.1444 371.89 64.2804 372.01C64.4204 372.126 64.5284 372.27 64.6044 372.442C64.6804 372.61 64.7184 372.804 64.7184 373.024C64.7184 373.144 64.7064 373.264 64.6824 373.384C64.6584 373.5 64.6184 373.614 64.5624 373.726C64.5104 373.834 64.4424 373.936 64.3584 374.032C64.2744 374.124 64.1724 374.202 64.0524 374.266C64.2124 374.518 64.3864 374.798 64.5744 375.106C64.7624 375.41 64.9524 375.708 65.1444 376H64.3584C64.2784 375.876 64.1944 375.746 64.1064 375.61C64.0224 375.474 63.9364 375.34 63.8484 375.208C63.7644 375.072 63.6804 374.94 63.5964 374.812C63.5164 374.68 63.4404 374.558 63.3684 374.446H63.2484H62.6364V376H61.9764ZM62.6364 373.828H63.2304C63.3904 373.828 63.5244 373.802 63.6324 373.75C63.7404 373.694 63.8244 373.626 63.8844 373.546C63.9484 373.466 63.9924 373.38 64.0164 373.288C64.0444 373.196 64.0584 373.112 64.0584 373.036C64.0584 372.96 64.0444 372.878 64.0164 372.79C63.9924 372.698 63.9484 372.614 63.8844 372.538C63.8204 372.458 63.7344 372.392 63.6264 372.34C63.5224 372.288 63.3924 372.262 63.2364 372.262H62.6364V373.828ZM68.438 376C68.418 375.956 68.39 375.892 68.354 375.808C68.318 375.724 68.276 375.628 68.228 375.52C68.184 375.408 68.134 375.288 68.078 375.16C68.026 375.028 67.972 374.892 67.916 374.752H66.38L65.864 376H65.216L67.154 371.446C67.178 371.502 67.22 371.604 67.28 371.752C67.344 371.9 67.418 372.078 67.502 372.286C67.59 372.49 67.686 372.718 67.79 372.97C67.898 373.218 68.006 373.47 68.114 373.726C68.226 373.982 68.334 374.234 68.438 374.482C68.546 374.73 68.644 374.958 68.732 375.166C68.82 375.374 68.894 375.552 68.954 375.7C69.018 375.844 69.062 375.944 69.086 376H68.438ZM66.608 374.2H67.694C67.638 374.068 67.584 373.942 67.532 373.822C67.484 373.698 67.438 373.586 67.394 373.486C67.354 373.382 67.318 373.292 67.286 373.216C67.254 373.14 67.23 373.08 67.214 373.036C67.21 373.028 67.2 373 67.184 372.952C67.172 372.904 67.162 372.86 67.154 372.82C67.146 372.86 67.134 372.904 67.118 372.952C67.102 373 67.092 373.028 67.088 373.036L66.608 374.2ZM72.6927 375.688C72.6447 375.724 72.5767 375.764 72.4887 375.808C72.4047 375.848 72.3047 375.886 72.1887 375.922C72.0727 375.958 71.9427 375.988 71.7987 376.012C71.6587 376.036 71.5087 376.048 71.3487 376.048C71.0087 376.048 70.7027 375.99 70.4307 375.874C70.1627 375.754 69.9347 375.594 69.7467 375.394C69.5587 375.194 69.4147 374.962 69.3147 374.698C69.2147 374.434 69.1647 374.154 69.1647 373.858C69.1647 373.53 69.2227 373.228 69.3387 372.952C69.4587 372.676 69.6207 372.438 69.8247 372.238C70.0287 372.038 70.2667 371.882 70.5387 371.77C70.8147 371.658 71.1067 371.602 71.4147 371.602C71.5307 371.602 71.6487 371.61 71.7687 371.626C71.8887 371.642 72.0007 371.664 72.1047 371.692C72.2127 371.72 72.3067 371.754 72.3867 371.794C72.4707 371.83 72.5347 371.868 72.5787 371.908C72.5467 371.956 72.5207 371.996 72.5007 372.028C72.4847 372.06 72.4667 372.094 72.4467 372.13C72.4267 372.162 72.4047 372.2 72.3807 372.244C72.3567 372.288 72.3247 372.346 72.2847 372.418C72.2327 372.382 72.1707 372.352 72.0987 372.328C72.0307 372.304 71.9587 372.284 71.8827 372.268C71.8067 372.252 71.7287 372.24 71.6487 372.232C71.5727 372.224 71.5027 372.22 71.4387 372.22C71.2067 372.22 70.9907 372.264 70.7907 372.352C70.5947 372.436 70.4247 372.552 70.2807 372.7C70.1367 372.844 70.0227 373.012 69.9387 373.204C69.8587 373.396 69.8187 373.596 69.8187 373.804C69.8187 374.008 69.8567 374.204 69.9327 374.392C70.0127 374.58 70.1207 374.748 70.2567 374.896C70.3967 375.044 70.5627 375.162 70.7547 375.25C70.9507 375.338 71.1647 375.382 71.3967 375.382C71.5207 375.382 71.6407 375.37 71.7567 375.346C71.8727 375.322 71.9767 375.294 72.0687 375.262C72.1647 375.23 72.2427 375.198 72.3027 375.166C72.3667 375.134 72.4047 375.11 72.4167 375.094L72.6927 375.688ZM75.8708 376C75.7308 375.82 75.5968 375.648 75.4688 375.484C75.3408 375.32 75.2148 375.156 75.0908 374.992C74.9668 374.828 74.8408 374.662 74.7128 374.494C74.5888 374.326 74.4568 374.152 74.3168 373.972C74.2648 374.028 74.2148 374.08 74.1668 374.128C74.1188 374.172 74.0668 374.218 74.0108 374.266C74.0108 374.574 74.0108 374.864 74.0108 375.136C74.0148 375.404 74.0168 375.692 74.0168 376H73.2908V371.65H74.0168V373.276C74.0168 373.312 74.0128 373.348 74.0048 373.384C74.0008 373.416 73.9988 373.45 73.9988 373.486C74.0188 373.458 74.0388 373.434 74.0588 373.414C74.0788 373.39 74.0988 373.362 74.1188 373.33C74.4028 373.062 74.6768 372.784 74.9408 372.496C75.2048 372.204 75.4788 371.922 75.7628 371.65H76.5968C76.2968 371.962 75.9988 372.276 75.7028 372.592C75.4108 372.908 75.1148 373.222 74.8148 373.534C74.9828 373.75 75.1428 373.96 75.2948 374.164C75.4508 374.364 75.6028 374.564 75.7508 374.764C75.9028 374.964 76.0548 375.166 76.2068 375.37C76.3588 375.574 76.5168 375.784 76.6808 376H75.8708ZM77.1756 376V371.65H77.8356V375.376H79.9956V376H77.1756ZM80.6033 376V371.65H83.4593V372.244H81.2633V373.516H83.2193V374.122H81.2633V375.394H83.5433V376H80.6033ZM86.7965 371.89L86.5625 372.424C86.3985 372.364 86.2345 372.316 86.0705 372.28C85.9105 372.244 85.7565 372.226 85.6085 372.226C85.3565 372.226 85.1545 372.278 85.0025 372.382C84.8545 372.486 84.7805 372.618 84.7805 372.778C84.7805 372.914 84.8345 373.024 84.9425 373.108C85.0505 373.188 85.1845 373.262 85.3445 373.33C85.5045 373.394 85.6785 373.46 85.8665 373.528C86.0545 373.592 86.2285 373.676 86.3885 373.78C86.5485 373.884 86.6825 374.016 86.7905 374.176C86.8985 374.332 86.9525 374.534 86.9525 374.782C86.9525 374.974 86.9165 375.148 86.8445 375.304C86.7765 375.456 86.6725 375.588 86.5325 375.7C86.3965 375.812 86.2245 375.898 86.0165 375.958C85.8125 376.018 85.5725 376.048 85.2965 376.048C85.1205 376.048 84.9605 376.036 84.8165 376.012C84.6765 375.988 84.5485 375.958 84.4325 375.922C84.3205 375.882 84.2205 375.84 84.1325 375.796C84.0485 375.752 83.9765 375.712 83.9165 375.676L84.2045 375.106C84.3645 375.198 84.5425 375.272 84.7385 375.328C84.9345 375.384 85.1125 375.412 85.2725 375.412C85.3525 375.412 85.4505 375.402 85.5665 375.382C85.6865 375.362 85.8005 375.328 85.9085 375.28C86.0165 375.228 86.1085 375.16 86.1845 375.076C86.2645 374.992 86.3045 374.886 86.3045 374.758C86.3045 374.642 86.2725 374.544 86.2085 374.464C86.1485 374.38 86.0665 374.308 85.9625 374.248C85.8625 374.184 85.7465 374.128 85.6145 374.08C85.4865 374.028 85.3545 373.976 85.2185 373.924C85.0825 373.868 84.9485 373.81 84.8165 373.75C84.6885 373.69 84.5725 373.618 84.4685 373.534C84.3685 373.446 84.2865 373.346 84.2225 373.234C84.1625 373.118 84.1325 372.98 84.1325 372.82C84.1325 372.672 84.1625 372.526 84.2225 372.382C84.2825 372.238 84.3725 372.11 84.4925 371.998C84.6125 371.886 84.7605 371.796 84.9365 371.728C85.1165 371.66 85.3245 371.626 85.5605 371.626C85.7045 371.626 85.8445 371.638 85.9805 371.662C86.1205 371.686 86.2465 371.714 86.3585 371.746C86.4705 371.774 86.5645 371.802 86.6405 371.83C86.7205 371.858 86.7725 371.878 86.7965 371.89ZM90.189 371.89L89.955 372.424C89.791 372.364 89.627 372.316 89.463 372.28C89.303 372.244 89.149 372.226 89.001 372.226C88.749 372.226 88.547 372.278 88.395 372.382C88.247 372.486 88.173 372.618 88.173 372.778C88.173 372.914 88.227 373.024 88.335 373.108C88.443 373.188 88.577 373.262 88.737 373.33C88.897 373.394 89.071 373.46 89.259 373.528C89.447 373.592 89.621 373.676 89.781 373.78C89.941 373.884 90.075 374.016 90.183 374.176C90.291 374.332 90.345 374.534 90.345 374.782C90.345 374.974 90.309 375.148 90.237 375.304C90.169 375.456 90.065 375.588 89.925 375.7C89.789 375.812 89.617 375.898 89.409 375.958C89.205 376.018 88.965 376.048 88.689 376.048C88.513 376.048 88.353 376.036 88.209 376.012C88.069 375.988 87.941 375.958 87.825 375.922C87.713 375.882 87.613 375.84 87.525 375.796C87.441 375.752 87.369 375.712 87.309 375.676L87.597 375.106C87.757 375.198 87.935 375.272 88.131 375.328C88.327 375.384 88.505 375.412 88.665 375.412C88.745 375.412 88.843 375.402 88.959 375.382C89.079 375.362 89.193 375.328 89.301 375.28C89.409 375.228 89.501 375.16 89.577 375.076C89.657 374.992 89.697 374.886 89.697 374.758C89.697 374.642 89.665 374.544 89.601 374.464C89.541 374.38 89.459 374.308 89.355 374.248C89.255 374.184 89.139 374.128 89.007 374.08C88.879 374.028 88.747 373.976 88.611 373.924C88.475 373.868 88.341 373.81 88.209 373.75C88.081 373.69 87.965 373.618 87.861 373.534C87.761 373.446 87.679 373.346 87.615 373.234C87.555 373.118 87.525 372.98 87.525 372.82C87.525 372.672 87.555 372.526 87.615 372.382C87.675 372.238 87.765 372.11 87.885 371.998C88.005 371.886 88.153 371.796 88.329 371.728C88.509 371.66 88.717 371.626 88.953 371.626C89.097 371.626 89.237 371.638 89.373 371.662C89.513 371.686 89.639 371.714 89.751 371.746C89.863 371.774 89.957 371.802 90.033 371.83C90.113 371.858 90.165 371.878 90.189 371.89Z" fill="#C4C4C4"/>
<path d="M67.4902 121V115.925H70.5282V116.632H68.2532V118.165H70.2412V118.879H68.2532V121H67.4902ZM71.373 121V115.925H72.759C73.025 115.925 73.2677 115.96 73.487 116.03C73.711 116.1 73.9023 116.205 74.061 116.345C74.2243 116.48 74.3503 116.648 74.439 116.849C74.5277 117.045 74.572 117.271 74.572 117.528C74.572 117.668 74.558 117.808 74.53 117.948C74.502 118.083 74.4553 118.216 74.39 118.347C74.3293 118.473 74.25 118.592 74.152 118.704C74.054 118.811 73.935 118.902 73.795 118.977C73.9817 119.271 74.1847 119.598 74.404 119.957C74.6233 120.312 74.845 120.659 75.069 121H74.152C74.0587 120.855 73.9607 120.704 73.858 120.545C73.76 120.386 73.6597 120.23 73.557 120.076C73.459 119.917 73.361 119.763 73.263 119.614C73.1697 119.46 73.081 119.318 72.997 119.187H72.857H72.143V121H71.373ZM72.143 118.466H72.836C73.0227 118.466 73.179 118.436 73.305 118.375C73.431 118.31 73.529 118.23 73.599 118.137C73.6737 118.044 73.725 117.943 73.753 117.836C73.7857 117.729 73.802 117.631 73.802 117.542C73.802 117.453 73.7857 117.358 73.753 117.255C73.725 117.148 73.6737 117.05 73.599 116.961C73.5243 116.868 73.424 116.791 73.298 116.73C73.1767 116.669 73.025 116.639 72.843 116.639H72.143V118.466ZM75.7685 121V115.925H79.1005V116.618H76.5385V118.102H78.8205V118.809H76.5385V120.293H79.1985V121H75.7685ZM79.643 118.466C79.643 118.116 79.7106 117.785 79.846 117.472C79.9813 117.155 80.1656 116.877 80.399 116.639C80.6323 116.401 80.9053 116.214 81.218 116.079C81.5306 115.939 81.8666 115.869 82.226 115.869C82.5806 115.869 82.9143 115.939 83.227 116.079C83.5443 116.214 83.822 116.401 84.06 116.639C84.298 116.877 84.4846 117.155 84.62 117.472C84.76 117.785 84.83 118.116 84.83 118.466C84.83 118.825 84.767 119.161 84.641 119.474C84.515 119.787 84.34 120.074 84.116 120.335L84.991 120.272V121H82.772C82.6786 121.019 82.5876 121.033 82.499 121.042C82.4103 121.051 82.3193 121.056 82.226 121.056C81.8666 121.056 81.5306 120.988 81.218 120.853C80.9053 120.718 80.6323 120.533 80.399 120.3C80.1656 120.062 79.9813 119.787 79.846 119.474C79.7106 119.161 79.643 118.825 79.643 118.466ZM80.406 118.473C80.406 118.73 80.4526 118.972 80.546 119.201C80.644 119.425 80.7746 119.621 80.938 119.789C81.106 119.957 81.302 120.09 81.526 120.188C81.75 120.286 81.9903 120.335 82.247 120.335C82.499 120.335 82.7346 120.286 82.954 120.188C83.178 120.09 83.3716 119.957 83.535 119.789C83.703 119.621 83.8336 119.425 83.927 119.201C84.025 118.972 84.074 118.727 84.074 118.466C84.074 118.209 84.025 117.969 83.927 117.745C83.829 117.516 83.696 117.318 83.528 117.15C83.3646 116.982 83.171 116.849 82.947 116.751C82.723 116.653 82.485 116.604 82.233 116.604C81.981 116.604 81.743 116.653 81.519 116.751C81.295 116.849 81.1013 116.982 80.938 117.15C80.7746 117.318 80.644 117.516 80.546 117.745C80.4526 117.974 80.406 118.216 80.406 118.473Z" fill="#C4C4C4"/>
<mask id="mask0" mask-type="alpha" maskUnits="userSpaceOnUse" x="55" y="71" width="42" height="42">
<circle cx="76" cy="92" r="21" fill="#C4C4C4"/>
</mask>
<g mask="url(#mask0)">
<line x1="52.6464" y1="115.646" x2="99.4926" y2="68.8003" stroke="#C6C6C6"/>
<line x1="53.3566" y1="68.6495" x2="99.3951" y2="115.496" stroke="#C6C6C6"/>
<line x1="52" y1="92.5" x2="100.462" y2="92.5" stroke="#C6C6C6"/>
<line x1="75.5" y1="90" x2="75.5" y2="66.5769" stroke="#C6C6C6"/>
</g>
<circle cx="76" cy="92" r="18" transform="rotate(-180 76 92)" fill="#222222"/>
<circle cx="76" cy="92" r="16" transform="rotate(-180 76 92)" fill="black"/>
<rect x="77" y="92" width="3" height="16" transform="rotate(-180 77 92)" fill="#E5E5E5"/>
<path d="M119.719 116.205L119.446 116.828C119.255 116.758 119.063 116.702 118.872 116.66C118.685 116.618 118.506 116.597 118.333 116.597C118.039 116.597 117.803 116.658 117.626 116.779C117.453 116.9 117.367 117.054 117.367 117.241C117.367 117.4 117.43 117.528 117.556 117.626C117.682 117.719 117.838 117.806 118.025 117.885C118.212 117.96 118.415 118.037 118.634 118.116C118.853 118.191 119.056 118.289 119.243 118.41C119.43 118.531 119.586 118.685 119.712 118.872C119.838 119.054 119.901 119.29 119.901 119.579C119.901 119.803 119.859 120.006 119.775 120.188C119.696 120.365 119.574 120.519 119.411 120.65C119.252 120.781 119.052 120.881 118.809 120.951C118.571 121.021 118.291 121.056 117.969 121.056C117.764 121.056 117.577 121.042 117.409 121.014C117.246 120.986 117.096 120.951 116.961 120.909C116.83 120.862 116.714 120.813 116.611 120.762C116.513 120.711 116.429 120.664 116.359 120.622L116.695 119.957C116.882 120.064 117.089 120.151 117.318 120.216C117.547 120.281 117.754 120.314 117.941 120.314C118.034 120.314 118.149 120.302 118.284 120.279C118.424 120.256 118.557 120.216 118.683 120.16C118.809 120.099 118.916 120.02 119.005 119.922C119.098 119.824 119.145 119.7 119.145 119.551C119.145 119.416 119.108 119.301 119.033 119.208C118.963 119.11 118.867 119.026 118.746 118.956C118.629 118.881 118.494 118.816 118.34 118.76C118.191 118.699 118.037 118.639 117.878 118.578C117.719 118.513 117.563 118.445 117.409 118.375C117.26 118.305 117.124 118.221 117.003 118.123C116.886 118.02 116.791 117.904 116.716 117.773C116.646 117.638 116.611 117.477 116.611 117.29C116.611 117.117 116.646 116.947 116.716 116.779C116.786 116.611 116.891 116.462 117.031 116.331C117.171 116.2 117.344 116.095 117.549 116.016C117.759 115.937 118.002 115.897 118.277 115.897C118.445 115.897 118.608 115.911 118.767 115.939C118.93 115.967 119.077 116 119.208 116.037C119.339 116.07 119.448 116.102 119.537 116.135C119.63 116.168 119.691 116.191 119.719 116.205ZM120.772 121V115.925H124.104V116.618H121.542V118.102H123.824V118.809H121.542V120.293H124.202V121H120.772ZM125.092 115.701C125.134 115.766 125.221 115.892 125.351 116.079C125.487 116.261 125.641 116.473 125.813 116.716C125.991 116.959 126.177 117.218 126.373 117.493C126.569 117.764 126.754 118.02 126.926 118.263C127.099 118.501 127.248 118.709 127.374 118.886C127.505 119.063 127.591 119.18 127.633 119.236C127.647 119.213 127.692 119.15 127.766 119.047C127.841 118.944 127.932 118.816 128.039 118.662C128.151 118.508 128.277 118.335 128.417 118.144C128.557 117.948 128.7 117.75 128.844 117.549C128.994 117.344 129.138 117.141 129.278 116.94C129.423 116.739 129.556 116.557 129.677 116.394C129.799 116.226 129.901 116.081 129.985 115.96C130.074 115.834 130.137 115.748 130.174 115.701V121H129.362V118.158C129.362 118.121 129.365 118.081 129.369 118.039C129.379 117.997 129.383 117.967 129.383 117.948C129.341 118.004 129.274 118.1 129.18 118.235C129.092 118.366 128.987 118.517 128.865 118.69C128.749 118.858 128.625 119.038 128.494 119.229C128.364 119.416 128.24 119.593 128.123 119.761C128.007 119.929 127.904 120.078 127.815 120.209C127.727 120.335 127.666 120.424 127.633 120.475C127.601 120.433 127.535 120.347 127.437 120.216C127.344 120.081 127.232 119.924 127.101 119.747C126.975 119.57 126.84 119.381 126.695 119.18C126.555 118.979 126.425 118.793 126.303 118.62C126.182 118.447 126.077 118.3 125.988 118.179C125.9 118.053 125.848 117.976 125.834 117.948C125.834 117.967 125.837 117.997 125.841 118.039C125.851 118.081 125.855 118.121 125.855 118.158V121H125.092V115.701ZM131.422 115.925H132.185V121H131.422V115.925Z" fill="#C4C4C4"/>
<mask id="mask1" mask-type="alpha" maskUnits="userSpaceOnUse" x="103" y="71" width="42" height="42">
<circle cx="124" cy="92" r="21" fill="#C4C4C4"/>
</mask>
<g mask="url(#mask1)">
<line x1="100.646" y1="115.646" x2="147.493" y2="68.8003" stroke="#C6C6C6"/>
<line x1="101.357" y1="68.6495" x2="147.395" y2="115.496" stroke="#C6C6C6"/>
<line x1="100" y1="92.5" x2="148.462" y2="92.5" stroke="#C6C6C6"/>
<line x1="123.5" y1="90" x2="123.5" y2="66.5769" stroke="#C6C6C6"/>
</g>
<circle cx="124" cy="92" r="18" transform="rotate(-180 124 92)" fill="#222222"/>
<circle cx="124" cy="92" r="16" transform="rotate(-180 124 92)" fill="black"/>
<rect x="125" y="92" width="3" height="16" transform="rotate(-180 125 92)" fill="#E5E5E5"/>
<path d="M118.243 279.946C118.075 280.389 117.895 280.856 117.704 281.346C117.517 281.831 117.33 282.31 117.144 282.781C116.962 283.252 116.789 283.7 116.626 284.125C116.462 284.55 116.325 284.916 116.213 285.224L115.079 282.389C115.065 282.352 115.053 282.324 115.044 282.305C115.034 282.286 115.025 282.258 115.016 282.221C115.016 282.24 115.013 282.258 115.009 282.277C115.004 282.291 114.999 282.307 114.995 282.326C114.99 282.345 114.985 282.363 114.981 282.382C114.822 282.746 114.666 283.103 114.512 283.453C114.446 283.602 114.379 283.756 114.309 283.915C114.239 284.074 114.171 284.232 114.106 284.391C114.04 284.545 113.975 284.694 113.91 284.839C113.849 284.984 113.793 285.114 113.742 285.231C113.406 284.349 113.067 283.469 112.727 282.592C112.386 281.715 112.048 280.833 111.712 279.946H112.573C112.685 280.254 112.799 280.564 112.916 280.877C113.037 281.19 113.149 281.491 113.252 281.78C113.359 282.069 113.455 282.338 113.539 282.585C113.623 282.832 113.688 283.042 113.735 283.215L113.791 283.46C113.795 283.437 113.807 283.399 113.826 283.348C113.844 283.292 113.858 283.252 113.868 283.229C113.872 283.21 113.889 283.168 113.917 283.103C113.945 283.038 113.977 282.961 114.015 282.872C114.052 282.779 114.094 282.678 114.141 282.571C114.187 282.464 114.234 282.354 114.281 282.242C114.393 281.985 114.516 281.701 114.652 281.388C114.572 281.169 114.502 280.963 114.442 280.772C114.386 280.609 114.332 280.448 114.281 280.289C114.234 280.13 114.199 280.016 114.176 279.946H114.911C115.111 280.473 115.298 280.961 115.471 281.409C115.541 281.6 115.611 281.792 115.681 281.983C115.755 282.174 115.823 282.352 115.884 282.515C115.949 282.678 116.005 282.823 116.052 282.949C116.098 283.07 116.131 283.159 116.15 283.215C116.164 283.257 116.173 283.299 116.178 283.341C116.187 283.378 116.196 283.418 116.206 283.46C116.215 283.418 116.222 283.376 116.227 283.334C116.236 283.292 116.245 283.252 116.255 283.215C116.297 283.033 116.362 282.816 116.451 282.564C116.539 282.312 116.637 282.041 116.745 281.752C116.857 281.463 116.973 281.164 117.095 280.856C117.216 280.543 117.333 280.24 117.445 279.946H118.243ZM118.923 279.925H119.686V285H118.923V279.925ZM120.933 279.925H122.207C122.72 279.925 123.154 280.002 123.509 280.156C123.864 280.31 124.151 280.513 124.37 280.765C124.594 281.012 124.755 281.292 124.853 281.605C124.956 281.913 125.007 282.221 125.007 282.529C125.007 282.907 124.939 283.25 124.804 283.558C124.669 283.861 124.484 284.12 124.251 284.335C124.018 284.55 123.747 284.715 123.439 284.832C123.131 284.944 122.804 285 122.459 285H120.933V279.925ZM122.347 284.272C122.618 284.272 122.867 284.232 123.096 284.153C123.329 284.074 123.53 283.959 123.698 283.81C123.871 283.656 124.004 283.469 124.097 283.25C124.195 283.026 124.244 282.769 124.244 282.48C124.244 282.172 124.19 281.904 124.083 281.675C123.976 281.446 123.836 281.257 123.663 281.108C123.49 280.954 123.294 280.842 123.075 280.772C122.86 280.697 122.641 280.66 122.417 280.66H121.696V284.272H122.347ZM128.741 279.925V280.653H127.46V285H126.697V280.653H125.444V279.925H128.741ZM129.642 285V279.925H130.405V282.081H132.946V279.925H133.716C133.716 279.986 133.716 280.1 133.716 280.268C133.716 280.431 133.716 280.627 133.716 280.856C133.716 281.085 133.716 281.339 133.716 281.619C133.716 281.894 133.714 282.177 133.709 282.466C133.709 282.751 133.709 283.033 133.709 283.313C133.709 283.588 133.709 283.84 133.709 284.069C133.709 284.298 133.709 284.496 133.709 284.664C133.709 284.827 133.709 284.939 133.709 285H132.946V282.809H130.405V285H129.642Z" fill="#C4C4C4"/>
<mask id="mask2" mask-type="alpha" maskUnits="userSpaceOnUse" x="102" y="235" width="42" height="42">
<circle cx="123" cy="256" r="21" fill="#C4C4C4"/>
</mask>
<g mask="url(#mask2)">
<line x1="99.6464" y1="279.646" x2="146.493" y2="232.8" stroke="#C6C6C6"/>
<line x1="100.357" y1="232.65" x2="146.395" y2="279.496" stroke="#C6C6C6"/>
<line x1="99" y1="256.5" x2="147.462" y2="256.5" stroke="#C6C6C6"/>
<line x1="122.5" y1="254" x2="122.5" y2="230.577" stroke="#C6C6C6"/>
</g>
<circle cx="123" cy="256" r="18" transform="rotate(-180 123 256)" fill="#222222"/>
<circle cx="123" cy="256" r="16" transform="rotate(-180 123 256)" fill="black"/>
<rect x="124" y="256" width="3" height="16" transform="rotate(-180 124 256)" fill="#E5E5E5"/>
<path d="M63.1937 207C63.1704 206.949 63.1377 206.874 63.0957 206.776C63.0537 206.678 63.0047 206.566 62.9487 206.44C62.8974 206.309 62.8391 206.169 62.7737 206.02C62.7131 205.866 62.6501 205.707 62.5847 205.544H60.7927L60.1907 207H59.4347L61.6957 201.687C61.7237 201.752 61.7727 201.871 61.8427 202.044C61.9174 202.217 62.0037 202.424 62.1017 202.667C62.2044 202.905 62.3164 203.171 62.4377 203.465C62.5637 203.754 62.6897 204.048 62.8157 204.347C62.9464 204.646 63.0724 204.94 63.1937 205.229C63.3197 205.518 63.4341 205.784 63.5367 206.027C63.6394 206.27 63.7257 206.477 63.7957 206.65C63.8704 206.818 63.9217 206.935 63.9497 207H63.1937ZM61.0587 204.9H62.3257C62.2604 204.746 62.1974 204.599 62.1367 204.459C62.0807 204.314 62.0271 204.184 61.9757 204.067C61.9291 203.946 61.8871 203.841 61.8497 203.752C61.8124 203.663 61.7844 203.593 61.7657 203.542C61.7611 203.533 61.7494 203.5 61.7307 203.444C61.7167 203.388 61.7051 203.337 61.6957 203.29C61.6864 203.337 61.6724 203.388 61.6537 203.444C61.6351 203.5 61.6234 203.533 61.6187 203.542L61.0587 204.9ZM64.583 201.701C64.625 201.766 64.7113 201.892 64.842 202.079C64.9773 202.261 65.1313 202.473 65.304 202.716C65.4813 202.959 65.668 203.218 65.864 203.493C66.06 203.764 66.2443 204.02 66.417 204.263C66.5896 204.501 66.739 204.709 66.865 204.886C66.9956 205.063 67.082 205.18 67.124 205.236C67.138 205.213 67.1823 205.15 67.257 205.047C67.3316 204.944 67.4226 204.816 67.53 204.662C67.642 204.508 67.768 204.335 67.908 204.144C68.048 203.948 68.1903 203.75 68.335 203.549C68.4843 203.344 68.629 203.141 68.769 202.94C68.9136 202.739 69.0466 202.557 69.168 202.394C69.2893 202.226 69.392 202.081 69.476 201.96C69.5646 201.834 69.6276 201.748 69.665 201.701V207H68.853V204.158C68.853 204.121 68.8553 204.081 68.86 204.039C68.8693 203.997 68.874 203.967 68.874 203.948C68.832 204.004 68.7643 204.1 68.671 204.235C68.5823 204.366 68.4773 204.517 68.356 204.69C68.2393 204.858 68.1156 205.038 67.985 205.229C67.8543 205.416 67.7306 205.593 67.614 205.761C67.4973 205.929 67.3946 206.078 67.306 206.209C67.2173 206.335 67.1566 206.424 67.124 206.475C67.0913 206.433 67.026 206.347 66.928 206.216C66.8346 206.081 66.7226 205.924 66.592 205.747C66.466 205.57 66.3306 205.381 66.186 205.18C66.046 204.979 65.9153 204.793 65.794 204.62C65.6726 204.447 65.5676 204.3 65.479 204.179C65.3903 204.053 65.339 203.976 65.325 203.948C65.325 203.967 65.3273 203.997 65.332 204.039C65.3413 204.081 65.346 204.121 65.346 204.158V207H64.583V201.701ZM70.556 204.466C70.556 204.116 70.6237 203.785 70.759 203.472C70.8944 203.155 71.0787 202.877 71.312 202.639C71.55 202.401 71.8254 202.214 72.138 202.079C72.4507 201.939 72.7867 201.869 73.146 201.869C73.5007 201.869 73.8344 201.939 74.147 202.079C74.4644 202.214 74.7397 202.401 74.973 202.639C75.211 202.877 75.3977 203.155 75.533 203.472C75.673 203.785 75.743 204.116 75.743 204.466C75.743 204.825 75.673 205.161 75.533 205.474C75.3977 205.787 75.211 206.062 74.973 206.3C74.7397 206.533 74.4644 206.718 74.147 206.853C73.8344 206.988 73.5007 207.056 73.146 207.056C72.7867 207.056 72.4507 206.988 72.138 206.853C71.8254 206.718 71.55 206.533 71.312 206.3C71.0787 206.062 70.8944 205.787 70.759 205.474C70.6237 205.161 70.556 204.825 70.556 204.466ZM71.319 204.473C71.319 204.73 71.3657 204.972 71.459 205.201C71.557 205.425 71.69 205.621 71.858 205.789C72.026 205.957 72.222 206.09 72.446 206.188C72.67 206.286 72.908 206.335 73.16 206.335C73.412 206.335 73.6477 206.286 73.867 206.188C74.091 206.09 74.2847 205.957 74.448 205.789C74.616 205.621 74.7467 205.425 74.84 205.201C74.938 204.972 74.987 204.727 74.987 204.466C74.987 204.209 74.938 203.969 74.84 203.745C74.7467 203.516 74.616 203.318 74.448 203.15C74.28 202.982 74.084 202.849 73.86 202.751C73.6407 202.653 73.405 202.604 73.153 202.604C72.901 202.604 72.663 202.653 72.439 202.751C72.215 202.849 72.019 202.982 71.851 203.15C71.6877 203.318 71.557 203.516 71.459 203.745C71.3657 203.974 71.319 204.216 71.319 204.473ZM78.5107 207.056C78.2401 207.056 77.9881 207.012 77.7547 206.923C77.5214 206.834 77.3161 206.711 77.1387 206.552C76.9661 206.389 76.8284 206.195 76.7257 205.971C76.6277 205.742 76.5787 205.488 76.5787 205.208V201.925H77.3487V205.187C77.3487 205.35 77.3767 205.502 77.4327 205.642C77.4934 205.777 77.5751 205.899 77.6777 206.006C77.7851 206.109 77.9087 206.19 78.0487 206.251C78.1887 206.307 78.3427 206.335 78.5107 206.335C78.6741 206.335 78.8257 206.307 78.9657 206.251C79.1104 206.19 79.2341 206.109 79.3367 206.006C79.4441 205.899 79.5281 205.777 79.5887 205.642C79.6494 205.502 79.6797 205.35 79.6797 205.187V201.925H80.4497V205.208C80.4497 205.488 80.3984 205.742 80.2957 205.971C80.1977 206.195 80.0601 206.389 79.8827 206.552C79.7101 206.711 79.5047 206.834 79.2667 206.923C79.0334 207.012 78.7814 207.056 78.5107 207.056ZM86.0906 201.925V207.231C86.0253 207.147 85.8993 207.012 85.7126 206.825C85.526 206.638 85.3113 206.424 85.0686 206.181C84.826 205.938 84.567 205.684 84.2916 205.418C84.021 205.152 83.7643 204.9 83.5216 204.662C83.279 204.419 83.0666 204.205 82.8846 204.018C82.7026 203.827 82.5813 203.691 82.5206 203.612L82.3876 203.43L82.4086 203.654V207H81.6386V201.687C81.69 201.752 81.774 201.846 81.8906 201.967C82.012 202.088 82.152 202.231 82.3106 202.394C82.474 202.553 82.6513 202.725 82.8426 202.912C83.0386 203.099 83.2346 203.288 83.4306 203.479C83.6313 203.67 83.8273 203.859 84.0186 204.046C84.2146 204.228 84.392 204.398 84.5506 204.557C84.714 204.716 84.854 204.856 84.9706 204.977C85.0873 205.098 85.169 205.189 85.2156 205.25L85.3486 205.446L85.3276 205.208V201.925H86.0906ZM90.2938 201.925V202.653H89.0128V207H88.2498V202.653H86.9968V201.925H90.2938Z" fill="#C4C4C4"/>
<mask id="mask3" mask-type="alpha" maskUnits="userSpaceOnUse" x="54" y="157" width="42" height="42">
<circle cx="75" cy="178" r="21" fill="#C4C4C4"/>
</mask>
<g mask="url(#mask3)">
<line x1="51.6464" y1="201.646" x2="98.4926" y2="154.8" stroke="#C6C6C6"/>
<line x1="52.3566" y1="154.65" x2="98.3951" y2="201.496" stroke="#C6C6C6"/>
<line x1="51" y1="178.5" x2="99.4615" y2="178.5" stroke="#C6C6C6"/>
<line x1="74.5" y1="176" x2="74.5" y2="152.577" stroke="#C6C6C6"/>
</g>
<circle cx="75" cy="178" r="18" transform="rotate(-180 75 178)" fill="#222222"/>
<circle cx="75" cy="178" r="16" transform="rotate(-180 75 178)" fill="black"/>
<rect x="76" y="178" width="3" height="16" transform="rotate(-180 76 178)" fill="#E5E5E5"/>
<path d="M63.6937 285C63.6704 284.949 63.6377 284.874 63.5957 284.776C63.5537 284.678 63.5047 284.566 63.4487 284.44C63.3974 284.309 63.3391 284.169 63.2737 284.02C63.2131 283.866 63.1501 283.707 63.0847 283.544H61.2927L60.6907 285H59.9347L62.1957 279.687C62.2237 279.752 62.2727 279.871 62.3427 280.044C62.4174 280.217 62.5037 280.424 62.6017 280.667C62.7044 280.905 62.8164 281.171 62.9377 281.465C63.0637 281.754 63.1897 282.048 63.3157 282.347C63.4464 282.646 63.5724 282.94 63.6937 283.229C63.8197 283.518 63.9341 283.784 64.0367 284.027C64.1394 284.27 64.2257 284.477 64.2957 284.65C64.3704 284.818 64.4217 284.935 64.4497 285H63.6937ZM61.5587 282.9H62.8257C62.7604 282.746 62.6974 282.599 62.6367 282.459C62.5807 282.314 62.5271 282.184 62.4757 282.067C62.4291 281.946 62.3871 281.841 62.3497 281.752C62.3124 281.663 62.2844 281.593 62.2657 281.542C62.2611 281.533 62.2494 281.5 62.2307 281.444C62.2167 281.388 62.2051 281.337 62.1957 281.29C62.1864 281.337 62.1724 281.388 62.1537 281.444C62.1351 281.5 62.1234 281.533 62.1187 281.542L61.5587 282.9ZM65.083 279.701C65.125 279.766 65.2113 279.892 65.342 280.079C65.4773 280.261 65.6313 280.473 65.804 280.716C65.9813 280.959 66.168 281.218 66.364 281.493C66.56 281.764 66.7443 282.02 66.917 282.263C67.0896 282.501 67.239 282.709 67.365 282.886C67.4956 283.063 67.582 283.18 67.624 283.236C67.638 283.213 67.6823 283.15 67.757 283.047C67.8316 282.944 67.9226 282.816 68.03 282.662C68.142 282.508 68.268 282.335 68.408 282.144C68.548 281.948 68.6903 281.75 68.835 281.549C68.9843 281.344 69.129 281.141 69.269 280.94C69.4136 280.739 69.5466 280.557 69.668 280.394C69.7893 280.226 69.892 280.081 69.976 279.96C70.0646 279.834 70.1276 279.748 70.165 279.701V285H69.353V282.158C69.353 282.121 69.3553 282.081 69.36 282.039C69.3693 281.997 69.374 281.967 69.374 281.948C69.332 282.004 69.2643 282.1 69.171 282.235C69.0823 282.366 68.9773 282.517 68.856 282.69C68.7393 282.858 68.6156 283.038 68.485 283.229C68.3543 283.416 68.2306 283.593 68.114 283.761C67.9973 283.929 67.8946 284.078 67.806 284.209C67.7173 284.335 67.6566 284.424 67.624 284.475C67.5913 284.433 67.526 284.347 67.428 284.216C67.3346 284.081 67.2226 283.924 67.092 283.747C66.966 283.57 66.8306 283.381 66.686 283.18C66.546 282.979 66.4153 282.793 66.294 282.62C66.1726 282.447 66.0676 282.3 65.979 282.179C65.8903 282.053 65.839 281.976 65.825 281.948C65.825 281.967 65.8273 281.997 65.832 282.039C65.8413 282.081 65.846 282.121 65.846 282.158V285H65.083V279.701ZM71.056 282.466C71.056 282.116 71.1237 281.785 71.259 281.472C71.3944 281.155 71.5787 280.877 71.812 280.639C72.05 280.401 72.3254 280.214 72.638 280.079C72.9507 279.939 73.2867 279.869 73.646 279.869C74.0007 279.869 74.3344 279.939 74.647 280.079C74.9644 280.214 75.2397 280.401 75.473 280.639C75.711 280.877 75.8977 281.155 76.033 281.472C76.173 281.785 76.243 282.116 76.243 282.466C76.243 282.825 76.173 283.161 76.033 283.474C75.8977 283.787 75.711 284.062 75.473 284.3C75.2397 284.533 74.9644 284.718 74.647 284.853C74.3344 284.988 74.0007 285.056 73.646 285.056C73.2867 285.056 72.9507 284.988 72.638 284.853C72.3254 284.718 72.05 284.533 71.812 284.3C71.5787 284.062 71.3944 283.787 71.259 283.474C71.1237 283.161 71.056 282.825 71.056 282.466ZM71.819 282.473C71.819 282.73 71.8657 282.972 71.959 283.201C72.057 283.425 72.19 283.621 72.358 283.789C72.526 283.957 72.722 284.09 72.946 284.188C73.17 284.286 73.408 284.335 73.66 284.335C73.912 284.335 74.1477 284.286 74.367 284.188C74.591 284.09 74.7847 283.957 74.948 283.789C75.116 283.621 75.2467 283.425 75.34 283.201C75.438 282.972 75.487 282.727 75.487 282.466C75.487 282.209 75.438 281.969 75.34 281.745C75.2467 281.516 75.116 281.318 74.948 281.15C74.78 280.982 74.584 280.849 74.36 280.751C74.1407 280.653 73.905 280.604 73.653 280.604C73.401 280.604 73.163 280.653 72.939 280.751C72.715 280.849 72.519 280.982 72.351 281.15C72.1877 281.318 72.057 281.516 71.959 281.745C71.8657 281.974 71.819 282.216 71.819 282.473ZM79.0107 285.056C78.7401 285.056 78.4881 285.012 78.2547 284.923C78.0214 284.834 77.8161 284.711 77.6387 284.552C77.4661 284.389 77.3284 284.195 77.2257 283.971C77.1277 283.742 77.0787 283.488 77.0787 283.208V279.925H77.8487V283.187C77.8487 283.35 77.8767 283.502 77.9327 283.642C77.9934 283.777 78.0751 283.899 78.1777 284.006C78.2851 284.109 78.4087 284.19 78.5487 284.251C78.6887 284.307 78.8427 284.335 79.0107 284.335C79.1741 284.335 79.3257 284.307 79.4657 284.251C79.6104 284.19 79.7341 284.109 79.8367 284.006C79.9441 283.899 80.0281 283.777 80.0887 283.642C80.1494 283.502 80.1797 283.35 80.1797 283.187V279.925H80.9497V283.208C80.9497 283.488 80.8984 283.742 80.7957 283.971C80.6977 284.195 80.5601 284.389 80.3827 284.552C80.2101 284.711 80.0047 284.834 79.7667 284.923C79.5334 285.012 79.2814 285.056 79.0107 285.056ZM86.5906 279.925V285.231C86.5253 285.147 86.3993 285.012 86.2126 284.825C86.026 284.638 85.8113 284.424 85.5686 284.181C85.326 283.938 85.067 283.684 84.7916 283.418C84.521 283.152 84.2643 282.9 84.0216 282.662C83.779 282.419 83.5666 282.205 83.3846 282.018C83.2026 281.827 83.0813 281.691 83.0206 281.612L82.8876 281.43L82.9086 281.654V285H82.1386V279.687C82.19 279.752 82.274 279.846 82.3906 279.967C82.512 280.088 82.652 280.231 82.8106 280.394C82.974 280.553 83.1513 280.725 83.3426 280.912C83.5386 281.099 83.7346 281.288 83.9306 281.479C84.1313 281.67 84.3273 281.859 84.5186 282.046C84.7146 282.228 84.892 282.398 85.0506 282.557C85.214 282.716 85.354 282.856 85.4706 282.977C85.5873 283.098 85.669 283.189 85.7156 283.25L85.8486 283.446L85.8276 283.208V279.925H86.5906ZM90.7938 279.925V280.653H89.5128V285H88.7498V280.653H87.4968V279.925H90.7938Z" fill="#C4C4C4"/>
<mask id="mask4" mask-type="alpha" maskUnits="userSpaceOnUse" x="54" y="235" width="42" height="42">
<circle cx="75" cy="256" r="21" fill="#C4C4C4"/>
</mask>
<g mask="url(#mask4)">
<line x1="51.6464" y1="279.646" x2="98.4926" y2="232.8" stroke="#C6C6C6"/>
<line x1="52.3566" y1="232.65" x2="98.3951" y2="279.496" stroke="#C6C6C6"/>
<line x1="51" y1="256.5" x2="99.4615" y2="256.5" stroke="#C6C6C6"/>
<line x1="74.5" y1="254" x2="74.5" y2="230.577" stroke="#C6C6C6"/>
</g>
<circle cx="75" cy="256" r="18" transform="rotate(-180 75 256)" fill="#222222"/>
<circle cx="75" cy="256" r="16" transform="rotate(-180 75 256)" fill="black"/>
<rect x="76" y="256" width="3" height="16" transform="rotate(-180 76 256)" fill="#E5E5E5"/>
<path d="M20.6935 346.205L20.4205 346.828C20.2292 346.758 20.0379 346.702 19.8465 346.66C19.6599 346.618 19.4802 346.597 19.3075 346.597C19.0135 346.597 18.7779 346.658 18.6005 346.779C18.4279 346.9 18.3415 347.054 18.3415 347.241C18.3415 347.4 18.4045 347.528 18.5305 347.626C18.6565 347.719 18.8129 347.806 18.9995 347.885C19.1862 347.96 19.3892 348.037 19.6085 348.116C19.8279 348.191 20.0309 348.289 20.2175 348.41C20.4042 348.531 20.5605 348.685 20.6865 348.872C20.8125 349.054 20.8755 349.29 20.8755 349.579C20.8755 349.803 20.8335 350.006 20.7495 350.188C20.6702 350.365 20.5489 350.519 20.3855 350.65C20.2269 350.781 20.0262 350.881 19.7835 350.951C19.5455 351.021 19.2655 351.056 18.9435 351.056C18.7382 351.056 18.5515 351.042 18.3835 351.014C18.2202 350.986 18.0709 350.951 17.9355 350.909C17.8049 350.862 17.6882 350.813 17.5855 350.762C17.4875 350.711 17.4035 350.664 17.3335 350.622L17.6695 349.957C17.8562 350.064 18.0639 350.151 18.2925 350.216C18.5212 350.281 18.7289 350.314 18.9155 350.314C19.0089 350.314 19.1232 350.302 19.2585 350.279C19.3985 350.256 19.5315 350.216 19.6575 350.16C19.7835 350.099 19.8909 350.02 19.9795 349.922C20.0729 349.824 20.1195 349.7 20.1195 349.551C20.1195 349.416 20.0822 349.301 20.0075 349.208C19.9375 349.11 19.8419 349.026 19.7205 348.956C19.6039 348.881 19.4685 348.816 19.3145 348.76C19.1652 348.699 19.0112 348.639 18.8525 348.578C18.6939 348.513 18.5375 348.445 18.3835 348.375C18.2342 348.305 18.0989 348.221 17.9775 348.123C17.8609 348.02 17.7652 347.904 17.6905 347.773C17.6205 347.638 17.5855 347.477 17.5855 347.29C17.5855 347.117 17.6205 346.947 17.6905 346.779C17.7605 346.611 17.8655 346.462 18.0055 346.331C18.1455 346.2 18.3182 346.095 18.5235 346.016C18.7335 345.937 18.9762 345.897 19.2515 345.897C19.4195 345.897 19.5829 345.911 19.7415 345.939C19.9049 345.967 20.0519 346 20.1825 346.037C20.3132 346.07 20.4229 346.102 20.5115 346.135C20.6049 346.168 20.6655 346.191 20.6935 346.205ZM21.7465 345.925H22.5095V351H21.7465V345.925ZM28.2083 345.925V351.231C28.143 351.147 28.017 351.012 27.8303 350.825C27.6436 350.638 27.429 350.424 27.1863 350.181C26.9436 349.938 26.6846 349.684 26.4093 349.418C26.1386 349.152 25.882 348.9 25.6393 348.662C25.3966 348.419 25.1843 348.205 25.0023 348.018C24.8203 347.827 24.699 347.691 24.6383 347.612L24.5053 347.43L24.5263 347.654V351H23.7563V345.687C23.8076 345.752 23.8916 345.846 24.0083 345.967C24.1296 346.088 24.2696 346.231 24.4283 346.394C24.5916 346.553 24.769 346.725 24.9603 346.912C25.1563 347.099 25.3523 347.288 25.5483 347.479C25.749 347.67 25.945 347.859 26.1363 348.046C26.3323 348.228 26.5096 348.398 26.6683 348.557C26.8316 348.716 26.9716 348.856 27.0883 348.977C27.205 349.098 27.2866 349.189 27.3333 349.25L27.4663 349.446L27.4453 349.208V345.925H28.2083Z" fill="#C4C4C4"/>
<circle cx="24" cy="331" r="9.5" fill="#616161" stroke="#C4C4C4"/>
<path d="M24 323L30.9282 327V335L24 339L17.0718 335V327L24 323Z" fill="#A5A5A5"/>
<circle cx="24" cy="331" r="5.5" fill="black" stroke="#E5E5E5"/>
<path d="M15.7324 272.466H16.4254C16.612 272.466 16.7684 272.433 16.8944 272.368C17.0204 272.303 17.1184 272.223 17.1884 272.13C17.263 272.037 17.3144 271.936 17.3424 271.829C17.375 271.722 17.3914 271.626 17.3914 271.542C17.3914 271.453 17.375 271.358 17.3424 271.255C17.3144 271.148 17.263 271.05 17.1884 270.961C17.1137 270.868 17.0134 270.791 16.8874 270.73C16.766 270.669 16.6144 270.639 16.4324 270.639H15.7324V272.466ZM14.9624 275V269.925H16.3484C16.6144 269.925 16.857 269.96 17.0764 270.03C17.3004 270.1 17.4917 270.205 17.6504 270.345C17.8137 270.48 17.9397 270.648 18.0284 270.849C18.117 271.045 18.1614 271.271 18.1614 271.528C18.1614 271.729 18.131 271.929 18.0704 272.13C18.0097 272.326 17.9117 272.503 17.7764 272.662C17.641 272.816 17.4637 272.942 17.2444 273.04C17.025 273.138 16.759 273.187 16.4464 273.187H15.7324V275H14.9624ZM20.8784 275.056C20.6077 275.056 20.3557 275.012 20.1224 274.923C19.8891 274.834 19.6837 274.711 19.5064 274.552C19.3337 274.389 19.1961 274.195 19.0934 273.971C18.9954 273.742 18.9464 273.488 18.9464 273.208V269.925H19.7164V273.187C19.7164 273.35 19.7444 273.502 19.8004 273.642C19.8611 273.777 19.9427 273.899 20.0454 274.006C20.1527 274.109 20.2764 274.19 20.4164 274.251C20.5564 274.307 20.7104 274.335 20.8784 274.335C21.0417 274.335 21.1934 274.307 21.3334 274.251C21.4781 274.19 21.6017 274.109 21.7044 274.006C21.8117 273.899 21.8957 273.777 21.9564 273.642C22.0171 273.502 22.0474 273.35 22.0474 273.187V269.925H22.8174V273.208C22.8174 273.488 22.7661 273.742 22.6634 273.971C22.5654 274.195 22.4277 274.389 22.2504 274.552C22.0777 274.711 21.8724 274.834 21.6344 274.923C21.4011 275.012 21.1491 275.056 20.8784 275.056ZM24.0063 275V269.925H24.7763V274.272H27.2963V275H24.0063ZM30.9103 270.205L30.6373 270.828C30.446 270.758 30.2547 270.702 30.0633 270.66C29.8767 270.618 29.697 270.597 29.5243 270.597C29.2303 270.597 28.9947 270.658 28.8173 270.779C28.6447 270.9 28.5583 271.054 28.5583 271.241C28.5583 271.4 28.6213 271.528 28.7473 271.626C28.8733 271.719 29.0297 271.806 29.2163 271.885C29.403 271.96 29.606 272.037 29.8253 272.116C30.0447 272.191 30.2477 272.289 30.4343 272.41C30.621 272.531 30.7773 272.685 30.9033 272.872C31.0293 273.054 31.0923 273.29 31.0923 273.579C31.0923 273.803 31.0503 274.006 30.9663 274.188C30.887 274.365 30.7657 274.519 30.6023 274.65C30.4437 274.781 30.243 274.881 30.0003 274.951C29.7623 275.021 29.4823 275.056 29.1603 275.056C28.955 275.056 28.7683 275.042 28.6003 275.014C28.437 274.986 28.2877 274.951 28.1523 274.909C28.0217 274.862 27.905 274.813 27.8023 274.762C27.7043 274.711 27.6203 274.664 27.5503 274.622L27.8863 273.957C28.073 274.064 28.2807 274.151 28.5093 274.216C28.738 274.281 28.9457 274.314 29.1323 274.314C29.2257 274.314 29.34 274.302 29.4753 274.279C29.6153 274.256 29.7483 274.216 29.8743 274.16C30.0003 274.099 30.1077 274.02 30.1963 273.922C30.2897 273.824 30.3363 273.7 30.3363 273.551C30.3363 273.416 30.299 273.301 30.2243 273.208C30.1543 273.11 30.0587 273.026 29.9373 272.956C29.8207 272.881 29.6853 272.816 29.5313 272.76C29.382 272.699 29.228 272.639 29.0693 272.578C28.9107 272.513 28.7543 272.445 28.6003 272.375C28.451 272.305 28.3157 272.221 28.1943 272.123C28.0777 272.02 27.982 271.904 27.9073 271.773C27.8373 271.638 27.8023 271.477 27.8023 271.29C27.8023 271.117 27.8373 270.947 27.9073 270.779C27.9773 270.611 28.0823 270.462 28.2223 270.331C28.3623 270.2 28.535 270.095 28.7403 270.016C28.9503 269.937 29.193 269.897 29.4683 269.897C29.6363 269.897 29.7997 269.911 29.9583 269.939C30.1217 269.967 30.2687 270 30.3993 270.037C30.53 270.07 30.6397 270.102 30.7283 270.135C30.8217 270.168 30.8823 270.191 30.9103 270.205ZM31.9633 275V269.925H35.2953V270.618H32.7333V272.102H35.0153V272.809H32.7333V274.293H35.3933V275H31.9633ZM20.2426 279.946C20.0746 280.389 19.8949 280.856 19.7036 281.346C19.5169 281.831 19.3303 282.31 19.1436 282.781C18.9616 283.252 18.7889 283.7 18.6256 284.125C18.4623 284.55 18.3246 284.916 18.2126 285.224L17.0786 282.389C17.0646 282.352 17.0529 282.324 17.0436 282.305C17.0343 282.286 17.0249 282.258 17.0156 282.221C17.0156 282.24 17.0133 282.258 17.0086 282.277C17.0039 282.291 16.9993 282.307 16.9946 282.326C16.9899 282.345 16.9853 282.363 16.9806 282.382C16.8219 282.746 16.6656 283.103 16.5116 283.453C16.4463 283.602 16.3786 283.756 16.3086 283.915C16.2386 284.074 16.1709 284.232 16.1056 284.391C16.0403 284.545 15.9749 284.694 15.9096 284.839C15.8489 284.984 15.7929 285.114 15.7416 285.231C15.4056 284.349 15.0673 283.469 14.7266 282.592C14.3859 281.715 14.0476 280.833 13.7116 279.946H14.5726C14.6846 280.254 14.7989 280.564 14.9156 280.877C15.0369 281.19 15.1489 281.491 15.2516 281.78C15.3589 282.069 15.4546 282.338 15.5386 282.585C15.6226 282.832 15.6879 283.042 15.7346 283.215L15.7906 283.46C15.7953 283.437 15.8069 283.399 15.8256 283.348C15.8443 283.292 15.8583 283.252 15.8676 283.229C15.8723 283.21 15.8886 283.168 15.9166 283.103C15.9446 283.038 15.9773 282.961 16.0146 282.872C16.0519 282.779 16.0939 282.678 16.1406 282.571C16.1873 282.464 16.2339 282.354 16.2806 282.242C16.3926 281.985 16.5163 281.701 16.6516 281.388C16.5723 281.169 16.5023 280.963 16.4416 280.772C16.3856 280.609 16.3319 280.448 16.2806 280.289C16.2339 280.13 16.1989 280.016 16.1756 279.946H16.9106C17.1113 280.473 17.2979 280.961 17.4706 281.409C17.5406 281.6 17.6106 281.792 17.6806 281.983C17.7553 282.174 17.8229 282.352 17.8836 282.515C17.9489 282.678 18.0049 282.823 18.0516 282.949C18.0983 283.07 18.1309 283.159 18.1496 283.215C18.1636 283.257 18.1729 283.299 18.1776 283.341C18.1869 283.378 18.1963 283.418 18.2056 283.46C18.2149 283.418 18.2219 283.376 18.2266 283.334C18.2359 283.292 18.2453 283.252 18.2546 283.215C18.2966 283.033 18.3619 282.816 18.4506 282.564C18.5393 282.312 18.6373 282.041 18.7446 281.752C18.8566 281.463 18.9733 281.164 19.0946 280.856C19.2159 280.543 19.3326 280.24 19.4446 279.946H20.2426ZM20.9233 279.925H21.6863V285H20.9233V279.925ZM22.9331 279.925H24.2071C24.7204 279.925 25.1544 280.002 25.5091 280.156C25.8637 280.31 26.1507 280.513 26.3701 280.765C26.5941 281.012 26.7551 281.292 26.8531 281.605C26.9557 281.913 27.0071 282.221 27.0071 282.529C27.0071 282.907 26.9394 283.25 26.8041 283.558C26.6687 283.861 26.4844 284.12 26.2511 284.335C26.0177 284.55 25.7471 284.715 25.4391 284.832C25.1311 284.944 24.8044 285 24.4591 285H22.9331V279.925ZM24.3471 284.272C24.6177 284.272 24.8674 284.232 25.0961 284.153C25.3294 284.074 25.5301 283.959 25.6981 283.81C25.8707 283.656 26.0037 283.469 26.0971 283.25C26.1951 283.026 26.2441 282.769 26.2441 282.48C26.2441 282.172 26.1904 281.904 26.0831 281.675C25.9757 281.446 25.8357 281.257 25.6631 281.108C25.4904 280.954 25.2944 280.842 25.0751 280.772C24.8604 280.697 24.6411 280.66 24.4171 280.66H23.6961V284.272H24.3471ZM30.7406 279.925V280.653H29.4596V285H28.6966V280.653H27.4436V279.925H30.7406ZM31.642 285V279.925H32.405V282.081H34.946V279.925H35.716C35.716 279.986 35.716 280.1 35.716 280.268C35.716 280.431 35.716 280.627 35.716 280.856C35.716 281.085 35.716 281.339 35.716 281.619C35.716 281.894 35.7137 282.177 35.709 282.466C35.709 282.751 35.709 283.033 35.709 283.313C35.709 283.588 35.709 283.84 35.709 284.069C35.709 284.298 35.709 284.496 35.709 284.664C35.709 284.827 35.709 284.939 35.709 285H34.946V282.809H32.405V285H31.642Z" fill="#C4C4C4"/>
<circle cx="24" cy="256" r="9.5" fill="#616161" stroke="#C4C4C4"/>
<path d="M24 248L30.9282 252V260L24 264L17.0718 260V252L24 248Z" fill="#A5A5A5"/>
<circle cx="24" cy="256" r="5.5" fill="black" stroke="#E5E5E5"/>
<path d="M49.32 17.742C49.32 17.292 49.407 16.866 49.581 16.464C49.755 16.056 49.992 15.699 50.292 15.393C50.598 15.087 50.952 14.847 51.354 14.673C51.756 14.493 52.188 14.403 52.65 14.403C53.106 14.403 53.535 14.493 53.937 14.673C54.345 14.847 54.699 15.087 54.999 15.393C55.305 15.699 55.545 16.056 55.719 16.464C55.899 16.866 55.989 17.292 55.989 17.742C55.989 18.204 55.899 18.636 55.719 19.038C55.545 19.44 55.305 19.794 54.999 20.1C54.699 20.4 54.345 20.637 53.937 20.811C53.535 20.985 53.106 21.072 52.65 21.072C52.188 21.072 51.756 20.985 51.354 20.811C50.952 20.637 50.598 20.4 50.292 20.1C49.992 19.794 49.755 19.44 49.581 19.038C49.407 18.636 49.32 18.204 49.32 17.742ZM50.301 17.751C50.301 18.081 50.361 18.393 50.481 18.687C50.607 18.975 50.778 19.227 50.994 19.443C51.21 19.659 51.462 19.83 51.75 19.956C52.038 20.082 52.344 20.145 52.668 20.145C52.992 20.145 53.295 20.082 53.577 19.956C53.865 19.83 54.114 19.659 54.324 19.443C54.54 19.227 54.708 18.975 54.828 18.687C54.954 18.393 55.017 18.078 55.017 17.742C55.017 17.412 54.954 17.103 54.828 16.815C54.708 16.521 54.54 16.266 54.324 16.05C54.108 15.834 53.856 15.663 53.568 15.537C53.286 15.411 52.983 15.348 52.659 15.348C52.335 15.348 52.029 15.411 51.741 15.537C51.453 15.663 51.201 15.834 50.985 16.05C50.775 16.266 50.607 16.521 50.481 16.815C50.361 17.109 50.301 17.421 50.301 17.751ZM60.8089 14.835L60.4579 15.636C60.2119 15.546 59.9659 15.474 59.7199 15.42C59.4799 15.366 59.2489 15.339 59.0269 15.339C58.6489 15.339 58.3459 15.417 58.1179 15.573C57.8959 15.729 57.7849 15.927 57.7849 16.167C57.7849 16.371 57.8659 16.536 58.0279 16.662C58.1899 16.782 58.3909 16.893 58.6309 16.995C58.8709 17.091 59.1319 17.19 59.4139 17.292C59.6959 17.388 59.9569 17.514 60.1969 17.67C60.4369 17.826 60.6379 18.024 60.7999 18.264C60.9619 18.498 61.0429 18.801 61.0429 19.173C61.0429 19.461 60.9889 19.722 60.8809 19.956C60.7789 20.184 60.6229 20.382 60.4129 20.55C60.2089 20.718 59.9509 20.847 59.6389 20.937C59.3329 21.027 58.9729 21.072 58.5589 21.072C58.2949 21.072 58.0549 21.054 57.8389 21.018C57.6289 20.982 57.4369 20.937 57.2629 20.883C57.0949 20.823 56.9449 20.76 56.8129 20.694C56.6869 20.628 56.5789 20.568 56.4889 20.514L56.9209 19.659C57.1609 19.797 57.4279 19.908 57.7219 19.992C58.0159 20.076 58.2829 20.118 58.5229 20.118C58.6429 20.118 58.7899 20.103 58.9639 20.073C59.1439 20.043 59.3149 19.992 59.4769 19.92C59.6389 19.842 59.7769 19.74 59.8909 19.614C60.0109 19.488 60.0709 19.329 60.0709 19.137C60.0709 18.963 60.0229 18.816 59.9269 18.696C59.8369 18.57 59.7139 18.462 59.5579 18.372C59.4079 18.276 59.2339 18.192 59.0359 18.12C58.8439 18.042 58.6459 17.964 58.4419 17.886C58.2379 17.802 58.0369 17.715 57.8389 17.625C57.6469 17.535 57.4729 17.427 57.3169 17.301C57.1669 17.169 57.0439 17.019 56.9479 16.851C56.8579 16.677 56.8129 16.47 56.8129 16.23C56.8129 16.008 56.8579 15.789 56.9479 15.573C57.0379 15.357 57.1729 15.165 57.3529 14.997C57.5329 14.829 57.7549 14.694 58.0189 14.592C58.2889 14.49 58.6009 14.439 58.9549 14.439C59.1709 14.439 59.3809 14.457 59.5849 14.493C59.7949 14.529 59.9839 14.571 60.1519 14.619C60.3199 14.661 60.4609 14.703 60.5749 14.745C60.6949 14.787 60.7729 14.817 60.8089 14.835ZM67.0048 20.532C66.9328 20.586 66.8308 20.646 66.6988 20.712C66.5728 20.772 66.4228 20.829 66.2488 20.883C66.0748 20.937 65.8798 20.982 65.6638 21.018C65.4538 21.054 65.2288 21.072 64.9888 21.072C64.4788 21.072 64.0198 20.985 63.6118 20.811C63.2098 20.631 62.8678 20.391 62.5858 20.091C62.3038 19.791 62.0878 19.443 61.9378 19.047C61.7878 18.651 61.7128 18.231 61.7128 17.787C61.7128 17.295 61.7998 16.842 61.9738 16.428C62.1538 16.014 62.3968 15.657 62.7028 15.357C63.0088 15.057 63.3658 14.823 63.7738 14.655C64.1878 14.487 64.6258 14.403 65.0878 14.403C65.2618 14.403 65.4388 14.415 65.6188 14.439C65.7988 14.463 65.9668 14.496 66.1228 14.538C66.2848 14.58 66.4258 14.631 66.5458 14.691C66.6718 14.745 66.7678 14.802 66.8338 14.862C66.7858 14.934 66.7468 14.994 66.7168 15.042C66.6928 15.09 66.6658 15.141 66.6358 15.195C66.6058 15.243 66.5728 15.3 66.5368 15.366C66.5008 15.432 66.4528 15.519 66.3928 15.627C66.3148 15.573 66.2218 15.528 66.1138 15.492C66.0118 15.456 65.9038 15.426 65.7898 15.402C65.6758 15.378 65.5588 15.36 65.4388 15.348C65.3248 15.336 65.2198 15.33 65.1238 15.33C64.7758 15.33 64.4518 15.396 64.1518 15.528C63.8578 15.654 63.6028 15.828 63.3868 16.05C63.1708 16.266 62.9998 16.518 62.8738 16.806C62.7538 17.094 62.6938 17.394 62.6938 17.706C62.6938 18.012 62.7508 18.306 62.8648 18.588C62.9848 18.87 63.1468 19.122 63.3508 19.344C63.5608 19.566 63.8098 19.743 64.0978 19.875C64.3918 20.007 64.7128 20.073 65.0608 20.073C65.2468 20.073 65.4268 20.055 65.6008 20.019C65.7748 19.983 65.9308 19.941 66.0688 19.893C66.2128 19.845 66.3298 19.797 66.4198 19.749C66.5158 19.701 66.5728 19.665 66.5908 19.641L67.0048 20.532ZM67.9021 14.475H68.8831V21H67.9021V14.475ZM70.4861 21V14.475H71.4761V20.064H74.7161V21H70.4861ZM75.6277 21V14.475H76.6177V20.064H79.8577V21H75.6277ZM84.8103 21C84.7803 20.934 84.7383 20.838 84.6843 20.712C84.6303 20.586 84.5673 20.442 84.4953 20.28C84.4293 20.112 84.3543 19.932 84.2703 19.74C84.1923 19.542 84.1113 19.338 84.0273 19.128H81.7233L80.9493 21H79.9773L82.8843 14.169C82.9203 14.253 82.9833 14.406 83.0733 14.628C83.1693 14.85 83.2803 15.117 83.4063 15.429C83.5383 15.735 83.6823 16.077 83.8383 16.455C84.0003 16.827 84.1623 17.205 84.3243 17.589C84.4923 17.973 84.6543 18.351 84.8103 18.723C84.9723 19.095 85.1193 19.437 85.2513 19.749C85.3833 20.061 85.4943 20.328 85.5843 20.55C85.6803 20.766 85.7463 20.916 85.7823 21H84.8103ZM82.0653 18.3H83.6943C83.6103 18.102 83.5293 17.913 83.4513 17.733C83.3793 17.547 83.3103 17.379 83.2443 17.229C83.1843 17.073 83.1303 16.938 83.0823 16.824C83.0343 16.71 82.9983 16.62 82.9743 16.554C82.9683 16.542 82.9533 16.5 82.9293 16.428C82.9113 16.356 82.8963 16.29 82.8843 16.23C82.8723 16.29 82.8543 16.356 82.8303 16.428C82.8063 16.5 82.7913 16.542 82.7853 16.554L82.0653 18.3ZM89.8055 14.475V15.411H88.1585V21H87.1775V15.411H85.5665V14.475H89.8055ZM90.3562 17.742C90.3562 17.292 90.4432 16.866 90.6172 16.464C90.7912 16.056 91.0282 15.699 91.3282 15.393C91.6342 15.087 91.9882 14.847 92.3902 14.673C92.7922 14.493 93.2242 14.403 93.6862 14.403C94.1422 14.403 94.5712 14.493 94.9732 14.673C95.3812 14.847 95.7352 15.087 96.0352 15.393C96.3412 15.699 96.5812 16.056 96.7552 16.464C96.9352 16.866 97.0252 17.292 97.0252 17.742C97.0252 18.204 96.9352 18.636 96.7552 19.038C96.5812 19.44 96.3412 19.794 96.0352 20.1C95.7352 20.4 95.3812 20.637 94.9732 20.811C94.5712 20.985 94.1422 21.072 93.6862 21.072C93.2242 21.072 92.7922 20.985 92.3902 20.811C91.9882 20.637 91.6342 20.4 91.3282 20.1C91.0282 19.794 90.7912 19.44 90.6172 19.038C90.4432 18.636 90.3562 18.204 90.3562 17.742ZM91.3372 17.751C91.3372 18.081 91.3972 18.393 91.5172 18.687C91.6432 18.975 91.8142 19.227 92.0302 19.443C92.2462 19.659 92.4982 19.83 92.7862 19.956C93.0742 20.082 93.3802 20.145 93.7042 20.145C94.0282 20.145 94.3312 20.082 94.6132 19.956C94.9012 19.83 95.1502 19.659 95.3602 19.443C95.5762 19.227 95.7442 18.975 95.8642 18.687C95.9902 18.393 96.0532 18.078 96.0532 17.742C96.0532 17.412 95.9902 17.103 95.8642 16.815C95.7442 16.521 95.5762 16.266 95.3602 16.05C95.1442 15.834 94.8922 15.663 94.6042 15.537C94.3222 15.411 94.0192 15.348 93.6952 15.348C93.3712 15.348 93.0652 15.411 92.7772 15.537C92.4892 15.663 92.2372 15.834 92.0212 16.05C91.8112 16.266 91.6432 16.521 91.5172 16.815C91.3972 17.109 91.3372 17.421 91.3372 17.751ZM98.1716 21V14.475H99.9536C100.296 14.475 100.608 14.52 100.89 14.61C101.178 14.7 101.424 14.835 101.628 15.015C101.838 15.189 102 15.405 102.114 15.663C102.228 15.915 102.285 16.206 102.285 16.536C102.285 16.716 102.267 16.896 102.231 17.076C102.195 17.25 102.135 17.421 102.051 17.589C101.973 17.751 101.871 17.904 101.745 18.048C101.619 18.186 101.466 18.303 101.286 18.399C101.526 18.777 101.787 19.197 102.069 19.659C102.351 20.115 102.636 20.562 102.924 21H101.745C101.625 20.814 101.499 20.619 101.367 20.415C101.241 20.211 101.112 20.01 100.98 19.812C100.854 19.608 100.728 19.41 100.602 19.218C100.482 19.02 100.368 18.837 100.26 18.669H100.08H99.1616V21H98.1716ZM99.1616 17.742H100.053C100.293 17.742 100.494 17.703 100.656 17.625C100.818 17.541 100.944 17.439 101.034 17.319C101.13 17.199 101.196 17.07 101.232 16.932C101.274 16.794 101.295 16.668 101.295 16.554C101.295 16.44 101.274 16.317 101.232 16.185C101.196 16.047 101.13 15.921 101.034 15.807C100.938 15.687 100.809 15.588 100.647 15.51C100.491 15.432 100.296 15.393 100.062 15.393H99.1616V17.742Z" fill="#C4C4C4"/>
<circle cx="58" cy="331" r="9.5" fill="#616161" stroke="#C4C4C4"/>
<path d="M58 323L64.9282 327V335L58 339L51.0718 335V327L58 323Z" fill="#A5A5A5"/>
<circle cx="58" cy="331" r="5.5" fill="black" stroke="#E5E5E5"/>
<circle cx="92" cy="331" r="9.5" fill="#616161" stroke="#C4C4C4"/>
<path d="M92 323L98.9282 327V335L92 339L85.0718 335V327L92 323Z" fill="#A5A5A5"/>
<circle cx="92" cy="331" r="5.5" fill="black" stroke="#E5E5E5"/>
<path d="M18.5166 207V201.925H21.5546V202.632H19.2796V204.165H21.2676V204.879H19.2796V207H18.5166ZM22.3994 201.701C22.4414 201.766 22.5277 201.892 22.6584 202.079C22.7937 202.261 22.9477 202.473 23.1204 202.716C23.2977 202.959 23.4844 203.218 23.6804 203.493C23.8764 203.764 24.0607 204.02 24.2334 204.263C24.406 204.501 24.5554 204.709 24.6814 204.886C24.812 205.063 24.8984 205.18 24.9404 205.236C24.9544 205.213 24.9987 205.15 25.0734 205.047C25.148 204.944 25.239 204.816 25.3464 204.662C25.4584 204.508 25.5844 204.335 25.7244 204.144C25.8644 203.948 26.0067 203.75 26.1514 203.549C26.3007 203.344 26.4454 203.141 26.5854 202.94C26.73 202.739 26.863 202.557 26.9844 202.394C27.1057 202.226 27.2084 202.081 27.2924 201.96C27.381 201.834 27.444 201.748 27.4814 201.701V207H26.6694V204.158C26.6694 204.121 26.6717 204.081 26.6764 204.039C26.6857 203.997 26.6904 203.967 26.6904 203.948C26.6484 204.004 26.5807 204.1 26.4874 204.235C26.3987 204.366 26.2937 204.517 26.1724 204.69C26.0557 204.858 25.932 205.038 25.8014 205.229C25.6707 205.416 25.547 205.593 25.4304 205.761C25.3137 205.929 25.211 206.078 25.1224 206.209C25.0337 206.335 24.973 206.424 24.9404 206.475C24.9077 206.433 24.8424 206.347 24.7444 206.216C24.651 206.081 24.539 205.924 24.4084 205.747C24.2824 205.57 24.147 205.381 24.0024 205.18C23.8624 204.979 23.7317 204.793 23.6104 204.62C23.489 204.447 23.384 204.3 23.2954 204.179C23.2067 204.053 23.1554 203.976 23.1414 203.948C23.1414 203.967 23.1437 203.997 23.1484 204.039C23.1577 204.081 23.1624 204.121 23.1624 204.158V207H22.3994V201.701Z" fill="#C4C4C4"/>
<circle cx="24" cy="178" r="9.5" fill="#616161" stroke="#C4C4C4"/>
<path d="M24 170L30.9282 174V182L24 186L17.0718 182V174L24 170Z" fill="#A5A5A5"/>
<circle cx="24" cy="178" r="5.5" fill="black" stroke="#E5E5E5"/>
<path d="M14.1811 115.925C14.2138 116.004 14.2675 116.135 14.3421 116.317C14.4168 116.494 14.5008 116.697 14.5941 116.926C14.6921 117.155 14.7925 117.397 14.8951 117.654C15.0025 117.911 15.1028 118.153 15.1961 118.382C15.2895 118.611 15.3735 118.816 15.4481 118.998C15.5228 119.175 15.5765 119.304 15.6091 119.383C15.6138 119.392 15.6255 119.425 15.6441 119.481C15.6628 119.537 15.6768 119.586 15.6861 119.628L15.7561 119.383C15.7888 119.304 15.8425 119.175 15.9171 118.998C15.9918 118.816 16.0758 118.611 16.1691 118.382C16.2625 118.153 16.3605 117.911 16.4631 117.654C16.5705 117.397 16.6708 117.155 16.7641 116.926C16.8621 116.697 16.9485 116.494 17.0231 116.317C17.0978 116.135 17.1515 116.004 17.1841 115.925H17.9401C17.9121 115.99 17.8608 116.109 17.7861 116.282C17.7161 116.45 17.6298 116.655 17.5271 116.898C17.4245 117.141 17.3101 117.407 17.1841 117.696C17.0628 117.985 16.9368 118.279 16.8061 118.578C16.6801 118.877 16.5541 119.171 16.4281 119.46C16.3068 119.749 16.1948 120.015 16.0921 120.258C15.9941 120.501 15.9078 120.708 15.8331 120.881C15.7631 121.049 15.7141 121.166 15.6861 121.231L13.4251 115.925H14.1811ZM17.7775 121.133L19.7515 115.778H20.4025C20.0665 116.674 19.7352 117.568 19.4085 118.459C19.0865 119.346 18.7575 120.237 18.4215 121.133H17.7775ZM20.8139 118.466C20.8139 118.116 20.8815 117.785 21.0169 117.472C21.1522 117.155 21.3365 116.877 21.5699 116.639C21.8079 116.401 22.0832 116.214 22.3959 116.079C22.7085 115.939 23.0445 115.869 23.4039 115.869C23.7585 115.869 24.0922 115.939 24.4049 116.079C24.7222 116.214 24.9975 116.401 25.2309 116.639C25.4689 116.877 25.6555 117.155 25.7909 117.472C25.9309 117.785 26.0009 118.116 26.0009 118.466C26.0009 118.825 25.9309 119.161 25.7909 119.474C25.6555 119.787 25.4689 120.062 25.2309 120.3C24.9975 120.533 24.7222 120.718 24.4049 120.853C24.0922 120.988 23.7585 121.056 23.4039 121.056C23.0445 121.056 22.7085 120.988 22.3959 120.853C22.0832 120.718 21.8079 120.533 21.5699 120.3C21.3365 120.062 21.1522 119.787 21.0169 119.474C20.8815 119.161 20.8139 118.825 20.8139 118.466ZM21.5769 118.473C21.5769 118.73 21.6235 118.972 21.7169 119.201C21.8149 119.425 21.9479 119.621 22.1159 119.789C22.2839 119.957 22.4799 120.09 22.7039 120.188C22.9279 120.286 23.1659 120.335 23.4179 120.335C23.6699 120.335 23.9055 120.286 24.1249 120.188C24.3489 120.09 24.5425 119.957 24.7059 119.789C24.8739 119.621 25.0045 119.425 25.0979 119.201C25.1959 118.972 25.2449 118.727 25.2449 118.466C25.2449 118.209 25.1959 117.969 25.0979 117.745C25.0045 117.516 24.8739 117.318 24.7059 117.15C24.5379 116.982 24.3419 116.849 24.1179 116.751C23.8985 116.653 23.6629 116.604 23.4109 116.604C23.1589 116.604 22.9209 116.653 22.6969 116.751C22.4729 116.849 22.2769 116.982 22.1089 117.15C21.9455 117.318 21.8149 117.516 21.7169 117.745C21.6235 117.974 21.5769 118.216 21.5769 118.473ZM30.6585 120.636C30.6025 120.678 30.5232 120.725 30.4205 120.776C30.3225 120.823 30.2059 120.867 30.0705 120.909C29.9352 120.951 29.7835 120.986 29.6155 121.014C29.4522 121.042 29.2772 121.056 29.0905 121.056C28.6939 121.056 28.3369 120.988 28.0195 120.853C27.7069 120.713 27.4409 120.526 27.2215 120.293C27.0022 120.06 26.8342 119.789 26.7175 119.481C26.6009 119.173 26.5425 118.846 26.5425 118.501C26.5425 118.118 26.6102 117.766 26.7455 117.444C26.8855 117.122 27.0745 116.844 27.3125 116.611C27.5505 116.378 27.8282 116.196 28.1455 116.065C28.4675 115.934 28.8082 115.869 29.1675 115.869C29.3029 115.869 29.4405 115.878 29.5805 115.897C29.7205 115.916 29.8512 115.941 29.9725 115.974C30.0985 116.007 30.2082 116.046 30.3015 116.093C30.3995 116.135 30.4742 116.179 30.5255 116.226C30.4882 116.282 30.4579 116.329 30.4345 116.366C30.4159 116.403 30.3949 116.443 30.3715 116.485C30.3482 116.522 30.3225 116.567 30.2945 116.618C30.2665 116.669 30.2292 116.737 30.1825 116.821C30.1219 116.779 30.0495 116.744 29.9655 116.716C29.8862 116.688 29.8022 116.665 29.7135 116.646C29.6249 116.627 29.5339 116.613 29.4405 116.604C29.3519 116.595 29.2702 116.59 29.1955 116.59C28.9249 116.59 28.6729 116.641 28.4395 116.744C28.2109 116.842 28.0125 116.977 27.8445 117.15C27.6765 117.318 27.5435 117.514 27.4455 117.738C27.3522 117.962 27.3055 118.195 27.3055 118.438C27.3055 118.676 27.3499 118.905 27.4385 119.124C27.5319 119.343 27.6579 119.539 27.8165 119.712C27.9799 119.885 28.1735 120.022 28.3975 120.125C28.6262 120.228 28.8759 120.279 29.1465 120.279C29.2912 120.279 29.4312 120.265 29.5665 120.237C29.7019 120.209 29.8232 120.176 29.9305 120.139C30.0425 120.102 30.1335 120.064 30.2035 120.027C30.2782 119.99 30.3225 119.962 30.3365 119.943L30.6585 120.636ZM34.3104 115.925V116.653H33.0294V121H32.2664V116.653H31.0134V115.925H34.3104Z" fill="#C4C4C4"/>
<circle cx="24" cy="92" r="9.5" fill="#616161" stroke="#C4C4C4"/>
<path d="M24 84L30.9282 88V96L24 100L17.0718 96V88L24 84Z" fill="#A5A5A5"/>
<circle cx="24" cy="92" r="5.5" fill="black" stroke="#E5E5E5"/>
<circle cx="125" cy="331" r="9.5" fill="#616161" stroke="#C4C4C4"/>
<path d="M125 323L131.928 327V335L125 339L118.072 335V327L125 323Z" fill="#A5A5A5"/>
<circle cx="125" cy="331" r="5.5" fill="black" stroke="#E5E5E5"/>
<line x1="50" y1="256.5" x2="38" y2="256.5" stroke="#E5E5E5"/>
<line x1="50" y1="92.5" x2="38" y2="92.5" stroke="#E5E5E5"/>
<line x1="50" y1="178.5" x2="38" y2="178.5" stroke="#E5E5E5"/>
<line x1="125.5" y1="289" x2="125.5" y2="310" stroke="#E5E5E5"/>
<line x1="75.5" y1="128" x2="75.5" y2="149" stroke="#E5E5E5"/>
<circle cx="75.5" cy="41.5" r="8.5" fill="#161616"/>
<circle cx="75.5" cy="41.5" r="7.5" fill="#EB5757"/>
<g filter="url(#filter0_d)">
<ellipse cx="73.9397" cy="36.658" rx="3" ry="1" transform="rotate(-20 73.9397 36.658)" fill="#C4C4C4"/>
</g>
<rect x="7" y="313" width="32" height="54" fill="#161616"/>
<path d="M61.9764 376V371.65H63.1644C63.3924 371.65 63.6004 371.68 63.7884 371.74C63.9804 371.8 64.1444 371.89 64.2804 372.01C64.4204 372.126 64.5284 372.27 64.6044 372.442C64.6804 372.61 64.7184 372.804 64.7184 373.024C64.7184 373.144 64.7064 373.264 64.6824 373.384C64.6584 373.5 64.6184 373.614 64.5624 373.726C64.5104 373.834 64.4424 373.936 64.3584 374.032C64.2744 374.124 64.1724 374.202 64.0524 374.266C64.2124 374.518 64.3864 374.798 64.5744 375.106C64.7624 375.41 64.9524 375.708 65.1444 376H64.3584C64.2784 375.876 64.1944 375.746 64.1064 375.61C64.0224 375.474 63.9364 375.34 63.8484 375.208C63.7644 375.072 63.6804 374.94 63.5964 374.812C63.5164 374.68 63.4404 374.558 63.3684 374.446H63.2484H62.6364V376H61.9764ZM62.6364 373.828H63.2304C63.3904 373.828 63.5244 373.802 63.6324 373.75C63.7404 373.694 63.8244 373.626 63.8844 373.546C63.9484 373.466 63.9924 373.38 64.0164 373.288C64.0444 373.196 64.0584 373.112 64.0584 373.036C64.0584 372.96 64.0444 372.878 64.0164 372.79C63.9924 372.698 63.9484 372.614 63.8844 372.538C63.8204 372.458 63.7344 372.392 63.6264 372.34C63.5224 372.288 63.3924 372.262 63.2364 372.262H62.6364V373.828ZM68.438 376C68.418 375.956 68.39 375.892 68.354 375.808C68.318 375.724 68.276 375.628 68.228 375.52C68.184 375.408 68.134 375.288 68.078 375.16C68.026 375.028 67.972 374.892 67.916 374.752H66.38L65.864 376H65.216L67.154 371.446C67.178 371.502 67.22 371.604 67.28 371.752C67.344 371.9 67.418 372.078 67.502 372.286C67.59 372.49 67.686 372.718 67.79 372.97C67.898 373.218 68.006 373.47 68.114 373.726C68.226 373.982 68.334 374.234 68.438 374.482C68.546 374.73 68.644 374.958 68.732 375.166C68.82 375.374 68.894 375.552 68.954 375.7C69.018 375.844 69.062 375.944 69.086 376H68.438ZM66.608 374.2H67.694C67.638 374.068 67.584 373.942 67.532 373.822C67.484 373.698 67.438 373.586 67.394 373.486C67.354 373.382 67.318 373.292 67.286 373.216C67.254 373.14 67.23 373.08 67.214 373.036C67.21 373.028 67.2 373 67.184 372.952C67.172 372.904 67.162 372.86 67.154 372.82C67.146 372.86 67.134 372.904 67.118 372.952C67.102 373 67.092 373.028 67.088 373.036L66.608 374.2ZM72.6927 375.688C72.6447 375.724 72.5767 375.764 72.4887 375.808C72.4047 375.848 72.3047 375.886 72.1887 375.922C72.0727 375.958 71.9427 375.988 71.7987 376.012C71.6587 376.036 71.5087 376.048 71.3487 376.048C71.0087 376.048 70.7027 375.99 70.4307 375.874C70.1627 375.754 69.9347 375.594 69.7467 375.394C69.5587 375.194 69.4147 374.962 69.3147 374.698C69.2147 374.434 69.1647 374.154 69.1647 373.858C69.1647 373.53 69.2227 373.228 69.3387 372.952C69.4587 372.676 69.6207 372.438 69.8247 372.238C70.0287 372.038 70.2667 371.882 70.5387 371.77C70.8147 371.658 71.1067 371.602 71.4147 371.602C71.5307 371.602 71.6487 371.61 71.7687 371.626C71.8887 371.642 72.0007 371.664 72.1047 371.692C72.2127 371.72 72.3067 371.754 72.3867 371.794C72.4707 371.83 72.5347 371.868 72.5787 371.908C72.5467 371.956 72.5207 371.996 72.5007 372.028C72.4847 372.06 72.4667 372.094 72.4467 372.13C72.4267 372.162 72.4047 372.2 72.3807 372.244C72.3567 372.288 72.3247 372.346 72.2847 372.418C72.2327 372.382 72.1707 372.352 72.0987 372.328C72.0307 372.304 71.9587 372.284 71.8827 372.268C71.8067 372.252 71.7287 372.24 71.6487 372.232C71.5727 372.224 71.5027 372.22 71.4387 372.22C71.2067 372.22 70.9907 372.264 70.7907 372.352C70.5947 372.436 70.4247 372.552 70.2807 372.7C70.1367 372.844 70.0227 373.012 69.9387 373.204C69.8587 373.396 69.8187 373.596 69.8187 373.804C69.8187 374.008 69.8567 374.204 69.9327 374.392C70.0127 374.58 70.1207 374.748 70.2567 374.896C70.3967 375.044 70.5627 375.162 70.7547 375.25C70.9507 375.338 71.1647 375.382 71.3967 375.382C71.5207 375.382 71.6407 375.37 71.7567 375.346C71.8727 375.322 71.9767 375.294 72.0687 375.262C72.1647 375.23 72.2427 375.198 72.3027 375.166C72.3667 375.134 72.4047 375.11 72.4167 375.094L72.6927 375.688ZM75.8708 376C75.7308 375.82 75.5968 375.648 75.4688 375.484C75.3408 375.32 75.2148 375.156 75.0908 374.992C74.9668 374.828 74.8408 374.662 74.7128 374.494C74.5888 374.326 74.4568 374.152 74.3168 373.972C74.2648 374.028 74.2148 374.08 74.1668 374.128C74.1188 374.172 74.0668 374.218 74.0108 374.266C74.0108 374.574 74.0108 374.864 74.0108 375.136C74.0148 375.404 74.0168 375.692 74.0168 376H73.2908V371.65H74.0168V373.276C74.0168 373.312 74.0128 373.348 74.0048 373.384C74.0008 373.416 73.9988 373.45 73.9988 373.486C74.0188 373.458 74.0388 373.434 74.0588 373.414C74.0788 373.39 74.0988 373.362 74.1188 373.33C74.4028 373.062 74.6768 372.784 74.9408 372.496C75.2048 372.204 75.4788 371.922 75.7628 371.65H76.5968C76.2968 371.962 75.9988 372.276 75.7028 372.592C75.4108 372.908 75.1148 373.222 74.8148 373.534C74.9828 373.75 75.1428 373.96 75.2948 374.164C75.4508 374.364 75.6028 374.564 75.7508 374.764C75.9028 374.964 76.0548 375.166 76.2068 375.37C76.3588 375.574 76.5168 375.784 76.6808 376H75.8708ZM77.1756 376V371.65H77.8356V375.376H79.9956V376H77.1756ZM80.6033 376V371.65H83.4593V372.244H81.2633V373.516H83.2193V374.122H81.2633V375.394H83.5433V376H80.6033ZM86.7965 371.89L86.5625 372.424C86.3985 372.364 86.2345 372.316 86.0705 372.28C85.9105 372.244 85.7565 372.226 85.6085 372.226C85.3565 372.226 85.1545 372.278 85.0025 372.382C84.8545 372.486 84.7805 372.618 84.7805 372.778C84.7805 372.914 84.8345 373.024 84.9425 373.108C85.0505 373.188 85.1845 373.262 85.3445 373.33C85.5045 373.394 85.6785 373.46 85.8665 373.528C86.0545 373.592 86.2285 373.676 86.3885 373.78C86.5485 373.884 86.6825 374.016 86.7905 374.176C86.8985 374.332 86.9525 374.534 86.9525 374.782C86.9525 374.974 86.9165 375.148 86.8445 375.304C86.7765 375.456 86.6725 375.588 86.5325 375.7C86.3965 375.812 86.2245 375.898 86.0165 375.958C85.8125 376.018 85.5725 376.048 85.2965 376.048C85.1205 376.048 84.9605 376.036 84.8165 376.012C84.6765 375.988 84.5485 375.958 84.4325 375.922C84.3205 375.882 84.2205 375.84 84.1325 375.796C84.0485 375.752 83.9765 375.712 83.9165 375.676L84.2045 375.106C84.3645 375.198 84.5425 375.272 84.7385 375.328C84.9345 375.384 85.1125 375.412 85.2725 375.412C85.3525 375.412 85.4505 375.402 85.5665 375.382C85.6865 375.362 85.8005 375.328 85.9085 375.28C86.0165 375.228 86.1085 375.16 86.1845 375.076C86.2645 374.992 86.3045 374.886 86.3045 374.758C86.3045 374.642 86.2725 374.544 86.2085 374.464C86.1485 374.38 86.0665 374.308 85.9625 374.248C85.8625 374.184 85.7465 374.128 85.6145 374.08C85.4865 374.028 85.3545 373.976 85.2185 373.924C85.0825 373.868 84.9485 373.81 84.8165 373.75C84.6885 373.69 84.5725 373.618 84.4685 373.534C84.3685 373.446 84.2865 373.346 84.2225 373.234C84.1625 373.118 84.1325 372.98 84.1325 372.82C84.1325 372.672 84.1625 372.526 84.2225 372.382C84.2825 372.238 84.3725 372.11 84.4925 371.998C84.6125 371.886 84.7605 371.796 84.9365 371.728C85.1165 371.66 85.3245 371.626 85.5605 371.626C85.7045 371.626 85.8445 371.638 85.9805 371.662C86.1205 371.686 86.2465 371.714 86.3585 371.746C86.4705 371.774 86.5645 371.802 86.6405 371.83C86.7205 371.858 86.7725 371.878 86.7965 371.89ZM90.189 371.89L89.955 372.424C89.791 372.364 89.627 372.316 89.463 372.28C89.303 372.244 89.149 372.226 89.001 372.226C88.749 372.226 88.547 372.278 88.395 372.382C88.247 372.486 88.173 372.618 88.173 372.778C88.173 372.914 88.227 373.024 88.335 373.108C88.443 373.188 88.577 373.262 88.737 373.33C88.897 373.394 89.071 373.46 89.259 373.528C89.447 373.592 89.621 373.676 89.781 373.78C89.941 373.884 90.075 374.016 90.183 374.176C90.291 374.332 90.345 374.534 90.345 374.782C90.345 374.974 90.309 375.148 90.237 375.304C90.169 375.456 90.065 375.588 89.925 375.7C89.789 375.812 89.617 375.898 89.409 375.958C89.205 376.018 88.965 376.048 88.689 376.048C88.513 376.048 88.353 376.036 88.209 376.012C88.069 375.988 87.941 375.958 87.825 375.922C87.713 375.882 87.613 375.84 87.525 375.796C87.441 375.752 87.369 375.712 87.309 375.676L87.597 375.106C87.757 375.198 87.935 375.272 88.131 375.328C88.327 375.384 88.505 375.412 88.665 375.412C88.745 375.412 88.843 375.402 88.959 375.382C89.079 375.362 89.193 375.328 89.301 375.28C89.409 375.228 89.501 375.16 89.577 375.076C89.657 374.992 89.697 374.886 89.697 374.758C89.697 374.642 89.665 374.544 89.601 374.464C89.541 374.38 89.459 374.308 89.355 374.248C89.255 374.184 89.139 374.128 89.007 374.08C88.879 374.028 88.747 373.976 88.611 373.924C88.475 373.868 88.341 373.81 88.209 373.75C88.081 373.69 87.965 373.618 87.861 373.534C87.761 373.446 87.679 373.346 87.615 373.234C87.555 373.118 87.525 372.98 87.525 372.82C87.525 372.672 87.555 372.526 87.615 372.382C87.675 372.238 87.765 372.11 87.885 371.998C88.005 371.886 88.153 371.796 88.329 371.728C88.509 371.66 88.717 371.626 88.953 371.626C89.097 371.626 89.237 371.638 89.373 371.662C89.513 371.686 89.639 371.714 89.751 371.746C89.863 371.774 89.957 371.802 90.033 371.83C90.113 371.858 90.165 371.878 90.189 371.89Z" fill="#C4C4C4"/>
<path d="M67.4902 121V115.925H70.5282V116.632H68.2532V118.165H70.2412V118.879H68.2532V121H67.4902ZM71.373 121V115.925H72.759C73.025 115.925 73.2677 115.96 73.487 116.03C73.711 116.1 73.9023 116.205 74.061 116.345C74.2243 116.48 74.3503 116.648 74.439 116.849C74.5277 117.045 74.572 117.271 74.572 117.528C74.572 117.668 74.558 117.808 74.53 117.948C74.502 118.083 74.4553 118.216 74.39 118.347C74.3293 118.473 74.25 118.592 74.152 118.704C74.054 118.811 73.935 118.902 73.795 118.977C73.9817 119.271 74.1847 119.598 74.404 119.957C74.6233 120.312 74.845 120.659 75.069 121H74.152C74.0587 120.855 73.9607 120.704 73.858 120.545C73.76 120.386 73.6597 120.23 73.557 120.076C73.459 119.917 73.361 119.763 73.263 119.614C73.1697 119.46 73.081 119.318 72.997 119.187H72.857H72.143V121H71.373ZM72.143 118.466H72.836C73.0227 118.466 73.179 118.436 73.305 118.375C73.431 118.31 73.529 118.23 73.599 118.137C73.6737 118.044 73.725 117.943 73.753 117.836C73.7857 117.729 73.802 117.631 73.802 117.542C73.802 117.453 73.7857 117.358 73.753 117.255C73.725 117.148 73.6737 117.05 73.599 116.961C73.5243 116.868 73.424 116.791 73.298 116.73C73.1767 116.669 73.025 116.639 72.843 116.639H72.143V118.466ZM75.7685 121V115.925H79.1005V116.618H76.5385V118.102H78.8205V118.809H76.5385V120.293H79.1985V121H75.7685ZM79.643 118.466C79.643 118.116 79.7106 117.785 79.846 117.472C79.9813 117.155 80.1656 116.877 80.399 116.639C80.6323 116.401 80.9053 116.214 81.218 116.079C81.5306 115.939 81.8666 115.869 82.226 115.869C82.5806 115.869 82.9143 115.939 83.227 116.079C83.5443 116.214 83.822 116.401 84.06 116.639C84.298 116.877 84.4846 117.155 84.62 117.472C84.76 117.785 84.83 118.116 84.83 118.466C84.83 118.825 84.767 119.161 84.641 119.474C84.515 119.787 84.34 120.074 84.116 120.335L84.991 120.272V121H82.772C82.6786 121.019 82.5876 121.033 82.499 121.042C82.4103 121.051 82.3193 121.056 82.226 121.056C81.8666 121.056 81.5306 120.988 81.218 120.853C80.9053 120.718 80.6323 120.533 80.399 120.3C80.1656 120.062 79.9813 119.787 79.846 119.474C79.7106 119.161 79.643 118.825 79.643 118.466ZM80.406 118.473C80.406 118.73 80.4526 118.972 80.546 119.201C80.644 119.425 80.7746 119.621 80.938 119.789C81.106 119.957 81.302 120.09 81.526 120.188C81.75 120.286 81.9903 120.335 82.247 120.335C82.499 120.335 82.7346 120.286 82.954 120.188C83.178 120.09 83.3716 119.957 83.535 119.789C83.703 119.621 83.8336 119.425 83.927 119.201C84.025 118.972 84.074 118.727 84.074 118.466C84.074 118.209 84.025 117.969 83.927 117.745C83.829 117.516 83.696 117.318 83.528 117.15C83.3646 116.982 83.171 116.849 82.947 116.751C82.723 116.653 82.485 116.604 82.233 116.604C81.981 116.604 81.743 116.653 81.519 116.751C81.295 116.849 81.1013 116.982 80.938 117.15C80.7746 117.318 80.644 117.516 80.546 117.745C80.4526 117.974 80.406 118.216 80.406 118.473Z" fill="#C4C4C4"/>
<mask id="mask5" mask-type="alpha" maskUnits="userSpaceOnUse" x="55" y="71" width="42" height="42">
<circle cx="76" cy="92" r="21" fill="#C4C4C4"/>
</mask>
<g mask="url(#mask5)">
<line x1="52.6464" y1="115.646" x2="99.4926" y2="68.8003" stroke="#C6C6C6"/>
<line x1="53.3566" y1="68.6495" x2="99.3951" y2="115.496" stroke="#C6C6C6"/>
<line x1="52" y1="92.5" x2="100.462" y2="92.5" stroke="#C6C6C6"/>
<line x1="75.5" y1="90" x2="75.5" y2="66.5769" stroke="#C6C6C6"/>
</g>
<circle cx="76" cy="92" r="18" transform="rotate(-180 76 92)" fill="#222222"/>
<circle cx="76" cy="92" r="16" transform="rotate(-180 76 92)" fill="black"/>
<rect x="77" y="92" width="3" height="16" transform="rotate(-180 77 92)" fill="#E5E5E5"/>
<circle cx="24" cy="331" r="9.5" fill="#616161" stroke="#C4C4C4"/>
<path d="M24 323L30.9282 327V335L24 339L17.0718 335V327L24 323Z" fill="#A5A5A5"/>
<circle cx="24" cy="331" r="5.5" fill="black" stroke="#E5E5E5"/>
<path d="M49.32 17.742C49.32 17.292 49.407 16.866 49.581 16.464C49.755 16.056 49.992 15.699 50.292 15.393C50.598 15.087 50.952 14.847 51.354 14.673C51.756 14.493 52.188 14.403 52.65 14.403C53.106 14.403 53.535 14.493 53.937 14.673C54.345 14.847 54.699 15.087 54.999 15.393C55.305 15.699 55.545 16.056 55.719 16.464C55.899 16.866 55.989 17.292 55.989 17.742C55.989 18.204 55.899 18.636 55.719 19.038C55.545 19.44 55.305 19.794 54.999 20.1C54.699 20.4 54.345 20.637 53.937 20.811C53.535 20.985 53.106 21.072 52.65 21.072C52.188 21.072 51.756 20.985 51.354 20.811C50.952 20.637 50.598 20.4 50.292 20.1C49.992 19.794 49.755 19.44 49.581 19.038C49.407 18.636 49.32 18.204 49.32 17.742ZM50.301 17.751C50.301 18.081 50.361 18.393 50.481 18.687C50.607 18.975 50.778 19.227 50.994 19.443C51.21 19.659 51.462 19.83 51.75 19.956C52.038 20.082 52.344 20.145 52.668 20.145C52.992 20.145 53.295 20.082 53.577 19.956C53.865 19.83 54.114 19.659 54.324 19.443C54.54 19.227 54.708 18.975 54.828 18.687C54.954 18.393 55.017 18.078 55.017 17.742C55.017 17.412 54.954 17.103 54.828 16.815C54.708 16.521 54.54 16.266 54.324 16.05C54.108 15.834 53.856 15.663 53.568 15.537C53.286 15.411 52.983 15.348 52.659 15.348C52.335 15.348 52.029 15.411 51.741 15.537C51.453 15.663 51.201 15.834 50.985 16.05C50.775 16.266 50.607 16.521 50.481 16.815C50.361 17.109 50.301 17.421 50.301 17.751ZM60.8089 14.835L60.4579 15.636C60.2119 15.546 59.9659 15.474 59.7199 15.42C59.4799 15.366 59.2489 15.339 59.0269 15.339C58.6489 15.339 58.3459 15.417 58.1179 15.573C57.8959 15.729 57.7849 15.927 57.7849 16.167C57.7849 16.371 57.8659 16.536 58.0279 16.662C58.1899 16.782 58.3909 16.893 58.6309 16.995C58.8709 17.091 59.1319 17.19 59.4139 17.292C59.6959 17.388 59.9569 17.514 60.1969 17.67C60.4369 17.826 60.6379 18.024 60.7999 18.264C60.9619 18.498 61.0429 18.801 61.0429 19.173C61.0429 19.461 60.9889 19.722 60.8809 19.956C60.7789 20.184 60.6229 20.382 60.4129 20.55C60.2089 20.718 59.9509 20.847 59.6389 20.937C59.3329 21.027 58.9729 21.072 58.5589 21.072C58.2949 21.072 58.0549 21.054 57.8389 21.018C57.6289 20.982 57.4369 20.937 57.2629 20.883C57.0949 20.823 56.9449 20.76 56.8129 20.694C56.6869 20.628 56.5789 20.568 56.4889 20.514L56.9209 19.659C57.1609 19.797 57.4279 19.908 57.7219 19.992C58.0159 20.076 58.2829 20.118 58.5229 20.118C58.6429 20.118 58.7899 20.103 58.9639 20.073C59.1439 20.043 59.3149 19.992 59.4769 19.92C59.6389 19.842 59.7769 19.74 59.8909 19.614C60.0109 19.488 60.0709 19.329 60.0709 19.137C60.0709 18.963 60.0229 18.816 59.9269 18.696C59.8369 18.57 59.7139 18.462 59.5579 18.372C59.4079 18.276 59.2339 18.192 59.0359 18.12C58.8439 18.042 58.6459 17.964 58.4419 17.886C58.2379 17.802 58.0369 17.715 57.8389 17.625C57.6469 17.535 57.4729 17.427 57.3169 17.301C57.1669 17.169 57.0439 17.019 56.9479 16.851C56.8579 16.677 56.8129 16.47 56.8129 16.23C56.8129 16.008 56.8579 15.789 56.9479 15.573C57.0379 15.357 57.1729 15.165 57.3529 14.997C57.5329 14.829 57.7549 14.694 58.0189 14.592C58.2889 14.49 58.6009 14.439 58.9549 14.439C59.1709 14.439 59.3809 14.457 59.5849 14.493C59.7949 14.529 59.9839 14.571 60.1519 14.619C60.3199 14.661 60.4609 14.703 60.5749 14.745C60.6949 14.787 60.7729 14.817 60.8089 14.835ZM67.0048 20.532C66.9328 20.586 66.8308 20.646 66.6988 20.712C66.5728 20.772 66.4228 20.829 66.2488 20.883C66.0748 20.937 65.8798 20.982 65.6638 21.018C65.4538 21.054 65.2288 21.072 64.9888 21.072C64.4788 21.072 64.0198 20.985 63.6118 20.811C63.2098 20.631 62.8678 20.391 62.5858 20.091C62.3038 19.791 62.0878 19.443 61.9378 19.047C61.7878 18.651 61.7128 18.231 61.7128 17.787C61.7128 17.295 61.7998 16.842 61.9738 16.428C62.1538 16.014 62.3968 15.657 62.7028 15.357C63.0088 15.057 63.3658 14.823 63.7738 14.655C64.1878 14.487 64.6258 14.403 65.0878 14.403C65.2618 14.403 65.4388 14.415 65.6188 14.439C65.7988 14.463 65.9668 14.496 66.1228 14.538C66.2848 14.58 66.4258 14.631 66.5458 14.691C66.6718 14.745 66.7678 14.802 66.8338 14.862C66.7858 14.934 66.7468 14.994 66.7168 15.042C66.6928 15.09 66.6658 15.141 66.6358 15.195C66.6058 15.243 66.5728 15.3 66.5368 15.366C66.5008 15.432 66.4528 15.519 66.3928 15.627C66.3148 15.573 66.2218 15.528 66.1138 15.492C66.0118 15.456 65.9038 15.426 65.7898 15.402C65.6758 15.378 65.5588 15.36 65.4388 15.348C65.3248 15.336 65.2198 15.33 65.1238 15.33C64.7758 15.33 64.4518 15.396 64.1518 15.528C63.8578 15.654 63.6028 15.828 63.3868 16.05C63.1708 16.266 62.9998 16.518 62.8738 16.806C62.7538 17.094 62.6938 17.394 62.6938 17.706C62.6938 18.012 62.7508 18.306 62.8648 18.588C62.9848 18.87 63.1468 19.122 63.3508 19.344C63.5608 19.566 63.8098 19.743 64.0978 19.875C64.3918 20.007 64.7128 20.073 65.0608 20.073C65.2468 20.073 65.4268 20.055 65.6008 20.019C65.7748 19.983 65.9308 19.941 66.0688 19.893C66.2128 19.845 66.3298 19.797 66.4198 19.749C66.5158 19.701 66.5728 19.665 66.5908 19.641L67.0048 20.532ZM67.9021 14.475H68.8831V21H67.9021V14.475ZM70.4861 21V14.475H71.4761V20.064H74.7161V21H70.4861ZM75.6277 21V14.475H76.6177V20.064H79.8577V21H75.6277ZM84.8103 21C84.7803 20.934 84.7383 20.838 84.6843 20.712C84.6303 20.586 84.5673 20.442 84.4953 20.28C84.4293 20.112 84.3543 19.932 84.2703 19.74C84.1923 19.542 84.1113 19.338 84.0273 19.128H81.7233L80.9493 21H79.9773L82.8843 14.169C82.9203 14.253 82.9833 14.406 83.0733 14.628C83.1693 14.85 83.2803 15.117 83.4063 15.429C83.5383 15.735 83.6823 16.077 83.8383 16.455C84.0003 16.827 84.1623 17.205 84.3243 17.589C84.4923 17.973 84.6543 18.351 84.8103 18.723C84.9723 19.095 85.1193 19.437 85.2513 19.749C85.3833 20.061 85.4943 20.328 85.5843 20.55C85.6803 20.766 85.7463 20.916 85.7823 21H84.8103ZM82.0653 18.3H83.6943C83.6103 18.102 83.5293 17.913 83.4513 17.733C83.3793 17.547 83.3103 17.379 83.2443 17.229C83.1843 17.073 83.1303 16.938 83.0823 16.824C83.0343 16.71 82.9983 16.62 82.9743 16.554C82.9683 16.542 82.9533 16.5 82.9293 16.428C82.9113 16.356 82.8963 16.29 82.8843 16.23C82.8723 16.29 82.8543 16.356 82.8303 16.428C82.8063 16.5 82.7913 16.542 82.7853 16.554L82.0653 18.3ZM89.8055 14.475V15.411H88.1585V21H87.1775V15.411H85.5665V14.475H89.8055ZM90.3562 17.742C90.3562 17.292 90.4432 16.866 90.6172 16.464C90.7912 16.056 91.0282 15.699 91.3282 15.393C91.6342 15.087 91.9882 14.847 92.3902 14.673C92.7922 14.493 93.2242 14.403 93.6862 14.403C94.1422 14.403 94.5712 14.493 94.9732 14.673C95.3812 14.847 95.7352 15.087 96.0352 15.393C96.3412 15.699 96.5812 16.056 96.7552 16.464C96.9352 16.866 97.0252 17.292 97.0252 17.742C97.0252 18.204 96.9352 18.636 96.7552 19.038C96.5812 19.44 96.3412 19.794 96.0352 20.1C95.7352 20.4 95.3812 20.637 94.9732 20.811C94.5712 20.985 94.1422 21.072 93.6862 21.072C93.2242 21.072 92.7922 20.985 92.3902 20.811C91.9882 20.637 91.6342 20.4 91.3282 20.1C91.0282 19.794 90.7912 19.44 90.6172 19.038C90.4432 18.636 90.3562 18.204 90.3562 17.742ZM91.3372 17.751C91.3372 18.081 91.3972 18.393 91.5172 18.687C91.6432 18.975 91.8142 19.227 92.0302 19.443C92.2462 19.659 92.4982 19.83 92.7862 19.956C93.0742 20.082 93.3802 20.145 93.7042 20.145C94.0282 20.145 94.3312 20.082 94.6132 19.956C94.9012 19.83 95.1502 19.659 95.3602 19.443C95.5762 19.227 95.7442 18.975 95.8642 18.687C95.9902 18.393 96.0532 18.078 96.0532 17.742C96.0532 17.412 95.9902 17.103 95.8642 16.815C95.7442 16.521 95.5762 16.266 95.3602 16.05C95.1442 15.834 94.8922 15.663 94.6042 15.537C94.3222 15.411 94.0192 15.348 93.6952 15.348C93.3712 15.348 93.0652 15.411 92.7772 15.537C92.4892 15.663 92.2372 15.834 92.0212 16.05C91.8112 16.266 91.6432 16.521 91.5172 16.815C91.3972 17.109 91.3372 17.421 91.3372 17.751ZM98.1716 21V14.475H99.9536C100.296 14.475 100.608 14.52 100.89 14.61C101.178 14.7 101.424 14.835 101.628 15.015C101.838 15.189 102 15.405 102.114 15.663C102.228 15.915 102.285 16.206 102.285 16.536C102.285 16.716 102.267 16.896 102.231 17.076C102.195 17.25 102.135 17.421 102.051 17.589C101.973 17.751 101.871 17.904 101.745 18.048C101.619 18.186 101.466 18.303 101.286 18.399C101.526 18.777 101.787 19.197 102.069 19.659C102.351 20.115 102.636 20.562 102.924 21H101.745C101.625 20.814 101.499 20.619 101.367 20.415C101.241 20.211 101.112 20.01 100.98 19.812C100.854 19.608 100.728 19.41 100.602 19.218C100.482 19.02 100.368 18.837 100.26 18.669H100.08H99.1616V21H98.1716ZM99.1616 17.742H100.053C100.293 17.742 100.494 17.703 100.656 17.625C100.818 17.541 100.944 17.439 101.034 17.319C101.13 17.199 101.196 17.07 101.232 16.932C101.274 16.794 101.295 16.668 101.295 16.554C101.295 16.44 101.274 16.317 101.232 16.185C101.196 16.047 101.13 15.921 101.034 15.807C100.938 15.687 100.809 15.588 100.647 15.51C100.491 15.432 100.296 15.393 100.062 15.393H99.1616V17.742Z" fill="#C4C4C4"/>
<path d="M14.1811 115.925C14.2138 116.004 14.2675 116.135 14.3421 116.317C14.4168 116.494 14.5008 116.697 14.5941 116.926C14.6921 117.155 14.7925 117.397 14.8951 117.654C15.0025 117.911 15.1028 118.153 15.1961 118.382C15.2895 118.611 15.3735 118.816 15.4481 118.998C15.5228 119.175 15.5765 119.304 15.6091 119.383C15.6138 119.392 15.6255 119.425 15.6441 119.481C15.6628 119.537 15.6768 119.586 15.6861 119.628L15.7561 119.383C15.7888 119.304 15.8425 119.175 15.9171 118.998C15.9918 118.816 16.0758 118.611 16.1691 118.382C16.2625 118.153 16.3605 117.911 16.4631 117.654C16.5705 117.397 16.6708 117.155 16.7641 116.926C16.8621 116.697 16.9485 116.494 17.0231 116.317C17.0978 116.135 17.1515 116.004 17.1841 115.925H17.9401C17.9121 115.99 17.8608 116.109 17.7861 116.282C17.7161 116.45 17.6298 116.655 17.5271 116.898C17.4245 117.141 17.3101 117.407 17.1841 117.696C17.0628 117.985 16.9368 118.279 16.8061 118.578C16.6801 118.877 16.5541 119.171 16.4281 119.46C16.3068 119.749 16.1948 120.015 16.0921 120.258C15.9941 120.501 15.9078 120.708 15.8331 120.881C15.7631 121.049 15.7141 121.166 15.6861 121.231L13.4251 115.925H14.1811ZM17.7775 121.133L19.7515 115.778H20.4025C20.0665 116.674 19.7352 117.568 19.4085 118.459C19.0865 119.346 18.7575 120.237 18.4215 121.133H17.7775ZM20.8139 118.466C20.8139 118.116 20.8815 117.785 21.0169 117.472C21.1522 117.155 21.3365 116.877 21.5699 116.639C21.8079 116.401 22.0832 116.214 22.3959 116.079C22.7085 115.939 23.0445 115.869 23.4039 115.869C23.7585 115.869 24.0922 115.939 24.4049 116.079C24.7222 116.214 24.9975 116.401 25.2309 116.639C25.4689 116.877 25.6555 117.155 25.7909 117.472C25.9309 117.785 26.0009 118.116 26.0009 118.466C26.0009 118.825 25.9309 119.161 25.7909 119.474C25.6555 119.787 25.4689 120.062 25.2309 120.3C24.9975 120.533 24.7222 120.718 24.4049 120.853C24.0922 120.988 23.7585 121.056 23.4039 121.056C23.0445 121.056 22.7085 120.988 22.3959 120.853C22.0832 120.718 21.8079 120.533 21.5699 120.3C21.3365 120.062 21.1522 119.787 21.0169 119.474C20.8815 119.161 20.8139 118.825 20.8139 118.466ZM21.5769 118.473C21.5769 118.73 21.6235 118.972 21.7169 119.201C21.8149 119.425 21.9479 119.621 22.1159 119.789C22.2839 119.957 22.4799 120.09 22.7039 120.188C22.9279 120.286 23.1659 120.335 23.4179 120.335C23.6699 120.335 23.9055 120.286 24.1249 120.188C24.3489 120.09 24.5425 119.957 24.7059 119.789C24.8739 119.621 25.0045 119.425 25.0979 119.201C25.1959 118.972 25.2449 118.727 25.2449 118.466C25.2449 118.209 25.1959 117.969 25.0979 117.745C25.0045 117.516 24.8739 117.318 24.7059 117.15C24.5379 116.982 24.3419 116.849 24.1179 116.751C23.8985 116.653 23.6629 116.604 23.4109 116.604C23.1589 116.604 22.9209 116.653 22.6969 116.751C22.4729 116.849 22.2769 116.982 22.1089 117.15C21.9455 117.318 21.8149 117.516 21.7169 117.745C21.6235 117.974 21.5769 118.216 21.5769 118.473ZM30.6585 120.636C30.6025 120.678 30.5232 120.725 30.4205 120.776C30.3225 120.823 30.2059 120.867 30.0705 120.909C29.9352 120.951 29.7835 120.986 29.6155 121.014C29.4522 121.042 29.2772 121.056 29.0905 121.056C28.6939 121.056 28.3369 120.988 28.0195 120.853C27.7069 120.713 27.4409 120.526 27.2215 120.293C27.0022 120.06 26.8342 119.789 26.7175 119.481C26.6009 119.173 26.5425 118.846 26.5425 118.501C26.5425 118.118 26.6102 117.766 26.7455 117.444C26.8855 117.122 27.0745 116.844 27.3125 116.611C27.5505 116.378 27.8282 116.196 28.1455 116.065C28.4675 115.934 28.8082 115.869 29.1675 115.869C29.3029 115.869 29.4405 115.878 29.5805 115.897C29.7205 115.916 29.8512 115.941 29.9725 115.974C30.0985 116.007 30.2082 116.046 30.3015 116.093C30.3995 116.135 30.4742 116.179 30.5255 116.226C30.4882 116.282 30.4579 116.329 30.4345 116.366C30.4159 116.403 30.3949 116.443 30.3715 116.485C30.3482 116.522 30.3225 116.567 30.2945 116.618C30.2665 116.669 30.2292 116.737 30.1825 116.821C30.1219 116.779 30.0495 116.744 29.9655 116.716C29.8862 116.688 29.8022 116.665 29.7135 116.646C29.6249 116.627 29.5339 116.613 29.4405 116.604C29.3519 116.595 29.2702 116.59 29.1955 116.59C28.9249 116.59 28.6729 116.641 28.4395 116.744C28.2109 116.842 28.0125 116.977 27.8445 117.15C27.6765 117.318 27.5435 117.514 27.4455 117.738C27.3522 117.962 27.3055 118.195 27.3055 118.438C27.3055 118.676 27.3499 118.905 27.4385 119.124C27.5319 119.343 27.6579 119.539 27.8165 119.712C27.9799 119.885 28.1735 120.022 28.3975 120.125C28.6262 120.228 28.8759 120.279 29.1465 120.279C29.2912 120.279 29.4312 120.265 29.5665 120.237C29.7019 120.209 29.8232 120.176 29.9305 120.139C30.0425 120.102 30.1335 120.064 30.2035 120.027C30.2782 119.99 30.3225 119.962 30.3365 119.943L30.6585 120.636ZM34.3104 115.925V116.653H33.0294V121H32.2664V116.653H31.0134V115.925H34.3104Z" fill="#C4C4C4"/>
<circle cx="24" cy="92" r="9.5" fill="#616161" stroke="#C4C4C4"/>
<path d="M24 84L30.9282 88V96L24 100L17.0718 96V88L24 84Z" fill="#A5A5A5"/>
<circle cx="24" cy="92" r="5.5" fill="black" stroke="#E5E5E5"/>
<line x1="50" y1="92.5" x2="38" y2="92.5" stroke="#E5E5E5"/>
<circle cx="75.5" cy="41.5" r="8.5" fill="#161616"/>
<circle cx="75.5" cy="41.5" r="7.5" fill="#EB5757"/>
<g filter="url(#filter1_d)">
<ellipse cx="73.9397" cy="36.658" rx="3" ry="1" transform="rotate(-20 73.9397 36.658)" fill="#C4C4C4"/>
</g>
<path d="M49 358L54.3333 350L59.6667 358L65 350" stroke="#616161" stroke-width="3" stroke-linecap="round"/>
<path d="M82 358L89.5 350V358L97 350V358" stroke="#616161" stroke-width="3"/>
<path d="M117 358V350H125V358H133V350" stroke="#616161" stroke-width="3"/>
<path d="M20.2314 350C22.1367 350 23.5576 357.901 25.4629 357.901" stroke="#616161" stroke-width="3" stroke-linecap="round" stroke-linejoin="round"/>
<path d="M20.2314 350C18.3261 350 16.9053 357.901 15 357.901" stroke="#616161" stroke-width="3" stroke-linecap="round" stroke-linejoin="round"/>
<path d="M30.6943 350C28.789 350 27.3681 357.901 25.4629 357.901" stroke="#616161" stroke-width="3" stroke-linecap="round" stroke-linejoin="round"/>
<defs>
<filter id="filter0_d" x="67.0997" y="35.2666" width="13.6801" height="10.7827" filterUnits="userSpaceOnUse" color-interpolation-filters="sRGB">
<feFlood flood-opacity="0" result="BackgroundImageFix"/>
<feColorMatrix in="SourceAlpha" type="matrix" values="0 0 0 0 0 0 0 0 0 0 0 0 0 0 0 0 0 0 127 0"/>
<feOffset dy="4"/>
<feGaussianBlur stdDeviation="2"/>
<feColorMatrix type="matrix" values="0 0 0 0 0 0 0 0 0 0 0 0 0 0 0 0 0 0 0.25 0"/>
<feBlend mode="normal" in2="BackgroundImageFix" result="effect1_dropShadow"/>
<feBlend mode="normal" in="SourceGraphic" in2="effect1_dropShadow" result="shape"/>
</filter>
<filter id="filter1_d" x="67.0997" y="35.2666" width="13.6801" height="10.7827" filterUnits="userSpaceOnUse" color-interpolation-filters="sRGB">
<feFlood flood-opacity="0" result="BackgroundImageFix"/>
<feColorMatrix in="SourceAlpha" type="matrix" values="0 0 0 0 0 0 0 0 0 0 0 0 0 0 0 0 0 0 127 0"/>
<feOffset dy="4"/>
<feGaussianBlur stdDeviation="2"/>
<feColorMatrix type="matrix" values="0 0 0 0 0 0 0 0 0 0 0 0 0 0 0 0 0 0 0.25 0"/>
<feBlend mode="normal" in2="BackgroundImageFix" result="effect1_dropShadow"/>
<feBlend mode="normal" in="SourceGraphic" in2="effect1_dropShadow" result="shape"/>
</filter>
</defs>
</svg>
