<svg width="153" height="386" viewBox="0 0 153 386" fill="none" xmlns="http://www.w3.org/2000/svg">
<rect x="0.5" y="0.5" width="151.4" height="384.5" fill="#333333" stroke="#161616"/>
<rect x="7" y="309" width="32" height="45" fill="#161616"/>
<rect x="41" y="309" width="32" height="54" fill="#161616"/>
<rect x="75" y="309" width="32" height="54" fill="#161616"/>
<rect x="109" y="309" width="32" height="54" fill="#161616"/>
<path d="M61.9764 376V371.65H63.1644C63.3924 371.65 63.6004 371.68 63.7884 371.74C63.9804 371.8 64.1444 371.89 64.2804 372.01C64.4204 372.126 64.5284 372.27 64.6044 372.442C64.6804 372.61 64.7184 372.804 64.7184 373.024C64.7184 373.144 64.7064 373.264 64.6824 373.384C64.6584 373.5 64.6184 373.614 64.5624 373.726C64.5104 373.834 64.4424 373.936 64.3584 374.032C64.2744 374.124 64.1724 374.202 64.0524 374.266C64.2124 374.518 64.3864 374.798 64.5744 375.106C64.7624 375.41 64.9524 375.708 65.1444 376H64.3584C64.2784 375.876 64.1944 375.746 64.1064 375.61C64.0224 375.474 63.9364 375.34 63.8484 375.208C63.7644 375.072 63.6804 374.94 63.5964 374.812C63.5164 374.68 63.4404 374.558 63.3684 374.446H63.2484H62.6364V376H61.9764ZM62.6364 373.828H63.2304C63.3904 373.828 63.5244 373.802 63.6324 373.75C63.7404 373.694 63.8244 373.626 63.8844 373.546C63.9484 373.466 63.9924 373.38 64.0164 373.288C64.0444 373.196 64.0584 373.112 64.0584 373.036C64.0584 372.96 64.0444 372.878 64.0164 372.79C63.9924 372.698 63.9484 372.614 63.8844 372.538C63.8204 372.458 63.7344 372.392 63.6264 372.34C63.5224 372.288 63.3924 372.262 63.2364 372.262H62.6364V373.828ZM68.438 376C68.418 375.956 68.39 375.892 68.354 375.808C68.318 375.724 68.276 375.628 68.228 375.52C68.184 375.408 68.134 375.288 68.078 375.16C68.026 375.028 67.972 374.892 67.916 374.752H66.38L65.864 376H65.216L67.154 371.446C67.178 371.502 67.22 371.604 67.28 371.752C67.344 371.9 67.418 372.078 67.502 372.286C67.59 372.49 67.686 372.718 67.79 372.97C67.898 373.218 68.006 373.47 68.114 373.726C68.226 373.982 68.334 374.234 68.438 374.482C68.546 374.73 68.644 374.958 68.732 375.166C68.82 375.374 68.894 375.552 68.954 375.7C69.018 375.844 69.062 375.944 69.086 376H68.438ZM66.608 374.2H67.694C67.638 374.068 67.584 373.942 67.532 373.822C67.484 373.698 67.438 373.586 67.394 373.486C67.354 373.382 67.318 373.292 67.286 373.216C67.254 373.14 67.23 373.08 67.214 373.036C67.21 373.028 67.2 373 67.184 372.952C67.172 372.904 67.162 372.86 67.154 372.82C67.146 372.86 67.134 372.904 67.118 372.952C67.102 373 67.092 373.028 67.088 373.036L66.608 374.2ZM72.6927 375.688C72.6447 375.724 72.5767 375.764 72.4887 375.808C72.4047 375.848 72.3047 375.886 72.1887 375.922C72.0727 375.958 71.9427 375.988 71.7987 376.012C71.6587 376.036 71.5087 376.048 71.3487 376.048C71.0087 376.048 70.7027 375.99 70.4307 375.874C70.1627 375.754 69.9347 375.594 69.7467 375.394C69.5587 375.194 69.4147 374.962 69.3147 374.698C69.2147 374.434 69.1647 374.154 69.1647 373.858C69.1647 373.53 69.2227 373.228 69.3387 372.952C69.4587 372.676 69.6207 372.438 69.8247 372.238C70.0287 372.038 70.2667 371.882 70.5387 371.77C70.8147 371.658 71.1067 371.602 71.4147 371.602C71.5307 371.602 71.6487 371.61 71.7687 371.626C71.8887 371.642 72.0007 371.664 72.1047 371.692C72.2127 371.72 72.3067 371.754 72.3867 371.794C72.4707 371.83 72.5347 371.868 72.5787 371.908C72.5467 371.956 72.5207 371.996 72.5007 372.028C72.4847 372.06 72.4667 372.094 72.4467 372.13C72.4267 372.162 72.4047 372.2 72.3807 372.244C72.3567 372.288 72.3247 372.346 72.2847 372.418C72.2327 372.382 72.1707 372.352 72.0987 372.328C72.0307 372.304 71.9587 372.284 71.8827 372.268C71.8067 372.252 71.7287 372.24 71.6487 372.232C71.5727 372.224 71.5027 372.22 71.4387 372.22C71.2067 372.22 70.9907 372.264 70.7907 372.352C70.5947 372.436 70.4247 372.552 70.2807 372.7C70.1367 372.844 70.0227 373.012 69.9387 373.204C69.8587 373.396 69.8187 373.596 69.8187 373.804C69.8187 374.008 69.8567 374.204 69.9327 374.392C70.0127 374.58 70.1207 374.748 70.2567 374.896C70.3967 375.044 70.5627 375.162 70.7547 375.25C70.9507 375.338 71.1647 375.382 71.3967 375.382C71.5207 375.382 71.6407 375.37 71.7567 375.346C71.8727 375.322 71.9767 375.294 72.0687 375.262C72.1647 375.23 72.2427 375.198 72.3027 375.166C72.3667 375.134 72.4047 375.11 72.4167 375.094L72.6927 375.688ZM75.8708 376C75.7308 375.82 75.5968 375.648 75.4688 375.484C75.3408 375.32 75.2148 375.156 75.0908 374.992C74.9668 374.828 74.8408 374.662 74.7128 374.494C74.5888 374.326 74.4568 374.152 74.3168 373.972C74.2648 374.028 74.2148 374.08 74.1668 374.128C74.1188 374.172 74.0668 374.218 74.0108 374.266C74.0108 374.574 74.0108 374.864 74.0108 375.136C74.0148 375.404 74.0168 375.692 74.0168 376H73.2908V371.65H74.0168V373.276C74.0168 373.312 74.0128 373.348 74.0048 373.384C74.0008 373.416 73.9988 373.45 73.9988 373.486C74.0188 373.458 74.0388 373.434 74.0588 373.414C74.0788 373.39 74.0988 373.362 74.1188 373.33C74.4028 373.062 74.6768 372.784 74.9408 372.496C75.2048 372.204 75.4788 371.922 75.7628 371.65H76.5968C76.2968 371.962 75.9988 372.276 75.7028 372.592C75.4108 372.908 75.1148 373.222 74.8148 373.534C74.9828 373.75 75.1428 373.96 75.2948 374.164C75.4508 374.364 75.6028 374.564 75.7508 374.764C75.9028 374.964 76.0548 375.166 76.2068 375.37C76.3588 375.574 76.5168 375.784 76.6808 376H75.8708ZM77.1756 376V371.65H77.8356V375.376H79.9956V376H77.1756ZM80.6033 376V371.65H83.4593V372.244H81.2633V373.516H83.2193V374.122H81.2633V375.394H83.5433V376H80.6033ZM86.7965 371.89L86.5625 372.424C86.3985 372.364 86.2345 372.316 86.0705 372.28C85.9105 372.244 85.7565 372.226 85.6085 372.226C85.3565 372.226 85.1545 372.278 85.0025 372.382C84.8545 372.486 84.7805 372.618 84.7805 372.778C84.7805 372.914 84.8345 373.024 84.9425 373.108C85.0505 373.188 85.1845 373.262 85.3445 373.33C85.5045 373.394 85.6785 373.46 85.8665 373.528C86.0545 373.592 86.2285 373.676 86.3885 373.78C86.5485 373.884 86.6825 374.016 86.7905 374.176C86.8985 374.332 86.9525 374.534 86.9525 374.782C86.9525 374.974 86.9165 375.148 86.8445 375.304C86.7765 375.456 86.6725 375.588 86.5325 375.7C86.3965 375.812 86.2245 375.898 86.0165 375.958C85.8125 376.018 85.5725 376.048 85.2965 376.048C85.1205 376.048 84.9605 376.036 84.8165 376.012C84.6765 375.988 84.5485 375.958 84.4325 375.922C84.3205 375.882 84.2205 375.84 84.1325 375.796C84.0485 375.752 83.9765 375.712 83.9165 375.676L84.2045 375.106C84.3645 375.198 84.5425 375.272 84.7385 375.328C84.9345 375.384 85.1125 375.412 85.2725 375.412C85.3525 375.412 85.4505 375.402 85.5665 375.382C85.6865 375.362 85.8005 375.328 85.9085 375.28C86.0165 375.228 86.1085 375.16 86.1845 375.076C86.2645 374.992 86.3045 374.886 86.3045 374.758C86.3045 374.642 86.2725 374.544 86.2085 374.464C86.1485 374.38 86.0665 374.308 85.9625 374.248C85.8625 374.184 85.7465 374.128 85.6145 374.08C85.4865 374.028 85.3545 373.976 85.2185 373.924C85.0825 373.868 84.9485 373.81 84.8165 373.75C84.6885 373.69 84.5725 373.618 84.4685 373.534C84.3685 373.446 84.2865 373.346 84.2225 373.234C84.1625 373.118 84.1325 372.98 84.1325 372.82C84.1325 372.672 84.1625 372.526 84.2225 372.382C84.2825 372.238 84.3725 372.11 84.4925 371.998C84.6125 371.886 84.7605 371.796 84.9365 371.728C85.1165 371.66 85.3245 371.626 85.5605 371.626C85.7045 371.626 85.8445 371.638 85.9805 371.662C86.1205 371.686 86.2465 371.714 86.3585 371.746C86.4705 371.774 86.5645 371.802 86.6405 371.83C86.7205 371.858 86.7725 371.878 86.7965 371.89ZM90.189 371.89L89.955 372.424C89.791 372.364 89.627 372.316 89.463 372.28C89.303 372.244 89.149 372.226 89.001 372.226C88.749 372.226 88.547 372.278 88.395 372.382C88.247 372.486 88.173 372.618 88.173 372.778C88.173 372.914 88.227 373.024 88.335 373.108C88.443 373.188 88.577 373.262 88.737 373.33C88.897 373.394 89.071 373.46 89.259 373.528C89.447 373.592 89.621 373.676 89.781 373.78C89.941 373.884 90.075 374.016 90.183 374.176C90.291 374.332 90.345 374.534 90.345 374.782C90.345 374.974 90.309 375.148 90.237 375.304C90.169 375.456 90.065 375.588 89.925 375.7C89.789 375.812 89.617 375.898 89.409 375.958C89.205 376.018 88.965 376.048 88.689 376.048C88.513 376.048 88.353 376.036 88.209 376.012C88.069 375.988 87.941 375.958 87.825 375.922C87.713 375.882 87.613 375.84 87.525 375.796C87.441 375.752 87.369 375.712 87.309 375.676L87.597 375.106C87.757 375.198 87.935 375.272 88.131 375.328C88.327 375.384 88.505 375.412 88.665 375.412C88.745 375.412 88.843 375.402 88.959 375.382C89.079 375.362 89.193 375.328 89.301 375.28C89.409 375.228 89.501 375.16 89.577 375.076C89.657 374.992 89.697 374.886 89.697 374.758C89.697 374.642 89.665 374.544 89.601 374.464C89.541 374.38 89.459 374.308 89.355 374.248C89.255 374.184 89.139 374.128 89.007 374.08C88.879 374.028 88.747 373.976 88.611 373.924C88.475 373.868 88.341 373.81 88.209 373.75C88.081 373.69 87.965 373.618 87.861 373.534C87.761 373.446 87.679 373.346 87.615 373.234C87.555 373.118 87.525 372.98 87.525 372.82C87.525 372.672 87.555 372.526 87.615 372.382C87.675 372.238 87.765 372.11 87.885 371.998C88.005 371.886 88.153 371.796 88.329 371.728C88.509 371.66 88.717 371.626 88.953 371.626C89.097 371.626 89.237 371.638 89.373 371.662C89.513 371.686 89.639 371.714 89.751 371.746C89.863 371.774 89.957 371.802 90.033 371.83C90.113 371.858 90.165 371.878 90.189 371.89Z" fill="#C4C4C4"/>
<path d="M67.4902 101V95.925H70.5282V96.632H68.2532V98.165H70.2412V98.879H68.2532V101H67.4902ZM71.373 101V95.925H72.759C73.025 95.925 73.2677 95.96 73.487 96.03C73.711 96.1 73.9023 96.205 74.061 96.345C74.2243 96.4803 74.3503 96.6483 74.439 96.849C74.5277 97.045 74.572 97.2713 74.572 97.528C74.572 97.668 74.558 97.808 74.53 97.948C74.502 98.0833 74.4553 98.2163 74.39 98.347C74.3293 98.473 74.25 98.592 74.152 98.704C74.054 98.8113 73.935 98.9023 73.795 98.977C73.9817 99.271 74.1847 99.5977 74.404 99.957C74.6233 100.312 74.845 100.659 75.069 101H74.152C74.0587 100.855 73.9607 100.704 73.858 100.545C73.76 100.386 73.6597 100.23 73.557 100.076C73.459 99.9173 73.361 99.7633 73.263 99.614C73.1697 99.46 73.081 99.3177 72.997 99.187H72.857H72.143V101H71.373ZM72.143 98.466H72.836C73.0227 98.466 73.179 98.4357 73.305 98.375C73.431 98.3097 73.529 98.2303 73.599 98.137C73.6737 98.0437 73.725 97.9433 73.753 97.836C73.7857 97.7287 73.802 97.6307 73.802 97.542C73.802 97.4533 73.7857 97.3577 73.753 97.255C73.725 97.1477 73.6737 97.0497 73.599 96.961C73.5243 96.8677 73.424 96.7907 73.298 96.73C73.1767 96.6693 73.025 96.639 72.843 96.639H72.143V98.466ZM75.7685 101V95.925H79.1005V96.618H76.5385V98.102H78.8205V98.809H76.5385V100.293H79.1985V101H75.7685ZM79.643 98.466C79.643 98.116 79.7106 97.7847 79.846 97.472C79.9813 97.1547 80.1656 96.877 80.399 96.639C80.6323 96.401 80.9053 96.2143 81.218 96.079C81.5306 95.939 81.8666 95.869 82.226 95.869C82.5806 95.869 82.9143 95.939 83.227 96.079C83.5443 96.2143 83.822 96.401 84.06 96.639C84.298 96.877 84.4846 97.1547 84.62 97.472C84.76 97.7847 84.83 98.116 84.83 98.466C84.83 98.8253 84.767 99.1613 84.641 99.474C84.515 99.7867 84.34 100.074 84.116 100.335L84.991 100.272V101H82.772C82.6786 101.019 82.5876 101.033 82.499 101.042C82.4103 101.051 82.3193 101.056 82.226 101.056C81.8666 101.056 81.5306 100.988 81.218 100.853C80.9053 100.718 80.6323 100.533 80.399 100.3C80.1656 100.062 79.9813 99.7867 79.846 99.474C79.7106 99.1613 79.643 98.8253 79.643 98.466ZM80.406 98.473C80.406 98.7297 80.4526 98.9723 80.546 99.201C80.644 99.425 80.7746 99.621 80.938 99.789C81.106 99.957 81.302 100.09 81.526 100.188C81.75 100.286 81.9903 100.335 82.247 100.335C82.499 100.335 82.7346 100.286 82.954 100.188C83.178 100.09 83.3716 99.957 83.535 99.789C83.703 99.621 83.8336 99.425 83.927 99.201C84.025 98.9723 84.074 98.7273 84.074 98.466C84.074 98.2093 84.025 97.969 83.927 97.745C83.829 97.5163 83.696 97.318 83.528 97.15C83.3646 96.982 83.171 96.849 82.947 96.751C82.723 96.653 82.485 96.604 82.233 96.604C81.981 96.604 81.743 96.653 81.519 96.751C81.295 96.849 81.1013 96.982 80.938 97.15C80.7746 97.318 80.644 97.5163 80.546 97.745C80.4526 97.9737 80.406 98.2163 80.406 98.473Z" fill="#C4C4C4"/>
<mask id="mask0" mask-type="alpha" maskUnits="userSpaceOnUse" x="55" y="51" width="42" height="42">
<circle cx="76" cy="72" r="21" fill="#C4C4C4"/>
</mask>
<g mask="url(#mask0)">
<line x1="52.6464" y1="95.6464" x2="99.4926" y2="48.8003" stroke="#C6C6C6"/>
<line x1="53.3566" y1="48.6495" x2="99.3951" y2="95.4957" stroke="#C6C6C6"/>
<line x1="52" y1="72.5" x2="100.462" y2="72.5" stroke="#C6C6C6"/>
<line x1="75.5" y1="70" x2="75.5" y2="46.5769" stroke="#C6C6C6"/>
</g>
<circle cx="76" cy="72" r="18" transform="rotate(-180 76 72)" fill="#222222"/>
<circle cx="76" cy="72" r="16" transform="rotate(-180 76 72)" fill="black"/>
<rect x="77" y="72" width="3" height="16" transform="rotate(-180 77 72)" fill="#E5E5E5"/>
<path d="M118.719 96.205L118.446 96.828C118.255 96.758 118.063 96.702 117.872 96.66C117.685 96.618 117.506 96.597 117.333 96.597C117.039 96.597 116.803 96.6577 116.626 96.779C116.453 96.9003 116.367 97.0543 116.367 97.241C116.367 97.3997 116.43 97.528 116.556 97.626C116.682 97.7193 116.838 97.8057 117.025 97.885C117.212 97.9597 117.415 98.0367 117.634 98.116C117.853 98.1907 118.056 98.2887 118.243 98.41C118.43 98.5313 118.586 98.6853 118.712 98.872C118.838 99.054 118.901 99.2897 118.901 99.579C118.901 99.803 118.859 100.006 118.775 100.188C118.696 100.365 118.574 100.519 118.411 100.65C118.252 100.781 118.052 100.881 117.809 100.951C117.571 101.021 117.291 101.056 116.969 101.056C116.764 101.056 116.577 101.042 116.409 101.014C116.246 100.986 116.096 100.951 115.961 100.909C115.83 100.862 115.714 100.813 115.611 100.762C115.513 100.711 115.429 100.664 115.359 100.622L115.695 99.957C115.882 100.064 116.089 100.151 116.318 100.216C116.547 100.281 116.754 100.314 116.941 100.314C117.034 100.314 117.149 100.302 117.284 100.279C117.424 100.256 117.557 100.216 117.683 100.16C117.809 100.099 117.916 100.02 118.005 99.922C118.098 99.824 118.145 99.7003 118.145 99.551C118.145 99.4157 118.108 99.3013 118.033 99.208C117.963 99.11 117.867 99.026 117.746 98.956C117.629 98.8813 117.494 98.816 117.34 98.76C117.191 98.6993 117.037 98.6387 116.878 98.578C116.719 98.5127 116.563 98.445 116.409 98.375C116.26 98.305 116.124 98.221 116.003 98.123C115.886 98.0203 115.791 97.9037 115.716 97.773C115.646 97.6377 115.611 97.4767 115.611 97.29C115.611 97.1173 115.646 96.947 115.716 96.779C115.786 96.611 115.891 96.4617 116.031 96.331C116.171 96.2003 116.344 96.0953 116.549 96.016C116.759 95.9367 117.002 95.897 117.277 95.897C117.445 95.897 117.608 95.911 117.767 95.939C117.93 95.967 118.077 95.9997 118.208 96.037C118.339 96.0697 118.448 96.1023 118.537 96.135C118.63 96.1677 118.691 96.191 118.719 96.205ZM119.772 101V95.925H123.104V96.618H120.542V98.102H122.824V98.809H120.542V100.293H123.202V101H119.772ZM124.092 95.701C124.134 95.7663 124.221 95.8923 124.351 96.079C124.487 96.261 124.641 96.4733 124.813 96.716C124.991 96.9587 125.177 97.2177 125.373 97.493C125.569 97.7637 125.754 98.0203 125.926 98.263C126.099 98.501 126.248 98.7087 126.374 98.886C126.505 99.0633 126.591 99.18 126.633 99.236C126.647 99.2127 126.692 99.1497 126.766 99.047C126.841 98.9443 126.932 98.816 127.039 98.662C127.151 98.508 127.277 98.3353 127.417 98.144C127.557 97.948 127.7 97.7497 127.844 97.549C127.994 97.3437 128.138 97.1407 128.278 96.94C128.423 96.7393 128.556 96.5573 128.677 96.394C128.799 96.226 128.901 96.0813 128.985 95.96C129.074 95.834 129.137 95.7477 129.174 95.701V101H128.362V98.158C128.362 98.1207 128.365 98.081 128.369 98.039C128.379 97.997 128.383 97.9667 128.383 97.948C128.341 98.004 128.274 98.0997 128.18 98.235C128.092 98.3657 127.987 98.5173 127.865 98.69C127.749 98.858 127.625 99.0377 127.494 99.229C127.364 99.4157 127.24 99.593 127.123 99.761C127.007 99.929 126.904 100.078 126.815 100.209C126.727 100.335 126.666 100.424 126.633 100.475C126.601 100.433 126.535 100.347 126.437 100.216C126.344 100.081 126.232 99.9243 126.101 99.747C125.975 99.5697 125.84 99.3807 125.695 99.18C125.555 98.9793 125.425 98.7927 125.303 98.62C125.182 98.4473 125.077 98.3003 124.988 98.179C124.9 98.053 124.848 97.976 124.834 97.948C124.834 97.9667 124.837 97.997 124.841 98.039C124.851 98.081 124.855 98.1207 124.855 98.158V101H124.092V95.701ZM130.422 95.925H131.185V101H130.422V95.925Z" fill="#C4C4C4"/>
<mask id="mask1" mask-type="alpha" maskUnits="userSpaceOnUse" x="102" y="51" width="42" height="42">
<circle cx="123" cy="72" r="21" fill="#C4C4C4"/>
</mask>
<g mask="url(#mask1)">
<line x1="99.6464" y1="95.6464" x2="146.493" y2="48.8003" stroke="#C6C6C6"/>
<line x1="100.357" y1="48.6495" x2="146.395" y2="95.4957" stroke="#C6C6C6"/>
<line x1="99" y1="72.5" x2="147.462" y2="72.5" stroke="#C6C6C6"/>
<line x1="122.5" y1="70" x2="122.5" y2="46.5769" stroke="#C6C6C6"/>
</g>
<circle cx="123" cy="72" r="18" transform="rotate(-180 123 72)" fill="#222222"/>
<circle cx="123" cy="72" r="16" transform="rotate(-180 123 72)" fill="black"/>
<rect x="124" y="72" width="3" height="16" transform="rotate(-180 124 72)" fill="#E5E5E5"/>
<path d="M118.243 259.946C118.075 260.389 117.895 260.856 117.704 261.346C117.517 261.831 117.33 262.31 117.144 262.781C116.962 263.252 116.789 263.7 116.626 264.125C116.462 264.55 116.325 264.916 116.213 265.224L115.079 262.389C115.065 262.352 115.053 262.324 115.044 262.305C115.034 262.286 115.025 262.258 115.016 262.221C115.016 262.24 115.013 262.258 115.009 262.277C115.004 262.291 114.999 262.307 114.995 262.326C114.99 262.345 114.985 262.363 114.981 262.382C114.822 262.746 114.666 263.103 114.512 263.453C114.446 263.602 114.379 263.756 114.309 263.915C114.239 264.074 114.171 264.232 114.106 264.391C114.04 264.545 113.975 264.694 113.91 264.839C113.849 264.984 113.793 265.114 113.742 265.231C113.406 264.349 113.067 263.469 112.727 262.592C112.386 261.715 112.048 260.833 111.712 259.946H112.573C112.685 260.254 112.799 260.564 112.916 260.877C113.037 261.19 113.149 261.491 113.252 261.78C113.359 262.069 113.455 262.338 113.539 262.585C113.623 262.832 113.688 263.042 113.735 263.215L113.791 263.46C113.795 263.437 113.807 263.399 113.826 263.348C113.844 263.292 113.858 263.252 113.868 263.229C113.872 263.21 113.889 263.168 113.917 263.103C113.945 263.038 113.977 262.961 114.015 262.872C114.052 262.779 114.094 262.678 114.141 262.571C114.187 262.464 114.234 262.354 114.281 262.242C114.393 261.985 114.516 261.701 114.652 261.388C114.572 261.169 114.502 260.963 114.442 260.772C114.386 260.609 114.332 260.448 114.281 260.289C114.234 260.13 114.199 260.016 114.176 259.946H114.911C115.111 260.473 115.298 260.961 115.471 261.409C115.541 261.6 115.611 261.792 115.681 261.983C115.755 262.174 115.823 262.352 115.884 262.515C115.949 262.678 116.005 262.823 116.052 262.949C116.098 263.07 116.131 263.159 116.15 263.215C116.164 263.257 116.173 263.299 116.178 263.341C116.187 263.378 116.196 263.418 116.206 263.46C116.215 263.418 116.222 263.376 116.227 263.334C116.236 263.292 116.245 263.252 116.255 263.215C116.297 263.033 116.362 262.816 116.451 262.564C116.539 262.312 116.637 262.041 116.745 261.752C116.857 261.463 116.973 261.164 117.095 260.856C117.216 260.543 117.333 260.24 117.445 259.946H118.243ZM118.923 259.925H119.686V265H118.923V259.925ZM120.933 259.925H122.207C122.72 259.925 123.154 260.002 123.509 260.156C123.864 260.31 124.151 260.513 124.37 260.765C124.594 261.012 124.755 261.292 124.853 261.605C124.956 261.913 125.007 262.221 125.007 262.529C125.007 262.907 124.939 263.25 124.804 263.558C124.669 263.861 124.484 264.12 124.251 264.335C124.018 264.55 123.747 264.715 123.439 264.832C123.131 264.944 122.804 265 122.459 265H120.933V259.925ZM122.347 264.272C122.618 264.272 122.867 264.232 123.096 264.153C123.329 264.074 123.53 263.959 123.698 263.81C123.871 263.656 124.004 263.469 124.097 263.25C124.195 263.026 124.244 262.769 124.244 262.48C124.244 262.172 124.19 261.904 124.083 261.675C123.976 261.446 123.836 261.257 123.663 261.108C123.49 260.954 123.294 260.842 123.075 260.772C122.86 260.697 122.641 260.66 122.417 260.66H121.696V264.272H122.347ZM128.741 259.925V260.653H127.46V265H126.697V260.653H125.444V259.925H128.741ZM129.642 265V259.925H130.405V262.081H132.946V259.925H133.716C133.716 259.986 133.716 260.1 133.716 260.268C133.716 260.431 133.716 260.627 133.716 260.856C133.716 261.085 133.716 261.339 133.716 261.619C133.716 261.894 133.714 262.177 133.709 262.466C133.709 262.751 133.709 263.033 133.709 263.313C133.709 263.588 133.709 263.84 133.709 264.069C133.709 264.298 133.709 264.496 133.709 264.664C133.709 264.827 133.709 264.939 133.709 265H132.946V262.809H130.405V265H129.642Z" fill="#C4C4C4"/>
<mask id="mask2" mask-type="alpha" maskUnits="userSpaceOnUse" x="102" y="215" width="42" height="42">
<circle cx="123" cy="236" r="21" fill="#C4C4C4"/>
</mask>
<g mask="url(#mask2)">
<line x1="99.6464" y1="259.646" x2="146.493" y2="212.8" stroke="#C6C6C6"/>
<line x1="100.357" y1="212.65" x2="146.395" y2="259.496" stroke="#C6C6C6"/>
<line x1="99" y1="236.5" x2="147.462" y2="236.5" stroke="#C6C6C6"/>
<line x1="122.5" y1="234" x2="122.5" y2="210.577" stroke="#C6C6C6"/>
</g>
<circle cx="123" cy="236" r="18" transform="rotate(-180 123 236)" fill="#222222"/>
<circle cx="123" cy="236" r="16" transform="rotate(-180 123 236)" fill="black"/>
<rect x="124" y="236" width="3" height="16" transform="rotate(-180 124 236)" fill="#E5E5E5"/>
<path d="M64.1937 182C64.1704 181.949 64.1377 181.874 64.0957 181.776C64.0537 181.678 64.0047 181.566 63.9487 181.44C63.8974 181.309 63.8391 181.169 63.7737 181.02C63.7131 180.866 63.6501 180.707 63.5847 180.544H61.7927L61.1907 182H60.4347L62.6957 176.687C62.7237 176.752 62.7727 176.871 62.8427 177.044C62.9174 177.217 63.0037 177.424 63.1017 177.667C63.2044 177.905 63.3164 178.171 63.4377 178.465C63.5637 178.754 63.6897 179.048 63.8157 179.347C63.9464 179.646 64.0724 179.94 64.1937 180.229C64.3197 180.518 64.4341 180.784 64.5367 181.027C64.6394 181.27 64.7257 181.477 64.7957 181.65C64.8704 181.818 64.9217 181.935 64.9497 182H64.1937ZM62.0587 179.9H63.3257C63.2604 179.746 63.1974 179.599 63.1367 179.459C63.0807 179.314 63.0271 179.184 62.9757 179.067C62.9291 178.946 62.8871 178.841 62.8497 178.752C62.8124 178.663 62.7844 178.593 62.7657 178.542C62.7611 178.533 62.7494 178.5 62.7307 178.444C62.7167 178.388 62.7051 178.337 62.6957 178.29C62.6864 178.337 62.6724 178.388 62.6537 178.444C62.6351 178.5 62.6234 178.533 62.6187 178.542L62.0587 179.9ZM65.583 176.701C65.625 176.766 65.7113 176.892 65.842 177.079C65.9773 177.261 66.1313 177.473 66.304 177.716C66.4813 177.959 66.668 178.218 66.864 178.493C67.06 178.764 67.2443 179.02 67.417 179.263C67.5896 179.501 67.739 179.709 67.865 179.886C67.9956 180.063 68.082 180.18 68.124 180.236C68.138 180.213 68.1823 180.15 68.257 180.047C68.3316 179.944 68.4226 179.816 68.53 179.662C68.642 179.508 68.768 179.335 68.908 179.144C69.048 178.948 69.1903 178.75 69.335 178.549C69.4843 178.344 69.629 178.141 69.769 177.94C69.9136 177.739 70.0466 177.557 70.168 177.394C70.2893 177.226 70.392 177.081 70.476 176.96C70.5646 176.834 70.6276 176.748 70.665 176.701V182H69.853V179.158C69.853 179.121 69.8553 179.081 69.86 179.039C69.8693 178.997 69.874 178.967 69.874 178.948C69.832 179.004 69.7643 179.1 69.671 179.235C69.5823 179.366 69.4773 179.517 69.356 179.69C69.2393 179.858 69.1156 180.038 68.985 180.229C68.8543 180.416 68.7306 180.593 68.614 180.761C68.4973 180.929 68.3946 181.078 68.306 181.209C68.2173 181.335 68.1566 181.424 68.124 181.475C68.0913 181.433 68.026 181.347 67.928 181.216C67.8346 181.081 67.7226 180.924 67.592 180.747C67.466 180.57 67.3306 180.381 67.186 180.18C67.046 179.979 66.9153 179.793 66.794 179.62C66.6726 179.447 66.5676 179.3 66.479 179.179C66.3903 179.053 66.339 178.976 66.325 178.948C66.325 178.967 66.3273 178.997 66.332 179.039C66.3413 179.081 66.346 179.121 66.346 179.158V182H65.583V176.701ZM71.556 179.466C71.556 179.116 71.6237 178.785 71.759 178.472C71.8944 178.155 72.0787 177.877 72.312 177.639C72.55 177.401 72.8254 177.214 73.138 177.079C73.4507 176.939 73.7867 176.869 74.146 176.869C74.5007 176.869 74.8344 176.939 75.147 177.079C75.4644 177.214 75.7397 177.401 75.973 177.639C76.211 177.877 76.3977 178.155 76.533 178.472C76.673 178.785 76.743 179.116 76.743 179.466C76.743 179.825 76.673 180.161 76.533 180.474C76.3977 180.787 76.211 181.062 75.973 181.3C75.7397 181.533 75.4644 181.718 75.147 181.853C74.8344 181.988 74.5007 182.056 74.146 182.056C73.7867 182.056 73.4507 181.988 73.138 181.853C72.8254 181.718 72.55 181.533 72.312 181.3C72.0787 181.062 71.8944 180.787 71.759 180.474C71.6237 180.161 71.556 179.825 71.556 179.466ZM72.319 179.473C72.319 179.73 72.3657 179.972 72.459 180.201C72.557 180.425 72.69 180.621 72.858 180.789C73.026 180.957 73.222 181.09 73.446 181.188C73.67 181.286 73.908 181.335 74.16 181.335C74.412 181.335 74.6477 181.286 74.867 181.188C75.091 181.09 75.2847 180.957 75.448 180.789C75.616 180.621 75.7467 180.425 75.84 180.201C75.938 179.972 75.987 179.727 75.987 179.466C75.987 179.209 75.938 178.969 75.84 178.745C75.7467 178.516 75.616 178.318 75.448 178.15C75.28 177.982 75.084 177.849 74.86 177.751C74.6407 177.653 74.405 177.604 74.153 177.604C73.901 177.604 73.663 177.653 73.439 177.751C73.215 177.849 73.019 177.982 72.851 178.15C72.6877 178.318 72.557 178.516 72.459 178.745C72.3657 178.974 72.319 179.216 72.319 179.473ZM79.5107 182.056C79.2401 182.056 78.9881 182.012 78.7547 181.923C78.5214 181.834 78.3161 181.711 78.1387 181.552C77.9661 181.389 77.8284 181.195 77.7257 180.971C77.6277 180.742 77.5787 180.488 77.5787 180.208V176.925H78.3487V180.187C78.3487 180.35 78.3767 180.502 78.4327 180.642C78.4934 180.777 78.5751 180.899 78.6777 181.006C78.7851 181.109 78.9087 181.19 79.0487 181.251C79.1887 181.307 79.3427 181.335 79.5107 181.335C79.6741 181.335 79.8257 181.307 79.9657 181.251C80.1104 181.19 80.2341 181.109 80.3367 181.006C80.4441 180.899 80.5281 180.777 80.5887 180.642C80.6494 180.502 80.6797 180.35 80.6797 180.187V176.925H81.4497V180.208C81.4497 180.488 81.3984 180.742 81.2957 180.971C81.1977 181.195 81.0601 181.389 80.8827 181.552C80.7101 181.711 80.5047 181.834 80.2667 181.923C80.0334 182.012 79.7814 182.056 79.5107 182.056ZM87.0906 176.925V182.231C87.0253 182.147 86.8993 182.012 86.7126 181.825C86.526 181.638 86.3113 181.424 86.0686 181.181C85.826 180.938 85.567 180.684 85.2916 180.418C85.021 180.152 84.7643 179.9 84.5216 179.662C84.279 179.419 84.0666 179.205 83.8846 179.018C83.7026 178.827 83.5813 178.691 83.5206 178.612L83.3876 178.43L83.4086 178.654V182H82.6386V176.687C82.69 176.752 82.774 176.846 82.8906 176.967C83.012 177.088 83.152 177.231 83.3106 177.394C83.474 177.553 83.6513 177.725 83.8426 177.912C84.0386 178.099 84.2346 178.288 84.4306 178.479C84.6313 178.67 84.8273 178.859 85.0186 179.046C85.2146 179.228 85.392 179.398 85.5506 179.557C85.714 179.716 85.854 179.856 85.9706 179.977C86.0873 180.098 86.169 180.189 86.2156 180.25L86.3486 180.446L86.3276 180.208V176.925H87.0906ZM91.2938 176.925V177.653H90.0128V182H89.2498V177.653H87.9968V176.925H91.2938Z" fill="#C4C4C4"/>
<mask id="mask3" mask-type="alpha" maskUnits="userSpaceOnUse" x="55" y="132" width="42" height="42">
<circle cx="76" cy="153" r="21" fill="#C4C4C4"/>
</mask>
<g mask="url(#mask3)">
<line x1="52.6464" y1="176.646" x2="99.4926" y2="129.8" stroke="#C6C6C6"/>
<line x1="53.3566" y1="129.65" x2="99.3951" y2="176.496" stroke="#C6C6C6"/>
<line x1="52" y1="153.5" x2="100.462" y2="153.5" stroke="#C6C6C6"/>
<line x1="75.5" y1="151" x2="75.5" y2="127.577" stroke="#C6C6C6"/>
</g>
<circle cx="76" cy="153" r="18" transform="rotate(-180 76 153)" fill="#222222"/>
<circle cx="76" cy="153" r="16" transform="rotate(-180 76 153)" fill="black"/>
<rect x="77" y="153" width="3" height="16" transform="rotate(-180 77 153)" fill="#E5E5E5"/>
<path d="M64.6937 265C64.6704 264.949 64.6377 264.874 64.5957 264.776C64.5537 264.678 64.5047 264.566 64.4487 264.44C64.3974 264.309 64.3391 264.169 64.2737 264.02C64.2131 263.866 64.1501 263.707 64.0847 263.544H62.2927L61.6907 265H60.9347L63.1957 259.687C63.2237 259.752 63.2727 259.871 63.3427 260.044C63.4174 260.217 63.5037 260.424 63.6017 260.667C63.7044 260.905 63.8164 261.171 63.9377 261.465C64.0637 261.754 64.1897 262.048 64.3157 262.347C64.4464 262.646 64.5724 262.94 64.6937 263.229C64.8197 263.518 64.9341 263.784 65.0367 264.027C65.1394 264.27 65.2257 264.477 65.2957 264.65C65.3704 264.818 65.4217 264.935 65.4497 265H64.6937ZM62.5587 262.9H63.8257C63.7604 262.746 63.6974 262.599 63.6367 262.459C63.5807 262.314 63.5271 262.184 63.4757 262.067C63.4291 261.946 63.3871 261.841 63.3497 261.752C63.3124 261.663 63.2844 261.593 63.2657 261.542C63.2611 261.533 63.2494 261.5 63.2307 261.444C63.2167 261.388 63.2051 261.337 63.1957 261.29C63.1864 261.337 63.1724 261.388 63.1537 261.444C63.1351 261.5 63.1234 261.533 63.1187 261.542L62.5587 262.9ZM66.083 259.701C66.125 259.766 66.2113 259.892 66.342 260.079C66.4773 260.261 66.6313 260.473 66.804 260.716C66.9813 260.959 67.168 261.218 67.364 261.493C67.56 261.764 67.7443 262.02 67.917 262.263C68.0896 262.501 68.239 262.709 68.365 262.886C68.4956 263.063 68.582 263.18 68.624 263.236C68.638 263.213 68.6823 263.15 68.757 263.047C68.8316 262.944 68.9226 262.816 69.03 262.662C69.142 262.508 69.268 262.335 69.408 262.144C69.548 261.948 69.6903 261.75 69.835 261.549C69.9843 261.344 70.129 261.141 70.269 260.94C70.4136 260.739 70.5466 260.557 70.668 260.394C70.7893 260.226 70.892 260.081 70.976 259.96C71.0646 259.834 71.1276 259.748 71.165 259.701V265H70.353V262.158C70.353 262.121 70.3553 262.081 70.36 262.039C70.3693 261.997 70.374 261.967 70.374 261.948C70.332 262.004 70.2643 262.1 70.171 262.235C70.0823 262.366 69.9773 262.517 69.856 262.69C69.7393 262.858 69.6156 263.038 69.485 263.229C69.3543 263.416 69.2306 263.593 69.114 263.761C68.9973 263.929 68.8946 264.078 68.806 264.209C68.7173 264.335 68.6566 264.424 68.624 264.475C68.5913 264.433 68.526 264.347 68.428 264.216C68.3346 264.081 68.2226 263.924 68.092 263.747C67.966 263.57 67.8306 263.381 67.686 263.18C67.546 262.979 67.4153 262.793 67.294 262.62C67.1726 262.447 67.0676 262.3 66.979 262.179C66.8903 262.053 66.839 261.976 66.825 261.948C66.825 261.967 66.8273 261.997 66.832 262.039C66.8413 262.081 66.846 262.121 66.846 262.158V265H66.083V259.701ZM72.056 262.466C72.056 262.116 72.1237 261.785 72.259 261.472C72.3944 261.155 72.5787 260.877 72.812 260.639C73.05 260.401 73.3254 260.214 73.638 260.079C73.9507 259.939 74.2867 259.869 74.646 259.869C75.0007 259.869 75.3344 259.939 75.647 260.079C75.9644 260.214 76.2397 260.401 76.473 260.639C76.711 260.877 76.8977 261.155 77.033 261.472C77.173 261.785 77.243 262.116 77.243 262.466C77.243 262.825 77.173 263.161 77.033 263.474C76.8977 263.787 76.711 264.062 76.473 264.3C76.2397 264.533 75.9644 264.718 75.647 264.853C75.3344 264.988 75.0007 265.056 74.646 265.056C74.2867 265.056 73.9507 264.988 73.638 264.853C73.3254 264.718 73.05 264.533 72.812 264.3C72.5787 264.062 72.3944 263.787 72.259 263.474C72.1237 263.161 72.056 262.825 72.056 262.466ZM72.819 262.473C72.819 262.73 72.8657 262.972 72.959 263.201C73.057 263.425 73.19 263.621 73.358 263.789C73.526 263.957 73.722 264.09 73.946 264.188C74.17 264.286 74.408 264.335 74.66 264.335C74.912 264.335 75.1477 264.286 75.367 264.188C75.591 264.09 75.7847 263.957 75.948 263.789C76.116 263.621 76.2467 263.425 76.34 263.201C76.438 262.972 76.487 262.727 76.487 262.466C76.487 262.209 76.438 261.969 76.34 261.745C76.2467 261.516 76.116 261.318 75.948 261.15C75.78 260.982 75.584 260.849 75.36 260.751C75.1407 260.653 74.905 260.604 74.653 260.604C74.401 260.604 74.163 260.653 73.939 260.751C73.715 260.849 73.519 260.982 73.351 261.15C73.1877 261.318 73.057 261.516 72.959 261.745C72.8657 261.974 72.819 262.216 72.819 262.473ZM80.0107 265.056C79.7401 265.056 79.4881 265.012 79.2547 264.923C79.0214 264.834 78.8161 264.711 78.6387 264.552C78.4661 264.389 78.3284 264.195 78.2257 263.971C78.1277 263.742 78.0787 263.488 78.0787 263.208V259.925H78.8487V263.187C78.8487 263.35 78.8767 263.502 78.9327 263.642C78.9934 263.777 79.0751 263.899 79.1777 264.006C79.2851 264.109 79.4087 264.19 79.5487 264.251C79.6887 264.307 79.8427 264.335 80.0107 264.335C80.1741 264.335 80.3257 264.307 80.4657 264.251C80.6104 264.19 80.7341 264.109 80.8367 264.006C80.9441 263.899 81.0281 263.777 81.0887 263.642C81.1494 263.502 81.1797 263.35 81.1797 263.187V259.925H81.9497V263.208C81.9497 263.488 81.8984 263.742 81.7957 263.971C81.6977 264.195 81.5601 264.389 81.3827 264.552C81.2101 264.711 81.0047 264.834 80.7667 264.923C80.5334 265.012 80.2814 265.056 80.0107 265.056ZM87.5906 259.925V265.231C87.5253 265.147 87.3993 265.012 87.2126 264.825C87.026 264.638 86.8113 264.424 86.5686 264.181C86.326 263.938 86.067 263.684 85.7916 263.418C85.521 263.152 85.2643 262.9 85.0216 262.662C84.779 262.419 84.5666 262.205 84.3846 262.018C84.2026 261.827 84.0813 261.691 84.0206 261.612L83.8876 261.43L83.9086 261.654V265H83.1386V259.687C83.19 259.752 83.274 259.846 83.3906 259.967C83.512 260.088 83.652 260.231 83.8106 260.394C83.974 260.553 84.1513 260.725 84.3426 260.912C84.5386 261.099 84.7346 261.288 84.9306 261.479C85.1313 261.67 85.3273 261.859 85.5186 262.046C85.7146 262.228 85.892 262.398 86.0506 262.557C86.214 262.716 86.354 262.856 86.4706 262.977C86.5873 263.098 86.669 263.189 86.7156 263.25L86.8486 263.446L86.8276 263.208V259.925H87.5906ZM91.7938 259.925V260.653H90.5128V265H89.7498V260.653H88.4968V259.925H91.7938Z" fill="#C4C4C4"/>
<mask id="mask4" mask-type="alpha" maskUnits="userSpaceOnUse" x="55" y="215" width="42" height="42">
<circle cx="76" cy="236" r="21" fill="#C4C4C4"/>
</mask>
<g mask="url(#mask4)">
<line x1="52.6464" y1="259.646" x2="99.4926" y2="212.8" stroke="#C6C6C6"/>
<line x1="53.3566" y1="212.65" x2="99.3951" y2="259.496" stroke="#C6C6C6"/>
<line x1="52" y1="236.5" x2="100.462" y2="236.5" stroke="#C6C6C6"/>
<line x1="75.5" y1="234" x2="75.5" y2="210.577" stroke="#C6C6C6"/>
</g>
<circle cx="76" cy="236" r="18" transform="rotate(-180 76 236)" fill="#222222"/>
<circle cx="76" cy="236" r="16" transform="rotate(-180 76 236)" fill="black"/>
<rect x="77" y="236" width="3" height="16" transform="rotate(-180 77 236)" fill="#E5E5E5"/>
<path d="M20.6935 342.205L20.4205 342.828C20.2292 342.758 20.0379 342.702 19.8465 342.66C19.6599 342.618 19.4802 342.597 19.3075 342.597C19.0135 342.597 18.7779 342.658 18.6005 342.779C18.4279 342.9 18.3415 343.054 18.3415 343.241C18.3415 343.4 18.4045 343.528 18.5305 343.626C18.6565 343.719 18.8129 343.806 18.9995 343.885C19.1862 343.96 19.3892 344.037 19.6085 344.116C19.8279 344.191 20.0309 344.289 20.2175 344.41C20.4042 344.531 20.5605 344.685 20.6865 344.872C20.8125 345.054 20.8755 345.29 20.8755 345.579C20.8755 345.803 20.8335 346.006 20.7495 346.188C20.6702 346.365 20.5489 346.519 20.3855 346.65C20.2269 346.781 20.0262 346.881 19.7835 346.951C19.5455 347.021 19.2655 347.056 18.9435 347.056C18.7382 347.056 18.5515 347.042 18.3835 347.014C18.2202 346.986 18.0709 346.951 17.9355 346.909C17.8049 346.862 17.6882 346.813 17.5855 346.762C17.4875 346.711 17.4035 346.664 17.3335 346.622L17.6695 345.957C17.8562 346.064 18.0639 346.151 18.2925 346.216C18.5212 346.281 18.7289 346.314 18.9155 346.314C19.0089 346.314 19.1232 346.302 19.2585 346.279C19.3985 346.256 19.5315 346.216 19.6575 346.16C19.7835 346.099 19.8909 346.02 19.9795 345.922C20.0729 345.824 20.1195 345.7 20.1195 345.551C20.1195 345.416 20.0822 345.301 20.0075 345.208C19.9375 345.11 19.8419 345.026 19.7205 344.956C19.6039 344.881 19.4685 344.816 19.3145 344.76C19.1652 344.699 19.0112 344.639 18.8525 344.578C18.6939 344.513 18.5375 344.445 18.3835 344.375C18.2342 344.305 18.0989 344.221 17.9775 344.123C17.8609 344.02 17.7652 343.904 17.6905 343.773C17.6205 343.638 17.5855 343.477 17.5855 343.29C17.5855 343.117 17.6205 342.947 17.6905 342.779C17.7605 342.611 17.8655 342.462 18.0055 342.331C18.1455 342.2 18.3182 342.095 18.5235 342.016C18.7335 341.937 18.9762 341.897 19.2515 341.897C19.4195 341.897 19.5829 341.911 19.7415 341.939C19.9049 341.967 20.0519 342 20.1825 342.037C20.3132 342.07 20.4229 342.102 20.5115 342.135C20.6049 342.168 20.6655 342.191 20.6935 342.205ZM21.7465 341.925H22.5095V347H21.7465V341.925ZM28.2083 341.925V347.231C28.143 347.147 28.017 347.012 27.8303 346.825C27.6436 346.638 27.429 346.424 27.1863 346.181C26.9436 345.938 26.6846 345.684 26.4093 345.418C26.1386 345.152 25.882 344.9 25.6393 344.662C25.3966 344.419 25.1843 344.205 25.0023 344.018C24.8203 343.827 24.699 343.691 24.6383 343.612L24.5053 343.43L24.5263 343.654V347H23.7563V341.687C23.8076 341.752 23.8916 341.846 24.0083 341.967C24.1296 342.088 24.2696 342.231 24.4283 342.394C24.5916 342.553 24.769 342.725 24.9603 342.912C25.1563 343.099 25.3523 343.288 25.5483 343.479C25.749 343.67 25.945 343.859 26.1363 344.046C26.3323 344.228 26.5096 344.398 26.6683 344.557C26.8316 344.716 26.9716 344.856 27.0883 344.977C27.205 345.098 27.2866 345.189 27.3333 345.25L27.4663 345.446L27.4453 345.208V341.925H28.2083Z" fill="#C4C4C4"/>
<circle cx="24" cy="327" r="9.5" fill="#616161" stroke="#C4C4C4"/>
<path d="M24 319L30.9282 323V331L24 335L17.0718 331V323L24 319Z" fill="#A5A5A5"/>
<circle cx="24" cy="327" r="5.5" fill="black" stroke="#E5E5E5"/>
<path d="M15.7324 252.466H16.4254C16.612 252.466 16.7684 252.433 16.8944 252.368C17.0204 252.303 17.1184 252.223 17.1884 252.13C17.263 252.037 17.3144 251.936 17.3424 251.829C17.375 251.722 17.3914 251.626 17.3914 251.542C17.3914 251.453 17.375 251.358 17.3424 251.255C17.3144 251.148 17.263 251.05 17.1884 250.961C17.1137 250.868 17.0134 250.791 16.8874 250.73C16.766 250.669 16.6144 250.639 16.4324 250.639H15.7324V252.466ZM14.9624 255V249.925H16.3484C16.6144 249.925 16.857 249.96 17.0764 250.03C17.3004 250.1 17.4917 250.205 17.6504 250.345C17.8137 250.48 17.9397 250.648 18.0284 250.849C18.117 251.045 18.1614 251.271 18.1614 251.528C18.1614 251.729 18.131 251.929 18.0704 252.13C18.0097 252.326 17.9117 252.503 17.7764 252.662C17.641 252.816 17.4637 252.942 17.2444 253.04C17.025 253.138 16.759 253.187 16.4464 253.187H15.7324V255H14.9624ZM20.8784 255.056C20.6077 255.056 20.3557 255.012 20.1224 254.923C19.8891 254.834 19.6837 254.711 19.5064 254.552C19.3337 254.389 19.1961 254.195 19.0934 253.971C18.9954 253.742 18.9464 253.488 18.9464 253.208V249.925H19.7164V253.187C19.7164 253.35 19.7444 253.502 19.8004 253.642C19.8611 253.777 19.9427 253.899 20.0454 254.006C20.1527 254.109 20.2764 254.19 20.4164 254.251C20.5564 254.307 20.7104 254.335 20.8784 254.335C21.0417 254.335 21.1934 254.307 21.3334 254.251C21.4781 254.19 21.6017 254.109 21.7044 254.006C21.8117 253.899 21.8957 253.777 21.9564 253.642C22.0171 253.502 22.0474 253.35 22.0474 253.187V249.925H22.8174V253.208C22.8174 253.488 22.7661 253.742 22.6634 253.971C22.5654 254.195 22.4277 254.389 22.2504 254.552C22.0777 254.711 21.8724 254.834 21.6344 254.923C21.4011 255.012 21.1491 255.056 20.8784 255.056ZM24.0063 255V249.925H24.7763V254.272H27.2963V255H24.0063ZM30.9103 250.205L30.6373 250.828C30.446 250.758 30.2547 250.702 30.0633 250.66C29.8767 250.618 29.697 250.597 29.5243 250.597C29.2303 250.597 28.9947 250.658 28.8173 250.779C28.6447 250.9 28.5583 251.054 28.5583 251.241C28.5583 251.4 28.6213 251.528 28.7473 251.626C28.8733 251.719 29.0297 251.806 29.2163 251.885C29.403 251.96 29.606 252.037 29.8253 252.116C30.0447 252.191 30.2477 252.289 30.4343 252.41C30.621 252.531 30.7773 252.685 30.9033 252.872C31.0293 253.054 31.0923 253.29 31.0923 253.579C31.0923 253.803 31.0503 254.006 30.9663 254.188C30.887 254.365 30.7657 254.519 30.6023 254.65C30.4437 254.781 30.243 254.881 30.0003 254.951C29.7623 255.021 29.4823 255.056 29.1603 255.056C28.955 255.056 28.7683 255.042 28.6003 255.014C28.437 254.986 28.2877 254.951 28.1523 254.909C28.0217 254.862 27.905 254.813 27.8023 254.762C27.7043 254.711 27.6203 254.664 27.5503 254.622L27.8863 253.957C28.073 254.064 28.2807 254.151 28.5093 254.216C28.738 254.281 28.9457 254.314 29.1323 254.314C29.2257 254.314 29.34 254.302 29.4753 254.279C29.6153 254.256 29.7483 254.216 29.8743 254.16C30.0003 254.099 30.1077 254.02 30.1963 253.922C30.2897 253.824 30.3363 253.7 30.3363 253.551C30.3363 253.416 30.299 253.301 30.2243 253.208C30.1543 253.11 30.0587 253.026 29.9373 252.956C29.8207 252.881 29.6853 252.816 29.5313 252.76C29.382 252.699 29.228 252.639 29.0693 252.578C28.9107 252.513 28.7543 252.445 28.6003 252.375C28.451 252.305 28.3157 252.221 28.1943 252.123C28.0777 252.02 27.982 251.904 27.9073 251.773C27.8373 251.638 27.8023 251.477 27.8023 251.29C27.8023 251.117 27.8373 250.947 27.9073 250.779C27.9773 250.611 28.0823 250.462 28.2223 250.331C28.3623 250.2 28.535 250.095 28.7403 250.016C28.9503 249.937 29.193 249.897 29.4683 249.897C29.6363 249.897 29.7997 249.911 29.9583 249.939C30.1217 249.967 30.2687 250 30.3993 250.037C30.53 250.07 30.6397 250.102 30.7283 250.135C30.8217 250.168 30.8823 250.191 30.9103 250.205ZM31.9633 255V249.925H35.2953V250.618H32.7333V252.102H35.0153V252.809H32.7333V254.293H35.3933V255H31.9633ZM20.2426 259.946C20.0746 260.389 19.8949 260.856 19.7036 261.346C19.5169 261.831 19.3303 262.31 19.1436 262.781C18.9616 263.252 18.7889 263.7 18.6256 264.125C18.4623 264.55 18.3246 264.916 18.2126 265.224L17.0786 262.389C17.0646 262.352 17.0529 262.324 17.0436 262.305C17.0343 262.286 17.0249 262.258 17.0156 262.221C17.0156 262.24 17.0133 262.258 17.0086 262.277C17.0039 262.291 16.9993 262.307 16.9946 262.326C16.9899 262.345 16.9853 262.363 16.9806 262.382C16.8219 262.746 16.6656 263.103 16.5116 263.453C16.4463 263.602 16.3786 263.756 16.3086 263.915C16.2386 264.074 16.1709 264.232 16.1056 264.391C16.0403 264.545 15.9749 264.694 15.9096 264.839C15.8489 264.984 15.7929 265.114 15.7416 265.231C15.4056 264.349 15.0673 263.469 14.7266 262.592C14.3859 261.715 14.0476 260.833 13.7116 259.946H14.5726C14.6846 260.254 14.7989 260.564 14.9156 260.877C15.0369 261.19 15.1489 261.491 15.2516 261.78C15.3589 262.069 15.4546 262.338 15.5386 262.585C15.6226 262.832 15.6879 263.042 15.7346 263.215L15.7906 263.46C15.7953 263.437 15.8069 263.399 15.8256 263.348C15.8443 263.292 15.8583 263.252 15.8676 263.229C15.8723 263.21 15.8886 263.168 15.9166 263.103C15.9446 263.038 15.9773 262.961 16.0146 262.872C16.0519 262.779 16.0939 262.678 16.1406 262.571C16.1873 262.464 16.2339 262.354 16.2806 262.242C16.3926 261.985 16.5163 261.701 16.6516 261.388C16.5723 261.169 16.5023 260.963 16.4416 260.772C16.3856 260.609 16.3319 260.448 16.2806 260.289C16.2339 260.13 16.1989 260.016 16.1756 259.946H16.9106C17.1113 260.473 17.2979 260.961 17.4706 261.409C17.5406 261.6 17.6106 261.792 17.6806 261.983C17.7553 262.174 17.8229 262.352 17.8836 262.515C17.9489 262.678 18.0049 262.823 18.0516 262.949C18.0983 263.07 18.1309 263.159 18.1496 263.215C18.1636 263.257 18.1729 263.299 18.1776 263.341C18.1869 263.378 18.1963 263.418 18.2056 263.46C18.2149 263.418 18.2219 263.376 18.2266 263.334C18.2359 263.292 18.2453 263.252 18.2546 263.215C18.2966 263.033 18.3619 262.816 18.4506 262.564C18.5393 262.312 18.6373 262.041 18.7446 261.752C18.8566 261.463 18.9733 261.164 19.0946 260.856C19.2159 260.543 19.3326 260.24 19.4446 259.946H20.2426ZM20.9233 259.925H21.6863V265H20.9233V259.925ZM22.9331 259.925H24.2071C24.7204 259.925 25.1544 260.002 25.5091 260.156C25.8637 260.31 26.1507 260.513 26.3701 260.765C26.5941 261.012 26.7551 261.292 26.8531 261.605C26.9557 261.913 27.0071 262.221 27.0071 262.529C27.0071 262.907 26.9394 263.25 26.8041 263.558C26.6687 263.861 26.4844 264.12 26.2511 264.335C26.0177 264.55 25.7471 264.715 25.4391 264.832C25.1311 264.944 24.8044 265 24.4591 265H22.9331V259.925ZM24.3471 264.272C24.6177 264.272 24.8674 264.232 25.0961 264.153C25.3294 264.074 25.5301 263.959 25.6981 263.81C25.8707 263.656 26.0037 263.469 26.0971 263.25C26.1951 263.026 26.2441 262.769 26.2441 262.48C26.2441 262.172 26.1904 261.904 26.0831 261.675C25.9757 261.446 25.8357 261.257 25.6631 261.108C25.4904 260.954 25.2944 260.842 25.0751 260.772C24.8604 260.697 24.6411 260.66 24.4171 260.66H23.6961V264.272H24.3471ZM30.7406 259.925V260.653H29.4596V265H28.6966V260.653H27.4436V259.925H30.7406ZM31.642 265V259.925H32.405V262.081H34.946V259.925H35.716C35.716 259.986 35.716 260.1 35.716 260.268C35.716 260.431 35.716 260.627 35.716 260.856C35.716 261.085 35.716 261.339 35.716 261.619C35.716 261.894 35.7137 262.177 35.709 262.466C35.709 262.751 35.709 263.033 35.709 263.313C35.709 263.588 35.709 263.84 35.709 264.069C35.709 264.298 35.709 264.496 35.709 264.664C35.709 264.827 35.709 264.939 35.709 265H34.946V262.809H32.405V265H31.642Z" fill="#C4C4C4"/>
<circle cx="24" cy="236" r="9.5" fill="#616161" stroke="#C4C4C4"/>
<path d="M24 228L30.9282 232V240L24 244L17.0718 240V232L24 228Z" fill="#A5A5A5"/>
<circle cx="24" cy="236" r="5.5" fill="black" stroke="#E5E5E5"/>
<path d="M49.32 22.742C49.32 22.292 49.407 21.866 49.581 21.464C49.755 21.056 49.992 20.699 50.292 20.393C50.598 20.087 50.952 19.847 51.354 19.673C51.756 19.493 52.188 19.403 52.65 19.403C53.106 19.403 53.535 19.493 53.937 19.673C54.345 19.847 54.699 20.087 54.999 20.393C55.305 20.699 55.545 21.056 55.719 21.464C55.899 21.866 55.989 22.292 55.989 22.742C55.989 23.204 55.899 23.636 55.719 24.038C55.545 24.44 55.305 24.794 54.999 25.1C54.699 25.4 54.345 25.637 53.937 25.811C53.535 25.985 53.106 26.072 52.65 26.072C52.188 26.072 51.756 25.985 51.354 25.811C50.952 25.637 50.598 25.4 50.292 25.1C49.992 24.794 49.755 24.44 49.581 24.038C49.407 23.636 49.32 23.204 49.32 22.742ZM50.301 22.751C50.301 23.081 50.361 23.393 50.481 23.687C50.607 23.975 50.778 24.227 50.994 24.443C51.21 24.659 51.462 24.83 51.75 24.956C52.038 25.082 52.344 25.145 52.668 25.145C52.992 25.145 53.295 25.082 53.577 24.956C53.865 24.83 54.114 24.659 54.324 24.443C54.54 24.227 54.708 23.975 54.828 23.687C54.954 23.393 55.017 23.078 55.017 22.742C55.017 22.412 54.954 22.103 54.828 21.815C54.708 21.521 54.54 21.266 54.324 21.05C54.108 20.834 53.856 20.663 53.568 20.537C53.286 20.411 52.983 20.348 52.659 20.348C52.335 20.348 52.029 20.411 51.741 20.537C51.453 20.663 51.201 20.834 50.985 21.05C50.775 21.266 50.607 21.521 50.481 21.815C50.361 22.109 50.301 22.421 50.301 22.751ZM60.8089 19.835L60.4579 20.636C60.2119 20.546 59.9659 20.474 59.7199 20.42C59.4799 20.366 59.2489 20.339 59.0269 20.339C58.6489 20.339 58.3459 20.417 58.1179 20.573C57.8959 20.729 57.7849 20.927 57.7849 21.167C57.7849 21.371 57.8659 21.536 58.0279 21.662C58.1899 21.782 58.3909 21.893 58.6309 21.995C58.8709 22.091 59.1319 22.19 59.4139 22.292C59.6959 22.388 59.9569 22.514 60.1969 22.67C60.4369 22.826 60.6379 23.024 60.7999 23.264C60.9619 23.498 61.0429 23.801 61.0429 24.173C61.0429 24.461 60.9889 24.722 60.8809 24.956C60.7789 25.184 60.6229 25.382 60.4129 25.55C60.2089 25.718 59.9509 25.847 59.6389 25.937C59.3329 26.027 58.9729 26.072 58.5589 26.072C58.2949 26.072 58.0549 26.054 57.8389 26.018C57.6289 25.982 57.4369 25.937 57.2629 25.883C57.0949 25.823 56.9449 25.76 56.8129 25.694C56.6869 25.628 56.5789 25.568 56.4889 25.514L56.9209 24.659C57.1609 24.797 57.4279 24.908 57.7219 24.992C58.0159 25.076 58.2829 25.118 58.5229 25.118C58.6429 25.118 58.7899 25.103 58.9639 25.073C59.1439 25.043 59.3149 24.992 59.4769 24.92C59.6389 24.842 59.7769 24.74 59.8909 24.614C60.0109 24.488 60.0709 24.329 60.0709 24.137C60.0709 23.963 60.0229 23.816 59.9269 23.696C59.8369 23.57 59.7139 23.462 59.5579 23.372C59.4079 23.276 59.2339 23.192 59.0359 23.12C58.8439 23.042 58.6459 22.964 58.4419 22.886C58.2379 22.802 58.0369 22.715 57.8389 22.625C57.6469 22.535 57.4729 22.427 57.3169 22.301C57.1669 22.169 57.0439 22.019 56.9479 21.851C56.8579 21.677 56.8129 21.47 56.8129 21.23C56.8129 21.008 56.8579 20.789 56.9479 20.573C57.0379 20.357 57.1729 20.165 57.3529 19.997C57.5329 19.829 57.7549 19.694 58.0189 19.592C58.2889 19.49 58.6009 19.439 58.9549 19.439C59.1709 19.439 59.3809 19.457 59.5849 19.493C59.7949 19.529 59.9839 19.571 60.1519 19.619C60.3199 19.661 60.4609 19.703 60.5749 19.745C60.6949 19.787 60.7729 19.817 60.8089 19.835ZM67.0048 25.532C66.9328 25.586 66.8308 25.646 66.6988 25.712C66.5728 25.772 66.4228 25.829 66.2488 25.883C66.0748 25.937 65.8798 25.982 65.6638 26.018C65.4538 26.054 65.2288 26.072 64.9888 26.072C64.4788 26.072 64.0198 25.985 63.6118 25.811C63.2098 25.631 62.8678 25.391 62.5858 25.091C62.3038 24.791 62.0878 24.443 61.9378 24.047C61.7878 23.651 61.7128 23.231 61.7128 22.787C61.7128 22.295 61.7998 21.842 61.9738 21.428C62.1538 21.014 62.3968 20.657 62.7028 20.357C63.0088 20.057 63.3658 19.823 63.7738 19.655C64.1878 19.487 64.6258 19.403 65.0878 19.403C65.2618 19.403 65.4388 19.415 65.6188 19.439C65.7988 19.463 65.9668 19.496 66.1228 19.538C66.2848 19.58 66.4258 19.631 66.5458 19.691C66.6718 19.745 66.7678 19.802 66.8338 19.862C66.7858 19.934 66.7468 19.994 66.7168 20.042C66.6928 20.09 66.6658 20.141 66.6358 20.195C66.6058 20.243 66.5728 20.3 66.5368 20.366C66.5008 20.432 66.4528 20.519 66.3928 20.627C66.3148 20.573 66.2218 20.528 66.1138 20.492C66.0118 20.456 65.9038 20.426 65.7898 20.402C65.6758 20.378 65.5588 20.36 65.4388 20.348C65.3248 20.336 65.2198 20.33 65.1238 20.33C64.7758 20.33 64.4518 20.396 64.1518 20.528C63.8578 20.654 63.6028 20.828 63.3868 21.05C63.1708 21.266 62.9998 21.518 62.8738 21.806C62.7538 22.094 62.6938 22.394 62.6938 22.706C62.6938 23.012 62.7508 23.306 62.8648 23.588C62.9848 23.87 63.1468 24.122 63.3508 24.344C63.5608 24.566 63.8098 24.743 64.0978 24.875C64.3918 25.007 64.7128 25.073 65.0608 25.073C65.2468 25.073 65.4268 25.055 65.6008 25.019C65.7748 24.983 65.9308 24.941 66.0688 24.893C66.2128 24.845 66.3298 24.797 66.4198 24.749C66.5158 24.701 66.5728 24.665 66.5908 24.641L67.0048 25.532ZM67.9021 19.475H68.8831V26H67.9021V19.475ZM70.4861 26V19.475H71.4761V25.064H74.7161V26H70.4861ZM75.6277 26V19.475H76.6177V25.064H79.8577V26H75.6277ZM84.8103 26C84.7803 25.934 84.7383 25.838 84.6843 25.712C84.6303 25.586 84.5673 25.442 84.4953 25.28C84.4293 25.112 84.3543 24.932 84.2703 24.74C84.1923 24.542 84.1113 24.338 84.0273 24.128H81.7233L80.9493 26H79.9773L82.8843 19.169C82.9203 19.253 82.9833 19.406 83.0733 19.628C83.1693 19.85 83.2803 20.117 83.4063 20.429C83.5383 20.735 83.6823 21.077 83.8383 21.455C84.0003 21.827 84.1623 22.205 84.3243 22.589C84.4923 22.973 84.6543 23.351 84.8103 23.723C84.9723 24.095 85.1193 24.437 85.2513 24.749C85.3833 25.061 85.4943 25.328 85.5843 25.55C85.6803 25.766 85.7463 25.916 85.7823 26H84.8103ZM82.0653 23.3H83.6943C83.6103 23.102 83.5293 22.913 83.4513 22.733C83.3793 22.547 83.3103 22.379 83.2443 22.229C83.1843 22.073 83.1303 21.938 83.0823 21.824C83.0343 21.71 82.9983 21.62 82.9743 21.554C82.9683 21.542 82.9533 21.5 82.9293 21.428C82.9113 21.356 82.8963 21.29 82.8843 21.23C82.8723 21.29 82.8543 21.356 82.8303 21.428C82.8063 21.5 82.7913 21.542 82.7853 21.554L82.0653 23.3ZM89.8055 19.475V20.411H88.1585V26H87.1775V20.411H85.5665V19.475H89.8055ZM90.3562 22.742C90.3562 22.292 90.4432 21.866 90.6172 21.464C90.7912 21.056 91.0282 20.699 91.3282 20.393C91.6342 20.087 91.9882 19.847 92.3902 19.673C92.7922 19.493 93.2242 19.403 93.6862 19.403C94.1422 19.403 94.5712 19.493 94.9732 19.673C95.3812 19.847 95.7352 20.087 96.0352 20.393C96.3412 20.699 96.5812 21.056 96.7552 21.464C96.9352 21.866 97.0252 22.292 97.0252 22.742C97.0252 23.204 96.9352 23.636 96.7552 24.038C96.5812 24.44 96.3412 24.794 96.0352 25.1C95.7352 25.4 95.3812 25.637 94.9732 25.811C94.5712 25.985 94.1422 26.072 93.6862 26.072C93.2242 26.072 92.7922 25.985 92.3902 25.811C91.9882 25.637 91.6342 25.4 91.3282 25.1C91.0282 24.794 90.7912 24.44 90.6172 24.038C90.4432 23.636 90.3562 23.204 90.3562 22.742ZM91.3372 22.751C91.3372 23.081 91.3972 23.393 91.5172 23.687C91.6432 23.975 91.8142 24.227 92.0302 24.443C92.2462 24.659 92.4982 24.83 92.7862 24.956C93.0742 25.082 93.3802 25.145 93.7042 25.145C94.0282 25.145 94.3312 25.082 94.6132 24.956C94.9012 24.83 95.1502 24.659 95.3602 24.443C95.5762 24.227 95.7442 23.975 95.8642 23.687C95.9902 23.393 96.0532 23.078 96.0532 22.742C96.0532 22.412 95.9902 22.103 95.8642 21.815C95.7442 21.521 95.5762 21.266 95.3602 21.05C95.1442 20.834 94.8922 20.663 94.6042 20.537C94.3222 20.411 94.0192 20.348 93.6952 20.348C93.3712 20.348 93.0652 20.411 92.7772 20.537C92.4892 20.663 92.2372 20.834 92.0212 21.05C91.8112 21.266 91.6432 21.521 91.5172 21.815C91.3972 22.109 91.3372 22.421 91.3372 22.751ZM98.1716 26V19.475H99.9536C100.296 19.475 100.608 19.52 100.89 19.61C101.178 19.7 101.424 19.835 101.628 20.015C101.838 20.189 102 20.405 102.114 20.663C102.228 20.915 102.285 21.206 102.285 21.536C102.285 21.716 102.267 21.896 102.231 22.076C102.195 22.25 102.135 22.421 102.051 22.589C101.973 22.751 101.871 22.904 101.745 23.048C101.619 23.186 101.466 23.303 101.286 23.399C101.526 23.777 101.787 24.197 102.069 24.659C102.351 25.115 102.636 25.562 102.924 26H101.745C101.625 25.814 101.499 25.619 101.367 25.415C101.241 25.211 101.112 25.01 100.98 24.812C100.854 24.608 100.728 24.41 100.602 24.218C100.482 24.02 100.368 23.837 100.26 23.669H100.08H99.1616V26H98.1716ZM99.1616 22.742H100.053C100.293 22.742 100.494 22.703 100.656 22.625C100.818 22.541 100.944 22.439 101.034 22.319C101.13 22.199 101.196 22.07 101.232 21.932C101.274 21.794 101.295 21.668 101.295 21.554C101.295 21.44 101.274 21.317 101.232 21.185C101.196 21.047 101.13 20.921 101.034 20.807C100.938 20.687 100.809 20.588 100.647 20.51C100.491 20.432 100.296 20.393 100.062 20.393H99.1616V22.742Z" fill="#C4C4C4"/>
<circle cx="58" cy="327" r="9.5" fill="#616161" stroke="#C4C4C4"/>
<path d="M58 319L64.9282 323V331L58 335L51.0718 331V323L58 319Z" fill="#A5A5A5"/>
<circle cx="58" cy="327" r="5.5" fill="black" stroke="#E5E5E5"/>
<circle cx="92" cy="327" r="9.5" fill="#616161" stroke="#C4C4C4"/>
<path d="M92 319L98.9282 323V331L92 335L85.0718 331V323L92 319Z" fill="#A5A5A5"/>
<circle cx="92" cy="327" r="5.5" fill="black" stroke="#E5E5E5"/>
<path d="M18.5166 182V176.925H21.5546V177.632H19.2796V179.165H21.2676V179.879H19.2796V182H18.5166ZM22.3994 176.701C22.4414 176.766 22.5277 176.892 22.6584 177.079C22.7937 177.261 22.9477 177.473 23.1204 177.716C23.2977 177.959 23.4844 178.218 23.6804 178.493C23.8764 178.764 24.0607 179.02 24.2334 179.263C24.406 179.501 24.5554 179.709 24.6814 179.886C24.812 180.063 24.8984 180.18 24.9404 180.236C24.9544 180.213 24.9987 180.15 25.0734 180.047C25.148 179.944 25.239 179.816 25.3464 179.662C25.4584 179.508 25.5844 179.335 25.7244 179.144C25.8644 178.948 26.0067 178.75 26.1514 178.549C26.3007 178.344 26.4454 178.141 26.5854 177.94C26.73 177.739 26.863 177.557 26.9844 177.394C27.1057 177.226 27.2084 177.081 27.2924 176.96C27.381 176.834 27.444 176.748 27.4814 176.701V182H26.6694V179.158C26.6694 179.121 26.6717 179.081 26.6764 179.039C26.6857 178.997 26.6904 178.967 26.6904 178.948C26.6484 179.004 26.5807 179.1 26.4874 179.235C26.3987 179.366 26.2937 179.517 26.1724 179.69C26.0557 179.858 25.932 180.038 25.8014 180.229C25.6707 180.416 25.547 180.593 25.4304 180.761C25.3137 180.929 25.211 181.078 25.1224 181.209C25.0337 181.335 24.973 181.424 24.9404 181.475C24.9077 181.433 24.8424 181.347 24.7444 181.216C24.651 181.081 24.539 180.924 24.4084 180.747C24.2824 180.57 24.147 180.381 24.0024 180.18C23.8624 179.979 23.7317 179.793 23.6104 179.62C23.489 179.447 23.384 179.3 23.2954 179.179C23.2067 179.053 23.1554 178.976 23.1414 178.948C23.1414 178.967 23.1437 178.997 23.1484 179.039C23.1577 179.081 23.1624 179.121 23.1624 179.158V182H22.3994V176.701Z" fill="#C4C4C4"/>
<circle cx="24" cy="153" r="9.5" fill="#616161" stroke="#C4C4C4"/>
<path d="M24 145L30.9282 149V157L24 161L17.0718 157V149L24 145Z" fill="#A5A5A5"/>
<circle cx="24" cy="153" r="5.5" fill="black" stroke="#E5E5E5"/>
<path d="M14.1811 95.925C14.2138 96.0043 14.2675 96.135 14.3421 96.317C14.4168 96.4943 14.5008 96.6973 14.5941 96.926C14.6921 97.1547 14.7925 97.3973 14.8951 97.654C15.0025 97.9107 15.1028 98.1533 15.1961 98.382C15.2895 98.6107 15.3735 98.816 15.4481 98.998C15.5228 99.1753 15.5765 99.3037 15.6091 99.383C15.6138 99.3923 15.6255 99.425 15.6441 99.481C15.6628 99.537 15.6768 99.586 15.6861 99.628L15.7561 99.383C15.7888 99.3037 15.8425 99.1753 15.9171 98.998C15.9918 98.816 16.0758 98.6107 16.1691 98.382C16.2625 98.1533 16.3605 97.9107 16.4631 97.654C16.5705 97.3973 16.6708 97.1547 16.7641 96.926C16.8621 96.6973 16.9485 96.4943 17.0231 96.317C17.0978 96.135 17.1515 96.0043 17.1841 95.925H17.9401C17.9121 95.9903 17.8608 96.1093 17.7861 96.282C17.7161 96.45 17.6298 96.6553 17.5271 96.898C17.4245 97.1407 17.3101 97.4067 17.1841 97.696C17.0628 97.9853 16.9368 98.2793 16.8061 98.578C16.6801 98.8767 16.5541 99.1707 16.4281 99.46C16.3068 99.7493 16.1948 100.015 16.0921 100.258C15.9941 100.501 15.9078 100.708 15.8331 100.881C15.7631 101.049 15.7141 101.166 15.6861 101.231L13.4251 95.925H14.1811ZM17.7775 101.133L19.7515 95.778H20.4025C20.0665 96.674 19.7352 97.5677 19.4085 98.459C19.0865 99.3457 18.7575 100.237 18.4215 101.133H17.7775ZM20.8139 98.466C20.8139 98.116 20.8815 97.7847 21.0169 97.472C21.1522 97.1547 21.3365 96.877 21.5699 96.639C21.8079 96.401 22.0832 96.2143 22.3959 96.079C22.7085 95.939 23.0445 95.869 23.4039 95.869C23.7585 95.869 24.0922 95.939 24.4049 96.079C24.7222 96.2143 24.9975 96.401 25.2309 96.639C25.4689 96.877 25.6555 97.1547 25.7909 97.472C25.9309 97.7847 26.0009 98.116 26.0009 98.466C26.0009 98.8253 25.9309 99.1613 25.7909 99.474C25.6555 99.7867 25.4689 100.062 25.2309 100.3C24.9975 100.533 24.7222 100.718 24.4049 100.853C24.0922 100.988 23.7585 101.056 23.4039 101.056C23.0445 101.056 22.7085 100.988 22.3959 100.853C22.0832 100.718 21.8079 100.533 21.5699 100.3C21.3365 100.062 21.1522 99.7867 21.0169 99.474C20.8815 99.1613 20.8139 98.8253 20.8139 98.466ZM21.5769 98.473C21.5769 98.7297 21.6235 98.9723 21.7169 99.201C21.8149 99.425 21.9479 99.621 22.1159 99.789C22.2839 99.957 22.4799 100.09 22.7039 100.188C22.9279 100.286 23.1659 100.335 23.4179 100.335C23.6699 100.335 23.9055 100.286 24.1249 100.188C24.3489 100.09 24.5425 99.957 24.7059 99.789C24.8739 99.621 25.0045 99.425 25.0979 99.201C25.1959 98.9723 25.2449 98.7273 25.2449 98.466C25.2449 98.2093 25.1959 97.969 25.0979 97.745C25.0045 97.5163 24.8739 97.318 24.7059 97.15C24.5379 96.982 24.3419 96.849 24.1179 96.751C23.8985 96.653 23.6629 96.604 23.4109 96.604C23.1589 96.604 22.9209 96.653 22.6969 96.751C22.4729 96.849 22.2769 96.982 22.1089 97.15C21.9455 97.318 21.8149 97.5163 21.7169 97.745C21.6235 97.9737 21.5769 98.2163 21.5769 98.473ZM30.6585 100.636C30.6025 100.678 30.5232 100.725 30.4205 100.776C30.3225 100.823 30.2059 100.867 30.0705 100.909C29.9352 100.951 29.7835 100.986 29.6155 101.014C29.4522 101.042 29.2772 101.056 29.0905 101.056C28.6939 101.056 28.3369 100.988 28.0195 100.853C27.7069 100.713 27.4409 100.526 27.2215 100.293C27.0022 100.06 26.8342 99.789 26.7175 99.481C26.6009 99.173 26.5425 98.8463 26.5425 98.501C26.5425 98.1183 26.6102 97.766 26.7455 97.444C26.8855 97.122 27.0745 96.8443 27.3125 96.611C27.5505 96.3777 27.8282 96.1957 28.1455 96.065C28.4675 95.9343 28.8082 95.869 29.1675 95.869C29.3029 95.869 29.4405 95.8783 29.5805 95.897C29.7205 95.9157 29.8512 95.9413 29.9725 95.974C30.0985 96.0067 30.2082 96.0463 30.3015 96.093C30.3995 96.135 30.4742 96.1793 30.5255 96.226C30.4882 96.282 30.4579 96.3287 30.4345 96.366C30.4159 96.4033 30.3949 96.443 30.3715 96.485C30.3482 96.5223 30.3225 96.5667 30.2945 96.618C30.2665 96.6693 30.2292 96.737 30.1825 96.821C30.1219 96.779 30.0495 96.744 29.9655 96.716C29.8862 96.688 29.8022 96.6647 29.7135 96.646C29.6249 96.6273 29.5339 96.6133 29.4405 96.604C29.3519 96.5947 29.2702 96.59 29.1955 96.59C28.9249 96.59 28.6729 96.6413 28.4395 96.744C28.2109 96.842 28.0125 96.9773 27.8445 97.15C27.6765 97.318 27.5435 97.514 27.4455 97.738C27.3522 97.962 27.3055 98.1953 27.3055 98.438C27.3055 98.676 27.3499 98.9047 27.4385 99.124C27.5319 99.3433 27.6579 99.5393 27.8165 99.712C27.9799 99.8847 28.1735 100.022 28.3975 100.125C28.6262 100.228 28.8759 100.279 29.1465 100.279C29.2912 100.279 29.4312 100.265 29.5665 100.237C29.7019 100.209 29.8232 100.176 29.9305 100.139C30.0425 100.102 30.1335 100.064 30.2035 100.027C30.2782 99.9897 30.3225 99.9617 30.3365 99.943L30.6585 100.636ZM34.3104 95.925V96.653H33.0294V101H32.2664V96.653H31.0134V95.925H34.3104Z" fill="#C4C4C4"/>
<circle cx="24" cy="72" r="9.5" fill="#616161" stroke="#C4C4C4"/>
<path d="M24 64L30.9282 68V76L24 80L17.0718 76V68L24 64Z" fill="#A5A5A5"/>
<circle cx="24" cy="72" r="5.5" fill="black" stroke="#E5E5E5"/>
<circle cx="125" cy="327" r="9.5" fill="#616161" stroke="#C4C4C4"/>
<path d="M125 319L131.928 323V331L125 335L118.072 331V323L125 319Z" fill="#A5A5A5"/>
<circle cx="125" cy="327" r="5.5" fill="black" stroke="#E5E5E5"/>
<line x1="50" y1="236.5" x2="38" y2="236.5" stroke="#E5E5E5"/>
<line x1="50" y1="153.5" x2="38" y2="153.5" stroke="#E5E5E5"/>
<line x1="124.5" y1="280" x2="124.5" y2="300" stroke="#E5E5E5"/>
<line x1="75.5" y1="106" x2="75.5" y2="126" stroke="#E5E5E5"/>
<rect x="7" y="309" width="32" height="54" fill="#161616"/>
<path d="M61.9764 376V371.65H63.1644C63.3924 371.65 63.6004 371.68 63.7884 371.74C63.9804 371.8 64.1444 371.89 64.2804 372.01C64.4204 372.126 64.5284 372.27 64.6044 372.442C64.6804 372.61 64.7184 372.804 64.7184 373.024C64.7184 373.144 64.7064 373.264 64.6824 373.384C64.6584 373.5 64.6184 373.614 64.5624 373.726C64.5104 373.834 64.4424 373.936 64.3584 374.032C64.2744 374.124 64.1724 374.202 64.0524 374.266C64.2124 374.518 64.3864 374.798 64.5744 375.106C64.7624 375.41 64.9524 375.708 65.1444 376H64.3584C64.2784 375.876 64.1944 375.746 64.1064 375.61C64.0224 375.474 63.9364 375.34 63.8484 375.208C63.7644 375.072 63.6804 374.94 63.5964 374.812C63.5164 374.68 63.4404 374.558 63.3684 374.446H63.2484H62.6364V376H61.9764ZM62.6364 373.828H63.2304C63.3904 373.828 63.5244 373.802 63.6324 373.75C63.7404 373.694 63.8244 373.626 63.8844 373.546C63.9484 373.466 63.9924 373.38 64.0164 373.288C64.0444 373.196 64.0584 373.112 64.0584 373.036C64.0584 372.96 64.0444 372.878 64.0164 372.79C63.9924 372.698 63.9484 372.614 63.8844 372.538C63.8204 372.458 63.7344 372.392 63.6264 372.34C63.5224 372.288 63.3924 372.262 63.2364 372.262H62.6364V373.828ZM68.438 376C68.418 375.956 68.39 375.892 68.354 375.808C68.318 375.724 68.276 375.628 68.228 375.52C68.184 375.408 68.134 375.288 68.078 375.16C68.026 375.028 67.972 374.892 67.916 374.752H66.38L65.864 376H65.216L67.154 371.446C67.178 371.502 67.22 371.604 67.28 371.752C67.344 371.9 67.418 372.078 67.502 372.286C67.59 372.49 67.686 372.718 67.79 372.97C67.898 373.218 68.006 373.47 68.114 373.726C68.226 373.982 68.334 374.234 68.438 374.482C68.546 374.73 68.644 374.958 68.732 375.166C68.82 375.374 68.894 375.552 68.954 375.7C69.018 375.844 69.062 375.944 69.086 376H68.438ZM66.608 374.2H67.694C67.638 374.068 67.584 373.942 67.532 373.822C67.484 373.698 67.438 373.586 67.394 373.486C67.354 373.382 67.318 373.292 67.286 373.216C67.254 373.14 67.23 373.08 67.214 373.036C67.21 373.028 67.2 373 67.184 372.952C67.172 372.904 67.162 372.86 67.154 372.82C67.146 372.86 67.134 372.904 67.118 372.952C67.102 373 67.092 373.028 67.088 373.036L66.608 374.2ZM72.6927 375.688C72.6447 375.724 72.5767 375.764 72.4887 375.808C72.4047 375.848 72.3047 375.886 72.1887 375.922C72.0727 375.958 71.9427 375.988 71.7987 376.012C71.6587 376.036 71.5087 376.048 71.3487 376.048C71.0087 376.048 70.7027 375.99 70.4307 375.874C70.1627 375.754 69.9347 375.594 69.7467 375.394C69.5587 375.194 69.4147 374.962 69.3147 374.698C69.2147 374.434 69.1647 374.154 69.1647 373.858C69.1647 373.53 69.2227 373.228 69.3387 372.952C69.4587 372.676 69.6207 372.438 69.8247 372.238C70.0287 372.038 70.2667 371.882 70.5387 371.77C70.8147 371.658 71.1067 371.602 71.4147 371.602C71.5307 371.602 71.6487 371.61 71.7687 371.626C71.8887 371.642 72.0007 371.664 72.1047 371.692C72.2127 371.72 72.3067 371.754 72.3867 371.794C72.4707 371.83 72.5347 371.868 72.5787 371.908C72.5467 371.956 72.5207 371.996 72.5007 372.028C72.4847 372.06 72.4667 372.094 72.4467 372.13C72.4267 372.162 72.4047 372.2 72.3807 372.244C72.3567 372.288 72.3247 372.346 72.2847 372.418C72.2327 372.382 72.1707 372.352 72.0987 372.328C72.0307 372.304 71.9587 372.284 71.8827 372.268C71.8067 372.252 71.7287 372.24 71.6487 372.232C71.5727 372.224 71.5027 372.22 71.4387 372.22C71.2067 372.22 70.9907 372.264 70.7907 372.352C70.5947 372.436 70.4247 372.552 70.2807 372.7C70.1367 372.844 70.0227 373.012 69.9387 373.204C69.8587 373.396 69.8187 373.596 69.8187 373.804C69.8187 374.008 69.8567 374.204 69.9327 374.392C70.0127 374.58 70.1207 374.748 70.2567 374.896C70.3967 375.044 70.5627 375.162 70.7547 375.25C70.9507 375.338 71.1647 375.382 71.3967 375.382C71.5207 375.382 71.6407 375.37 71.7567 375.346C71.8727 375.322 71.9767 375.294 72.0687 375.262C72.1647 375.23 72.2427 375.198 72.3027 375.166C72.3667 375.134 72.4047 375.11 72.4167 375.094L72.6927 375.688ZM75.8708 376C75.7308 375.82 75.5968 375.648 75.4688 375.484C75.3408 375.32 75.2148 375.156 75.0908 374.992C74.9668 374.828 74.8408 374.662 74.7128 374.494C74.5888 374.326 74.4568 374.152 74.3168 373.972C74.2648 374.028 74.2148 374.08 74.1668 374.128C74.1188 374.172 74.0668 374.218 74.0108 374.266C74.0108 374.574 74.0108 374.864 74.0108 375.136C74.0148 375.404 74.0168 375.692 74.0168 376H73.2908V371.65H74.0168V373.276C74.0168 373.312 74.0128 373.348 74.0048 373.384C74.0008 373.416 73.9988 373.45 73.9988 373.486C74.0188 373.458 74.0388 373.434 74.0588 373.414C74.0788 373.39 74.0988 373.362 74.1188 373.33C74.4028 373.062 74.6768 372.784 74.9408 372.496C75.2048 372.204 75.4788 371.922 75.7628 371.65H76.5968C76.2968 371.962 75.9988 372.276 75.7028 372.592C75.4108 372.908 75.1148 373.222 74.8148 373.534C74.9828 373.75 75.1428 373.96 75.2948 374.164C75.4508 374.364 75.6028 374.564 75.7508 374.764C75.9028 374.964 76.0548 375.166 76.2068 375.37C76.3588 375.574 76.5168 375.784 76.6808 376H75.8708ZM77.1756 376V371.65H77.8356V375.376H79.9956V376H77.1756ZM80.6033 376V371.65H83.4593V372.244H81.2633V373.516H83.2193V374.122H81.2633V375.394H83.5433V376H80.6033ZM86.7965 371.89L86.5625 372.424C86.3985 372.364 86.2345 372.316 86.0705 372.28C85.9105 372.244 85.7565 372.226 85.6085 372.226C85.3565 372.226 85.1545 372.278 85.0025 372.382C84.8545 372.486 84.7805 372.618 84.7805 372.778C84.7805 372.914 84.8345 373.024 84.9425 373.108C85.0505 373.188 85.1845 373.262 85.3445 373.33C85.5045 373.394 85.6785 373.46 85.8665 373.528C86.0545 373.592 86.2285 373.676 86.3885 373.78C86.5485 373.884 86.6825 374.016 86.7905 374.176C86.8985 374.332 86.9525 374.534 86.9525 374.782C86.9525 374.974 86.9165 375.148 86.8445 375.304C86.7765 375.456 86.6725 375.588 86.5325 375.7C86.3965 375.812 86.2245 375.898 86.0165 375.958C85.8125 376.018 85.5725 376.048 85.2965 376.048C85.1205 376.048 84.9605 376.036 84.8165 376.012C84.6765 375.988 84.5485 375.958 84.4325 375.922C84.3205 375.882 84.2205 375.84 84.1325 375.796C84.0485 375.752 83.9765 375.712 83.9165 375.676L84.2045 375.106C84.3645 375.198 84.5425 375.272 84.7385 375.328C84.9345 375.384 85.1125 375.412 85.2725 375.412C85.3525 375.412 85.4505 375.402 85.5665 375.382C85.6865 375.362 85.8005 375.328 85.9085 375.28C86.0165 375.228 86.1085 375.16 86.1845 375.076C86.2645 374.992 86.3045 374.886 86.3045 374.758C86.3045 374.642 86.2725 374.544 86.2085 374.464C86.1485 374.38 86.0665 374.308 85.9625 374.248C85.8625 374.184 85.7465 374.128 85.6145 374.08C85.4865 374.028 85.3545 373.976 85.2185 373.924C85.0825 373.868 84.9485 373.81 84.8165 373.75C84.6885 373.69 84.5725 373.618 84.4685 373.534C84.3685 373.446 84.2865 373.346 84.2225 373.234C84.1625 373.118 84.1325 372.98 84.1325 372.82C84.1325 372.672 84.1625 372.526 84.2225 372.382C84.2825 372.238 84.3725 372.11 84.4925 371.998C84.6125 371.886 84.7605 371.796 84.9365 371.728C85.1165 371.66 85.3245 371.626 85.5605 371.626C85.7045 371.626 85.8445 371.638 85.9805 371.662C86.1205 371.686 86.2465 371.714 86.3585 371.746C86.4705 371.774 86.5645 371.802 86.6405 371.83C86.7205 371.858 86.7725 371.878 86.7965 371.89ZM90.189 371.89L89.955 372.424C89.791 372.364 89.627 372.316 89.463 372.28C89.303 372.244 89.149 372.226 89.001 372.226C88.749 372.226 88.547 372.278 88.395 372.382C88.247 372.486 88.173 372.618 88.173 372.778C88.173 372.914 88.227 373.024 88.335 373.108C88.443 373.188 88.577 373.262 88.737 373.33C88.897 373.394 89.071 373.46 89.259 373.528C89.447 373.592 89.621 373.676 89.781 373.78C89.941 373.884 90.075 374.016 90.183 374.176C90.291 374.332 90.345 374.534 90.345 374.782C90.345 374.974 90.309 375.148 90.237 375.304C90.169 375.456 90.065 375.588 89.925 375.7C89.789 375.812 89.617 375.898 89.409 375.958C89.205 376.018 88.965 376.048 88.689 376.048C88.513 376.048 88.353 376.036 88.209 376.012C88.069 375.988 87.941 375.958 87.825 375.922C87.713 375.882 87.613 375.84 87.525 375.796C87.441 375.752 87.369 375.712 87.309 375.676L87.597 375.106C87.757 375.198 87.935 375.272 88.131 375.328C88.327 375.384 88.505 375.412 88.665 375.412C88.745 375.412 88.843 375.402 88.959 375.382C89.079 375.362 89.193 375.328 89.301 375.28C89.409 375.228 89.501 375.16 89.577 375.076C89.657 374.992 89.697 374.886 89.697 374.758C89.697 374.642 89.665 374.544 89.601 374.464C89.541 374.38 89.459 374.308 89.355 374.248C89.255 374.184 89.139 374.128 89.007 374.08C88.879 374.028 88.747 373.976 88.611 373.924C88.475 373.868 88.341 373.81 88.209 373.75C88.081 373.69 87.965 373.618 87.861 373.534C87.761 373.446 87.679 373.346 87.615 373.234C87.555 373.118 87.525 372.98 87.525 372.82C87.525 372.672 87.555 372.526 87.615 372.382C87.675 372.238 87.765 372.11 87.885 371.998C88.005 371.886 88.153 371.796 88.329 371.728C88.509 371.66 88.717 371.626 88.953 371.626C89.097 371.626 89.237 371.638 89.373 371.662C89.513 371.686 89.639 371.714 89.751 371.746C89.863 371.774 89.957 371.802 90.033 371.83C90.113 371.858 90.165 371.878 90.189 371.89Z" fill="#C4C4C4"/>
<circle cx="24" cy="327" r="9.5" fill="#616161" stroke="#C4C4C4"/>
<path d="M24 319L30.9282 323V331L24 335L17.0718 331V323L24 319Z" fill="#A5A5A5"/>
<circle cx="24" cy="327" r="5.5" fill="black" stroke="#E5E5E5"/>
<line x1="50" y1="72.5" x2="38" y2="72.5" stroke="#E5E5E5"/>
<path d="M49 354L54.3333 346L59.6667 354L65 346" stroke="#616161" stroke-width="3" stroke-linecap="round"/>
<path d="M82 354L89.5 346V354L97 346V354" stroke="#616161" stroke-width="3"/>
<path d="M117 354V346H125V354H133V346" stroke="#616161" stroke-width="3"/>
<path d="M20.2314 346C22.1367 346 23.5576 353.901 25.4629 353.901" stroke="#616161" stroke-width="3" stroke-linecap="round" stroke-linejoin="round"/>
<path d="M20.2314 346C18.3261 346 16.9053 353.901 15 353.901" stroke="#616161" stroke-width="3" stroke-linecap="round" stroke-linejoin="round"/>
<path d="M30.6943 346C28.789 346 27.3681 353.901 25.4629 353.901" stroke="#616161" stroke-width="3" stroke-linecap="round" stroke-linejoin="round"/>
<path d="M118.172 176.925V177.653H116.891V182H116.128V177.653H114.875V176.925H118.172ZM121.132 180.327V182H120.362V180.327C120.329 180.276 120.264 180.164 120.166 179.991C120.072 179.818 119.96 179.615 119.83 179.382C119.704 179.144 119.566 178.892 119.417 178.626C119.272 178.36 119.134 178.11 119.004 177.877C118.878 177.639 118.766 177.434 118.668 177.261C118.574 177.088 118.511 176.976 118.479 176.925H119.347C119.389 176.995 119.463 177.13 119.571 177.331C119.678 177.527 119.797 177.751 119.928 178.003C120.058 178.25 120.191 178.502 120.327 178.759C120.462 179.011 120.576 179.228 120.67 179.41L120.747 179.641C120.765 179.604 120.782 179.566 120.796 179.529C120.81 179.487 120.824 179.447 120.838 179.41C120.936 179.228 121.05 179.011 121.181 178.759C121.311 178.502 121.44 178.25 121.566 178.003C121.696 177.751 121.813 177.527 121.916 177.331C122.023 177.13 122.098 176.995 122.14 176.925H123.001L121.132 180.327ZM124.437 179.466H125.13C125.317 179.466 125.473 179.433 125.599 179.368C125.725 179.303 125.823 179.223 125.893 179.13C125.968 179.037 126.019 178.936 126.047 178.829C126.08 178.722 126.096 178.626 126.096 178.542C126.096 178.453 126.08 178.358 126.047 178.255C126.019 178.148 125.968 178.05 125.893 177.961C125.819 177.868 125.718 177.791 125.592 177.73C125.471 177.669 125.319 177.639 125.137 177.639H124.437V179.466ZM123.667 182V176.925H125.053C125.319 176.925 125.562 176.96 125.781 177.03C126.005 177.1 126.197 177.205 126.355 177.345C126.519 177.48 126.645 177.648 126.733 177.849C126.822 178.045 126.866 178.271 126.866 178.528C126.866 178.729 126.836 178.929 126.775 179.13C126.715 179.326 126.617 179.503 126.481 179.662C126.346 179.816 126.169 179.942 125.949 180.04C125.73 180.138 125.464 180.187 125.151 180.187H124.437V182H123.667ZM127.707 182V176.925H131.039V177.618H128.477V179.102H130.759V179.809H128.477V181.293H131.137V182H127.707Z" fill="#C4C4C4"/>
<path d="M102.77 132.925C102.803 133.004 102.856 133.135 102.931 133.317C103.006 133.494 103.09 133.697 103.183 133.926C103.281 134.155 103.381 134.397 103.484 134.654C103.591 134.911 103.692 135.153 103.785 135.382C103.878 135.611 103.962 135.816 104.037 135.998C104.112 136.175 104.165 136.304 104.198 136.383C104.203 136.392 104.214 136.425 104.233 136.481C104.252 136.537 104.266 136.586 104.275 136.628L104.345 136.383C104.378 136.304 104.431 136.175 104.506 135.998C104.581 135.816 104.665 135.611 104.758 135.382C104.851 135.153 104.949 134.911 105.052 134.654C105.159 134.397 105.26 134.155 105.353 133.926C105.451 133.697 105.537 133.494 105.612 133.317C105.687 133.135 105.74 133.004 105.773 132.925H106.529C106.501 132.99 106.45 133.109 106.375 133.282C106.305 133.45 106.219 133.655 106.116 133.898C106.013 134.141 105.899 134.407 105.773 134.696C105.652 134.985 105.526 135.279 105.395 135.578C105.269 135.877 105.143 136.171 105.017 136.46C104.896 136.749 104.784 137.015 104.681 137.258C104.583 137.501 104.497 137.708 104.422 137.881C104.352 138.049 104.303 138.166 104.275 138.231L102.014 132.925H102.77ZM110.737 137.636C110.681 137.678 110.601 137.725 110.499 137.776C110.401 137.823 110.284 137.867 110.149 137.909C110.013 137.951 109.862 137.986 109.694 138.014C109.53 138.042 109.355 138.056 109.169 138.056C108.772 138.056 108.415 137.988 108.098 137.853C107.785 137.713 107.519 137.526 107.3 137.293C107.08 137.06 106.912 136.789 106.796 136.481C106.679 136.173 106.621 135.846 106.621 135.501C106.621 135.118 106.688 134.766 106.824 134.444C106.964 134.122 107.153 133.844 107.391 133.611C107.629 133.378 107.906 133.196 108.224 133.065C108.546 132.934 108.886 132.869 109.246 132.869C109.381 132.869 109.519 132.878 109.659 132.897C109.799 132.916 109.929 132.941 110.051 132.974C110.177 133.007 110.286 133.046 110.38 133.093C110.478 133.135 110.552 133.179 110.604 133.226C110.566 133.282 110.536 133.329 110.513 133.366C110.494 133.403 110.473 133.443 110.45 133.485C110.426 133.522 110.401 133.567 110.373 133.618C110.345 133.669 110.307 133.737 110.261 133.821C110.2 133.779 110.128 133.744 110.044 133.716C109.964 133.688 109.88 133.665 109.792 133.646C109.703 133.627 109.612 133.613 109.519 133.604C109.43 133.595 109.348 133.59 109.274 133.59C109.003 133.59 108.751 133.641 108.518 133.744C108.289 133.842 108.091 133.977 107.923 134.15C107.755 134.318 107.622 134.514 107.524 134.738C107.43 134.962 107.384 135.195 107.384 135.438C107.384 135.676 107.428 135.905 107.517 136.124C107.61 136.343 107.736 136.539 107.895 136.712C108.058 136.885 108.252 137.022 108.476 137.125C108.704 137.228 108.954 137.279 109.225 137.279C109.369 137.279 109.509 137.265 109.645 137.237C109.78 137.209 109.901 137.176 110.009 137.139C110.121 137.102 110.212 137.064 110.282 137.027C110.356 136.99 110.401 136.962 110.415 136.943L110.737 137.636ZM110.941 135.466C110.941 135.116 111.008 134.785 111.144 134.472C111.279 134.155 111.463 133.877 111.697 133.639C111.935 133.401 112.21 133.214 112.523 133.079C112.835 132.939 113.171 132.869 113.531 132.869C113.885 132.869 114.219 132.939 114.532 133.079C114.849 133.214 115.124 133.401 115.358 133.639C115.596 133.877 115.782 134.155 115.918 134.472C116.058 134.785 116.128 135.116 116.128 135.466C116.128 135.825 116.058 136.161 115.918 136.474C115.782 136.787 115.596 137.062 115.358 137.3C115.124 137.533 114.849 137.718 114.532 137.853C114.219 137.988 113.885 138.056 113.531 138.056C113.171 138.056 112.835 137.988 112.523 137.853C112.21 137.718 111.935 137.533 111.697 137.3C111.463 137.062 111.279 136.787 111.144 136.474C111.008 136.161 110.941 135.825 110.941 135.466ZM111.704 135.473C111.704 135.73 111.75 135.972 111.844 136.201C111.942 136.425 112.075 136.621 112.243 136.789C112.411 136.957 112.607 137.09 112.831 137.188C113.055 137.286 113.293 137.335 113.545 137.335C113.797 137.335 114.032 137.286 114.252 137.188C114.476 137.09 114.669 136.957 114.833 136.789C115.001 136.621 115.131 136.425 115.225 136.201C115.323 135.972 115.372 135.727 115.372 135.466C115.372 135.209 115.323 134.969 115.225 134.745C115.131 134.516 115.001 134.318 114.833 134.15C114.665 133.982 114.469 133.849 114.245 133.751C114.025 133.653 113.79 133.604 113.538 133.604C113.286 133.604 113.048 133.653 112.824 133.751C112.6 133.849 112.404 133.982 112.236 134.15C112.072 134.318 111.942 134.516 111.844 134.745C111.75 134.974 111.704 135.216 111.704 135.473Z" fill="#C4C4C4"/>
<path d="M131.019 138V132.925H131.789V137.272H134.309V138H131.019ZM135.019 138V132.925H138.057V133.632H135.782V135.165H137.77V135.879H135.782V138H135.019ZM138.544 135.466C138.544 135.116 138.612 134.785 138.747 134.472C138.883 134.155 139.067 133.877 139.3 133.639C139.538 133.401 139.814 133.214 140.126 133.079C140.439 132.939 140.775 132.869 141.134 132.869C141.489 132.869 141.823 132.939 142.135 133.079C142.453 133.214 142.728 133.401 142.961 133.639C143.199 133.877 143.386 134.155 143.521 134.472C143.661 134.785 143.731 135.116 143.731 135.466C143.731 135.825 143.661 136.161 143.521 136.474C143.386 136.787 143.199 137.062 142.961 137.3C142.728 137.533 142.453 137.718 142.135 137.853C141.823 137.988 141.489 138.056 141.134 138.056C140.775 138.056 140.439 137.988 140.126 137.853C139.814 137.718 139.538 137.533 139.3 137.3C139.067 137.062 138.883 136.787 138.747 136.474C138.612 136.161 138.544 135.825 138.544 135.466ZM139.307 135.473C139.307 135.73 139.354 135.972 139.447 136.201C139.545 136.425 139.678 136.621 139.846 136.789C140.014 136.957 140.21 137.09 140.434 137.188C140.658 137.286 140.896 137.335 141.148 137.335C141.4 137.335 141.636 137.286 141.855 137.188C142.079 137.09 142.273 136.957 142.436 136.789C142.604 136.621 142.735 136.425 142.828 136.201C142.926 135.972 142.975 135.727 142.975 135.466C142.975 135.209 142.926 134.969 142.828 134.745C142.735 134.516 142.604 134.318 142.436 134.15C142.268 133.982 142.072 133.849 141.848 133.751C141.629 133.653 141.393 133.604 141.141 133.604C140.889 133.604 140.651 133.653 140.427 133.751C140.203 133.849 140.007 133.982 139.839 134.15C139.676 134.318 139.545 134.516 139.447 134.745C139.354 134.974 139.307 135.216 139.307 135.473Z" fill="#C4C4C4"/>
<rect x="107" y="144" width="32" height="18" rx="9" fill="#A5A5A5"/>
<path d="M123 153.071C123 156.937 119.866 160.071 116 160.071C112.134 160.071 109 156.937 109 153.071C109 149.205 112.134 146.071 116 146.071C119.866 146.071 123 149.205 123 153.071Z" fill="#333333"/>
</svg>
