<svg width="92" height="386" viewBox="0 0 92 386" fill="none" xmlns="http://www.w3.org/2000/svg">
<rect x="0.5" y="0.5" width="90.44" height="384.5" fill="#333333" stroke="#161616"/>
<path d="M32.6964 376V371.65H33.8844C34.1124 371.65 34.3204 371.68 34.5084 371.74C34.7004 371.8 34.8644 371.89 35.0004 372.01C35.1404 372.126 35.2484 372.27 35.3244 372.442C35.4004 372.61 35.4384 372.804 35.4384 373.024C35.4384 373.144 35.4264 373.264 35.4024 373.384C35.3784 373.5 35.3384 373.614 35.2824 373.726C35.2304 373.834 35.1624 373.936 35.0784 374.032C34.9944 374.124 34.8924 374.202 34.7724 374.266C34.9324 374.518 35.1064 374.798 35.2944 375.106C35.4824 375.41 35.6724 375.708 35.8644 376H35.0784C34.9984 375.876 34.9144 375.746 34.8264 375.61C34.7424 375.474 34.6564 375.34 34.5684 375.208C34.4844 375.072 34.4004 374.94 34.3164 374.812C34.2364 374.68 34.1604 374.558 34.0884 374.446H33.9684H33.3564V376H32.6964ZM33.3564 373.828H33.9504C34.1104 373.828 34.2444 373.802 34.3524 373.75C34.4604 373.694 34.5444 373.626 34.6044 373.546C34.6684 373.466 34.7124 373.38 34.7364 373.288C34.7644 373.196 34.7784 373.112 34.7784 373.036C34.7784 372.96 34.7644 372.878 34.7364 372.79C34.7124 372.698 34.6684 372.614 34.6044 372.538C34.5404 372.458 34.4544 372.392 34.3464 372.34C34.2424 372.288 34.1124 372.262 33.9564 372.262H33.3564V373.828ZM39.158 376C39.138 375.956 39.11 375.892 39.074 375.808C39.038 375.724 38.996 375.628 38.948 375.52C38.904 375.408 38.854 375.288 38.798 375.16C38.746 375.028 38.692 374.892 38.636 374.752H37.1L36.584 376H35.936L37.874 371.446C37.898 371.502 37.94 371.604 38 371.752C38.064 371.9 38.138 372.078 38.222 372.286C38.31 372.49 38.406 372.718 38.51 372.97C38.618 373.218 38.726 373.47 38.834 373.726C38.946 373.982 39.054 374.234 39.158 374.482C39.266 374.73 39.364 374.958 39.452 375.166C39.54 375.374 39.614 375.552 39.674 375.7C39.738 375.844 39.782 375.944 39.806 376H39.158ZM37.328 374.2H38.414C38.358 374.068 38.304 373.942 38.252 373.822C38.204 373.698 38.158 373.586 38.114 373.486C38.074 373.382 38.038 373.292 38.006 373.216C37.974 373.14 37.95 373.08 37.934 373.036C37.93 373.028 37.92 373 37.904 372.952C37.892 372.904 37.882 372.86 37.874 372.82C37.866 372.86 37.854 372.904 37.838 372.952C37.822 373 37.812 373.028 37.808 373.036L37.328 374.2ZM43.4127 375.688C43.3647 375.724 43.2967 375.764 43.2087 375.808C43.1247 375.848 43.0247 375.886 42.9087 375.922C42.7927 375.958 42.6627 375.988 42.5187 376.012C42.3787 376.036 42.2287 376.048 42.0687 376.048C41.7287 376.048 41.4227 375.99 41.1507 375.874C40.8827 375.754 40.6547 375.594 40.4667 375.394C40.2787 375.194 40.1347 374.962 40.0347 374.698C39.9347 374.434 39.8847 374.154 39.8847 373.858C39.8847 373.53 39.9427 373.228 40.0587 372.952C40.1787 372.676 40.3407 372.438 40.5447 372.238C40.7487 372.038 40.9867 371.882 41.2587 371.77C41.5347 371.658 41.8267 371.602 42.1347 371.602C42.2507 371.602 42.3687 371.61 42.4887 371.626C42.6087 371.642 42.7207 371.664 42.8247 371.692C42.9327 371.72 43.0267 371.754 43.1067 371.794C43.1907 371.83 43.2547 371.868 43.2987 371.908C43.2667 371.956 43.2407 371.996 43.2207 372.028C43.2047 372.06 43.1867 372.094 43.1667 372.13C43.1467 372.162 43.1247 372.2 43.1007 372.244C43.0767 372.288 43.0447 372.346 43.0047 372.418C42.9527 372.382 42.8907 372.352 42.8187 372.328C42.7507 372.304 42.6787 372.284 42.6027 372.268C42.5267 372.252 42.4487 372.24 42.3687 372.232C42.2927 372.224 42.2227 372.22 42.1587 372.22C41.9267 372.22 41.7107 372.264 41.5107 372.352C41.3147 372.436 41.1447 372.552 41.0007 372.7C40.8567 372.844 40.7427 373.012 40.6587 373.204C40.5787 373.396 40.5387 373.596 40.5387 373.804C40.5387 374.008 40.5767 374.204 40.6527 374.392C40.7327 374.58 40.8407 374.748 40.9767 374.896C41.1167 375.044 41.2827 375.162 41.4747 375.25C41.6707 375.338 41.8847 375.382 42.1167 375.382C42.2407 375.382 42.3607 375.37 42.4767 375.346C42.5927 375.322 42.6967 375.294 42.7887 375.262C42.8847 375.23 42.9627 375.198 43.0227 375.166C43.0867 375.134 43.1247 375.11 43.1367 375.094L43.4127 375.688ZM46.5908 376C46.4508 375.82 46.3168 375.648 46.1888 375.484C46.0608 375.32 45.9348 375.156 45.8108 374.992C45.6868 374.828 45.5608 374.662 45.4328 374.494C45.3088 374.326 45.1768 374.152 45.0368 373.972C44.9848 374.028 44.9348 374.08 44.8868 374.128C44.8388 374.172 44.7868 374.218 44.7308 374.266C44.7308 374.574 44.7308 374.864 44.7308 375.136C44.7348 375.404 44.7368 375.692 44.7368 376H44.0108V371.65H44.7368V373.276C44.7368 373.312 44.7328 373.348 44.7248 373.384C44.7208 373.416 44.7188 373.45 44.7188 373.486C44.7388 373.458 44.7588 373.434 44.7788 373.414C44.7988 373.39 44.8188 373.362 44.8388 373.33C45.1228 373.062 45.3968 372.784 45.6608 372.496C45.9248 372.204 46.1988 371.922 46.4828 371.65H47.3168C47.0168 371.962 46.7188 372.276 46.4228 372.592C46.1308 372.908 45.8348 373.222 45.5348 373.534C45.7028 373.75 45.8628 373.96 46.0148 374.164C46.1708 374.364 46.3228 374.564 46.4708 374.764C46.6228 374.964 46.7748 375.166 46.9268 375.37C47.0788 375.574 47.2368 375.784 47.4008 376H46.5908ZM47.8956 376V371.65H48.5556V375.376H50.7156V376H47.8956ZM51.3233 376V371.65H54.1793V372.244H51.9833V373.516H53.9393V374.122H51.9833V375.394H54.2633V376H51.3233ZM57.5165 371.89L57.2825 372.424C57.1185 372.364 56.9545 372.316 56.7905 372.28C56.6305 372.244 56.4765 372.226 56.3285 372.226C56.0765 372.226 55.8745 372.278 55.7225 372.382C55.5745 372.486 55.5005 372.618 55.5005 372.778C55.5005 372.914 55.5545 373.024 55.6625 373.108C55.7705 373.188 55.9045 373.262 56.0645 373.33C56.2245 373.394 56.3985 373.46 56.5865 373.528C56.7745 373.592 56.9485 373.676 57.1085 373.78C57.2685 373.884 57.4025 374.016 57.5105 374.176C57.6185 374.332 57.6725 374.534 57.6725 374.782C57.6725 374.974 57.6365 375.148 57.5645 375.304C57.4965 375.456 57.3925 375.588 57.2525 375.7C57.1165 375.812 56.9445 375.898 56.7365 375.958C56.5325 376.018 56.2925 376.048 56.0165 376.048C55.8405 376.048 55.6805 376.036 55.5365 376.012C55.3965 375.988 55.2685 375.958 55.1525 375.922C55.0405 375.882 54.9405 375.84 54.8525 375.796C54.7685 375.752 54.6965 375.712 54.6365 375.676L54.9245 375.106C55.0845 375.198 55.2625 375.272 55.4585 375.328C55.6545 375.384 55.8325 375.412 55.9925 375.412C56.0725 375.412 56.1705 375.402 56.2865 375.382C56.4065 375.362 56.5205 375.328 56.6285 375.28C56.7365 375.228 56.8285 375.16 56.9045 375.076C56.9845 374.992 57.0245 374.886 57.0245 374.758C57.0245 374.642 56.9925 374.544 56.9285 374.464C56.8685 374.38 56.7865 374.308 56.6825 374.248C56.5825 374.184 56.4665 374.128 56.3345 374.08C56.2065 374.028 56.0745 373.976 55.9385 373.924C55.8025 373.868 55.6685 373.81 55.5365 373.75C55.4085 373.69 55.2925 373.618 55.1885 373.534C55.0885 373.446 55.0065 373.346 54.9425 373.234C54.8825 373.118 54.8525 372.98 54.8525 372.82C54.8525 372.672 54.8825 372.526 54.9425 372.382C55.0025 372.238 55.0925 372.11 55.2125 371.998C55.3325 371.886 55.4805 371.796 55.6565 371.728C55.8365 371.66 56.0445 371.626 56.2805 371.626C56.4245 371.626 56.5645 371.638 56.7005 371.662C56.8405 371.686 56.9665 371.714 57.0785 371.746C57.1905 371.774 57.2845 371.802 57.3605 371.83C57.4405 371.858 57.4925 371.878 57.5165 371.89ZM60.909 371.89L60.675 372.424C60.511 372.364 60.347 372.316 60.183 372.28C60.023 372.244 59.869 372.226 59.721 372.226C59.469 372.226 59.267 372.278 59.115 372.382C58.967 372.486 58.893 372.618 58.893 372.778C58.893 372.914 58.947 373.024 59.055 373.108C59.163 373.188 59.297 373.262 59.457 373.33C59.617 373.394 59.791 373.46 59.979 373.528C60.167 373.592 60.341 373.676 60.501 373.78C60.661 373.884 60.795 374.016 60.903 374.176C61.011 374.332 61.065 374.534 61.065 374.782C61.065 374.974 61.029 375.148 60.957 375.304C60.889 375.456 60.785 375.588 60.645 375.7C60.509 375.812 60.337 375.898 60.129 375.958C59.925 376.018 59.685 376.048 59.409 376.048C59.233 376.048 59.073 376.036 58.929 376.012C58.789 375.988 58.661 375.958 58.545 375.922C58.433 375.882 58.333 375.84 58.245 375.796C58.161 375.752 58.089 375.712 58.029 375.676L58.317 375.106C58.477 375.198 58.655 375.272 58.851 375.328C59.047 375.384 59.225 375.412 59.385 375.412C59.465 375.412 59.563 375.402 59.679 375.382C59.799 375.362 59.913 375.328 60.021 375.28C60.129 375.228 60.221 375.16 60.297 375.076C60.377 374.992 60.417 374.886 60.417 374.758C60.417 374.642 60.385 374.544 60.321 374.464C60.261 374.38 60.179 374.308 60.075 374.248C59.975 374.184 59.859 374.128 59.727 374.08C59.599 374.028 59.467 373.976 59.331 373.924C59.195 373.868 59.061 373.81 58.929 373.75C58.801 373.69 58.685 373.618 58.581 373.534C58.481 373.446 58.399 373.346 58.335 373.234C58.275 373.118 58.245 372.98 58.245 372.82C58.245 372.672 58.275 372.526 58.335 372.382C58.395 372.238 58.485 372.11 58.605 371.998C58.725 371.886 58.873 371.796 59.049 371.728C59.229 371.66 59.437 371.626 59.673 371.626C59.817 371.626 59.957 371.638 60.093 371.662C60.233 371.686 60.359 371.714 60.471 371.746C60.583 371.774 60.677 371.802 60.753 371.83C60.833 371.858 60.885 371.878 60.909 371.89Z" fill="#C4C4C4"/>
<path d="M57.0418 213.636C56.9858 213.678 56.9065 213.725 56.8038 213.776C56.7058 213.823 56.5892 213.867 56.4538 213.909C56.3185 213.951 56.1668 213.986 55.9988 214.014C55.8355 214.042 55.6605 214.056 55.4738 214.056C55.0772 214.056 54.7202 213.988 54.4028 213.853C54.0902 213.713 53.8242 213.526 53.6048 213.293C53.3855 213.06 53.2175 212.789 53.1008 212.481C52.9842 212.173 52.9258 211.846 52.9258 211.501C52.9258 211.118 52.9935 210.766 53.1288 210.444C53.2688 210.122 53.4578 209.844 53.6958 209.611C53.9338 209.378 54.2115 209.196 54.5288 209.065C54.8508 208.934 55.1915 208.869 55.5508 208.869C55.6862 208.869 55.8238 208.878 55.9638 208.897C56.1038 208.916 56.2345 208.941 56.3558 208.974C56.4818 209.007 56.5915 209.046 56.6848 209.093C56.7828 209.135 56.8575 209.179 56.9088 209.226C56.8715 209.282 56.8412 209.329 56.8178 209.366C56.7992 209.403 56.7782 209.443 56.7548 209.485C56.7315 209.522 56.7058 209.567 56.6778 209.618C56.6498 209.669 56.6125 209.737 56.5658 209.821C56.5052 209.779 56.4328 209.744 56.3488 209.716C56.2695 209.688 56.1855 209.665 56.0968 209.646C56.0082 209.627 55.9172 209.613 55.8238 209.604C55.7352 209.595 55.6535 209.59 55.5788 209.59C55.3082 209.59 55.0562 209.641 54.8228 209.744C54.5942 209.842 54.3958 209.977 54.2278 210.15C54.0598 210.318 53.9268 210.514 53.8288 210.738C53.7355 210.962 53.6888 211.195 53.6888 211.438C53.6888 211.676 53.7332 211.905 53.8218 212.124C53.9152 212.343 54.0412 212.539 54.1998 212.712C54.3632 212.885 54.5568 213.022 54.7808 213.125C55.0095 213.228 55.2592 213.279 55.5298 213.279C55.6745 213.279 55.8145 213.265 55.9498 213.237C56.0852 213.209 56.2065 213.176 56.3138 213.139C56.4258 213.102 56.5168 213.064 56.5868 213.027C56.6615 212.99 56.7058 212.962 56.7198 212.943L57.0418 213.636ZM59.6157 214.056C59.345 214.056 59.093 214.012 58.8597 213.923C58.6264 213.834 58.421 213.711 58.2437 213.552C58.071 213.389 57.9334 213.195 57.8307 212.971C57.7327 212.742 57.6837 212.488 57.6837 212.208V208.925H58.4537V212.187C58.4537 212.35 58.4817 212.502 58.5377 212.642C58.5984 212.777 58.68 212.899 58.7827 213.006C58.89 213.109 59.0137 213.19 59.1537 213.251C59.2937 213.307 59.4477 213.335 59.6157 213.335C59.779 213.335 59.9307 213.307 60.0707 213.251C60.2154 213.19 60.339 213.109 60.4417 213.006C60.549 212.899 60.633 212.777 60.6937 212.642C60.7544 212.502 60.7847 212.35 60.7847 212.187V208.925H61.5547V212.208C61.5547 212.488 61.5034 212.742 61.4007 212.971C61.3027 213.195 61.165 213.389 60.9877 213.552C60.815 213.711 60.6097 213.834 60.3717 213.923C60.1384 214.012 59.8864 214.056 59.6157 214.056ZM65.6976 208.925V209.653H64.4166V214H63.6536V209.653H62.4006V208.925H65.6976ZM66.1259 211.466C66.1259 211.116 66.1935 210.785 66.3289 210.472C66.4642 210.155 66.6485 209.877 66.8819 209.639C67.1199 209.401 67.3952 209.214 67.7079 209.079C68.0205 208.939 68.3565 208.869 68.7159 208.869C69.0705 208.869 69.4042 208.939 69.7169 209.079C70.0342 209.214 70.3095 209.401 70.5429 209.639C70.7809 209.877 70.9675 210.155 71.1029 210.472C71.2429 210.785 71.3129 211.116 71.3129 211.466C71.3129 211.825 71.2429 212.161 71.1029 212.474C70.9675 212.787 70.7809 213.062 70.5429 213.3C70.3095 213.533 70.0342 213.718 69.7169 213.853C69.4042 213.988 69.0705 214.056 68.7159 214.056C68.3565 214.056 68.0205 213.988 67.7079 213.853C67.3952 213.718 67.1199 213.533 66.8819 213.3C66.6485 213.062 66.4642 212.787 66.3289 212.474C66.1935 212.161 66.1259 211.825 66.1259 211.466ZM66.8889 211.473C66.8889 211.73 66.9355 211.972 67.0289 212.201C67.1269 212.425 67.2599 212.621 67.4279 212.789C67.5959 212.957 67.7919 213.09 68.0159 213.188C68.2399 213.286 68.4779 213.335 68.7299 213.335C68.9819 213.335 69.2175 213.286 69.4369 213.188C69.6609 213.09 69.8545 212.957 70.0179 212.789C70.1859 212.621 70.3165 212.425 70.4099 212.201C70.5079 211.972 70.5569 211.727 70.5569 211.466C70.5569 211.209 70.5079 210.969 70.4099 210.745C70.3165 210.516 70.1859 210.318 70.0179 210.15C69.8499 209.982 69.6539 209.849 69.4299 209.751C69.2105 209.653 68.9749 209.604 68.7229 209.604C68.4709 209.604 68.2329 209.653 68.0089 209.751C67.7849 209.849 67.5889 209.982 67.4209 210.15C67.2575 210.318 67.1269 210.516 67.0289 210.745C66.9355 210.974 66.8889 211.216 66.8889 211.473ZM72.2045 214V208.925H75.2425V209.632H72.9675V211.165H74.9555V211.879H72.9675V214H72.2045ZM76.0874 214V208.925H79.1254V209.632H76.8504V211.165H78.8384V211.879H76.8504V214H76.0874Z" fill="#C4C4C4"/>
<mask id="mask0" mask-type="alpha" maskUnits="userSpaceOnUse" x="45" y="164" width="42" height="42">
<circle cx="66" cy="185" r="21" fill="#C4C4C4"/>
</mask>
<g mask="url(#mask0)">
<line x1="42.6464" y1="208.646" x2="89.4926" y2="161.8" stroke="#C6C6C6"/>
<line x1="43.3566" y1="161.65" x2="89.3951" y2="208.496" stroke="#C6C6C6"/>
<line x1="42" y1="185.5" x2="90.4615" y2="185.5" stroke="#C6C6C6"/>
<line x1="65.5" y1="183" x2="65.5" y2="159.577" stroke="#C6C6C6"/>
</g>
<circle cx="66" cy="185" r="18" transform="rotate(-180 66 185)" fill="#222222"/>
<circle cx="66" cy="185" r="16" transform="rotate(-180 66 185)" fill="black"/>
<rect x="67" y="185" width="3" height="16" transform="rotate(-180 67 185)" fill="#E5E5E5"/>
<path d="M35.4805 21V14.475H39.3865V15.384H36.4615V17.355H39.0175V18.273H36.4615V21H35.4805ZM40.4727 14.475H41.4537V21H40.4727V14.475ZM43.0566 21V14.475H44.0466V20.064H47.2866V21H43.0566ZM51.1964 14.475V15.411H49.5494V21H48.5684V15.411H46.9574V14.475H51.1964ZM52.3555 21V14.475H56.6395V15.366H53.3455V17.274H56.2795V18.183H53.3455V20.091H56.7655V21H52.3555ZM57.9102 21V14.475H59.6922C60.0342 14.475 60.3462 14.52 60.6282 14.61C60.9162 14.7 61.1622 14.835 61.3662 15.015C61.5762 15.189 61.7382 15.405 61.8522 15.663C61.9662 15.915 62.0232 16.206 62.0232 16.536C62.0232 16.716 62.0052 16.896 61.9692 17.076C61.9332 17.25 61.8732 17.421 61.7892 17.589C61.7112 17.751 61.6092 17.904 61.4832 18.048C61.3572 18.186 61.2042 18.303 61.0242 18.399C61.2642 18.777 61.5252 19.197 61.8072 19.659C62.0892 20.115 62.3742 20.562 62.6622 21H61.4832C61.3632 20.814 61.2372 20.619 61.1052 20.415C60.9792 20.211 60.8502 20.01 60.7182 19.812C60.5922 19.608 60.4662 19.41 60.3402 19.218C60.2202 19.02 60.1062 18.837 59.9982 18.669H59.8182H58.9002V21H57.9102ZM58.9002 17.742H59.7912C60.0312 17.742 60.2322 17.703 60.3942 17.625C60.5562 17.541 60.6822 17.439 60.7722 17.319C60.8682 17.199 60.9342 17.07 60.9702 16.932C61.0122 16.794 61.0332 16.668 61.0332 16.554C61.0332 16.44 61.0122 16.317 60.9702 16.185C60.9342 16.047 60.8682 15.921 60.7722 15.807C60.6762 15.687 60.5472 15.588 60.3852 15.51C60.2292 15.432 60.0342 15.393 59.8002 15.393H58.9002V17.742Z" fill="#C4C4C4"/>
<path d="M20.8841 214.636C20.8281 214.678 20.7488 214.725 20.6461 214.776C20.5481 214.823 20.4315 214.867 20.2961 214.909C20.1608 214.951 20.0091 214.986 19.8411 215.014C19.6778 215.042 19.5028 215.056 19.3161 215.056C18.9195 215.056 18.5625 214.988 18.2451 214.853C17.9325 214.713 17.6665 214.526 17.4471 214.293C17.2278 214.06 17.0598 213.789 16.9431 213.481C16.8265 213.173 16.7681 212.846 16.7681 212.501C16.7681 212.118 16.8358 211.766 16.9711 211.444C17.1111 211.122 17.3001 210.844 17.5381 210.611C17.7761 210.378 18.0538 210.196 18.3711 210.065C18.6931 209.934 19.0338 209.869 19.3931 209.869C19.5285 209.869 19.6661 209.878 19.8061 209.897C19.9461 209.916 20.0768 209.941 20.1981 209.974C20.3241 210.007 20.4338 210.046 20.5271 210.093C20.6251 210.135 20.6998 210.179 20.7511 210.226C20.7138 210.282 20.6835 210.329 20.6601 210.366C20.6415 210.403 20.6205 210.443 20.5971 210.485C20.5738 210.522 20.5481 210.567 20.5201 210.618C20.4921 210.669 20.4548 210.737 20.4081 210.821C20.3475 210.779 20.2751 210.744 20.1911 210.716C20.1118 210.688 20.0278 210.665 19.9391 210.646C19.8505 210.627 19.7595 210.613 19.6661 210.604C19.5775 210.595 19.4958 210.59 19.4211 210.59C19.1505 210.59 18.8985 210.641 18.6651 210.744C18.4365 210.842 18.2381 210.977 18.0701 211.15C17.9021 211.318 17.7691 211.514 17.6711 211.738C17.5778 211.962 17.5311 212.195 17.5311 212.438C17.5311 212.676 17.5755 212.905 17.6641 213.124C17.7575 213.343 17.8835 213.539 18.0421 213.712C18.2055 213.885 18.3991 214.022 18.6231 214.125C18.8518 214.228 19.1015 214.279 19.3721 214.279C19.5168 214.279 19.6568 214.265 19.7921 214.237C19.9275 214.209 20.0488 214.176 20.1561 214.139C20.2681 214.102 20.3591 214.064 20.4291 214.027C20.5038 213.99 20.5481 213.962 20.5621 213.943L20.8841 214.636ZM21.729 209.925C21.7617 210.004 21.8153 210.135 21.89 210.317C21.9647 210.494 22.0487 210.697 22.142 210.926C22.24 211.155 22.3403 211.397 22.443 211.654C22.5503 211.911 22.6507 212.153 22.744 212.382C22.8373 212.611 22.9213 212.816 22.996 212.998C23.0707 213.175 23.1243 213.304 23.157 213.383C23.1617 213.392 23.1733 213.425 23.192 213.481C23.2107 213.537 23.2247 213.586 23.234 213.628L23.304 213.383C23.3367 213.304 23.3903 213.175 23.465 212.998C23.5397 212.816 23.6237 212.611 23.717 212.382C23.8103 212.153 23.9083 211.911 24.011 211.654C24.1183 211.397 24.2187 211.155 24.312 210.926C24.41 210.697 24.4963 210.494 24.571 210.317C24.6457 210.135 24.6993 210.004 24.732 209.925H25.488C25.46 209.99 25.4087 210.109 25.334 210.282C25.264 210.45 25.1777 210.655 25.075 210.898C24.9723 211.141 24.858 211.407 24.732 211.696C24.6107 211.985 24.4847 212.279 24.354 212.578C24.228 212.877 24.102 213.171 23.976 213.46C23.8547 213.749 23.7427 214.015 23.64 214.258C23.542 214.501 23.4557 214.708 23.381 214.881C23.311 215.049 23.262 215.166 23.234 215.231L20.973 209.925H21.729Z" fill="#C4C4C4"/>
<circle cx="21" cy="186" r="9.5" fill="#616161" stroke="#C4C4C4"/>
<path d="M21 178L27.9282 182V190L21 194L14.0718 190V182L21 178Z" fill="#A5A5A5"/>
<circle cx="21" cy="186" r="5.5" fill="black" stroke="#E5E5E5"/>
<line x1="42" y1="185.5" x2="34" y2="185.5" stroke="#E5E5E5"/>
<path d="M52.4594 268.466C52.4594 268.116 52.527 267.785 52.6624 267.472C52.7977 267.155 52.982 266.877 53.2154 266.639C53.4487 266.401 53.7217 266.214 54.0344 266.079C54.347 265.939 54.683 265.869 55.0424 265.869C55.397 265.869 55.7307 265.939 56.0434 266.079C56.3607 266.214 56.6384 266.401 56.8764 266.639C57.1144 266.877 57.301 267.155 57.4364 267.472C57.5764 267.785 57.6464 268.116 57.6464 268.466C57.6464 268.825 57.5834 269.161 57.4574 269.474C57.3314 269.787 57.1564 270.074 56.9324 270.335L57.8074 270.272V271H55.5884C55.495 271.019 55.404 271.033 55.3154 271.042C55.2267 271.051 55.1357 271.056 55.0424 271.056C54.683 271.056 54.347 270.988 54.0344 270.853C53.7217 270.718 53.4487 270.533 53.2154 270.3C52.982 270.062 52.7977 269.787 52.6624 269.474C52.527 269.161 52.4594 268.825 52.4594 268.466ZM53.2224 268.473C53.2224 268.73 53.269 268.972 53.3624 269.201C53.4604 269.425 53.591 269.621 53.7544 269.789C53.9224 269.957 54.1184 270.09 54.3424 270.188C54.5664 270.286 54.8067 270.335 55.0634 270.335C55.3154 270.335 55.551 270.286 55.7704 270.188C55.9944 270.09 56.188 269.957 56.3514 269.789C56.5194 269.621 56.65 269.425 56.7434 269.201C56.8414 268.972 56.8904 268.727 56.8904 268.466C56.8904 268.209 56.8414 267.969 56.7434 267.745C56.6454 267.516 56.5124 267.318 56.3444 267.15C56.181 266.982 55.9874 266.849 55.7634 266.751C55.5394 266.653 55.3014 266.604 55.0494 266.604C54.7974 266.604 54.5594 266.653 54.3354 266.751C54.1114 266.849 53.9177 266.982 53.7544 267.15C53.591 267.318 53.4604 267.516 53.3624 267.745C53.269 267.974 53.2224 268.216 53.2224 268.473ZM60.4482 271.056C60.1776 271.056 59.9256 271.012 59.6922 270.923C59.4589 270.834 59.2536 270.711 59.0762 270.552C58.9036 270.389 58.7659 270.195 58.6632 269.971C58.5652 269.742 58.5162 269.488 58.5162 269.208V265.925H59.2862V269.187C59.2862 269.35 59.3142 269.502 59.3702 269.642C59.4309 269.777 59.5126 269.899 59.6152 270.006C59.7226 270.109 59.8462 270.19 59.9862 270.251C60.1262 270.307 60.2802 270.335 60.4482 270.335C60.6116 270.335 60.7632 270.307 60.9032 270.251C61.0479 270.19 61.1716 270.109 61.2742 270.006C61.3816 269.899 61.4656 269.777 61.5262 269.642C61.5869 269.502 61.6172 269.35 61.6172 269.187V265.925H62.3872V269.208C62.3872 269.488 62.3359 269.742 62.2332 269.971C62.1352 270.195 61.9976 270.389 61.8202 270.552C61.6476 270.711 61.4422 270.834 61.2042 270.923C60.9709 271.012 60.7189 271.056 60.4482 271.056ZM66.5824 271C66.5591 270.949 66.5264 270.874 66.4844 270.776C66.4424 270.678 66.3934 270.566 66.3374 270.44C66.2861 270.309 66.2277 270.169 66.1624 270.02C66.1017 269.866 66.0387 269.707 65.9734 269.544H64.1814L63.5794 271H62.8234L65.0844 265.687C65.1124 265.752 65.1614 265.871 65.2314 266.044C65.3061 266.217 65.3924 266.424 65.4904 266.667C65.5931 266.905 65.7051 267.171 65.8264 267.465C65.9524 267.754 66.0784 268.048 66.2044 268.347C66.3351 268.646 66.4611 268.94 66.5824 269.229C66.7084 269.518 66.8227 269.784 66.9254 270.027C67.0281 270.27 67.1144 270.477 67.1844 270.65C67.2591 270.818 67.3104 270.935 67.3384 271H66.5824ZM64.4474 268.9H65.7144C65.6491 268.746 65.5861 268.599 65.5254 268.459C65.4694 268.314 65.4157 268.184 65.3644 268.067C65.3177 267.946 65.2757 267.841 65.2384 267.752C65.2011 267.663 65.1731 267.593 65.1544 267.542C65.1497 267.533 65.1381 267.5 65.1194 267.444C65.1054 267.388 65.0937 267.337 65.0844 267.29C65.0751 267.337 65.0611 267.388 65.0424 267.444C65.0237 267.5 65.0121 267.533 65.0074 267.542L64.4474 268.9ZM67.9716 271V265.925H68.7416V270.272H71.2616V271H67.9716ZM71.9707 265.925H72.7337V271H71.9707V265.925ZM76.9344 265.925V266.653H75.6534V271H74.8904V266.653H73.6374V265.925H76.9344ZM79.8939 269.327V271H79.1239V269.327C79.0912 269.276 79.0259 269.164 78.9279 268.991C78.8346 268.818 78.7226 268.615 78.5919 268.382C78.4659 268.144 78.3282 267.892 78.1789 267.626C78.0342 267.36 77.8966 267.11 77.7659 266.877C77.6399 266.639 77.5279 266.434 77.4299 266.261C77.3366 266.088 77.2736 265.976 77.2409 265.925H78.1089C78.1509 265.995 78.2256 266.13 78.3329 266.331C78.4402 266.527 78.5592 266.751 78.6899 267.003C78.8206 267.25 78.9536 267.502 79.0889 267.759C79.2242 268.011 79.3386 268.228 79.4319 268.41L79.5089 268.641C79.5276 268.604 79.5439 268.566 79.5579 268.529C79.5719 268.487 79.5859 268.447 79.5999 268.41C79.6979 268.228 79.8122 268.011 79.9429 267.759C80.0736 267.502 80.2019 267.25 80.3279 267.003C80.4586 266.751 80.5752 266.527 80.6779 266.331C80.7852 266.13 80.8599 265.995 80.9019 265.925H81.7629L79.8939 269.327Z" fill="#C4C4C4"/>
<mask id="mask1" mask-type="alpha" maskUnits="userSpaceOnUse" x="46" y="221" width="42" height="42">
<circle cx="67" cy="242" r="21" fill="#C4C4C4"/>
</mask>
<g mask="url(#mask1)">
<line x1="43.6464" y1="265.646" x2="90.4926" y2="218.8" stroke="#C6C6C6"/>
<line x1="44.3566" y1="218.65" x2="90.3951" y2="265.496" stroke="#C6C6C6"/>
<line x1="43" y1="242.5" x2="91.4615" y2="242.5" stroke="#C6C6C6"/>
<line x1="66.5" y1="240" x2="66.5" y2="216.577" stroke="#C6C6C6"/>
</g>
<circle cx="67" cy="242" r="18" transform="rotate(-180 67 242)" fill="#222222"/>
<circle cx="67" cy="242" r="16" transform="rotate(-180 67 242)" fill="black"/>
<rect x="68" y="242" width="3" height="16" transform="rotate(-180 68 242)" fill="#E5E5E5"/>
<path d="M20.8841 270.636C20.8281 270.678 20.7488 270.725 20.6461 270.776C20.5481 270.823 20.4315 270.867 20.2961 270.909C20.1608 270.951 20.0091 270.986 19.8411 271.014C19.6778 271.042 19.5028 271.056 19.3161 271.056C18.9195 271.056 18.5625 270.988 18.2451 270.853C17.9325 270.713 17.6665 270.526 17.4471 270.293C17.2278 270.06 17.0598 269.789 16.9431 269.481C16.8265 269.173 16.7681 268.846 16.7681 268.501C16.7681 268.118 16.8358 267.766 16.9711 267.444C17.1111 267.122 17.3001 266.844 17.5381 266.611C17.7761 266.378 18.0538 266.196 18.3711 266.065C18.6931 265.934 19.0338 265.869 19.3931 265.869C19.5285 265.869 19.6661 265.878 19.8061 265.897C19.9461 265.916 20.0768 265.941 20.1981 265.974C20.3241 266.007 20.4338 266.046 20.5271 266.093C20.6251 266.135 20.6998 266.179 20.7511 266.226C20.7138 266.282 20.6835 266.329 20.6601 266.366C20.6415 266.403 20.6205 266.443 20.5971 266.485C20.5738 266.522 20.5481 266.567 20.5201 266.618C20.4921 266.669 20.4548 266.737 20.4081 266.821C20.3475 266.779 20.2751 266.744 20.1911 266.716C20.1118 266.688 20.0278 266.665 19.9391 266.646C19.8505 266.627 19.7595 266.613 19.6661 266.604C19.5775 266.595 19.4958 266.59 19.4211 266.59C19.1505 266.59 18.8985 266.641 18.6651 266.744C18.4365 266.842 18.2381 266.977 18.0701 267.15C17.9021 267.318 17.7691 267.514 17.6711 267.738C17.5778 267.962 17.5311 268.195 17.5311 268.438C17.5311 268.676 17.5755 268.905 17.6641 269.124C17.7575 269.343 17.8835 269.539 18.0421 269.712C18.2055 269.885 18.3991 270.022 18.6231 270.125C18.8518 270.228 19.1015 270.279 19.3721 270.279C19.5168 270.279 19.6568 270.265 19.7921 270.237C19.9275 270.209 20.0488 270.176 20.1561 270.139C20.2681 270.102 20.3591 270.064 20.4291 270.027C20.5038 269.99 20.5481 269.962 20.5621 269.943L20.8841 270.636ZM21.729 265.925C21.7617 266.004 21.8153 266.135 21.89 266.317C21.9647 266.494 22.0487 266.697 22.142 266.926C22.24 267.155 22.3403 267.397 22.443 267.654C22.5503 267.911 22.6507 268.153 22.744 268.382C22.8373 268.611 22.9213 268.816 22.996 268.998C23.0707 269.175 23.1243 269.304 23.157 269.383C23.1617 269.392 23.1733 269.425 23.192 269.481C23.2107 269.537 23.2247 269.586 23.234 269.628L23.304 269.383C23.3367 269.304 23.3903 269.175 23.465 268.998C23.5397 268.816 23.6237 268.611 23.717 268.382C23.8103 268.153 23.9083 267.911 24.011 267.654C24.1183 267.397 24.2187 267.155 24.312 266.926C24.41 266.697 24.4963 266.494 24.571 266.317C24.6457 266.135 24.6993 266.004 24.732 265.925H25.488C25.46 265.99 25.4087 266.109 25.334 266.282C25.264 266.45 25.1777 266.655 25.075 266.898C24.9723 267.141 24.858 267.407 24.732 267.696C24.6107 267.985 24.4847 268.279 24.354 268.578C24.228 268.877 24.102 269.171 23.976 269.46C23.8547 269.749 23.7427 270.015 23.64 270.258C23.542 270.501 23.4557 270.708 23.381 270.881C23.311 271.049 23.262 271.166 23.234 271.231L20.973 265.925H21.729Z" fill="#C4C4C4"/>
<circle cx="21" cy="242" r="9.5" fill="#616161" stroke="#C4C4C4"/>
<path d="M21 234L27.9282 238V246L21 250L14.0718 246V238L21 234Z" fill="#A5A5A5"/>
<circle cx="21" cy="242" r="5.5" fill="black" stroke="#E5E5E5"/>
<path d="M17.7675 329.925H18.5305V335H17.7675V329.925ZM24.2293 329.925V335.231C24.164 335.147 24.038 335.012 23.8513 334.825C23.6646 334.638 23.45 334.424 23.2073 334.181C22.9646 333.938 22.7056 333.684 22.4303 333.418C22.1596 333.152 21.903 332.9 21.6603 332.662C21.4176 332.419 21.2053 332.205 21.0233 332.018C20.8413 331.827 20.72 331.691 20.6593 331.612L20.5263 331.43L20.5473 331.654V335H19.7773V329.687C19.8286 329.752 19.9126 329.846 20.0293 329.967C20.1506 330.088 20.2906 330.231 20.4493 330.394C20.6126 330.553 20.79 330.725 20.9813 330.912C21.1773 331.099 21.3733 331.288 21.5693 331.479C21.77 331.67 21.966 331.859 22.1573 332.046C22.3533 332.228 22.5306 332.398 22.6893 332.557C22.8526 332.716 22.9926 332.856 23.1093 332.977C23.226 333.098 23.3076 333.189 23.3543 333.25L23.4873 333.446L23.4663 333.208V329.925H24.2293Z" fill="#C4C4C4"/>
<circle cx="21" cy="306" r="9.5" fill="#616161" stroke="#C4C4C4"/>
<path d="M21 298L27.9282 302V310L21 314L14.0718 310V302L21 298Z" fill="#A5A5A5"/>
<circle cx="21" cy="306" r="5.5" fill="black" stroke="#E5E5E5"/>
<rect x="51" y="293" width="32" height="45" fill="#161616"/>
<path d="M60.9755 332.466C60.9755 332.116 61.0431 331.785 61.1785 331.472C61.3138 331.155 61.4981 330.877 61.7315 330.639C61.9695 330.401 62.2448 330.214 62.5575 330.079C62.8701 329.939 63.2061 329.869 63.5655 329.869C63.9201 329.869 64.2538 329.939 64.5665 330.079C64.8838 330.214 65.1591 330.401 65.3925 330.639C65.6305 330.877 65.8171 331.155 65.9525 331.472C66.0925 331.785 66.1625 332.116 66.1625 332.466C66.1625 332.825 66.0925 333.161 65.9525 333.474C65.8171 333.787 65.6305 334.062 65.3925 334.3C65.1591 334.533 64.8838 334.718 64.5665 334.853C64.2538 334.988 63.9201 335.056 63.5655 335.056C63.2061 335.056 62.8701 334.988 62.5575 334.853C62.2448 334.718 61.9695 334.533 61.7315 334.3C61.4981 334.062 61.3138 333.787 61.1785 333.474C61.0431 333.161 60.9755 332.825 60.9755 332.466ZM61.7385 332.473C61.7385 332.73 61.7851 332.972 61.8785 333.201C61.9765 333.425 62.1095 333.621 62.2775 333.789C62.4455 333.957 62.6415 334.09 62.8655 334.188C63.0895 334.286 63.3275 334.335 63.5795 334.335C63.8315 334.335 64.0671 334.286 64.2865 334.188C64.5105 334.09 64.7041 333.957 64.8675 333.789C65.0355 333.621 65.1661 333.425 65.2595 333.201C65.3575 332.972 65.4065 332.727 65.4065 332.466C65.4065 332.209 65.3575 331.969 65.2595 331.745C65.1661 331.516 65.0355 331.318 64.8675 331.15C64.6995 330.982 64.5035 330.849 64.2795 330.751C64.0601 330.653 63.8245 330.604 63.5725 330.604C63.3205 330.604 63.0825 330.653 62.8585 330.751C62.6345 330.849 62.4385 330.982 62.2705 331.15C62.1071 331.318 61.9765 331.516 61.8785 331.745C61.7851 331.974 61.7385 332.216 61.7385 332.473ZM68.9302 335.056C68.6595 335.056 68.4075 335.012 68.1742 334.923C67.9408 334.834 67.7355 334.711 67.5582 334.552C67.3855 334.389 67.2478 334.195 67.1452 333.971C67.0472 333.742 66.9982 333.488 66.9982 333.208V329.925H67.7682V333.187C67.7682 333.35 67.7962 333.502 67.8522 333.642C67.9128 333.777 67.9945 333.899 68.0972 334.006C68.2045 334.109 68.3282 334.19 68.4682 334.251C68.6082 334.307 68.7622 334.335 68.9302 334.335C69.0935 334.335 69.2452 334.307 69.3852 334.251C69.5298 334.19 69.6535 334.109 69.7562 334.006C69.8635 333.899 69.9475 333.777 70.0082 333.642C70.0688 333.502 70.0992 333.35 70.0992 333.187V329.925H70.8692V333.208C70.8692 333.488 70.8178 333.742 70.7152 333.971C70.6172 334.195 70.4795 334.389 70.3022 334.552C70.1295 334.711 69.9242 334.834 69.6862 334.923C69.4528 335.012 69.2008 335.056 68.9302 335.056ZM75.0121 329.925V330.653H73.7311V335H72.9681V330.653H71.7151V329.925H75.0121Z" fill="#C4C4C4"/>
<circle cx="67" cy="306" r="9.5" fill="#616161" stroke="#C4C4C4"/>
<path d="M67 298L73.9282 302V310L67 314L60.0718 310V302L67 298Z" fill="#A5A5A5"/>
<circle cx="67" cy="306" r="5.5" fill="black" stroke="#E5E5E5"/>
<line x1="42" y1="242.5" x2="34" y2="242.5" stroke="#E5E5E5"/>
<path d="M38.5837 139.205L38.3107 139.828C38.1193 139.758 37.928 139.702 37.7367 139.66C37.55 139.618 37.3703 139.597 37.1977 139.597C36.9037 139.597 36.668 139.658 36.4907 139.779C36.318 139.9 36.2317 140.054 36.2317 140.241C36.2317 140.4 36.2947 140.528 36.4207 140.626C36.5467 140.719 36.703 140.806 36.8897 140.885C37.0763 140.96 37.2793 141.037 37.4987 141.116C37.718 141.191 37.921 141.289 38.1077 141.41C38.2943 141.531 38.4507 141.685 38.5767 141.872C38.7027 142.054 38.7657 142.29 38.7657 142.579C38.7657 142.803 38.7237 143.006 38.6397 143.188C38.5603 143.365 38.439 143.519 38.2757 143.65C38.117 143.781 37.9163 143.881 37.6737 143.951C37.4357 144.021 37.1557 144.056 36.8337 144.056C36.6283 144.056 36.4417 144.042 36.2737 144.014C36.1103 143.986 35.961 143.951 35.8257 143.909C35.695 143.862 35.5783 143.813 35.4757 143.762C35.3777 143.711 35.2937 143.664 35.2237 143.622L35.5597 142.957C35.7463 143.064 35.954 143.151 36.1827 143.216C36.4113 143.281 36.619 143.314 36.8057 143.314C36.899 143.314 37.0133 143.302 37.1487 143.279C37.2887 143.256 37.4217 143.216 37.5477 143.16C37.6737 143.099 37.781 143.02 37.8697 142.922C37.963 142.824 38.0097 142.7 38.0097 142.551C38.0097 142.416 37.9723 142.301 37.8977 142.208C37.8277 142.11 37.732 142.026 37.6107 141.956C37.494 141.881 37.3587 141.816 37.2047 141.76C37.0553 141.699 36.9013 141.639 36.7427 141.578C36.584 141.513 36.4277 141.445 36.2737 141.375C36.1243 141.305 35.989 141.221 35.8677 141.123C35.751 141.02 35.6553 140.904 35.5807 140.773C35.5107 140.638 35.4757 140.477 35.4757 140.29C35.4757 140.117 35.5107 139.947 35.5807 139.779C35.6507 139.611 35.7557 139.462 35.8957 139.331C36.0357 139.2 36.2083 139.095 36.4137 139.016C36.6237 138.937 36.8663 138.897 37.1417 138.897C37.3097 138.897 37.473 138.911 37.6317 138.939C37.795 138.967 37.942 139 38.0727 139.037C38.2033 139.07 38.313 139.102 38.4017 139.135C38.495 139.168 38.5557 139.191 38.5837 139.205ZM39.6367 144V138.925H40.4067V143.272H42.9267V144H39.6367ZM43.1283 141.466C43.1283 141.116 43.196 140.785 43.3313 140.472C43.4666 140.155 43.651 139.877 43.8843 139.639C44.1223 139.401 44.3976 139.214 44.7103 139.079C45.023 138.939 45.359 138.869 45.7183 138.869C46.073 138.869 46.4066 138.939 46.7193 139.079C47.0366 139.214 47.312 139.401 47.5453 139.639C47.7833 139.877 47.97 140.155 48.1053 140.472C48.2453 140.785 48.3153 141.116 48.3153 141.466C48.3153 141.825 48.2453 142.161 48.1053 142.474C47.97 142.787 47.7833 143.062 47.5453 143.3C47.312 143.533 47.0366 143.718 46.7193 143.853C46.4066 143.988 46.073 144.056 45.7183 144.056C45.359 144.056 45.023 143.988 44.7103 143.853C44.3976 143.718 44.1223 143.533 43.8843 143.3C43.651 143.062 43.4666 142.787 43.3313 142.474C43.196 142.161 43.1283 141.825 43.1283 141.466ZM43.8913 141.473C43.8913 141.73 43.938 141.972 44.0313 142.201C44.1293 142.425 44.2623 142.621 44.4303 142.789C44.5983 142.957 44.7943 143.09 45.0183 143.188C45.2423 143.286 45.4803 143.335 45.7323 143.335C45.9843 143.335 46.22 143.286 46.4393 143.188C46.6633 143.09 46.857 142.957 47.0203 142.789C47.1883 142.621 47.319 142.425 47.4123 142.201C47.5103 141.972 47.5593 141.727 47.5593 141.466C47.5593 141.209 47.5103 140.969 47.4123 140.745C47.319 140.516 47.1883 140.318 47.0203 140.15C46.8523 139.982 46.6563 139.849 46.4323 139.751C46.213 139.653 45.9773 139.604 45.7253 139.604C45.4733 139.604 45.2353 139.653 45.0113 139.751C44.7873 139.849 44.5913 139.982 44.4233 140.15C44.26 140.318 44.1293 140.516 44.0313 140.745C43.938 140.974 43.8913 141.216 43.8913 141.473ZM49.977 141.466H50.67C50.8567 141.466 51.013 141.433 51.139 141.368C51.265 141.303 51.363 141.223 51.433 141.13C51.5077 141.037 51.559 140.936 51.587 140.829C51.6197 140.722 51.636 140.626 51.636 140.542C51.636 140.453 51.6197 140.358 51.587 140.255C51.559 140.148 51.5077 140.05 51.433 139.961C51.3583 139.868 51.258 139.791 51.132 139.73C51.0107 139.669 50.859 139.639 50.677 139.639H49.977V141.466ZM49.207 144V138.925H50.593C50.859 138.925 51.1017 138.96 51.321 139.03C51.545 139.1 51.7363 139.205 51.895 139.345C52.0583 139.48 52.1843 139.648 52.273 139.849C52.3617 140.045 52.406 140.271 52.406 140.528C52.406 140.729 52.3757 140.929 52.315 141.13C52.2543 141.326 52.1563 141.503 52.021 141.662C51.8857 141.816 51.7083 141.942 51.489 142.04C51.2697 142.138 51.0037 142.187 50.691 142.187H49.977V144H49.207ZM53.247 144V138.925H56.579V139.618H54.017V141.102H56.299V141.809H54.017V143.293H56.677V144H53.247Z" fill="#C4C4C4"/>
<path d="M22.3656 107.01V106.387H23.4646V111H22.8136V107.01H22.3656ZM26.0666 110.377H27.7046V111H24.5266C24.8159 110.706 25.0959 110.421 25.3666 110.146C25.6419 109.871 25.8846 109.605 26.0946 109.348C26.3046 109.087 26.4726 108.837 26.5986 108.599C26.7293 108.356 26.7946 108.123 26.7946 107.899C26.7946 107.736 26.7666 107.596 26.7106 107.479C26.6546 107.358 26.5846 107.26 26.5006 107.185C26.4213 107.106 26.3326 107.047 26.2346 107.01C26.1366 106.973 26.0456 106.954 25.9616 106.954C25.7889 106.954 25.6466 106.984 25.5346 107.045C25.4273 107.106 25.3409 107.18 25.2756 107.269C25.2103 107.353 25.1636 107.442 25.1356 107.535C25.1123 107.628 25.1006 107.71 25.1006 107.78C25.1006 107.939 25.1239 108.076 25.1706 108.193C25.2219 108.31 25.2896 108.415 25.3736 108.508L24.9956 108.907C24.9116 108.856 24.8346 108.786 24.7646 108.697C24.6993 108.604 24.6433 108.506 24.5966 108.403C24.5499 108.296 24.5149 108.188 24.4916 108.081C24.4683 107.969 24.4566 107.869 24.4566 107.78C24.4566 107.593 24.4893 107.414 24.5546 107.241C24.6199 107.064 24.7156 106.907 24.8416 106.772C24.9723 106.637 25.1309 106.529 25.3176 106.45C25.5043 106.371 25.7189 106.331 25.9616 106.331C26.1856 106.331 26.3886 106.371 26.5706 106.45C26.7526 106.529 26.9066 106.639 27.0326 106.779C27.1633 106.914 27.2636 107.073 27.3336 107.255C27.4083 107.432 27.4456 107.619 27.4456 107.815C27.4456 108.044 27.4083 108.268 27.3336 108.487C27.2589 108.702 27.1563 108.916 27.0256 109.131C26.8996 109.341 26.7526 109.549 26.5846 109.754C26.4213 109.959 26.2486 110.167 26.0666 110.377Z" fill="#C4C4C4"/>
<path d="M65.1579 110.377H66.7959V111H63.6179C63.9072 110.706 64.1872 110.421 64.4579 110.146C64.7332 109.871 64.9759 109.605 65.1859 109.348C65.3959 109.087 65.5639 108.837 65.6899 108.599C65.8206 108.356 65.8859 108.123 65.8859 107.899C65.8859 107.736 65.8579 107.596 65.8019 107.479C65.7459 107.358 65.6759 107.26 65.5919 107.185C65.5126 107.106 65.4239 107.047 65.3259 107.01C65.2279 106.973 65.1369 106.954 65.0529 106.954C64.8802 106.954 64.7379 106.984 64.6259 107.045C64.5186 107.106 64.4322 107.18 64.3669 107.269C64.3016 107.353 64.2549 107.442 64.2269 107.535C64.2036 107.628 64.1919 107.71 64.1919 107.78C64.1919 107.939 64.2152 108.076 64.2619 108.193C64.3132 108.31 64.3809 108.415 64.4649 108.508L64.0869 108.907C64.0029 108.856 63.9259 108.786 63.8559 108.697C63.7906 108.604 63.7346 108.506 63.6879 108.403C63.6412 108.296 63.6062 108.188 63.5829 108.081C63.5596 107.969 63.5479 107.869 63.5479 107.78C63.5479 107.593 63.5806 107.414 63.6459 107.241C63.7112 107.064 63.8069 106.907 63.9329 106.772C64.0636 106.637 64.2222 106.529 64.4089 106.45C64.5956 106.371 64.8102 106.331 65.0529 106.331C65.2769 106.331 65.4799 106.371 65.6619 106.45C65.8439 106.529 65.9979 106.639 66.1239 106.779C66.2546 106.914 66.3549 107.073 66.4249 107.255C66.4996 107.432 66.5369 107.619 66.5369 107.815C66.5369 108.044 66.4996 108.268 66.4249 108.487C66.3502 108.702 66.2476 108.916 66.1169 109.131C65.9909 109.341 65.8439 109.549 65.6759 109.754C65.5126 109.959 65.3399 110.167 65.1579 110.377ZM67.0547 109.81C67.4887 109.245 67.946 108.667 68.4267 108.074C68.9074 107.477 69.367 106.896 69.8057 106.331V109.187H70.4917V109.81H69.8057V111H69.1547V109.81H67.0547ZM69.1547 108.074L68.3007 109.187H69.1547V108.074Z" fill="#C4C4C4"/>
<path d="M39 133H53C57.962 133 62 128.962 62 124C62 119.038 57.962 115 53 115H39C34.038 115 30 119.038 30 124C30 128.962 34.038 133 39 133ZM39 117C42.86 117 46 120.14 46 124C46 127.86 42.86 131 39 131C35.14 131 32 127.86 32 124C32 120.14 35.14 117 39 117Z" fill="#A5A5A5"/>
<path d="M41.1722 82.925V83.653H39.8912V88H39.1282V83.653H37.8752V82.925H41.1722ZM44.1317 86.327V88H43.3617V86.327C43.329 86.2757 43.2637 86.1637 43.1657 85.991C43.0724 85.8183 42.9604 85.6153 42.8297 85.382C42.7037 85.144 42.566 84.892 42.4167 84.626C42.272 84.36 42.1344 84.1103 42.0037 83.877C41.8777 83.639 41.7657 83.4337 41.6677 83.261C41.5744 83.0883 41.5114 82.9763 41.4787 82.925H42.3467C42.3887 82.995 42.4634 83.1303 42.5707 83.331C42.678 83.527 42.797 83.751 42.9277 84.003C43.0584 84.2503 43.1914 84.5023 43.3267 84.759C43.462 85.011 43.5764 85.228 43.6697 85.41L43.7467 85.641C43.7654 85.6037 43.7817 85.5663 43.7957 85.529C43.8097 85.487 43.8237 85.4473 43.8377 85.41C43.9357 85.228 44.05 85.011 44.1807 84.759C44.3114 84.5023 44.4397 84.2503 44.5657 84.003C44.6964 83.751 44.813 83.527 44.9157 83.331C45.023 83.1303 45.0977 82.995 45.1397 82.925H46.0007L44.1317 86.327ZM47.4374 85.466H48.1304C48.3171 85.466 48.4734 85.4333 48.5994 85.368C48.7254 85.3027 48.8234 85.2233 48.8934 85.13C48.9681 85.0367 49.0194 84.9363 49.0474 84.829C49.0801 84.7217 49.0964 84.626 49.0964 84.542C49.0964 84.4533 49.0801 84.3577 49.0474 84.255C49.0194 84.1477 48.9681 84.0497 48.8934 83.961C48.8188 83.8677 48.7184 83.7907 48.5924 83.73C48.4711 83.6693 48.3194 83.639 48.1374 83.639H47.4374V85.466ZM46.6674 88V82.925H48.0534C48.3194 82.925 48.5621 82.96 48.7814 83.03C49.0054 83.1 49.1968 83.205 49.3554 83.345C49.5188 83.4803 49.6448 83.6483 49.7334 83.849C49.8221 84.045 49.8664 84.2713 49.8664 84.528C49.8664 84.7287 49.8361 84.9293 49.7754 85.13C49.7148 85.326 49.6168 85.5033 49.4814 85.662C49.3461 85.816 49.1688 85.942 48.9494 86.04C48.7301 86.138 48.4641 86.187 48.1514 86.187H47.4374V88H46.6674ZM50.7075 88V82.925H54.0395V83.618H51.4775V85.102H53.7595V85.809H51.4775V87.293H54.1375V88H50.7075Z" fill="#C4C4C4"/>
<path d="M21.6035 55V49.925H22.3735V54.272H24.8935V55H21.6035ZM26.3725 52.466H27.0655C27.2522 52.466 27.4085 52.4333 27.5345 52.368C27.6605 52.3027 27.7585 52.2233 27.8285 52.13C27.9032 52.0367 27.9545 51.9363 27.9825 51.829C28.0152 51.7217 28.0315 51.626 28.0315 51.542C28.0315 51.4533 28.0152 51.3577 27.9825 51.255C27.9545 51.1477 27.9032 51.0497 27.8285 50.961C27.7538 50.8677 27.6535 50.7907 27.5275 50.73C27.4062 50.6693 27.2545 50.639 27.0725 50.639H26.3725V52.466ZM25.6025 55V49.925H26.9885C27.2545 49.925 27.4972 49.96 27.7165 50.03C27.9405 50.1 28.1318 50.205 28.2905 50.345C28.4538 50.4803 28.5798 50.6483 28.6685 50.849C28.7572 51.045 28.8015 51.2713 28.8015 51.528C28.8015 51.7287 28.7712 51.9293 28.7105 52.13C28.6498 52.326 28.5518 52.5033 28.4165 52.662C28.2812 52.816 28.1038 52.942 27.8845 53.04C27.6652 53.138 27.3992 53.187 27.0865 53.187H26.3725V55H25.6025Z" fill="#C4C4C4"/>
<path d="M62.9438 55V49.925H63.7068V52.081H66.2478V49.925H67.0178C67.0178 49.9857 67.0178 50.1 67.0178 50.268C67.0178 50.4313 67.0178 50.6273 67.0178 50.856C67.0178 51.0847 67.0178 51.339 67.0178 51.619C67.0178 51.8943 67.0155 52.1767 67.0108 52.466C67.0108 52.7507 67.0108 53.033 67.0108 53.313C67.0108 53.5883 67.0108 53.8403 67.0108 54.069C67.0108 54.2977 67.0108 54.496 67.0108 54.664C67.0108 54.8273 67.0108 54.9393 67.0108 55H66.2478V52.809H63.7068V55H62.9438ZM69.0322 52.466H69.7252C69.9118 52.466 70.0682 52.4333 70.1942 52.368C70.3202 52.3027 70.4182 52.2233 70.4882 52.13C70.5628 52.0367 70.6142 51.9363 70.6422 51.829C70.6748 51.7217 70.6912 51.626 70.6912 51.542C70.6912 51.4533 70.6748 51.3577 70.6422 51.255C70.6142 51.1477 70.5628 51.0497 70.4882 50.961C70.4135 50.8677 70.3132 50.7907 70.1872 50.73C70.0658 50.6693 69.9142 50.639 69.7322 50.639H69.0322V52.466ZM68.2622 55V49.925H69.6482C69.9142 49.925 70.1568 49.96 70.3762 50.03C70.6002 50.1 70.7915 50.205 70.9502 50.345C71.1135 50.4803 71.2395 50.6483 71.3282 50.849C71.4168 51.045 71.4612 51.2713 71.4612 51.528C71.4612 51.7287 71.4308 51.9293 71.3702 52.13C71.3095 52.326 71.2115 52.5033 71.0762 52.662C70.9408 52.816 70.7635 52.942 70.5442 53.04C70.3248 53.138 70.0588 53.187 69.7462 53.187H69.0322V55H68.2622Z" fill="#C4C4C4"/>
<path d="M39 77H53C57.962 77 62 72.962 62 68C62 63.038 57.962 59 53 59H39C34.038 59 30 63.038 30 68C30 72.962 34.038 77 39 77ZM39 61C42.86 61 46 64.14 46 68C46 71.86 42.86 75 39 75C35.14 75 32 71.86 32 68C32 64.14 35.14 61 39 61Z" fill="#A5A5A5"/>
</svg>
