<svg width="31" height="386" viewBox="0 0 31 386" fill="none" xmlns="http://www.w3.org/2000/svg">
<rect x="0.5" y="0.5" width="29.48" height="384.5" fill="#333333" stroke="#161616"/>
<rect y="256" width="30.48" height="45" fill="#161616"/>
<rect y="159" width="30.48" height="45" fill="#161616"/>
<rect y="62" width="30.48" height="45" fill="#161616"/>
<path d="M8.2514 295.466H8.9444C9.13107 295.466 9.2874 295.433 9.4134 295.368C9.5394 295.303 9.6374 295.223 9.7074 295.13C9.78207 295.037 9.8334 294.936 9.8614 294.829C9.89407 294.722 9.9104 294.626 9.9104 294.542C9.9104 294.453 9.89407 294.358 9.8614 294.255C9.8334 294.148 9.78207 294.05 9.7074 293.961C9.63273 293.868 9.5324 293.791 9.4064 293.73C9.28507 293.669 9.1334 293.639 8.9514 293.639H8.2514V295.466ZM7.4814 298V292.925H8.8674C9.1334 292.925 9.37607 292.96 9.5954 293.03C9.8194 293.1 10.0107 293.205 10.1694 293.345C10.3327 293.48 10.4587 293.648 10.5474 293.849C10.6361 294.045 10.6804 294.271 10.6804 294.528C10.6804 294.729 10.6501 294.929 10.5894 295.13C10.5287 295.326 10.4307 295.503 10.2954 295.662C10.1601 295.816 9.98273 295.942 9.7634 296.04C9.54407 296.138 9.27807 296.187 8.9654 296.187H8.2514V298H7.4814ZM11.5214 292.925H12.2844V298H11.5214V292.925ZM17.9832 292.925V298.231C17.9179 298.147 17.7919 298.012 17.6052 297.825C17.4185 297.638 17.2039 297.424 16.9612 297.181C16.7185 296.938 16.4595 296.684 16.1842 296.418C15.9135 296.152 15.6569 295.9 15.4142 295.662C15.1715 295.419 14.9592 295.205 14.7772 295.018C14.5952 294.827 14.4739 294.691 14.4132 294.612L14.2802 294.43L14.3012 294.654V298H13.5312V292.687C13.5825 292.752 13.6665 292.846 13.7832 292.967C13.9045 293.088 14.0445 293.231 14.2032 293.394C14.3665 293.553 14.5439 293.725 14.7352 293.912C14.9312 294.099 15.1272 294.288 15.3232 294.479C15.5239 294.67 15.7199 294.859 15.9112 295.046C16.1072 295.228 16.2845 295.398 16.4432 295.557C16.6065 295.716 16.7465 295.856 16.8632 295.977C16.9799 296.098 17.0615 296.189 17.1082 296.25L17.2412 296.446L17.2202 296.208V292.925H17.9832ZM22.2424 298C22.079 297.79 21.9227 297.589 21.7734 297.398C21.624 297.207 21.477 297.015 21.3324 296.824C21.1877 296.633 21.0407 296.439 20.8914 296.243C20.7467 296.047 20.5927 295.844 20.4294 295.634C20.3687 295.699 20.3104 295.76 20.2544 295.816C20.1984 295.867 20.1377 295.921 20.0724 295.977C20.0724 296.336 20.0724 296.675 20.0724 296.992C20.077 297.305 20.0794 297.641 20.0794 298H19.2324V292.925H20.0794V294.822C20.0794 294.864 20.0747 294.906 20.0654 294.948C20.0607 294.985 20.0584 295.025 20.0584 295.067C20.0817 295.034 20.105 295.006 20.1284 294.983C20.1517 294.955 20.175 294.922 20.1984 294.885C20.5297 294.572 20.8494 294.248 21.1574 293.912C21.4654 293.571 21.785 293.242 22.1164 292.925H23.0894C22.7394 293.289 22.3917 293.655 22.0464 294.024C21.7057 294.393 21.3604 294.759 21.0104 295.123C21.2064 295.375 21.393 295.62 21.5704 295.858C21.7524 296.091 21.9297 296.325 22.1024 296.558C22.2797 296.791 22.457 297.027 22.6344 297.265C22.8117 297.503 22.996 297.748 23.1874 298H22.2424Z" fill="#C4C4C4"/>
<circle cx="14" cy="269" r="9.5" fill="#616161" stroke="#C4C4C4"/>
<path d="M14 261L20.9282 265V273L14 277L7.0718 273V265L14 261Z" fill="#A5A5A5"/>
<circle cx="14" cy="269" r="5.5" fill="black" stroke="#E5E5E5"/>
<path d="M7.80797 14.475V21.297C7.72397 21.189 7.56197 21.015 7.32197 20.775C7.08197 20.535 6.80597 20.259 6.49397 19.947C6.18197 19.635 5.84897 19.308 5.49497 18.966C5.14697 18.624 4.81697 18.3 4.50497 17.994C4.19297 17.682 3.91997 17.406 3.68597 17.166C3.45197 16.92 3.29597 16.746 3.21797 16.644L3.04697 16.41L3.07397 16.698V21H2.08397V14.169C2.14997 14.253 2.25797 14.373 2.40797 14.529C2.56397 14.685 2.74397 14.868 2.94797 15.078C3.15797 15.282 3.38597 15.504 3.63197 15.744C3.88397 15.984 4.13597 16.227 4.38797 16.473C4.64597 16.719 4.89797 16.962 5.14397 17.202C5.39597 17.436 5.62397 17.655 5.82797 17.859C6.03797 18.063 6.21797 18.243 6.36797 18.399C6.51797 18.555 6.62297 18.672 6.68297 18.75L6.85397 19.002L6.82697 18.696V14.475H7.80797ZM8.95505 17.742C8.95505 17.292 9.04205 16.866 9.21605 16.464C9.39005 16.056 9.62705 15.699 9.92705 15.393C10.233 15.087 10.587 14.847 10.989 14.673C11.391 14.493 11.823 14.403 12.285 14.403C12.741 14.403 13.17 14.493 13.572 14.673C13.98 14.847 14.334 15.087 14.634 15.393C14.94 15.699 15.18 16.056 15.354 16.464C15.534 16.866 15.624 17.292 15.624 17.742C15.624 18.204 15.534 18.636 15.354 19.038C15.18 19.44 14.94 19.794 14.634 20.1C14.334 20.4 13.98 20.637 13.572 20.811C13.17 20.985 12.741 21.072 12.285 21.072C11.823 21.072 11.391 20.985 10.989 20.811C10.587 20.637 10.233 20.4 9.92705 20.1C9.62705 19.794 9.39005 19.44 9.21605 19.038C9.04205 18.636 8.95505 18.204 8.95505 17.742ZM9.93605 17.751C9.93605 18.081 9.99605 18.393 10.116 18.687C10.242 18.975 10.413 19.227 10.629 19.443C10.845 19.659 11.097 19.83 11.385 19.956C11.673 20.082 11.979 20.145 12.303 20.145C12.627 20.145 12.93 20.082 13.212 19.956C13.5 19.83 13.749 19.659 13.959 19.443C14.175 19.227 14.343 18.975 14.463 18.687C14.589 18.393 14.652 18.078 14.652 17.742C14.652 17.412 14.589 17.103 14.463 16.815C14.343 16.521 14.175 16.266 13.959 16.05C13.743 15.834 13.491 15.663 13.203 15.537C12.921 15.411 12.618 15.348 12.294 15.348C11.97 15.348 11.664 15.411 11.376 15.537C11.088 15.663 10.836 15.834 10.62 16.05C10.41 16.266 10.242 16.521 10.116 16.815C9.99605 17.109 9.93605 17.421 9.93605 17.751ZM16.7705 14.475H17.7515V21H16.7705V14.475ZM23.0895 14.835L22.7385 15.636C22.4925 15.546 22.2465 15.474 22.0005 15.42C21.7605 15.366 21.5295 15.339 21.3075 15.339C20.9295 15.339 20.6265 15.417 20.3985 15.573C20.1765 15.729 20.0655 15.927 20.0655 16.167C20.0655 16.371 20.1465 16.536 20.3085 16.662C20.4705 16.782 20.6715 16.893 20.9115 16.995C21.1515 17.091 21.4125 17.19 21.6945 17.292C21.9765 17.388 22.2375 17.514 22.4775 17.67C22.7175 17.826 22.9185 18.024 23.0805 18.264C23.2425 18.498 23.3235 18.801 23.3235 19.173C23.3235 19.461 23.2695 19.722 23.1615 19.956C23.0595 20.184 22.9035 20.382 22.6935 20.55C22.4895 20.718 22.2315 20.847 21.9195 20.937C21.6135 21.027 21.2535 21.072 20.8395 21.072C20.5755 21.072 20.3355 21.054 20.1195 21.018C19.9095 20.982 19.7175 20.937 19.5435 20.883C19.3755 20.823 19.2255 20.76 19.0935 20.694C18.9675 20.628 18.8595 20.568 18.7695 20.514L19.2015 19.659C19.4415 19.797 19.7085 19.908 20.0025 19.992C20.2965 20.076 20.5635 20.118 20.8035 20.118C20.9235 20.118 21.0705 20.103 21.2445 20.073C21.4245 20.043 21.5955 19.992 21.7575 19.92C21.9195 19.842 22.0575 19.74 22.1715 19.614C22.2915 19.488 22.3515 19.329 22.3515 19.137C22.3515 18.963 22.3035 18.816 22.2075 18.696C22.1175 18.57 21.9945 18.462 21.8385 18.372C21.6885 18.276 21.5145 18.192 21.3165 18.12C21.1245 18.042 20.9265 17.964 20.7225 17.886C20.5185 17.802 20.3175 17.715 20.1195 17.625C19.9275 17.535 19.7535 17.427 19.5975 17.301C19.4475 17.169 19.3245 17.019 19.2285 16.851C19.1385 16.677 19.0935 16.47 19.0935 16.23C19.0935 16.008 19.1385 15.789 19.2285 15.573C19.3185 15.357 19.4535 15.165 19.6335 14.997C19.8135 14.829 20.0355 14.694 20.2995 14.592C20.5695 14.49 20.8815 14.439 21.2355 14.439C21.4515 14.439 21.6615 14.457 21.8655 14.493C22.0755 14.529 22.2645 14.571 22.4325 14.619C22.6005 14.661 22.7415 14.703 22.8555 14.745C22.9755 14.787 23.0535 14.817 23.0895 14.835ZM24.4433 21V14.475H28.7273V15.366H25.4333V17.274H28.3673V18.183H25.4333V20.091H28.8533V21H24.4433Z" fill="#C4C4C4"/>
<path d="M10.5092 98.946C10.3412 99.3893 10.1615 99.856 9.9702 100.346C9.78353 100.831 9.59687 101.31 9.4102 101.781C9.2282 102.252 9.05553 102.7 8.8922 103.125C8.72887 103.55 8.5912 103.916 8.4792 104.224L7.3452 101.389C7.3312 101.352 7.31953 101.324 7.3102 101.305C7.30087 101.286 7.29153 101.258 7.2822 101.221C7.2822 101.24 7.27987 101.258 7.2752 101.277C7.27053 101.291 7.26587 101.307 7.2612 101.326C7.25653 101.345 7.25187 101.363 7.2472 101.382C7.08853 101.746 6.9322 102.103 6.7782 102.453C6.71287 102.602 6.6452 102.756 6.5752 102.915C6.5052 103.074 6.43753 103.232 6.3722 103.391C6.30687 103.545 6.24153 103.694 6.1762 103.839C6.11553 103.984 6.05953 104.114 6.0082 104.231C5.6722 103.349 5.33387 102.469 4.9932 101.592C4.65253 100.715 4.3142 99.8327 3.9782 98.946H4.8392C4.9512 99.254 5.06553 99.5643 5.1822 99.877C5.30353 100.19 5.41553 100.491 5.5182 100.78C5.62553 101.069 5.7212 101.338 5.8052 101.585C5.8892 101.832 5.95453 102.042 6.0012 102.215L6.0572 102.46C6.06187 102.437 6.07353 102.399 6.0922 102.348C6.11087 102.292 6.12487 102.252 6.1342 102.229C6.13887 102.21 6.1552 102.168 6.1832 102.103C6.2112 102.038 6.24387 101.961 6.2812 101.872C6.31853 101.779 6.36053 101.678 6.4072 101.571C6.45387 101.464 6.50053 101.354 6.5472 101.242C6.6592 100.985 6.78287 100.701 6.9182 100.388C6.83887 100.169 6.76887 99.9633 6.7082 99.772C6.6522 99.6087 6.59853 99.4477 6.5472 99.289C6.50053 99.1303 6.46553 99.016 6.4422 98.946H7.1772C7.37787 99.4733 7.56453 99.961 7.7372 100.409C7.8072 100.6 7.8772 100.792 7.9472 100.983C8.02187 101.174 8.08953 101.352 8.1502 101.515C8.21553 101.678 8.27153 101.823 8.3182 101.949C8.36487 102.07 8.39753 102.159 8.4162 102.215C8.4302 102.257 8.43953 102.299 8.4442 102.341C8.45353 102.378 8.46287 102.418 8.4722 102.46C8.48153 102.418 8.48853 102.376 8.4932 102.334C8.50253 102.292 8.51187 102.252 8.5212 102.215C8.5632 102.033 8.62853 101.816 8.7172 101.564C8.80587 101.312 8.90387 101.041 9.0112 100.752C9.1232 100.463 9.23987 100.164 9.3612 99.856C9.48253 99.5433 9.5992 99.24 9.7112 98.946H10.5092ZM11.1899 104V98.925H11.9529V101.081H14.4939V98.925H15.2639C15.2639 98.9857 15.2639 99.1 15.2639 99.268C15.2639 99.4313 15.2639 99.6273 15.2639 99.856C15.2639 100.085 15.2639 100.339 15.2639 100.619C15.2639 100.894 15.2616 101.177 15.2569 101.466C15.2569 101.751 15.2569 102.033 15.2569 102.313C15.2569 102.588 15.2569 102.84 15.2569 103.069C15.2569 103.298 15.2569 103.496 15.2569 103.664C15.2569 103.827 15.2569 103.939 15.2569 104H14.4939V101.809H11.9529V104H11.1899ZM16.5083 98.925H17.2713V104H16.5083V98.925ZM21.472 98.925V99.653H20.191V104H19.428V99.653H18.175V98.925H21.472ZM22.3735 104V98.925H25.7055V99.618H23.1435V101.102H25.4255V101.809H23.1435V103.293H25.8035V104H22.3735Z" fill="#C4C4C4"/>
<circle cx="15" cy="75" r="9.5" fill="#616161" stroke="#C4C4C4"/>
<path d="M15 67L21.9282 71V79L15 83L8.0718 79V71L15 67Z" fill="#A5A5A5"/>
<circle cx="15" cy="75" r="5.5" fill="black" stroke="#E5E5E5"/>
<path d="M1.21638 376V371.65H2.40438C2.63238 371.65 2.84038 371.68 3.02838 371.74C3.22038 371.8 3.38438 371.89 3.52038 372.01C3.66038 372.126 3.76838 372.27 3.84438 372.442C3.92038 372.61 3.95838 372.804 3.95838 373.024C3.95838 373.144 3.94638 373.264 3.92238 373.384C3.89838 373.5 3.85838 373.614 3.80238 373.726C3.75038 373.834 3.68238 373.936 3.59838 374.032C3.51438 374.124 3.41238 374.202 3.29238 374.266C3.45238 374.518 3.62638 374.798 3.81438 375.106C4.00238 375.41 4.19238 375.708 4.38438 376H3.59838C3.51838 375.876 3.43438 375.746 3.34638 375.61C3.26238 375.474 3.17638 375.34 3.08838 375.208C3.00438 375.072 2.92038 374.94 2.83638 374.812C2.75638 374.68 2.68038 374.558 2.60838 374.446H2.48838H1.87638V376H1.21638ZM1.87638 373.828H2.47038C2.63038 373.828 2.76438 373.802 2.87238 373.75C2.98038 373.694 3.06438 373.626 3.12438 373.546C3.18838 373.466 3.23238 373.38 3.25638 373.288C3.28438 373.196 3.29838 373.112 3.29838 373.036C3.29838 372.96 3.28438 372.878 3.25638 372.79C3.23238 372.698 3.18838 372.614 3.12438 372.538C3.06038 372.458 2.97438 372.392 2.86638 372.34C2.76238 372.288 2.63238 372.262 2.47638 372.262H1.87638V373.828ZM7.67796 376C7.65796 375.956 7.62996 375.892 7.59396 375.808C7.55796 375.724 7.51596 375.628 7.46796 375.52C7.42396 375.408 7.37396 375.288 7.31796 375.16C7.26596 375.028 7.21196 374.892 7.15596 374.752H5.61996L5.10396 376H4.45596L6.39396 371.446C6.41796 371.502 6.45996 371.604 6.51996 371.752C6.58396 371.9 6.65796 372.078 6.74196 372.286C6.82996 372.49 6.92596 372.718 7.02996 372.97C7.13796 373.218 7.24596 373.47 7.35396 373.726C7.46596 373.982 7.57396 374.234 7.67796 374.482C7.78596 374.73 7.88396 374.958 7.97196 375.166C8.05996 375.374 8.13396 375.552 8.19396 375.7C8.25796 375.844 8.30196 375.944 8.32596 376H7.67796ZM5.84796 374.2H6.93396C6.87796 374.068 6.82396 373.942 6.77196 373.822C6.72396 373.698 6.67796 373.586 6.63396 373.486C6.59396 373.382 6.55796 373.292 6.52596 373.216C6.49396 373.14 6.46996 373.08 6.45396 373.036C6.44996 373.028 6.43996 373 6.42396 372.952C6.41196 372.904 6.40196 372.86 6.39396 372.82C6.38596 372.86 6.37396 372.904 6.35796 372.952C6.34196 373 6.33196 373.028 6.32796 373.036L5.84796 374.2ZM11.9327 375.688C11.8847 375.724 11.8167 375.764 11.7287 375.808C11.6447 375.848 11.5447 375.886 11.4287 375.922C11.3127 375.958 11.1827 375.988 11.0387 376.012C10.8987 376.036 10.7487 376.048 10.5887 376.048C10.2487 376.048 9.94266 375.99 9.67066 375.874C9.40266 375.754 9.17466 375.594 8.98666 375.394C8.79866 375.194 8.65466 374.962 8.55466 374.698C8.45466 374.434 8.40466 374.154 8.40466 373.858C8.40466 373.53 8.46266 373.228 8.57866 372.952C8.69866 372.676 8.86066 372.438 9.06466 372.238C9.26866 372.038 9.50666 371.882 9.77866 371.77C10.0547 371.658 10.3467 371.602 10.6547 371.602C10.7707 371.602 10.8887 371.61 11.0087 371.626C11.1287 371.642 11.2407 371.664 11.3447 371.692C11.4527 371.72 11.5467 371.754 11.6267 371.794C11.7107 371.83 11.7747 371.868 11.8187 371.908C11.7867 371.956 11.7607 371.996 11.7407 372.028C11.7247 372.06 11.7067 372.094 11.6867 372.13C11.6667 372.162 11.6447 372.2 11.6207 372.244C11.5967 372.288 11.5647 372.346 11.5247 372.418C11.4727 372.382 11.4107 372.352 11.3387 372.328C11.2707 372.304 11.1987 372.284 11.1227 372.268C11.0467 372.252 10.9687 372.24 10.8887 372.232C10.8127 372.224 10.7427 372.22 10.6787 372.22C10.4467 372.22 10.2307 372.264 10.0307 372.352C9.83466 372.436 9.66466 372.552 9.52066 372.7C9.37666 372.844 9.26266 373.012 9.17866 373.204C9.09866 373.396 9.05866 373.596 9.05866 373.804C9.05866 374.008 9.09666 374.204 9.17266 374.392C9.25266 374.58 9.36066 374.748 9.49666 374.896C9.63666 375.044 9.80266 375.162 9.99466 375.25C10.1907 375.338 10.4047 375.382 10.6367 375.382C10.7607 375.382 10.8807 375.37 10.9967 375.346C11.1127 375.322 11.2167 375.294 11.3087 375.262C11.4047 375.23 11.4827 375.198 11.5427 375.166C11.6067 375.134 11.6447 375.11 11.6567 375.094L11.9327 375.688ZM15.1108 376C14.9708 375.82 14.8368 375.648 14.7088 375.484C14.5808 375.32 14.4548 375.156 14.3308 374.992C14.2068 374.828 14.0808 374.662 13.9528 374.494C13.8288 374.326 13.6968 374.152 13.5568 373.972C13.5048 374.028 13.4548 374.08 13.4068 374.128C13.3588 374.172 13.3068 374.218 13.2508 374.266C13.2508 374.574 13.2508 374.864 13.2508 375.136C13.2548 375.404 13.2568 375.692 13.2568 376H12.5308V371.65H13.2568V373.276C13.2568 373.312 13.2528 373.348 13.2448 373.384C13.2408 373.416 13.2388 373.45 13.2388 373.486C13.2588 373.458 13.2788 373.434 13.2988 373.414C13.3188 373.39 13.3388 373.362 13.3588 373.33C13.6428 373.062 13.9168 372.784 14.1808 372.496C14.4448 372.204 14.7188 371.922 15.0028 371.65H15.8368C15.5368 371.962 15.2388 372.276 14.9428 372.592C14.6508 372.908 14.3548 373.222 14.0548 373.534C14.2228 373.75 14.3828 373.96 14.5348 374.164C14.6908 374.364 14.8428 374.564 14.9908 374.764C15.1428 374.964 15.2948 375.166 15.4468 375.37C15.5988 375.574 15.7568 375.784 15.9208 376H15.1108ZM16.4156 376V371.65H17.0756V375.376H19.2356V376H16.4156ZM19.8433 376V371.65H22.6993V372.244H20.5033V373.516H22.4593V374.122H20.5033V375.394H22.7833V376H19.8433ZM26.0365 371.89L25.8025 372.424C25.6385 372.364 25.4745 372.316 25.3105 372.28C25.1505 372.244 24.9965 372.226 24.8485 372.226C24.5965 372.226 24.3945 372.278 24.2425 372.382C24.0945 372.486 24.0205 372.618 24.0205 372.778C24.0205 372.914 24.0745 373.024 24.1825 373.108C24.2905 373.188 24.4245 373.262 24.5845 373.33C24.7445 373.394 24.9185 373.46 25.1065 373.528C25.2945 373.592 25.4685 373.676 25.6285 373.78C25.7885 373.884 25.9225 374.016 26.0305 374.176C26.1385 374.332 26.1925 374.534 26.1925 374.782C26.1925 374.974 26.1565 375.148 26.0845 375.304C26.0165 375.456 25.9125 375.588 25.7725 375.7C25.6365 375.812 25.4645 375.898 25.2565 375.958C25.0525 376.018 24.8125 376.048 24.5365 376.048C24.3605 376.048 24.2005 376.036 24.0565 376.012C23.9165 375.988 23.7885 375.958 23.6725 375.922C23.5605 375.882 23.4605 375.84 23.3725 375.796C23.2885 375.752 23.2165 375.712 23.1565 375.676L23.4445 375.106C23.6045 375.198 23.7825 375.272 23.9785 375.328C24.1745 375.384 24.3525 375.412 24.5125 375.412C24.5925 375.412 24.6905 375.402 24.8065 375.382C24.9265 375.362 25.0405 375.328 25.1485 375.28C25.2565 375.228 25.3485 375.16 25.4245 375.076C25.5045 374.992 25.5445 374.886 25.5445 374.758C25.5445 374.642 25.5125 374.544 25.4485 374.464C25.3885 374.38 25.3065 374.308 25.2025 374.248C25.1025 374.184 24.9865 374.128 24.8545 374.08C24.7265 374.028 24.5945 373.976 24.4585 373.924C24.3225 373.868 24.1885 373.81 24.0565 373.75C23.9285 373.69 23.8125 373.618 23.7085 373.534C23.6085 373.446 23.5265 373.346 23.4625 373.234C23.4025 373.118 23.3725 372.98 23.3725 372.82C23.3725 372.672 23.4025 372.526 23.4625 372.382C23.5225 372.238 23.6125 372.11 23.7325 371.998C23.8525 371.886 24.0005 371.796 24.1765 371.728C24.3565 371.66 24.5645 371.626 24.8005 371.626C24.9445 371.626 25.0845 371.638 25.2205 371.662C25.3605 371.686 25.4865 371.714 25.5985 371.746C25.7105 371.774 25.8045 371.802 25.8805 371.83C25.9605 371.858 26.0125 371.878 26.0365 371.89ZM29.429 371.89L29.195 372.424C29.031 372.364 28.867 372.316 28.703 372.28C28.543 372.244 28.389 372.226 28.241 372.226C27.989 372.226 27.787 372.278 27.635 372.382C27.487 372.486 27.413 372.618 27.413 372.778C27.413 372.914 27.467 373.024 27.575 373.108C27.683 373.188 27.817 373.262 27.977 373.33C28.137 373.394 28.311 373.46 28.499 373.528C28.687 373.592 28.861 373.676 29.021 373.78C29.181 373.884 29.315 374.016 29.423 374.176C29.531 374.332 29.585 374.534 29.585 374.782C29.585 374.974 29.549 375.148 29.477 375.304C29.409 375.456 29.305 375.588 29.165 375.7C29.029 375.812 28.857 375.898 28.649 375.958C28.445 376.018 28.205 376.048 27.929 376.048C27.753 376.048 27.593 376.036 27.449 376.012C27.309 375.988 27.181 375.958 27.065 375.922C26.953 375.882 26.853 375.84 26.765 375.796C26.681 375.752 26.609 375.712 26.549 375.676L26.837 375.106C26.997 375.198 27.175 375.272 27.371 375.328C27.567 375.384 27.745 375.412 27.905 375.412C27.985 375.412 28.083 375.402 28.199 375.382C28.319 375.362 28.433 375.328 28.541 375.28C28.649 375.228 28.741 375.16 28.817 375.076C28.897 374.992 28.937 374.886 28.937 374.758C28.937 374.642 28.905 374.544 28.841 374.464C28.781 374.38 28.699 374.308 28.595 374.248C28.495 374.184 28.379 374.128 28.247 374.08C28.119 374.028 27.987 373.976 27.851 373.924C27.715 373.868 27.581 373.81 27.449 373.75C27.321 373.69 27.205 373.618 27.101 373.534C27.001 373.446 26.919 373.346 26.855 373.234C26.795 373.118 26.765 372.98 26.765 372.82C26.765 372.672 26.795 372.526 26.855 372.382C26.915 372.238 27.005 372.11 27.125 371.998C27.245 371.886 27.393 371.796 27.569 371.728C27.749 371.66 27.957 371.626 28.193 371.626C28.337 371.626 28.477 371.638 28.613 371.662C28.753 371.686 28.879 371.714 28.991 371.746C29.103 371.774 29.197 371.802 29.273 371.83C29.353 371.858 29.405 371.878 29.429 371.89Z" fill="#C4C4C4"/>
<path d="M3.20989 196.618V198.116H3.89589C4.14789 198.116 4.33689 198.041 4.46289 197.892C4.58889 197.743 4.65189 197.561 4.65189 197.346C4.65189 197.094 4.57489 196.91 4.42089 196.793C4.27156 196.676 4.07089 196.618 3.81889 196.618H3.20989ZM3.20989 198.767V200.307H3.92389C4.05923 200.307 4.18523 200.291 4.30189 200.258C4.42323 200.225 4.52823 200.179 4.61689 200.118C4.70556 200.053 4.77556 199.971 4.82689 199.873C4.87823 199.775 4.90389 199.661 4.90389 199.53C4.90389 199.385 4.87356 199.266 4.81289 199.173C4.75223 199.075 4.67056 198.996 4.56789 198.935C4.46989 198.874 4.35556 198.832 4.22489 198.809C4.09889 198.781 3.96823 198.767 3.83289 198.767H3.20989ZM2.43989 201V195.925H3.78389C4.03123 195.925 4.25523 195.951 4.45589 196.002C4.65656 196.049 4.82689 196.126 4.96689 196.233C5.10689 196.336 5.21423 196.471 5.28889 196.639C5.36823 196.802 5.40789 197.003 5.40789 197.241C5.40789 197.372 5.39389 197.5 5.36589 197.626C5.34256 197.752 5.30056 197.869 5.23989 197.976C5.18389 198.079 5.10689 198.17 5.00889 198.249C4.91556 198.328 4.79889 198.389 4.65889 198.431C4.78023 198.454 4.89923 198.494 5.01589 198.55C5.13723 198.606 5.24456 198.683 5.33789 198.781C5.43123 198.874 5.50589 198.991 5.56189 199.131C5.62256 199.271 5.65289 199.437 5.65289 199.628C5.65289 199.871 5.60623 200.078 5.51289 200.251C5.41956 200.424 5.29589 200.566 5.14189 200.678C4.98789 200.79 4.81056 200.872 4.60989 200.923C4.40923 200.974 4.20156 201 3.98689 201H2.43989ZM6.59614 201V195.925H7.98214C8.24814 195.925 8.49081 195.96 8.71014 196.03C8.93414 196.1 9.12548 196.205 9.28414 196.345C9.44748 196.48 9.57348 196.648 9.66214 196.849C9.75081 197.045 9.79514 197.271 9.79514 197.528C9.79514 197.668 9.78114 197.808 9.75314 197.948C9.72514 198.083 9.67848 198.216 9.61314 198.347C9.55248 198.473 9.47314 198.592 9.37514 198.704C9.27714 198.811 9.15814 198.902 9.01814 198.977C9.20481 199.271 9.40781 199.598 9.62714 199.957C9.84648 200.312 10.0681 200.659 10.2921 201H9.37514C9.28181 200.855 9.18381 200.704 9.08114 200.545C8.98314 200.386 8.88281 200.23 8.78014 200.076C8.68214 199.917 8.58414 199.763 8.48614 199.614C8.39281 199.46 8.30414 199.318 8.22014 199.187H8.08014H7.36614V201H6.59614ZM7.36614 198.466H8.05914C8.24581 198.466 8.40214 198.436 8.52814 198.375C8.65414 198.31 8.75214 198.23 8.82214 198.137C8.89681 198.044 8.94814 197.943 8.97614 197.836C9.00881 197.729 9.02514 197.631 9.02514 197.542C9.02514 197.453 9.00881 197.358 8.97614 197.255C8.94814 197.148 8.89681 197.05 8.82214 196.961C8.74748 196.868 8.64714 196.791 8.52114 196.73C8.39981 196.669 8.24814 196.639 8.06614 196.639H7.36614V198.466ZM10.5595 198.466C10.5595 198.116 10.6271 197.785 10.7625 197.472C10.8978 197.155 11.0821 196.877 11.3155 196.639C11.5535 196.401 11.8288 196.214 12.1415 196.079C12.4541 195.939 12.7901 195.869 13.1495 195.869C13.5041 195.869 13.8378 195.939 14.1505 196.079C14.4678 196.214 14.7431 196.401 14.9765 196.639C15.2145 196.877 15.4011 197.155 15.5365 197.472C15.6765 197.785 15.7465 198.116 15.7465 198.466C15.7465 198.825 15.6765 199.161 15.5365 199.474C15.4011 199.787 15.2145 200.062 14.9765 200.3C14.7431 200.533 14.4678 200.718 14.1505 200.853C13.8378 200.988 13.5041 201.056 13.1495 201.056C12.7901 201.056 12.4541 200.988 12.1415 200.853C11.8288 200.718 11.5535 200.533 11.3155 200.3C11.0821 200.062 10.8978 199.787 10.7625 199.474C10.6271 199.161 10.5595 198.825 10.5595 198.466ZM11.3225 198.473C11.3225 198.73 11.3691 198.972 11.4625 199.201C11.5605 199.425 11.6935 199.621 11.8615 199.789C12.0295 199.957 12.2255 200.09 12.4495 200.188C12.6735 200.286 12.9115 200.335 13.1635 200.335C13.4155 200.335 13.6511 200.286 13.8705 200.188C14.0945 200.09 14.2881 199.957 14.4515 199.789C14.6195 199.621 14.7501 199.425 14.8435 199.201C14.9415 198.972 14.9905 198.727 14.9905 198.466C14.9905 198.209 14.9415 197.969 14.8435 197.745C14.7501 197.516 14.6195 197.318 14.4515 197.15C14.2835 196.982 14.0875 196.849 13.8635 196.751C13.6441 196.653 13.4085 196.604 13.1565 196.604C12.9045 196.604 12.6665 196.653 12.4425 196.751C12.2185 196.849 12.0225 196.982 11.8545 197.15C11.6911 197.318 11.5605 197.516 11.4625 197.745C11.3691 197.974 11.3225 198.216 11.3225 198.473ZM22.4242 195.946C22.2562 196.389 22.0766 196.856 21.8852 197.346C21.6986 197.831 21.5119 198.31 21.3252 198.781C21.1432 199.252 20.9706 199.7 20.8072 200.125C20.6439 200.55 20.5062 200.916 20.3942 201.224L19.2602 198.389C19.2462 198.352 19.2346 198.324 19.2252 198.305C19.2159 198.286 19.2066 198.258 19.1972 198.221C19.1972 198.24 19.1949 198.258 19.1902 198.277C19.1856 198.291 19.1809 198.307 19.1762 198.326C19.1716 198.345 19.1669 198.363 19.1622 198.382C19.0036 198.746 18.8472 199.103 18.6932 199.453C18.6279 199.602 18.5602 199.756 18.4902 199.915C18.4202 200.074 18.3526 200.232 18.2872 200.391C18.2219 200.545 18.1566 200.694 18.0912 200.839C18.0306 200.984 17.9746 201.114 17.9232 201.231C17.5872 200.349 17.2489 199.469 16.9082 198.592C16.5676 197.715 16.2292 196.833 15.8932 195.946H16.7542C16.8662 196.254 16.9806 196.564 17.0972 196.877C17.2186 197.19 17.3306 197.491 17.4332 197.78C17.5406 198.069 17.6362 198.338 17.7202 198.585C17.8042 198.832 17.8696 199.042 17.9162 199.215L17.9722 199.46C17.9769 199.437 17.9886 199.399 18.0072 199.348C18.0259 199.292 18.0399 199.252 18.0492 199.229C18.0539 199.21 18.0702 199.168 18.0982 199.103C18.1262 199.038 18.1589 198.961 18.1962 198.872C18.2336 198.779 18.2756 198.678 18.3222 198.571C18.3689 198.464 18.4156 198.354 18.4622 198.242C18.5742 197.985 18.6979 197.701 18.8332 197.388C18.7539 197.169 18.6839 196.963 18.6232 196.772C18.5672 196.609 18.5136 196.448 18.4622 196.289C18.4156 196.13 18.3806 196.016 18.3572 195.946H19.0922C19.2929 196.473 19.4796 196.961 19.6522 197.409C19.7222 197.6 19.7922 197.792 19.8622 197.983C19.9369 198.174 20.0046 198.352 20.0652 198.515C20.1306 198.678 20.1866 198.823 20.2332 198.949C20.2799 199.07 20.3126 199.159 20.3312 199.215C20.3452 199.257 20.3546 199.299 20.3592 199.341C20.3686 199.378 20.3779 199.418 20.3872 199.46C20.3966 199.418 20.4036 199.376 20.4082 199.334C20.4176 199.292 20.4269 199.252 20.4362 199.215C20.4782 199.033 20.5436 198.816 20.6322 198.564C20.7209 198.312 20.8189 198.041 20.9262 197.752C21.0382 197.463 21.1549 197.164 21.2762 196.856C21.3976 196.543 21.5142 196.24 21.6262 195.946H22.4242ZM27.5569 195.925V201.231C27.4916 201.147 27.3656 201.012 27.1789 200.825C26.9923 200.638 26.7776 200.424 26.5349 200.181C26.2923 199.938 26.0333 199.684 25.7579 199.418C25.4873 199.152 25.2306 198.9 24.9879 198.662C24.7453 198.419 24.5329 198.205 24.3509 198.018C24.1689 197.827 24.0476 197.691 23.9869 197.612L23.8539 197.43L23.8749 197.654V201H23.1049V195.687C23.1563 195.752 23.2403 195.846 23.3569 195.967C23.4783 196.088 23.6183 196.231 23.7769 196.394C23.9403 196.553 24.1176 196.725 24.3089 196.912C24.5049 197.099 24.7009 197.288 24.8969 197.479C25.0976 197.67 25.2936 197.859 25.4849 198.046C25.6809 198.228 25.8583 198.398 26.0169 198.557C26.1803 198.716 26.3203 198.856 26.4369 198.977C26.5536 199.098 26.6353 199.189 26.6819 199.25L26.8149 199.446L26.7939 199.208V195.925H27.5569Z" fill="#C4C4C4"/>
<circle cx="15" cy="172" r="9.5" fill="#616161" stroke="#C4C4C4"/>
<path d="M15 164L21.9282 168V176L15 180L8.0718 176V168L15 164Z" fill="#A5A5A5"/>
<circle cx="15" cy="172" r="5.5" fill="black" stroke="#E5E5E5"/>
</svg>
