<svg width="31" height="386" viewBox="0 0 31 386" fill="none" xmlns="http://www.w3.org/2000/svg">
<rect x="0.5" y="0.5" width="29.48" height="384.5" fill="#333333" stroke="#161616"/>
<path d="M1.21638 376V371.65H2.40438C2.63238 371.65 2.84038 371.68 3.02838 371.74C3.22038 371.8 3.38438 371.89 3.52038 372.01C3.66038 372.126 3.76838 372.27 3.84438 372.442C3.92038 372.61 3.95838 372.804 3.95838 373.024C3.95838 373.144 3.94638 373.264 3.92238 373.384C3.89838 373.5 3.85838 373.614 3.80238 373.726C3.75038 373.834 3.68238 373.936 3.59838 374.032C3.51438 374.124 3.41238 374.202 3.29238 374.266C3.45238 374.518 3.62638 374.798 3.81438 375.106C4.00238 375.41 4.19238 375.708 4.38438 376H3.59838C3.51838 375.876 3.43438 375.746 3.34638 375.61C3.26238 375.474 3.17638 375.34 3.08838 375.208C3.00438 375.072 2.92038 374.94 2.83638 374.812C2.75638 374.68 2.68038 374.558 2.60838 374.446H2.48838H1.87638V376H1.21638ZM1.87638 373.828H2.47038C2.63038 373.828 2.76438 373.802 2.87238 373.75C2.98038 373.694 3.06438 373.626 3.12438 373.546C3.18838 373.466 3.23238 373.38 3.25638 373.288C3.28438 373.196 3.29838 373.112 3.29838 373.036C3.29838 372.96 3.28438 372.878 3.25638 372.79C3.23238 372.698 3.18838 372.614 3.12438 372.538C3.06038 372.458 2.97438 372.392 2.86638 372.34C2.76238 372.288 2.63238 372.262 2.47638 372.262H1.87638V373.828ZM7.67796 376C7.65796 375.956 7.62996 375.892 7.59396 375.808C7.55796 375.724 7.51596 375.628 7.46796 375.52C7.42396 375.408 7.37396 375.288 7.31796 375.16C7.26596 375.028 7.21196 374.892 7.15596 374.752H5.61996L5.10396 376H4.45596L6.39396 371.446C6.41796 371.502 6.45996 371.604 6.51996 371.752C6.58396 371.9 6.65796 372.078 6.74196 372.286C6.82996 372.49 6.92596 372.718 7.02996 372.97C7.13796 373.218 7.24596 373.47 7.35396 373.726C7.46596 373.982 7.57396 374.234 7.67796 374.482C7.78596 374.73 7.88396 374.958 7.97196 375.166C8.05996 375.374 8.13396 375.552 8.19396 375.7C8.25796 375.844 8.30196 375.944 8.32596 376H7.67796ZM5.84796 374.2H6.93396C6.87796 374.068 6.82396 373.942 6.77196 373.822C6.72396 373.698 6.67796 373.586 6.63396 373.486C6.59396 373.382 6.55796 373.292 6.52596 373.216C6.49396 373.14 6.46996 373.08 6.45396 373.036C6.44996 373.028 6.43996 373 6.42396 372.952C6.41196 372.904 6.40196 372.86 6.39396 372.82C6.38596 372.86 6.37396 372.904 6.35796 372.952C6.34196 373 6.33196 373.028 6.32796 373.036L5.84796 374.2ZM11.9327 375.688C11.8847 375.724 11.8167 375.764 11.7287 375.808C11.6447 375.848 11.5447 375.886 11.4287 375.922C11.3127 375.958 11.1827 375.988 11.0387 376.012C10.8987 376.036 10.7487 376.048 10.5887 376.048C10.2487 376.048 9.94266 375.99 9.67066 375.874C9.40266 375.754 9.17466 375.594 8.98666 375.394C8.79866 375.194 8.65466 374.962 8.55466 374.698C8.45466 374.434 8.40466 374.154 8.40466 373.858C8.40466 373.53 8.46266 373.228 8.57866 372.952C8.69866 372.676 8.86066 372.438 9.06466 372.238C9.26866 372.038 9.50666 371.882 9.77866 371.77C10.0547 371.658 10.3467 371.602 10.6547 371.602C10.7707 371.602 10.8887 371.61 11.0087 371.626C11.1287 371.642 11.2407 371.664 11.3447 371.692C11.4527 371.72 11.5467 371.754 11.6267 371.794C11.7107 371.83 11.7747 371.868 11.8187 371.908C11.7867 371.956 11.7607 371.996 11.7407 372.028C11.7247 372.06 11.7067 372.094 11.6867 372.13C11.6667 372.162 11.6447 372.2 11.6207 372.244C11.5967 372.288 11.5647 372.346 11.5247 372.418C11.4727 372.382 11.4107 372.352 11.3387 372.328C11.2707 372.304 11.1987 372.284 11.1227 372.268C11.0467 372.252 10.9687 372.24 10.8887 372.232C10.8127 372.224 10.7427 372.22 10.6787 372.22C10.4467 372.22 10.2307 372.264 10.0307 372.352C9.83466 372.436 9.66466 372.552 9.52066 372.7C9.37666 372.844 9.26266 373.012 9.17866 373.204C9.09866 373.396 9.05866 373.596 9.05866 373.804C9.05866 374.008 9.09666 374.204 9.17266 374.392C9.25266 374.58 9.36066 374.748 9.49666 374.896C9.63666 375.044 9.80266 375.162 9.99466 375.25C10.1907 375.338 10.4047 375.382 10.6367 375.382C10.7607 375.382 10.8807 375.37 10.9967 375.346C11.1127 375.322 11.2167 375.294 11.3087 375.262C11.4047 375.23 11.4827 375.198 11.5427 375.166C11.6067 375.134 11.6447 375.11 11.6567 375.094L11.9327 375.688ZM15.1108 376C14.9708 375.82 14.8368 375.648 14.7088 375.484C14.5808 375.32 14.4548 375.156 14.3308 374.992C14.2068 374.828 14.0808 374.662 13.9528 374.494C13.8288 374.326 13.6968 374.152 13.5568 373.972C13.5048 374.028 13.4548 374.08 13.4068 374.128C13.3588 374.172 13.3068 374.218 13.2508 374.266C13.2508 374.574 13.2508 374.864 13.2508 375.136C13.2548 375.404 13.2568 375.692 13.2568 376H12.5308V371.65H13.2568V373.276C13.2568 373.312 13.2528 373.348 13.2448 373.384C13.2408 373.416 13.2388 373.45 13.2388 373.486C13.2588 373.458 13.2788 373.434 13.2988 373.414C13.3188 373.39 13.3388 373.362 13.3588 373.33C13.6428 373.062 13.9168 372.784 14.1808 372.496C14.4448 372.204 14.7188 371.922 15.0028 371.65H15.8368C15.5368 371.962 15.2388 372.276 14.9428 372.592C14.6508 372.908 14.3548 373.222 14.0548 373.534C14.2228 373.75 14.3828 373.96 14.5348 374.164C14.6908 374.364 14.8428 374.564 14.9908 374.764C15.1428 374.964 15.2948 375.166 15.4468 375.37C15.5988 375.574 15.7568 375.784 15.9208 376H15.1108ZM16.4156 376V371.65H17.0756V375.376H19.2356V376H16.4156ZM19.8433 376V371.65H22.6993V372.244H20.5033V373.516H22.4593V374.122H20.5033V375.394H22.7833V376H19.8433ZM26.0365 371.89L25.8025 372.424C25.6385 372.364 25.4745 372.316 25.3105 372.28C25.1505 372.244 24.9965 372.226 24.8485 372.226C24.5965 372.226 24.3945 372.278 24.2425 372.382C24.0945 372.486 24.0205 372.618 24.0205 372.778C24.0205 372.914 24.0745 373.024 24.1825 373.108C24.2905 373.188 24.4245 373.262 24.5845 373.33C24.7445 373.394 24.9185 373.46 25.1065 373.528C25.2945 373.592 25.4685 373.676 25.6285 373.78C25.7885 373.884 25.9225 374.016 26.0305 374.176C26.1385 374.332 26.1925 374.534 26.1925 374.782C26.1925 374.974 26.1565 375.148 26.0845 375.304C26.0165 375.456 25.9125 375.588 25.7725 375.7C25.6365 375.812 25.4645 375.898 25.2565 375.958C25.0525 376.018 24.8125 376.048 24.5365 376.048C24.3605 376.048 24.2005 376.036 24.0565 376.012C23.9165 375.988 23.7885 375.958 23.6725 375.922C23.5605 375.882 23.4605 375.84 23.3725 375.796C23.2885 375.752 23.2165 375.712 23.1565 375.676L23.4445 375.106C23.6045 375.198 23.7825 375.272 23.9785 375.328C24.1745 375.384 24.3525 375.412 24.5125 375.412C24.5925 375.412 24.6905 375.402 24.8065 375.382C24.9265 375.362 25.0405 375.328 25.1485 375.28C25.2565 375.228 25.3485 375.16 25.4245 375.076C25.5045 374.992 25.5445 374.886 25.5445 374.758C25.5445 374.642 25.5125 374.544 25.4485 374.464C25.3885 374.38 25.3065 374.308 25.2025 374.248C25.1025 374.184 24.9865 374.128 24.8545 374.08C24.7265 374.028 24.5945 373.976 24.4585 373.924C24.3225 373.868 24.1885 373.81 24.0565 373.75C23.9285 373.69 23.8125 373.618 23.7085 373.534C23.6085 373.446 23.5265 373.346 23.4625 373.234C23.4025 373.118 23.3725 372.98 23.3725 372.82C23.3725 372.672 23.4025 372.526 23.4625 372.382C23.5225 372.238 23.6125 372.11 23.7325 371.998C23.8525 371.886 24.0005 371.796 24.1765 371.728C24.3565 371.66 24.5645 371.626 24.8005 371.626C24.9445 371.626 25.0845 371.638 25.2205 371.662C25.3605 371.686 25.4865 371.714 25.5985 371.746C25.7105 371.774 25.8045 371.802 25.8805 371.83C25.9605 371.858 26.0125 371.878 26.0365 371.89ZM29.429 371.89L29.195 372.424C29.031 372.364 28.867 372.316 28.703 372.28C28.543 372.244 28.389 372.226 28.241 372.226C27.989 372.226 27.787 372.278 27.635 372.382C27.487 372.486 27.413 372.618 27.413 372.778C27.413 372.914 27.467 373.024 27.575 373.108C27.683 373.188 27.817 373.262 27.977 373.33C28.137 373.394 28.311 373.46 28.499 373.528C28.687 373.592 28.861 373.676 29.021 373.78C29.181 373.884 29.315 374.016 29.423 374.176C29.531 374.332 29.585 374.534 29.585 374.782C29.585 374.974 29.549 375.148 29.477 375.304C29.409 375.456 29.305 375.588 29.165 375.7C29.029 375.812 28.857 375.898 28.649 375.958C28.445 376.018 28.205 376.048 27.929 376.048C27.753 376.048 27.593 376.036 27.449 376.012C27.309 375.988 27.181 375.958 27.065 375.922C26.953 375.882 26.853 375.84 26.765 375.796C26.681 375.752 26.609 375.712 26.549 375.676L26.837 375.106C26.997 375.198 27.175 375.272 27.371 375.328C27.567 375.384 27.745 375.412 27.905 375.412C27.985 375.412 28.083 375.402 28.199 375.382C28.319 375.362 28.433 375.328 28.541 375.28C28.649 375.228 28.741 375.16 28.817 375.076C28.897 374.992 28.937 374.886 28.937 374.758C28.937 374.642 28.905 374.544 28.841 374.464C28.781 374.38 28.699 374.308 28.595 374.248C28.495 374.184 28.379 374.128 28.247 374.08C28.119 374.028 27.987 373.976 27.851 373.924C27.715 373.868 27.581 373.81 27.449 373.75C27.321 373.69 27.205 373.618 27.101 373.534C27.001 373.446 26.919 373.346 26.855 373.234C26.795 373.118 26.765 372.98 26.765 372.82C26.765 372.672 26.795 372.526 26.855 372.382C26.915 372.238 27.005 372.11 27.125 371.998C27.245 371.886 27.393 371.796 27.569 371.728C27.749 371.66 27.957 371.626 28.193 371.626C28.337 371.626 28.477 371.638 28.613 371.662C28.753 371.686 28.879 371.714 28.991 371.746C29.103 371.774 29.197 371.802 29.273 371.83C29.353 371.858 29.405 371.878 29.429 371.89Z" fill="#C4C4C4"/>
<rect y="300" width="30.48" height="45" fill="#161616"/>
<path d="M7.97547 339.466C7.97547 339.116 8.04314 338.785 8.17847 338.472C8.31381 338.155 8.49814 337.877 8.73147 337.639C8.96947 337.401 9.24481 337.214 9.55747 337.079C9.87014 336.939 10.2061 336.869 10.5655 336.869C10.9201 336.869 11.2538 336.939 11.5665 337.079C11.8838 337.214 12.1591 337.401 12.3925 337.639C12.6305 337.877 12.8171 338.155 12.9525 338.472C13.0925 338.785 13.1625 339.116 13.1625 339.466C13.1625 339.825 13.0925 340.161 12.9525 340.474C12.8171 340.787 12.6305 341.062 12.3925 341.3C12.1591 341.533 11.8838 341.718 11.5665 341.853C11.2538 341.988 10.9201 342.056 10.5655 342.056C10.2061 342.056 9.87014 341.988 9.55747 341.853C9.24481 341.718 8.96947 341.533 8.73147 341.3C8.49814 341.062 8.31381 340.787 8.17847 340.474C8.04314 340.161 7.97547 339.825 7.97547 339.466ZM8.73847 339.473C8.73847 339.73 8.78514 339.972 8.87847 340.201C8.97647 340.425 9.10947 340.621 9.27747 340.789C9.44547 340.957 9.64147 341.09 9.86547 341.188C10.0895 341.286 10.3275 341.335 10.5795 341.335C10.8315 341.335 11.0671 341.286 11.2865 341.188C11.5105 341.09 11.7041 340.957 11.8675 340.789C12.0355 340.621 12.1661 340.425 12.2595 340.201C12.3575 339.972 12.4065 339.727 12.4065 339.466C12.4065 339.209 12.3575 338.969 12.2595 338.745C12.1661 338.516 12.0355 338.318 11.8675 338.15C11.6995 337.982 11.5035 337.849 11.2795 337.751C11.0601 337.653 10.8245 337.604 10.5725 337.604C10.3205 337.604 10.0825 337.653 9.85847 337.751C9.63447 337.849 9.43847 337.982 9.27047 338.15C9.10714 338.318 8.97647 338.516 8.87847 338.745C8.78514 338.974 8.73847 339.216 8.73847 339.473ZM15.9302 342.056C15.6595 342.056 15.4075 342.012 15.1742 341.923C14.9408 341.834 14.7355 341.711 14.5582 341.552C14.3855 341.389 14.2478 341.195 14.1452 340.971C14.0472 340.742 13.9982 340.488 13.9982 340.208V336.925H14.7682V340.187C14.7682 340.35 14.7962 340.502 14.8522 340.642C14.9128 340.777 14.9945 340.899 15.0972 341.006C15.2045 341.109 15.3282 341.19 15.4682 341.251C15.6082 341.307 15.7622 341.335 15.9302 341.335C16.0935 341.335 16.2452 341.307 16.3852 341.251C16.5298 341.19 16.6535 341.109 16.7562 341.006C16.8635 340.899 16.9475 340.777 17.0082 340.642C17.0688 340.502 17.0992 340.35 17.0992 340.187V336.925H17.8692V340.208C17.8692 340.488 17.8178 340.742 17.7152 340.971C17.6172 341.195 17.4795 341.389 17.3022 341.552C17.1295 341.711 16.9242 341.834 16.6862 341.923C16.4528 342.012 16.2008 342.056 15.9302 342.056ZM22.0121 336.925V337.653H20.7311V342H19.9681V337.653H18.7151V336.925H22.0121Z" fill="#C4C4C4"/>
<circle cx="14" cy="313" r="9.5" fill="#616161" stroke="#C4C4C4"/>
<path d="M14 305L20.9282 309V317L14 321L7.0718 317V309L14 305Z" fill="#A5A5A5"/>
<circle cx="14" cy="313" r="5.5" fill="black" stroke="#E5E5E5"/>
<path d="M4.98259 234.205L4.70959 234.828C4.51826 234.758 4.32692 234.702 4.13559 234.66C3.94892 234.618 3.76926 234.597 3.59659 234.597C3.30259 234.597 3.06692 234.658 2.88959 234.779C2.71692 234.9 2.63059 235.054 2.63059 235.241C2.63059 235.4 2.69359 235.528 2.81959 235.626C2.94559 235.719 3.10192 235.806 3.28859 235.885C3.47526 235.96 3.67826 236.037 3.89759 236.116C4.11692 236.191 4.31992 236.289 4.50659 236.41C4.69326 236.531 4.84959 236.685 4.97559 236.872C5.10159 237.054 5.16459 237.29 5.16459 237.579C5.16459 237.803 5.12259 238.006 5.03859 238.188C4.95926 238.365 4.83792 238.519 4.67459 238.65C4.51592 238.781 4.31526 238.881 4.07259 238.951C3.83459 239.021 3.55459 239.056 3.23259 239.056C3.02726 239.056 2.84059 239.042 2.67259 239.014C2.50926 238.986 2.35992 238.951 2.22459 238.909C2.09392 238.862 1.97726 238.813 1.87459 238.762C1.77659 238.711 1.69259 238.664 1.62259 238.622L1.95859 237.957C2.14526 238.064 2.35292 238.151 2.58159 238.216C2.81026 238.281 3.01792 238.314 3.20459 238.314C3.29792 238.314 3.41226 238.302 3.54759 238.279C3.68759 238.256 3.82059 238.216 3.94659 238.16C4.07259 238.099 4.17992 238.02 4.26859 237.922C4.36192 237.824 4.40859 237.7 4.40859 237.551C4.40859 237.416 4.37126 237.301 4.29659 237.208C4.22659 237.11 4.13092 237.026 4.00959 236.956C3.89292 236.881 3.75759 236.816 3.60359 236.76C3.45426 236.699 3.30026 236.639 3.14159 236.578C2.98292 236.513 2.82659 236.445 2.67259 236.375C2.52326 236.305 2.38792 236.221 2.26659 236.123C2.14992 236.02 2.05426 235.904 1.97959 235.773C1.90959 235.638 1.87459 235.477 1.87459 235.29C1.87459 235.117 1.90959 234.947 1.97959 234.779C2.04959 234.611 2.15459 234.462 2.29459 234.331C2.43459 234.2 2.60726 234.095 2.81259 234.016C3.02259 233.937 3.26526 233.897 3.54059 233.897C3.70859 233.897 3.87192 233.911 4.03059 233.939C4.19392 233.967 4.34092 234 4.47159 234.037C4.60226 234.07 4.71192 234.102 4.80059 234.135C4.89392 234.168 4.95459 234.191 4.98259 234.205ZM9.08973 239C9.0664 238.949 9.03373 238.874 8.99173 238.776C8.94973 238.678 8.90073 238.566 8.84473 238.44C8.7934 238.309 8.73506 238.169 8.66973 238.02C8.60906 237.866 8.54606 237.707 8.48073 237.544H6.68873L6.08673 239H5.33073L7.59173 233.687C7.61973 233.752 7.66873 233.871 7.73873 234.044C7.8134 234.217 7.89973 234.424 7.99773 234.667C8.1004 234.905 8.2124 235.171 8.33373 235.465C8.45973 235.754 8.58573 236.048 8.71173 236.347C8.8424 236.646 8.9684 236.94 9.08973 237.229C9.21573 237.518 9.33006 237.784 9.43273 238.027C9.5354 238.27 9.62173 238.477 9.69173 238.65C9.7664 238.818 9.81773 238.935 9.84573 239H9.08973ZM6.95473 236.9H8.22173C8.1564 236.746 8.0934 236.599 8.03273 236.459C7.97673 236.314 7.92306 236.184 7.87173 236.067C7.82506 235.946 7.78306 235.841 7.74573 235.752C7.7084 235.663 7.6804 235.593 7.66173 235.542C7.65706 235.533 7.6454 235.5 7.62673 235.444C7.61273 235.388 7.60106 235.337 7.59173 235.29C7.5824 235.337 7.5684 235.388 7.54973 235.444C7.53106 235.5 7.5194 235.533 7.51473 235.542L6.95473 236.9ZM10.479 233.701C10.521 233.766 10.6073 233.892 10.738 234.079C10.8733 234.261 11.0273 234.473 11.2 234.716C11.3773 234.959 11.564 235.218 11.76 235.493C11.956 235.764 12.1403 236.02 12.313 236.263C12.4856 236.501 12.635 236.709 12.761 236.886C12.8916 237.063 12.978 237.18 13.02 237.236C13.034 237.213 13.0783 237.15 13.153 237.047C13.2276 236.944 13.3186 236.816 13.426 236.662C13.538 236.508 13.664 236.335 13.804 236.144C13.944 235.948 14.0863 235.75 14.231 235.549C14.3803 235.344 14.525 235.141 14.665 234.94C14.8096 234.739 14.9426 234.557 15.064 234.394C15.1853 234.226 15.288 234.081 15.372 233.96C15.4606 233.834 15.5236 233.748 15.561 233.701V239H14.749V236.158C14.749 236.121 14.7513 236.081 14.756 236.039C14.7653 235.997 14.77 235.967 14.77 235.948C14.728 236.004 14.6603 236.1 14.567 236.235C14.4783 236.366 14.3733 236.517 14.252 236.69C14.1353 236.858 14.0116 237.038 13.881 237.229C13.7503 237.416 13.6266 237.593 13.51 237.761C13.3933 237.929 13.2906 238.078 13.202 238.209C13.1133 238.335 13.0526 238.424 13.02 238.475C12.9873 238.433 12.922 238.347 12.824 238.216C12.7306 238.081 12.6186 237.924 12.488 237.747C12.362 237.57 12.2266 237.381 12.082 237.18C11.942 236.979 11.8113 236.793 11.69 236.62C11.5686 236.447 11.4636 236.3 11.375 236.179C11.2863 236.053 11.235 235.976 11.221 235.948C11.221 235.967 11.2233 235.997 11.228 236.039C11.2373 236.081 11.242 236.121 11.242 236.158V239H10.479V233.701ZM17.579 236.466H18.272C18.4587 236.466 18.615 236.433 18.741 236.368C18.867 236.303 18.965 236.223 19.035 236.13C19.1097 236.037 19.161 235.936 19.189 235.829C19.2217 235.722 19.238 235.626 19.238 235.542C19.238 235.453 19.2217 235.358 19.189 235.255C19.161 235.148 19.1097 235.05 19.035 234.961C18.9604 234.868 18.86 234.791 18.734 234.73C18.6127 234.669 18.461 234.639 18.279 234.639H17.579V236.466ZM16.809 239V233.925H18.195C18.461 233.925 18.7037 233.96 18.923 234.03C19.147 234.1 19.3384 234.205 19.497 234.345C19.6604 234.48 19.7864 234.648 19.875 234.849C19.9637 235.045 20.008 235.271 20.008 235.528C20.008 235.729 19.9777 235.929 19.917 236.13C19.8564 236.326 19.7584 236.503 19.623 236.662C19.4877 236.816 19.3104 236.942 19.091 237.04C18.8717 237.138 18.6057 237.187 18.293 237.187H17.579V239H16.809ZM20.8491 239V233.925H21.6191V238.272H24.1391V239H20.8491ZM24.8481 239V233.925H28.1801V234.618H25.6181V236.102H27.9001V236.809H25.6181V238.293H28.2781V239H24.8481Z" fill="#C4C4C4"/>
<circle cx="15" cy="210" r="9.5" fill="#616161" stroke="#C4C4C4"/>
<path d="M15 202L21.9282 206V214L15 218L8.0718 214V206L15 202Z" fill="#A5A5A5"/>
<circle cx="15" cy="210" r="5.5" fill="black" stroke="#E5E5E5"/>
<path d="M5.61519 289V283.925H6.37819V286.081H8.91919V283.925H9.68919C9.68919 283.986 9.68919 284.1 9.68919 284.268C9.68919 284.431 9.68919 284.627 9.68919 284.856C9.68919 285.085 9.68919 285.339 9.68919 285.619C9.68919 285.894 9.68685 286.177 9.68219 286.466C9.68219 286.751 9.68219 287.033 9.68219 287.313C9.68219 287.588 9.68219 287.84 9.68219 288.069C9.68219 288.298 9.68219 288.496 9.68219 288.664C9.68219 288.827 9.68219 288.939 9.68219 289H8.91919V286.809H6.37819V289H5.61519ZM10.5765 286.466C10.5765 286.116 10.6442 285.785 10.7795 285.472C10.9149 285.155 11.0992 284.877 11.3325 284.639C11.5705 284.401 11.8459 284.214 12.1585 284.079C12.4712 283.939 12.8072 283.869 13.1665 283.869C13.5212 283.869 13.8549 283.939 14.1675 284.079C14.4849 284.214 14.7602 284.401 14.9935 284.639C15.2315 284.877 15.4182 285.155 15.5535 285.472C15.6935 285.785 15.7635 286.116 15.7635 286.466C15.7635 286.825 15.6935 287.161 15.5535 287.474C15.4182 287.787 15.2315 288.062 14.9935 288.3C14.7602 288.533 14.4849 288.718 14.1675 288.853C13.8549 288.988 13.5212 289.056 13.1665 289.056C12.8072 289.056 12.4712 288.988 12.1585 288.853C11.8459 288.718 11.5705 288.533 11.3325 288.3C11.0992 288.062 10.9149 287.787 10.7795 287.474C10.6442 287.161 10.5765 286.825 10.5765 286.466ZM11.3395 286.473C11.3395 286.73 11.3862 286.972 11.4795 287.201C11.5775 287.425 11.7105 287.621 11.8785 287.789C12.0465 287.957 12.2425 288.09 12.4665 288.188C12.6905 288.286 12.9285 288.335 13.1805 288.335C13.4325 288.335 13.6682 288.286 13.8875 288.188C14.1115 288.09 14.3052 287.957 14.4685 287.789C14.6365 287.621 14.7672 287.425 14.8605 287.201C14.9585 286.972 15.0075 286.727 15.0075 286.466C15.0075 286.209 14.9585 285.969 14.8605 285.745C14.7672 285.516 14.6365 285.318 14.4685 285.15C14.3005 284.982 14.1045 284.849 13.8805 284.751C13.6612 284.653 13.4255 284.604 13.1735 284.604C12.9215 284.604 12.6835 284.653 12.4595 284.751C12.2355 284.849 12.0395 284.982 11.8715 285.15C11.7082 285.318 11.5775 285.516 11.4795 285.745C11.3862 285.974 11.3395 286.216 11.3395 286.473ZM16.6552 289V283.925H17.4252V288.272H19.9452V289H16.6552ZM20.6543 283.925H21.9283C22.4416 283.925 22.8756 284.002 23.2303 284.156C23.5849 284.31 23.8719 284.513 24.0913 284.765C24.3153 285.012 24.4763 285.292 24.5743 285.605C24.6769 285.913 24.7283 286.221 24.7283 286.529C24.7283 286.907 24.6606 287.25 24.5253 287.558C24.3899 287.861 24.2056 288.12 23.9723 288.335C23.7389 288.55 23.4683 288.715 23.1603 288.832C22.8523 288.944 22.5256 289 22.1803 289H20.6543V283.925ZM22.0683 288.272C22.3389 288.272 22.5886 288.232 22.8173 288.153C23.0506 288.074 23.2513 287.959 23.4193 287.81C23.5919 287.656 23.7249 287.469 23.8183 287.25C23.9163 287.026 23.9653 286.769 23.9653 286.48C23.9653 286.172 23.9116 285.904 23.8043 285.675C23.6969 285.446 23.5569 285.257 23.3843 285.108C23.2116 284.954 23.0156 284.842 22.7963 284.772C22.5816 284.697 22.3623 284.66 22.1383 284.66H21.4173V288.272H22.0683Z" fill="#C4C4C4"/>
<circle cx="15" cy="260" r="9.5" fill="#616161" stroke="#C4C4C4"/>
<path d="M15 252L21.9282 256V264L15 268L8.0718 264V256L15 252Z" fill="#A5A5A5"/>
<circle cx="15" cy="260" r="5.5" fill="black" stroke="#E5E5E5"/>
<rect y="140" width="30.48" height="45" fill="#161616"/>
<path d="M8.2514 179.466H8.9444C9.13107 179.466 9.2874 179.433 9.4134 179.368C9.5394 179.303 9.6374 179.223 9.7074 179.13C9.78207 179.037 9.8334 178.936 9.8614 178.829C9.89407 178.722 9.9104 178.626 9.9104 178.542C9.9104 178.453 9.89407 178.358 9.8614 178.255C9.8334 178.148 9.78207 178.05 9.7074 177.961C9.63273 177.868 9.5324 177.791 9.4064 177.73C9.28507 177.669 9.1334 177.639 8.9514 177.639H8.2514V179.466ZM7.4814 182V176.925H8.8674C9.1334 176.925 9.37607 176.96 9.5954 177.03C9.8194 177.1 10.0107 177.205 10.1694 177.345C10.3327 177.48 10.4587 177.648 10.5474 177.849C10.6361 178.045 10.6804 178.271 10.6804 178.528C10.6804 178.729 10.6501 178.929 10.5894 179.13C10.5287 179.326 10.4307 179.503 10.2954 179.662C10.1601 179.816 9.98273 179.942 9.7634 180.04C9.54407 180.138 9.27807 180.187 8.9654 180.187H8.2514V182H7.4814ZM11.5214 176.925H12.2844V182H11.5214V176.925ZM17.9832 176.925V182.231C17.9179 182.147 17.7919 182.012 17.6052 181.825C17.4185 181.638 17.2039 181.424 16.9612 181.181C16.7185 180.938 16.4595 180.684 16.1842 180.418C15.9135 180.152 15.6569 179.9 15.4142 179.662C15.1715 179.419 14.9592 179.205 14.7772 179.018C14.5952 178.827 14.4739 178.691 14.4132 178.612L14.2802 178.43L14.3012 178.654V182H13.5312V176.687C13.5825 176.752 13.6665 176.846 13.7832 176.967C13.9045 177.088 14.0445 177.231 14.2032 177.394C14.3665 177.553 14.5439 177.725 14.7352 177.912C14.9312 178.099 15.1272 178.288 15.3232 178.479C15.5239 178.67 15.7199 178.859 15.9112 179.046C16.1072 179.228 16.2845 179.398 16.4432 179.557C16.6065 179.716 16.7465 179.856 16.8632 179.977C16.9799 180.098 17.0615 180.189 17.1082 180.25L17.2412 180.446L17.2202 180.208V176.925H17.9832ZM22.2424 182C22.079 181.79 21.9227 181.589 21.7734 181.398C21.624 181.207 21.477 181.015 21.3324 180.824C21.1877 180.633 21.0407 180.439 20.8914 180.243C20.7467 180.047 20.5927 179.844 20.4294 179.634C20.3687 179.699 20.3104 179.76 20.2544 179.816C20.1984 179.867 20.1377 179.921 20.0724 179.977C20.0724 180.336 20.0724 180.675 20.0724 180.992C20.077 181.305 20.0794 181.641 20.0794 182H19.2324V176.925H20.0794V178.822C20.0794 178.864 20.0747 178.906 20.0654 178.948C20.0607 178.985 20.0584 179.025 20.0584 179.067C20.0817 179.034 20.105 179.006 20.1284 178.983C20.1517 178.955 20.175 178.922 20.1984 178.885C20.5297 178.572 20.8494 178.248 21.1574 177.912C21.4654 177.571 21.785 177.242 22.1164 176.925H23.0894C22.7394 177.289 22.3917 177.655 22.0464 178.024C21.7057 178.393 21.3604 178.759 21.0104 179.123C21.2064 179.375 21.393 179.62 21.5704 179.858C21.7524 180.091 21.9297 180.325 22.1024 180.558C22.2797 180.791 22.457 181.027 22.6344 181.265C22.8117 181.503 22.996 181.748 23.1874 182H22.2424Z" fill="#C4C4C4"/>
<circle cx="14" cy="153" r="9.5" fill="#616161" stroke="#C4C4C4"/>
<path d="M14 145L20.9282 149V157L14 161L7.0718 157V149L14 145Z" fill="#A5A5A5"/>
<circle cx="14" cy="153" r="5.5" fill="black" stroke="#E5E5E5"/>
<rect y="90" width="30.48" height="45" fill="#161616"/>
<path d="M3.20989 127.618V129.116H3.89589C4.14789 129.116 4.33689 129.041 4.46289 128.892C4.58889 128.743 4.65189 128.561 4.65189 128.346C4.65189 128.094 4.57489 127.91 4.42089 127.793C4.27156 127.676 4.07089 127.618 3.81889 127.618H3.20989ZM3.20989 129.767V131.307H3.92389C4.05923 131.307 4.18523 131.291 4.30189 131.258C4.42323 131.225 4.52823 131.179 4.61689 131.118C4.70556 131.053 4.77556 130.971 4.82689 130.873C4.87823 130.775 4.90389 130.661 4.90389 130.53C4.90389 130.385 4.87356 130.266 4.81289 130.173C4.75223 130.075 4.67056 129.996 4.56789 129.935C4.46989 129.874 4.35556 129.832 4.22489 129.809C4.09889 129.781 3.96823 129.767 3.83289 129.767H3.20989ZM2.43989 132V126.925H3.78389C4.03123 126.925 4.25523 126.951 4.45589 127.002C4.65656 127.049 4.82689 127.126 4.96689 127.233C5.10689 127.336 5.21423 127.471 5.28889 127.639C5.36823 127.802 5.40789 128.003 5.40789 128.241C5.40789 128.372 5.39389 128.5 5.36589 128.626C5.34256 128.752 5.30056 128.869 5.23989 128.976C5.18389 129.079 5.10689 129.17 5.00889 129.249C4.91556 129.328 4.79889 129.389 4.65889 129.431C4.78023 129.454 4.89923 129.494 5.01589 129.55C5.13723 129.606 5.24456 129.683 5.33789 129.781C5.43123 129.874 5.50589 129.991 5.56189 130.131C5.62256 130.271 5.65289 130.437 5.65289 130.628C5.65289 130.871 5.60623 131.078 5.51289 131.251C5.41956 131.424 5.29589 131.566 5.14189 131.678C4.98789 131.79 4.81056 131.872 4.60989 131.923C4.40923 131.974 4.20156 132 3.98689 132H2.43989ZM6.59614 132V126.925H7.98214C8.24814 126.925 8.49081 126.96 8.71014 127.03C8.93414 127.1 9.12548 127.205 9.28414 127.345C9.44748 127.48 9.57348 127.648 9.66214 127.849C9.75081 128.045 9.79514 128.271 9.79514 128.528C9.79514 128.668 9.78114 128.808 9.75314 128.948C9.72514 129.083 9.67848 129.216 9.61314 129.347C9.55248 129.473 9.47314 129.592 9.37514 129.704C9.27714 129.811 9.15814 129.902 9.01814 129.977C9.20481 130.271 9.40781 130.598 9.62714 130.957C9.84648 131.312 10.0681 131.659 10.2921 132H9.37514C9.28181 131.855 9.18381 131.704 9.08114 131.545C8.98314 131.386 8.88281 131.23 8.78014 131.076C8.68214 130.917 8.58414 130.763 8.48614 130.614C8.39281 130.46 8.30414 130.318 8.22014 130.187H8.08014H7.36614V132H6.59614ZM7.36614 129.466H8.05914C8.24581 129.466 8.40214 129.436 8.52814 129.375C8.65414 129.31 8.75214 129.23 8.82214 129.137C8.89681 129.044 8.94814 128.943 8.97614 128.836C9.00881 128.729 9.02514 128.631 9.02514 128.542C9.02514 128.453 9.00881 128.358 8.97614 128.255C8.94814 128.148 8.89681 128.05 8.82214 127.961C8.74748 127.868 8.64714 127.791 8.52114 127.73C8.39981 127.669 8.24814 127.639 8.06614 127.639H7.36614V129.466ZM10.5595 129.466C10.5595 129.116 10.6271 128.785 10.7625 128.472C10.8978 128.155 11.0821 127.877 11.3155 127.639C11.5535 127.401 11.8288 127.214 12.1415 127.079C12.4541 126.939 12.7901 126.869 13.1495 126.869C13.5041 126.869 13.8378 126.939 14.1505 127.079C14.4678 127.214 14.7431 127.401 14.9765 127.639C15.2145 127.877 15.4011 128.155 15.5365 128.472C15.6765 128.785 15.7465 129.116 15.7465 129.466C15.7465 129.825 15.6765 130.161 15.5365 130.474C15.4011 130.787 15.2145 131.062 14.9765 131.3C14.7431 131.533 14.4678 131.718 14.1505 131.853C13.8378 131.988 13.5041 132.056 13.1495 132.056C12.7901 132.056 12.4541 131.988 12.1415 131.853C11.8288 131.718 11.5535 131.533 11.3155 131.3C11.0821 131.062 10.8978 130.787 10.7625 130.474C10.6271 130.161 10.5595 129.825 10.5595 129.466ZM11.3225 129.473C11.3225 129.73 11.3691 129.972 11.4625 130.201C11.5605 130.425 11.6935 130.621 11.8615 130.789C12.0295 130.957 12.2255 131.09 12.4495 131.188C12.6735 131.286 12.9115 131.335 13.1635 131.335C13.4155 131.335 13.6511 131.286 13.8705 131.188C14.0945 131.09 14.2881 130.957 14.4515 130.789C14.6195 130.621 14.7501 130.425 14.8435 130.201C14.9415 129.972 14.9905 129.727 14.9905 129.466C14.9905 129.209 14.9415 128.969 14.8435 128.745C14.7501 128.516 14.6195 128.318 14.4515 128.15C14.2835 127.982 14.0875 127.849 13.8635 127.751C13.6441 127.653 13.4085 127.604 13.1565 127.604C12.9045 127.604 12.6665 127.653 12.4425 127.751C12.2185 127.849 12.0225 127.982 11.8545 128.15C11.6911 128.318 11.5605 128.516 11.4625 128.745C11.3691 128.974 11.3225 129.216 11.3225 129.473ZM22.4242 126.946C22.2562 127.389 22.0766 127.856 21.8852 128.346C21.6986 128.831 21.5119 129.31 21.3252 129.781C21.1432 130.252 20.9706 130.7 20.8072 131.125C20.6439 131.55 20.5062 131.916 20.3942 132.224L19.2602 129.389C19.2462 129.352 19.2346 129.324 19.2252 129.305C19.2159 129.286 19.2066 129.258 19.1972 129.221C19.1972 129.24 19.1949 129.258 19.1902 129.277C19.1856 129.291 19.1809 129.307 19.1762 129.326C19.1716 129.345 19.1669 129.363 19.1622 129.382C19.0036 129.746 18.8472 130.103 18.6932 130.453C18.6279 130.602 18.5602 130.756 18.4902 130.915C18.4202 131.074 18.3526 131.232 18.2872 131.391C18.2219 131.545 18.1566 131.694 18.0912 131.839C18.0306 131.984 17.9746 132.114 17.9232 132.231C17.5872 131.349 17.2489 130.469 16.9082 129.592C16.5676 128.715 16.2292 127.833 15.8932 126.946H16.7542C16.8662 127.254 16.9806 127.564 17.0972 127.877C17.2186 128.19 17.3306 128.491 17.4332 128.78C17.5406 129.069 17.6362 129.338 17.7202 129.585C17.8042 129.832 17.8696 130.042 17.9162 130.215L17.9722 130.46C17.9769 130.437 17.9886 130.399 18.0072 130.348C18.0259 130.292 18.0399 130.252 18.0492 130.229C18.0539 130.21 18.0702 130.168 18.0982 130.103C18.1262 130.038 18.1589 129.961 18.1962 129.872C18.2336 129.779 18.2756 129.678 18.3222 129.571C18.3689 129.464 18.4156 129.354 18.4622 129.242C18.5742 128.985 18.6979 128.701 18.8332 128.388C18.7539 128.169 18.6839 127.963 18.6232 127.772C18.5672 127.609 18.5136 127.448 18.4622 127.289C18.4156 127.13 18.3806 127.016 18.3572 126.946H19.0922C19.2929 127.473 19.4796 127.961 19.6522 128.409C19.7222 128.6 19.7922 128.792 19.8622 128.983C19.9369 129.174 20.0046 129.352 20.0652 129.515C20.1306 129.678 20.1866 129.823 20.2332 129.949C20.2799 130.07 20.3126 130.159 20.3312 130.215C20.3452 130.257 20.3546 130.299 20.3592 130.341C20.3686 130.378 20.3779 130.418 20.3872 130.46C20.3966 130.418 20.4036 130.376 20.4082 130.334C20.4176 130.292 20.4269 130.252 20.4362 130.215C20.4782 130.033 20.5436 129.816 20.6322 129.564C20.7209 129.312 20.8189 129.041 20.9262 128.752C21.0382 128.463 21.1549 128.164 21.2762 127.856C21.3976 127.543 21.5142 127.24 21.6262 126.946H22.4242ZM27.5569 126.925V132.231C27.4916 132.147 27.3656 132.012 27.1789 131.825C26.9923 131.638 26.7776 131.424 26.5349 131.181C26.2923 130.938 26.0333 130.684 25.7579 130.418C25.4873 130.152 25.2306 129.9 24.9879 129.662C24.7453 129.419 24.5329 129.205 24.3509 129.018C24.1689 128.827 24.0476 128.691 23.9869 128.612L23.8539 128.43L23.8749 128.654V132H23.1049V126.687C23.1563 126.752 23.2403 126.846 23.3569 126.967C23.4783 127.088 23.6183 127.231 23.7769 127.394C23.9403 127.553 24.1176 127.725 24.3089 127.912C24.5049 128.099 24.7009 128.288 24.8969 128.479C25.0976 128.67 25.2936 128.859 25.4849 129.046C25.6809 129.228 25.8583 129.398 26.0169 129.557C26.1803 129.716 26.3203 129.856 26.4369 129.977C26.5536 130.098 26.6353 130.189 26.6819 130.25L26.8149 130.446L26.7939 130.208V126.925H27.5569Z" fill="#C4C4C4"/>
<circle cx="15" cy="103" r="9.5" fill="#616161" stroke="#C4C4C4"/>
<path d="M15 95L21.9282 99V107L15 111L8.0718 107V99L15 95Z" fill="#A5A5A5"/>
<circle cx="15" cy="103" r="5.5" fill="black" stroke="#E5E5E5"/>
<rect y="40" width="30.48" height="45" fill="#161616"/>
<path d="M10.5092 76.946C10.3412 77.3893 10.1615 77.856 9.9702 78.346C9.78353 78.8313 9.59687 79.3097 9.4102 79.781C9.2282 80.2523 9.05553 80.7003 8.8922 81.125C8.72887 81.5497 8.5912 81.916 8.4792 82.224L7.3452 79.389C7.3312 79.3517 7.31953 79.3237 7.3102 79.305C7.30087 79.2863 7.29153 79.2583 7.2822 79.221C7.2822 79.2397 7.27987 79.2583 7.2752 79.277C7.27053 79.291 7.26587 79.3073 7.2612 79.326C7.25653 79.3447 7.25187 79.3633 7.2472 79.382C7.08853 79.746 6.9322 80.103 6.7782 80.453C6.71287 80.6023 6.6452 80.7563 6.5752 80.915C6.5052 81.0737 6.43753 81.2323 6.3722 81.391C6.30687 81.545 6.24153 81.6943 6.1762 81.839C6.11553 81.9837 6.05953 82.1143 6.0082 82.231C5.6722 81.349 5.33387 80.4693 4.9932 79.592C4.65253 78.7147 4.3142 77.8327 3.9782 76.946H4.8392C4.9512 77.254 5.06553 77.5643 5.1822 77.877C5.30353 78.1897 5.41553 78.4907 5.5182 78.78C5.62553 79.0693 5.7212 79.3377 5.8052 79.585C5.8892 79.8323 5.95453 80.0423 6.0012 80.215L6.0572 80.46C6.06187 80.4367 6.07353 80.3993 6.0922 80.348C6.11087 80.292 6.12487 80.2523 6.1342 80.229C6.13887 80.2103 6.1552 80.1683 6.1832 80.103C6.2112 80.0377 6.24387 79.9607 6.2812 79.872C6.31853 79.7787 6.36053 79.6783 6.4072 79.571C6.45387 79.4637 6.50053 79.354 6.5472 79.242C6.6592 78.9853 6.78287 78.7007 6.9182 78.388C6.83887 78.1687 6.76887 77.9633 6.7082 77.772C6.6522 77.6087 6.59853 77.4477 6.5472 77.289C6.50053 77.1303 6.46553 77.016 6.4422 76.946H7.1772C7.37787 77.4733 7.56453 77.961 7.7372 78.409C7.8072 78.6003 7.8772 78.7917 7.9472 78.983C8.02187 79.1743 8.08953 79.3517 8.1502 79.515C8.21553 79.6783 8.27153 79.823 8.3182 79.949C8.36487 80.0703 8.39753 80.159 8.4162 80.215C8.4302 80.257 8.43953 80.299 8.4442 80.341C8.45353 80.3783 8.46287 80.418 8.4722 80.46C8.48153 80.418 8.48853 80.376 8.4932 80.334C8.50253 80.292 8.51187 80.2523 8.5212 80.215C8.5632 80.033 8.62853 79.816 8.7172 79.564C8.80587 79.312 8.90387 79.0413 9.0112 78.752C9.1232 78.4627 9.23987 78.164 9.3612 77.856C9.48253 77.5433 9.5992 77.24 9.7112 76.946H10.5092ZM11.1899 82V76.925H11.9529V79.081H14.4939V76.925H15.2639C15.2639 76.9857 15.2639 77.1 15.2639 77.268C15.2639 77.4313 15.2639 77.6273 15.2639 77.856C15.2639 78.0847 15.2639 78.339 15.2639 78.619C15.2639 78.8943 15.2616 79.1767 15.2569 79.466C15.2569 79.7507 15.2569 80.033 15.2569 80.313C15.2569 80.5883 15.2569 80.8403 15.2569 81.069C15.2569 81.2977 15.2569 81.496 15.2569 81.664C15.2569 81.8273 15.2569 81.9393 15.2569 82H14.4939V79.809H11.9529V82H11.1899ZM16.5083 76.925H17.2713V82H16.5083V76.925ZM21.472 76.925V77.653H20.191V82H19.428V77.653H18.175V76.925H21.472ZM22.3735 82V76.925H25.7055V77.618H23.1435V79.102H25.4255V79.809H23.1435V81.293H25.8035V82H22.3735Z" fill="#C4C4C4"/>
<circle cx="15" cy="53" r="9.5" fill="#616161" stroke="#C4C4C4"/>
<path d="M15 45L21.9282 49V57L15 61L8.0718 57V49L15 45Z" fill="#A5A5A5"/>
<circle cx="15" cy="53" r="5.5" fill="black" stroke="#E5E5E5"/>
<path d="M7.80797 14.475V21.297C7.72397 21.189 7.56197 21.015 7.32197 20.775C7.08197 20.535 6.80597 20.259 6.49397 19.947C6.18197 19.635 5.84897 19.308 5.49497 18.966C5.14697 18.624 4.81697 18.3 4.50497 17.994C4.19297 17.682 3.91997 17.406 3.68597 17.166C3.45197 16.92 3.29597 16.746 3.21797 16.644L3.04697 16.41L3.07397 16.698V21H2.08397V14.169C2.14997 14.253 2.25797 14.373 2.40797 14.529C2.56397 14.685 2.74397 14.868 2.94797 15.078C3.15797 15.282 3.38597 15.504 3.63197 15.744C3.88397 15.984 4.13597 16.227 4.38797 16.473C4.64597 16.719 4.89797 16.962 5.14397 17.202C5.39597 17.436 5.62397 17.655 5.82797 17.859C6.03797 18.063 6.21797 18.243 6.36797 18.399C6.51797 18.555 6.62297 18.672 6.68297 18.75L6.85397 19.002L6.82697 18.696V14.475H7.80797ZM8.95505 17.742C8.95505 17.292 9.04205 16.866 9.21605 16.464C9.39005 16.056 9.62705 15.699 9.92705 15.393C10.233 15.087 10.587 14.847 10.989 14.673C11.391 14.493 11.823 14.403 12.285 14.403C12.741 14.403 13.17 14.493 13.572 14.673C13.98 14.847 14.334 15.087 14.634 15.393C14.94 15.699 15.18 16.056 15.354 16.464C15.534 16.866 15.624 17.292 15.624 17.742C15.624 18.204 15.534 18.636 15.354 19.038C15.18 19.44 14.94 19.794 14.634 20.1C14.334 20.4 13.98 20.637 13.572 20.811C13.17 20.985 12.741 21.072 12.285 21.072C11.823 21.072 11.391 20.985 10.989 20.811C10.587 20.637 10.233 20.4 9.92705 20.1C9.62705 19.794 9.39005 19.44 9.21605 19.038C9.04205 18.636 8.95505 18.204 8.95505 17.742ZM9.93605 17.751C9.93605 18.081 9.99605 18.393 10.116 18.687C10.242 18.975 10.413 19.227 10.629 19.443C10.845 19.659 11.097 19.83 11.385 19.956C11.673 20.082 11.979 20.145 12.303 20.145C12.627 20.145 12.93 20.082 13.212 19.956C13.5 19.83 13.749 19.659 13.959 19.443C14.175 19.227 14.343 18.975 14.463 18.687C14.589 18.393 14.652 18.078 14.652 17.742C14.652 17.412 14.589 17.103 14.463 16.815C14.343 16.521 14.175 16.266 13.959 16.05C13.743 15.834 13.491 15.663 13.203 15.537C12.921 15.411 12.618 15.348 12.294 15.348C11.97 15.348 11.664 15.411 11.376 15.537C11.088 15.663 10.836 15.834 10.62 16.05C10.41 16.266 10.242 16.521 10.116 16.815C9.99605 17.109 9.93605 17.421 9.93605 17.751ZM16.7705 14.475H17.7515V21H16.7705V14.475ZM23.0895 14.835L22.7385 15.636C22.4925 15.546 22.2465 15.474 22.0005 15.42C21.7605 15.366 21.5295 15.339 21.3075 15.339C20.9295 15.339 20.6265 15.417 20.3985 15.573C20.1765 15.729 20.0655 15.927 20.0655 16.167C20.0655 16.371 20.1465 16.536 20.3085 16.662C20.4705 16.782 20.6715 16.893 20.9115 16.995C21.1515 17.091 21.4125 17.19 21.6945 17.292C21.9765 17.388 22.2375 17.514 22.4775 17.67C22.7175 17.826 22.9185 18.024 23.0805 18.264C23.2425 18.498 23.3235 18.801 23.3235 19.173C23.3235 19.461 23.2695 19.722 23.1615 19.956C23.0595 20.184 22.9035 20.382 22.6935 20.55C22.4895 20.718 22.2315 20.847 21.9195 20.937C21.6135 21.027 21.2535 21.072 20.8395 21.072C20.5755 21.072 20.3355 21.054 20.1195 21.018C19.9095 20.982 19.7175 20.937 19.5435 20.883C19.3755 20.823 19.2255 20.76 19.0935 20.694C18.9675 20.628 18.8595 20.568 18.7695 20.514L19.2015 19.659C19.4415 19.797 19.7085 19.908 20.0025 19.992C20.2965 20.076 20.5635 20.118 20.8035 20.118C20.9235 20.118 21.0705 20.103 21.2445 20.073C21.4245 20.043 21.5955 19.992 21.7575 19.92C21.9195 19.842 22.0575 19.74 22.1715 19.614C22.2915 19.488 22.3515 19.329 22.3515 19.137C22.3515 18.963 22.3035 18.816 22.2075 18.696C22.1175 18.57 21.9945 18.462 21.8385 18.372C21.6885 18.276 21.5145 18.192 21.3165 18.12C21.1245 18.042 20.9265 17.964 20.7225 17.886C20.5185 17.802 20.3175 17.715 20.1195 17.625C19.9275 17.535 19.7535 17.427 19.5975 17.301C19.4475 17.169 19.3245 17.019 19.2285 16.851C19.1385 16.677 19.0935 16.47 19.0935 16.23C19.0935 16.008 19.1385 15.789 19.2285 15.573C19.3185 15.357 19.4535 15.165 19.6335 14.997C19.8135 14.829 20.0355 14.694 20.2995 14.592C20.5695 14.49 20.8815 14.439 21.2355 14.439C21.4515 14.439 21.6615 14.457 21.8655 14.493C22.0755 14.529 22.2645 14.571 22.4325 14.619C22.6005 14.661 22.7415 14.703 22.8555 14.745C22.9755 14.787 23.0535 14.817 23.0895 14.835ZM24.4433 21V14.475H28.7273V15.366H25.4333V17.274H28.3673V18.183H25.4333V20.091H28.8533V21H24.4433Z" fill="#C4C4C4"/>
</svg>
