<svg width="61" height="386" viewBox="0 0 61 386" fill="none" xmlns="http://www.w3.org/2000/svg">
<rect x="0.5" y="0.5" width="59.94" height="384.5" fill="#333333" stroke="#161616"/>
<path d="M16.4464 376V371.65H17.6344C17.8624 371.65 18.0704 371.68 18.2584 371.74C18.4504 371.8 18.6144 371.89 18.7504 372.01C18.8904 372.126 18.9984 372.27 19.0744 372.442C19.1504 372.61 19.1884 372.804 19.1884 373.024C19.1884 373.144 19.1764 373.264 19.1524 373.384C19.1284 373.5 19.0884 373.614 19.0324 373.726C18.9804 373.834 18.9124 373.936 18.8284 374.032C18.7444 374.124 18.6424 374.202 18.5224 374.266C18.6824 374.518 18.8564 374.798 19.0444 375.106C19.2324 375.41 19.4224 375.708 19.6144 376H18.8284C18.7484 375.876 18.6644 375.746 18.5764 375.61C18.4924 375.474 18.4064 375.34 18.3184 375.208C18.2344 375.072 18.1504 374.94 18.0664 374.812C17.9864 374.68 17.9104 374.558 17.8384 374.446H17.7184H17.1064V376H16.4464ZM17.1064 373.828H17.7004C17.8604 373.828 17.9944 373.802 18.1024 373.75C18.2104 373.694 18.2944 373.626 18.3544 373.546C18.4184 373.466 18.4624 373.38 18.4864 373.288C18.5144 373.196 18.5284 373.112 18.5284 373.036C18.5284 372.96 18.5144 372.878 18.4864 372.79C18.4624 372.698 18.4184 372.614 18.3544 372.538C18.2904 372.458 18.2044 372.392 18.0964 372.34C17.9924 372.288 17.8624 372.262 17.7064 372.262H17.1064V373.828ZM22.908 376C22.888 375.956 22.86 375.892 22.824 375.808C22.788 375.724 22.746 375.628 22.698 375.52C22.654 375.408 22.604 375.288 22.548 375.16C22.496 375.028 22.442 374.892 22.386 374.752H20.85L20.334 376H19.686L21.624 371.446C21.648 371.502 21.69 371.604 21.75 371.752C21.814 371.9 21.888 372.078 21.972 372.286C22.06 372.49 22.156 372.718 22.26 372.97C22.368 373.218 22.476 373.47 22.584 373.726C22.696 373.982 22.804 374.234 22.908 374.482C23.016 374.73 23.114 374.958 23.202 375.166C23.29 375.374 23.364 375.552 23.424 375.7C23.488 375.844 23.532 375.944 23.556 376H22.908ZM21.078 374.2H22.164C22.108 374.068 22.054 373.942 22.002 373.822C21.954 373.698 21.908 373.586 21.864 373.486C21.824 373.382 21.788 373.292 21.756 373.216C21.724 373.14 21.7 373.08 21.684 373.036C21.68 373.028 21.67 373 21.654 372.952C21.642 372.904 21.632 372.86 21.624 372.82C21.616 372.86 21.604 372.904 21.588 372.952C21.572 373 21.562 373.028 21.558 373.036L21.078 374.2ZM27.1627 375.688C27.1147 375.724 27.0467 375.764 26.9587 375.808C26.8747 375.848 26.7747 375.886 26.6587 375.922C26.5427 375.958 26.4127 375.988 26.2687 376.012C26.1287 376.036 25.9787 376.048 25.8187 376.048C25.4787 376.048 25.1727 375.99 24.9007 375.874C24.6327 375.754 24.4047 375.594 24.2167 375.394C24.0287 375.194 23.8847 374.962 23.7847 374.698C23.6847 374.434 23.6347 374.154 23.6347 373.858C23.6347 373.53 23.6927 373.228 23.8087 372.952C23.9287 372.676 24.0907 372.438 24.2947 372.238C24.4987 372.038 24.7367 371.882 25.0087 371.77C25.2847 371.658 25.5767 371.602 25.8847 371.602C26.0007 371.602 26.1187 371.61 26.2387 371.626C26.3587 371.642 26.4707 371.664 26.5747 371.692C26.6827 371.72 26.7767 371.754 26.8567 371.794C26.9407 371.83 27.0047 371.868 27.0487 371.908C27.0167 371.956 26.9907 371.996 26.9707 372.028C26.9547 372.06 26.9367 372.094 26.9167 372.13C26.8967 372.162 26.8747 372.2 26.8507 372.244C26.8267 372.288 26.7947 372.346 26.7547 372.418C26.7027 372.382 26.6407 372.352 26.5687 372.328C26.5007 372.304 26.4287 372.284 26.3527 372.268C26.2767 372.252 26.1987 372.24 26.1187 372.232C26.0427 372.224 25.9727 372.22 25.9087 372.22C25.6767 372.22 25.4607 372.264 25.2607 372.352C25.0647 372.436 24.8947 372.552 24.7507 372.7C24.6067 372.844 24.4927 373.012 24.4087 373.204C24.3287 373.396 24.2887 373.596 24.2887 373.804C24.2887 374.008 24.3267 374.204 24.4027 374.392C24.4827 374.58 24.5907 374.748 24.7267 374.896C24.8667 375.044 25.0327 375.162 25.2247 375.25C25.4207 375.338 25.6347 375.382 25.8667 375.382C25.9907 375.382 26.1107 375.37 26.2267 375.346C26.3427 375.322 26.4467 375.294 26.5387 375.262C26.6347 375.23 26.7127 375.198 26.7727 375.166C26.8367 375.134 26.8747 375.11 26.8867 375.094L27.1627 375.688ZM30.3408 376C30.2008 375.82 30.0668 375.648 29.9388 375.484C29.8108 375.32 29.6848 375.156 29.5608 374.992C29.4368 374.828 29.3108 374.662 29.1828 374.494C29.0588 374.326 28.9268 374.152 28.7868 373.972C28.7348 374.028 28.6848 374.08 28.6368 374.128C28.5888 374.172 28.5368 374.218 28.4808 374.266C28.4808 374.574 28.4808 374.864 28.4808 375.136C28.4848 375.404 28.4868 375.692 28.4868 376H27.7608V371.65H28.4868V373.276C28.4868 373.312 28.4828 373.348 28.4748 373.384C28.4708 373.416 28.4688 373.45 28.4688 373.486C28.4888 373.458 28.5088 373.434 28.5288 373.414C28.5488 373.39 28.5688 373.362 28.5888 373.33C28.8728 373.062 29.1468 372.784 29.4108 372.496C29.6748 372.204 29.9488 371.922 30.2328 371.65H31.0668C30.7668 371.962 30.4688 372.276 30.1728 372.592C29.8808 372.908 29.5848 373.222 29.2848 373.534C29.4528 373.75 29.6128 373.96 29.7648 374.164C29.9208 374.364 30.0728 374.564 30.2208 374.764C30.3728 374.964 30.5248 375.166 30.6768 375.37C30.8288 375.574 30.9868 375.784 31.1508 376H30.3408ZM31.6456 376V371.65H32.3056V375.376H34.4656V376H31.6456ZM35.0733 376V371.65H37.9293V372.244H35.7333V373.516H37.6893V374.122H35.7333V375.394H38.0133V376H35.0733ZM41.2665 371.89L41.0325 372.424C40.8685 372.364 40.7045 372.316 40.5405 372.28C40.3805 372.244 40.2265 372.226 40.0785 372.226C39.8265 372.226 39.6245 372.278 39.4725 372.382C39.3245 372.486 39.2505 372.618 39.2505 372.778C39.2505 372.914 39.3045 373.024 39.4125 373.108C39.5205 373.188 39.6545 373.262 39.8145 373.33C39.9745 373.394 40.1485 373.46 40.3365 373.528C40.5245 373.592 40.6985 373.676 40.8585 373.78C41.0185 373.884 41.1525 374.016 41.2605 374.176C41.3685 374.332 41.4225 374.534 41.4225 374.782C41.4225 374.974 41.3865 375.148 41.3145 375.304C41.2465 375.456 41.1425 375.588 41.0025 375.7C40.8665 375.812 40.6945 375.898 40.4865 375.958C40.2825 376.018 40.0425 376.048 39.7665 376.048C39.5905 376.048 39.4305 376.036 39.2865 376.012C39.1465 375.988 39.0185 375.958 38.9025 375.922C38.7905 375.882 38.6905 375.84 38.6025 375.796C38.5185 375.752 38.4465 375.712 38.3865 375.676L38.6745 375.106C38.8345 375.198 39.0125 375.272 39.2085 375.328C39.4045 375.384 39.5825 375.412 39.7425 375.412C39.8225 375.412 39.9205 375.402 40.0365 375.382C40.1565 375.362 40.2705 375.328 40.3785 375.28C40.4865 375.228 40.5785 375.16 40.6545 375.076C40.7345 374.992 40.7745 374.886 40.7745 374.758C40.7745 374.642 40.7425 374.544 40.6785 374.464C40.6185 374.38 40.5365 374.308 40.4325 374.248C40.3325 374.184 40.2165 374.128 40.0845 374.08C39.9565 374.028 39.8245 373.976 39.6885 373.924C39.5525 373.868 39.4185 373.81 39.2865 373.75C39.1585 373.69 39.0425 373.618 38.9385 373.534C38.8385 373.446 38.7565 373.346 38.6925 373.234C38.6325 373.118 38.6025 372.98 38.6025 372.82C38.6025 372.672 38.6325 372.526 38.6925 372.382C38.7525 372.238 38.8425 372.11 38.9625 371.998C39.0825 371.886 39.2305 371.796 39.4065 371.728C39.5865 371.66 39.7945 371.626 40.0305 371.626C40.1745 371.626 40.3145 371.638 40.4505 371.662C40.5905 371.686 40.7165 371.714 40.8285 371.746C40.9405 371.774 41.0345 371.802 41.1105 371.83C41.1905 371.858 41.2425 371.878 41.2665 371.89ZM44.659 371.89L44.425 372.424C44.261 372.364 44.097 372.316 43.933 372.28C43.773 372.244 43.619 372.226 43.471 372.226C43.219 372.226 43.017 372.278 42.865 372.382C42.717 372.486 42.643 372.618 42.643 372.778C42.643 372.914 42.697 373.024 42.805 373.108C42.913 373.188 43.047 373.262 43.207 373.33C43.367 373.394 43.541 373.46 43.729 373.528C43.917 373.592 44.091 373.676 44.251 373.78C44.411 373.884 44.545 374.016 44.653 374.176C44.761 374.332 44.815 374.534 44.815 374.782C44.815 374.974 44.779 375.148 44.707 375.304C44.639 375.456 44.535 375.588 44.395 375.7C44.259 375.812 44.087 375.898 43.879 375.958C43.675 376.018 43.435 376.048 43.159 376.048C42.983 376.048 42.823 376.036 42.679 376.012C42.539 375.988 42.411 375.958 42.295 375.922C42.183 375.882 42.083 375.84 41.995 375.796C41.911 375.752 41.839 375.712 41.779 375.676L42.067 375.106C42.227 375.198 42.405 375.272 42.601 375.328C42.797 375.384 42.975 375.412 43.135 375.412C43.215 375.412 43.313 375.402 43.429 375.382C43.549 375.362 43.663 375.328 43.771 375.28C43.879 375.228 43.971 375.16 44.047 375.076C44.127 374.992 44.167 374.886 44.167 374.758C44.167 374.642 44.135 374.544 44.071 374.464C44.011 374.38 43.929 374.308 43.825 374.248C43.725 374.184 43.609 374.128 43.477 374.08C43.349 374.028 43.217 373.976 43.081 373.924C42.945 373.868 42.811 373.81 42.679 373.75C42.551 373.69 42.435 373.618 42.331 373.534C42.231 373.446 42.149 373.346 42.085 373.234C42.025 373.118 41.995 372.98 41.995 372.82C41.995 372.672 42.025 372.526 42.085 372.382C42.145 372.238 42.235 372.11 42.355 371.998C42.475 371.886 42.623 371.796 42.799 371.728C42.979 371.66 43.187 371.626 43.423 371.626C43.567 371.626 43.707 371.638 43.843 371.662C43.983 371.686 44.109 371.714 44.221 371.746C44.333 371.774 44.427 371.802 44.503 371.83C44.583 371.858 44.635 371.878 44.659 371.89Z" fill="#C4C4C4"/>
<path d="M7.60205 23V16.475H11.8861V17.366H8.59205V19.274H11.5261V20.183H8.59205V22.091H12.0121V23H7.60205ZM18.8807 16.475V23.297C18.7967 23.189 18.6347 23.015 18.3947 22.775C18.1547 22.535 17.8787 22.259 17.5667 21.947C17.2547 21.635 16.9217 21.308 16.5677 20.966C16.2197 20.624 15.8897 20.3 15.5777 19.994C15.2657 19.682 14.9927 19.406 14.7587 19.166C14.5247 18.92 14.3687 18.746 14.2907 18.644L14.1197 18.41L14.1467 18.698V23H13.1567V16.169C13.2227 16.253 13.3307 16.373 13.4807 16.529C13.6367 16.685 13.8167 16.868 14.0207 17.078C14.2307 17.282 14.4587 17.504 14.7047 17.744C14.9567 17.984 15.2087 18.227 15.4607 18.473C15.7187 18.719 15.9707 18.962 16.2167 19.202C16.4687 19.436 16.6967 19.655 16.9007 19.859C17.1107 20.063 17.2907 20.243 17.4407 20.399C17.5907 20.555 17.6957 20.672 17.7557 20.75L17.9267 21.002L17.8997 20.696V16.475H18.8807ZM20.6758 16.475C20.7178 16.577 20.7868 16.745 20.8828 16.979C20.9788 17.207 21.0868 17.468 21.2068 17.762C21.3328 18.056 21.4618 18.368 21.5938 18.698C21.7318 19.028 21.8608 19.34 21.9808 19.634C22.1008 19.928 22.2088 20.192 22.3048 20.426C22.4008 20.654 22.4698 20.819 22.5118 20.921C22.5178 20.933 22.5328 20.975 22.5568 21.047C22.5808 21.119 22.5988 21.182 22.6108 21.236L22.7008 20.921C22.7428 20.819 22.8118 20.654 22.9078 20.426C23.0038 20.192 23.1118 19.928 23.2318 19.634C23.3518 19.34 23.4778 19.028 23.6098 18.698C23.7478 18.368 23.8768 18.056 23.9968 17.762C24.1228 17.468 24.2338 17.207 24.3298 16.979C24.4258 16.745 24.4948 16.577 24.5368 16.475H25.5088C25.4728 16.559 25.4068 16.712 25.3108 16.934C25.2208 17.15 25.1098 17.414 24.9778 17.726C24.8458 18.038 24.6988 18.38 24.5368 18.752C24.3808 19.124 24.2188 19.502 24.0508 19.886C23.8888 20.27 23.7268 20.648 23.5648 21.02C23.4088 21.392 23.2648 21.734 23.1328 22.046C23.0068 22.358 22.8958 22.625 22.7998 22.847C22.7098 23.063 22.6468 23.213 22.6108 23.297L19.7038 16.475H20.6758ZM26.3315 23V16.475H30.6155V17.366H27.3215V19.274H30.2555V20.183H27.3215V22.091H30.7415V23H26.3315ZM31.8862 23V16.475H32.8762V22.064H36.1162V23H31.8862ZM36.3755 19.742C36.3755 19.292 36.4625 18.866 36.6365 18.464C36.8105 18.056 37.0475 17.699 37.3475 17.393C37.6535 17.087 38.0075 16.847 38.4095 16.673C38.8115 16.493 39.2435 16.403 39.7055 16.403C40.1615 16.403 40.5905 16.493 40.9925 16.673C41.4005 16.847 41.7545 17.087 42.0545 17.393C42.3605 17.699 42.6005 18.056 42.7745 18.464C42.9545 18.866 43.0445 19.292 43.0445 19.742C43.0445 20.204 42.9545 20.636 42.7745 21.038C42.6005 21.44 42.3605 21.794 42.0545 22.1C41.7545 22.4 41.4005 22.637 40.9925 22.811C40.5905 22.985 40.1615 23.072 39.7055 23.072C39.2435 23.072 38.8115 22.985 38.4095 22.811C38.0075 22.637 37.6535 22.4 37.3475 22.1C37.0475 21.794 36.8105 21.44 36.6365 21.038C36.4625 20.636 36.3755 20.204 36.3755 19.742ZM37.3565 19.751C37.3565 20.081 37.4165 20.393 37.5365 20.687C37.6625 20.975 37.8335 21.227 38.0495 21.443C38.2655 21.659 38.5175 21.83 38.8055 21.956C39.0935 22.082 39.3995 22.145 39.7235 22.145C40.0475 22.145 40.3505 22.082 40.6325 21.956C40.9205 21.83 41.1695 21.659 41.3795 21.443C41.5955 21.227 41.7635 20.975 41.8835 20.687C42.0095 20.393 42.0725 20.078 42.0725 19.742C42.0725 19.412 42.0095 19.103 41.8835 18.815C41.7635 18.521 41.5955 18.266 41.3795 18.05C41.1635 17.834 40.9115 17.663 40.6235 17.537C40.3415 17.411 40.0385 17.348 39.7145 17.348C39.3905 17.348 39.0845 17.411 38.7965 17.537C38.5085 17.663 38.2565 17.834 38.0405 18.05C37.8305 18.266 37.6625 18.521 37.5365 18.815C37.4165 19.109 37.3565 19.421 37.3565 19.751ZM45.1809 19.742H46.0719C46.3119 19.742 46.5129 19.7 46.6749 19.616C46.8369 19.532 46.9629 19.43 47.0529 19.31C47.1489 19.19 47.2149 19.061 47.2509 18.923C47.2929 18.785 47.3139 18.662 47.3139 18.554C47.3139 18.44 47.2929 18.317 47.2509 18.185C47.2149 18.047 47.1489 17.921 47.0529 17.807C46.9569 17.687 46.8279 17.588 46.6659 17.51C46.5099 17.432 46.3149 17.393 46.0809 17.393H45.1809V19.742ZM44.1909 23V16.475H45.9729C46.3149 16.475 46.6269 16.52 46.9089 16.61C47.1969 16.7 47.4429 16.835 47.6469 17.015C47.8569 17.189 48.0189 17.405 48.1329 17.663C48.2469 17.915 48.3039 18.206 48.3039 18.536C48.3039 18.794 48.2649 19.052 48.1869 19.31C48.1089 19.562 47.9829 19.79 47.8089 19.994C47.6349 20.192 47.4069 20.354 47.1249 20.48C46.8429 20.606 46.5009 20.669 46.0989 20.669H45.1809V23H44.1909ZM49.3853 23V16.475H53.6693V17.366H50.3753V19.274H53.3093V20.183H50.3753V22.091H53.7953V23H49.3853Z" fill="#C4C4C4"/>
<path d="M21.434 84C21.4106 83.9487 21.378 83.874 21.336 83.776C21.294 83.678 21.245 83.566 21.189 83.44C21.1376 83.3093 21.0793 83.1693 21.014 83.02C20.9533 82.866 20.8903 82.7073 20.825 82.544H19.033L18.431 84H17.675L19.936 78.687C19.964 78.7523 20.013 78.8713 20.083 79.044C20.1576 79.2167 20.244 79.4243 20.342 79.667C20.4446 79.905 20.5566 80.171 20.678 80.465C20.804 80.7543 20.93 81.0483 21.056 81.347C21.1866 81.6457 21.3126 81.9397 21.434 82.229C21.56 82.5183 21.6743 82.7843 21.777 83.027C21.8796 83.2697 21.966 83.4773 22.036 83.65C22.1106 83.818 22.162 83.9347 22.19 84H21.434ZM19.299 81.9H20.566C20.5006 81.746 20.4376 81.599 20.377 81.459C20.321 81.3143 20.2673 81.1837 20.216 81.067C20.1693 80.9457 20.1273 80.8407 20.09 80.752C20.0526 80.6633 20.0246 80.5933 20.006 80.542C20.0013 80.5327 19.9896 80.5 19.971 80.444C19.957 80.388 19.9453 80.3367 19.936 80.29C19.9266 80.3367 19.9126 80.388 19.894 80.444C19.8753 80.5 19.8636 80.5327 19.859 80.542L19.299 81.9ZM25.3192 78.925V79.653H24.0382V84H23.2752V79.653H22.0222V78.925H25.3192ZM29.1747 78.925V79.653H27.8937V84H27.1307V79.653H25.8777V78.925H29.1747ZM32.7611 84C32.7378 83.9487 32.7051 83.874 32.6631 83.776C32.6211 83.678 32.5721 83.566 32.5161 83.44C32.4648 83.3093 32.4065 83.1693 32.3411 83.02C32.2805 82.866 32.2175 82.7073 32.1521 82.544H30.3601L29.7581 84H29.0021L31.2631 78.687C31.2911 78.7523 31.3401 78.8713 31.4101 79.044C31.4848 79.2167 31.5711 79.4243 31.6691 79.667C31.7718 79.905 31.8838 80.171 32.0051 80.465C32.1311 80.7543 32.2571 81.0483 32.3831 81.347C32.5138 81.6457 32.6398 81.9397 32.7611 82.229C32.8871 82.5183 33.0015 82.7843 33.1041 83.027C33.2068 83.2697 33.2931 83.4773 33.3631 83.65C33.4378 83.818 33.4891 83.9347 33.5171 84H32.7611ZM30.6261 81.9H31.8931C31.8278 81.746 31.7648 81.599 31.7041 81.459C31.6481 81.3143 31.5945 81.1837 31.5431 81.067C31.4965 80.9457 31.4545 80.8407 31.4171 80.752C31.3798 80.6633 31.3518 80.5933 31.3331 80.542C31.3285 80.5327 31.3168 80.5 31.2981 80.444C31.2841 80.388 31.2725 80.3367 31.2631 80.29C31.2538 80.3367 31.2398 80.388 31.2211 80.444C31.2025 80.5 31.1908 80.5327 31.1861 80.542L30.6261 81.9ZM37.7249 83.636C37.6689 83.678 37.5896 83.7247 37.4869 83.776C37.3889 83.8227 37.2723 83.867 37.1369 83.909C37.0016 83.951 36.8499 83.986 36.6819 84.014C36.5186 84.042 36.3436 84.056 36.1569 84.056C35.7603 84.056 35.4033 83.9883 35.0859 83.853C34.7733 83.713 34.5073 83.5263 34.2879 83.293C34.0686 83.0597 33.9006 82.789 33.7839 82.481C33.6673 82.173 33.6089 81.8463 33.6089 81.501C33.6089 81.1183 33.6766 80.766 33.8119 80.444C33.9519 80.122 34.1409 79.8443 34.3789 79.611C34.6169 79.3777 34.8946 79.1957 35.2119 79.065C35.5339 78.9343 35.8746 78.869 36.2339 78.869C36.3693 78.869 36.5069 78.8783 36.6469 78.897C36.7869 78.9157 36.9176 78.9413 37.0389 78.974C37.1649 79.0067 37.2746 79.0463 37.3679 79.093C37.4659 79.135 37.5406 79.1793 37.5919 79.226C37.5546 79.282 37.5243 79.3287 37.5009 79.366C37.4823 79.4033 37.4613 79.443 37.4379 79.485C37.4146 79.5223 37.3889 79.5667 37.3609 79.618C37.3329 79.6693 37.2956 79.737 37.2489 79.821C37.1883 79.779 37.1159 79.744 37.0319 79.716C36.9526 79.688 36.8686 79.6647 36.7799 79.646C36.6913 79.6273 36.6003 79.6133 36.5069 79.604C36.4183 79.5947 36.3366 79.59 36.2619 79.59C35.9913 79.59 35.7393 79.6413 35.5059 79.744C35.2773 79.842 35.0789 79.9773 34.9109 80.15C34.7429 80.318 34.6099 80.514 34.5119 80.738C34.4186 80.962 34.3719 81.1953 34.3719 81.438C34.3719 81.676 34.4163 81.9047 34.5049 82.124C34.5983 82.3433 34.7243 82.5393 34.8829 82.712C35.0463 82.8847 35.2399 83.0223 35.4639 83.125C35.6926 83.2277 35.9423 83.279 36.2129 83.279C36.3576 83.279 36.4976 83.265 36.6329 83.237C36.7683 83.209 36.8896 83.1763 36.9969 83.139C37.1089 83.1017 37.1999 83.0643 37.2699 83.027C37.3446 82.9897 37.3889 82.9617 37.4029 82.943L37.7249 83.636ZM41.4328 84C41.2695 83.79 41.1131 83.5893 40.9638 83.398C40.8145 83.2067 40.6675 83.0153 40.5228 82.824C40.3781 82.6327 40.2311 82.439 40.0818 82.243C39.9371 82.047 39.7831 81.844 39.6198 81.634C39.5591 81.6993 39.5008 81.76 39.4448 81.816C39.3888 81.8673 39.3281 81.921 39.2628 81.977C39.2628 82.3363 39.2628 82.6747 39.2628 82.992C39.2675 83.3047 39.2698 83.6407 39.2698 84H38.4228V78.925H39.2698V80.822C39.2698 80.864 39.2651 80.906 39.2558 80.948C39.2511 80.9853 39.2488 81.025 39.2488 81.067C39.2721 81.0343 39.2955 81.0063 39.3188 80.983C39.3421 80.955 39.3655 80.9223 39.3888 80.885C39.7201 80.5723 40.0398 80.248 40.3478 79.912C40.6558 79.5713 40.9755 79.2423 41.3068 78.925H42.2798C41.9298 79.289 41.5821 79.6553 41.2368 80.024C40.8961 80.3927 40.5508 80.759 40.2008 81.123C40.3968 81.375 40.5835 81.62 40.7608 81.858C40.9428 82.0913 41.1201 82.3247 41.2928 82.558C41.4701 82.7913 41.6475 83.027 41.8248 83.265C42.0021 83.503 42.1865 83.748 42.3778 84H41.4328Z" fill="#C4C4C4"/>
<mask id="mask0" mask-type="alpha" maskUnits="userSpaceOnUse" x="9" y="34" width="42" height="42">
<circle cx="30" cy="55" r="21" fill="#C4C4C4"/>
</mask>
<g mask="url(#mask0)">
<line x1="6.64645" y1="78.6464" x2="53.4926" y2="31.8003" stroke="#C6C6C6"/>
<line x1="7.35662" y1="31.6495" x2="53.3951" y2="78.4957" stroke="#C6C6C6"/>
<line x1="6" y1="55.5" x2="54.4615" y2="55.5" stroke="#C6C6C6"/>
<line x1="29.5" y1="53" x2="29.5" y2="29.5769" stroke="#C6C6C6"/>
</g>
<circle cx="30" cy="55" r="18" transform="rotate(-180 30 55)" fill="#222222"/>
<circle cx="30" cy="55" r="16" transform="rotate(-180 30 55)" fill="black"/>
<rect x="31" y="55" width="3" height="16" transform="rotate(-180 31 55)" fill="#E5E5E5"/>
<path d="M15.7001 143V137.925H17.0861C17.3521 137.925 17.5948 137.96 17.8141 138.03C18.0381 138.1 18.2295 138.205 18.3881 138.345C18.5515 138.48 18.6775 138.648 18.7661 138.849C18.8548 139.045 18.8991 139.271 18.8991 139.528C18.8991 139.668 18.8851 139.808 18.8571 139.948C18.8291 140.083 18.7825 140.216 18.7171 140.347C18.6565 140.473 18.5771 140.592 18.4791 140.704C18.3811 140.811 18.2621 140.902 18.1221 140.977C18.3088 141.271 18.5118 141.598 18.7311 141.957C18.9505 142.312 19.1721 142.659 19.3961 143H18.4791C18.3858 142.855 18.2878 142.704 18.1851 142.545C18.0871 142.386 17.9868 142.23 17.8841 142.076C17.7861 141.917 17.6881 141.763 17.5901 141.614C17.4968 141.46 17.4081 141.318 17.3241 141.187H17.1841H16.4701V143H15.7001ZM16.4701 140.466H17.1631C17.3498 140.466 17.5061 140.436 17.6321 140.375C17.7581 140.31 17.8561 140.23 17.9261 140.137C18.0008 140.044 18.0521 139.943 18.0801 139.836C18.1128 139.729 18.1291 139.631 18.1291 139.542C18.1291 139.453 18.1128 139.358 18.0801 139.255C18.0521 139.148 18.0008 139.05 17.9261 138.961C17.8515 138.868 17.7511 138.791 17.6251 138.73C17.5038 138.669 17.3521 138.639 17.1701 138.639H16.4701V140.466ZM20.0957 143V137.925H23.4277V138.618H20.8657V140.102H23.1477V140.809H20.8657V142.293H23.5257V143H20.0957ZM24.416 143V137.925H25.186V142.272H27.706V143H24.416ZM28.415 143V137.925H31.747V138.618H29.185V140.102H31.467V140.809H29.185V142.293H31.845V143H28.415ZM35.8783 143C35.855 142.949 35.8223 142.874 35.7803 142.776C35.7383 142.678 35.6893 142.566 35.6333 142.44C35.582 142.309 35.5236 142.169 35.4583 142.02C35.3976 141.866 35.3346 141.707 35.2693 141.544H33.4773L32.8753 143H32.1193L34.3803 137.687C34.4083 137.752 34.4573 137.871 34.5273 138.044C34.602 138.217 34.6883 138.424 34.7863 138.667C34.889 138.905 35.001 139.171 35.1223 139.465C35.2483 139.754 35.3743 140.048 35.5003 140.347C35.631 140.646 35.757 140.94 35.8783 141.229C36.0043 141.518 36.1186 141.784 36.2213 142.027C36.324 142.27 36.4103 142.477 36.4803 142.65C36.555 142.818 36.6063 142.935 36.6343 143H35.8783ZM33.7433 140.9H35.0103C34.945 140.746 34.882 140.599 34.8213 140.459C34.7653 140.314 34.7116 140.184 34.6603 140.067C34.6136 139.946 34.5716 139.841 34.5343 139.752C34.497 139.663 34.469 139.593 34.4503 139.542C34.4456 139.533 34.434 139.5 34.4153 139.444C34.4013 139.388 34.3896 139.337 34.3803 139.29C34.371 139.337 34.357 139.388 34.3383 139.444C34.3196 139.5 34.308 139.533 34.3033 139.542L33.7433 140.9ZM40.1725 138.205L39.8995 138.828C39.7082 138.758 39.5169 138.702 39.3255 138.66C39.1389 138.618 38.9592 138.597 38.7865 138.597C38.4925 138.597 38.2569 138.658 38.0795 138.779C37.9069 138.9 37.8205 139.054 37.8205 139.241C37.8205 139.4 37.8835 139.528 38.0095 139.626C38.1355 139.719 38.2919 139.806 38.4785 139.885C38.6652 139.96 38.8682 140.037 39.0875 140.116C39.3069 140.191 39.5099 140.289 39.6965 140.41C39.8832 140.531 40.0395 140.685 40.1655 140.872C40.2915 141.054 40.3545 141.29 40.3545 141.579C40.3545 141.803 40.3125 142.006 40.2285 142.188C40.1492 142.365 40.0279 142.519 39.8645 142.65C39.7059 142.781 39.5052 142.881 39.2625 142.951C39.0245 143.021 38.7445 143.056 38.4225 143.056C38.2172 143.056 38.0305 143.042 37.8625 143.014C37.6992 142.986 37.5499 142.951 37.4145 142.909C37.2839 142.862 37.1672 142.813 37.0645 142.762C36.9665 142.711 36.8825 142.664 36.8125 142.622L37.1485 141.957C37.3352 142.064 37.5429 142.151 37.7715 142.216C38.0002 142.281 38.2079 142.314 38.3945 142.314C38.4879 142.314 38.6022 142.302 38.7375 142.279C38.8775 142.256 39.0105 142.216 39.1365 142.16C39.2625 142.099 39.3699 142.02 39.4585 141.922C39.5519 141.824 39.5985 141.7 39.5985 141.551C39.5985 141.416 39.5612 141.301 39.4865 141.208C39.4165 141.11 39.3209 141.026 39.1995 140.956C39.0829 140.881 38.9475 140.816 38.7935 140.76C38.6442 140.699 38.4902 140.639 38.3315 140.578C38.1729 140.513 38.0165 140.445 37.8625 140.375C37.7132 140.305 37.5779 140.221 37.4565 140.123C37.3399 140.02 37.2442 139.904 37.1695 139.773C37.0995 139.638 37.0645 139.477 37.0645 139.29C37.0645 139.117 37.0995 138.947 37.1695 138.779C37.2395 138.611 37.3445 138.462 37.4845 138.331C37.6245 138.2 37.7972 138.095 38.0025 138.016C38.2125 137.937 38.4552 137.897 38.7305 137.897C38.8985 137.897 39.0619 137.911 39.2205 137.939C39.3839 137.967 39.5309 138 39.6615 138.037C39.7922 138.07 39.9019 138.102 39.9905 138.135C40.0839 138.168 40.1445 138.191 40.1725 138.205ZM41.2255 143V137.925H44.5575V138.618H41.9955V140.102H44.2775V140.809H41.9955V142.293H44.6555V143H41.2255Z" fill="#C4C4C4"/>
<mask id="mask1" mask-type="alpha" maskUnits="userSpaceOnUse" x="9" y="93" width="42" height="42">
<circle cx="30" cy="114" r="21" fill="#C4C4C4"/>
</mask>
<g mask="url(#mask1)">
<line x1="6.64645" y1="137.646" x2="53.4926" y2="90.8003" stroke="#C6C6C6"/>
<line x1="7.35662" y1="90.6495" x2="53.3951" y2="137.496" stroke="#C6C6C6"/>
<line x1="6" y1="114.5" x2="54.4615" y2="114.5" stroke="#C6C6C6"/>
<line x1="29.5" y1="112" x2="29.5" y2="88.5769" stroke="#C6C6C6"/>
</g>
<circle cx="30" cy="114" r="18" transform="rotate(-180 30 114)" fill="#222222"/>
<circle cx="30" cy="114" r="16" transform="rotate(-180 30 114)" fill="black"/>
<rect x="31" y="114" width="3" height="16" transform="rotate(-180 31 114)" fill="#E5E5E5"/>
<path d="M19.4736 195.925H20.7476C21.2609 195.925 21.6949 196.002 22.0496 196.156C22.4043 196.31 22.6913 196.513 22.9106 196.765C23.1346 197.012 23.2956 197.292 23.3936 197.605C23.4963 197.913 23.5476 198.221 23.5476 198.529C23.5476 198.907 23.4799 199.25 23.3446 199.558C23.2093 199.861 23.0249 200.12 22.7916 200.335C22.5583 200.55 22.2876 200.715 21.9796 200.832C21.6716 200.944 21.3449 201 20.9996 201H19.4736V195.925ZM20.8876 200.272C21.1583 200.272 21.4079 200.232 21.6366 200.153C21.8699 200.074 22.0706 199.959 22.2386 199.81C22.4113 199.656 22.5443 199.469 22.6376 199.25C22.7356 199.026 22.7846 198.769 22.7846 198.48C22.7846 198.172 22.7309 197.904 22.6236 197.675C22.5163 197.446 22.3763 197.257 22.2036 197.108C22.0309 196.954 21.8349 196.842 21.6156 196.772C21.4009 196.697 21.1816 196.66 20.9576 196.66H20.2366V200.272H20.8876ZM24.4501 201V195.925H27.7821V196.618H25.2201V198.102H27.5021V198.809H25.2201V200.293H27.8801V201H24.4501ZM32.4476 200.636C32.3916 200.678 32.3123 200.725 32.2096 200.776C32.1116 200.823 31.9949 200.867 31.8596 200.909C31.7243 200.951 31.5726 200.986 31.4046 201.014C31.2413 201.042 31.0663 201.056 30.8796 201.056C30.4829 201.056 30.1259 200.988 29.8086 200.853C29.4959 200.713 29.2299 200.526 29.0106 200.293C28.7913 200.06 28.6233 199.789 28.5066 199.481C28.3899 199.173 28.3316 198.846 28.3316 198.501C28.3316 198.118 28.3993 197.766 28.5346 197.444C28.6746 197.122 28.8636 196.844 29.1016 196.611C29.3396 196.378 29.6173 196.196 29.9346 196.065C30.2566 195.934 30.5973 195.869 30.9566 195.869C31.0919 195.869 31.2296 195.878 31.3696 195.897C31.5096 195.916 31.6403 195.941 31.7616 195.974C31.8876 196.007 31.9973 196.046 32.0906 196.093C32.1886 196.135 32.2633 196.179 32.3146 196.226C32.2773 196.282 32.2469 196.329 32.2236 196.366C32.2049 196.403 32.1839 196.443 32.1606 196.485C32.1373 196.522 32.1116 196.567 32.0836 196.618C32.0556 196.669 32.0183 196.737 31.9716 196.821C31.9109 196.779 31.8386 196.744 31.7546 196.716C31.6753 196.688 31.5913 196.665 31.5026 196.646C31.4139 196.627 31.3229 196.613 31.2296 196.604C31.1409 196.595 31.0593 196.59 30.9846 196.59C30.7139 196.59 30.4619 196.641 30.2286 196.744C29.9999 196.842 29.8016 196.977 29.6336 197.15C29.4656 197.318 29.3326 197.514 29.2346 197.738C29.1413 197.962 29.0946 198.195 29.0946 198.438C29.0946 198.676 29.1389 198.905 29.2276 199.124C29.3209 199.343 29.4469 199.539 29.6056 199.712C29.7689 199.885 29.9626 200.022 30.1866 200.125C30.4153 200.228 30.6649 200.279 30.9356 200.279C31.0803 200.279 31.2203 200.265 31.3556 200.237C31.4909 200.209 31.6123 200.176 31.7196 200.139C31.8316 200.102 31.9226 200.064 31.9926 200.027C32.0673 199.99 32.1116 199.962 32.1256 199.943L32.4476 200.636ZM36.2885 201C36.2651 200.949 36.2325 200.874 36.1905 200.776C36.1485 200.678 36.0995 200.566 36.0435 200.44C35.9921 200.309 35.9338 200.169 35.8685 200.02C35.8078 199.866 35.7448 199.707 35.6795 199.544H33.8875L33.2855 201H32.5295L34.7905 195.687C34.8185 195.752 34.8675 195.871 34.9375 196.044C35.0121 196.217 35.0985 196.424 35.1965 196.667C35.2991 196.905 35.4111 197.171 35.5325 197.465C35.6585 197.754 35.7845 198.048 35.9105 198.347C36.0411 198.646 36.1671 198.94 36.2885 199.229C36.4145 199.518 36.5288 199.784 36.6315 200.027C36.7341 200.27 36.8205 200.477 36.8905 200.65C36.9651 200.818 37.0165 200.935 37.0445 201H36.2885ZM34.1535 198.9H35.4205C35.3551 198.746 35.2921 198.599 35.2315 198.459C35.1755 198.314 35.1218 198.184 35.0705 198.067C35.0238 197.946 34.9818 197.841 34.9445 197.752C34.9071 197.663 34.8791 197.593 34.8605 197.542C34.8558 197.533 34.8441 197.5 34.8255 197.444C34.8115 197.388 34.7998 197.337 34.7905 197.29C34.7811 197.337 34.7671 197.388 34.7485 197.444C34.7298 197.5 34.7181 197.533 34.7135 197.542L34.1535 198.9ZM39.2367 199.327V201H38.4667V199.327C38.434 199.276 38.3687 199.164 38.2707 198.991C38.1773 198.818 38.0653 198.615 37.9347 198.382C37.8087 198.144 37.671 197.892 37.5217 197.626C37.377 197.36 37.2393 197.11 37.1087 196.877C36.9827 196.639 36.8707 196.434 36.7727 196.261C36.6793 196.088 36.6163 195.976 36.5837 195.925H37.4517C37.4937 195.995 37.5683 196.13 37.6757 196.331C37.783 196.527 37.902 196.751 38.0327 197.003C38.1633 197.25 38.2963 197.502 38.4317 197.759C38.567 198.011 38.6813 198.228 38.7747 198.41L38.8517 198.641C38.8703 198.604 38.8867 198.566 38.9007 198.529C38.9147 198.487 38.9287 198.447 38.9427 198.41C39.0407 198.228 39.155 198.011 39.2857 197.759C39.4163 197.502 39.5447 197.25 39.6707 197.003C39.8013 196.751 39.918 196.527 40.0207 196.331C40.128 196.13 40.2027 195.995 40.2447 195.925H41.1057L39.2367 199.327Z" fill="#C4C4C4"/>
<mask id="mask2" mask-type="alpha" maskUnits="userSpaceOnUse" x="9" y="151" width="42" height="42">
<circle cx="30" cy="172" r="21" fill="#C4C4C4"/>
</mask>
<g mask="url(#mask2)">
<line x1="6.64645" y1="195.646" x2="53.4926" y2="148.8" stroke="#C6C6C6"/>
<line x1="7.35662" y1="148.65" x2="53.3951" y2="195.496" stroke="#C6C6C6"/>
<line x1="6" y1="172.5" x2="54.4615" y2="172.5" stroke="#C6C6C6"/>
<line x1="29.5" y1="170" x2="29.5" y2="146.577" stroke="#C6C6C6"/>
</g>
<circle cx="30" cy="172" r="18" transform="rotate(-180 30 172)" fill="#222222"/>
<circle cx="30" cy="172" r="16" transform="rotate(-180 30 172)" fill="black"/>
<rect x="31" y="172" width="3" height="16" transform="rotate(-180 31 172)" fill="#E5E5E5"/>
<path d="M19.2477 255.205L18.9747 255.828C18.7834 255.758 18.5921 255.702 18.4007 255.66C18.2141 255.618 18.0344 255.597 17.8617 255.597C17.5677 255.597 17.3321 255.658 17.1547 255.779C16.9821 255.9 16.8957 256.054 16.8957 256.241C16.8957 256.4 16.9587 256.528 17.0847 256.626C17.2107 256.719 17.3671 256.806 17.5537 256.885C17.7404 256.96 17.9434 257.037 18.1627 257.116C18.3821 257.191 18.5851 257.289 18.7717 257.41C18.9584 257.531 19.1147 257.685 19.2407 257.872C19.3667 258.054 19.4297 258.29 19.4297 258.579C19.4297 258.803 19.3877 259.006 19.3037 259.188C19.2244 259.365 19.1031 259.519 18.9397 259.65C18.7811 259.781 18.5804 259.881 18.3377 259.951C18.0997 260.021 17.8197 260.056 17.4977 260.056C17.2924 260.056 17.1057 260.042 16.9377 260.014C16.7744 259.986 16.6251 259.951 16.4897 259.909C16.3591 259.862 16.2424 259.813 16.1397 259.762C16.0417 259.711 15.9577 259.664 15.8877 259.622L16.2237 258.957C16.4104 259.064 16.6181 259.151 16.8467 259.216C17.0754 259.281 17.2831 259.314 17.4697 259.314C17.5631 259.314 17.6774 259.302 17.8127 259.279C17.9527 259.256 18.0857 259.216 18.2117 259.16C18.3377 259.099 18.4451 259.02 18.5337 258.922C18.6271 258.824 18.6737 258.7 18.6737 258.551C18.6737 258.416 18.6364 258.301 18.5617 258.208C18.4917 258.11 18.3961 258.026 18.2747 257.956C18.1581 257.881 18.0227 257.816 17.8687 257.76C17.7194 257.699 17.5654 257.639 17.4067 257.578C17.2481 257.513 17.0917 257.445 16.9377 257.375C16.7884 257.305 16.6531 257.221 16.5317 257.123C16.4151 257.02 16.3194 256.904 16.2447 256.773C16.1747 256.638 16.1397 256.477 16.1397 256.29C16.1397 256.117 16.1747 255.947 16.2447 255.779C16.3147 255.611 16.4197 255.462 16.5597 255.331C16.6997 255.2 16.8724 255.095 17.0777 255.016C17.2877 254.937 17.5304 254.897 17.8057 254.897C17.9737 254.897 18.1371 254.911 18.2957 254.939C18.4591 254.967 18.6061 255 18.7367 255.037C18.8674 255.07 18.9771 255.102 19.0657 255.135C19.1591 255.168 19.2197 255.191 19.2477 255.205ZM22.1767 260.056C21.9061 260.056 21.6541 260.012 21.4207 259.923C21.1874 259.834 20.9821 259.711 20.8047 259.552C20.6321 259.389 20.4944 259.195 20.3917 258.971C20.2937 258.742 20.2447 258.488 20.2447 258.208V254.925H21.0147V258.187C21.0147 258.35 21.0427 258.502 21.0987 258.642C21.1594 258.777 21.2411 258.899 21.3437 259.006C21.4511 259.109 21.5747 259.19 21.7147 259.251C21.8547 259.307 22.0087 259.335 22.1767 259.335C22.3401 259.335 22.4917 259.307 22.6317 259.251C22.7764 259.19 22.9001 259.109 23.0027 259.006C23.1101 258.899 23.1941 258.777 23.2547 258.642C23.3154 258.502 23.3457 258.35 23.3457 258.187V254.925H24.1157V258.208C24.1157 258.488 24.0644 258.742 23.9617 258.971C23.8637 259.195 23.7261 259.389 23.5487 259.552C23.3761 259.711 23.1707 259.834 22.9327 259.923C22.6994 260.012 22.4474 260.056 22.1767 260.056ZM28.2096 255.205L27.9366 255.828C27.7453 255.758 27.554 255.702 27.3626 255.66C27.176 255.618 26.9963 255.597 26.8236 255.597C26.5296 255.597 26.294 255.658 26.1166 255.779C25.944 255.9 25.8576 256.054 25.8576 256.241C25.8576 256.4 25.9206 256.528 26.0466 256.626C26.1726 256.719 26.329 256.806 26.5156 256.885C26.7023 256.96 26.9053 257.037 27.1246 257.116C27.344 257.191 27.547 257.289 27.7336 257.41C27.9203 257.531 28.0766 257.685 28.2026 257.872C28.3286 258.054 28.3916 258.29 28.3916 258.579C28.3916 258.803 28.3496 259.006 28.2656 259.188C28.1863 259.365 28.065 259.519 27.9016 259.65C27.743 259.781 27.5423 259.881 27.2996 259.951C27.0616 260.021 26.7816 260.056 26.4596 260.056C26.2543 260.056 26.0676 260.042 25.8996 260.014C25.7363 259.986 25.587 259.951 25.4516 259.909C25.321 259.862 25.2043 259.813 25.1016 259.762C25.0036 259.711 24.9196 259.664 24.8496 259.622L25.1856 258.957C25.3723 259.064 25.58 259.151 25.8086 259.216C26.0373 259.281 26.245 259.314 26.4316 259.314C26.525 259.314 26.6393 259.302 26.7746 259.279C26.9146 259.256 27.0476 259.216 27.1736 259.16C27.2996 259.099 27.407 259.02 27.4956 258.922C27.589 258.824 27.6356 258.7 27.6356 258.551C27.6356 258.416 27.5983 258.301 27.5236 258.208C27.4536 258.11 27.358 258.026 27.2366 257.956C27.12 257.881 26.9846 257.816 26.8306 257.76C26.6813 257.699 26.5273 257.639 26.3686 257.578C26.21 257.513 26.0536 257.445 25.8996 257.375C25.7503 257.305 25.615 257.221 25.4936 257.123C25.377 257.02 25.2813 256.904 25.2066 256.773C25.1366 256.638 25.1016 256.477 25.1016 256.29C25.1016 256.117 25.1366 255.947 25.2066 255.779C25.2766 255.611 25.3816 255.462 25.5216 255.331C25.6616 255.2 25.8343 255.095 26.0396 255.016C26.2496 254.937 26.4923 254.897 26.7676 254.897C26.9356 254.897 27.099 254.911 27.2576 254.939C27.421 254.967 27.568 255 27.6986 255.037C27.8293 255.07 27.939 255.102 28.0276 255.135C28.121 255.168 28.1816 255.191 28.2096 255.205ZM32.2166 254.925V255.653H30.9356V260H30.1726V255.653H28.9196V254.925H32.2166ZM35.8031 260C35.7798 259.949 35.7471 259.874 35.7051 259.776C35.6631 259.678 35.6141 259.566 35.5581 259.44C35.5068 259.309 35.4484 259.169 35.3831 259.02C35.3224 258.866 35.2594 258.707 35.1941 258.544H33.4021L32.8001 260H32.0441L34.3051 254.687C34.3331 254.752 34.3821 254.871 34.4521 255.044C34.5268 255.217 34.6131 255.424 34.7111 255.667C34.8138 255.905 34.9258 256.171 35.0471 256.465C35.1731 256.754 35.2991 257.048 35.4251 257.347C35.5558 257.646 35.6818 257.94 35.8031 258.229C35.9291 258.518 36.0434 258.784 36.1461 259.027C36.2488 259.27 36.3351 259.477 36.4051 259.65C36.4798 259.818 36.5311 259.935 36.5591 260H35.8031ZM33.6681 257.9H34.9351C34.8698 257.746 34.8068 257.599 34.7461 257.459C34.6901 257.314 34.6364 257.184 34.5851 257.067C34.5384 256.946 34.4964 256.841 34.4591 256.752C34.4218 256.663 34.3938 256.593 34.3751 256.542C34.3704 256.533 34.3588 256.5 34.3401 256.444C34.3261 256.388 34.3144 256.337 34.3051 256.29C34.2958 256.337 34.2818 256.388 34.2631 256.444C34.2444 256.5 34.2328 256.533 34.2281 256.542L33.6681 257.9ZM37.1923 254.925H37.9553V260H37.1923V254.925ZM43.6541 254.925V260.231C43.5888 260.147 43.4628 260.012 43.2761 259.825C43.0894 259.638 42.8748 259.424 42.6321 259.181C42.3894 258.938 42.1304 258.684 41.8551 258.418C41.5844 258.152 41.3278 257.9 41.0851 257.662C40.8424 257.419 40.6301 257.205 40.4481 257.018C40.2661 256.827 40.1448 256.691 40.0841 256.612L39.9511 256.43L39.9721 256.654V260H39.2021V254.687C39.2534 254.752 39.3374 254.846 39.4541 254.967C39.5754 255.088 39.7154 255.231 39.8741 255.394C40.0374 255.553 40.2148 255.725 40.4061 255.912C40.6021 256.099 40.7981 256.288 40.9941 256.479C41.1948 256.67 41.3908 256.859 41.5821 257.046C41.7781 257.228 41.9554 257.398 42.1141 257.557C42.2774 257.716 42.4174 257.856 42.5341 257.977C42.6508 258.098 42.7324 258.189 42.7791 258.25L42.9121 258.446L42.8911 258.208V254.925H43.6541Z" fill="#C4C4C4"/>
<mask id="mask3" mask-type="alpha" maskUnits="userSpaceOnUse" x="9" y="210" width="42" height="42">
<circle cx="30" cy="231" r="21" fill="#C4C4C4"/>
</mask>
<g mask="url(#mask3)">
<line x1="6.64645" y1="254.646" x2="53.4926" y2="207.8" stroke="#C6C6C6"/>
<line x1="7.35662" y1="207.65" x2="53.3951" y2="254.496" stroke="#C6C6C6"/>
<line x1="6" y1="231.5" x2="54.4615" y2="231.5" stroke="#C6C6C6"/>
<line x1="29.5" y1="229" x2="29.5" y2="205.577" stroke="#C6C6C6"/>
</g>
<circle cx="30" cy="231" r="18" transform="rotate(-180 30 231)" fill="#222222"/>
<circle cx="30" cy="231" r="16" transform="rotate(-180 30 231)" fill="black"/>
<rect x="31" y="231" width="3" height="16" transform="rotate(-180 31 231)" fill="#E5E5E5"/>
<rect y="320" width="29.4833" height="45" fill="#161616"/>
<path d="M9.74458 356.925H10.5076V362H9.74458V356.925ZM16.2063 356.925V362.231C16.141 362.147 16.015 362.012 15.8283 361.825C15.6417 361.638 15.427 361.424 15.1843 361.181C14.9417 360.938 14.6827 360.684 14.4073 360.418C14.1367 360.152 13.88 359.9 13.6373 359.662C13.3947 359.419 13.1823 359.205 13.0003 359.018C12.8183 358.827 12.697 358.691 12.6363 358.612L12.5033 358.43L12.5243 358.654V362H11.7543V356.687C11.8057 356.752 11.8897 356.846 12.0063 356.967C12.1277 357.088 12.2677 357.231 12.4263 357.394C12.5897 357.553 12.767 357.725 12.9583 357.912C13.1543 358.099 13.3503 358.288 13.5463 358.479C13.747 358.67 13.943 358.859 14.1343 359.046C14.3303 359.228 14.5077 359.398 14.6663 359.557C14.8297 359.716 14.9697 359.856 15.0863 359.977C15.203 360.098 15.2847 360.189 15.3313 360.25L15.4643 360.446L15.4433 360.208V356.925H16.2063ZM17.6025 356.925C17.6352 357.004 17.6889 357.135 17.7635 357.317C17.8382 357.494 17.9222 357.697 18.0155 357.926C18.1135 358.155 18.2139 358.397 18.3165 358.654C18.4239 358.911 18.5242 359.153 18.6175 359.382C18.7109 359.611 18.7949 359.816 18.8695 359.998C18.9442 360.175 18.9979 360.304 19.0305 360.383C19.0352 360.392 19.0469 360.425 19.0655 360.481C19.0842 360.537 19.0982 360.586 19.1075 360.628L19.1775 360.383C19.2102 360.304 19.2639 360.175 19.3385 359.998C19.4132 359.816 19.4972 359.611 19.5905 359.382C19.6839 359.153 19.7819 358.911 19.8845 358.654C19.9919 358.397 20.0922 358.155 20.1855 357.926C20.2835 357.697 20.3699 357.494 20.4445 357.317C20.5192 357.135 20.5729 357.004 20.6055 356.925H21.3615C21.3335 356.99 21.2822 357.109 21.2075 357.282C21.1375 357.45 21.0512 357.655 20.9485 357.898C20.8459 358.141 20.7315 358.407 20.6055 358.696C20.4842 358.985 20.3582 359.279 20.2275 359.578C20.1015 359.877 19.9755 360.171 19.8495 360.46C19.7282 360.749 19.6162 361.015 19.5135 361.258C19.4155 361.501 19.3292 361.708 19.2545 361.881C19.1845 362.049 19.1355 362.166 19.1075 362.231L16.8465 356.925H17.6025Z" fill="#C4C4C4"/>
<path d="M24.9167 333C24.9167 338.239 20.5966 342.5 15.25 342.5C9.90342 342.5 5.58333 338.239 5.58333 333C5.58333 327.761 9.90342 323.5 15.25 323.5C20.5966 323.5 24.9167 327.761 24.9167 333Z" fill="#616161" stroke="#C4C4C4"/>
<path d="M15.25 325L22.2937 329V337L15.25 341L8.20633 337V329L15.25 325Z" fill="#A5A5A5"/>
<path d="M15.25 338.5C18.3258 338.5 20.8333 336.045 20.8333 333C20.8333 329.955 18.3258 327.5 15.25 327.5C12.1742 327.5 9.66667 329.955 9.66667 333C9.66667 336.045 12.1742 338.5 15.25 338.5Z" fill="black" stroke="#E5E5E5"/>
<path d="M11.139 308.571V310.699C10.943 310.811 10.7097 310.9 10.439 310.965C10.1683 311.026 9.893 311.056 9.613 311.056C9.21167 311.056 8.85 310.993 8.528 310.867C8.21067 310.741 7.93767 310.568 7.709 310.349C7.48034 310.125 7.30534 309.861 7.184 309.558C7.06267 309.255 7.002 308.923 7.002 308.564C7.002 308.167 7.072 307.806 7.212 307.479C7.35667 307.148 7.55034 306.863 7.793 306.625C8.04034 306.387 8.32267 306.203 8.64 306.072C8.962 305.937 9.30267 305.869 9.662 305.869C9.90467 305.869 10.159 305.902 10.425 305.967C10.691 306.028 10.922 306.116 11.118 306.233L10.747 306.856C10.677 306.814 10.5953 306.777 10.502 306.744C10.4133 306.711 10.32 306.683 10.222 306.66C10.124 306.637 10.026 306.62 9.928 306.611C9.83 306.597 9.73667 306.59 9.648 306.59C9.40067 306.59 9.16267 306.639 8.934 306.737C8.70534 306.835 8.50467 306.97 8.332 307.143C8.15934 307.316 8.02167 307.519 7.919 307.752C7.81634 307.985 7.765 308.237 7.765 308.508C7.765 308.755 7.80934 308.989 7.898 309.208C7.99134 309.427 8.11967 309.621 8.283 309.789C8.44634 309.957 8.64234 310.09 8.871 310.188C9.09967 310.286 9.35167 310.335 9.627 310.335C9.73434 310.335 9.86034 310.326 10.005 310.307C10.1543 310.284 10.2967 310.246 10.432 310.195V309.229H9.445V308.571H11.139ZM15.287 311C15.2637 310.949 15.231 310.874 15.189 310.776C15.147 310.678 15.098 310.566 15.042 310.44C14.9907 310.309 14.9323 310.169 14.867 310.02C14.8063 309.866 14.7433 309.707 14.678 309.544H12.886L12.284 311H11.528L13.789 305.687C13.817 305.752 13.866 305.871 13.936 306.044C14.0107 306.217 14.097 306.424 14.195 306.667C14.2977 306.905 14.4097 307.171 14.531 307.465C14.657 307.754 14.783 308.048 14.909 308.347C15.0397 308.646 15.1657 308.94 15.287 309.229C15.413 309.518 15.5273 309.784 15.63 310.027C15.7327 310.27 15.819 310.477 15.889 310.65C15.9637 310.818 16.015 310.935 16.043 311H15.287ZM13.152 308.9H14.419C14.3537 308.746 14.2907 308.599 14.23 308.459C14.174 308.314 14.1203 308.184 14.069 308.067C14.0223 307.946 13.9803 307.841 13.943 307.752C13.9057 307.663 13.8777 307.593 13.859 307.542C13.8543 307.533 13.8427 307.5 13.824 307.444C13.81 307.388 13.7983 307.337 13.789 307.29C13.7797 307.337 13.7657 307.388 13.747 307.444C13.7283 307.5 13.7167 307.533 13.712 307.542L13.152 308.9ZM19.1722 305.925V306.653H17.8912V311H17.1282V306.653H15.8752V305.925H19.1722ZM20.0737 311V305.925H23.4057V306.618H20.8437V308.102H23.1257V308.809H20.8437V310.293H23.5037V311H20.0737Z" fill="#C4C4C4"/>
<path d="M24.9167 282C24.9167 287.239 20.5966 291.5 15.25 291.5C9.90342 291.5 5.58333 287.239 5.58333 282C5.58333 276.761 9.90342 272.5 15.25 272.5C20.5966 272.5 24.9167 276.761 24.9167 282Z" fill="#616161" stroke="#C4C4C4"/>
<path d="M15.25 274L22.2937 278V286L15.25 290L8.20633 286V278L15.25 274Z" fill="#A5A5A5"/>
<path d="M15.25 287.5C18.3258 287.5 20.8333 285.045 20.8333 282C20.8333 278.955 18.3258 276.5 15.25 276.5C12.1742 276.5 9.66667 278.955 9.66667 282C9.66667 285.045 12.1742 287.5 15.25 287.5Z" fill="black" stroke="#E5E5E5"/>
<path d="M33.9887 311V305.925H35.3747C35.6407 305.925 35.8834 305.96 36.1027 306.03C36.3267 306.1 36.5181 306.205 36.6767 306.345C36.8401 306.48 36.9661 306.648 37.0547 306.849C37.1434 307.045 37.1877 307.271 37.1877 307.528C37.1877 307.668 37.1737 307.808 37.1457 307.948C37.1177 308.083 37.0711 308.216 37.0057 308.347C36.9451 308.473 36.8657 308.592 36.7677 308.704C36.6697 308.811 36.5507 308.902 36.4107 308.977C36.5974 309.271 36.8004 309.598 37.0197 309.957C37.2391 310.312 37.4607 310.659 37.6847 311H36.7677C36.6744 310.855 36.5764 310.704 36.4737 310.545C36.3757 310.386 36.2754 310.23 36.1727 310.076C36.0747 309.917 35.9767 309.763 35.8787 309.614C35.7854 309.46 35.6967 309.318 35.6127 309.187H35.4727H34.7587V311H33.9887ZM34.7587 308.466H35.4517C35.6384 308.466 35.7947 308.436 35.9207 308.375C36.0467 308.31 36.1447 308.23 36.2147 308.137C36.2894 308.044 36.3407 307.943 36.3687 307.836C36.4014 307.729 36.4177 307.631 36.4177 307.542C36.4177 307.453 36.4014 307.358 36.3687 307.255C36.3407 307.148 36.2894 307.05 36.2147 306.961C36.1401 306.868 36.0397 306.791 35.9137 306.73C35.7924 306.669 35.6407 306.639 35.4587 306.639H34.7587V308.466ZM38.3842 311V305.925H41.7162V306.618H39.1542V308.102H41.4362V308.809H39.1542V310.293H41.8142V311H38.3842ZM45.6585 305.925V306.653H44.3775V311H43.6145V306.653H42.3615V305.925H45.6585ZM46.56 311V305.925H47.946C48.212 305.925 48.4547 305.96 48.674 306.03C48.898 306.1 49.0893 306.205 49.248 306.345C49.4113 306.48 49.5373 306.648 49.626 306.849C49.7147 307.045 49.759 307.271 49.759 307.528C49.759 307.668 49.745 307.808 49.717 307.948C49.689 308.083 49.6423 308.216 49.577 308.347C49.5163 308.473 49.437 308.592 49.339 308.704C49.241 308.811 49.122 308.902 48.982 308.977C49.1687 309.271 49.3717 309.598 49.591 309.957C49.8103 310.312 50.032 310.659 50.256 311H49.339C49.2457 310.855 49.1477 310.704 49.045 310.545C48.947 310.386 48.8467 310.23 48.744 310.076C48.646 309.917 48.548 309.763 48.45 309.614C48.3567 309.46 48.268 309.318 48.184 309.187H48.044H47.33V311H46.56ZM47.33 308.466H48.023C48.2097 308.466 48.366 308.436 48.492 308.375C48.618 308.31 48.716 308.23 48.786 308.137C48.8607 308.044 48.912 307.943 48.94 307.836C48.9727 307.729 48.989 307.631 48.989 307.542C48.989 307.453 48.9727 307.358 48.94 307.255C48.912 307.148 48.8607 307.05 48.786 306.961C48.7113 306.868 48.611 306.791 48.485 306.73C48.3637 306.669 48.212 306.639 48.03 306.639H47.33V308.466ZM50.9555 305.925H51.7185V311H50.9555V305.925ZM56.7523 308.571V310.699C56.5563 310.811 56.323 310.9 56.0523 310.965C55.7816 311.026 55.5063 311.056 55.2263 311.056C54.825 311.056 54.4633 310.993 54.1413 310.867C53.824 310.741 53.551 310.568 53.3223 310.349C53.0936 310.125 52.9186 309.861 52.7973 309.558C52.676 309.255 52.6153 308.923 52.6153 308.564C52.6153 308.167 52.6853 307.806 52.8253 307.479C52.97 307.148 53.1636 306.863 53.4063 306.625C53.6536 306.387 53.936 306.203 54.2533 306.072C54.5753 305.937 54.916 305.869 55.2753 305.869C55.518 305.869 55.7723 305.902 56.0383 305.967C56.3043 306.028 56.5353 306.116 56.7313 306.233L56.3603 306.856C56.2903 306.814 56.2086 306.777 56.1153 306.744C56.0266 306.711 55.9333 306.683 55.8353 306.66C55.7373 306.637 55.6393 306.62 55.5413 306.611C55.4433 306.597 55.35 306.59 55.2613 306.59C55.014 306.59 54.776 306.639 54.5473 306.737C54.3186 306.835 54.118 306.97 53.9453 307.143C53.7726 307.316 53.635 307.519 53.5323 307.752C53.4296 307.985 53.3783 308.237 53.3783 308.508C53.3783 308.755 53.4226 308.989 53.5113 309.208C53.6046 309.427 53.733 309.621 53.8963 309.789C54.0596 309.957 54.2556 310.09 54.4843 310.188C54.713 310.286 54.965 310.335 55.2403 310.335C55.3476 310.335 55.4736 310.326 55.6183 310.307C55.7676 310.284 55.91 310.246 56.0453 310.195V309.229H55.0583V308.571H56.7523Z" fill="#C4C4C4"/>
<path d="M54.9167 282C54.9167 287.239 50.5966 291.5 45.25 291.5C39.9034 291.5 35.5833 287.239 35.5833 282C35.5833 276.761 39.9034 272.5 45.25 272.5C50.5966 272.5 54.9167 276.761 54.9167 282Z" fill="#616161" stroke="#C4C4C4"/>
<path d="M45.25 274L52.2937 278V286L45.25 290L38.2063 286V278L45.25 274Z" fill="#A5A5A5"/>
<path d="M45.25 287.5C48.3258 287.5 50.8333 285.045 50.8333 282C50.8333 278.955 48.3258 276.5 45.25 276.5C42.1742 276.5 39.6667 278.955 39.6667 282C39.6667 285.045 42.1742 287.5 45.25 287.5Z" fill="black" stroke="#E5E5E5"/>
<rect x="31.9677" y="320" width="28.5323" height="45" fill="#161616"/>
<path d="M37.7335 359.466C37.7335 359.116 37.8012 358.785 37.9365 358.472C38.0719 358.155 38.2562 357.877 38.4895 357.639C38.7275 357.401 39.0029 357.214 39.3155 357.079C39.6282 356.939 39.9642 356.869 40.3235 356.869C40.6782 356.869 41.0119 356.939 41.3245 357.079C41.6419 357.214 41.9172 357.401 42.1505 357.639C42.3885 357.877 42.5752 358.155 42.7105 358.472C42.8505 358.785 42.9205 359.116 42.9205 359.466C42.9205 359.825 42.8505 360.161 42.7105 360.474C42.5752 360.787 42.3885 361.062 42.1505 361.3C41.9172 361.533 41.6419 361.718 41.3245 361.853C41.0119 361.988 40.6782 362.056 40.3235 362.056C39.9642 362.056 39.6282 361.988 39.3155 361.853C39.0029 361.718 38.7275 361.533 38.4895 361.3C38.2562 361.062 38.0719 360.787 37.9365 360.474C37.8012 360.161 37.7335 359.825 37.7335 359.466ZM38.4965 359.473C38.4965 359.73 38.5432 359.972 38.6365 360.201C38.7345 360.425 38.8675 360.621 39.0355 360.789C39.2035 360.957 39.3995 361.09 39.6235 361.188C39.8475 361.286 40.0855 361.335 40.3375 361.335C40.5895 361.335 40.8252 361.286 41.0445 361.188C41.2685 361.09 41.4622 360.957 41.6255 360.789C41.7935 360.621 41.9242 360.425 42.0175 360.201C42.1155 359.972 42.1645 359.727 42.1645 359.466C42.1645 359.209 42.1155 358.969 42.0175 358.745C41.9242 358.516 41.7935 358.318 41.6255 358.15C41.4575 357.982 41.2615 357.849 41.0375 357.751C40.8182 357.653 40.5825 357.604 40.3305 357.604C40.0785 357.604 39.8405 357.653 39.6165 357.751C39.3925 357.849 39.1965 357.982 39.0285 358.15C38.8652 358.318 38.7345 358.516 38.6365 358.745C38.5432 358.974 38.4965 359.216 38.4965 359.473ZM45.6882 362.056C45.4176 362.056 45.1656 362.012 44.9322 361.923C44.6989 361.834 44.4936 361.711 44.3162 361.552C44.1436 361.389 44.0059 361.195 43.9032 360.971C43.8052 360.742 43.7562 360.488 43.7562 360.208V356.925H44.5262V360.187C44.5262 360.35 44.5542 360.502 44.6102 360.642C44.6709 360.777 44.7525 360.899 44.8552 361.006C44.9625 361.109 45.0862 361.19 45.2262 361.251C45.3662 361.307 45.5202 361.335 45.6882 361.335C45.8516 361.335 46.0032 361.307 46.1432 361.251C46.2879 361.19 46.4116 361.109 46.5142 361.006C46.6216 360.899 46.7056 360.777 46.7662 360.642C46.8269 360.502 46.8572 360.35 46.8572 360.187V356.925H47.6272V360.208C47.6272 360.488 47.5759 360.742 47.4732 360.971C47.3752 361.195 47.2376 361.389 47.0602 361.552C46.8876 361.711 46.6822 361.834 46.4442 361.923C46.2109 362.012 45.9589 362.056 45.6882 362.056ZM51.7701 356.925V357.653H50.4891V362H49.7261V357.653H48.4731V356.925H51.7701Z" fill="#C4C4C4"/>
<path d="M54.0968 333C54.0968 338.254 49.9081 342.5 44.7581 342.5C39.6081 342.5 35.4194 338.254 35.4194 333C35.4194 327.746 39.6081 323.5 44.7581 323.5C49.9081 323.5 54.0968 327.746 54.0968 333Z" fill="#616161" stroke="#C4C4C4"/>
<path d="M44.7581 325L51.5745 329V337L44.7581 341L37.9416 337V329L44.7581 325Z" fill="#A5A5A5"/>
<path d="M44.7581 338.5C47.7587 338.5 50.1774 336.03 50.1774 333C50.1774 329.97 47.7587 327.5 44.7581 327.5C41.7574 327.5 39.3387 329.97 39.3387 333C39.3387 336.03 41.7574 338.5 44.7581 338.5Z" fill="black" stroke="#E5E5E5"/>
</svg>
